<svg width="240" height="240" viewBox="0 0 240 240" fill="none" xmlns="http://www.w3.org/2000/svg">
<g clip-path="url(#clip0_3565_8704)">
<path d="M146.83 59.0252C149.267 56.8674 150.81 53.7257 150.81 50.2119C150.81 43.6883 145.521 38.3994 138.997 38.3994C138.3 38.3994 137.622 38.4716 136.958 38.5873C137.022 37.9915 137.058 37.3865 137.058 36.7734C137.058 27.523 129.558 20.0244 120.309 20.0244C111.059 20.0244 103.56 27.523 103.56 36.7734C103.56 37.3784 103.593 37.9754 103.656 38.5639C103.075 38.4624 102.481 38.3994 101.872 38.3994C97.4219 38.3994 93.6419 41.2236 92.196 45.1725C90.3584 43.7527 88.0615 42.8994 85.5596 42.8994C79.5537 42.8994 74.6846 47.7682 74.6846 53.7744C74.6846 55.6805 75.179 57.4688 76.0424 59.0252H146.83Z" fill="white"/>
<g clip-path="url(#clip1_3565_8704)">
<path d="M134.636 157.814C117.477 180.34 122.336 188.132 88.3164 202.428" stroke="#FF8022" stroke-width="22.5232" stroke-miterlimit="10" stroke-linecap="round"/>
<path d="M141.145 141.973C141.686 142.883 158.744 156.647 183.59 144.028" stroke="#FF7415" stroke-width="20.9727" stroke-linecap="round" stroke-linejoin="round"/>
<path d="M105.175 143.3C105.175 143.3 83.3744 164.299 56.6377 170.383" stroke="#FF8022" stroke-width="22.5232" stroke-miterlimit="10" stroke-linecap="round"/>
<path d="M81.8329 184.617L86.9289 188.569C102.229 200.432 124.399 196.689 134.957 180.462L141.614 170.23C151.006 155.796 147.761 136.572 134.151 126.019L130.65 123.304C117.04 112.752 97.6136 114.397 85.9731 127.088L77.7221 136.084C64.6356 150.351 66.5331 172.755 81.8329 184.617Z" fill="#FF8022"/>
<path d="M112.747 167.369C115.654 167.369 118.011 165.012 118.011 162.105C118.011 159.198 115.654 156.842 112.747 156.842C109.84 156.842 107.483 159.198 107.483 162.105C107.483 165.012 109.84 167.369 112.747 167.369Z" fill="#FF6700"/>
<path d="M101.577 181.775C104.484 181.775 106.841 179.419 106.841 176.512C106.841 173.605 104.484 171.248 101.577 171.248C98.6701 171.248 96.3135 173.605 96.3135 176.512C96.3135 179.419 98.6701 181.775 101.577 181.775Z" fill="#FF6700"/>
<path d="M60.4968 103.525C60.4181 104.582 66.4975 125.64 94.0878 129.554" stroke="#FF8022" stroke-width="20.9727" stroke-linecap="round" stroke-linejoin="round"/>
<path d="M163.484 82.8059C171.572 82.8059 178.128 76.2495 178.128 68.1617C178.128 60.074 171.572 53.5176 163.484 53.5176C155.396 53.5176 148.84 60.074 148.84 68.1617C148.84 76.2495 155.396 82.8059 163.484 82.8059Z" fill="#FF8022"/>
<path d="M93.3629 82.8059C101.451 82.8059 108.007 76.2495 108.007 68.1617C108.007 60.074 101.451 53.5176 93.3629 53.5176C85.2752 53.5176 78.7188 60.074 78.7188 68.1617C78.7188 76.2495 85.2752 82.8059 93.3629 82.8059Z" fill="#FF8022"/>
<path d="M77.293 102.881C77.293 131.12 100.185 146.934 128.424 146.934C156.663 146.934 179.555 131.12 179.555 102.881C179.555 74.6422 156.663 51.75 128.424 51.75C100.185 51.75 77.293 74.6422 77.293 102.881Z" fill="#FF8022"/>
<path d="M93.4258 112.098C93.4258 132.613 110.056 138.074 130.571 138.074C151.085 138.074 167.716 132.613 167.716 112.098C167.716 91.5835 151.085 74.9531 130.571 74.9531C110.056 74.9531 93.4258 91.5836 93.4258 112.098Z" fill="#FFEBB3"/>
<path opacity="0.12" d="M162.882 93.5175C162.882 77.7257 150.08 64.9238 134.288 64.9238" stroke="white" stroke-width="13.0944" stroke-miterlimit="10" stroke-linecap="round"/>
<path opacity="0.12" d="M117.745 71.7065C121.247 71.7065 124.085 68.8677 124.085 65.3659C124.085 61.8642 121.247 59.0254 117.745 59.0254C114.243 59.0254 111.404 61.8642 111.404 65.3659C111.404 68.8677 114.243 71.7065 117.745 71.7065Z" fill="white"/>
<path d="M148.84 119.021C155.747 119.021 161.346 113.422 161.346 106.514C161.346 99.6072 155.747 94.0078 148.84 94.0078C141.932 94.0078 136.333 99.6072 136.333 106.514C136.333 113.422 141.932 119.021 148.84 119.021Z" fill="white"/>
<path d="M148.84 114.665C153.342 114.665 156.991 111.015 156.991 106.514C156.991 102.012 153.342 98.3633 148.84 98.3633C144.339 98.3633 140.689 102.012 140.689 106.514C140.689 111.015 144.339 114.665 148.84 114.665Z" fill="black"/>
<path opacity="0.13" d="M148.841 106.282C150.689 106.282 152.186 105.109 152.186 103.662C152.186 102.215 150.689 101.042 148.841 101.042C146.993 101.042 145.495 102.215 145.495 103.662C145.495 105.109 146.993 106.282 148.841 106.282Z" fill="white"/>
<path d="M116.061 116.54C121.598 116.54 126.087 112.052 126.087 106.514C126.087 100.977 121.598 96.4883 116.061 96.4883C110.524 96.4883 106.035 100.977 106.035 106.514C106.035 112.052 110.524 116.54 116.061 116.54Z" fill="white"/>
<path d="M116.061 113.049C119.67 113.049 122.596 110.123 122.596 106.515C122.596 102.906 119.67 99.9805 116.061 99.9805C112.453 99.9805 109.527 102.906 109.527 106.515C109.527 110.123 112.453 113.049 116.061 113.049Z" fill="black"/>
<path opacity="0.13" d="M116.062 106.329C117.543 106.329 118.744 105.388 118.744 104.228C118.744 103.068 117.543 102.128 116.062 102.128C114.581 102.128 113.38 103.068 113.38 104.228C113.38 105.388 114.581 106.329 116.062 106.329Z" fill="white"/>
<path d="M132.09 122.841C134.664 122.841 136.75 120.648 136.75 117.944C136.75 115.24 134.664 113.048 132.09 113.048C129.515 113.048 127.429 115.24 127.429 117.944C127.429 120.648 129.515 122.841 132.09 122.841Z" fill="#FFAEAE"/>
<path opacity="0.7" d="M157.491 131.696C169.92 131.696 179.995 121.621 179.995 109.193C179.995 96.7645 169.92 86.6895 157.491 86.6895C145.063 86.6895 134.988 96.7645 134.988 109.193C134.988 121.621 145.063 131.696 157.491 131.696Z" fill="white"/>
<g opacity="0.1">
<path d="M150.958 130.724L168.165 89.3786C164.297 87.2987 159.899 86.4005 155.546 86.774L140.217 123.606C143.114 127.085 146.874 129.489 150.958 130.724Z" fill="white"/>
<path d="M175.531 95.751C174.231 94.0057 172.728 92.4991 171.073 91.2461L154.334 131.468C156.425 131.764 158.556 131.77 160.665 131.471L175.531 95.751Z" fill="white"/>
</g>
<path d="M175.116 126.889L168.747 131.488L174.173 139.003L180.542 134.404L175.116 126.889Z" fill="#3864B0"/>
<path d="M174.161 137.694L179.305 133.98C180.483 133.129 182.13 133.395 182.98 134.573L195.292 151.623C195.739 152.241 195.599 153.106 194.981 153.552L187.809 158.731C187.191 159.178 186.326 159.038 185.88 158.42L173.568 141.37C172.717 140.192 172.983 138.545 174.161 137.694Z" fill="#4078C5"/>
<path d="M157.491 131.696C169.92 131.696 179.995 121.621 179.995 109.193C179.995 96.7645 169.92 86.6895 157.491 86.6895C145.063 86.6895 134.988 96.7645 134.988 109.193C134.988 121.621 145.063 131.696 157.491 131.696Z" stroke="#8E8E8E" stroke-width="4.9935" stroke-miterlimit="10"/>
</g>
<path d="M234.86 217.08C238.032 213.952 240 209.605 240 204.798C240 195.27 232.275 187.546 222.747 187.546C221.199 187.546 219.701 187.753 218.274 188.135C218.28 187.939 218.289 187.744 218.289 187.546C218.289 176.403 209.256 167.369 198.112 167.369C188.859 167.369 181.066 173.601 178.687 182.094C178.25 182.033 177.806 181.99 177.352 181.99C172.335 181.99 168.224 185.851 167.813 190.764C167.799 190.764 167.786 190.763 167.773 190.763C158.567 190.763 151.104 198.225 151.104 207.43C151.104 211.028 152.249 214.356 154.187 217.08H234.86Z" fill="white"/>
<path d="M76.5373 159.216C77.8228 156.908 78.5582 154.251 78.5582 151.421C78.5582 142.559 71.3731 135.374 62.51 135.374C61.0774 135.374 59.6894 135.564 58.3667 135.916C55.5432 128.283 48.2 122.841 39.5845 122.841C29.8279 122.841 21.7053 129.821 19.9285 139.059C18.6856 138.75 17.3863 138.583 16.0481 138.583C7.18507 138.583 0 145.769 0 154.631C0 156.225 0.235875 157.763 0.66795 159.216H76.5373Z" fill="white"/>
</g>
<defs>
<clipPath id="clip0_3565_8704">
<rect width="240" height="240" fill="white"/>
</clipPath>
<clipPath id="clip1_3565_8704">
<rect width="150.177" height="161.939" fill="white" transform="translate(45.376 51.75)"/>
</clipPath>
</defs>
</svg>
