<svg width="150" height="200" viewBox="0 0 150 200" fill="none" xmlns="http://www.w3.org/2000/svg">
<path d="M131.57 90.4317C131.57 76.2413 126.258 62.6885 116.614 52.2686C115.985 51.5899 115.311 50.8995 114.611 50.2168C114.593 50.2002 114.577 50.1836 114.559 50.167C104.004 39.8926 90.0872 34.2334 75.3714 34.2334C59.7737 34.2334 44.7425 40.8076 34.1302 52.2695C24.4857 62.6884 19.174 76.2412 19.174 90.4316C19.174 102.788 23.1751 113.612 30.8011 122.034C24.5111 129.645 18.349 141.574 18.431 159.048C18.4671 166.785 24.7914 173.079 32.5941 173.079C32.848 173.078 33.1009 173.07 33.3529 173.056C34.0179 178.402 35.0462 183.492 36.4241 188.25C38.429 195.168 44.8558 200 52.0531 200C53.5843 200 55.1097 199.782 56.5853 199.354C63.4369 197.37 67.9896 191.251 68.3167 184.493C69.5862 184.621 70.8626 184.685 72.1438 184.685H78.5999C79.8802 184.685 81.1575 184.621 82.427 184.494C82.7541 191.25 87.3069 197.37 94.1555 199.353C95.634 199.782 97.1593 200 98.6906 200C105.889 200 112.316 195.168 114.32 188.249C115.702 183.474 116.734 178.369 117.4 173.018C124.53 172.358 130.156 166.345 130.191 159.048C130.269 142.371 124.613 130.768 118.796 123.258C127.173 114.681 131.57 103.434 131.57 90.4317Z" fill="white"/>
<path d="M32.5276 168.079C27.5227 168.079 23.4544 164.034 23.4309 159.024C23.2776 126.453 46.7707 113.274 52.7883 112.847C57.8069 112.498 62.1527 116.264 62.5081 121.275C62.8147 125.585 60.0676 129.406 56.1057 130.619C54.3528 131.464 41.5286 138.362 41.6262 158.939C41.6496 163.963 37.5959 168.055 32.5715 168.079H32.5276ZM54.0921 130.994C54.0882 130.995 54.0833 130.995 54.0794 130.995C54.0833 130.995 54.0872 130.995 54.0921 130.994Z" fill="#73868E"/>
<path d="M116.094 168.079H116.05C111.026 168.055 106.972 163.963 106.995 158.939C107.093 138.362 94.2688 131.464 92.5159 130.619C88.554 129.406 85.807 125.585 86.1137 121.275C86.4692 116.264 90.8304 112.496 95.8333 112.847C101.851 113.274 125.344 126.453 125.191 159.024C125.167 164.034 121.098 168.079 116.094 168.079ZM94.5296 130.994C94.5345 130.995 94.5384 130.995 94.5423 130.995C94.5384 130.995 94.5335 130.995 94.5296 130.994Z" fill="#73868E"/>
<path d="M52.053 195C47.1614 195 42.6565 191.792 41.2268 186.858C32.8118 157.806 40.9924 126.478 41.345 125.158C42.9514 119.142 49.1302 115.563 55.1487 117.173C61.1604 118.778 64.7337 124.947 63.1389 130.959C63.0549 131.277 56.259 157.694 62.8889 180.583C64.6213 186.565 61.177 192.819 55.1946 194.552C54.1477 194.855 53.0911 195 52.053 195Z" fill="#91A9B6"/>
<path d="M98.6905 195C97.6524 195 96.5958 194.855 95.5489 194.552C89.5665 192.819 86.1222 186.565 87.8547 180.583C94.4914 157.67 87.674 131.223 87.6047 130.958C86.0207 124.943 89.6036 118.771 95.6163 117.178C101.629 115.581 107.794 119.149 109.399 125.158C109.751 126.477 117.932 157.806 109.517 186.858C108.088 191.792 103.582 195 98.6905 195Z" fill="#91A9B6"/>
<path d="M78.6005 179.686H72.1436C52.7584 179.686 37.5109 163.122 39.1127 143.803L40.1226 131.622C41.5474 114.438 55.9102 101.217 73.1535 101.217H77.5905C94.8338 101.217 109.197 114.438 110.621 131.622L111.631 143.803C113.233 163.122 97.9857 179.686 78.6005 179.686Z" fill="#91A9B6"/>
<path d="M88.8253 158.795H61.7197C59.7724 158.795 58.1895 157.212 58.1895 155.266V139.386C58.1895 137.438 59.7724 135.855 61.7197 135.855H88.8253C90.7716 135.855 92.3546 137.438 92.3546 139.386V155.266C92.3546 157.212 90.7716 158.795 88.8253 158.795ZM61.7197 136.982C60.3945 136.982 59.3165 138.061 59.3165 139.386V155.266C59.3165 156.59 60.3945 157.668 61.7197 157.668H88.8253C90.1495 157.668 91.2275 156.59 91.2275 155.266V139.386C91.2275 138.061 90.1495 136.982 88.8253 136.982H61.7197Z" fill="#6E8896"/>
<path d="M58.7532 146.105H37.7512V147.232H58.7532V146.105Z" fill="#6E8896"/>
<path d="M112.535 146.105H91.5332V147.232H112.535V146.105Z" fill="#6E8896"/>
<path d="M85.5431 146.174C87.0552 146.174 88.281 144.948 88.281 143.436C88.281 141.924 87.0552 140.698 85.5431 140.698C84.031 140.698 82.8052 141.924 82.8052 143.436C82.8052 144.948 84.031 146.174 85.5431 146.174Z" fill="#32E11F"/>
<path d="M85.5431 154.342C87.0552 154.342 88.281 153.117 88.281 151.604C88.281 150.092 87.0552 148.867 85.5431 148.867C84.031 148.867 82.8052 150.092 82.8052 151.604C82.8052 153.117 84.031 154.342 85.5431 154.342Z" fill="#E52C15"/>
<path d="M126.569 90.4313C126.569 118.707 103.648 134.542 75.3717 134.542C47.0959 134.542 24.1738 118.707 24.1738 90.4313C24.1738 62.1555 47.0959 39.2335 75.3717 39.2335C103.648 39.2335 126.569 62.1555 126.569 90.4313Z" fill="#91A9B6"/>
<path d="M112.565 99.6606C112.565 120.202 95.9132 125.67 75.3719 125.67C54.8306 125.67 38.1785 120.202 38.1785 99.6606C38.1785 79.1192 54.8306 62.4672 75.3719 62.4672C95.9132 62.4672 112.565 79.1193 112.565 99.6606Z" fill="#D9E7EF"/>
<path opacity="0.08" d="M40.8684 87.6104C37.2473 87.6104 34.3127 84.6758 34.3127 81.0547C34.3127 61.6524 50.0968 45.8682 69.4991 45.8682C73.1202 45.8682 76.0549 48.8028 76.0549 52.4239C76.0549 56.045 73.1202 58.9796 69.4991 58.9796C57.3272 58.9796 47.424 68.8829 47.424 81.0548C47.424 84.6759 44.4895 87.6104 40.8684 87.6104Z" fill="white"/>
<path opacity="0.08" d="M86.0646 59.2166C89.5709 59.2166 92.4135 56.3742 92.4135 52.8678C92.4135 49.3615 89.5709 46.519 86.0646 46.519C82.5582 46.519 79.7158 49.3615 79.7158 52.8678C79.7158 56.3742 82.5582 59.2166 86.0646 59.2166Z" fill="white"/>
<path d="M75.3624 106.947H75.3585C73.1798 106.945 71.1544 105.965 69.8019 104.257C69.1701 103.458 69.3047 102.299 70.1036 101.666C70.9015 101.036 72.0617 101.169 72.6945 101.968C73.3429 102.788 74.3146 103.258 75.3605 103.259H75.3624C76.4083 103.259 77.38 102.789 78.0294 101.971C78.379 101.53 78.9133 101.271 79.4758 101.271H79.4817C80.0471 101.273 80.5823 101.531 80.9299 101.976C81.5217 102.732 81.4377 103.815 80.7551 104.462C79.4055 106.044 77.4542 106.947 75.3624 106.947Z" fill="#232323"/>
<path d="M60.1877 65.9572H59.0608V124.826H60.1877V65.9572Z" fill="#C0D4DD"/>
<path d="M91.3136 65.9572H90.1865V124.826H91.3136V65.9572Z" fill="#C0D4DD"/>
<path d="M59.9937 104.108C65.5381 104.108 70.0327 99.613 70.0327 94.0685C70.0327 88.5241 65.5381 84.0294 59.9937 84.0294C54.4492 84.0294 49.9546 88.5241 49.9546 94.0685C49.9546 99.613 54.4492 104.108 59.9937 104.108Z" fill="white"/>
<path d="M59.9938 100.611C63.6072 100.611 66.5364 97.6819 66.5364 94.0685C66.5364 90.4551 63.6072 87.5259 59.9938 87.5259C56.3804 87.5259 53.4512 90.4551 53.4512 94.0685C53.4512 97.6819 56.3804 100.611 59.9938 100.611Z" fill="black"/>
<path opacity="0.13" d="M59.9938 93.8823C61.4769 93.8823 62.6793 92.9408 62.6793 91.7792C62.6793 90.6177 61.4769 89.6761 59.9938 89.6761C58.5106 89.6761 57.3083 90.6177 57.3083 91.7792C57.3083 92.9408 58.5106 93.8823 59.9938 93.8823Z" fill="white"/>
<path d="M90.7498 104.108C96.2942 104.108 100.789 99.613 100.789 94.0685C100.789 88.5241 96.2942 84.0294 90.7498 84.0294C85.2053 84.0294 80.7107 88.5241 80.7107 94.0685C80.7107 99.613 85.2053 104.108 90.7498 104.108Z" fill="white"/>
<path d="M90.7496 100.611C94.363 100.611 97.2922 97.6819 97.2922 94.0685C97.2922 90.4551 94.363 87.5259 90.7496 87.5259C87.1363 87.5259 84.207 90.4551 84.207 94.0685C84.207 97.6819 87.1363 100.611 90.7496 100.611Z" fill="black"/>
<path opacity="0.13" d="M90.7496 93.8823C92.2328 93.8823 93.4352 92.9408 93.4352 91.7792C93.4352 90.6177 92.2328 89.6761 90.7496 89.6761C89.2665 89.6761 88.0642 90.6177 88.0642 91.7792C88.0642 92.9408 89.2665 93.8823 90.7496 93.8823Z" fill="white"/>
<path d="M75.3723 127.931C48.8235 127.931 35.9182 118.684 35.9182 99.6603C35.9182 77.9054 53.6174 60.2062 75.3723 60.2062C97.1272 60.2062 114.826 77.9054 114.826 99.6603C114.826 118.684 101.921 127.931 75.3723 127.931ZM75.3723 64.7277C56.1106 64.7277 40.4397 80.3986 40.4397 99.6603C40.4397 115.863 51.5393 123.409 75.3723 123.409C99.2053 123.409 110.305 115.863 110.305 99.6603C110.305 80.3986 94.634 64.7277 75.3723 64.7277Z" fill="#BACFD8"/>
<path d="M37.7988 55.6667H112.945C112.344 55.0178 111.725 54.3864 111.092 53.7692H39.652C39.0187 54.3864 38.3996 55.0177 37.7988 55.6667Z" fill="#738D9A"/>
<path d="M54.6367 51.0933C55.4413 51.0933 56.0935 50.4411 56.0935 49.6365C56.0935 48.8319 55.4413 48.1797 54.6367 48.1797C53.8322 48.1797 53.1799 48.8319 53.1799 49.6365C53.1799 50.4411 53.8322 51.0933 54.6367 51.0933Z" fill="#738D9A"/>
<path d="M65.0042 51.0933C65.8087 51.0933 66.4609 50.4411 66.4609 49.6365C66.4609 48.8319 65.8087 48.1797 65.0042 48.1797C64.1996 48.1797 63.5474 48.8319 63.5474 49.6365C63.5474 50.4411 64.1996 51.0933 65.0042 51.0933Z" fill="#738D9A"/>
<path d="M75.3718 51.0933C76.1764 51.0933 76.8286 50.4411 76.8286 49.6365C76.8286 48.8319 76.1764 48.1797 75.3718 48.1797C74.5673 48.1797 73.915 48.8319 73.915 49.6365C73.915 50.4411 74.5673 51.0933 75.3718 51.0933Z" fill="#738D9A"/>
<path d="M85.7395 51.0933C86.5441 51.0933 87.1963 50.4411 87.1963 49.6365C87.1963 48.8319 86.5441 48.1797 85.7395 48.1797C84.9349 48.1797 84.2827 48.8319 84.2827 49.6365C84.2827 50.4411 84.9349 51.0933 85.7395 51.0933Z" fill="#738D9A"/>
<path d="M96.1073 51.0933C96.9119 51.0933 97.5641 50.4411 97.5641 49.6365C97.5641 48.8319 96.9119 48.1797 96.1073 48.1797C95.3027 48.1797 94.6504 48.8319 94.6504 49.6365C94.6504 50.4411 95.3027 51.0933 96.1073 51.0933Z" fill="#738D9A"/>
</svg>
