<svg width="150" height="200" viewBox="0 0 150 200" fill="none" xmlns="http://www.w3.org/2000/svg">
<path d="M122.552 93.7974C123.476 91.9986 124.08 90.0035 124.334 87.898C129.095 83.0777 131.787 76.5855 131.787 69.7681C131.787 62.9507 129.097 56.4624 124.338 51.6431C124.087 49.5591 123.482 47.5503 122.552 45.7388C116.725 34.397 107.01 25.5757 95.1633 20.8579C95.0339 20.7944 94.9011 20.7358 94.7649 20.6831C94.6106 20.6226 94.4534 20.5679 94.2717 20.5083C93.5544 20.2378 92.8293 19.9868 92.0935 19.7446L91.8313 19.6577C91.6116 19.5835 91.3918 19.5102 91.1624 19.4389C90.0145 19.0883 88.9803 18.8022 87.9324 18.5512L87.7678 18.5131C87.0852 18.352 86.3982 18.2065 85.7063 18.0717C85.679 18.0668 85.6296 18.0571 85.6023 18.0522C85.5818 18.0473 85.4675 18.0249 85.447 18.021C83.9817 17.7456 82.4553 17.5278 80.8835 17.3716L80.3273 17.3228C79.758 17.272 79.1857 17.233 78.5851 17.1998L77.9704 17.1676C76.4616 17.1031 74.9216 17.1041 73.4343 17.1666L72.7834 17.2008C72.2087 17.233 71.6364 17.2721 71.0964 17.3199L70.4851 17.3746C68.9392 17.5279 67.4123 17.7457 65.9329 18.024L65.6985 18.0699C65.0032 18.2037 64.3118 18.3521 63.6262 18.5123C63.6159 18.5152 63.5354 18.5338 63.5256 18.5367L63.3943 18.5679C62.3982 18.8072 61.3626 19.0923 60.2224 19.4429C60.0002 19.5113 59.78 19.5845 59.5603 19.6587L59.3054 19.7437C58.571 19.9839 57.843 20.2369 57.0964 20.5162C56.9392 20.5689 56.7829 20.6226 56.6291 20.6832C56.4943 20.7359 56.362 20.7936 56.2336 20.857C49.8112 23.4136 44.0153 27.1763 39.1257 31.8941C38.5319 27.5308 34.7815 24.1568 30.258 24.1568C25.3229 24.1568 21.3083 28.1714 21.3083 33.107C21.3083 35.5718 22.3278 37.856 24.0129 39.4986L22.7448 55.1851C19.7746 59.4976 18.2131 64.5064 18.2131 69.7681C18.2131 77.3433 21.5793 84.5376 27.3166 89.4234C27.6315 90.9703 28.1418 92.4341 28.8415 93.7955C30.2868 96.61 31.9865 99.2896 33.9182 101.805C27.0359 108.886 18.6604 121.676 18.7561 141.928C18.7932 149.666 25.1169 155.96 32.9197 155.96C33.1736 155.959 33.4265 155.951 33.6785 155.936C34.3431 161.282 35.3714 166.372 36.7493 171.13C38.7537 178.048 45.1805 182.88 52.3777 182.88C53.9085 182.88 55.4343 182.663 56.9114 182.235C63.762 180.251 68.3147 174.13 68.6424 167.375C69.9114 167.502 71.1883 167.566 72.4686 167.566H78.9256C80.2059 167.566 81.4827 167.501 82.7523 167.375C83.0794 174.13 87.6322 180.251 94.4818 182.235C95.9608 182.663 97.4862 182.88 99.0165 182.88C106.214 182.88 112.641 178.048 114.645 171.129C116.028 166.355 117.06 161.251 117.725 155.899C124.854 155.239 130.481 149.225 130.516 141.928C130.607 122.617 122.895 110.088 116.506 103.035C118.839 100.176 120.863 97.0845 122.552 93.7974Z" fill="white"/>
<path d="M78.9255 162.566H72.4685C53.0833 162.566 37.8358 146.002 39.4376 126.683L40.4476 114.503C41.8724 97.3185 56.2351 84.0972 73.4784 84.0972H77.9154C95.1587 84.0972 109.522 97.3185 110.946 114.503L111.956 126.683C113.558 146.002 98.3107 162.566 78.9255 162.566Z" fill="#63C928"/>
<path d="M116.419 150.959H116.375C111.351 150.935 107.297 146.843 107.32 141.819C107.418 121.242 94.5943 114.344 92.8414 113.5C88.879 112.287 86.1319 108.465 86.4381 104.157C86.7941 99.1441 91.1442 95.3736 96.1578 95.7271C102.176 96.1539 125.67 109.333 125.516 141.905C125.492 146.915 121.423 150.959 116.419 150.959Z" fill="#49A50E"/>
<path d="M32.8526 150.96C27.8482 150.96 23.7798 146.915 23.7559 141.905C23.6016 109.333 47.0957 96.1538 53.1138 95.7271C58.1231 95.3619 62.4766 99.1441 62.8335 104.157C63.1397 108.465 60.3926 112.287 56.4302 113.5C54.6773 114.344 41.8535 121.242 41.9512 141.819C41.9746 146.843 37.9209 150.935 32.8965 150.96H32.8526Z" fill="#49A50E"/>
<path d="M52.3774 177.88C47.4858 177.88 42.981 174.672 41.5518 169.739C33.1368 140.686 41.3183 109.357 41.6704 108.038C43.2778 102.022 49.458 98.4497 55.4746 100.053C61.4863 101.659 65.0605 107.83 63.4634 113.841C63.353 114.264 56.5973 140.621 63.214 163.463C64.9464 169.446 61.502 175.7 55.5201 177.432C54.4727 177.736 53.416 177.88 52.3774 177.88Z" fill="#63C928"/>
<path d="M99.0162 177.88C97.9771 177.88 96.9215 177.736 95.8736 177.432C89.8917 175.7 86.4474 169.446 88.1799 163.463C94.8166 140.55 87.9997 114.103 87.9299 113.838C86.3459 107.824 89.9293 101.652 95.9415 100.058C101.952 98.4595 108.119 102.03 109.724 108.039C110.076 109.358 118.257 140.686 109.842 169.739C108.413 174.672 103.907 177.88 99.0162 177.88Z" fill="#63C928"/>
<path d="M31.0563 73.1643H26.3081L29.5455 33.1067H31.0563V73.1643Z" fill="#4EAF0E"/>
<path d="M44.0339 90.5891C55.533 90.5891 64.8549 81.2673 64.8549 69.7681C64.8549 58.269 55.533 48.9471 44.0339 48.9471C32.5348 48.9471 23.2129 58.269 23.2129 69.7681C23.2129 81.2673 32.5348 90.5891 44.0339 90.5891Z" fill="#4EAF0E"/>
<path d="M105.966 90.5891C117.465 90.5891 126.787 81.2673 126.787 69.7681C126.787 58.269 117.465 48.9471 105.966 48.9471C94.4669 48.9471 85.145 58.269 85.145 69.7681C85.145 81.2673 94.4669 90.5891 105.966 90.5891Z" fill="#4EAF0E"/>
<path d="M119.47 53.8499C119.47 51.8289 119.028 49.8217 118.105 48.0241C110.202 32.6408 94.1814 22.114 75.697 22.114C57.2126 22.114 41.1917 32.6408 33.2892 48.0241C32.3658 49.8217 31.9238 51.8288 31.9238 53.8498V85.6861C31.9238 87.707 32.3657 89.7141 33.2892 91.5117C41.1917 106.895 57.2127 117.422 75.697 117.422C94.1813 117.422 110.202 106.895 118.105 91.5118C119.028 89.7142 119.47 87.707 119.47 85.6861V53.8499Z" fill="#63C928"/>
<path d="M30.2577 37.0563C32.439 37.0563 34.2073 35.288 34.2073 33.1067C34.2073 30.9254 32.439 29.1571 30.2577 29.1571C28.0764 29.1571 26.3081 30.9254 26.3081 33.1067C26.3081 35.288 28.0764 37.0563 30.2577 37.0563Z" fill="#4EAF0E"/>
<path d="M92.9509 25.3423C87.6003 23.2617 81.7839 22.114 75.697 22.114C69.6101 22.114 63.7937 23.2617 58.4431 25.3423V56.7615H92.9509V25.3423Z" fill="#4EAF0E"/>
<path d="M107.782 69.7681C107.782 87.4882 93.4168 101.853 75.6968 101.853C57.9768 101.853 43.6118 87.4881 43.6118 69.7681C43.6118 52.0481 57.9768 46.7471 75.6968 46.7471C93.4168 46.7471 107.782 52.048 107.782 69.7681Z" fill="#D8F4C6"/>
<path d="M75.6968 104.114C56.7583 104.114 41.3511 88.7067 41.3511 69.7682C41.3511 58.235 47.3096 44.486 75.6968 44.486C104.084 44.486 110.042 58.235 110.042 69.7682C110.042 88.7067 94.6353 104.114 75.6968 104.114ZM75.6968 49.0075C55.628 49.0075 45.8726 55.7985 45.8726 69.7682C45.8726 86.2135 59.2515 99.5924 75.6968 99.5924C92.1421 99.5924 105.521 86.2135 105.521 69.7682C105.521 55.7985 95.7656 49.0075 75.6968 49.0075Z" fill="white"/>
<path d="M60.3189 81.2047C65.8633 81.2047 70.358 76.71 70.358 71.1656C70.358 65.6211 65.8633 61.1265 60.3189 61.1265C54.7744 61.1265 50.2798 65.6211 50.2798 71.1656C50.2798 76.71 54.7744 81.2047 60.3189 81.2047Z" fill="white"/>
<path d="M60.319 77.7081C63.9323 77.7081 66.8616 74.7789 66.8616 71.1655C66.8616 67.5521 63.9323 64.6229 60.319 64.6229C56.7056 64.6229 53.7764 67.5521 53.7764 71.1655C53.7764 74.7789 56.7056 77.7081 60.319 77.7081Z" fill="#133000"/>
<path opacity="0.13" d="M60.3191 70.9795C61.8022 70.9795 63.0045 70.0379 63.0045 68.8764C63.0045 67.7149 61.8022 66.7733 60.3191 66.7733C58.8359 66.7733 57.6335 67.7149 57.6335 68.8764C57.6335 70.0379 58.8359 70.9795 60.3191 70.9795Z" fill="white"/>
<path d="M91.075 81.2047C96.6194 81.2047 101.114 76.71 101.114 71.1656C101.114 65.6211 96.6194 61.1265 91.075 61.1265C85.5305 61.1265 81.0359 65.6211 81.0359 71.1656C81.0359 76.71 85.5305 81.2047 91.075 81.2047Z" fill="white"/>
<path d="M91.0751 77.7081C94.6885 77.7081 97.6177 74.7789 97.6177 71.1655C97.6177 67.5521 94.6885 64.6229 91.0751 64.6229C87.4617 64.6229 84.5325 67.5521 84.5325 71.1655C84.5325 74.7789 87.4617 77.7081 91.0751 77.7081Z" fill="#133000"/>
<path opacity="0.13" d="M91.0752 70.9795C92.5583 70.9795 93.7607 70.0379 93.7607 68.8764C93.7607 67.7149 92.5583 66.7733 91.0752 66.7733C89.592 66.7733 88.3896 67.7149 88.3896 68.8764C88.3896 70.0379 89.592 70.9795 91.0752 70.9795Z" fill="white"/>
<path d="M75.6882 84.0445H75.6838C73.5051 84.0425 71.4796 83.0621 70.1275 81.3541C69.4952 80.5553 69.6304 79.3961 70.4288 78.7633C71.2271 78.1324 72.3869 78.2662 73.0192 79.0651C73.6681 79.8854 74.6403 80.3551 75.6857 80.3561H75.6881C76.733 80.3561 77.7046 79.8864 78.3545 79.068C78.7041 78.6276 79.2384 78.3678 79.8009 78.3678H79.8071C80.372 78.3698 80.9068 78.6285 81.255 79.0729C81.8463 79.8288 81.7628 80.9118 81.0802 81.5592C79.7306 83.1412 77.7795 84.0445 75.6882 84.0445Z" fill="#232323"/>
<path d="M72.4693 92.8875H78.9245C80.3832 92.8875 81.6385 93.9186 81.9218 95.3495L82.7118 99.3392C83.0859 101.228 81.6403 102.988 79.7145 102.988H71.6793C69.7535 102.988 68.3079 101.228 68.682 99.3392L69.472 95.3495C69.7553 93.9186 71.0106 92.8875 72.4693 92.8875Z" fill="white"/>
</svg>
