<svg width="150" height="200" viewBox="0 0 150 200" fill="none" xmlns="http://www.w3.org/2000/svg">
<path d="M130.877 78.0509C131.504 76.589 131.836 75.003 131.836 73.3937C131.836 72.0695 131.608 70.7619 131.178 69.5255C140.156 61.0567 145.226 49.3927 145.226 36.8976C145.226 34.1359 142.987 31.8976 140.226 31.8976H109.727C102.816 24.4513 93.1885 20.2257 82.9532 20.2257H67.0479C56.8116 20.2257 47.1846 24.4513 40.2735 31.8976H9.77441C7.01271 31.8976 4.77441 34.1359 4.77441 36.8976C4.77441 48.8908 9.49021 60.1984 17.8584 68.588C17.1875 70.0851 16.8262 71.7228 16.8262 73.3937C16.8262 75.5373 17.3936 77.5763 18.4229 79.3419C13.8731 82.7511 11.0625 88.1534 11.0625 94.0694C11.0625 102.216 16.4375 109.345 24.0869 111.685C25.9092 115.454 28.2471 118.919 31.0752 122.042C26.5225 127.575 21.7422 135.756 19.7119 147.04C19.0185 150.892 18.6767 154.932 18.6963 159.048C18.7324 166.785 25.0567 173.079 32.8594 173.079C33.1123 173.078 33.3662 173.069 33.6182 173.055C34.2832 178.398 35.3116 183.49 36.6895 188.25C38.6944 195.168 45.1211 200 52.3184 200C53.8496 200 55.375 199.782 56.8506 199.354C61.0274 198.145 64.4824 195.382 66.5801 191.573C67.7989 189.359 68.4746 186.946 68.5899 184.494C69.8565 184.622 71.1309 184.686 72.4092 184.686H78.8662C80.1445 184.686 81.418 184.622 82.6846 184.494C82.7998 186.947 83.4756 189.359 84.6944 191.573C86.7921 195.382 90.2471 198.146 94.421 199.354C95.8995 199.782 97.4249 200 98.9562 200C106.154 200 112.581 195.168 114.585 188.249C114.959 186.957 115.308 185.64 115.63 184.3C117.141 186.769 120.124 188.161 123.214 187.442C129.437 185.965 133.299 179.699 131.823 173.478C131.215 170.91 129.795 168.713 127.862 167.141C129.51 164.823 130.443 162.018 130.456 159.049C130.477 154.934 130.135 150.894 129.442 147.04C127.843 138.152 124.281 130.026 119.055 123.263C122.403 119.831 125.125 115.957 127.19 111.685C134.838 109.345 140.213 102.216 140.213 94.0695C140.213 87.3381 136.576 81.2716 130.877 78.0509Z" fill="white"/>
<path d="M107.261 158.939C107.238 163.963 111.292 168.055 116.316 168.079H116.36C121.364 168.078 125.432 164.035 125.457 159.025C125.476 155.037 125.136 151.344 124.521 147.926H105.887C106.75 151.066 107.282 154.709 107.261 158.939Z" fill="#9C9C9C"/>
<path d="M32.7933 168.08H32.8372C37.8616 168.055 41.9153 163.963 41.8919 158.939C41.8719 154.709 42.4036 151.066 43.2671 147.926H24.6328C24.0178 151.344 23.6777 155.038 23.6965 159.025C23.7199 164.035 27.7884 168.08 32.7933 168.08Z" fill="#FED8C3"/>
<path d="M92.7808 130.619C94.1726 131.289 102.549 135.789 105.886 147.926H124.52C120.115 123.435 101.387 113.226 96.1069 112.846C91.1069 112.487 86.7397 116.256 86.3794 121.267C86.0689 125.578 88.8169 129.404 92.7808 130.619Z" fill="#D1131D"/>
<path d="M43.2675 147.926C46.6056 135.789 54.9819 131.289 56.3737 130.619C60.3376 129.404 63.0846 125.579 62.7741 121.267C62.4137 116.255 58.0407 112.484 53.0466 112.846C47.7671 113.226 29.0393 123.435 24.6333 147.926H43.2675Z" fill="#D1131D"/>
<path d="M37.7285 160.28C37.8833 168.725 38.8974 177.899 41.4927 186.859C42.9224 191.793 47.4273 195.001 52.3189 195.001C53.357 195.001 54.4136 194.856 55.4605 194.552C61.4429 192.82 64.8873 186.566 63.1548 180.584C62.9236 179.785 62.7124 178.982 62.513 178.176C65.6336 179.151 68.9539 179.686 72.4095 179.686H78.8663C82.3224 179.686 85.6427 179.15 88.7638 178.176C88.5638 178.981 88.3522 179.785 88.1207 180.583C86.3883 186.566 89.8326 192.82 95.815 194.552C96.8619 194.856 97.9185 195 98.9566 195C103.848 195 108.354 191.792 109.783 186.859C112.378 177.898 113.392 168.725 113.547 160.28L37.7285 160.28Z" fill="#1A78BE"/>
<path d="M77.8567 101.217H73.4197C57.0764 101.217 43.3291 113.096 40.7244 128.967C39.4937 134.79 37.4646 146.633 37.7303 160.402H113.546C113.811 146.64 111.784 134.801 110.553 128.976C107.952 113.101 94.2026 101.217 77.8567 101.217Z" fill="#EC2021"/>
<path d="M62.0244 129.119L70.9277 156.791L80.9769 157.119L88.3305 126.797L62.0244 129.119Z" fill="#670210"/>
<path d="M66.2811 124.111L73.0893 156.791L58.7502 145.768C57.8103 145.045 58.1626 143.551 59.3264 143.325L62.8939 142.631C63.314 142.55 63.4753 142.034 63.1766 141.727L53.3373 131.629C52.6612 130.935 52.8944 129.779 53.7866 129.401L66.2811 124.111Z" fill="#D1131D"/>
<path d="M84.9942 124.111L78.186 156.791L92.5251 145.768C93.465 145.045 93.1127 143.551 91.9489 143.325L88.3814 142.631C87.9613 142.55 87.8 142.034 88.0987 141.727L97.938 131.629C98.6141 130.935 98.3809 129.779 97.4887 129.401L84.9942 124.111Z" fill="#D1131D"/>
<path d="M112.916 153.508H38.3592C36.4776 153.508 34.9521 155.033 34.9521 156.915V163.89C34.9521 165.771 36.4776 167.297 38.3592 167.297H112.916C114.798 167.297 116.324 165.771 116.324 163.89V156.915C116.324 155.033 114.798 153.508 112.916 153.508Z" fill="#511E04"/>
<path d="M82.3113 152.135H68.965C65.7569 152.135 63.1562 154.736 63.1562 157.944V162.86C63.1562 166.068 65.7569 168.669 68.965 168.669H82.3113C85.5194 168.669 88.12 166.068 88.12 162.86V157.944C88.12 154.736 85.5194 152.135 82.3113 152.135Z" fill="#F0E58C"/>
<path d="M82.3113 152.135H68.965C65.7569 152.135 63.1562 154.736 63.1562 157.944V162.86C63.1562 166.068 65.7569 168.669 68.965 168.669H82.3113C85.5194 168.669 88.12 166.068 88.12 162.86V157.944C88.12 154.736 85.5194 152.135 82.3113 152.135Z" stroke="#D3C04F" stroke-width="3.2467" stroke-miterlimit="10"/>
<path d="M121.793 83.0962C121.793 81.7193 123.039 80.636 124.391 80.901C130.559 82.1106 135.213 87.5464 135.213 94.0692C135.213 100.592 130.559 106.028 124.391 107.237C123.039 107.502 121.793 106.419 121.793 105.042V83.0962Z" fill="#FED8C3"/>
<path d="M29.4823 83.0962C29.4823 81.7193 28.2363 80.636 26.8852 80.901C20.7168 82.1106 16.063 87.5464 16.063 94.0692C16.063 100.592 20.7168 106.028 26.8852 107.237C28.2363 107.502 29.4823 106.419 29.4823 105.042V83.0962Z" fill="#FED8C3"/>
<path d="M126.836 90.4312C126.836 118.707 103.914 134.542 75.6377 134.542C47.3619 134.542 24.4399 118.707 24.4399 90.4312C24.4399 62.1554 47.3619 39.2334 75.6377 39.2334C103.914 39.2334 126.836 62.1554 126.836 90.4312Z" fill="#5E2C11"/>
<path d="M39.5809 76.8293H109.08C111.195 76.8293 112.911 78.5458 112.911 80.6601V86.9339C112.911 106.638 96.9139 122.636 77.2095 122.636H71.4518C51.7474 122.636 35.75 106.638 35.75 86.9339V80.6601C35.75 78.5458 37.4666 76.8293 39.5809 76.8293Z" fill="#FED8C3"/>
<path d="M91.0162 104.107C96.5606 104.107 101.055 99.6127 101.055 94.0683C101.055 88.5238 96.5606 84.0292 91.0162 84.0292C85.4717 84.0292 80.9771 88.5238 80.9771 94.0683C80.9771 99.6127 85.4717 104.107 91.0162 104.107Z" fill="white"/>
<path d="M91.0162 100.611C94.6296 100.611 97.5588 97.6816 97.5588 94.0682C97.5588 90.4549 94.6296 87.5256 91.0162 87.5256C87.4029 87.5256 84.4736 90.4549 84.4736 94.0682C84.4736 97.6816 87.4029 100.611 91.0162 100.611Z" fill="black"/>
<path opacity="0.13" d="M91.0161 93.8822C92.4992 93.8822 93.7016 92.9406 93.7016 91.7791C93.7016 90.6176 92.4992 89.676 91.0161 89.676C89.5329 89.676 88.3306 90.6176 88.3306 91.7791C88.3306 92.9406 89.5329 93.8822 91.0161 93.8822Z" fill="white"/>
<path d="M54.3922 84.6335H63.4955C66.7073 84.6335 69.3148 87.2411 69.3148 90.4528V93.7556C69.3148 99.1353 64.9471 103.503 59.5674 103.503H58.3202C52.9405 103.503 48.5728 99.1353 48.5728 93.7556V90.4528C48.5728 87.241 51.1805 84.6335 54.3922 84.6335Z" fill="black"/>
<path d="M38.4448 107.942L99.5892 68.2" stroke="black" stroke-width="4" stroke-miterlimit="10" stroke-linecap="round"/>
<path d="M74.9214 100.611C74.907 100.611 74.8936 100.615 74.8794 100.615C74.8648 100.615 74.8516 100.611 74.8369 100.611C66.5976 100.692 59.9839 107.438 60.0652 115.677C60.0772 116.869 61.0525 117.825 62.2442 117.813C67.6243 117.76 72.2969 114.856 74.8795 110.56C77.4618 114.856 82.1344 117.76 87.5145 117.813C88.7062 117.825 89.6815 116.869 89.6935 115.677C89.7746 107.438 83.1609 100.692 74.9214 100.611Z" fill="#7C3D21"/>
<path d="M118.205 166.332L119.162 170.367C119.32 171.033 119.897 171.544 120.582 171.55C122.648 171.57 124.514 172.99 125.013 175.091C125.599 177.564 124.07 180.044 121.597 180.631" stroke="#9C9C9C" stroke-width="4" stroke-miterlimit="10" stroke-linecap="round"/>
<path d="M81.5889 160.49H90.2488" stroke="#D3C04F" stroke-width="4" stroke-linecap="round" stroke-linejoin="round"/>
<path d="M53.2186 162.974C54.5013 162.974 55.5412 161.934 55.5412 160.652C55.5412 159.369 54.5013 158.329 53.2186 158.329C51.9359 158.329 50.896 159.369 50.896 160.652C50.896 161.934 51.9359 162.974 53.2186 162.974Z" fill="#421400"/>
<path d="M41.8636 162.974C43.1463 162.974 44.1862 161.934 44.1862 160.652C44.1862 159.369 43.1463 158.329 41.8636 158.329C40.5809 158.329 39.541 159.369 39.541 160.652C39.541 161.934 40.5809 162.974 41.8636 162.974Z" fill="#421400"/>
<path d="M109.412 162.974C110.695 162.974 111.735 161.934 111.735 160.652C111.735 159.369 110.695 158.329 109.412 158.329C108.129 158.329 107.089 159.369 107.089 160.652C107.089 161.934 108.129 162.974 109.412 162.974Z" fill="#421400"/>
<path d="M98.057 162.974C99.3397 162.974 100.38 161.934 100.38 160.652C100.38 159.369 99.3397 158.329 98.057 158.329C96.7742 158.329 95.7344 159.369 95.7344 160.652C95.7344 161.934 96.7742 162.974 98.057 162.974Z" fill="#421400"/>
<path d="M67.0477 25.2257H82.953C100.369 25.2257 114.508 39.365 114.508 56.7808H35.4927C35.4927 39.3651 49.6319 25.2257 67.0477 25.2257Z" fill="black"/>
<path d="M9.77441 36.8978H140.226C140.226 58.9367 122.333 76.8295 100.294 76.8295H49.7061C27.6672 76.8295 9.77441 58.9366 9.77441 36.8978Z" fill="black"/>
<path d="M120.025 66.5826H28.6372C24.8756 66.5826 21.8262 69.632 21.8262 73.3936C21.8262 77.1553 24.8756 80.2046 28.6372 80.2046H120.025C123.786 80.2046 126.836 77.1553 126.836 73.3936C126.836 69.632 123.786 66.5826 120.025 66.5826Z" fill="#EF1E23"/>
<path d="M87.6775 45.7822C87.6775 38.7805 82.0017 33.1047 75 33.1047C67.9983 33.1047 62.3228 38.7805 62.3228 45.7822C62.3228 50.3498 64.7464 54.341 68.3697 56.5725V57.0969C68.3697 58.977 69.8939 60.5014 71.7742 60.5014C73.1714 60.5014 74.3692 59.6581 74.8938 58.4543C74.9297 58.4545 74.9641 58.4597 75 58.4597C75.0359 58.4597 75.0706 58.4546 75.1062 58.4543C75.6311 59.6582 76.8289 60.5014 78.2258 60.5014C80.1062 60.5014 81.6306 58.977 81.6306 57.0969V56.5725C85.2539 54.3411 87.6775 50.3498 87.6775 45.7822Z" fill="white"/>
<path d="M73.0217 46.3088C73.0217 48.2895 71.416 49.8951 69.4354 49.8951C67.4548 49.8951 65.8491 48.2894 65.8491 46.3088C65.8491 44.3282 67.4548 43.4435 69.4354 43.4435C71.416 43.4435 73.0217 44.3281 73.0217 46.3088Z" fill="black"/>
<path d="M80.5643 43.4435C78.5836 43.4435 76.978 44.3281 76.978 46.3088C76.978 48.2895 78.5837 49.8951 80.5643 49.8951C82.5449 49.8951 84.1506 48.2894 84.1506 46.3088C84.1506 44.3282 82.5449 43.4435 80.5643 43.4435Z" fill="black"/>
<path d="M74.9997 50.4028C73.6413 50.4028 72.54 51.504 72.54 52.8625C72.54 54.221 73.6412 52.1941 74.9997 52.1941C76.3582 52.1941 77.4594 54.2209 77.4594 52.8625C77.4594 51.5041 76.3582 50.4028 74.9997 50.4028Z" fill="black"/>
</svg>
