<svg width="150" height="200" viewBox="0 0 150 200" fill="none" xmlns="http://www.w3.org/2000/svg">
<path d="M122.617 122.321V113.591C122.964 112.959 123.293 112.323 123.603 111.685C131.257 109.349 136.636 102.217 136.636 94.068C136.636 89.8795 135.226 85.9059 132.716 82.7116L133.171 82.2614C134.423 81.0231 135.227 79.3766 135.435 77.6276L138.06 55.5163C138.474 52.0358 136.586 48.7751 133.361 47.402C130.142 46.0299 126.483 46.9274 124.263 49.6344C123.569 50.4782 122.852 51.3522 122.13 52.2311C120.715 51.025 118.967 50.1881 117.022 49.86L110.828 48.8112C106.911 42.2438 99.9649 36.9137 91.1524 33.7067V32.7272C91.1524 30.0143 89.7959 27.5084 87.5253 26.0251L83.0693 23.111C83.0195 22.7946 82.9492 22.4772 82.8574 22.1549C82.8213 21.9987 82.7772 21.8434 82.7255 21.691C82.5976 21.3111 82.4385 20.9371 82.2539 20.5777C82.2373 20.5465 82.2207 20.5142 82.2041 20.483C81.6836 19.5103 80.9844 18.6705 80.123 17.985C80.0459 17.9215 79.958 17.8522 79.875 17.7907C79.6797 17.6462 79.4746 17.5143 79.1777 17.3376C78.9804 17.2233 78.7802 17.114 78.539 16.9997C78.3486 16.9108 78.1552 16.8288 78.0234 16.78C77.7295 16.6657 77.4267 16.572 77.1308 16.4968C76.9628 16.4509 76.7938 16.4109 76.6131 16.3767C76.1072 16.2829 75.6278 16.2371 75.1484 16.2371H68.9726C68.4941 16.2371 68.0145 16.283 67.4998 16.3787C67.324 16.4119 67.1503 16.4529 67.0058 16.493C66.7021 16.5701 66.4023 16.6629 66.1406 16.7635C65.9453 16.8377 65.75 16.9207 65.5898 16.9969C65.3525 17.1073 65.1258 17.2303 64.8709 17.3817C64.6688 17.5008 64.4695 17.6268 64.3377 17.7235C64.2059 17.8163 64.08 17.9149 63.9569 18.0194C63.1122 18.6981 62.4257 19.5292 61.9149 20.4891C61.8983 20.5194 61.8837 20.5487 61.868 20.578C61.6815 20.9413 61.5213 21.3192 61.3934 21.701C61.3485 21.8338 61.3104 21.9705 61.2772 22.1092C61.1786 22.4471 61.1043 22.7801 61.0526 23.1112L56.5955 26.0253C54.325 27.5097 52.9696 30.0155 52.9696 32.7274V33.7069C44.1571 36.9139 37.2098 42.244 33.2938 48.8114L27.1004 49.8602C25.1551 50.1883 23.4069 51.0252 21.9909 52.2323C21.2692 51.3524 20.5525 50.4784 19.8601 49.6346C17.6374 46.9266 13.9802 46.0291 10.7605 47.4022C7.53585 48.7752 5.64811 52.036 6.06221 55.5155L8.68623 77.62C8.89133 79.372 9.69606 81.0194 10.9519 82.2616L11.406 82.7118C8.89526 85.9061 7.48604 89.8798 7.48604 94.0682C7.48604 99.7381 10.0877 104.985 14.3806 108.428L11.1579 116.53C10.4177 118.391 10.86 120.516 12.2829 121.928L15.3228 124.943V128.812C15.3228 130.062 15.7086 131.224 16.3717 132.184V145.845C15.5192 150.088 15.0973 154.527 15.1197 159.048C15.1295 161.022 15.5592 162.975 16.3717 164.773V193.658C16.3717 196.925 19.0299 199.583 22.2965 199.583H25.2525C28.5191 199.583 31.1773 196.925 31.1773 193.658V181.114L31.4097 181.357C31.9019 183.729 32.4733 186.041 33.1129 188.25C35.1178 195.168 41.5445 200 48.7418 200C50.273 200 51.7984 199.782 53.274 199.355C58.7818 197.76 62.9428 193.352 64.4262 188.025L69.3159 191.235C70.9819 192.329 73.1382 192.33 74.8042 191.235L79.6938 188.025C81.1772 193.353 85.3383 197.76 90.8442 199.354C92.3227 199.782 93.848 200 95.3793 200C101.257 200 106.507 196.908 109.379 192.021C128.635 191.027 143.995 175.05 143.995 155.552C143.995 141.131 135.541 128.199 122.617 122.321Z" fill="white"/>
<path d="M78.1576 24.2461C78.1576 22.5844 76.8105 21.2373 75.1488 21.2373H68.9727C67.311 21.2373 65.9639 22.5844 65.9639 24.2461C65.9639 25.2617 65.4515 26.2087 64.6014 26.7645L59.332 30.2094C58.4819 30.7651 57.9697 31.7122 57.9697 32.7278V57.2287H86.1517V32.7278C86.1517 31.7122 85.6394 30.7652 84.7893 30.2094L79.5199 26.7645C78.6698 26.2088 78.1576 25.2617 78.1576 24.2461Z" fill="#C90D16"/>
<path d="M77.9882 23.2909C77.5872 22.1004 76.4745 21.2373 75.1488 21.2373H68.9727C67.647 21.2373 66.5342 22.1005 66.1333 23.291V43.5826C66.1333 45.0175 67.2965 46.1806 68.7313 46.1806H75.39C76.8249 46.1806 77.988 45.0174 77.988 43.5826L77.9882 23.2909Z" fill="#F11C1E"/>
<path d="M117.241 65.9956C118.999 63.9194 124.002 57.8347 128.127 52.8057C129.911 50.6313 133.426 52.1331 133.095 54.9258L130.47 77.0376C130.395 77.6702 130.107 78.2586 129.654 78.7066L120.593 87.669C118.774 89.4686 115.692 88.1026 115.803 85.546L116.579 67.6887C116.607 67.0642 116.837 66.4726 117.241 65.9956Z" fill="#6B8187"/>
<path d="M26.8809 65.9956C25.1224 63.9194 20.1192 57.8347 15.9942 52.8057C14.2107 50.6313 10.6953 52.1331 11.0268 54.9258L13.6518 77.0376C13.7269 77.6702 14.0144 78.2586 14.4673 78.7066L23.5281 87.669C25.3474 89.4686 28.4297 88.1026 28.3186 85.546L27.5423 67.6887C27.5151 67.0642 27.2849 66.4726 26.8809 65.9956Z" fill="#6B8187"/>
<path d="M67.1699 97.1602H26.5042V153.289H67.1699V97.1602Z" fill="#FDC703"/>
<path d="M117.617 97.1602H76.9517V153.289H117.617V97.1602Z" fill="#FDC703"/>
<path d="M112.783 168.079H112.739C107.715 168.054 103.661 163.963 103.684 158.938C103.782 138.362 90.9578 131.464 89.2049 130.619C85.243 129.406 82.4959 125.585 82.8026 121.275C83.159 116.263 87.5164 112.495 92.5222 112.846C98.5398 113.274 122.033 126.453 121.88 159.024C121.856 164.034 117.787 168.079 112.783 168.079ZM91.2185 130.994C91.2234 130.995 91.2273 130.995 91.2312 130.995C91.2273 130.995 91.2224 130.995 91.2185 130.994Z" fill="#FFE6C5"/>
<path d="M29.2166 168.079C24.2127 168.079 20.1443 164.034 20.1199 159.024C19.9646 126.451 43.4597 113.273 49.4783 112.846C54.492 112.497 58.8416 116.263 59.1971 121.276C59.5037 125.586 56.7568 129.407 52.7939 130.619C51.041 131.465 38.2167 138.361 38.3153 158.938C38.3387 163.963 34.2851 168.054 29.2607 168.079H29.2166ZM50.781 130.994C50.7761 130.995 50.7711 130.995 50.7672 130.995C50.7721 130.995 50.7761 130.995 50.781 130.994Z" fill="#FFE6C5"/>
<path d="M48.742 195C43.8504 195 39.3455 191.792 37.9158 186.858C29.5008 157.805 37.6813 126.477 38.0339 125.158C39.6403 119.142 45.8201 115.561 51.8377 117.172C57.8494 118.778 61.4236 124.949 59.827 130.96C59.7176 131.38 52.9608 157.738 59.578 180.583C61.3104 186.565 57.8661 192.819 51.8837 194.551C50.8368 194.855 49.7801 195 48.742 195Z" fill="#FFE6C5"/>
<path d="M95.3795 195C94.3414 195 93.2848 194.855 92.2379 194.551C86.2555 192.819 82.8112 186.565 84.5437 180.583C91.1804 157.669 84.363 131.222 84.2937 130.958C82.7097 124.943 86.2927 118.771 92.3054 117.177C98.3191 115.58 104.484 119.149 106.087 125.158C106.44 126.477 114.621 157.805 106.206 186.858C104.777 191.792 100.271 195 95.3795 195Z" fill="#FFE6C5"/>
<path d="M75.2894 179.685H68.8325C49.4473 179.685 34.1998 163.121 35.8016 143.802L36.8115 131.622C38.2363 114.437 52.5991 101.216 69.8424 101.216H74.2794C91.5227 101.216 105.886 114.437 107.31 131.622L108.32 143.802C109.922 163.121 94.6746 179.685 75.2894 179.685Z" fill="#E1ECF2"/>
<path d="M75.289 181.185H68.8328C59.1746 181.185 49.8847 177.11 43.3436 170.005C36.8025 162.899 33.5086 153.303 34.3065 143.678L35.3162 131.498C36.7937 113.676 51.9599 99.7164 69.8427 99.7164H74.2791C92.1619 99.7164 107.328 113.676 108.806 131.498L109.815 143.678C110.613 153.303 107.319 162.899 100.778 170.005C94.2373 177.11 84.9472 181.185 75.289 181.185ZM69.8427 102.716C53.5087 102.716 39.6562 115.467 38.3066 131.746L37.2967 143.926C36.5672 152.717 39.576 161.482 45.5506 167.972C51.5252 174.463 60.0115 178.185 68.8328 178.185H75.289C84.1103 178.185 92.5965 174.463 98.5711 167.972C104.546 161.482 107.555 152.717 106.825 143.926L105.815 131.746C104.466 115.467 90.6131 102.716 74.2791 102.716H69.8427Z" fill="#BCD5DD"/>
<path d="M123.259 90.4307C123.259 118.706 100.337 134.541 72.0608 134.541C43.785 134.541 20.863 118.707 20.863 90.4307C20.863 62.1549 43.785 39.2329 72.0608 39.2329C100.337 39.2329 123.259 62.1549 123.259 90.4307Z" fill="#AFC1C9"/>
<path d="M109.254 99.66C109.254 120.201 92.6021 125.669 72.0608 125.669C51.5195 125.669 34.8674 120.201 34.8674 99.66C34.8674 79.1186 51.5195 62.4666 72.0608 62.4666C92.6021 62.4666 109.254 79.1187 109.254 99.66Z" fill="#FFE6C5"/>
<path d="M56.6826 104.107C62.2271 104.107 66.7218 99.6124 66.7218 94.0679C66.7218 88.5235 62.2271 84.0288 56.6826 84.0288C51.1382 84.0288 46.6436 88.5235 46.6436 94.0679C46.6436 99.6124 51.1382 104.107 56.6826 104.107Z" fill="white"/>
<path d="M56.6827 100.61C60.2961 100.61 63.2253 97.6812 63.2253 94.0679C63.2253 90.4545 60.2961 87.5253 56.6827 87.5253C53.0694 87.5253 50.1401 90.4545 50.1401 94.0679C50.1401 97.6812 53.0694 100.61 56.6827 100.61Z" fill="#0D3442"/>
<path opacity="0.13" d="M56.6827 93.8817C58.1659 93.8817 59.3683 92.9401 59.3683 91.7786C59.3683 90.6171 58.1659 89.6755 56.6827 89.6755C55.1996 89.6755 53.9973 90.6171 53.9973 91.7786C53.9973 92.9401 55.1996 93.8817 56.6827 93.8817Z" fill="white"/>
<path d="M87.4387 104.107C92.9832 104.107 97.4779 99.6124 97.4779 94.0679C97.4779 88.5235 92.9832 84.0288 87.4387 84.0288C81.8943 84.0288 77.3997 88.5235 77.3997 94.0679C77.3997 99.6124 81.8943 104.107 87.4387 104.107Z" fill="white"/>
<path d="M87.4386 100.61C91.052 100.61 93.9812 97.6812 93.9812 94.0679C93.9812 90.4545 91.052 87.5253 87.4386 87.5253C83.8252 87.5253 80.896 90.4545 80.896 94.0679C80.896 97.6812 83.8252 100.61 87.4386 100.61Z" fill="#0D3442"/>
<path opacity="0.13" d="M87.4386 93.8817C88.9218 93.8817 90.1241 92.9401 90.1241 91.7786C90.1241 90.6171 88.9218 89.6755 87.4386 89.6755C85.9554 89.6755 84.7532 90.6171 84.7532 91.7786C84.7532 92.9401 85.9554 93.8817 87.4386 93.8817Z" fill="white"/>
<path d="M72.0516 106.947H72.0477C69.869 106.945 67.8436 105.964 66.4911 104.256C65.8593 103.458 65.9939 102.298 66.7928 101.666C67.5907 101.036 68.7509 101.169 69.3837 101.967C70.0321 102.788 71.0038 103.257 72.0497 103.258H72.0516C73.0965 103.258 74.0683 102.789 74.7187 101.969C74.7626 101.915 74.8095 101.862 74.8593 101.812C75.2275 101.444 75.7421 101.241 76.2568 101.272C76.7773 101.299 77.2646 101.541 77.5937 101.944C78.2109 102.698 78.1396 103.804 77.4423 104.464C76.0917 106.045 74.1424 106.947 72.0516 106.947Z" fill="#232323"/>
<path d="M109.333 61.1622C109.333 75.3696 92.6457 72.7732 72.061 72.7732C51.4763 72.7732 34.7891 75.3697 34.7891 61.1622C34.7891 46.9547 51.4763 35.4374 72.061 35.4374C92.6457 35.4374 109.333 46.9548 109.333 61.1622Z" fill="#6B8187"/>
<path d="M116.936 78.9618H27.1858C23.8316 78.9618 21.2394 76.0171 21.6647 72.6901L23.3416 59.5716C23.6524 57.1402 25.517 55.1984 27.9338 54.7893L71.132 47.4786C71.7468 47.3746 72.3747 47.3746 72.9895 47.4786L116.188 54.7893C118.604 55.1983 120.469 57.1402 120.78 59.5716L122.457 72.6901C122.882 76.0172 120.29 78.9618 116.936 78.9618Z" fill="#7A9199"/>
<path d="M62.5277 182.066L51.6476 186.08L43.6387 177.693L48.7831 155.475L67.6721 159.849L62.5277 182.066Z" fill="#678991"/>
<path d="M45.7949 176.844L37.0826 180.058L30.6697 173.342L34.7889 155.552L49.9143 159.054L45.7949 176.844Z" fill="#7C9BA5"/>
<path d="M81.5936 182.066L92.4739 186.08L100.483 177.693L95.3384 155.475L76.4492 159.849L81.5936 182.066Z" fill="#678991"/>
<path d="M98.3268 176.844L107.039 180.058L113.452 173.342L109.333 155.552L94.2075 159.054L98.3268 176.844Z" fill="#7C9BA5"/>
<path d="M81.7551 180.691L72.0607 187.056L62.3662 180.691V157.886H81.7551V180.691Z" fill="#7C9BA5"/>
<path d="M109.033 151.383H35.089C34.0104 151.383 33.136 152.258 33.136 153.336V158.078C33.136 159.157 34.0104 160.031 35.089 160.031H109.033C110.111 160.031 110.986 159.157 110.986 158.078V153.336C110.986 152.258 110.111 151.383 109.033 151.383Z" fill="#AAC6D1"/>
<path d="M81.78 123.386H62.3416C61.2797 123.386 60.4189 124.247 60.4189 125.309V134.141C60.4189 135.203 61.2797 136.064 62.3416 136.064H81.78C82.8419 136.064 83.7026 135.203 83.7026 134.141V125.309C83.7026 124.247 82.8419 123.386 81.78 123.386Z" fill="#B87D5F"/>
<path d="M118.216 83.0948C118.216 81.7179 119.462 80.6346 120.813 80.8996C126.982 82.1092 131.636 87.545 131.636 94.0678C131.636 100.591 126.982 106.026 120.813 107.236C119.462 107.501 118.216 106.418 118.216 105.041V83.0948Z" fill="#9AACB2"/>
<path d="M25.9052 83.0948C25.9052 81.7179 24.6592 80.6346 23.3081 80.8996C17.1397 82.1092 12.4858 87.545 12.4858 94.0678C12.4858 100.591 17.1397 106.026 23.3081 107.236C24.6592 107.501 25.9052 106.418 25.9052 105.041V83.0948Z" fill="#9AACB2"/>
<path d="M95.2383 58.4457H48.8834C47.1197 58.4457 45.6899 59.8755 45.6899 61.6392C45.6899 63.4029 47.1197 64.8327 48.8834 64.8327H68.5884V78.9617H75.5333V64.8327H95.2383C97.002 64.8327 98.4318 63.4029 98.4318 61.6392C98.4318 59.8755 97.002 58.4457 95.2383 58.4457Z" fill="#6B8187"/>
<path d="M107.479 187.069C124.885 187.069 138.995 172.958 138.995 155.552C138.995 138.145 124.885 124.035 107.479 124.035C90.0722 124.035 75.9617 138.145 75.9617 155.552C75.9617 172.958 90.0722 187.069 107.479 187.069Z" fill="#F9B32A"/>
<path d="M107.479 179.017C120.438 179.017 130.943 168.511 130.943 155.552C130.943 142.592 120.438 132.087 107.479 132.087C94.5192 132.087 84.0137 142.592 84.0137 155.552C84.0137 168.511 94.5192 179.017 107.479 179.017Z" fill="#E59A17"/>
<path d="M108.156 178.999V132.104C107.93 132.097 107.706 132.087 107.479 132.087C107.252 132.087 107.027 132.097 106.801 132.104V178.999C107.027 179.006 107.252 179.016 107.479 179.016C107.706 179.016 107.93 179.006 108.156 178.999Z" fill="#F9B32A"/>
<path d="M92.4868 173.601C92.9243 173.965 93.3781 174.309 93.8417 174.641V136.462C93.3781 136.794 92.9243 137.138 92.4868 137.502V173.601Z" fill="#F9B32A"/>
<path d="M122.47 137.502C122.033 137.138 121.579 136.794 121.115 136.462V174.641C121.579 174.309 122.033 173.965 122.47 173.601V137.502Z" fill="#F9B32A"/>
<path d="M21.3721 121.189H26.1783V193.658C26.1783 194.168 25.7638 194.583 25.2532 194.583H22.2971C21.7865 194.583 21.3721 194.168 21.3721 193.658V121.189Z" fill="#7C3200"/>
<path d="M31.7457 118.378L23.7751 98.3361L15.8044 118.378L23.7751 126.285L31.7457 118.378Z" fill="#BBF1FF"/>
<path d="M23.7751 98.3361V115.344L31.7457 118.378L23.7751 98.3361Z" fill="#DEF9FF"/>
<path d="M15.8044 118.378L23.7751 115.344L31.7457 118.378L23.7751 126.285L15.8044 118.378Z" fill="#94EBFF"/>
<path d="M26.252 123.386H21.2983C20.76 123.386 20.3235 123.823 20.3235 124.361V128.813C20.3235 129.351 20.76 129.787 21.2983 129.787H26.252C26.7903 129.787 27.2267 129.351 27.2267 128.813V124.361C27.2267 123.823 26.7903 123.386 26.252 123.386Z" fill="#6B6B6B"/>
</svg>
