<svg width="150" height="200" viewBox="0 0 150 200" fill="none" xmlns="http://www.w3.org/2000/svg">
<path d="M138.621 87.9795C138.523 87.4863 138.396 87.0049 138.245 86.5518L123.948 43.4317C122.328 38.5421 118.197 34.8087 113.165 33.6895L108.037 32.5499C88.1485 19.2306 61.8497 19.2325 41.963 32.5499L36.8331 33.6895C31.8038 34.8086 27.6729 38.5411 26.0509 43.4307L11.7609 86.5342C11.6056 86.9971 11.4806 87.4697 11.3791 87.9795C10.4865 92.1768 11.6682 96.5361 14.5461 99.6533C15.4875 100.672 16.4055 101.73 17.2785 102.802C17.3166 102.852 17.3548 102.901 17.3938 102.95C18.7854 104.667 19.9845 106.339 20.9533 107.913L21.0676 108.101C21.1877 108.298 21.301 108.489 21.4094 108.674C20.4485 109.508 19.6643 110.559 19.1369 111.774C17.7599 114.947 18.3967 118.629 20.7599 121.155L24.0236 124.645C24.0236 124.671 24.0225 124.697 24.0225 124.723C24.0069 126.569 24.3253 128.398 24.9572 130.131C20.3273 138.589 18.008 148.303 18.0588 159.048C18.0949 166.785 24.4192 173.079 32.2219 173.079C32.4758 173.078 32.7287 173.07 32.9807 173.056C33.1194 174.165 33.2707 175.277 33.4465 176.393C33.4504 176.428 33.4553 176.461 33.4602 176.487C33.636 177.613 33.8459 178.801 34.1008 180.11L34.2619 180.903C34.4543 181.851 34.6623 182.799 34.8849 183.746L35.1056 184.677C35.4396 186.037 35.7404 187.173 36.0509 188.247C36.2452 188.919 36.4962 189.599 36.8175 190.322C39.421 196.201 45.255 200 51.6798 200C52.0069 200 52.3341 199.987 52.6739 199.967C53.878 199.892 55.0695 199.686 56.214 199.354C63.0558 197.373 67.6045 191.268 67.9317 184.482C68.1573 184.505 68.3838 184.526 68.6114 184.545L69.0489 184.58C70.0294 184.651 70.92 184.686 71.7716 184.686H78.2286C79.0792 184.686 79.9698 184.651 80.9395 184.58L81.4141 184.543C81.625 184.525 81.8361 184.506 82.047 184.485C82.1603 186.94 82.836 189.357 84.0567 191.573C86.1544 195.382 89.6094 198.146 93.7833 199.354C94.9552 199.693 96.1768 199.901 97.4141 199.971C97.7168 199.987 98.0197 200 98.3204 200C105.522 200 111.949 195.166 113.966 188.188C113.971 188.17 113.977 188.145 113.983 188.119C114.288 187.061 114.59 185.918 114.906 184.627C114.992 184.272 115.075 183.919 115.157 183.565C115.378 182.614 115.585 181.662 115.776 180.715L115.946 179.886C116.173 178.701 116.377 177.516 116.562 176.339L116.689 175.471C116.809 174.65 116.921 173.831 117.022 173.019C124.153 172.36 129.783 166.346 129.819 159.048C129.865 149.244 127.931 140.275 124.063 132.339C125.334 130.023 126.001 127.411 125.977 124.724C125.977 124.698 125.976 124.672 125.976 124.646L129.239 121.156C131.603 118.63 132.239 114.948 130.863 111.774C130.336 110.559 129.552 109.508 128.59 108.674C128.698 108.489 128.811 108.301 128.928 108.106L129.041 107.922C130.014 106.343 131.213 104.67 132.606 102.95C132.646 102.9 132.685 102.85 132.723 102.8C133.586 101.739 134.505 100.681 135.454 99.6521C138.331 96.5359 139.513 92.1758 138.621 87.9795Z" fill="white"/>
<path d="M32.1554 168.079C27.1505 168.079 23.0821 164.034 23.0586 159.024C22.9053 126.453 46.3984 113.274 52.416 112.847C57.4306 112.498 61.7804 116.264 62.1358 121.275C62.4424 125.585 59.6953 129.406 55.7334 130.619C53.9805 131.464 41.1563 138.362 41.2539 158.939C41.2773 163.963 37.2236 168.055 32.1992 168.079H32.1554ZM53.7199 130.994C53.716 130.995 53.7111 130.995 53.7072 130.995C53.7111 130.995 53.715 130.995 53.7199 130.994Z" fill="#FFE4A1"/>
<path d="M37.6952 111.55H27.0979C23.8801 111.55 22.2137 115.39 24.4116 117.741L32.3833 126.264C34.3133 128.328 37.7529 127.535 38.5847 124.835L41.2101 116.311C41.9387 113.946 40.1703 111.55 37.6952 111.55Z" fill="#FDC703"/>
<path d="M112.305 111.55H122.902C126.12 111.55 127.786 115.39 125.588 117.741L117.617 126.264C115.687 128.328 112.247 127.535 111.415 124.835L108.79 116.311C108.061 113.946 109.83 111.55 112.305 111.55Z" fill="#FDC703"/>
<path d="M115.722 168.079H115.678C110.653 168.055 106.6 163.963 106.623 158.939C106.722 138.362 93.8976 131.464 92.1447 130.619C88.1828 129.406 85.4356 125.585 85.7423 121.275C86.0978 116.264 90.4445 112.496 95.4621 112.847C101.48 113.274 124.974 126.453 124.819 159.024C124.794 164.034 120.726 168.078 115.722 168.079ZM94.1583 130.994C94.1632 130.995 94.1671 130.995 94.171 130.995C94.1671 130.995 94.1622 130.995 94.1583 130.994Z" fill="#FFE4A1"/>
<path d="M51.6808 195C46.7892 195 42.2842 191.792 40.8545 186.858C32.4395 157.805 40.6211 126.477 40.9736 125.157C42.58 119.141 48.7529 115.568 54.7783 117.173C60.79 118.779 64.3633 124.949 62.7666 130.962C62.6562 131.384 55.9004 157.74 62.5166 180.583C64.249 186.565 60.8047 192.819 54.8232 194.552C53.7753 194.855 52.7189 195 51.6808 195Z" fill="#FFEBB3"/>
<path d="M98.3186 195C97.2805 195 96.2239 194.855 95.177 194.552C89.1946 192.819 85.7501 186.565 87.4826 180.583C94.1193 157.67 87.3019 131.223 87.2326 130.958C85.6486 124.943 89.2316 118.771 95.2443 117.178C101.257 115.581 107.422 119.149 109.027 125.158C109.379 126.477 117.56 157.806 109.145 186.858C107.716 191.792 103.21 195 98.3186 195Z" fill="#FFEBB3"/>
<path d="M78.2284 179.685H71.7715C52.3863 179.685 37.1388 163.121 38.7406 143.803L39.7505 131.622C41.1753 114.438 55.5382 101.216 72.7815 101.216H77.2184C94.4617 101.216 108.825 114.438 110.249 131.622L111.259 143.803C112.861 163.121 97.6136 179.685 78.2284 179.685Z" fill="#FFEBB3"/>
<path d="M126.198 90.4311C126.198 118.707 103.276 134.541 75.0001 134.541C46.7243 134.541 23.8022 118.707 23.8022 90.4311C23.8022 62.1553 46.7243 39.2333 75.0001 39.2333C103.276 39.2333 126.198 62.1553 126.198 90.4311Z" fill="#FDC703"/>
<path d="M30.7972 45.0042L16.5008 88.1245C15.5632 90.9525 16.1981 94.0715 18.2192 96.2606C22.2402 100.616 28.5347 108.449 28.8334 115.08C29.0112 119.027 29.0454 122.284 29.0231 124.766C28.9906 128.373 30.7923 131.707 33.7984 133.7L39.9964 137.807C41.7046 138.94 43.9858 137.715 43.9858 135.665V37.2225L37.9187 38.5709C34.5784 39.3133 31.874 41.7563 30.7972 45.0042Z" fill="#FFB806"/>
<path d="M119.203 45.0042L133.499 88.1245C134.437 90.9525 133.802 94.0715 131.781 96.2606C127.76 100.616 121.465 108.449 121.167 115.08C120.989 119.027 120.955 122.284 120.977 124.766C121.009 128.373 119.208 131.707 116.202 133.7L110.004 137.807C108.295 138.94 106.014 137.715 106.014 135.665V37.2225L112.081 38.5709C115.421 39.3133 118.126 41.7563 119.203 45.0042Z" fill="#FFB806"/>
<path d="M106.014 74.1101H43.9856V37.2225C62.6323 24.2669 87.3675 24.2669 106.014 37.2225L106.014 74.1101Z" fill="#FDC703"/>
<path d="M58.4309 30.129C55.8352 30.9601 53.2911 31.9886 50.8154 33.2203V73.968H58.4309V30.129Z" fill="#FFB806"/>
<path d="M72.0155 27.7291C69.4576 27.8698 66.9218 28.1806 64.3997 28.6823V73.9679H72.0155V27.7291Z" fill="#FFB806"/>
<path d="M85.5999 28.6823C83.0778 28.1806 80.5423 27.8698 77.9844 27.7291V73.9679H85.5999V28.6823Z" fill="#FFB806"/>
<path d="M91.5686 30.129V73.9679H99.1841V33.2199C96.7088 31.9883 94.1647 30.96 91.5686 30.129Z" fill="#FFB806"/>
<path d="M133.499 88.1245L132.106 83.9231H106.014V91.5389H133.817C133.927 90.4029 133.871 89.245 133.499 88.1245Z" fill="#FFB000"/>
<path d="M106.014 68.0431V75.6589H129.366L126.842 68.0431H106.014Z" fill="#FFB000"/>
<path d="M106.014 99.803V107.419H123.569C125.001 104.694 126.886 102.068 128.721 99.803H106.014Z" fill="#FFB000"/>
<path d="M106.014 123.299H120.984C120.983 121.177 121.022 118.675 121.148 115.683H106.014V123.299Z" fill="#FFB000"/>
<path d="M28.4241 52.1628L25.8989 59.7786H43.986V52.1628H28.4241Z" fill="#FFB000"/>
<path d="M106.014 52.1628V59.7786H124.101L121.576 52.1628H106.014Z" fill="#FFB000"/>
<path d="M23.1589 68.0431L20.6338 75.6589H43.986V68.0431H23.1589Z" fill="#FFB000"/>
<path d="M29.0167 123.299H43.9861V115.683H28.8525C28.9781 118.675 29.0174 121.177 29.0167 123.299Z" fill="#FFB000"/>
<path d="M17.8937 83.9231L16.5007 88.1245C16.1294 89.245 16.0733 90.4029 16.1838 91.5389H43.9859V83.9231H17.8937Z" fill="#FFB000"/>
<path d="M21.2795 99.803C23.1144 102.068 24.9989 104.694 26.4315 107.419H43.9858V99.803H21.2795Z" fill="#FFB000"/>
<path d="M43.766 91.5388C43.766 96.5157 43.6997 100.55 38.7228 100.55C33.7459 100.55 29.7112 96.5157 29.7112 91.5388C29.7112 86.5619 33.7459 82.5273 38.7228 82.5273C43.6997 82.5273 43.766 86.5619 43.766 91.5388Z" fill="#F78C2C"/>
<path d="M106.234 91.5388C106.234 96.5157 106.3 100.55 111.277 100.55C116.254 100.55 120.289 96.5157 120.289 91.5388C120.289 86.5619 116.254 82.5273 111.277 82.5273C106.3 82.5273 106.234 86.5619 106.234 91.5388Z" fill="#F78C2C"/>
<path d="M112.193 94.8864C112.193 115.428 95.5414 120.896 75.0001 120.896C54.4588 120.896 37.8066 115.428 37.8066 94.8864C37.8066 74.345 54.4588 67.2407 75.0001 67.2407C95.5414 67.2407 112.193 74.3451 112.193 94.8864Z" fill="#FFEBB3"/>
<path d="M74.9903 106.947H74.9864C72.8077 106.945 70.7823 105.965 69.4298 104.257C68.798 103.458 68.9327 102.299 69.7316 101.666C70.5295 101.036 71.6895 101.169 72.3223 101.968C72.9707 102.788 73.9425 103.258 74.9884 103.259H74.9904C76.0353 103.259 77.007 102.789 77.6574 101.97C77.7013 101.915 77.7482 101.862 77.798 101.813C78.1662 101.444 78.6779 101.242 79.1955 101.273C79.716 101.299 80.2033 101.541 80.5324 101.944C81.1496 102.698 81.0782 103.805 80.3809 104.464C79.0303 106.045 77.0811 106.947 74.9903 106.947Z" fill="#232323"/>
<path d="M37.0741 157.719C37.0596 166.849 37.9936 176.977 40.855 186.857C42.281 191.791 46.7904 195.001 51.6797 195.001C52.7203 195.001 53.7719 194.852 54.8235 194.549C60.803 192.82 64.2498 186.565 62.5154 180.58C62.2845 179.784 62.1069 178.975 61.908 178.171C65.0206 179.14 68.3261 179.685 71.7715 179.685H78.2284C81.6741 179.685 84.9793 179.14 88.0923 178.171C87.8934 178.975 87.7159 179.783 87.485 180.58C85.7506 186.565 89.1974 192.82 95.1768 194.549C96.2284 194.852 97.2801 195.001 98.3207 195.001C103.21 195.001 107.719 191.791 109.145 186.857C112.104 176.643 113.008 166.158 112.926 156.791L71.2203 164.375L37.0741 157.719Z" fill="white"/>
<path d="M112.886 161.053C112.967 157.763 112.916 154.588 112.773 151.565C112.46 151.631 112.143 151.643 111.838 151.779C88.3881 162.515 61.6236 162.515 38.1626 151.779C37.8577 151.642 37.5411 151.631 37.2276 151.564C37.0844 154.588 37.0339 157.763 37.1147 161.053C49.2347 166.18 61.9456 168.886 74.9975 168.886C88.0494 168.886 100.766 166.18 112.886 161.053Z" fill="#FFF8E6"/>
<path d="M79.095 66.7394H70.9048L65.5674 50.1582H84.4324L79.095 66.7394Z" fill="#E27123"/>
<path d="M85.6154 50.9641C85.6154 55.8072 80.8627 59.7333 75 59.7333C69.1373 59.7333 64.3845 55.8072 64.3845 50.9641C64.3845 46.121 69.1373 44.2744 75 44.2744C80.8627 44.2744 85.6154 46.121 85.6154 50.9641Z" fill="#F78839"/>
<path d="M74.9999 56.9868C70.9275 56.9868 67.3036 55.5057 64.7732 53.1915C65.9721 56.949 70.0751 59.7333 74.9999 59.7333C79.9247 59.7333 84.0279 56.949 85.2268 53.1915C82.6965 55.5057 79.0723 56.9868 74.9999 56.9868Z" fill="#D1651C"/>
<path d="M75 123.156C48.4512 123.156 35.5459 113.909 35.5459 94.8868C35.5459 75.6007 49.5576 64.9796 75 64.9796C100.442 64.9796 114.454 75.6007 114.454 94.8868C114.454 113.909 101.549 123.156 75 123.156ZM75 69.501C59.0635 69.501 40.0674 73.9053 40.0674 94.8867C40.0674 111.089 51.167 118.635 75 118.635C98.833 118.635 109.933 111.089 109.933 94.8867C109.933 73.9053 90.9365 69.501 75 69.501Z" fill="#F78C2C"/>
<path d="M72.7939 45.033C72.7939 44.1641 72.0896 43.4597 71.2207 43.4597C70.3518 43.4597 69.6475 44.1641 69.6475 45.033V46.8585C69.6475 47.7274 70.3518 48.4318 71.2207 48.4318C72.0896 48.4318 72.7939 47.7274 72.7939 46.8585V45.033Z" fill="#D1651C"/>
<path d="M80.3528 45.033C80.3528 44.1641 79.6484 43.4597 78.7795 43.4597C77.9107 43.4597 77.2063 44.1641 77.2063 45.033V46.8585C77.2063 47.7274 77.9107 48.4318 78.7795 48.4318C79.6484 48.4318 80.3528 47.7274 80.3528 46.8585V45.033Z" fill="#D1651C"/>
<path d="M50.4591 106.723C53.8592 106.723 56.6155 104.924 56.6155 102.705C56.6155 100.486 53.8592 98.6874 50.4591 98.6874C47.059 98.6874 44.3027 100.486 44.3027 102.705C44.3027 104.924 47.059 106.723 50.4591 106.723Z" fill="#FFCEA9"/>
<path d="M99.5406 106.723C102.941 106.723 105.697 104.924 105.697 102.705C105.697 100.486 102.941 98.6874 99.5406 98.6874C96.1406 98.6874 93.3843 100.486 93.3843 102.705C93.3843 104.924 96.1406 106.723 99.5406 106.723Z" fill="#FFCEA9"/>
<path d="M59.6221 104.107C65.1665 104.107 69.6611 99.6126 69.6611 94.0682C69.6611 88.5237 65.1665 84.0291 59.6221 84.0291C54.0776 84.0291 49.583 88.5237 49.583 94.0682C49.583 99.6126 54.0776 104.107 59.6221 104.107Z" fill="white"/>
<path d="M59.6222 100.611C63.2356 100.611 66.1648 97.6815 66.1648 94.0681C66.1648 90.4547 63.2356 87.5255 59.6222 87.5255C56.0088 87.5255 53.0796 90.4547 53.0796 94.0681C53.0796 97.6815 56.0088 100.611 59.6222 100.611Z" fill="black"/>
<path opacity="0.13" d="M59.6221 93.8821C61.1052 93.8821 62.3076 92.9405 62.3076 91.779C62.3076 90.6175 61.1052 89.6759 59.6221 89.6759C58.1389 89.6759 56.9365 90.6175 56.9365 91.779C56.9365 92.9405 58.1389 93.8821 59.6221 93.8821Z" fill="white"/>
<path d="M90.3782 104.107C95.9226 104.107 100.417 99.6126 100.417 94.0682C100.417 88.5237 95.9226 84.0291 90.3782 84.0291C84.8337 84.0291 80.3391 88.5237 80.3391 94.0682C80.3391 99.6126 84.8337 104.107 90.3782 104.107Z" fill="white"/>
<path d="M90.3781 100.611C93.9914 100.611 96.9207 97.6815 96.9207 94.0681C96.9207 90.4547 93.9914 87.5255 90.3781 87.5255C86.7647 87.5255 83.8354 90.4547 83.8354 94.0681C83.8354 97.6815 86.7647 100.611 90.3781 100.611Z" fill="black"/>
<path opacity="0.13" d="M90.3779 93.8821C91.8611 93.8821 93.0635 92.9405 93.0635 91.779C93.0635 90.6175 91.8611 89.6759 90.3779 89.6759C88.8948 89.6759 87.6924 90.6175 87.6924 91.779C87.6924 92.9405 88.8948 93.8821 90.3779 93.8821Z" fill="white"/>
<path d="M42.2454 160.402C43.2156 160.402 44.0022 159.616 44.0022 158.646C44.0022 157.675 43.2156 156.889 42.2454 156.889C41.2751 156.889 40.4885 157.675 40.4885 158.646C40.4885 159.616 41.2751 160.402 42.2454 160.402Z" fill="#FFDF8F"/>
<path d="M47.9409 162.037C48.9112 162.037 49.6978 161.25 49.6978 160.28C49.6978 159.31 48.9112 158.523 47.9409 158.523C46.9707 158.523 46.1841 159.31 46.1841 160.28C46.1841 161.25 46.9707 162.037 47.9409 162.037Z" fill="#FFDF8F"/>
<path d="M53.9189 163.28C54.8892 163.28 55.6758 162.494 55.6758 161.524C55.6758 160.553 54.8892 159.767 53.9189 159.767C52.9487 159.767 52.1621 160.553 52.1621 161.524C52.1621 162.494 52.9487 163.28 53.9189 163.28Z" fill="#FFDF8F"/>
<path d="M107.755 160.402C108.726 160.402 109.512 159.616 109.512 158.646C109.512 157.675 108.726 156.889 107.755 156.889C106.785 156.889 105.999 157.675 105.999 158.646C105.999 159.616 106.785 160.402 107.755 160.402Z" fill="#FFDF8F"/>
<path d="M102.06 162.037C103.03 162.037 103.816 161.25 103.816 160.28C103.816 159.31 103.03 158.523 102.06 158.523C101.089 158.523 100.303 159.31 100.303 160.28C100.303 161.25 101.089 162.037 102.06 162.037Z" fill="#FFDF8F"/>
<path d="M96.0818 163.28C97.052 163.28 97.8385 162.494 97.8385 161.524C97.8385 160.553 97.052 159.767 96.0818 159.767C95.1115 159.767 94.325 160.553 94.325 161.524C94.325 162.494 95.1115 163.28 96.0818 163.28Z" fill="#FFDF8F"/>
<path d="M75.0001 138.989C72.7201 138.989 70.7148 137.481 70.0814 135.291L65.5127 119.491H84.4874L79.9187 135.291C79.2854 137.481 77.2801 138.989 75.0001 138.989Z" fill="#F78C2C"/>
<path d="M80.2168 134.259L81.1404 131.065H68.8594L69.783 134.259H80.2168Z" fill="#EF7F25"/>
<path d="M66.8799 124.22L67.8036 127.414H82.1963L83.1199 124.22H66.8799Z" fill="#EF7F25"/>
</svg>
