<svg width="150" height="200" viewBox="0 0 150 200" fill="none" xmlns="http://www.w3.org/2000/svg">
<path d="M131.57 90.4317C131.57 82.3692 129.82 74.3585 126.484 67.0606C128.837 63.752 130.141 59.7579 130.141 55.6661C130.141 44.8243 121.32 36.004 110.478 36.004C106.388 36.004 102.502 37.2413 99.2287 39.5411C91.801 36.0606 83.6224 34.2335 75.3714 34.2335C67.1204 34.2335 58.9427 36.0606 51.515 39.5411C48.2416 37.2413 44.3558 36.004 40.266 36.004C29.4232 36.004 20.6019 44.8243 20.6019 55.6661C20.6019 59.7569 21.9056 63.752 24.2591 67.0606C20.9241 74.3594 19.174 82.3702 19.174 90.4317C19.174 102.787 23.175 113.61 30.8 122.034C24.51 129.645 18.348 141.573 18.431 159.049C18.4691 166.785 24.7923 173.079 32.5941 173.079C32.848 173.078 33.1009 173.07 33.3529 173.056C34.0179 178.402 35.0463 183.492 36.4242 188.25C38.4291 195.168 44.8558 200 52.0531 200C53.5843 200 55.1097 199.782 56.5853 199.354C63.4369 197.37 67.9895 191.251 68.3166 184.494C69.5852 184.621 70.8626 184.685 72.1429 184.685H78.5998C79.8801 184.685 81.1575 184.621 82.427 184.494C82.7541 191.25 87.3069 197.37 94.1555 199.353C95.634 199.782 97.1593 200 98.6907 200C105.889 200 112.316 195.168 114.32 188.249C115.702 183.474 116.734 178.369 117.4 173.018C124.53 172.358 130.156 166.345 130.191 159.048C130.269 142.371 124.613 130.768 118.796 123.258C127.173 114.681 131.57 103.434 131.57 90.4317Z" fill="white"/>
<path d="M40.2653 70.3298C48.3635 70.3298 54.9285 63.7648 54.9285 55.6666C54.9285 47.5683 48.3635 41.0034 40.2653 41.0034C32.167 41.0034 25.6021 47.5683 25.6021 55.6666C25.6021 63.7648 32.167 70.3298 40.2653 70.3298Z" fill="#FF8022"/>
<path d="M110.478 70.3298C118.576 70.3298 125.141 63.7648 125.141 55.6666C125.141 47.5683 118.576 41.0034 110.478 41.0034C102.38 41.0034 95.8149 47.5683 95.8149 55.6666C95.8149 63.7648 102.38 70.3298 110.478 70.3298Z" fill="#FF8022"/>
<path d="M32.5276 168.079C27.5237 168.079 23.4553 164.034 23.4309 159.024C23.2756 126.451 46.7707 113.273 52.7893 112.847C57.8127 112.498 62.1526 116.264 62.5081 121.276C62.8147 125.586 60.0678 129.407 56.1049 130.619C54.352 131.465 41.5278 138.361 41.6264 158.939C41.6498 163.963 37.5961 168.055 32.5717 168.079H32.5276ZM54.0921 130.994C54.0872 130.995 54.0822 130.995 54.0783 130.995C54.0832 130.995 54.0872 130.995 54.0921 130.994Z" fill="#FF7415"/>
<path d="M116.094 168.079H116.05C111.026 168.055 106.972 163.963 106.995 158.939C107.093 138.362 94.2688 131.464 92.5159 130.619C88.554 129.406 85.807 125.585 86.1137 121.275C86.4692 116.264 90.8148 112.496 95.8333 112.847C101.851 113.274 125.344 126.453 125.191 159.024C125.167 164.034 121.098 168.079 116.094 168.079ZM94.5296 130.994C94.5345 130.995 94.5384 130.995 94.5423 130.995C94.5384 130.995 94.5335 130.995 94.5296 130.994Z" fill="#FF7415"/>
<path d="M52.0527 195C47.1611 195 42.6563 191.792 41.2266 186.858C32.8116 157.806 40.9921 126.477 41.3447 125.158C42.9511 119.142 49.1289 115.562 55.1484 117.173C61.1601 118.778 64.7335 124.947 63.1387 130.959C63.0547 131.277 56.2588 157.694 62.8887 180.583C64.6211 186.565 61.1767 192.819 55.1943 194.552C54.1474 194.855 53.0908 195 52.0527 195Z" fill="#FF8022"/>
<path d="M98.6905 195C97.6524 195 96.5958 194.855 95.5489 194.552C89.5665 192.819 86.1222 186.565 87.8547 180.583C94.4914 157.67 87.674 131.223 87.6047 130.958C86.0207 124.943 89.6037 118.771 95.6164 117.178C101.629 115.581 107.794 119.149 109.399 125.158C109.751 126.477 117.932 157.806 109.517 186.858C108.088 191.792 103.582 195 98.6905 195Z" fill="#FF8022"/>
<path d="M78.6005 179.686H72.1436C52.7584 179.686 37.5109 163.122 39.1127 143.803L40.1226 131.622C41.5474 114.438 55.9102 101.217 73.1535 101.217H77.5905C94.8338 101.217 109.197 114.438 110.621 131.622L111.631 143.803C113.233 163.122 97.9857 179.686 78.6005 179.686Z" fill="#FF8022"/>
<path d="M126.569 90.4313C126.569 118.707 103.647 134.542 75.3716 134.542C47.0958 134.542 24.1738 118.707 24.1738 90.4313C24.1738 62.1555 47.0958 39.2335 75.3716 39.2335C103.647 39.2335 126.569 62.1555 126.569 90.4313Z" fill="#FF8022"/>
<path d="M112.565 99.6604C112.565 120.202 95.9129 125.67 75.3716 125.67C54.8303 125.67 38.1782 120.202 38.1782 99.6604C38.1782 79.119 54.8303 62.467 75.3716 62.467C95.9129 62.467 112.565 79.1191 112.565 99.6604Z" fill="#FFEBB3"/>
<path opacity="0.12" d="M40.8682 87.6104C37.2471 87.6104 34.3125 84.6758 34.3125 81.0547C34.3125 61.6524 50.0966 45.8682 69.4989 45.8682C73.12 45.8682 76.0547 48.8028 76.0547 52.4239C76.0547 56.045 73.12 58.9796 69.4989 58.9796C57.327 58.9796 47.4237 68.8829 47.4237 81.0548C47.4237 84.6759 44.4893 87.6104 40.8682 87.6104Z" fill="white"/>
<path opacity="0.12" d="M86.0647 59.2165C89.571 59.2165 92.4135 56.3741 92.4135 52.8677C92.4135 49.3614 89.571 46.5189 86.0647 46.5189C82.5584 46.5189 79.7158 49.3614 79.7158 52.8677C79.7158 56.3741 82.5584 59.2165 86.0647 59.2165Z" fill="white"/>
<path d="M59.9937 104.107C65.5381 104.107 70.0328 99.6128 70.0328 94.0684C70.0328 88.524 65.5381 84.0293 59.9937 84.0293C54.4492 84.0293 49.9546 88.524 49.9546 94.0684C49.9546 99.6128 54.4492 104.107 59.9937 104.107Z" fill="white"/>
<path d="M59.9938 100.611C63.6072 100.611 66.5364 97.6817 66.5364 94.0684C66.5364 90.455 63.6072 87.5258 59.9938 87.5258C56.3804 87.5258 53.4512 90.455 53.4512 94.0684C53.4512 97.6817 56.3804 100.611 59.9938 100.611Z" fill="black"/>
<path opacity="0.13" d="M59.994 93.8822C61.4772 93.8822 62.6796 92.9406 62.6796 91.7791C62.6796 90.6176 61.4772 89.676 59.994 89.676C58.5109 89.676 57.3086 90.6176 57.3086 91.7791C57.3086 92.9406 58.5109 93.8822 59.994 93.8822Z" fill="white"/>
<path d="M90.75 104.107C96.2944 104.107 100.789 99.6128 100.789 94.0684C100.789 88.524 96.2944 84.0293 90.75 84.0293C85.2056 84.0293 80.7109 88.524 80.7109 94.0684C80.7109 99.6128 85.2056 104.107 90.75 104.107Z" fill="white"/>
<path d="M90.7501 100.611C94.3635 100.611 97.2927 97.6817 97.2927 94.0684C97.2927 90.455 94.3635 87.5258 90.7501 87.5258C87.1367 87.5258 84.2075 90.455 84.2075 94.0684C84.2075 97.6817 87.1367 100.611 90.7501 100.611Z" fill="black"/>
<path opacity="0.13" d="M90.7499 93.8822C92.233 93.8822 93.4354 92.9406 93.4354 91.7791C93.4354 90.6176 92.233 89.676 90.7499 89.676C89.2667 89.676 88.0645 90.6176 88.0645 91.7791C88.0645 92.9406 89.2667 93.8822 90.7499 93.8822Z" fill="white"/>
<path d="M75.3624 106.947H75.3585C73.1798 106.945 71.1544 105.965 69.8019 104.257C69.1701 103.458 69.3047 102.299 70.1036 101.666C70.9015 101.036 72.0617 101.169 72.6945 101.968C73.3429 102.788 74.3146 103.258 75.3605 103.259H75.3624C76.4083 103.259 77.3801 102.789 78.0295 101.971C78.3791 101.53 78.9133 101.271 79.4758 101.271H79.4817C80.0471 101.273 80.5823 101.531 80.9299 101.976C81.5217 102.732 81.4377 103.815 80.7551 104.462C79.4055 106.044 77.4542 106.947 75.3624 106.947Z" fill="#232323"/>
<path d="M75.3716 148.175C78.2824 148.175 80.6421 145.815 80.6421 142.904C80.6421 139.994 78.2824 137.634 75.3716 137.634C72.4608 137.634 70.1011 139.994 70.1011 142.904C70.1011 145.815 72.4608 148.175 75.3716 148.175Z" fill="#FF6700"/>
<path d="M75.3716 166.428C78.2824 166.428 80.6421 164.068 80.6421 161.157C80.6421 158.247 78.2824 155.887 75.3716 155.887C72.4608 155.887 70.1011 158.247 70.1011 161.157C70.1011 164.068 72.4608 166.428 75.3716 166.428Z" fill="#FF6700"/>
</svg>
