<svg width="150" height="200" viewBox="0 0 150 200" fill="none" xmlns="http://www.w3.org/2000/svg">
<path d="M132.897 66.7726C131.331 65.9611 129.663 65.3576 127.921 64.9669C128.876 63.4591 129.628 61.8526 130.162 60.171C132.733 52.0685 130.598 43.3038 124.591 37.297C118.585 31.2892 109.819 29.1534 101.716 31.7247C100.035 32.2579 98.4288 33.0108 96.9205 33.9659C96.5294 32.2237 95.9258 30.5557 95.1138 28.9903C91.2017 21.4434 83.4948 16.7549 74.9996 16.7549C66.5044 16.7549 58.7975 21.4434 54.8853 28.9903C54.0733 30.5557 53.4703 32.2237 53.0787 33.9659C51.5704 33.0108 49.964 32.2579 48.2823 31.7247C40.1798 29.1554 31.4141 31.2901 25.4083 37.297C19.4015 43.3038 17.2667 52.0685 19.8365 60.171C20.3702 61.8526 21.1225 63.4591 22.0776 64.9669C20.3359 65.3575 18.668 65.961 17.1021 66.7726C9.55515 70.6847 4.86719 78.3927 4.86719 86.8878C4.86719 95.3829 9.55567 103.091 17.1011 107.001C18.6675 107.814 20.3354 108.417 22.0776 108.809C21.1225 110.316 20.3702 111.923 19.8365 113.605C17.6236 120.581 18.8994 128.049 23.1313 133.824C19.7202 141.401 18.0151 149.869 18.0585 159.048C18.0956 166.785 24.4194 173.079 32.2222 173.079C32.4756 173.078 32.729 173.07 32.981 173.056C33.6456 178.401 34.6739 183.491 36.0518 188.25C38.0562 195.168 44.483 200 51.6802 200C53.211 200 54.7368 199.782 56.2139 199.354C63.0645 197.37 67.6172 191.25 67.9449 184.494C69.2139 184.621 70.4908 184.685 71.7711 184.685H78.228C79.5083 184.685 80.7851 184.621 82.0547 184.494C82.3818 191.25 86.9346 197.37 93.7842 199.354C95.2632 199.782 96.7887 200 98.319 200C105.517 200 111.943 195.168 113.947 188.25C115.33 183.477 116.361 178.372 117.027 173.019C124.158 172.359 129.785 166.345 129.819 159.048C129.859 150.562 128.402 142.67 125.484 135.534C130.804 129.574 132.601 121.291 130.162 113.604C129.628 111.923 128.876 110.316 127.921 108.809C129.663 108.417 131.331 107.813 132.897 107.002C140.444 103.091 145.132 95.3838 145.132 86.8877C145.132 78.3916 140.444 70.6847 132.897 66.7726Z" fill="white"/>
<path d="M115.722 168.079H115.678C110.654 168.055 106.6 163.963 106.624 158.939C106.721 138.362 93.897 131.464 92.1441 130.619C88.1817 129.406 85.4346 125.585 85.7408 121.277C86.0968 116.264 90.4483 112.493 95.4605 112.847C101.479 113.274 124.972 126.452 124.819 159.025C124.795 164.034 120.726 168.079 115.722 168.079Z" fill="white"/>
<path d="M32.1553 168.079C27.1509 168.079 23.0825 164.034 23.0586 159.024C22.9043 126.452 46.3984 113.273 52.4165 112.847C57.4243 112.482 61.7798 116.264 62.1362 121.276C62.4424 125.585 59.6953 129.406 55.7329 130.619C53.98 131.464 41.1562 138.361 41.2539 158.939C41.2773 163.963 37.2236 168.055 32.1992 168.079H32.1553Z" fill="white"/>
<path d="M78.2279 179.686H71.7711C52.3859 179.686 37.1383 163.122 38.7401 143.803L39.7501 131.622C41.1749 114.438 55.5377 101.217 72.781 101.217H77.218C94.4613 101.217 108.824 114.438 110.249 131.622L111.259 143.803C112.861 163.122 97.6131 179.686 78.2279 179.686Z" fill="#30AD67"/>
<path d="M98.3187 195C97.2796 195 96.224 194.856 95.1761 194.552C89.1942 192.819 85.7498 186.566 87.4823 180.583C94.119 157.67 87.3021 131.223 87.2323 130.958C85.6483 124.943 89.2318 118.772 95.244 117.178C101.257 115.579 107.422 119.149 109.026 125.158C109.378 126.478 117.56 157.806 109.144 186.858C107.715 191.792 103.21 195 98.3187 195Z" fill="#30AD67"/>
<path d="M51.6802 195C46.7886 195 42.2837 191.792 40.8545 186.858C32.4395 157.806 40.6211 126.477 40.9732 125.157C42.5801 119.142 48.7623 115.569 54.7774 117.173C60.7891 118.778 64.3633 124.949 62.7662 130.961C62.6558 131.384 55.9 157.74 62.5167 180.583C64.2491 186.565 60.8048 192.819 54.8229 194.552C53.7755 194.856 52.7188 195 51.6802 195Z" fill="#30AD67"/>
<path d="M94.3043 143.424C97.5833 143.424 99.966 146.529 99.1429 149.703C96.3591 160.437 86.605 168.364 74.9995 168.364C63.394 168.364 53.6399 160.437 50.8561 149.703C50.033 146.529 52.4158 143.424 55.6948 143.424H94.3043Z" fill="#279B56"/>
<path d="M70.6854 110.125H79.314C84.6817 110.125 89.262 114.007 90.1413 119.302L92.1811 131.585C92.7958 135.287 92.4018 139.153 90.675 142.484C87.7385 148.149 81.8211 152.02 74.9997 152.02C68.1782 152.02 62.2608 148.149 59.3244 142.484C57.5976 139.153 57.2036 135.287 57.8183 131.585L59.8581 119.302C60.7375 114.007 65.3177 110.125 70.6854 110.125Z" fill="#FF8022"/>
<path d="M61.6194 67.406L55.5179 73.5074C51.7223 77.303 45.7385 77.7964 41.3724 74.674L31.2446 67.431C28.1924 65.2482 25.7374 62.236 24.6028 58.6592C22.6734 52.577 24.1204 45.6556 28.944 40.8321C33.7675 36.0086 40.6888 34.5615 46.771 36.4909C50.3477 37.6255 53.36 40.0805 55.5428 43.1327L62.7858 53.2605C65.9083 57.6266 65.415 63.6104 61.6194 67.406Z" fill="#FF8022"/>
<path d="M51.7628 82.5733V91.2019C51.7628 96.5696 47.8805 101.15 42.5853 102.029L30.3022 104.069C26.6005 104.684 22.7346 104.29 19.4031 102.563C13.738 99.6264 9.86719 93.709 9.86719 86.8876C9.86719 80.0661 13.738 74.1487 19.4031 71.2122C22.7345 69.4854 26.6005 69.0914 30.3022 69.7061L42.5853 71.7459C47.8805 72.6253 51.7628 77.2056 51.7628 82.5733Z" fill="#FF8022"/>
<path d="M55.5179 100.268L61.6193 106.369C65.4149 110.165 65.9083 116.149 62.7859 120.515L55.5429 130.643C53.3601 133.695 50.3479 136.15 46.7711 137.285C40.6889 139.214 33.7674 137.767 28.9439 132.943C24.1204 128.12 22.6734 121.198 24.6028 115.116C25.7374 111.54 28.1923 108.527 31.2445 106.344L41.3723 99.1015C45.7384 95.979 51.7223 96.4724 55.5179 100.268Z" fill="#FF8022"/>
<path d="M88.3798 106.369L94.4812 100.268C98.2768 96.4723 104.261 95.9789 108.627 99.1013L118.755 106.344C121.807 108.527 124.262 111.539 125.396 115.116C127.326 121.198 125.879 128.12 121.055 132.943C116.232 137.767 109.31 139.214 103.228 137.284C99.6514 136.15 96.6391 133.695 94.4563 130.643L87.2133 120.515C84.0908 116.149 84.5842 110.165 88.3798 106.369Z" fill="#FF8022"/>
<path d="M98.2363 91.2019V82.5733C98.2363 77.2056 102.119 72.6253 107.414 71.746L119.697 69.7062C123.399 69.0915 127.264 69.4855 130.596 71.2123C136.261 74.1488 140.132 80.0662 140.132 86.8876C140.132 93.7091 136.261 99.6265 130.596 102.563C127.265 104.29 123.399 104.684 119.697 104.069L107.414 102.029C102.119 101.15 98.2363 96.5696 98.2363 91.2019Z" fill="#FF8022"/>
<path d="M94.4813 73.5074L88.3799 67.406C84.5843 63.6104 84.0909 57.6265 87.2133 53.2604L94.4563 43.1326C96.6391 40.0804 99.6513 37.6254 103.228 36.4908C109.31 34.5614 116.232 36.0084 121.055 40.832C125.879 45.6555 127.326 52.5769 125.396 58.6591C124.262 62.2358 121.807 65.2481 118.755 67.4309L108.627 74.6739C104.261 77.7964 98.2769 77.303 94.4813 73.5074Z" fill="#FF8022"/>
<path d="M79.314 63.6508H70.6854C65.3177 63.6508 60.7374 59.7686 59.8581 54.4734L57.8183 42.1903C57.2036 38.4886 57.5976 34.6227 59.3244 31.2912C62.2609 25.6261 68.1783 21.7552 74.9997 21.7552C81.8212 21.7552 87.7386 25.6261 90.675 31.2912C92.4018 34.6226 92.7958 38.4886 92.1811 42.1903L90.1413 54.4734C89.2619 59.7686 84.6817 63.6508 79.314 63.6508Z" fill="#FF8022"/>
<path d="M79.0139 39.6783C79.0139 37.4612 77.2166 35.6639 74.9995 35.6639C72.7824 35.6639 70.9851 37.4612 70.9851 39.6783V53.7502C70.9851 55.9673 72.7824 57.7646 74.9995 57.7646C77.2166 57.7646 79.0139 55.9673 79.0139 53.7502V39.6783Z" fill="#FF7415"/>
<path d="M44.4568 50.6683C42.889 49.1006 40.3473 49.1006 38.7795 50.6683C37.2118 52.2361 37.2118 54.7778 38.7795 56.3456L48.7299 66.2959C50.2976 67.8636 52.8394 67.8636 54.4071 66.2959C55.9748 64.7282 55.9748 62.1864 54.4071 60.6187L44.4568 50.6683Z" fill="#FF7415"/>
<path d="M27.7925 82.8756C25.5754 82.8756 23.7781 84.6729 23.7781 86.89C23.7781 89.1071 25.5754 90.9044 27.7925 90.9044H41.8644C44.0815 90.9044 45.8788 89.1071 45.8788 86.89C45.8788 84.6729 44.0815 82.8756 41.8644 82.8756H27.7925Z" fill="#FF7415"/>
<path d="M38.783 117.432C37.2152 119 37.2152 121.542 38.783 123.11C40.3507 124.677 42.8925 124.677 44.4602 123.11L54.4105 113.159C55.9783 111.592 55.9782 109.05 54.4105 107.482C52.8428 105.914 50.301 105.914 48.7333 107.482L38.783 117.432Z" fill="#FF7415"/>
<path d="M70.9897 134.097C70.9897 136.314 72.7871 138.111 75.0042 138.111C77.2212 138.111 79.0186 136.314 79.0186 134.097V120.025C79.0186 117.808 77.2212 116.011 75.0042 116.011C72.7871 116.011 70.9897 117.808 70.9897 120.025V134.097Z" fill="#FF7415"/>
<path d="M105.546 123.106C107.114 124.674 109.656 124.674 111.224 123.106C112.791 121.538 112.791 118.997 111.224 117.429L101.273 107.478C99.7056 105.911 97.1638 105.911 95.5961 107.478C94.0284 109.046 94.0284 111.588 95.5961 113.156L105.546 123.106Z" fill="#FF7415"/>
<path d="M122.211 90.8998C124.428 90.8998 126.226 89.1025 126.226 86.8854C126.226 84.6683 124.428 82.871 122.211 82.871H108.139C105.922 82.871 104.125 84.6683 104.125 86.8854C104.125 89.1025 105.922 90.8998 108.139 90.8998H122.211Z" fill="#FF7415"/>
<path d="M111.221 56.3427C112.788 54.775 112.788 52.2332 111.221 50.6655C109.653 49.0978 107.111 49.0978 105.543 50.6655L95.5931 60.6158C94.0254 62.1836 94.0254 64.7254 95.5931 66.2931C97.1609 67.8608 99.7026 67.8608 101.27 66.2931L111.221 56.3427Z" fill="#FF7415"/>
<path d="M107.577 91.9295C107.218 108.065 92.342 120.821 74.351 120.421C56.3599 120.02 42.0666 106.614 42.4261 90.4782C42.7856 74.3423 57.6616 52.9503 75.6526 53.3511C93.6437 53.7519 107.937 75.7936 107.577 91.9295Z" fill="#F8C202"/>
<path d="M75.171 122.691C74.8805 122.691 74.5928 122.688 74.3008 122.681C55.0924 122.252 39.7799 107.784 40.1661 90.4278C40.5684 72.3731 57.0733 50.6719 75.7032 51.0909C94.5675 51.5118 110.24 73.9259 109.837 91.9805C109.457 109.072 93.9869 122.691 75.171 122.691ZM75.1754 55.6055C59.401 55.6055 45.0328 74.9815 44.6866 90.5293C44.3555 105.393 57.6856 117.788 74.4014 118.161C91.1421 118.562 104.987 106.743 105.317 91.8789C105.667 76.1924 91.746 55.9707 75.6025 55.6103C75.4604 55.6074 75.317 55.6055 75.1754 55.6055Z" fill="#FFD345"/>
<path d="M59.6216 97.8266C65.1661 97.8266 69.6607 93.332 69.6607 87.7875C69.6607 82.2431 65.1661 77.7484 59.6216 77.7484C54.0772 77.7484 49.5825 82.2431 49.5825 87.7875C49.5825 93.332 54.0772 97.8266 59.6216 97.8266Z" fill="white"/>
<path d="M59.6217 94.3301C63.2351 94.3301 66.1643 91.4009 66.1643 87.7875C66.1643 84.1741 63.2351 81.2449 59.6217 81.2449C56.0083 81.2449 53.0791 84.1741 53.0791 87.7875C53.0791 91.4009 56.0083 94.3301 59.6217 94.3301Z" fill="black"/>
<path opacity="0.13" d="M59.6216 87.6015C61.1047 87.6015 62.3071 86.6599 62.3071 85.4984C62.3071 84.3368 61.1047 83.3953 59.6216 83.3953C58.1384 83.3953 56.936 84.3368 56.936 85.4984C56.936 86.6599 58.1384 87.6015 59.6216 87.6015Z" fill="white"/>
<path d="M90.3777 97.8266C95.9222 97.8266 100.417 93.332 100.417 87.7875C100.417 82.2431 95.9222 77.7484 90.3777 77.7484C84.8333 77.7484 80.3386 82.2431 80.3386 87.7875C80.3386 93.332 84.8333 97.8266 90.3777 97.8266Z" fill="white"/>
<path d="M90.3778 94.3301C93.9912 94.3301 96.9203 91.4009 96.9203 87.7875C96.9203 84.1741 93.9912 81.2449 90.3778 81.2449C86.7644 81.2449 83.8352 84.1741 83.8352 87.7875C83.8352 91.4009 86.7644 94.3301 90.3778 94.3301Z" fill="black"/>
<path opacity="0.13" d="M90.3779 87.6015C91.8611 87.6015 93.0634 86.6599 93.0634 85.4984C93.0634 84.3368 91.8611 83.3953 90.3779 83.3953C88.8948 83.3953 87.6924 84.3368 87.6924 85.4984C87.6924 86.6599 88.8948 87.6015 90.3779 87.6015Z" fill="white"/>
<path d="M74.9913 100.666H74.9874C72.8082 100.665 70.7828 99.6847 69.4303 97.9757C68.798 97.1769 68.9332 96.0177 69.7316 95.3849C70.5309 94.754 71.6906 94.8878 72.3219 95.6867C72.9713 96.507 73.9435 96.9777 74.9894 96.9777H74.9914C76.0363 96.9777 77.0075 96.5089 77.6569 95.6896C78.008 95.2482 78.5251 94.9865 79.1095 94.9894C79.6749 94.9914 80.2096 95.2501 80.5577 95.6945C81.149 96.4504 81.0655 97.5334 80.3834 98.1808C79.0338 99.7628 77.0831 100.666 74.9913 100.666Z" fill="#602B00"/>
</svg>
