<svg width="150" height="200" viewBox="0 0 150 200" fill="none" xmlns="http://www.w3.org/2000/svg">
<path d="M131.57 90.4316C131.57 72.3847 122.862 55.5302 108.467 45.0224C112.087 43.6435 115.085 40.7978 116.579 37.0068C117.962 33.4961 117.896 29.6572 116.392 26.1963C114.888 22.7354 112.126 20.0674 108.616 18.6836C101.368 15.832 93.1493 19.4014 90.2938 26.6475C89.0614 29.7745 89.0155 33.1299 89.995 36.1612C85.2523 34.88 80.3607 34.2335 75.372 34.2335C71.2778 34.2335 67.2358 34.673 63.2831 35.545C64.0668 32.6788 63.9496 29.5636 62.8002 26.6475C59.9442 19.4014 51.7255 15.8301 44.4779 18.6836C40.9672 20.0674 38.2054 22.7354 36.7015 26.1963C35.1971 29.6572 35.1312 33.4961 36.5145 37.0068C37.8036 40.2763 40.2098 42.8427 43.1698 44.372C28.1971 54.7997 19.1742 71.8193 19.1742 90.4316C19.1742 102.788 23.1752 113.611 30.8007 122.034C24.5101 129.645 18.348 141.573 18.431 159.048C18.4681 166.785 24.7918 173.079 32.5946 173.079C32.848 173.078 33.1009 173.07 33.3529 173.056C34.0179 178.4 35.0458 183.49 36.4242 188.25C38.4286 195.168 44.8554 200 52.0526 200C53.5834 200 55.1092 199.782 56.5863 199.354C63.4369 197.37 67.9896 191.251 68.3168 184.493C69.5858 184.621 70.8627 184.685 72.1435 184.685H78.6005C79.8808 184.685 81.1576 184.621 82.4272 184.494C82.7543 191.25 87.3071 197.37 94.1567 199.354C95.6357 199.782 97.1611 200 98.6914 200C105.889 200 112.315 195.168 114.32 188.249C115.702 183.475 116.734 178.37 117.399 173.018C124.529 172.358 130.156 166.345 130.191 159.048C130.27 142.37 124.613 130.767 118.797 123.257C127.172 114.681 131.57 103.434 131.57 90.4316Z" fill="white"/>
<path d="M103.436 40.9531C108.477 40.9531 112.563 36.867 112.563 31.8266C112.563 26.7861 108.477 22.7001 103.436 22.7001C98.3959 22.7001 94.3098 26.7861 94.3098 31.8266C94.3098 36.867 98.3959 40.9531 103.436 40.9531Z" fill="#3192D9"/>
<path d="M99.9417 34.4712L93.3491 51.198L97.5945 52.8712L104.187 36.1444L99.9417 34.4712Z" fill="#3192D9"/>
<path d="M49.6575 40.9531C54.6979 40.9531 58.784 36.867 58.784 31.8266C58.784 26.7861 54.6979 22.7001 49.6575 22.7001C44.6171 22.7001 40.531 26.7861 40.531 31.8266C40.531 36.867 44.6171 40.9531 49.6575 40.9531Z" fill="#3192D9"/>
<path d="M53.1521 34.4712L48.9067 36.1444L55.4993 52.8712L59.7446 51.198L53.1521 34.4712Z" fill="#3192D9"/>
<path d="M116.094 168.079H116.05C111.026 168.055 106.972 163.963 106.995 158.938C107.093 138.361 94.2693 131.464 92.5164 130.619C88.554 129.406 85.8069 125.585 86.1131 121.276C86.4695 116.264 90.8162 112.493 95.8328 112.847C101.851 113.273 125.345 126.452 125.191 159.024C125.167 164.034 121.098 168.079 116.094 168.079Z" fill="#3BA8FA"/>
<path d="M32.5276 168.079C27.5232 168.079 23.4548 164.034 23.4309 159.024C23.2766 126.452 46.7707 113.273 52.7888 112.847C57.7995 112.481 62.1516 116.264 62.5085 121.276C62.8147 125.585 60.0676 129.406 56.1052 130.619C54.3523 131.464 41.5285 138.361 41.6262 158.938C41.6496 163.963 37.5959 168.055 32.5715 168.079H32.5276Z" fill="#3BA8FA"/>
<path d="M52.0525 195C47.1609 195 42.656 191.792 41.2268 186.858C32.8118 157.806 40.9934 126.477 41.3455 125.157C42.9529 119.142 49.1336 115.569 55.1497 117.173C61.1614 118.778 64.7356 124.949 63.1385 130.961C63.0281 131.384 56.2723 157.74 62.889 180.583C64.6214 186.565 61.1771 192.819 55.1952 194.552C54.1478 194.855 53.0911 195 52.0525 195Z" fill="#57CBF4"/>
<path d="M98.6913 195C97.6522 195 96.5966 194.855 95.5487 194.552C89.5668 192.819 86.1224 186.565 87.8549 180.583C94.4916 157.67 87.6747 131.222 87.6049 130.958C86.0209 124.943 89.6044 118.771 95.6166 117.178C101.628 115.579 107.794 119.149 109.399 125.158C109.751 126.477 117.932 157.806 109.517 186.858C108.088 191.792 103.582 195 98.6913 195Z" fill="#57CBF4"/>
<path d="M78.6002 179.686H72.1433C52.7581 179.686 37.5106 163.122 39.1124 143.803L40.1223 131.622C41.5471 114.438 55.9099 101.217 73.1532 101.217H77.5902C94.8335 101.217 109.196 114.438 110.621 131.622L111.631 143.803C113.233 163.122 97.9854 179.686 78.6002 179.686Z" fill="#57CBF4"/>
<path d="M88.9247 143.358H61.8191C60.181 143.358 58.853 144.686 58.853 146.324V162.204C58.853 163.842 60.181 165.17 61.8191 165.17H88.9247C90.5629 165.17 91.8908 163.842 91.8908 162.204V146.324C91.8908 144.686 90.5629 143.358 88.9247 143.358Z" fill="#3BA8FA"/>
<path d="M126.57 90.4312C126.57 118.707 103.648 134.542 75.3718 134.542C47.096 134.542 24.1741 118.707 24.1741 90.4312C24.1741 62.1554 47.0961 39.2335 75.3719 39.2335C103.648 39.2335 126.57 62.1554 126.57 90.4312Z" fill="#57CBF4"/>
<path d="M112.565 94.8865C112.565 115.428 95.9132 120.896 75.3719 120.896C54.8306 120.896 38.1785 115.428 38.1785 94.8865C38.1785 74.3451 54.8306 67.2408 75.3719 67.2408C95.9132 67.2408 112.565 74.3452 112.565 94.8865Z" fill="#CCECFF"/>
<path d="M75.3718 123.156C48.8235 123.156 35.9177 113.909 35.9177 94.8867C35.9177 75.6015 49.9294 64.9805 75.3718 64.9805C100.814 64.9805 114.826 75.6016 114.826 94.8867C114.826 113.909 101.92 123.156 75.3718 123.156ZM75.3718 69.5019C59.4358 69.5019 40.4392 73.9062 40.4392 94.8867C40.4392 111.089 51.5393 118.635 75.3718 118.635C99.2043 118.635 110.304 111.089 110.304 94.8867C110.304 73.9062 91.3078 69.5019 75.3718 69.5019Z" fill="white"/>
<path d="M59.9939 104.107C65.5384 104.107 70.033 99.6128 70.033 94.0684C70.033 88.524 65.5384 84.0293 59.9939 84.0293C54.4495 84.0293 49.9548 88.524 49.9548 94.0684C49.9548 99.6128 54.4495 104.107 59.9939 104.107Z" fill="white"/>
<path d="M59.994 100.611C63.6074 100.611 66.5366 97.6817 66.5366 94.0684C66.5366 90.455 63.6074 87.5258 59.994 87.5258C56.3806 87.5258 53.4514 90.455 53.4514 94.0684C53.4514 97.6817 56.3806 100.611 59.994 100.611Z" fill="#003A7F"/>
<path opacity="0.13" d="M59.9941 93.8822C61.4773 93.8822 62.6796 92.9406 62.6796 91.7791C62.6796 90.6176 61.4773 89.676 59.9941 89.676C58.5109 89.676 57.3086 90.6176 57.3086 91.7791C57.3086 92.9406 58.5109 93.8822 59.9941 93.8822Z" fill="white"/>
<path d="M90.75 104.107C96.2945 104.107 100.789 99.6128 100.789 94.0684C100.789 88.524 96.2945 84.0293 90.75 84.0293C85.2056 84.0293 80.7109 88.524 80.7109 94.0684C80.7109 99.6128 85.2056 104.107 90.75 104.107Z" fill="white"/>
<path d="M90.7501 100.611C94.3635 100.611 97.2927 97.6817 97.2927 94.0684C97.2927 90.455 94.3635 87.5258 90.7501 87.5258C87.1367 87.5258 84.2075 90.455 84.2075 94.0684C84.2075 97.6817 87.1367 100.611 90.7501 100.611Z" fill="#003A7F"/>
<path opacity="0.13" d="M90.7502 93.8822C92.2334 93.8822 93.4357 92.9406 93.4357 91.7791C93.4357 90.6176 92.2334 89.676 90.7502 89.676C89.267 89.676 88.0647 90.6176 88.0647 91.7791C88.0647 92.9406 89.267 93.8822 90.7502 93.8822Z" fill="white"/>
<path d="M75.3632 106.947H75.3588C73.1801 106.945 71.1547 105.965 69.8026 104.257C69.1703 103.458 69.3055 102.299 70.1039 101.666C70.9027 101.035 72.0629 101.169 72.6942 101.968C73.3431 102.788 74.3153 103.258 75.3607 103.259H75.3631C76.408 103.259 77.3797 102.789 78.0296 101.971C78.3792 101.53 78.9134 101.27 79.4759 101.27H79.4822C80.0471 101.272 80.5818 101.531 80.93 101.976C81.5213 102.731 81.4378 103.814 80.7552 104.462C79.4056 106.044 77.4545 106.947 75.3632 106.947Z" fill="#232323"/>
</svg>
