<svg width="150" height="200" viewBox="0 0 150 200" fill="none" xmlns="http://www.w3.org/2000/svg">
<path d="M131.812 55.2663C130.356 51.0173 128.433 46.9567 126.067 43.1374C127.768 39.9831 127.287 35.9558 124.627 33.2956L115.776 24.444C114.204 22.8717 112.113 22.0055 109.889 22.0055C108.402 22.0055 106.975 22.3922 105.723 23.1188C101.26 20.4508 96.5053 18.3932 91.5161 16.9713V16.1568C91.5161 11.0963 87.3999 6.97998 82.3403 6.97998H67.6596C62.6 6.97998 58.4838 11.0962 58.4838 16.1568V16.9713C53.4945 18.3932 48.7392 20.4508 44.2773 23.1188C43.0249 22.3922 41.5976 22.0055 40.1113 22.0055C37.8867 22.0055 35.7959 22.8717 34.2241 24.444L25.3726 33.2956C22.7134 35.9558 22.2333 39.9831 23.9335 43.1364C21.5678 46.9548 19.6439 51.0163 18.1884 55.2663C11.6435 58.4323 7.40576 65.0583 7.40576 72.4977C7.40576 75.8581 10.1396 78.5924 13.5004 78.5924H15.7084V101.787C15.7084 108.457 21.1352 113.883 27.8051 113.883C28.3139 113.883 28.8217 113.851 29.3246 113.788C29.684 114.215 30.0521 114.637 30.4291 115.053C24.1391 122.666 17.9765 134.593 18.059 152.068C18.0961 159.805 24.4199 166.099 32.2227 166.099C32.4766 166.098 32.729 166.09 32.981 166.076C33.6465 171.422 34.6743 176.512 36.0522 181.27C38.0566 188.188 44.4835 193.02 51.6807 193.02C53.2115 193.02 54.7373 192.802 56.2144 192.374C63.065 190.39 67.6176 184.271 67.9448 177.513C69.2138 177.641 70.4907 177.706 71.7715 177.706H78.2285C79.5088 177.706 80.7856 177.641 82.0552 177.514C82.3823 184.27 86.9351 190.39 93.7847 192.375C95.2637 192.802 96.7892 193.02 98.3195 193.02C105.517 193.02 111.943 188.188 113.948 181.269C115.331 176.495 116.362 171.39 117.027 166.039C124.157 165.378 129.784 159.365 129.819 152.068C129.898 135.389 124.241 123.785 118.423 116.275C119.208 115.469 119.96 114.64 120.675 113.788C121.178 113.851 121.686 113.883 122.195 113.883C128.865 113.883 134.292 108.456 134.292 101.787V78.5923H136.5C139.86 78.5923 142.594 75.8579 142.594 72.4976C142.594 65.0581 138.357 58.4323 131.812 55.2663Z" fill="white"/>
<path d="M115.722 161.099H115.678C110.654 161.075 106.6 156.983 106.624 151.959C106.721 131.382 93.8974 124.484 92.1445 123.639C88.1821 122.427 85.4351 118.605 85.7413 114.297C86.0977 109.284 90.4391 105.513 95.461 105.867C101.479 106.294 124.973 119.472 124.819 152.045C124.795 157.054 120.726 161.099 115.722 161.099Z" fill="#8E67EF"/>
<path d="M32.1558 161.099C27.1514 161.099 23.083 157.054 23.0591 152.045C22.9048 119.472 46.3989 106.294 52.417 105.867C57.4302 105.502 61.7803 109.284 62.1367 114.297C62.4429 118.605 59.6958 122.427 55.7334 123.639C53.9805 124.484 41.1567 131.382 41.2544 151.959C41.2778 156.983 37.2241 161.075 32.1997 161.099H32.1558Z" fill="#8E67EF"/>
<path d="M51.6807 188.02C46.7891 188.02 42.2842 184.812 40.855 179.879C32.44 150.826 40.6215 119.497 40.9736 118.177C42.5805 112.162 48.7632 108.589 54.7778 110.193C60.7895 111.798 64.3638 117.969 62.7667 123.981C62.6563 124.404 55.9005 150.76 62.5172 173.603C64.2496 179.586 60.8053 185.839 54.8234 187.572C53.776 187.876 52.7193 188.02 51.6807 188.02Z" fill="#A678FF"/>
<path d="M98.3194 188.02C97.2803 188.02 96.2248 187.876 95.1769 187.572C89.195 185.84 85.7506 179.586 87.4831 173.603C94.1198 150.69 87.3029 124.243 87.2331 123.978C85.6491 117.964 89.2325 111.792 95.2447 110.198C101.255 108.599 107.422 112.17 109.027 118.178C109.379 119.498 117.56 150.826 109.145 179.879C107.716 184.812 103.211 188.02 98.3194 188.02Z" fill="#A678FF"/>
<path d="M78.2286 172.706H71.7717C52.3865 172.706 37.1391 156.142 38.7409 136.823L39.7507 124.643C41.1755 107.458 55.5383 94.2369 72.7816 94.2369H77.2186C94.4619 94.2369 108.825 107.458 110.25 124.643L111.259 136.823C112.861 156.142 97.6138 172.706 78.2286 172.706Z" fill="#A678FF"/>
<path d="M88.5529 136.378H61.4473C59.8092 136.378 58.4812 137.706 58.4812 139.344V155.224C58.4812 156.862 59.8092 158.19 61.4473 158.19H88.5529C90.191 158.19 91.519 156.862 91.519 155.224V139.344C91.519 137.706 90.191 136.378 88.5529 136.378Z" fill="#8E67EF"/>
<path d="M126.198 83.4515C126.198 111.727 103.276 127.562 75.0001 127.562C46.7243 127.562 23.8022 111.727 23.8022 83.4515C23.8022 55.1757 46.7243 32.2537 75.0001 32.2537C103.276 32.2537 126.198 55.1757 126.198 83.4515Z" fill="#A678FF"/>
<path d="M20.7086 69.6847H34.9021V101.787C34.9021 105.704 31.7221 108.884 27.8053 108.884C23.8885 108.884 20.7085 105.704 20.7085 101.787L20.7086 69.6847Z" fill="#FFC200"/>
<path d="M115.098 69.6847H129.292V101.787C129.292 105.704 126.112 108.884 122.195 108.884C118.278 108.884 115.098 105.704 115.098 101.787L115.098 69.6847Z" fill="#FFC200"/>
<path d="M28.9088 36.8304L37.7596 27.9796C39.0574 26.6819 41.1647 26.6819 42.4625 27.9796L45.139 30.6562L31.5853 44.2098L28.9088 41.5333C27.611 40.2355 27.6111 38.1282 28.9088 36.8304Z" fill="#FFC200"/>
<path d="M118.415 44.21L104.861 30.6562L107.537 27.9797C108.835 26.682 110.942 26.682 112.24 27.9797L121.091 36.8306C122.389 38.1283 122.389 40.2357 121.091 41.5334L118.415 44.21Z" fill="#FFC200"/>
<path d="M129.962 71.39C128.197 42.5332 104.301 19.6578 75.0002 19.6578C45.6993 19.6578 21.8032 42.5333 20.0378 71.39H129.962Z" fill="#FFDC00"/>
<path d="M84.8816 67.8614L99.9846 25.9119C92.4593 22.0458 84.0498 19.6578 75.0003 19.6578C65.9508 19.6578 57.5408 22.0458 50.0149 25.9119L65.1162 67.8562L66.8438 70.8492H83.1569L84.8816 67.8614Z" fill="#FFD400"/>
<path d="M67.6599 11.9803H82.3401C84.6449 11.9803 86.5162 13.8515 86.5162 16.1564V68.2988H63.4839V16.1564C63.4839 13.8516 65.355 11.9803 67.6599 11.9803Z" fill="#FFC200"/>
<path d="M26.5626 58.3411H123.438C131.251 58.3411 137.594 64.6846 137.594 72.498C137.594 73.1023 137.104 73.5929 136.5 73.5929H13.5007C12.8964 73.5929 12.4058 73.1023 12.4058 72.498C12.4058 64.6846 18.7492 58.3411 26.5626 58.3411Z" fill="#FFAA00"/>
<path d="M101.351 65.2874H48.6494C44.1785 65.2874 40.5542 68.9117 40.5542 73.3825V91.6381C40.5542 96.109 44.1785 99.7333 48.6494 99.7333H101.351C105.822 99.7333 109.446 96.109 109.446 91.6381V73.3825C109.446 68.9117 105.822 65.2874 101.351 65.2874Z" fill="#F1F1FF"/>
<path d="M101.351 101.994H48.6492C42.9392 101.994 38.2937 97.3484 38.2937 91.6384V73.3825C38.2937 67.6725 42.9392 63.027 48.6492 63.027H101.351C107.062 63.027 111.707 67.6725 111.707 73.3825V91.6384C111.707 97.3484 107.062 101.994 101.351 101.994ZM48.6491 67.5486C45.4323 67.5486 42.8151 70.1658 42.8151 73.3826V91.6385C42.8151 94.8553 45.4323 97.4725 48.6491 97.4725H101.351C104.568 97.4725 107.186 94.8553 107.186 91.6385V73.3826C107.186 70.1658 104.568 67.5486 101.351 67.5486H48.6491Z" fill="white"/>
<path d="M40.4259 93.8722L36.6735 93.0293C34.6531 92.5755 33.2173 90.7815 33.2173 88.7107V77.192C33.2173 75.1212 34.653 73.3272 36.6735 72.8734L40.4259 72.0305V93.8722Z" fill="white"/>
<path d="M109.574 72.0304L113.327 72.8733C115.347 73.3271 116.783 75.1211 116.783 77.1919V88.7106C116.783 90.7814 115.347 92.5754 113.327 93.0292L109.574 93.8721V72.0304Z" fill="white"/>
<path d="M59.6221 92.5495C65.1665 92.5495 69.6612 88.0549 69.6612 82.5104C69.6612 76.966 65.1665 72.4713 59.6221 72.4713C54.0776 72.4713 49.583 76.966 49.583 82.5104C49.583 88.0549 54.0776 92.5495 59.6221 92.5495Z" fill="white"/>
<path d="M59.6222 89.053C63.2356 89.053 66.1648 86.1237 66.1648 82.5104C66.1648 78.897 63.2356 75.9678 59.6222 75.9678C56.0088 75.9678 53.0796 78.897 53.0796 82.5104C53.0796 86.1237 56.0088 89.053 59.6222 89.053Z" fill="black"/>
<path opacity="0.13" d="M59.6223 82.3244C61.1054 82.3244 62.3077 81.3828 62.3077 80.2213C62.3077 79.0597 61.1054 78.1182 59.6223 78.1182C58.1391 78.1182 56.9368 79.0597 56.9368 80.2213C56.9368 81.3828 58.1391 82.3244 59.6223 82.3244Z" fill="white"/>
<path d="M90.3782 92.5495C95.9227 92.5495 100.417 88.0549 100.417 82.5104C100.417 76.966 95.9227 72.4713 90.3782 72.4713C84.8338 72.4713 80.3391 76.966 80.3391 82.5104C80.3391 88.0549 84.8338 92.5495 90.3782 92.5495Z" fill="white"/>
<path d="M90.3783 89.053C93.9917 89.053 96.9209 86.1237 96.9209 82.5104C96.9209 78.897 93.9917 75.9678 90.3783 75.9678C86.7649 75.9678 83.8357 78.897 83.8357 82.5104C83.8357 86.1237 86.7649 89.053 90.3783 89.053Z" fill="black"/>
<path opacity="0.13" d="M90.3784 82.3244C91.8615 82.3244 93.0638 81.3828 93.0638 80.2213C93.0638 79.0597 91.8615 78.1182 90.3784 78.1182C88.8952 78.1182 87.6929 79.0597 87.6929 80.2213C87.6929 81.3828 88.8952 82.3244 90.3784 82.3244Z" fill="white"/>
</svg>
