<svg width="150" height="200" viewBox="0 0 150 200" fill="none" xmlns="http://www.w3.org/2000/svg">
<g clip-path="url(#clip0_6073_27946)">
<path d="M138.465 63.003C135.318 56.5665 127.517 53.8926 121.076 57.0352C120.923 57.1104 120.767 57.1836 120.611 57.2549L117.53 50.999C115.587 47.0517 111.645 44.5996 107.245 44.5996H106.369L89.8991 11.3164C87.0563 5.5693 81.3073 2 74.8962 2C68.4851 2 62.736 5.5693 59.8933 11.3154L43.4236 44.5996H42.5476C38.1472 44.5996 34.2058 47.0517 32.2624 50.999L29.1813 57.2549C29.026 57.1836 28.8717 57.1113 28.7194 57.0361C25.6003 55.5097 22.071 55.289 18.7878 56.417C15.5026 57.5449 12.8532 59.8838 11.3288 63.0029C9.80242 66.122 9.58372 69.6494 10.7106 72.9336C11.8375 76.2178 14.1764 78.8672 17.2956 80.3926C18.1257 80.7979 18.9704 81.1797 19.8278 81.5371C16.7741 84.8682 14.9665 89.2842 14.9665 93.9853C14.9665 100.477 18.4138 106.425 23.8278 109.722V132.053C22.7018 134.342 21.7301 136.737 20.9225 139.213C18.0856 139.944 15.983 142.524 15.983 145.587V151.457C15.983 153.314 16.7564 154.994 17.9976 156.192C17.9654 157.115 17.9517 158.04 17.9556 158.964C17.9917 166.701 24.315 172.996 32.1206 172.996C32.1421 172.996 32.1636 172.996 32.1851 172.995C31.9927 179.249 31.9234 184.37 31.9898 187.78C32.0425 190.504 34.2652 192.684 36.9888 192.684H43.813C46.5493 197.067 51.3735 199.826 56.7349 199.826C62.0963 199.826 66.9204 197.067 69.6558 192.684H80.1363C82.8717 197.067 87.6949 199.826 93.0572 199.826C98.4195 199.826 103.243 197.067 105.978 192.684H112.803C115.527 192.684 117.75 190.504 117.802 187.78C117.869 184.37 117.798 179.184 117.603 172.855C124.407 171.888 129.68 166.026 129.714 158.967C129.716 158.496 129.714 158.025 129.707 157.554C132.111 156.572 133.809 154.209 133.809 151.457V145.587C133.809 141.958 130.857 139.006 127.228 139.006H126.682C126.192 137.52 125.644 136.066 125.043 134.657V109.377C130.178 106.016 133.349 100.284 133.349 93.9853C133.349 89.4638 131.715 85.2353 128.895 81.9658C130.124 81.4902 131.325 80.9658 132.497 80.3926C135.616 78.8672 137.955 76.2178 139.082 72.9336C140.209 69.6494 139.99 66.1222 138.465 63.003Z" fill="white"/>
<path d="M56.7347 194.826C51.0763 194.826 46.4892 190.239 46.4892 184.58V182.07H66.9802V184.58C66.9802 190.239 62.3932 194.826 56.7347 194.826Z" fill="#42373B"/>
<path d="M93.0574 194.826C87.399 194.826 82.8119 190.239 82.8119 184.58V182.07H103.303V184.58C103.303 190.239 98.7159 194.826 93.0574 194.826Z" fill="#42373B"/>
<path d="M120.044 75.3132H28.828V140.403H120.044V75.3132Z" fill="#B5AEB6"/>
<path d="M106.52 158.855C106.496 163.879 110.55 167.971 115.574 167.996H115.618C120.622 167.995 124.69 163.951 124.715 158.941C124.734 154.954 124.394 151.26 123.779 147.842H105.145C106.008 150.982 106.54 154.625 106.52 158.855Z" fill="#FED8C3"/>
<path d="M32.0519 167.996H32.0958C37.1202 167.971 41.1739 163.879 41.1505 158.855C41.1305 154.625 41.6622 150.982 42.5257 147.842H23.8914C23.2765 151.26 22.9364 154.954 22.9552 158.941C22.9786 163.951 27.047 167.996 32.0519 167.996Z" fill="#FED8C3"/>
<path d="M92.0392 130.535C93.431 131.205 101.807 135.705 105.145 147.842H123.779C119.373 123.351 100.645 113.142 95.3653 112.762C90.3653 112.403 85.9981 116.172 85.6378 121.183C85.3272 125.495 88.0753 129.32 92.0392 130.535Z" fill="#42373B"/>
<path d="M42.5257 147.842C45.8639 135.705 54.2401 131.205 55.6319 130.535C59.5958 129.32 62.3429 125.495 62.0323 121.183C61.672 116.171 57.2989 112.4 52.3048 112.762C47.0252 113.142 28.2975 123.351 23.8914 147.842H42.5257Z" fill="#42373B"/>
<path d="M127.228 144.006H110.583C109.71 144.006 109.002 144.714 109.002 145.587V151.458C109.002 152.331 109.71 153.038 110.583 153.038H127.228C128.101 153.038 128.809 152.331 128.809 151.458V145.587C128.809 144.714 128.101 144.006 127.228 144.006Z" fill="#846D75"/>
<path d="M39.2091 144.006H22.564C21.691 144.006 20.9833 144.714 20.9833 145.587V151.458C20.9833 152.331 21.691 153.038 22.564 153.038H39.2091C40.0821 153.038 40.7898 152.331 40.7898 151.458V145.587C40.7898 144.714 40.0821 144.006 39.2091 144.006Z" fill="#846D75"/>
<path d="M77.1148 101.133H72.6778C56.3346 101.133 42.5873 113.012 39.9825 128.883C38.7518 134.706 36.7227 173.914 36.9884 187.683H112.804C113.069 173.921 111.042 134.717 109.811 128.892C107.21 113.017 93.4608 101.133 77.1148 101.133Z" fill="#524348"/>
<path d="M97.5965 129.164L92.216 132.839C86.8907 136.477 79.6246 135.109 75.9867 129.784L91.0096 119.521L97.5965 129.164Z" fill="#846D75"/>
<path d="M53.7554 129.164L59.1359 132.839C64.4612 136.477 71.7273 135.109 75.3652 129.784L60.3424 119.521L53.7554 129.164Z" fill="#846D75"/>
<path d="M114.93 83.0121C114.93 81.6352 116.176 80.5519 117.527 80.8169C123.696 82.0265 128.35 87.4623 128.35 93.9851C128.35 100.508 123.696 105.944 117.527 107.153C116.176 107.418 114.93 106.335 114.93 104.958V83.0121Z" fill="#FED8C3"/>
<path d="M33.3858 83.0121C33.3858 81.6352 32.1399 80.5519 30.7887 80.8169C24.6203 82.0265 19.9665 87.4623 19.9665 93.9851C19.9665 100.508 24.6203 105.944 30.7887 107.153C32.1399 107.418 33.3858 106.335 33.3858 104.958V83.0121Z" fill="#FED8C3"/>
<path d="M29.3285 82.6554C28.946 85.0474 28.7406 87.4985 28.7406 89.9982C28.7406 115.489 49.4052 129.764 74.8964 129.764C100.388 129.764 121.052 115.489 121.052 89.9982C121.052 87.4985 120.847 85.0474 120.464 82.6554H29.3285Z" fill="#FED8C3"/>
<path d="M39.6125 78.2798H28.828V118.591H39.6125V78.2798Z" fill="#B5AEB6"/>
<path d="M120.044 78.2798H109.259V118.591H120.044V78.2798Z" fill="#B5AEB6"/>
<path d="M36.0737 89.3127C36.0737 89.3127 63.0414 91.6605 75.6866 80.7965H36.0737V89.3127Z" fill="#B5AEB6"/>
<path d="M113.719 89.3127C113.719 89.3127 86.7511 91.6605 74.1059 80.7965H113.719V89.3127Z" fill="#B5AEB6"/>
<path d="M70.7728 109.992C72.8723 112.645 76.8959 112.647 78.9983 109.997L79.002 109.992L79.0198 110.015" stroke="#232323" stroke-width="3.6881" stroke-linecap="round" stroke-linejoin="round"/>
<path d="M103.485 114.554H95.5365C93.6368 114.554 92.0969 113.014 92.0969 111.115C92.0969 109.215 93.6368 107.675 95.5365 107.675H103.485C105.385 107.675 106.925 109.215 106.925 111.115C106.925 113.014 105.385 114.554 103.485 114.554Z" fill="#FFC4A6"/>
<path d="M54.2561 114.554H46.3074C44.4078 114.554 42.8678 113.014 42.8678 111.115C42.8678 109.215 44.4078 107.675 46.3074 107.675H54.2561C56.1557 107.675 57.6957 109.215 57.6957 111.115C57.6957 113.014 56.1557 114.554 54.2561 114.554Z" fill="#FFC4A6"/>
<path d="M57.5897 111.172C63.1341 111.172 67.6288 106.677 67.6288 101.132C67.6288 95.5881 63.1341 91.0934 57.5897 91.0934C52.0453 91.0934 47.5506 95.5881 47.5506 101.132C47.5506 106.677 52.0453 111.172 57.5897 111.172Z" fill="white"/>
<path d="M64.1323 101.133C64.1323 104.746 61.2031 107.675 57.5897 107.675C53.9763 107.675 51.0472 104.746 51.0472 101.133C51.0472 97.5191 53.9764 94.5899 57.5897 94.5899C61.203 94.5899 64.1323 97.5192 64.1323 101.133Z" fill="black"/>
<path opacity="0.13" d="M60.2753 98.8434C60.2753 100.005 59.0729 100.947 57.5897 100.947C56.1065 100.947 54.9042 100.005 54.9042 98.8434C54.9042 97.6819 56.1066 96.7403 57.5897 96.7403C59.0728 96.7403 60.2753 97.6819 60.2753 98.8434Z" fill="white"/>
<path d="M92.2028 111.172C97.7472 111.172 102.242 106.677 102.242 101.132C102.242 95.5881 97.7472 91.0934 92.2028 91.0934C86.6584 91.0934 82.1637 95.5881 82.1637 101.132C82.1637 106.677 86.6584 111.172 92.2028 111.172Z" fill="white"/>
<path d="M98.7453 101.133C98.7453 104.746 95.8161 107.675 92.2028 107.675C88.5895 107.675 85.6602 104.746 85.6602 101.133C85.6602 97.5191 88.5894 94.5899 92.2028 94.5899C95.8162 94.5899 98.7453 97.5192 98.7453 101.133Z" fill="black"/>
<path opacity="0.13" d="M94.8883 98.8434C94.8883 100.005 93.6859 100.947 92.2028 100.947C90.7197 100.947 89.5172 100.005 89.5172 98.8434C89.5172 97.6819 90.7196 96.7403 92.2028 96.7403C93.686 96.7403 94.8883 97.6819 94.8883 98.8434Z" fill="white"/>
<path d="M114.205 71.7101H35.5879L64.3745 13.5335C66.3543 9.5324 70.4321 7.0004 74.8963 7.0004C79.3604 7.0004 83.4382 9.5324 85.418 13.5335L114.205 71.7101Z" fill="#50434A"/>
<path d="M119.272 65.8541H30.5201L36.7477 53.2082C37.8358 50.9986 40.0848 49.5992 42.5478 49.5992H107.245C109.708 49.5992 111.957 50.9986 113.045 53.2082L119.272 65.8541Z" fill="#845394"/>
<path d="M81.1583 49.4936H68.6342C65.4516 49.4936 62.8716 52.0736 62.8716 55.2562V62.1116C62.8716 65.2942 65.4516 67.8742 68.6342 67.8742H81.1583C84.3409 67.8742 86.9209 65.2942 86.9209 62.1116V55.2562C86.9209 52.0736 84.3409 49.4936 81.1583 49.4936Z" fill="#805293" stroke="#F3B11F" stroke-width="3.4284" stroke-miterlimit="10"/>
<path d="M126.786 68.714C122.075 71.0179 116.9 72.2156 111.657 72.2156H38.1359C32.8921 72.2156 27.7175 71.0179 23.007 68.7141" stroke="#50434A" stroke-width="16" stroke-miterlimit="10" stroke-linecap="round"/>
<path d="M75.676 152.135C78.384 152.135 80.5792 149.94 80.5792 147.232C80.5792 144.524 78.384 142.328 75.676 142.328C72.968 142.328 70.7728 144.524 70.7728 147.232C70.7728 149.94 72.968 152.135 75.676 152.135Z" fill="#846D75"/>
<path d="M75.676 170.877C78.384 170.877 80.5792 168.682 80.5792 165.974C80.5792 163.266 78.384 161.07 75.676 161.07C72.968 161.07 70.7728 163.266 70.7728 165.974C70.7728 168.682 72.968 170.877 75.676 170.877Z" fill="#846D75"/>
</g>
<defs>
<clipPath id="clip0_6073_27946">
<rect width="129.792" height="197.826" fill="white" transform="translate(10 2)"/>
</clipPath>
</defs>
</svg>
