<svg width="1920" height="201" viewBox="0 0 1920 201" fill="none" xmlns="http://www.w3.org/2000/svg">
<g clip-path="url(#clip0_5487_2199)">
<path opacity="0.3" d="M128.527 175.712C127.594 171.901 127.042 167.938 127.042 163.838C127.042 146.117 136.356 130.604 150.324 121.816C148.59 116.226 147.657 110.286 147.657 104.129C147.657 71.1527 174.392 44.4206 207.369 44.4206C220.186 44.4206 232.049 48.4732 241.776 55.3484C249.606 48.5579 259.789 44.4206 270.963 44.4206C293.513 44.4206 312.108 61.174 315.098 82.902C319.98 85.1099 324.284 88.3646 327.714 92.3987C337.096 84.487 349.198 79.703 362.434 79.703C386.659 79.703 407.147 95.6773 413.948 117.668C414.743 117.618 415.538 117.546 416.349 117.546C422.159 117.546 427.645 118.879 432.58 121.198C438.3 117.411 445.149 115.192 452.517 115.192C464.672 115.192 475.401 121.206 481.958 130.4C491.012 101.039 518.359 79.703 550.694 79.703C565.102 79.703 578.507 83.9543 589.756 91.2509C605.541 52.6371 643.458 25.4224 687.753 25.4224C744.095 25.4224 790.138 69.4513 793.398 124.978C816.208 134.599 834.427 152.897 844.037 175.712H128.527Z" fill="white"/>
<path opacity="0.3" d="M1805.47 182.831C1818.24 176.238 1826.97 162.936 1826.97 147.575C1826.97 125.666 1809.21 107.9 1787.3 107.9C1786.09 107.9 1784.9 107.975 1783.71 108.084C1773.48 74.8136 1742.5 50.6209 1705.87 50.6209C1674.81 50.6209 1647.82 68.0253 1634.09 93.6065C1629.2 87.0592 1622.01 82.3249 1613.69 80.6667C1604.74 69.5228 1591.03 62.3729 1575.62 62.3729C1573.75 62.3729 1571.92 62.4993 1570.11 62.7058C1563.07 43.6605 1544.8 30.055 1523.3 30.055C1495.72 30.055 1473.36 52.4172 1473.36 80.0009C1473.36 90.0774 1476.36 99.4367 1481.49 107.281C1478.84 106.873 1476.13 106.598 1473.36 106.598C1460.44 106.598 1448.6 111.183 1439.36 118.809C1428.89 109.731 1415.89 103.511 1401.54 101.387C1401.6 100.142 1401.64 98.8914 1401.64 97.6289C1401.64 53.8172 1366.13 18.303 1322.31 18.303C1284.88 18.303 1253.52 44.2402 1245.18 79.123C1233.29 68.7023 1217.73 62.3729 1200.67 62.3729C1165 62.3729 1135.81 90.0142 1133.3 125.041C1119.35 109.995 1099.42 100.567 1077.28 100.567C1069.92 100.567 1062.81 101.629 1056.07 103.574C1051.03 62.1494 1015.76 30.055 972.979 30.055C926.734 30.055 889.246 67.5432 889.246 113.788C889.246 117.093 889.459 120.347 889.831 123.549C869.053 130.148 853.99 149.583 853.99 172.548C853.99 176.071 854.349 179.509 855.023 182.831H1805.47Z" fill="white"/>
<path d="M984.677 200.567C983.105 184.172 969.7 171.257 953.099 170.386C951.34 166.471 949.054 162.85 946.316 159.614C938.34 143.311 921.64 132.053 902.269 132.053C892.658 132.053 883.719 134.859 876.15 139.639C862.763 124.727 843.344 115.342 821.728 115.342C800.208 115.342 780.861 124.642 767.479 139.43C755.415 124.727 737.108 115.342 716.607 115.342C698.243 115.342 681.645 122.877 669.714 135.012C659.356 122.984 644.053 115.342 626.94 115.342C618.412 115.342 610.359 117.288 603.107 120.671C599.26 84.3007 568.496 55.9639 531.108 55.9639C494.105 55.9639 463.604 83.7292 459.251 119.562C453.67 116.886 447.441 115.342 440.839 115.342C418.032 115.342 399.454 133.23 398.235 155.734C395.189 154.919 392.007 154.444 388.703 154.444C379.991 154.444 371.997 157.482 365.681 162.528C355.082 150.846 339.828 143.458 322.808 143.458C314.17 143.458 306.004 145.404 298.641 148.792C287.96 115.127 256.463 90.7216 219.259 90.7216C188.66 90.7216 161.932 107.24 147.458 131.832C137.018 121.644 122.762 115.342 107.021 115.342C95.3244 115.342 84.4597 118.838 75.3547 124.8C67.3074 97.5668 42.1243 77.6874 12.2857 77.6874C-3.40163 77.6874 -17.7965 83.1919 -29.0994 92.3563C-41.9612 70.5821 -65.6564 55.9639 -92.777 55.9639C-133.602 55.9639 -166.696 89.0584 -166.696 129.886C-166.696 130.803 -166.66 131.713 -166.626 132.624C-189.348 139.945 -205.799 161.238 -205.799 186.396C-205.799 191.3 -205.109 196.03 -203.935 200.567H984.677Z" fill="white"/>
<path d="M935.324 200.567C936.897 184.172 950.302 171.257 966.903 170.386C968.662 166.471 970.948 162.85 973.686 159.614C981.662 143.311 998.362 132.053 1017.73 132.053C1027.34 132.053 1036.28 134.859 1043.85 139.639C1057.24 124.727 1076.66 115.342 1098.27 115.342C1119.79 115.342 1139.14 124.642 1152.52 139.43C1164.59 124.727 1182.89 115.342 1203.4 115.342C1221.76 115.342 1238.36 122.877 1250.29 135.012C1260.65 122.984 1275.95 115.342 1293.06 115.342C1301.59 115.342 1309.64 117.288 1316.9 120.671C1320.74 84.3007 1351.51 55.9639 1388.89 55.9639C1425.9 55.9639 1456.4 83.7292 1460.75 119.562C1466.33 116.886 1472.56 115.342 1479.16 115.342C1501.97 115.342 1520.55 133.23 1521.77 155.734C1524.81 154.919 1528 154.444 1531.3 154.444C1540.01 154.444 1548 157.482 1554.32 162.528C1564.92 150.846 1580.17 143.458 1597.19 143.458C1605.83 143.458 1614 145.404 1621.36 148.792C1632.04 115.127 1663.54 90.7216 1700.74 90.7216C1731.34 90.7216 1758.07 107.24 1772.54 131.832C1782.98 121.644 1797.24 115.342 1812.98 115.342C1824.68 115.342 1835.54 118.838 1844.65 124.8C1852.69 97.5668 1877.88 77.6874 1907.72 77.6874C1923.4 77.6874 1937.8 83.1919 1949.1 92.3563C1961.96 70.5821 1985.66 55.9639 2012.78 55.9639C2053.6 55.9639 2086.7 89.0584 2086.7 129.886C2086.7 130.803 2086.66 131.713 2086.63 132.624C2109.35 139.945 2125.8 161.238 2125.8 186.396C2125.8 191.3 2125.11 196.03 2123.94 200.567H935.324Z" fill="white"/>
</g>
<defs>
<clipPath id="clip0_5487_2199">
<rect width="1920" height="200" fill="white" transform="translate(0 0.566895)"/>
</clipPath>
</defs>
</svg>
