<svg width="1920" height="200" viewBox="0 0 1920 200" fill="none" xmlns="http://www.w3.org/2000/svg">
<g clip-path="url(#clip0_5487_2250)">
<path opacity="0.5" d="M128.527 175.145C127.594 171.334 127.042 167.371 127.042 163.271C127.042 145.55 136.356 130.038 150.324 121.249C148.59 115.659 147.657 109.719 147.657 103.562C147.657 70.5858 174.392 43.8537 207.369 43.8537C220.186 43.8537 232.049 47.9063 241.776 54.7815C249.606 47.991 259.789 43.8537 270.963 43.8537C293.513 43.8537 312.108 60.6071 315.098 82.3351C319.98 84.543 324.284 87.7977 327.714 91.8318C337.096 83.9201 349.198 79.1361 362.434 79.1361C386.659 79.1361 407.147 95.1104 413.948 117.101C414.743 117.051 415.538 116.979 416.349 116.979C422.159 116.979 427.645 118.312 432.58 120.631C438.3 116.844 445.149 114.625 452.517 114.625C464.672 114.625 475.401 120.639 481.958 129.833C491.012 100.472 518.359 79.1361 550.694 79.1361C565.102 79.1361 578.507 83.3874 589.756 90.6841C605.541 52.0702 643.458 24.8555 687.753 24.8555C744.095 24.8555 790.138 68.8844 793.398 124.411C816.208 134.032 834.427 152.33 844.037 175.145H128.527Z" fill="#F2F3F5"/>
<path opacity="0.5" d="M1805.47 182.264C1818.24 175.671 1826.97 162.369 1826.97 147.008C1826.97 125.099 1809.21 107.334 1787.3 107.334C1786.09 107.334 1784.9 107.408 1783.71 107.517C1773.48 74.2467 1742.5 50.0541 1705.87 50.0541C1674.81 50.0541 1647.82 67.4585 1634.09 93.0396C1629.2 86.4923 1622.01 81.758 1613.69 80.0998C1604.74 68.956 1591.03 61.806 1575.62 61.806C1573.75 61.806 1571.92 61.9324 1570.11 62.1389C1563.07 43.0936 1544.8 29.4881 1523.3 29.4881C1495.72 29.4881 1473.36 51.8503 1473.36 79.434C1473.36 89.5105 1476.36 98.8698 1481.49 106.714C1478.84 106.306 1476.13 106.031 1473.36 106.031C1460.44 106.031 1448.6 110.616 1439.36 118.242C1428.89 109.164 1415.89 102.944 1401.54 100.821C1401.6 99.5755 1401.64 98.3245 1401.64 97.062C1401.64 53.2503 1366.13 17.7361 1322.31 17.7361C1284.88 17.7361 1253.52 43.6733 1245.18 78.5562C1233.29 68.1354 1217.73 61.806 1200.67 61.806C1165 61.806 1135.81 89.4473 1133.3 124.474C1119.35 109.428 1099.42 100 1077.28 100C1069.92 100 1062.81 101.062 1056.07 103.007C1051.03 61.5825 1015.76 29.4881 972.979 29.4881C926.734 29.4881 889.246 66.9763 889.246 113.221C889.246 116.526 889.459 119.78 889.831 122.982C869.053 129.581 853.99 149.016 853.99 171.981C853.99 175.504 854.349 178.942 855.023 182.264H1805.47Z" fill="#F2F3F5"/>
<path d="M984.677 200C983.105 183.605 969.7 170.69 953.099 169.819C951.34 165.904 949.054 162.284 946.316 159.048C938.34 142.744 921.64 131.486 902.269 131.486C892.658 131.486 883.719 134.292 876.15 139.072C862.763 124.16 843.344 114.775 821.728 114.775C800.208 114.775 780.861 124.075 767.479 138.863C755.415 124.16 737.108 114.775 716.607 114.775C698.243 114.775 681.645 122.31 669.714 134.445C659.356 122.417 644.053 114.775 626.94 114.775C618.412 114.775 610.359 116.721 603.107 120.104C599.26 83.7338 568.496 55.397 531.108 55.397C494.105 55.397 463.604 83.1623 459.251 118.995C453.67 116.319 447.441 114.775 440.839 114.775C418.032 114.775 399.454 132.663 398.235 155.167C395.189 154.352 392.007 153.877 388.703 153.877C379.991 153.877 371.997 156.915 365.681 161.961C355.082 150.279 339.828 142.891 322.808 142.891C314.17 142.891 306.004 144.837 298.641 148.225C287.96 114.56 256.463 90.1547 219.259 90.1547C188.66 90.1547 161.932 106.674 147.458 131.265C137.018 121.077 122.762 114.775 107.021 114.775C95.3244 114.775 84.4597 118.271 75.3547 124.233C67.3074 96.9999 42.1243 77.1205 12.2857 77.1205C-3.40163 77.1205 -17.7965 82.625 -29.0994 91.7894C-41.9612 70.0152 -65.6564 55.397 -92.777 55.397C-133.602 55.397 -166.696 88.4915 -166.696 129.319C-166.696 130.236 -166.66 131.146 -166.626 132.057C-189.348 139.378 -205.799 160.671 -205.799 185.829C-205.799 190.734 -205.109 195.463 -203.935 200H984.677Z" fill="#F2F3F5"/>
<path d="M935.324 200C936.897 183.605 950.302 170.69 966.903 169.819C968.662 165.904 970.948 162.284 973.686 159.048C981.662 142.744 998.362 131.486 1017.73 131.486C1027.34 131.486 1036.28 134.292 1043.85 139.072C1057.24 124.16 1076.66 114.775 1098.27 114.775C1119.79 114.775 1139.14 124.075 1152.52 138.863C1164.59 124.16 1182.89 114.775 1203.4 114.775C1221.76 114.775 1238.36 122.31 1250.29 134.445C1260.65 122.417 1275.95 114.775 1293.06 114.775C1301.59 114.775 1309.64 116.721 1316.9 120.104C1320.74 83.7338 1351.51 55.397 1388.89 55.397C1425.9 55.397 1456.4 83.1623 1460.75 118.995C1466.33 116.319 1472.56 114.775 1479.16 114.775C1501.97 114.775 1520.55 132.663 1521.77 155.167C1524.81 154.352 1528 153.877 1531.3 153.877C1540.01 153.877 1548 156.915 1554.32 161.961C1564.92 150.279 1580.17 142.891 1597.19 142.891C1605.83 142.891 1614 144.837 1621.36 148.225C1632.04 114.56 1663.54 90.1547 1700.74 90.1547C1731.34 90.1547 1758.07 106.674 1772.54 131.265C1782.98 121.077 1797.24 114.775 1812.98 114.775C1824.68 114.775 1835.54 118.271 1844.65 124.233C1852.69 96.9999 1877.88 77.1205 1907.72 77.1205C1923.4 77.1205 1937.8 82.625 1949.1 91.7894C1961.96 70.0152 1985.66 55.397 2012.78 55.397C2053.6 55.397 2086.7 88.4915 2086.7 129.319C2086.7 130.236 2086.66 131.146 2086.63 132.057C2109.35 139.378 2125.8 160.671 2125.8 185.829C2125.8 190.734 2125.11 195.463 2123.94 200H935.324Z" fill="#F2F3F5"/>
</g>
<defs>
<clipPath id="clip0_5487_2250">
<rect width="1920" height="200" fill="white"/>
</clipPath>
</defs>
</svg>
