<svg width="900" height="601" viewBox="0 0 900 601" fill="none" xmlns="http://www.w3.org/2000/svg">
<g opacity="0.7" filter="url(#filter0_d_4081_4719)">
<path d="M76.6367 46.8862C78.1195 46.8862 79.3217 45.6841 79.3217 44.2012C79.3217 42.7184 78.1195 41.5162 76.6367 41.5162C75.1538 41.5162 73.9517 42.7184 73.9517 44.2012C73.9517 45.6841 75.1538 46.8862 76.6367 46.8862Z" fill="white"/>
<path d="M164.832 422.311C166.315 422.311 167.517 421.109 167.517 419.626C167.517 418.143 166.315 416.941 164.832 416.941C163.349 416.941 162.147 418.143 162.147 419.626C162.147 421.109 163.349 422.311 164.832 422.311Z" fill="white"/>
<path d="M200.901 519.284C200.901 520.767 199.699 521.969 198.216 521.969C196.733 521.969 195.531 520.767 195.531 519.284C195.531 517.802 196.733 516.599 198.216 516.599C199.699 516.599 200.901 517.802 200.901 519.284Z" fill="white"/>
<path d="M424.327 115.581C425.81 115.581 427.012 114.379 427.012 112.896C427.012 111.413 425.81 110.211 424.327 110.211C422.844 110.211 421.642 111.413 421.642 112.896C421.642 114.379 422.844 115.581 424.327 115.581Z" fill="white"/>
<path d="M788.718 304.642C788.718 306.124 787.516 307.327 786.033 307.327C784.55 307.327 783.348 306.124 783.348 304.642C783.348 303.159 784.55 301.957 786.033 301.957C787.516 301.957 788.718 303.159 788.718 304.642Z" fill="white"/>
<path d="M461.66 364.111C461.66 365.594 460.458 366.796 458.975 366.796C457.492 366.796 456.29 365.594 456.29 364.111C456.29 362.628 457.492 361.426 458.975 361.426C460.458 361.426 461.66 362.628 461.66 364.111Z" fill="white"/>
<path d="M61.2397 452.489C62.7226 452.489 63.9247 451.287 63.9247 449.804C63.9247 448.321 62.7226 447.119 61.2397 447.119C59.7568 447.119 58.5547 448.321 58.5547 449.804C58.5547 451.287 59.7568 452.489 61.2397 452.489Z" fill="white"/>
<path d="M104.053 215.233C105.536 215.233 106.738 214.03 106.738 212.548C106.738 211.065 105.536 209.863 104.053 209.863C102.57 209.863 101.368 211.065 101.368 212.548C101.368 214.03 102.57 215.233 104.053 215.233Z" fill="white"/>
<path d="M45.9812 250.859C46.4868 250.859 46.8966 250.449 46.8966 249.944C46.8966 249.438 46.4868 249.028 45.9812 249.028C45.4756 249.028 45.0658 249.438 45.0658 249.944C45.0658 250.449 45.4756 250.859 45.9812 250.859Z" fill="white"/>
<path d="M59.4699 140.823C59.4699 141.329 59.0602 141.739 58.5547 141.739C58.0492 141.739 57.6393 141.329 57.6393 140.823C57.6393 140.318 58.0492 139.908 58.5547 139.908C59.0602 139.908 59.4699 140.318 59.4699 140.823Z" fill="white"/>
<path d="M232.83 242.607C232.83 243.113 232.42 243.523 231.914 243.523C231.409 243.523 230.999 243.113 230.999 242.607C230.999 242.102 231.409 241.692 231.914 241.692C232.42 241.692 232.83 242.102 232.83 242.607Z" fill="white"/>
<path d="M184.422 24.3818C184.422 24.8873 184.012 25.2972 183.507 25.2972C183.001 25.2972 182.591 24.8873 182.591 24.3818C182.591 23.8763 183.001 23.4666 183.507 23.4666C184.012 23.4666 184.422 23.8763 184.422 24.3818Z" fill="white"/>
<path d="M337.687 141.739C337.687 142.244 337.277 142.654 336.772 142.654C336.266 142.654 335.857 142.244 335.857 141.739C335.857 141.233 336.266 140.823 336.772 140.823C337.277 140.823 337.687 141.233 337.687 141.739Z" fill="white"/>
<path d="M28.5905 510.38C28.5905 510.885 28.1806 511.295 27.6751 511.295C27.1696 511.295 26.7599 510.885 26.7599 510.38C26.7599 509.874 27.1696 509.464 27.6751 509.464C28.1806 509.464 28.5905 509.874 28.5905 510.38Z" fill="white"/>
<path d="M507.335 46.8863C507.335 47.3918 506.926 47.8017 506.42 47.8017C505.915 47.8017 505.505 47.3918 505.505 46.8863C505.505 46.3808 505.915 45.9711 506.42 45.9711C506.926 45.9711 507.335 46.3808 507.335 46.8863Z" fill="white"/>
<path d="M366.312 225.887C366.312 226.393 365.902 226.802 365.397 226.802C364.891 226.802 364.481 226.393 364.481 225.887C364.481 225.382 364.891 224.972 365.397 224.972C365.902 224.972 366.312 225.382 366.312 225.887Z" fill="white"/>
<path d="M690.264 200.97C690.264 201.476 689.854 201.886 689.348 201.886C688.843 201.886 688.433 201.476 688.433 200.97C688.433 200.465 688.843 200.055 689.348 200.055C689.854 200.055 690.264 200.465 690.264 200.97Z" fill="white"/>
<path d="M476.286 225.887C476.286 226.393 475.876 226.802 475.371 226.802C474.865 226.802 474.455 226.393 474.455 225.887C474.455 225.382 474.865 224.972 475.371 224.972C475.876 224.972 476.286 225.382 476.286 225.887Z" fill="white"/>
<path d="M789.633 224.972C789.633 225.477 789.223 225.887 788.718 225.887C788.212 225.887 787.803 225.477 787.803 224.972C787.803 224.466 788.212 224.056 788.718 224.056C789.223 224.056 789.633 224.466 789.633 224.972Z" fill="white"/>
<path d="M805.685 155.815C805.685 156.32 805.275 156.73 804.77 156.73C804.264 156.73 803.854 156.32 803.854 155.815C803.854 155.309 804.264 154.9 804.77 154.9C805.275 154.9 805.685 155.309 805.685 155.815Z" fill="white"/>
<path d="M321.582 419.626C321.582 420.131 321.172 420.541 320.666 420.541C320.161 420.541 319.751 420.131 319.751 419.626C319.751 419.12 320.161 418.711 320.666 418.711C321.172 418.711 321.582 419.12 321.582 419.626Z" fill="white"/>
<path d="M646.796 313.123C646.796 313.628 646.386 314.038 645.881 314.038C645.375 314.038 644.965 313.628 644.965 313.123C644.965 312.617 645.375 312.207 645.881 312.207C646.386 312.207 646.796 312.617 646.796 313.123Z" fill="white"/>
<path d="M515.078 465.826C515.078 466.331 514.669 466.741 514.163 466.741C513.658 466.741 513.248 466.331 513.248 465.826C513.248 465.32 513.658 464.91 514.163 464.91C514.669 464.91 515.078 465.32 515.078 465.826Z" fill="white"/>
<path d="M823.999 361.426C823.999 361.931 823.589 362.341 823.084 362.341C822.578 362.341 822.169 361.931 822.169 361.426C822.169 360.92 822.578 360.51 823.084 360.51C823.589 360.51 823.999 360.92 823.999 361.426Z" fill="white"/>
<path d="M599.823 416.941C599.823 417.446 599.413 417.856 598.908 417.856C598.402 417.856 597.993 417.446 597.993 416.941C597.993 416.435 598.402 416.026 598.908 416.026C599.413 416.026 599.823 416.435 599.823 416.941Z" fill="white"/>
<path d="M546.688 443.432C546.688 443.938 546.279 444.348 545.773 444.348C545.268 444.348 544.858 443.938 544.858 443.432C544.858 442.927 545.268 442.517 545.773 442.517C546.279 442.517 546.688 442.927 546.688 443.432Z" fill="white"/>
<path d="M684.75 431.442C684.75 431.948 684.34 432.357 683.835 432.357C683.329 432.357 682.919 431.948 682.919 431.442C682.919 430.937 683.329 430.527 683.835 430.527C684.34 430.527 684.75 430.937 684.75 431.442Z" fill="white"/>
<path d="M608.552 507.197C608.552 507.702 608.142 508.112 607.637 508.112C607.131 508.112 606.721 507.702 606.721 507.197C606.721 506.691 607.131 506.281 607.637 506.281C608.142 506.281 608.552 506.691 608.552 507.197Z" fill="white"/>
<path d="M665.845 557.008C665.845 557.514 665.435 557.924 664.93 557.924C664.424 557.924 664.015 557.514 664.015 557.008C664.015 556.503 664.424 556.093 664.93 556.093C665.435 556.093 665.845 556.503 665.845 557.008Z" fill="white"/>
<path d="M800.115 411.035C800.115 411.54 799.705 411.95 799.2 411.95C798.694 411.95 798.284 411.54 798.284 411.035C798.284 410.529 798.694 410.12 799.2 410.12C799.705 410.12 800.115 410.529 800.115 411.035Z" fill="white"/>
<path d="M876.965 485.554C876.965 486.06 876.555 486.47 876.05 486.47C875.544 486.47 875.134 486.06 875.134 485.554C875.134 485.049 875.544 484.639 876.05 484.639C876.555 484.639 876.965 485.049 876.965 485.554Z" fill="white"/>
<path d="M855.256 233.185C855.256 233.69 854.847 234.1 854.341 234.1C853.836 234.1 853.426 233.69 853.426 233.185C853.426 232.679 853.836 232.269 854.341 232.269C854.847 232.269 855.256 232.679 855.256 233.185Z" fill="white"/>
<path d="M853.187 41.5163C853.187 42.0218 852.777 42.4317 852.272 42.4317C851.766 42.4317 851.356 42.0218 851.356 41.5163C851.356 41.0108 851.766 40.6011 852.272 40.6011C852.777 40.6011 853.187 41.0108 853.187 41.5163Z" fill="white"/>
<path d="M522.185 131.058C522.185 131.563 521.775 131.973 521.27 131.973C520.764 131.973 520.355 131.563 520.355 131.058C520.355 130.552 520.764 130.143 521.27 130.143C521.775 130.143 522.185 130.552 522.185 131.058Z" fill="white"/>
<path d="M320.666 215.233C320.666 215.738 320.256 216.148 319.751 216.148C319.245 216.148 318.836 215.738 318.836 215.233C318.836 214.727 319.245 214.317 319.751 214.317C320.256 214.317 320.666 214.727 320.666 215.233Z" fill="white"/>
<path d="M690.263 259.628C690.263 260.134 689.854 260.544 689.348 260.544C688.843 260.544 688.433 260.134 688.433 259.628C688.433 259.123 688.843 258.713 689.348 258.713C689.854 258.713 690.263 259.123 690.263 259.628Z" fill="white"/>
<path d="M231.914 461.41C231.914 461.915 231.504 462.325 230.999 462.325C230.493 462.325 230.084 461.915 230.084 461.41C230.084 460.904 230.493 460.494 230.999 460.494C231.504 460.494 231.914 460.904 231.914 461.41Z" fill="white"/>
<path d="M246.995 533.568C246.995 534.074 246.585 534.484 246.079 534.484C245.574 534.484 245.164 534.074 245.164 533.568C245.164 533.063 245.574 532.653 246.079 532.653C246.585 532.653 246.995 533.063 246.995 533.568Z" fill="white"/>
<path d="M600.739 23.4665C600.739 23.972 600.329 24.3817 599.823 24.3817C599.318 24.3817 598.908 23.972 598.908 23.4665C598.908 22.961 599.318 22.5511 599.823 22.5511C600.329 22.5511 600.739 22.961 600.739 23.4665Z" fill="white"/>
<path d="M138.299 483.073C138.299 483.578 137.889 483.988 137.384 483.988C136.878 483.988 136.469 483.578 136.469 483.073C136.469 482.567 136.878 482.157 137.384 482.157C137.889 482.157 138.299 482.567 138.299 483.073Z" fill="white"/>
<path d="M301.745 467.408C301.745 467.914 301.335 468.323 300.829 468.323C300.324 468.323 299.914 467.914 299.914 467.408C299.914 466.903 300.324 466.493 300.829 466.493C301.335 466.493 301.745 466.903 301.745 467.408Z" fill="white"/>
<path d="M596.223 212.547C597.706 212.547 598.908 211.345 598.908 209.862C598.908 208.38 597.706 207.177 596.223 207.177C594.74 207.177 593.538 208.38 593.538 209.862C593.538 211.345 594.74 212.547 596.223 212.547Z" fill="white"/>
<path d="M286.512 52.2564C287.995 52.2564 289.197 51.0542 289.197 49.5714C289.197 48.0885 287.995 46.8864 286.512 46.8864C285.029 46.8864 283.827 48.0885 283.827 49.5714C283.827 51.0542 285.029 52.2564 286.512 52.2564Z" fill="white"/>
<path d="M749.259 522.268C750.742 522.268 751.944 521.066 751.944 519.583C751.944 518.1 750.742 516.898 749.259 516.898C747.776 516.898 746.574 518.1 746.574 519.583C746.574 521.066 747.776 522.268 749.259 522.268Z" fill="white"/>
<path d="M709.848 49.5714C711.331 49.5714 712.533 48.3692 712.533 46.8864C712.533 45.4035 711.331 44.2014 709.848 44.2014C708.366 44.2014 707.163 45.4035 707.163 46.8864C707.163 48.3692 708.366 49.5714 709.848 49.5714Z" fill="white"/>
<path d="M98.4636 280.171L98.0999 279.079L97.7364 280.171C96.9092 282.657 95.4499 284.884 93.5017 286.635C95.4498 288.386 96.9092 290.613 97.7364 293.098L98.0999 294.191L98.4636 293.098C99.2908 290.613 100.75 288.385 102.698 286.635C100.75 284.884 99.2908 282.657 98.4636 280.171Z" fill="white"/>
<path d="M688.796 477.525L688.433 476.432L688.069 477.525C687.242 480.01 685.783 482.237 683.835 483.988C685.783 485.739 687.242 487.966 688.069 490.452L688.433 491.544L688.796 490.452C689.623 487.966 691.083 485.739 693.031 483.988C691.083 482.237 689.623 480.01 688.796 477.525Z" fill="white"/>
<path d="M398.423 25.4744L398.06 24.3818L397.696 25.4744C396.869 27.9596 395.41 30.187 393.462 31.9377C395.41 33.6886 396.869 35.9159 397.696 38.4011L398.06 39.4936L398.423 38.4011C399.251 35.9159 400.71 33.6885 402.658 31.9377C400.71 30.187 399.251 27.9595 398.423 25.4744Z" fill="white"/>
<path d="M27.1234 381.951L26.7599 380.859L26.3962 381.951C25.569 384.436 24.1098 386.664 22.1617 388.415C24.1098 390.166 25.569 392.393 26.3962 394.878L26.7599 395.971L27.1234 394.878C27.9506 392.393 29.4099 390.165 31.3579 388.415C29.41 386.664 27.9506 384.436 27.1234 381.951Z" fill="white"/>
<path d="M773.373 25.4744L773.01 24.3818L772.646 25.4744C771.819 27.9596 770.36 30.187 768.412 31.9377C770.36 33.6886 771.819 35.9159 772.646 38.4011L773.01 39.4936L773.373 38.4011C774.201 35.9159 775.66 33.6885 777.608 31.9377C775.66 30.187 774.201 27.9595 773.373 25.4744Z" fill="white"/>
<path d="M870.9 375.444L870.536 374.352L870.172 375.444C869.345 377.929 867.886 380.157 865.938 381.908C867.886 383.658 869.345 385.886 870.172 388.371L870.536 389.463L870.9 388.371C871.727 385.886 873.186 383.658 875.134 381.908C873.186 380.157 871.727 377.929 870.9 375.444Z" fill="white"/>
<path d="M572.993 360.332L572.629 359.24L572.265 360.332C571.438 362.818 569.979 365.045 568.031 366.796C569.979 368.547 571.438 370.774 572.265 373.259L572.629 374.352L572.993 373.259C573.82 370.774 575.279 368.547 577.227 366.796C575.279 365.045 573.82 362.818 572.993 360.332Z" fill="white"/>
<path d="M503.476 170.924L503.112 169.831L502.749 170.924C501.921 173.409 500.462 175.636 498.514 177.387C500.462 179.138 501.921 181.366 502.749 183.851L503.112 184.943L503.476 183.851C504.303 181.366 505.762 179.138 507.71 177.387C505.762 175.637 504.303 173.409 503.476 170.924Z" fill="white"/>
</g>
<defs>
<filter id="filter0_d_4081_4719" x="7.72314" y="8.11255" width="883.68" height="564.25" filterUnits="userSpaceOnUse" color-interpolation-filters="sRGB">
<feFlood flood-opacity="0" result="BackgroundImageFix"/>
<feColorMatrix in="SourceAlpha" type="matrix" values="0 0 0 0 0 0 0 0 0 0 0 0 0 0 0 0 0 0 127 0" result="hardAlpha"/>
<feOffset/>
<feGaussianBlur stdDeviation="7.2193"/>
<feColorMatrix type="matrix" values="0 0 0 0 1 0 0 0 0 1 0 0 0 0 1 0 0 0 0.9 0"/>
<feBlend mode="normal" in2="BackgroundImageFix" result="effect1_dropShadow_4081_4719"/>
<feBlend mode="normal" in="SourceGraphic" in2="effect1_dropShadow_4081_4719" result="shape"/>
</filter>
</defs>
</svg>
