<svg width="1024" height="80" viewBox="0 0 1024 80" fill="none" xmlns="http://www.w3.org/2000/svg">
<g clip-path="url(#clip0_5225_18914)">
<path d="M505.283 79.9997C499.531 71.1976 489.597 65.3759 478.298 65.3759C470.552 65.3759 463.446 68.111 457.889 72.6657C455.299 61.3597 445.184 52.9235 433.092 52.9235C430.817 52.9235 428.614 53.2259 426.515 53.7861C420.399 42.6249 408.545 35.0555 394.92 35.0555C377.525 35.0555 363.011 47.3915 359.649 63.7924C354.861 59.0811 348.295 56.1719 341.046 56.1719C333.187 56.1719 326.129 59.5919 321.272 65.0217C315.988 55.852 306.096 49.6744 294.753 49.6744C284.531 49.6744 275.487 54.693 269.933 62.3956C264.998 58.5025 258.773 56.1719 251.999 56.1719C250.311 56.1719 248.66 56.3243 247.052 56.6007C242.543 46.4621 232.389 39.3867 220.577 39.3867C208.963 39.3867 198.951 46.2251 194.331 56.0923C190.074 52.1138 184.36 49.6744 178.074 49.6744C175.881 49.6744 173.76 49.9767 171.744 50.5311C167.889 38.7201 156.791 30.1826 143.693 30.1826C130.595 30.1826 119.488 38.726 115.637 50.5427C112.348 48.6175 108.524 47.5088 104.438 47.5088C93.0121 47.5088 83.6061 56.1417 82.3785 67.2417C79.4073 66.0425 76.164 65.3759 72.7632 65.3759C62.5333 65.3759 53.6985 71.3501 49.5566 79.9997H505.283Z" fill="#D8F1C7"/>
<path d="M974.444 80.0002C968.692 71.1981 958.758 65.3764 947.459 65.3764C939.713 65.3764 932.607 68.1115 927.05 72.6662C924.46 61.3602 914.345 52.924 902.253 52.924C899.978 52.924 897.775 53.2264 895.676 53.7866C889.56 42.6254 877.706 35.056 864.081 35.056C846.686 35.056 832.172 47.392 828.81 63.7929C824.022 59.0816 817.456 56.1724 810.207 56.1724C802.348 56.1724 795.291 59.5924 790.433 65.0222C785.149 55.8525 775.257 49.6749 763.914 49.6749C753.693 49.6749 744.648 54.6935 739.094 62.3961C734.159 58.503 727.934 56.1724 721.16 56.1724C719.472 56.1724 717.821 56.3248 716.213 56.6012C711.704 46.4626 701.55 39.3872 689.738 39.3872C678.124 39.3872 668.112 46.2256 663.492 56.0928C659.235 52.1143 653.521 49.6749 647.235 49.6749C645.042 49.6749 642.921 49.9772 640.905 50.5316C637.05 38.7206 625.952 30.1831 612.854 30.1831C599.756 30.1831 588.649 38.7265 584.798 50.5432C581.509 48.618 577.686 47.5093 573.599 47.5093C562.173 47.5093 552.767 56.1422 551.54 67.2422C548.568 66.043 545.325 65.3764 541.924 65.3764C531.694 65.3764 522.86 71.3506 518.718 80.0002H974.444Z" fill="#D8F1C7"/>
<path d="M594.778 62.064C595.479 60.4971 595.88 58.763 595.88 56.9303C595.88 50.0495 590.373 44.4719 583.58 44.4719C582.208 44.4719 580.893 44.7087 579.662 45.1284C579.67 44.9099 579.678 44.6915 579.678 44.4719C579.678 35.4095 572.425 28.064 563.479 28.064C555.445 28.064 548.78 33.9887 547.504 41.7597C546.208 41.1123 544.754 40.7389 543.212 40.7389C538.606 40.7389 534.756 43.9841 533.746 48.3373C531.753 46.6631 529.193 45.6554 526.4 45.6554C520.037 45.6554 514.88 50.8792 514.88 57.3232C514.88 59.0134 515.242 60.6147 515.879 62.064H594.778Z" fill="white"/>
<path d="M748.868 34C749.569 32.4332 749.97 30.699 749.97 28.8664C749.97 21.9855 744.463 16.408 737.67 16.408C736.298 16.408 734.983 16.6448 733.752 17.0644C733.76 16.846 733.768 16.6276 733.768 16.408C733.768 7.34552 726.515 0 717.569 0C709.535 0 702.87 5.92472 701.594 13.6958C700.298 13.0483 698.844 12.675 697.302 12.675C692.696 12.675 688.846 15.9202 687.836 20.2733C685.842 18.5991 683.282 17.5914 680.49 17.5914C674.127 17.5914 668.97 22.8152 668.97 29.2593C668.97 30.9495 669.332 32.5507 669.969 34H748.868Z" fill="white"/>
<path d="M653.736 35.7369C653.736 35.9055 653.634 36.0575 653.476 36.1183L651.041 37.0525C650.185 37.3814 649.513 38.0668 649.198 38.9319L648.272 41.483C648.265 41.502 648.251 41.5156 648.241 41.5328C648.233 41.547 648.226 41.5609 648.216 41.5738C648.201 41.5935 648.186 41.6111 648.168 41.627C648.139 41.6525 648.108 41.6747 648.073 41.6902C648.051 41.6985 648.029 41.7068 648.007 41.7096C647.985 41.7151 647.962 41.7179 647.94 41.7179L647.868 41.7096C647.846 41.7068 647.824 41.6985 647.802 41.6902C647.766 41.6744 647.734 41.6516 647.705 41.6255C647.687 41.6101 647.673 41.5928 647.658 41.5739C647.65 41.5628 647.643 41.5512 647.636 41.5392C647.624 41.52 647.608 41.5045 647.6 41.483L646.674 38.9319C646.362 38.0668 645.691 37.3814 644.834 37.0525L642.399 36.1183C642.241 36.0575 642.136 35.9055 642.136 35.7369C642.136 35.56 642.252 35.4025 642.421 35.35L644.649 34.648C645.613 34.344 646.373 33.5977 646.699 32.6414L647.606 29.9633C647.617 29.9329 647.631 29.9052 647.647 29.8804C647.658 29.8638 647.669 29.8472 647.686 29.8334C647.719 29.7975 647.761 29.7698 647.81 29.7504C647.824 29.7449 647.841 29.7394 647.857 29.7366C647.882 29.7284 647.91 29.7256 647.938 29.7256C647.965 29.7256 647.993 29.7284 648.018 29.7366C648.034 29.7394 648.051 29.7449 648.065 29.7504C648.109 29.767 648.148 29.7947 648.181 29.8251C648.195 29.8389 648.206 29.8527 648.217 29.8665C648.239 29.8969 648.258 29.9273 648.269 29.9633L649.176 32.6414C649.499 33.5977 650.262 34.344 651.224 34.648L653.451 35.35C653.623 35.4025 653.736 35.56 653.736 35.7369Z" fill="#FFE500"/>
<path d="M445.572 8.03326C445.572 8.23054 445.452 8.40837 445.268 8.47952L442.419 9.5725C441.417 9.95731 440.631 10.7593 440.262 11.7714L439.179 14.7561C439.171 14.7784 439.154 14.7943 439.143 14.8145C439.134 14.8311 439.125 14.8473 439.113 14.8625C439.096 14.8855 439.079 14.9061 439.057 14.9247C439.024 14.9545 438.987 14.9804 438.946 14.9987C438.92 15.0084 438.894 15.0181 438.868 15.0213C438.842 15.0278 438.817 15.031 438.791 15.031L438.707 15.0213C438.681 15.0181 438.655 15.0084 438.629 14.9987C438.586 14.9801 438.549 14.9535 438.515 14.923C438.494 14.9049 438.478 14.8847 438.461 14.8626C438.451 14.8496 438.443 14.8359 438.435 14.8219C438.421 14.7995 438.402 14.7813 438.393 14.7561L437.31 11.7714C436.944 10.7593 436.159 9.95731 435.156 9.5725L432.307 8.47952C432.123 8.40837 432 8.23054 432 8.03326C432 7.82633 432.136 7.64198 432.333 7.58054L434.939 6.75917C436.068 6.40347 436.957 5.5304 437.339 4.41155L438.399 1.27808C438.412 1.24251 438.429 1.21017 438.448 1.18106C438.461 1.16166 438.474 1.14225 438.493 1.12608C438.532 1.08404 438.581 1.0517 438.639 1.02906C438.655 1.02264 438.674 1.01612 438.694 1.01289C438.723 1.00323 438.755 1 438.788 1C438.82 1 438.852 1.00323 438.881 1.01289C438.901 1.01612 438.92 1.02264 438.936 1.02906C438.988 1.04846 439.033 1.0808 439.072 1.11638C439.088 1.13255 439.101 1.14872 439.114 1.16489C439.14 1.20047 439.163 1.23604 439.176 1.27808L440.236 4.41155C440.615 5.5304 441.507 6.40347 442.632 6.75917L445.239 7.58054C445.439 7.64198 445.572 7.82633 445.572 8.03326Z" fill="#FFE500"/>
<path d="M475.088 52.0973C475.088 52.2945 474.968 52.4724 474.784 52.5435L471.935 53.6365C470.933 54.0213 470.147 54.8233 469.778 55.8354L468.695 58.8201C468.687 58.8425 468.67 58.8583 468.659 58.8785C468.65 58.8951 468.641 58.9113 468.63 58.9264C468.612 58.9494 468.595 58.9701 468.573 58.9887C468.54 59.0185 468.503 59.0444 468.462 59.0626C468.436 59.0724 468.41 59.082 468.384 59.0853C468.359 59.0917 468.333 59.095 468.307 59.095L468.223 59.0853C468.197 59.082 468.171 59.0724 468.145 59.0626C468.103 59.0441 468.065 59.0174 468.031 58.9869C468.01 58.9689 467.994 58.9487 467.977 58.9265C467.967 58.9136 467.959 58.8999 467.951 58.8859C467.937 58.8635 467.919 58.8453 467.909 58.8201L466.826 55.8354C466.46 54.8233 465.675 54.0213 464.672 53.6365L461.823 52.5435C461.639 52.4724 461.516 52.2945 461.516 52.0973C461.516 51.8903 461.652 51.706 461.849 51.6446L464.456 50.8232C465.584 50.4675 466.473 49.5944 466.855 48.4755L467.916 45.342C467.929 45.3065 467.945 45.2741 467.964 45.2451C467.977 45.2257 467.99 45.2063 468.009 45.19C468.048 45.1481 468.097 45.1157 468.155 45.0931C468.171 45.0866 468.19 45.0801 468.21 45.0769C468.239 45.0672 468.271 45.064 468.304 45.064C468.336 45.064 468.368 45.0672 468.397 45.0769C468.417 45.0801 468.436 45.0866 468.452 45.0931C468.504 45.1125 468.549 45.1448 468.588 45.1804C468.604 45.1966 468.617 45.2127 468.63 45.2289C468.656 45.2644 468.679 45.3 468.692 45.342L469.752 48.4755C470.131 49.5944 471.023 50.4675 472.149 50.8232L474.755 51.6446C474.955 51.706 475.088 51.8903 475.088 52.0973Z" fill="#FFE500"/>
<path d="M489.196 45.8734C489.196 43.9828 490.729 42.4502 492.619 42.4502C494.51 42.4502 496.043 43.9828 496.043 45.8734C496.043 47.7639 494.51 49.2966 492.619 49.2966C490.729 49.2966 489.196 47.7639 489.196 45.8734Z" fill="white"/>
<path d="M503.358 59.8214C503.358 58.5827 504.363 57.5786 505.601 57.5786C506.84 57.5786 507.844 58.5827 507.844 59.8214C507.844 61.0601 506.84 62.0642 505.601 62.0642C504.362 62.0642 503.358 61.0601 503.358 59.8214Z" fill="white"/>
<path d="M501.116 40.2072C502.354 40.2072 503.359 39.2031 503.359 37.9645C503.359 36.7258 502.354 35.7217 501.116 35.7217C499.877 35.7217 498.873 36.7258 498.873 37.9645C498.873 39.2031 499.877 40.2072 501.116 40.2072Z" fill="white"/>
</g>
<defs>
<clipPath id="clip0_5225_18914">
<rect width="1024" height="80" fill="white"/>
</clipPath>
</defs>
</svg>
