<svg width="1920" height="1080" viewBox="0 0 1920 1080" fill="none" xmlns="http://www.w3.org/2000/svg">
<g clip-path="url(#clip0_3939_23783)">
<g opacity="0.1" filter="url(#filter0_d_3939_23783)">
<path d="M123.039 2.67969C124.575 2.67969 125.82 1.43456 125.82 -0.101392C125.82 -1.63734 124.575 -2.88248 123.039 -2.88248C121.503 -2.88248 120.258 -1.63734 120.258 -0.101392C120.258 1.43456 121.503 2.67969 123.039 2.67969Z" fill="white"/>
<path d="M251.75 491.978C251.75 493.514 250.504 494.759 248.969 494.759C247.433 494.759 246.188 493.514 246.188 491.978C246.188 490.442 247.433 489.197 248.969 489.197C250.505 489.197 251.75 490.442 251.75 491.978Z" fill="white"/>
<path d="M483.169 73.8318C484.705 73.8318 485.95 72.5866 485.95 71.0507C485.95 69.5147 484.705 68.2696 483.169 68.2696C481.633 68.2696 480.388 69.5147 480.388 71.0507C480.388 72.5866 481.633 73.8318 483.169 73.8318Z" fill="white"/>
<path d="M860.595 269.656C860.595 271.192 859.35 272.437 857.814 272.437C856.278 272.437 855.033 271.192 855.033 269.656C855.033 268.12 856.278 266.875 857.814 266.875C859.35 266.875 860.595 268.12 860.595 269.656Z" fill="white"/>
<path d="M521.836 331.253C521.836 332.789 520.591 334.034 519.055 334.034C517.519 334.034 516.274 332.789 516.274 331.253C516.274 329.717 517.519 328.472 519.055 328.472C520.591 328.472 521.836 329.717 521.836 331.253Z" fill="white"/>
<path d="M107.092 422.794C108.628 422.794 109.873 421.548 109.873 420.012C109.873 418.477 108.628 417.231 107.092 417.231C105.556 417.231 104.311 418.477 104.311 420.012C104.311 421.548 105.556 422.794 107.092 422.794Z" fill="white"/>
<path d="M151.436 177.049C152.972 177.049 154.217 175.804 154.217 174.268C154.217 172.732 152.972 171.487 151.436 171.487C149.9 171.487 148.655 172.732 148.655 174.268C148.655 175.804 149.9 177.049 151.436 177.049Z" fill="white"/>
<path d="M91.287 213.95C91.8106 213.95 92.2351 213.525 92.2351 213.002C92.2351 212.478 91.8106 212.053 91.287 212.053C90.7634 212.053 90.3389 212.478 90.3389 213.002C90.3389 213.525 90.7634 213.95 91.287 213.95Z" fill="white"/>
<path d="M105.258 99.9773C105.258 100.501 104.834 100.925 104.31 100.925C103.787 100.925 103.362 100.501 103.362 99.9773C103.362 99.4537 103.787 99.0291 104.31 99.0291C104.834 99.0291 105.258 99.4537 105.258 99.9773Z" fill="white"/>
<path d="M284.82 205.403C284.82 205.927 284.396 206.351 283.872 206.351C283.348 206.351 282.924 205.927 282.924 205.403C282.924 204.879 283.348 204.455 283.872 204.455C284.396 204.455 284.82 204.879 284.82 205.403Z" fill="white"/>
<path d="M393.429 100.925C393.429 101.449 393.005 101.873 392.481 101.873C391.958 101.873 391.533 101.449 391.533 100.925C391.533 100.402 391.958 99.9773 392.481 99.9773C393.005 99.9773 393.429 100.402 393.429 100.925Z" fill="white"/>
<path d="M73.274 482.755C73.274 483.278 72.8495 483.703 72.3259 483.703C71.8023 483.703 71.3779 483.278 71.3779 482.755C71.3779 482.231 71.8023 481.807 72.3259 481.807C72.8495 481.807 73.274 482.231 73.274 482.755Z" fill="white"/>
<path d="M569.146 2.67969C569.146 3.20329 568.722 3.62782 568.198 3.62782C567.675 3.62782 567.25 3.20329 567.25 2.67969C567.25 2.15608 567.675 1.73172 568.198 1.73172C568.722 1.73172 569.146 2.15608 569.146 2.67969Z" fill="white"/>
<path d="M423.078 188.084C423.078 188.608 422.653 189.032 422.13 189.032C421.606 189.032 421.182 188.608 421.182 188.084C421.182 187.561 421.606 187.136 422.13 187.136C422.653 187.136 423.078 187.561 423.078 188.084Z" fill="white"/>
<path d="M758.619 162.276C758.619 162.8 758.194 163.224 757.671 163.224C757.147 163.224 756.723 162.8 756.723 162.276C756.723 161.753 757.147 161.328 757.671 161.328C758.194 161.328 758.619 161.753 758.619 162.276Z" fill="white"/>
<path d="M536.986 188.084C536.986 188.608 536.562 189.032 536.038 189.032C535.514 189.032 535.09 188.608 535.09 188.084C535.09 187.561 535.514 187.136 536.038 187.136C536.562 187.136 536.986 187.561 536.986 188.084Z" fill="white"/>
<path d="M861.544 187.136C861.544 187.66 861.119 188.084 860.595 188.084C860.072 188.084 859.647 187.66 859.647 187.136C859.647 186.613 860.072 186.188 860.595 186.188C861.119 186.188 861.544 186.613 861.544 187.136Z" fill="white"/>
<path d="M878.17 115.505C878.17 116.029 877.745 116.454 877.221 116.454C876.698 116.454 876.273 116.029 876.273 115.505C876.273 114.982 876.698 114.557 877.221 114.557C877.745 114.557 878.17 114.982 878.17 115.505Z" fill="white"/>
<path d="M376.747 388.754C376.747 389.278 376.322 389.703 375.799 389.703C375.275 389.703 374.851 389.278 374.851 388.754C374.851 388.231 375.275 387.806 375.799 387.806C376.322 387.806 376.747 388.231 376.747 388.754Z" fill="white"/>
<path d="M713.596 278.441C713.596 278.965 713.172 279.389 712.648 279.389C712.125 279.389 711.7 278.965 711.7 278.441C711.7 277.917 712.125 277.493 712.648 277.493C713.172 277.493 713.596 277.917 713.596 278.441Z" fill="white"/>
<path d="M577.167 436.607C577.167 437.131 576.742 437.555 576.218 437.555C575.695 437.555 575.271 437.131 575.271 436.607C575.271 436.084 575.695 435.659 576.218 435.659C576.742 435.659 577.167 436.084 577.167 436.607Z" fill="white"/>
<path d="M897.139 328.472C897.139 328.996 896.715 329.42 896.191 329.42C895.668 329.42 895.243 328.996 895.243 328.472C895.243 327.948 895.668 327.524 896.191 327.524C896.715 327.524 897.139 327.948 897.139 328.472Z" fill="white"/>
<path d="M664.943 385.973C664.943 386.497 664.519 386.922 663.995 386.922C663.471 386.922 663.047 386.497 663.047 385.973C663.047 385.45 663.471 385.025 663.995 385.025C664.519 385.025 664.943 385.45 664.943 385.973Z" fill="white"/>
<path d="M609.907 413.413C609.907 413.936 609.482 414.361 608.959 414.361C608.435 414.361 608.011 413.936 608.011 413.413C608.011 412.889 608.435 412.464 608.959 412.464C609.482 412.464 609.907 412.889 609.907 413.413Z" fill="white"/>
<path d="M752.908 400.993C752.908 401.517 752.483 401.941 751.96 401.941C751.436 401.941 751.012 401.517 751.012 400.993C751.012 400.47 751.436 400.045 751.96 400.045C752.483 400.045 752.908 400.47 752.908 400.993Z" fill="white"/>
<path d="M673.984 479.458C673.984 479.982 673.559 480.406 673.036 480.406C672.512 480.406 672.088 479.982 672.088 479.458C672.088 478.935 672.512 478.51 673.036 478.51C673.559 478.51 673.984 478.935 673.984 479.458Z" fill="white"/>
<path d="M733.327 531.052C733.327 531.576 732.902 532 732.379 532C731.855 532 731.431 531.576 731.431 531.052C731.431 530.528 731.855 530.104 732.379 530.104C732.902 530.104 733.327 530.528 733.327 531.052Z" fill="white"/>
<path d="M872.4 379.856C872.4 380.38 871.976 380.804 871.452 380.804C870.928 380.804 870.504 380.38 870.504 379.856C870.504 379.332 870.928 378.908 871.452 378.908C871.976 378.908 872.4 379.332 872.4 379.856Z" fill="white"/>
<path d="M952 457.041C952 457.565 951.575 457.989 951.052 457.989C950.528 457.989 950.104 457.565 950.104 457.041C950.104 456.518 950.528 456.093 951.052 456.093C951.575 456.093 952 456.518 952 457.041Z" fill="white"/>
<path d="M929.514 195.643C929.514 196.167 929.09 196.591 928.566 196.591C928.043 196.591 927.618 196.167 927.618 195.643C927.618 195.12 928.043 194.695 928.566 194.695C929.09 194.695 929.514 195.12 929.514 195.643Z" fill="white"/>
<path d="M584.528 89.8627C584.528 90.3863 584.103 90.8108 583.58 90.8108C583.056 90.8108 582.632 90.3863 582.632 89.8627C582.632 89.3391 583.056 88.9147 583.58 88.9147C584.103 88.9147 584.528 89.3391 584.528 89.8627Z" fill="white"/>
<path d="M375.798 177.049C375.798 177.572 375.374 177.997 374.85 177.997C374.327 177.997 373.902 177.572 373.902 177.049C373.902 176.525 374.327 176.101 374.85 176.101C375.374 176.101 375.798 176.525 375.798 177.049Z" fill="white"/>
<path d="M758.619 223.033C758.619 223.556 758.194 223.981 757.671 223.981C757.147 223.981 756.723 223.556 756.723 223.033C756.723 222.509 757.147 222.085 757.671 222.085C758.194 222.085 758.619 222.509 758.619 223.033Z" fill="white"/>
<path d="M283.872 432.033C283.872 432.556 283.447 432.981 282.924 432.981C282.4 432.981 281.976 432.556 281.976 432.033C281.976 431.51 282.4 431.085 282.924 431.085C283.447 431.085 283.872 431.509 283.872 432.033Z" fill="white"/>
<path d="M299.492 506.773C299.492 507.297 299.067 507.721 298.544 507.721C298.02 507.721 297.596 507.297 297.596 506.773C297.596 506.25 298.02 505.825 298.544 505.825C299.068 505.825 299.492 506.25 299.492 506.773Z" fill="white"/>
<path d="M186.908 454.471C186.908 454.995 186.483 455.419 185.96 455.419C185.436 455.419 185.012 454.995 185.012 454.471C185.012 453.947 185.436 453.523 185.96 453.523C186.483 453.523 186.908 453.947 186.908 454.471Z" fill="white"/>
<path d="M356.2 438.246C356.2 438.77 355.775 439.194 355.252 439.194C354.728 439.194 354.304 438.77 354.304 438.246C354.304 437.722 354.728 437.298 355.252 437.298C355.775 437.298 356.2 437.722 356.2 438.246Z" fill="white"/>
<path d="M661.214 174.268C662.75 174.268 663.995 173.022 663.995 171.487C663.995 169.951 662.75 168.705 661.214 168.705C659.678 168.705 658.433 169.951 658.433 171.487C658.433 173.022 659.678 174.268 661.214 174.268Z" fill="white"/>
<path d="M340.423 8.24192C341.959 8.24192 343.204 6.99678 343.204 5.46083C343.204 3.92488 341.959 2.67975 340.423 2.67975C338.887 2.67975 337.642 3.92488 337.642 5.46083C337.642 6.99678 338.887 8.24192 340.423 8.24192Z" fill="white"/>
<path d="M819.725 495.069C821.261 495.069 822.506 493.824 822.506 492.288C822.506 490.752 821.261 489.507 819.725 489.507C818.189 489.507 816.944 490.752 816.944 492.288C816.944 493.824 818.189 495.069 819.725 495.069Z" fill="white"/>
<path d="M778.904 5.46088C780.44 5.46088 781.685 4.21575 781.685 2.6798C781.685 1.14385 780.44 -0.101288 778.904 -0.101288C777.368 -0.101288 776.123 1.14385 776.123 2.6798C776.123 4.21575 777.368 5.46088 778.904 5.46088Z" fill="white"/>
<path d="M145.647 244.311L145.27 243.179L144.894 244.311C144.037 246.885 142.526 249.192 140.508 251.005C142.526 252.819 144.037 255.126 144.894 257.7L145.27 258.831L145.647 257.7C146.504 255.126 148.015 252.819 150.033 251.005C148.015 249.192 146.504 246.885 145.647 244.311Z" fill="white"/>
</g>
<g opacity="0.1" filter="url(#filter1_d_3939_23783)">
<path d="M1024.57 2.67969C1026.1 2.67969 1027.35 1.43456 1027.35 -0.101392C1027.35 -1.63734 1026.1 -2.88248 1024.57 -2.88248C1023.03 -2.88248 1021.79 -1.63734 1021.79 -0.101392C1021.79 1.43456 1023.03 2.67969 1024.57 2.67969Z" fill="white"/>
<path d="M1153.28 491.978C1153.28 493.514 1152.03 494.759 1150.5 494.759C1148.96 494.759 1147.71 493.514 1147.71 491.978C1147.71 490.442 1148.96 489.197 1150.5 489.197C1152.03 489.197 1153.28 490.442 1153.28 491.978Z" fill="white"/>
<path d="M1384.7 73.8318C1386.23 73.8318 1387.48 72.5866 1387.48 71.0507C1387.48 69.5147 1386.23 68.2696 1384.7 68.2696C1383.16 68.2696 1381.92 69.5147 1381.92 71.0507C1381.92 72.5866 1383.16 73.8318 1384.7 73.8318Z" fill="white"/>
<path d="M1762.12 269.656C1762.12 271.192 1760.88 272.437 1759.34 272.437C1757.81 272.437 1756.56 271.192 1756.56 269.656C1756.56 268.12 1757.81 266.875 1759.34 266.875C1760.88 266.875 1762.12 268.12 1762.12 269.656Z" fill="white"/>
<path d="M1423.36 331.253C1423.36 332.789 1422.12 334.034 1420.58 334.034C1419.05 334.034 1417.8 332.789 1417.8 331.253C1417.8 329.717 1419.05 328.472 1420.58 328.472C1422.12 328.472 1423.36 329.717 1423.36 331.253Z" fill="white"/>
<path d="M1008.62 422.794C1010.15 422.794 1011.4 421.548 1011.4 420.012C1011.4 418.477 1010.15 417.231 1008.62 417.231C1007.08 417.231 1005.84 418.477 1005.84 420.012C1005.84 421.548 1007.08 422.794 1008.62 422.794Z" fill="white"/>
<path d="M1052.96 177.049C1054.5 177.049 1055.74 175.804 1055.74 174.268C1055.74 172.732 1054.5 171.487 1052.96 171.487C1051.43 171.487 1050.18 172.732 1050.18 174.268C1050.18 175.804 1051.43 177.049 1052.96 177.049Z" fill="white"/>
<path d="M992.814 213.95C993.338 213.95 993.762 213.525 993.762 213.002C993.762 212.478 993.338 212.053 992.814 212.053C992.291 212.053 991.866 212.478 991.866 213.002C991.866 213.525 992.291 213.95 992.814 213.95Z" fill="white"/>
<path d="M1006.79 99.9773C1006.79 100.501 1006.36 100.925 1005.84 100.925C1005.31 100.925 1004.89 100.501 1004.89 99.9773C1004.89 99.4537 1005.31 99.0291 1005.84 99.0291C1006.36 99.0291 1006.79 99.4537 1006.79 99.9773Z" fill="white"/>
<path d="M1186.35 205.403C1186.35 205.927 1185.92 206.351 1185.4 206.351C1184.88 206.351 1184.45 205.927 1184.45 205.403C1184.45 204.879 1184.88 204.455 1185.4 204.455C1185.92 204.455 1186.35 204.879 1186.35 205.403Z" fill="white"/>
<path d="M1294.96 100.925C1294.96 101.449 1294.53 101.873 1294.01 101.873C1293.48 101.873 1293.06 101.449 1293.06 100.925C1293.06 100.402 1293.48 99.9773 1294.01 99.9773C1294.53 99.9773 1294.96 100.402 1294.96 100.925Z" fill="white"/>
<path d="M974.801 482.755C974.801 483.278 974.377 483.703 973.853 483.703C973.33 483.703 972.905 483.278 972.905 482.755C972.905 482.231 973.33 481.807 973.853 481.807C974.377 481.807 974.801 482.231 974.801 482.755Z" fill="white"/>
<path d="M1470.67 2.67969C1470.67 3.20329 1470.25 3.62782 1469.73 3.62782C1469.2 3.62782 1468.78 3.20329 1468.78 2.67969C1468.78 2.15608 1469.2 1.73172 1469.73 1.73172C1470.25 1.73172 1470.67 2.15608 1470.67 2.67969Z" fill="white"/>
<path d="M1324.61 188.084C1324.61 188.608 1324.18 189.032 1323.66 189.032C1323.13 189.032 1322.71 188.608 1322.71 188.084C1322.71 187.561 1323.13 187.136 1323.66 187.136C1324.18 187.136 1324.61 187.561 1324.61 188.084Z" fill="white"/>
<path d="M1660.15 162.276C1660.15 162.8 1659.72 163.224 1659.2 163.224C1658.67 163.224 1658.25 162.8 1658.25 162.276C1658.25 161.753 1658.67 161.328 1659.2 161.328C1659.72 161.328 1660.15 161.753 1660.15 162.276Z" fill="white"/>
<path d="M1438.51 188.084C1438.51 188.608 1438.09 189.032 1437.57 189.032C1437.04 189.032 1436.62 188.608 1436.62 188.084C1436.62 187.561 1437.04 187.136 1437.57 187.136C1438.09 187.136 1438.51 187.561 1438.51 188.084Z" fill="white"/>
<path d="M1763.07 187.136C1763.07 187.66 1762.65 188.084 1762.12 188.084C1761.6 188.084 1761.17 187.66 1761.17 187.136C1761.17 186.613 1761.6 186.188 1762.12 186.188C1762.65 186.188 1763.07 186.613 1763.07 187.136Z" fill="white"/>
<path d="M1779.7 115.505C1779.7 116.029 1779.27 116.454 1778.75 116.454C1778.23 116.454 1777.8 116.029 1777.8 115.505C1777.8 114.982 1778.23 114.557 1778.75 114.557C1779.27 114.557 1779.7 114.982 1779.7 115.505Z" fill="white"/>
<path d="M1278.27 388.754C1278.27 389.278 1277.85 389.703 1277.33 389.703C1276.8 389.703 1276.38 389.278 1276.38 388.754C1276.38 388.231 1276.8 387.806 1277.33 387.806C1277.85 387.806 1278.27 388.231 1278.27 388.754Z" fill="white"/>
<path d="M1615.12 278.441C1615.12 278.965 1614.7 279.389 1614.18 279.389C1613.65 279.389 1613.23 278.965 1613.23 278.441C1613.23 277.917 1613.65 277.493 1614.18 277.493C1614.7 277.493 1615.12 277.917 1615.12 278.441Z" fill="white"/>
<path d="M1478.69 436.607C1478.69 437.131 1478.27 437.555 1477.75 437.555C1477.22 437.555 1476.8 437.131 1476.8 436.607C1476.8 436.084 1477.22 435.659 1477.75 435.659C1478.27 435.659 1478.69 436.084 1478.69 436.607Z" fill="white"/>
<path d="M1798.67 328.472C1798.67 328.996 1798.24 329.42 1797.72 329.42C1797.19 329.42 1796.77 328.996 1796.77 328.472C1796.77 327.948 1797.19 327.524 1797.72 327.524C1798.24 327.524 1798.67 327.948 1798.67 328.472Z" fill="white"/>
<path d="M1566.47 385.973C1566.47 386.497 1566.05 386.922 1565.52 386.922C1565 386.922 1564.57 386.497 1564.57 385.973C1564.57 385.45 1565 385.025 1565.52 385.025C1566.05 385.025 1566.47 385.45 1566.47 385.973Z" fill="white"/>
<path d="M1511.43 413.413C1511.43 413.936 1511.01 414.361 1510.49 414.361C1509.96 414.361 1509.54 413.936 1509.54 413.413C1509.54 412.889 1509.96 412.464 1510.49 412.464C1511.01 412.464 1511.43 412.889 1511.43 413.413Z" fill="white"/>
<path d="M1654.44 400.993C1654.44 401.517 1654.01 401.941 1653.49 401.941C1652.96 401.941 1652.54 401.517 1652.54 400.993C1652.54 400.47 1652.96 400.045 1653.49 400.045C1654.01 400.045 1654.44 400.47 1654.44 400.993Z" fill="white"/>
<path d="M1575.51 479.458C1575.51 479.982 1575.09 480.406 1574.56 480.406C1574.04 480.406 1573.62 479.982 1573.62 479.458C1573.62 478.935 1574.04 478.51 1574.56 478.51C1575.09 478.51 1575.51 478.935 1575.51 479.458Z" fill="white"/>
<path d="M1634.85 531.052C1634.85 531.576 1634.43 532 1633.91 532C1633.38 532 1632.96 531.576 1632.96 531.052C1632.96 530.528 1633.38 530.104 1633.91 530.104C1634.43 530.104 1634.85 530.528 1634.85 531.052Z" fill="white"/>
<path d="M1773.93 379.856C1773.93 380.38 1773.5 380.804 1772.98 380.804C1772.46 380.804 1772.03 380.38 1772.03 379.856C1772.03 379.332 1772.46 378.908 1772.98 378.908C1773.5 378.908 1773.93 379.332 1773.93 379.856Z" fill="white"/>
<path d="M1853.53 457.041C1853.53 457.565 1853.1 457.989 1852.58 457.989C1852.06 457.989 1851.63 457.565 1851.63 457.041C1851.63 456.518 1852.06 456.093 1852.58 456.093C1853.1 456.093 1853.53 456.518 1853.53 457.041Z" fill="white"/>
<path d="M1831.04 195.643C1831.04 196.167 1830.62 196.591 1830.09 196.591C1829.57 196.591 1829.15 196.167 1829.15 195.643C1829.15 195.12 1829.57 194.695 1830.09 194.695C1830.62 194.695 1831.04 195.12 1831.04 195.643Z" fill="white"/>
<path d="M1486.06 89.8627C1486.06 90.3863 1485.63 90.8108 1485.11 90.8108C1484.58 90.8108 1484.16 90.3863 1484.16 89.8627C1484.16 89.3391 1484.58 88.9147 1485.11 88.9147C1485.63 88.9147 1486.06 89.3391 1486.06 89.8627Z" fill="white"/>
<path d="M1277.33 177.049C1277.33 177.572 1276.9 177.997 1276.38 177.997C1275.85 177.997 1275.43 177.572 1275.43 177.049C1275.43 176.525 1275.85 176.101 1276.38 176.101C1276.9 176.101 1277.33 176.525 1277.33 177.049Z" fill="white"/>
<path d="M1660.15 223.033C1660.15 223.556 1659.72 223.981 1659.2 223.981C1658.67 223.981 1658.25 223.556 1658.25 223.033C1658.25 222.509 1658.67 222.085 1659.2 222.085C1659.72 222.085 1660.15 222.509 1660.15 223.033Z" fill="white"/>
<path d="M1185.4 432.033C1185.4 432.556 1184.97 432.981 1184.45 432.981C1183.93 432.981 1183.5 432.556 1183.5 432.033C1183.5 431.51 1183.93 431.085 1184.45 431.085C1184.97 431.085 1185.4 431.509 1185.4 432.033Z" fill="white"/>
<path d="M1201.02 506.773C1201.02 507.297 1200.59 507.721 1200.07 507.721C1199.55 507.721 1199.12 507.297 1199.12 506.773C1199.12 506.25 1199.55 505.825 1200.07 505.825C1200.59 505.825 1201.02 506.25 1201.02 506.773Z" fill="white"/>
<path d="M1088.44 454.471C1088.44 454.995 1088.01 455.419 1087.49 455.419C1086.96 455.419 1086.54 454.995 1086.54 454.471C1086.54 453.947 1086.96 453.523 1087.49 453.523C1088.01 453.523 1088.44 453.947 1088.44 454.471Z" fill="white"/>
<path d="M1257.73 438.246C1257.73 438.77 1257.3 439.194 1256.78 439.194C1256.26 439.194 1255.83 438.77 1255.83 438.246C1255.83 437.722 1256.26 437.298 1256.78 437.298C1257.3 437.298 1257.73 437.722 1257.73 438.246Z" fill="white"/>
<path d="M1562.74 174.268C1564.28 174.268 1565.52 173.022 1565.52 171.487C1565.52 169.951 1564.28 168.705 1562.74 168.705C1561.21 168.705 1559.96 169.951 1559.96 171.487C1559.96 173.022 1561.21 174.268 1562.74 174.268Z" fill="white"/>
<path d="M1241.95 8.24192C1243.49 8.24192 1244.73 6.99678 1244.73 5.46083C1244.73 3.92488 1243.49 2.67975 1241.95 2.67975C1240.41 2.67975 1239.17 3.92488 1239.17 5.46083C1239.17 6.99678 1240.41 8.24192 1241.95 8.24192Z" fill="white"/>
<path d="M1721.25 495.069C1722.79 495.069 1724.03 493.824 1724.03 492.288C1724.03 490.752 1722.79 489.507 1721.25 489.507C1719.72 489.507 1718.47 490.752 1718.47 492.288C1718.47 493.824 1719.72 495.069 1721.25 495.069Z" fill="white"/>
<path d="M1680.43 5.46088C1681.97 5.46088 1683.21 4.21575 1683.21 2.6798C1683.21 1.14385 1681.97 -0.101288 1680.43 -0.101288C1678.9 -0.101288 1677.65 1.14385 1677.65 2.6798C1677.65 4.21575 1678.9 5.46088 1680.43 5.46088Z" fill="white"/>
<path d="M1047.17 244.311L1046.8 243.179L1046.42 244.311C1045.56 246.885 1044.05 249.192 1042.04 251.005C1044.05 252.819 1045.56 255.126 1046.42 257.7L1046.8 258.831L1047.17 257.7C1048.03 255.126 1049.54 252.819 1051.56 251.005C1049.54 249.192 1048.03 246.885 1047.17 244.311Z" fill="white"/>
<path d="M973.282 349.732L972.905 348.6L972.529 349.732C971.672 352.306 970.16 354.613 968.143 356.426C970.16 358.24 971.672 360.547 972.529 363.121L972.905 364.253L973.282 363.121C974.138 360.547 975.65 358.24 977.668 356.426C975.65 354.613 974.138 352.306 973.282 349.732Z" fill="white"/>
<path d="M1847.24 342.992L1846.87 341.86L1846.49 342.992C1845.63 345.566 1844.12 347.873 1842.11 349.687C1844.12 351.5 1845.63 353.807 1846.49 356.381L1846.87 357.513L1847.24 356.381C1848.1 353.807 1849.61 351.5 1851.63 349.687C1849.61 347.873 1848.1 345.566 1847.24 342.992Z" fill="white"/>
</g>
<g opacity="0.1" filter="url(#filter2_d_3939_23783)">
<path d="M1024.57 565.206C1026.1 565.206 1027.35 563.961 1027.35 562.425C1027.35 560.889 1026.1 559.644 1024.57 559.644C1023.03 559.644 1021.79 560.889 1021.79 562.425C1021.79 563.961 1023.03 565.206 1024.57 565.206Z" fill="white"/>
<path d="M1153.28 1054.5C1153.28 1056.04 1152.03 1057.29 1150.5 1057.29C1148.96 1057.29 1147.71 1056.04 1147.71 1054.5C1147.71 1052.97 1148.96 1051.72 1150.5 1051.72C1152.03 1051.72 1153.28 1052.97 1153.28 1054.5Z" fill="white"/>
<path d="M1180.72 846.529C1182.26 846.529 1183.5 845.284 1183.5 843.748C1183.5 842.212 1182.26 840.967 1180.72 840.967C1179.19 840.967 1177.94 842.212 1177.94 843.748C1177.94 845.284 1179.19 846.529 1180.72 846.529Z" fill="white"/>
<path d="M1762.12 832.182C1762.12 833.718 1760.88 834.963 1759.34 834.963C1757.81 834.963 1756.56 833.718 1756.56 832.182C1756.56 830.646 1757.81 829.401 1759.34 829.401C1760.88 829.401 1762.12 830.646 1762.12 832.182Z" fill="white"/>
<path d="M1423.36 893.779C1423.36 895.315 1422.12 896.56 1420.58 896.56C1419.05 896.56 1417.8 895.315 1417.8 893.779C1417.8 892.243 1419.05 890.998 1420.58 890.998C1422.12 890.998 1423.36 892.243 1423.36 893.779Z" fill="white"/>
<path d="M1008.62 985.32C1010.15 985.32 1011.4 984.074 1011.4 982.539C1011.4 981.003 1010.15 979.757 1008.62 979.757C1007.08 979.757 1005.84 981.003 1005.84 982.539C1005.84 984.074 1007.08 985.32 1008.62 985.32Z" fill="white"/>
<path d="M1052.96 739.575C1054.5 739.575 1055.74 738.33 1055.74 736.794C1055.74 735.258 1054.5 734.013 1052.96 734.013C1051.43 734.013 1050.18 735.258 1050.18 736.794C1050.18 738.33 1051.43 739.575 1052.96 739.575Z" fill="white"/>
<path d="M992.814 776.476C993.338 776.476 993.762 776.051 993.762 775.528C993.762 775.004 993.338 774.579 992.814 774.579C992.291 774.579 991.866 775.004 991.866 775.528C991.866 776.051 992.291 776.476 992.814 776.476Z" fill="white"/>
<path d="M1006.79 662.503C1006.79 663.027 1006.36 663.451 1005.84 663.451C1005.31 663.451 1004.89 663.027 1004.89 662.503C1004.89 661.98 1005.31 661.555 1005.84 661.555C1006.36 661.555 1006.79 661.98 1006.79 662.503Z" fill="white"/>
<path d="M1186.35 767.929C1186.35 768.453 1185.92 768.877 1185.4 768.877C1184.88 768.877 1184.45 768.453 1184.45 767.929C1184.45 767.405 1184.88 766.981 1185.4 766.981C1185.92 766.981 1186.35 767.405 1186.35 767.929Z" fill="white"/>
<path d="M1136.21 541.896C1136.21 542.42 1135.78 542.844 1135.26 542.844C1134.74 542.844 1134.31 542.42 1134.31 541.896C1134.31 541.373 1134.74 540.948 1135.26 540.948C1135.78 540.948 1136.21 541.373 1136.21 541.896Z" fill="white"/>
<path d="M1294.96 663.452C1294.96 663.975 1294.53 664.399 1294.01 664.399C1293.48 664.399 1293.06 663.975 1293.06 663.452C1293.06 662.928 1293.48 662.503 1294.01 662.503C1294.53 662.503 1294.96 662.928 1294.96 663.452Z" fill="white"/>
<path d="M974.801 1045.28C974.801 1045.8 974.377 1046.23 973.853 1046.23C973.33 1046.23 972.905 1045.8 972.905 1045.28C972.905 1044.76 973.33 1044.33 973.853 1044.33C974.377 1044.33 974.801 1044.76 974.801 1045.28Z" fill="white"/>
<path d="M1470.67 565.206C1470.67 565.729 1470.25 566.154 1469.73 566.154C1469.2 566.154 1468.78 565.729 1468.78 565.206C1468.78 564.682 1469.2 564.258 1469.73 564.258C1470.25 564.258 1470.67 564.682 1470.67 565.206Z" fill="white"/>
<path d="M1324.61 750.61C1324.61 751.134 1324.18 751.558 1323.66 751.558C1323.13 751.558 1322.71 751.134 1322.71 750.61C1322.71 750.087 1323.13 749.662 1323.66 749.662C1324.18 749.662 1324.61 750.087 1324.61 750.61Z" fill="white"/>
<path d="M1660.15 724.802C1660.15 725.326 1659.72 725.75 1659.2 725.75C1658.67 725.75 1658.25 725.326 1658.25 724.802C1658.25 724.279 1658.67 723.854 1659.2 723.854C1659.72 723.854 1660.15 724.279 1660.15 724.802Z" fill="white"/>
<path d="M1438.51 750.61C1438.51 751.134 1438.09 751.558 1437.57 751.558C1437.04 751.558 1436.62 751.134 1436.62 750.61C1436.62 750.087 1437.04 749.662 1437.57 749.662C1438.09 749.662 1438.51 750.087 1438.51 750.61Z" fill="white"/>
<path d="M1763.07 749.662C1763.07 750.186 1762.65 750.61 1762.12 750.61C1761.6 750.61 1761.17 750.186 1761.17 749.662C1761.17 749.139 1761.6 748.714 1762.12 748.714C1762.65 748.714 1763.07 749.139 1763.07 749.662Z" fill="white"/>
<path d="M1779.7 678.032C1779.7 678.555 1779.27 678.98 1778.75 678.98C1778.23 678.98 1777.8 678.555 1777.8 678.032C1777.8 677.508 1778.23 677.083 1778.75 677.083C1779.27 677.083 1779.7 677.508 1779.7 678.032Z" fill="white"/>
<path d="M1278.27 951.28C1278.27 951.804 1277.85 952.229 1277.33 952.229C1276.8 952.229 1276.38 951.804 1276.38 951.28C1276.38 950.757 1276.8 950.333 1277.33 950.333C1277.85 950.333 1278.27 950.757 1278.27 951.28Z" fill="white"/>
<path d="M1615.12 840.967C1615.12 841.491 1614.7 841.915 1614.18 841.915C1613.65 841.915 1613.23 841.491 1613.23 840.967C1613.23 840.444 1613.65 840.019 1614.18 840.019C1614.7 840.019 1615.12 840.444 1615.12 840.967Z" fill="white"/>
<path d="M1478.69 999.133C1478.69 999.657 1478.27 1000.08 1477.75 1000.08C1477.22 1000.08 1476.8 999.657 1476.8 999.133C1476.8 998.61 1477.22 998.185 1477.75 998.185C1478.27 998.185 1478.69 998.61 1478.69 999.133Z" fill="white"/>
<path d="M1798.67 890.998C1798.67 891.522 1798.24 891.946 1797.72 891.946C1797.19 891.946 1796.77 891.522 1796.77 890.998C1796.77 890.474 1797.19 890.05 1797.72 890.05C1798.24 890.05 1798.67 890.474 1798.67 890.998Z" fill="white"/>
<path d="M1566.47 948.499C1566.47 949.023 1566.05 949.448 1565.52 949.448C1565 949.448 1564.57 949.023 1564.57 948.499C1564.57 947.976 1565 947.551 1565.52 947.551C1566.05 947.551 1566.47 947.976 1566.47 948.499Z" fill="white"/>
<path d="M1511.43 975.939C1511.43 976.462 1511.01 976.887 1510.49 976.887C1509.96 976.887 1509.54 976.462 1509.54 975.939C1509.54 975.415 1509.96 974.991 1510.49 974.991C1511.01 974.991 1511.43 975.415 1511.43 975.939Z" fill="white"/>
<path d="M1654.44 963.519C1654.44 964.043 1654.01 964.467 1653.49 964.467C1652.96 964.467 1652.54 964.043 1652.54 963.519C1652.54 962.996 1652.96 962.571 1653.49 962.571C1654.01 962.571 1654.44 962.996 1654.44 963.519Z" fill="white"/>
<path d="M1575.51 1041.98C1575.51 1042.51 1575.09 1042.93 1574.56 1042.93C1574.04 1042.93 1573.62 1042.51 1573.62 1041.98C1573.62 1041.46 1574.04 1041.04 1574.56 1041.04C1575.09 1041.04 1575.51 1041.46 1575.51 1041.98Z" fill="white"/>
<path d="M1773.93 942.382C1773.93 942.906 1773.5 943.33 1772.98 943.33C1772.46 943.33 1772.03 942.906 1772.03 942.382C1772.03 941.858 1772.46 941.434 1772.98 941.434C1773.5 941.434 1773.93 941.858 1773.93 942.382Z" fill="white"/>
<path d="M1853.53 1019.57C1853.53 1020.09 1853.1 1020.52 1852.58 1020.52C1852.06 1020.52 1851.63 1020.09 1851.63 1019.57C1851.63 1019.04 1852.06 1018.62 1852.58 1018.62C1853.1 1018.62 1853.53 1019.04 1853.53 1019.57Z" fill="white"/>
<path d="M1831.04 758.169C1831.04 758.693 1830.62 759.117 1830.09 759.117C1829.57 759.117 1829.15 758.693 1829.15 758.169C1829.15 757.646 1829.57 757.221 1830.09 757.221C1830.62 757.221 1831.04 757.646 1831.04 758.169Z" fill="white"/>
<path d="M1828.9 559.644C1828.9 560.167 1828.47 560.592 1827.95 560.592C1827.43 560.592 1827 560.167 1827 559.644C1827 559.12 1827.43 558.696 1827.95 558.696C1828.47 558.696 1828.9 559.12 1828.9 559.644Z" fill="white"/>
<path d="M1486.06 652.389C1486.06 652.912 1485.63 653.337 1485.11 653.337C1484.58 653.337 1484.16 652.912 1484.16 652.389C1484.16 651.865 1484.58 651.441 1485.11 651.441C1485.63 651.441 1486.06 651.865 1486.06 652.389Z" fill="white"/>
<path d="M1277.33 739.575C1277.33 740.098 1276.9 740.523 1276.38 740.523C1275.85 740.523 1275.43 740.098 1275.43 739.575C1275.43 739.051 1275.85 738.627 1276.38 738.627C1276.9 738.627 1277.33 739.051 1277.33 739.575Z" fill="white"/>
<path d="M1660.15 785.559C1660.15 786.082 1659.72 786.507 1659.2 786.507C1658.67 786.507 1658.25 786.082 1658.25 785.559C1658.25 785.035 1658.67 784.611 1659.2 784.611C1659.72 784.611 1660.15 785.035 1660.15 785.559Z" fill="white"/>
<path d="M1185.4 994.559C1185.4 995.082 1184.97 995.507 1184.45 995.507C1183.93 995.507 1183.5 995.082 1183.5 994.559C1183.5 994.036 1183.93 993.611 1184.45 993.611C1184.97 993.611 1185.4 994.035 1185.4 994.559Z" fill="white"/>
<path d="M1201.02 1069.3C1201.02 1069.82 1200.59 1070.25 1200.07 1070.25C1199.55 1070.25 1199.12 1069.82 1199.12 1069.3C1199.12 1068.78 1199.55 1068.35 1200.07 1068.35C1200.59 1068.35 1201.02 1068.78 1201.02 1069.3Z" fill="white"/>
<path d="M1567.42 540.948C1567.42 541.472 1566.99 541.896 1566.47 541.896C1565.95 541.896 1565.52 541.472 1565.52 540.948C1565.52 540.425 1565.95 540 1566.47 540C1566.99 540 1567.42 540.425 1567.42 540.948Z" fill="white"/>
<path d="M1088.44 1017C1088.44 1017.52 1088.01 1017.95 1087.49 1017.95C1086.96 1017.95 1086.54 1017.52 1086.54 1017C1086.54 1016.47 1086.96 1016.05 1087.49 1016.05C1088.01 1016.05 1088.44 1016.47 1088.44 1017Z" fill="white"/>
<path d="M1257.73 1000.77C1257.73 1001.3 1257.3 1001.72 1256.78 1001.72C1256.26 1001.72 1255.83 1001.3 1255.83 1000.77C1255.83 1000.25 1256.26 999.824 1256.78 999.824C1257.3 999.824 1257.73 1000.25 1257.73 1000.77Z" fill="white"/>
<path d="M1562.74 736.794C1564.28 736.794 1565.52 735.549 1565.52 734.013C1565.52 732.477 1564.28 731.232 1562.74 731.232C1561.21 731.232 1559.96 732.477 1559.96 734.013C1559.96 735.549 1561.21 736.794 1562.74 736.794Z" fill="white"/>
<path d="M1241.95 570.768C1243.49 570.768 1244.73 569.523 1244.73 567.987C1244.73 566.451 1243.49 565.206 1241.95 565.206C1240.41 565.206 1239.17 566.451 1239.17 567.987C1239.17 569.523 1240.41 570.768 1241.95 570.768Z" fill="white"/>
<path d="M1721.25 1057.59C1722.79 1057.59 1724.03 1056.35 1724.03 1054.81C1724.03 1053.28 1722.79 1052.03 1721.25 1052.03C1719.72 1052.03 1718.47 1053.28 1718.47 1054.81C1718.47 1056.35 1719.72 1057.59 1721.25 1057.59Z" fill="white"/>
<path d="M1680.43 567.987C1681.97 567.987 1683.21 566.742 1683.21 565.206C1683.21 563.67 1681.97 562.425 1680.43 562.425C1678.9 562.425 1677.65 563.67 1677.65 565.206C1677.65 566.742 1678.9 567.987 1680.43 567.987Z" fill="white"/>
<path d="M1357.87 543.028L1357.49 541.896L1357.11 543.028C1356.26 545.602 1354.74 547.909 1352.73 549.722C1354.74 551.536 1356.26 553.843 1357.11 556.417L1357.49 557.549L1357.87 556.417C1358.72 553.843 1360.23 551.536 1362.25 549.722C1360.23 547.909 1358.72 545.602 1357.87 543.028Z" fill="white"/>
<path d="M1746.23 543.028L1745.85 541.896L1745.48 543.028C1744.62 545.602 1743.11 547.909 1741.09 549.722C1743.11 551.536 1744.62 553.843 1745.48 556.417L1745.85 557.549L1746.23 556.417C1747.09 553.843 1748.6 551.536 1750.62 549.722C1748.6 547.909 1747.09 545.602 1746.23 543.028Z" fill="white"/>
<path d="M1847.24 905.518L1846.87 904.387L1846.49 905.518C1845.63 908.092 1844.12 910.399 1842.11 912.213C1844.12 914.026 1845.63 916.333 1846.49 918.907L1846.87 920.039L1847.24 918.907C1848.1 916.333 1849.61 914.026 1851.63 912.213C1849.61 910.399 1848.1 908.092 1847.24 905.518Z" fill="white"/>
</g>
<g opacity="0.1" filter="url(#filter3_d_3939_23783)">
<path d="M72.075 565.206C73.611 565.206 74.8561 563.961 74.8561 562.425C74.8561 560.889 73.611 559.644 72.075 559.644C70.5391 559.644 69.2939 560.889 69.2939 562.425C69.2939 563.961 70.5391 565.206 72.075 565.206Z" fill="white"/>
<path d="M200.786 1054.5C200.786 1056.04 199.541 1057.29 198.005 1057.29C196.469 1057.29 195.224 1056.04 195.224 1054.5C195.224 1052.97 196.469 1051.72 198.005 1051.72C199.541 1051.72 200.786 1052.97 200.786 1054.5Z" fill="white"/>
<path d="M228.23 846.529C229.766 846.529 231.011 845.284 231.011 843.748C231.011 842.212 229.766 840.967 228.23 840.967C226.694 840.967 225.449 842.212 225.449 843.748C225.449 845.284 226.694 846.529 228.23 846.529Z" fill="white"/>
<path d="M809.631 832.182C809.631 833.718 808.386 834.963 806.85 834.963C805.315 834.963 804.069 833.718 804.069 832.182C804.069 830.646 805.314 829.401 806.85 829.401C808.386 829.401 809.631 830.646 809.631 832.182Z" fill="white"/>
<path d="M470.873 893.779C470.873 895.315 469.628 896.56 468.091 896.56C466.555 896.56 465.311 895.315 465.311 893.779C465.311 892.243 466.556 890.998 468.091 890.998C469.627 890.998 470.873 892.243 470.873 893.779Z" fill="white"/>
<path d="M56.1278 985.32C57.6637 985.32 58.9088 984.074 58.9088 982.539C58.9088 981.003 57.6637 979.757 56.1278 979.757C54.5918 979.757 53.3467 981.003 53.3467 982.539C53.3467 984.074 54.5918 985.32 56.1278 985.32Z" fill="white"/>
<path d="M100.472 739.575C102.008 739.575 103.254 738.33 103.254 736.794C103.254 735.258 102.008 734.013 100.472 734.013C98.9365 734.013 97.6914 735.258 97.6914 736.794C97.6914 738.33 98.9365 739.575 100.472 739.575Z" fill="white"/>
<path d="M40.3231 776.476C40.8468 776.476 41.2713 776.051 41.2713 775.528C41.2713 775.004 40.8468 774.579 40.3231 774.579C39.7995 774.579 39.375 775.004 39.375 775.528C39.375 776.051 39.7995 776.476 40.3231 776.476Z" fill="white"/>
<path d="M54.2945 662.503C54.2945 663.027 53.8702 663.451 53.3466 663.451C52.823 663.451 52.3984 663.027 52.3984 662.503C52.3984 661.98 52.823 661.555 53.3466 661.555C53.8702 661.555 54.2945 661.98 54.2945 662.503Z" fill="white"/>
<path d="M233.856 767.929C233.856 768.453 233.432 768.877 232.908 768.877C232.384 768.877 231.96 768.453 231.96 767.929C231.96 767.405 232.384 766.981 232.908 766.981C233.432 766.981 233.856 767.405 233.856 767.929Z" fill="white"/>
<path d="M183.716 541.896C183.716 542.42 183.292 542.844 182.768 542.844C182.245 542.844 181.82 542.42 181.82 541.896C181.82 541.373 182.245 540.948 182.768 540.948C183.292 540.948 183.716 541.373 183.716 541.896Z" fill="white"/>
<path d="M342.465 663.452C342.465 663.975 342.041 664.399 341.517 664.399C340.994 664.399 340.569 663.975 340.569 663.452C340.569 662.928 340.994 662.503 341.517 662.503C342.041 662.503 342.465 662.928 342.465 663.452Z" fill="white"/>
<path d="M22.3102 1045.28C22.3102 1045.8 21.8856 1046.23 21.362 1046.23C20.8384 1046.23 20.4141 1045.8 20.4141 1045.28C20.4141 1044.76 20.8384 1044.33 21.362 1044.33C21.8856 1044.33 22.3102 1044.76 22.3102 1045.28Z" fill="white"/>
<path d="M518.182 565.206C518.182 565.729 517.758 566.154 517.234 566.154C516.711 566.154 516.286 565.729 516.286 565.206C516.286 564.682 516.711 564.258 517.234 564.258C517.758 564.258 518.182 564.682 518.182 565.206Z" fill="white"/>
<path d="M372.114 750.61C372.114 751.134 371.69 751.558 371.166 751.558C370.642 751.558 370.218 751.134 370.218 750.61C370.218 750.087 370.642 749.662 371.166 749.662C371.69 749.662 372.114 750.087 372.114 750.61Z" fill="white"/>
<path d="M707.655 724.802C707.655 725.326 707.231 725.75 706.707 725.75C706.183 725.75 705.759 725.326 705.759 724.802C705.759 724.279 706.183 723.854 706.707 723.854C707.231 723.854 707.655 724.279 707.655 724.802Z" fill="white"/>
<path d="M486.022 750.61C486.022 751.134 485.598 751.558 485.074 751.558C484.551 751.558 484.126 751.134 484.126 750.61C484.126 750.087 484.551 749.662 485.074 749.662C485.598 749.662 486.022 750.087 486.022 750.61Z" fill="white"/>
<path d="M810.58 749.662C810.58 750.186 810.155 750.61 809.631 750.61C809.108 750.61 808.684 750.186 808.684 749.662C808.684 749.139 809.108 748.714 809.631 748.714C810.155 748.714 810.58 749.139 810.58 749.662Z" fill="white"/>
<path d="M827.206 678.032C827.206 678.555 826.781 678.98 826.258 678.98C825.734 678.98 825.31 678.555 825.31 678.032C825.31 677.508 825.734 677.083 826.258 677.083C826.781 677.083 827.206 677.508 827.206 678.032Z" fill="white"/>
<path d="M325.783 951.28C325.783 951.804 325.358 952.229 324.835 952.229C324.311 952.229 323.887 951.804 323.887 951.28C323.887 950.757 324.311 950.333 324.835 950.333C325.358 950.333 325.783 950.757 325.783 951.28Z" fill="white"/>
<path d="M662.632 840.967C662.632 841.491 662.208 841.915 661.685 841.915C661.161 841.915 660.736 841.491 660.736 840.967C660.736 840.444 661.161 840.019 661.685 840.019C662.208 840.019 662.632 840.444 662.632 840.967Z" fill="white"/>
<path d="M526.203 999.133C526.203 999.657 525.778 1000.08 525.255 1000.08C524.731 1000.08 524.307 999.657 524.307 999.133C524.307 998.61 524.731 998.185 525.255 998.185C525.778 998.185 526.203 998.61 526.203 999.133Z" fill="white"/>
<path d="M846.175 890.998C846.175 891.522 845.751 891.946 845.227 891.946C844.704 891.946 844.279 891.522 844.279 890.998C844.279 890.474 844.704 890.05 845.227 890.05C845.751 890.05 846.175 890.474 846.175 890.998Z" fill="white"/>
<path d="M613.979 948.499C613.979 949.023 613.555 949.448 613.031 949.448C612.508 949.448 612.083 949.023 612.083 948.499C612.083 947.976 612.508 947.551 613.031 947.551C613.555 947.551 613.979 947.976 613.979 948.499Z" fill="white"/>
<path d="M558.943 975.939C558.943 976.462 558.519 976.887 557.995 976.887C557.471 976.887 557.047 976.462 557.047 975.939C557.047 975.415 557.471 974.991 557.995 974.991C558.519 974.991 558.943 975.415 558.943 975.939Z" fill="white"/>
<path d="M701.944 963.519C701.944 964.043 701.52 964.467 700.996 964.467C700.472 964.467 700.048 964.043 700.048 963.519C700.048 962.996 700.472 962.571 700.996 962.571C701.52 962.571 701.944 962.996 701.944 963.519Z" fill="white"/>
<path d="M623.02 1041.98C623.02 1042.51 622.596 1042.93 622.072 1042.93C621.548 1042.93 621.124 1042.51 621.124 1041.98C621.124 1041.46 621.549 1041.04 622.072 1041.04C622.595 1041.04 623.02 1041.46 623.02 1041.98Z" fill="white"/>
<path d="M821.436 942.382C821.436 942.906 821.012 943.33 820.488 943.33C819.965 943.33 819.54 942.906 819.54 942.382C819.54 941.858 819.965 941.434 820.488 941.434C821.012 941.434 821.436 941.858 821.436 942.382Z" fill="white"/>
<path d="M901.036 1019.57C901.036 1020.09 900.611 1020.52 900.088 1020.52C899.564 1020.52 899.14 1020.09 899.14 1019.57C899.14 1019.04 899.564 1018.62 900.088 1018.62C900.611 1018.62 901.036 1019.04 901.036 1019.57Z" fill="white"/>
<path d="M878.55 758.169C878.55 758.693 878.126 759.117 877.602 759.117C877.079 759.117 876.654 758.693 876.654 758.169C876.654 757.646 877.079 757.221 877.602 757.221C878.126 757.221 878.55 757.646 878.55 758.169Z" fill="white"/>
<path d="M876.407 559.644C876.407 560.167 875.982 560.592 875.459 560.592C874.935 560.592 874.511 560.167 874.511 559.644C874.511 559.12 874.935 558.696 875.459 558.696C875.982 558.696 876.407 559.12 876.407 559.644Z" fill="white"/>
<path d="M533.564 652.389C533.564 652.912 533.14 653.337 532.616 653.337C532.092 653.337 531.668 652.912 531.668 652.389C531.668 651.865 532.092 651.441 532.616 651.441C533.14 651.441 533.564 651.865 533.564 652.389Z" fill="white"/>
<path d="M324.835 739.575C324.835 740.098 324.41 740.523 323.886 740.523C323.363 740.523 322.938 740.098 322.938 739.575C322.938 739.051 323.363 738.627 323.886 738.627C324.41 738.627 324.835 739.051 324.835 739.575Z" fill="white"/>
<path d="M707.655 785.559C707.655 786.082 707.231 786.507 706.707 786.507C706.183 786.507 705.759 786.082 705.759 785.559C705.759 785.035 706.183 784.611 706.707 784.611C707.231 784.611 707.655 785.035 707.655 785.559Z" fill="white"/>
<path d="M232.908 994.559C232.908 995.082 232.483 995.507 231.96 995.507C231.436 995.507 231.012 995.082 231.012 994.559C231.012 994.036 231.436 993.611 231.96 993.611C232.483 993.611 232.908 994.035 232.908 994.559Z" fill="white"/>
<path d="M248.528 1069.3C248.528 1069.82 248.104 1070.25 247.58 1070.25C247.056 1070.25 246.632 1069.82 246.632 1069.3C246.632 1068.78 247.056 1068.35 247.58 1068.35C248.104 1068.35 248.528 1068.78 248.528 1069.3Z" fill="white"/>
<path d="M614.928 540.948C614.928 541.472 614.503 541.896 613.979 541.896C613.456 541.896 613.031 541.472 613.031 540.948C613.031 540.425 613.456 540 613.979 540C614.503 540 614.928 540.425 614.928 540.948Z" fill="white"/>
<path d="M135.944 1017C135.944 1017.52 135.519 1017.95 134.996 1017.95C134.472 1017.95 134.048 1017.52 134.048 1017C134.048 1016.47 134.472 1016.05 134.996 1016.05C135.519 1016.05 135.944 1016.47 135.944 1017Z" fill="white"/>
<path d="M305.236 1000.77C305.236 1001.3 304.812 1001.72 304.288 1001.72C303.764 1001.72 303.34 1001.3 303.34 1000.77C303.34 1000.25 303.764 999.824 304.288 999.824C304.812 999.824 305.236 1000.25 305.236 1000.77Z" fill="white"/>
<path d="M610.25 736.794C611.786 736.794 613.031 735.549 613.031 734.013C613.031 732.477 611.786 731.232 610.25 731.232C608.714 731.232 607.469 732.477 607.469 734.013C607.469 735.549 608.714 736.794 610.25 736.794Z" fill="white"/>
<path d="M289.459 570.768C290.995 570.768 292.24 569.523 292.24 567.987C292.24 566.451 290.995 565.206 289.459 565.206C287.923 565.206 286.678 566.451 286.678 567.987C286.678 569.523 287.923 570.768 289.459 570.768Z" fill="white"/>
<path d="M768.762 1057.59C770.298 1057.59 771.543 1056.35 771.543 1054.81C771.543 1053.28 770.298 1052.03 768.762 1052.03C767.226 1052.03 765.98 1053.28 765.98 1054.81C765.98 1056.35 767.226 1057.59 768.762 1057.59Z" fill="white"/>
<path d="M727.94 567.987C729.476 567.987 730.721 566.742 730.721 565.206C730.721 563.67 729.476 562.425 727.94 562.425C726.404 562.425 725.159 563.67 725.159 565.206C725.159 566.742 726.404 567.987 727.94 567.987Z" fill="white"/>
<path d="M405.375 543.028L404.998 541.896L404.621 543.028C403.765 545.602 402.253 547.909 400.235 549.722C402.253 551.536 403.765 553.843 404.621 556.417L404.998 557.549L405.375 556.417C406.231 553.843 407.743 551.536 409.761 549.722C407.743 547.909 406.231 545.602 405.375 543.028Z" fill="white"/>
<path d="M793.738 543.028L793.361 541.896L792.985 543.028C792.128 545.602 790.616 547.909 788.599 549.722C790.616 551.536 792.128 553.843 792.985 556.417L793.361 557.549L793.738 556.417C794.595 553.843 796.106 551.536 798.124 549.722C796.106 547.909 794.595 545.602 793.738 543.028Z" fill="white"/>
<path d="M894.754 905.518L894.377 904.387L894 905.518C893.144 908.092 891.632 910.399 889.614 912.213C891.632 914.026 893.144 916.333 894 918.907L894.377 920.039L894.754 918.907C895.61 916.333 897.122 914.026 899.14 912.213C897.122 910.399 895.61 908.092 894.754 905.518Z" fill="white"/>
</g>
</g>
<defs>
<filter id="filter0_d_3939_23783" x="56.3089" y="-37.5951" width="910.76" height="584.664" filterUnits="userSpaceOnUse" color-interpolation-filters="sRGB">
<feFlood flood-opacity="0" result="BackgroundImageFix"/>
<feColorMatrix in="SourceAlpha" type="matrix" values="0 0 0 0 0 0 0 0 0 0 0 0 0 0 0 0 0 0 127 0" result="hardAlpha"/>
<feOffset/>
<feGaussianBlur stdDeviation="7.53451"/>
<feColorMatrix type="matrix" values="0 0 0 0 1 0 0 0 0 1 0 0 0 0 1 0 0 0 0.9 0"/>
<feBlend mode="normal" in2="BackgroundImageFix" result="effect1_dropShadow_3939_23783"/>
<feBlend mode="normal" in="SourceGraphic" in2="effect1_dropShadow_3939_23783" result="shape"/>
</filter>
<filter id="filter1_d_3939_23783" x="953.074" y="-37.5951" width="915.523" height="584.664" filterUnits="userSpaceOnUse" color-interpolation-filters="sRGB">
<feFlood flood-opacity="0" result="BackgroundImageFix"/>
<feColorMatrix in="SourceAlpha" type="matrix" values="0 0 0 0 0 0 0 0 0 0 0 0 0 0 0 0 0 0 127 0" result="hardAlpha"/>
<feOffset/>
<feGaussianBlur stdDeviation="7.53451"/>
<feColorMatrix type="matrix" values="0 0 0 0 1 0 0 0 0 1 0 0 0 0 1 0 0 0 0.9 0"/>
<feBlend mode="normal" in2="BackgroundImageFix" result="effect1_dropShadow_3939_23783"/>
<feBlend mode="normal" in="SourceGraphic" in2="effect1_dropShadow_3939_23783" result="shape"/>
</filter>
<filter id="filter2_d_3939_23783" x="957.836" y="524.931" width="910.76" height="584.664" filterUnits="userSpaceOnUse" color-interpolation-filters="sRGB">
<feFlood flood-opacity="0" result="BackgroundImageFix"/>
<feColorMatrix in="SourceAlpha" type="matrix" values="0 0 0 0 0 0 0 0 0 0 0 0 0 0 0 0 0 0 127 0" result="hardAlpha"/>
<feOffset/>
<feGaussianBlur stdDeviation="7.53451"/>
<feColorMatrix type="matrix" values="0 0 0 0 1 0 0 0 0 1 0 0 0 0 1 0 0 0 0.9 0"/>
<feBlend mode="normal" in2="BackgroundImageFix" result="effect1_dropShadow_3939_23783"/>
<feBlend mode="normal" in="SourceGraphic" in2="effect1_dropShadow_3939_23783" result="shape"/>
</filter>
<filter id="filter3_d_3939_23783" x="5.34504" y="524.931" width="910.76" height="584.664" filterUnits="userSpaceOnUse" color-interpolation-filters="sRGB">
<feFlood flood-opacity="0" result="BackgroundImageFix"/>
<feColorMatrix in="SourceAlpha" type="matrix" values="0 0 0 0 0 0 0 0 0 0 0 0 0 0 0 0 0 0 127 0" result="hardAlpha"/>
<feOffset/>
<feGaussianBlur stdDeviation="7.53451"/>
<feColorMatrix type="matrix" values="0 0 0 0 1 0 0 0 0 1 0 0 0 0 1 0 0 0 0.9 0"/>
<feBlend mode="normal" in2="BackgroundImageFix" result="effect1_dropShadow_3939_23783"/>
<feBlend mode="normal" in="SourceGraphic" in2="effect1_dropShadow_3939_23783" result="shape"/>
</filter>
<clipPath id="clip0_3939_23783">
<rect width="1920" height="1080" fill="white"/>
</clipPath>
</defs>
</svg>
