<svg width="1024" height="640" viewBox="0 0 1024 640" fill="none" xmlns="http://www.w3.org/2000/svg">
<g clip-path="url(#clip0_6135_40133)">
<rect width="1024" height="640" fill="white"/>
<path d="M1024 0H0V640H1024V0Z" fill="url(#paint0_linear_6135_40133)"/>
<path d="M0 639.966L0.000373333 275C7.12651 292.297 8.96144 311.26 5.50357 329.415C24.5615 349.842 26.4523 380.474 11.1764 402.927C13.7068 405.59 15.7925 408.521 17.4357 411.624C34.2606 405.768 53.6972 409.56 67.1388 423.002C81.0403 436.903 84.6181 457.216 77.8792 474.421C83.5241 482.451 86.2823 491.888 86.1596 501.296C99.9281 500.114 114.105 504.789 124.641 515.325C135.177 525.861 139.852 540.038 138.67 553.806C148.078 553.684 157.515 556.442 165.545 562.087C182.75 555.348 203.063 558.926 216.964 572.827C230.406 586.269 234.198 605.706 228.342 622.531C231.445 624.174 234.376 626.26 237.038 628.79C259.492 613.514 290.124 615.405 310.551 634.463C328.706 631.005 347.669 632.84 364.966 639.966L0 639.966Z" fill="black" fill-opacity="0.1"/>
<path d="M1024 639.966L1024 275C1016.87 292.297 1015.04 311.26 1018.5 329.415C999.438 349.842 997.548 380.474 1012.82 402.927C1010.29 405.59 1008.21 408.521 1006.56 411.624C989.739 405.768 970.303 409.56 956.861 423.002C942.96 436.903 939.382 457.216 946.121 474.421C940.476 482.451 937.718 491.888 937.84 501.296C924.072 500.114 909.895 504.789 899.359 515.325C888.822 525.861 884.148 540.038 885.33 553.806C875.922 553.684 866.485 556.442 858.455 562.087C841.25 555.348 820.937 558.926 807.036 572.827C793.594 586.269 789.802 605.706 795.658 622.531C792.555 624.174 789.624 626.26 786.962 628.79C764.508 613.514 733.876 615.405 713.449 634.463C695.294 631.005 676.331 632.84 659.034 639.966L1024 639.966Z" fill="black" fill-opacity="0.1"/>
<g opacity="0.05">
<path d="M276.438 397.06C276.382 397.06 276.327 397.064 276.271 397.074L172.936 413.938C172.67 413.981 172.429 414.12 172.257 414.328L140.711 452.495C140.697 452.512 140.684 452.529 140.672 452.546L91.4365 519.562C91.0717 520.059 91.1779 520.759 91.6734 521.125C91.9371 521.32 92.2732 521.388 92.5916 521.313L144.571 508.9L212.839 500.008L229.929 561.725C229.957 561.824 229.998 561.919 230.051 562.008L243.811 584.603C244.132 585.129 244.817 585.296 245.343 584.974C245.868 584.651 246.033 583.963 245.712 583.437L232.034 560.975L214.857 498.951L277.394 398.771C277.721 398.248 277.562 397.558 277.041 397.23C276.86 397.116 276.651 397.057 276.438 397.06ZM274.198 399.678L212.988 497.733L144.226 506.689C144.187 506.694 144.149 506.702 144.112 506.711L95.0365 518.43L142.446 453.899L173.706 416.079L274.198 399.678Z" fill="#D6E4FF"/>
<path d="M98.4584 520.528C98.4584 524.258 95.4457 527.282 91.7293 527.282C88.013 527.282 85 524.258 85 520.528C85 516.799 88.0127 513.775 91.7293 513.775C95.4457 513.775 98.4584 516.799 98.4584 520.528Z" fill="#D6E4FF"/>
<path d="M152.035 508.395C152.035 512.124 149.023 515.148 145.306 515.148C141.59 515.148 138.577 512.124 138.577 508.395C138.577 504.665 141.59 501.642 145.306 501.642C149.023 501.642 152.035 504.665 152.035 508.395Z" fill="#D6E4FF"/>
<path d="M219.432 497.388C219.432 501.118 216.42 504.141 212.703 504.141C208.986 504.141 205.974 501.118 205.974 497.388C205.974 493.658 208.986 490.635 212.703 490.635C216.42 490.635 219.432 493.658 219.432 497.388Z" fill="#D6E4FF"/>
<path d="M238.403 561.826C238.403 565.556 235.39 568.579 231.674 568.579C227.957 568.579 224.945 565.556 224.945 561.826C224.945 558.097 227.957 555.073 231.674 555.073C235.39 555.073 238.403 558.097 238.403 561.826Z" fill="#D6E4FF"/>
<path d="M252.581 584.247C252.581 587.977 249.568 591 245.852 591C242.135 591 239.122 587.977 239.122 584.247C239.122 580.518 242.135 577.494 245.852 577.494C249.568 577.494 252.581 580.518 252.581 584.247Z" fill="#D6E4FF"/>
<path d="M285 397.754C285 401.483 281.988 404.507 278.271 404.507C274.555 404.507 271.542 401.483 271.542 397.754C271.542 394.023 274.555 391 278.271 391C281.988 391 285 394.024 285 397.754Z" fill="#D6E4FF"/>
<path d="M178.578 416.123C178.578 419.853 175.566 422.876 171.849 422.876C168.133 422.877 165.119 419.853 165.119 416.123C165.119 412.394 168.132 409.37 171.849 409.37C175.566 409.37 178.578 412.394 178.578 416.123Z" fill="#D6E4FF"/>
<path d="M148.648 453.637C148.648 457.367 145.635 460.39 141.919 460.39C138.203 460.39 135.19 457.367 135.19 453.637C135.19 449.907 138.203 446.884 141.919 446.884C145.635 446.884 148.648 449.907 148.648 453.637Z" fill="#D6E4FF"/>
</g>
<g opacity="0.05">
<path d="M736.079 395.309C735.697 395.214 735.293 395.287 734.969 395.511L702.543 417.856C701.921 418.287 701.765 419.138 702.194 419.761C702.623 420.383 703.476 420.54 704.098 420.112L735.956 398.16L782.25 414.076L818.145 458.374L802.257 530.977L785.297 506.443C785.092 506.148 784.78 505.944 784.426 505.877C784.361 505.864 784.297 505.856 784.231 505.853L743.37 504.007C743.122 503.996 742.874 504.052 742.656 504.171L733.959 508.889C733.716 509.021 733.517 509.224 733.391 509.471L719.633 536.464C719.289 537.138 719.556 537.964 720.231 538.308L720.232 538.308C720.905 538.652 721.731 538.385 722.076 537.711L722.076 537.71L735.641 511.094L743.627 506.762L783.43 508.562L801.045 534.045L772.966 555.081C772.891 555.137 772.823 555.2 772.761 555.27L750.218 580.825C749.716 581.392 749.77 582.258 750.337 582.759C750.337 582.76 750.338 582.76 750.338 582.761C750.906 583.262 751.772 583.209 752.274 582.642C752.274 582.641 752.275 582.64 752.275 582.64L774.725 557.188L803.248 535.821L914.937 559.432C915.674 559.589 916.399 559.122 916.561 558.386L932.197 487.266C932.354 486.547 931.915 485.831 931.202 485.646L820.406 456.811L784.132 412.047C783.97 411.847 783.756 411.696 783.512 411.613L736.193 395.344C736.156 395.329 736.118 395.315 736.08 395.303L736.079 395.309ZM820.659 459.71L929.236 487.967L914.175 556.47L804.557 533.294L820.659 459.71Z" fill="#D6E4FF"/>
<path d="M827.97 461.768C827.016 465.967 822.838 468.597 818.639 467.643C814.44 466.689 811.808 462.512 812.762 458.314C813.717 454.115 817.895 451.485 822.094 452.439C826.293 453.392 828.924 457.569 827.97 461.768Z" fill="#D6E4FF"/>
<path d="M938.805 489.548C937.85 493.746 933.673 496.377 929.474 495.423C925.275 494.469 922.644 490.292 923.598 486.094C924.552 481.895 928.73 479.265 932.929 480.219C937.128 481.173 939.759 485.35 938.805 489.548Z" fill="#D6E4FF"/>
<path d="M921.867 560.811C920.913 565.009 916.735 567.639 912.536 566.685C908.336 565.731 905.706 561.555 906.66 557.356C907.614 553.158 911.791 550.528 915.991 551.482C920.191 552.436 922.821 556.612 921.867 560.811Z" fill="#D6E4FF"/>
<path d="M810.582 536.648C809.628 540.846 805.45 543.476 801.251 542.522C797.052 541.568 794.421 537.392 795.375 533.193C796.33 528.995 800.507 526.365 804.706 527.318C808.905 528.272 811.536 532.449 810.582 536.648Z" fill="#D6E4FF"/>
<path d="M782.244 556.609C781.29 560.808 777.112 563.439 772.913 562.485C768.714 561.531 766.083 557.354 767.038 553.155C767.992 548.957 772.169 546.327 776.368 547.28C780.567 548.234 783.198 552.411 782.244 556.609Z" fill="#D6E4FF"/>
<path d="M790.021 509.295C789.067 513.493 784.889 516.123 780.69 515.169C776.491 514.215 773.861 510.039 774.815 505.84C775.769 501.642 779.946 499.011 784.145 499.965C788.345 500.919 790.975 505.096 790.021 509.295Z" fill="#D6E4FF"/>
<path d="M745.768 509.281C744.814 513.48 740.636 516.11 736.437 515.156C732.238 514.202 729.607 510.025 730.561 505.827C731.516 501.629 735.693 498.998 739.892 499.952C744.091 500.906 746.722 505.083 745.768 509.281Z" fill="#D6E4FF"/>
<path d="M727.494 538.967C726.54 543.166 722.362 545.796 718.162 544.842C713.963 543.888 711.333 539.711 712.287 535.513C713.241 531.314 717.418 528.684 721.617 529.638C725.817 530.592 728.447 534.769 727.494 538.967Z" fill="#D6E4FF"/>
<path d="M709.402 422.192C708.448 426.39 704.27 429.02 700.071 428.066C695.872 427.112 693.241 422.936 694.195 418.737C695.15 414.539 699.327 411.909 703.526 412.862C707.725 413.816 710.356 417.993 709.402 422.192Z" fill="#D6E4FF"/>
<path d="M743.334 400.525C742.38 404.723 738.202 407.353 734.003 406.399C729.803 405.445 727.173 401.269 728.127 397.07C729.081 392.872 733.258 390.242 737.457 391.195C741.657 392.149 744.288 396.326 743.334 400.525Z" fill="#D6E4FF"/>
<path d="M790.191 415.259C789.237 419.457 785.06 422.087 780.861 421.134C776.662 420.18 774.031 416.003 774.985 411.805C775.939 407.606 780.117 404.976 784.316 405.93C788.515 406.884 791.146 411.06 790.191 415.259Z" fill="#D6E4FF"/>
<path d="M757.957 584.93C757.003 589.128 752.826 591.758 748.627 590.805C744.428 589.851 741.797 585.674 742.751 581.475C743.705 577.277 747.883 574.647 752.082 575.601C756.281 576.555 758.911 580.731 757.957 584.93Z" fill="#D6E4FF"/>
</g>
<path opacity="0.05" d="M886.661 265.058C891.848 264.239 895.39 259.364 894.572 254.17C894.065 250.95 892 248.366 889.268 247.06L904.754 206.739C909.507 205.577 912.658 200.943 911.883 196.016C911.107 191.088 906.686 187.65 901.805 188.009L875.284 155.164C877.207 153.096 878.202 150.201 877.728 147.193C877.221 143.972 875.156 141.388 872.424 140.082L887.912 99.761C892.664 98.598 895.814 93.9654 895.038 89.0381C894.263 84.1112 889.842 80.6736 884.963 81.0317L857.837 47.4402C860.035 45.3558 861.206 42.2602 860.699 39.0392C859.881 33.8457 855.014 30.2988 849.828 31.1175C845.04 31.8736 841.662 36.0875 841.814 40.8169L795.467 48.1353C793.486 45.0785 789.839 43.3021 786.012 43.9063C780.826 44.7251 777.284 49.5999 778.102 54.7935C778.576 57.8002 780.41 60.2473 782.874 61.6228L768.906 97.99C767.94 97.8345 766.935 97.8214 765.916 97.9824C760.928 98.7704 757.473 103.311 757.943 108.278L713.586 115.282C711.904 111.393 707.766 108.972 703.392 109.663C698.205 110.482 694.664 115.356 695.482 120.55C695.897 123.185 697.356 125.393 699.368 126.825L683.667 167.705C682.506 167.433 681.277 167.371 680.027 167.569C674.841 168.388 671.3 173.262 672.117 178.457C672.935 183.651 677.802 187.197 682.989 186.378C684.239 186.18 685.389 185.743 686.41 185.127L714.559 219.989C711.634 222.001 709.95 225.571 710.54 229.316C711.358 234.51 716.225 238.057 721.412 237.238C726.598 236.419 730.14 231.545 729.322 226.35C729.306 226.251 729.279 226.157 729.261 226.058L774.807 218.866C776.116 223.413 780.624 226.381 785.412 225.625C786.297 225.486 787.129 225.22 787.904 224.863L815.727 259.318C813.997 261.359 813.126 264.109 813.576 266.961C814.393 272.155 819.261 275.701 824.447 274.883C829.235 274.126 832.613 269.912 832.461 265.183L876.057 258.299C877.365 262.845 881.874 265.814 886.661 265.058ZM786.262 62.7474C787.142 62.8625 788.052 62.8609 788.974 62.7155C794.16 61.8965 797.702 57.0219 796.884 51.8279C796.868 51.7284 796.841 51.6337 796.823 51.5354L842.596 44.308C844.278 48.1971 848.415 50.6176 852.789 49.9273C853.497 49.8156 854.17 49.6222 854.809 49.3692L881.235 82.0949C877.726 83.938 875.605 87.8657 876.257 92.0037C876.909 96.1416 880.133 99.226 884.038 99.8984L868.951 139.18C868.265 139.136 867.564 139.159 866.857 139.271C862.482 139.962 859.289 143.54 858.884 147.759L851.849 148.87L812.311 155.113C810.33 152.056 806.683 150.279 802.856 150.884C802.729 150.904 802.608 150.937 802.483 150.962L773.31 114.835C775.899 112.769 777.34 109.412 776.788 105.904C776.33 102.995 774.601 100.604 772.258 99.2064L786.262 62.7474ZM784.545 206.725C783.859 206.68 783.158 206.704 782.451 206.816C778.076 207.507 774.884 211.085 774.478 215.303L727.905 222.658C725.925 219.601 722.277 217.824 718.45 218.429C718.286 218.455 718.127 218.496 717.966 218.53L689.064 182.738C690.58 180.744 691.319 178.162 690.898 175.491C690.478 172.819 688.982 170.59 686.927 169.16L702.615 128.317C703.803 128.609 705.068 128.675 706.354 128.472C711.141 127.716 714.519 123.502 714.368 118.773L758.943 111.734C760.767 115.293 764.717 117.449 768.877 116.792C769.255 116.732 769.619 116.645 769.978 116.544L798.966 152.444C796.04 154.456 794.356 158.026 794.946 161.771C795.391 164.6 797.042 166.932 799.286 168.344L784.545 206.725ZM831.679 261.692C829.997 257.803 825.86 255.382 821.486 256.073C820.411 256.243 819.413 256.595 818.503 257.08L790.807 222.781C792.776 220.708 793.802 217.781 793.322 214.738C792.843 211.694 790.968 209.225 788.458 207.859L803.105 169.725C803.986 169.84 804.896 169.839 805.817 169.693C811.004 168.874 814.545 163.999 813.728 158.806C813.712 158.706 813.685 158.612 813.667 158.513L858.444 151.443L859.212 151.322C860.522 155.868 865.03 158.837 869.818 158.08C870.738 157.935 871.603 157.656 872.405 157.277L898.078 189.073C894.569 190.916 892.449 194.844 893.101 198.981C893.752 203.119 896.976 206.203 900.882 206.876L885.794 246.157C885.108 246.114 884.408 246.137 883.7 246.249C879.326 246.939 876.134 250.517 875.728 254.736L831.679 261.692Z" fill="#3D63B7"/>
</g>
<defs>
<linearGradient id="paint0_linear_6135_40133" x1="512" y1="640" x2="512" y2="0" gradientUnits="userSpaceOnUse">
<stop stop-color="#043D84"/>
<stop offset="1" stop-color="#021A38"/>
</linearGradient>
<clipPath id="clip0_6135_40133">
<rect width="1024" height="640" fill="white"/>
</clipPath>
</defs>
</svg>
