<svg width="1920" height="1080" viewBox="0 0 1920 1080" fill="none" xmlns="http://www.w3.org/2000/svg">
<g clip-path="url(#clip0_4136_26579)">
<g opacity="0.1">
<path d="M1920 1080L1920 395.688C1906.64 428.12 1903.2 463.676 1909.68 497.717C1873.95 536.017 1870.4 593.453 1899.04 635.552C1894.3 640.545 1890.39 646.04 1887.31 651.858C1855.76 640.878 1819.32 647.989 1794.11 673.192C1768.05 699.257 1761.34 737.343 1773.98 769.603C1763.39 784.658 1758.22 802.354 1758.45 819.993C1732.63 817.778 1706.05 826.542 1686.3 846.298C1666.54 866.054 1657.78 892.634 1659.99 918.451C1642.35 918.22 1624.66 923.392 1609.6 933.976C1577.34 921.341 1539.26 928.05 1513.19 954.115C1487.99 979.318 1480.88 1015.76 1491.86 1047.31C1486.04 1050.39 1480.55 1054.3 1475.55 1059.04C1433.45 1030.4 1376.02 1033.95 1337.72 1069.68C1303.68 1063.2 1268.12 1066.64 1235.69 1080L1920 1080Z" fill="black"/>
<path d="M0 1080L0.0007 395.688C13.3622 428.12 16.8027 463.676 10.3192 497.717C46.0529 536.017 49.5981 593.453 20.9558 635.552C25.7003 640.545 29.6109 646.04 32.6919 651.858C64.2387 640.878 100.682 647.989 125.885 673.192C151.951 699.257 158.659 737.343 146.024 769.603C156.608 784.658 161.779 802.354 161.549 819.993C187.365 817.778 213.946 826.542 233.702 846.298C253.458 866.054 262.222 892.634 260.007 918.451C277.646 918.22 295.341 923.392 310.397 933.976C342.656 921.341 380.743 928.05 406.808 954.115C432.011 979.318 439.121 1015.76 428.142 1047.31C433.96 1050.39 439.454 1054.3 444.447 1059.04C486.547 1030.4 543.983 1033.95 582.283 1069.68C616.323 1063.2 651.88 1066.64 684.311 1080L0 1080Z" fill="black"/>
</g>
<g opacity="0.05">
<path d="M453.849 550.815C453.745 550.815 453.642 550.823 453.539 550.841L261.698 582.039C261.204 582.118 260.756 582.374 260.437 582.759L201.872 653.365C201.847 653.395 201.822 653.427 201.799 653.459L110.394 777.431C109.717 778.35 109.914 779.646 110.834 780.323C111.323 780.683 111.947 780.81 112.538 780.67L209.038 757.708L335.776 741.26L367.505 855.428C367.556 855.612 367.632 855.789 367.732 855.952L393.277 897.751C393.872 898.724 395.145 899.032 396.12 898.437C397.095 897.84 397.402 896.567 396.807 895.593L371.413 854.041L339.525 739.303L455.624 553.981C456.23 553.013 455.936 551.736 454.967 551.129C454.633 550.92 454.245 550.811 453.849 550.815ZM449.691 555.658L336.054 737.05L208.397 753.618C208.326 753.627 208.255 753.641 208.185 753.658L117.077 775.338L205.094 655.961L263.126 585.998L449.691 555.658Z" fill="#D6E4FF"/>
<path d="M123.43 779.221C123.43 786.12 117.837 791.713 110.938 791.713C104.038 791.713 98.4446 786.12 98.4446 779.221C98.4446 772.321 104.038 766.728 110.938 766.728C117.837 766.728 123.43 772.321 123.43 779.221Z" fill="#D6E4FF"/>
<path d="M222.896 756.773C222.896 763.673 217.302 769.266 210.403 769.266C203.504 769.266 197.91 763.673 197.91 756.773C197.91 749.874 203.503 744.281 210.403 744.281C217.302 744.281 222.896 749.874 222.896 756.773Z" fill="#D6E4FF"/>
<path d="M348.018 736.412C348.018 743.311 342.425 748.904 335.524 748.904C328.624 748.904 323.032 743.311 323.032 736.412C323.032 729.513 328.625 723.919 335.524 723.919C342.425 723.919 348.018 729.513 348.018 736.412Z" fill="#D6E4FF"/>
<path d="M383.236 855.616C383.236 862.515 377.643 868.108 370.744 868.108C363.844 868.108 358.251 862.515 358.251 855.616C358.251 848.716 363.844 843.123 370.744 843.123C377.643 843.123 383.236 848.716 383.236 855.616Z" fill="#D6E4FF"/>
<path d="M409.558 897.092C409.558 903.992 403.965 909.585 397.065 909.585C390.166 909.585 384.572 903.992 384.572 897.092C384.572 890.193 390.165 884.6 397.065 884.6C403.965 884.6 409.558 890.193 409.558 897.092Z" fill="#D6E4FF"/>
<path d="M469.744 552.099C469.744 558.998 464.151 564.591 457.252 564.591C450.352 564.591 444.758 558.998 444.758 552.099C444.758 545.198 450.352 539.605 457.252 539.605C464.151 539.605 469.744 545.199 469.744 552.099Z" fill="#D6E4FF"/>
<path d="M272.172 586.08C272.172 592.979 266.579 598.572 259.68 598.572C252.78 598.573 247.186 592.979 247.186 586.08C247.186 579.18 252.779 573.587 259.68 573.587C266.579 573.587 272.172 579.18 272.172 586.08Z" fill="#D6E4FF"/>
<path d="M216.607 655.477C216.607 662.376 211.014 667.969 204.114 667.969C197.215 667.969 191.622 662.376 191.622 655.477C191.622 648.578 197.215 642.984 204.114 642.984C211.014 642.984 216.607 648.578 216.607 655.477Z" fill="#D6E4FF"/>
</g>
<g opacity="0.05">
<path d="M1484.44 596.8C1483.83 596.648 1483.18 596.765 1482.66 597.124L1430.6 633.01C1429.6 633.701 1429.35 635.069 1430.04 636.07C1430.72 637.068 1432.09 637.321 1433.09 636.633L1484.25 601.379L1558.58 626.94L1616.22 698.08L1590.71 814.678L1563.47 775.278C1563.14 774.803 1562.64 774.476 1562.08 774.368C1561.97 774.348 1561.87 774.335 1561.76 774.33L1496.15 771.366C1495.75 771.348 1495.36 771.438 1495 771.629L1481.04 779.205C1480.65 779.417 1480.33 779.744 1480.13 780.14L1458.04 823.49C1457.48 824.573 1457.91 825.899 1459 826.452L1459 826.452C1460.08 827.004 1461.41 826.575 1461.96 825.492L1461.96 825.491L1483.74 782.747L1496.56 775.79L1560.47 778.68L1588.76 819.606L1543.67 853.389C1543.55 853.478 1543.44 853.579 1543.34 853.692L1507.15 894.732C1506.34 895.642 1506.43 897.034 1507.34 897.839C1507.34 897.84 1507.34 897.84 1507.34 897.841C1508.25 898.646 1509.64 898.561 1510.45 897.65C1510.45 897.649 1510.45 897.648 1510.45 897.647L1546.5 856.772L1592.3 822.457L1771.64 860.377C1772.82 860.628 1773.98 859.878 1774.24 858.697L1799.35 744.48C1799.6 743.325 1798.9 742.175 1797.75 741.878L1619.85 695.571L1561.6 623.68C1561.34 623.36 1561 623.118 1560.61 622.983L1484.63 596.856C1484.57 596.832 1484.51 596.81 1484.45 596.791L1484.44 596.8ZM1620.25 700.226L1794.59 745.606L1770.41 855.619L1594.4 818.399L1620.25 700.226Z" fill="#D6E4FF"/>
<path d="M1631.99 703.532C1630.46 710.274 1623.75 714.498 1617.01 712.967C1610.27 711.435 1606.04 704.727 1607.57 697.984C1609.11 691.241 1615.82 687.017 1622.56 688.549C1629.3 690.081 1633.52 696.788 1631.99 703.532Z" fill="#D6E4FF"/>
<path d="M1809.96 748.146C1808.43 754.888 1801.72 759.112 1794.98 757.58C1788.23 756.048 1784.01 749.341 1785.54 742.598C1787.07 735.856 1793.78 731.632 1800.52 733.163C1807.27 734.695 1811.49 741.403 1809.96 748.146Z" fill="#D6E4FF"/>
<path d="M1782.76 862.591C1781.23 869.334 1774.52 873.558 1767.78 872.026C1761.04 870.494 1756.81 863.786 1758.34 857.044C1759.88 850.301 1766.58 846.077 1773.33 847.609C1780.07 849.141 1784.29 855.849 1782.76 862.591Z" fill="#D6E4FF"/>
<path d="M1604.07 823.785C1602.54 830.527 1595.83 834.751 1589.09 833.219C1582.35 831.687 1578.12 824.979 1579.66 818.237C1581.19 811.494 1587.9 807.271 1594.64 808.802C1601.38 810.334 1605.6 817.042 1604.07 823.785Z" fill="#D6E4FF"/>
<path d="M1558.57 855.844C1557.04 862.586 1550.33 866.811 1543.59 865.279C1536.85 863.747 1532.62 857.04 1534.15 850.296C1535.69 843.554 1542.39 839.33 1549.14 840.861C1555.88 842.393 1560.1 849.101 1558.57 855.844Z" fill="#D6E4FF"/>
<path d="M1571.06 779.857C1569.53 786.6 1562.82 790.824 1556.08 789.292C1549.33 787.76 1545.11 781.052 1546.64 774.31C1548.17 767.567 1554.88 763.342 1561.62 764.874C1568.37 766.406 1572.59 773.114 1571.06 779.857Z" fill="#D6E4FF"/>
<path d="M1500 779.836C1498.47 786.578 1491.76 790.802 1485.02 789.27C1478.28 787.738 1474.05 781.031 1475.58 774.288C1477.12 767.546 1483.82 763.321 1490.57 764.853C1497.31 766.385 1501.53 773.093 1500 779.836Z" fill="#D6E4FF"/>
<path d="M1470.66 827.51C1469.13 834.253 1462.42 838.477 1455.68 836.945C1448.93 835.413 1444.71 828.705 1446.24 821.963C1447.77 815.22 1454.48 810.996 1461.22 812.528C1467.97 814.06 1472.19 820.768 1470.66 827.51Z" fill="#D6E4FF"/>
<path d="M1441.61 639.973C1440.08 646.715 1433.37 650.939 1426.63 649.407C1419.88 647.876 1415.66 641.168 1417.19 634.425C1418.72 627.683 1425.43 623.459 1432.17 624.991C1438.92 626.523 1443.14 633.23 1441.61 639.973Z" fill="#D6E4FF"/>
<path d="M1496.09 605.176C1494.56 611.919 1487.85 616.143 1481.11 614.611C1474.37 613.079 1470.14 606.371 1471.68 599.629C1473.21 592.886 1479.92 588.662 1486.66 590.194C1493.4 591.726 1497.63 598.434 1496.09 605.176Z" fill="#D6E4FF"/>
<path d="M1571.33 628.84C1569.8 635.582 1563.09 639.806 1556.35 638.274C1549.61 636.742 1545.38 630.035 1546.92 623.292C1548.45 616.55 1555.16 612.326 1561.9 613.858C1568.64 615.389 1572.86 622.097 1571.33 628.84Z" fill="#D6E4FF"/>
<path d="M1519.57 901.325C1518.04 908.067 1511.33 912.291 1504.59 910.759C1497.85 909.228 1493.63 902.52 1495.16 895.777C1496.69 889.035 1503.4 884.811 1510.14 886.343C1516.88 887.875 1521.11 894.582 1519.57 901.325Z" fill="#D6E4FF"/>
</g>
<path opacity="0.05" d="M1639.46 449.779C1647.3 448.543 1652.65 441.187 1651.42 433.349C1650.65 428.49 1647.53 424.59 1643.4 422.619L1666.81 361.774C1673.99 360.02 1678.75 353.028 1677.58 345.592C1676.41 338.156 1669.72 332.969 1662.35 333.51L1622.27 283.946C1625.17 280.825 1626.68 276.457 1625.96 271.918C1625.2 267.058 1622.07 263.158 1617.95 261.187L1641.35 200.342C1648.53 198.587 1653.29 191.596 1652.12 184.16C1650.95 176.726 1644.27 171.538 1636.9 172.079L1595.9 121.388C1599.22 118.243 1600.99 113.571 1600.23 108.711C1598.99 100.874 1591.64 95.5212 1583.8 96.7566C1576.56 97.8976 1571.46 104.257 1571.69 111.393L1501.65 122.437C1498.65 117.824 1493.14 115.144 1487.36 116.055C1479.52 117.291 1474.17 124.647 1475.4 132.484C1476.12 137.022 1478.89 140.714 1482.62 142.79L1461.51 197.669C1460.05 197.434 1458.53 197.415 1456.99 197.658C1449.45 198.847 1444.23 205.698 1444.94 213.194L1377.91 223.763C1375.36 217.894 1369.11 214.241 1362.5 215.284C1354.66 216.519 1349.31 223.876 1350.55 231.713C1351.17 235.69 1353.38 239.02 1356.42 241.182L1332.69 302.87C1330.94 302.46 1329.08 302.368 1327.19 302.665C1319.35 303.901 1314 311.257 1315.24 319.095C1316.47 326.933 1323.83 332.285 1331.67 331.049C1333.56 330.751 1335.29 330.091 1336.84 329.161L1379.38 381.769C1374.96 384.806 1372.41 390.193 1373.3 395.844C1374.54 403.682 1381.89 409.034 1389.73 407.798C1397.57 406.563 1402.92 399.207 1401.69 391.369C1401.66 391.219 1401.62 391.076 1401.59 390.928L1470.43 380.075C1472.4 386.936 1479.22 391.415 1486.45 390.274C1487.79 390.063 1489.05 389.663 1490.22 389.124L1532.26 441.118C1529.65 444.197 1528.33 448.348 1529.01 452.65C1530.25 460.488 1537.6 465.84 1545.44 464.605C1552.68 463.464 1557.78 457.105 1557.55 449.968L1623.44 439.579C1625.41 446.44 1632.23 450.92 1639.46 449.779ZM1487.74 144.487C1489.07 144.661 1490.44 144.658 1491.83 144.439C1499.67 143.203 1505.02 135.847 1503.79 128.009C1503.76 127.859 1503.72 127.716 1503.7 127.568L1572.87 116.662C1575.41 122.53 1581.66 126.183 1588.27 125.141C1589.34 124.973 1590.36 124.681 1591.33 124.299L1631.26 173.683C1625.96 176.464 1622.75 182.391 1623.74 188.636C1624.72 194.88 1629.6 199.534 1635.5 200.549L1612.7 259.825C1611.66 259.759 1610.6 259.795 1609.53 259.963C1602.92 261.006 1598.1 266.405 1597.48 272.772L1586.85 274.449L1527.1 283.869C1524.11 279.256 1518.6 276.575 1512.81 277.487C1512.62 277.517 1512.44 277.568 1512.25 277.606L1468.16 223.088C1472.08 219.971 1474.25 214.905 1473.42 209.611C1472.73 205.222 1470.11 201.614 1466.57 199.505L1487.74 144.487ZM1485.14 361.752C1484.1 361.686 1483.05 361.721 1481.98 361.89C1475.37 362.933 1470.54 368.332 1469.93 374.698L1399.55 385.797C1396.55 381.183 1391.04 378.502 1385.26 379.414C1385.01 379.454 1384.77 379.517 1384.52 379.568L1340.85 325.555C1343.14 322.547 1344.26 318.65 1343.62 314.62C1342.98 310.588 1340.72 307.225 1337.62 305.067L1361.33 243.433C1363.12 243.873 1365.03 243.974 1366.98 243.668C1374.21 242.527 1379.32 236.168 1379.09 229.031L1446.45 218.409C1449.21 223.779 1455.18 227.033 1461.46 226.042C1462.03 225.952 1462.59 225.821 1463.13 225.668L1506.93 279.841C1502.51 282.878 1499.97 288.265 1500.86 293.916C1501.53 298.185 1504.03 301.704 1507.42 303.836L1485.14 361.752ZM1556.37 444.7C1553.83 438.831 1547.58 435.179 1540.97 436.221C1539.34 436.477 1537.83 437.008 1536.46 437.74L1494.6 385.982C1497.58 382.855 1499.13 378.437 1498.41 373.844C1497.68 369.251 1494.85 365.525 1491.06 363.465L1513.19 305.919C1514.52 306.093 1515.9 306.09 1517.29 305.871C1525.13 304.635 1530.48 297.279 1529.24 289.442C1529.22 289.292 1529.18 289.149 1529.15 289.001L1596.82 278.331L1597.98 278.148C1599.96 285.009 1606.77 289.488 1614.01 288.347C1615.4 288.127 1616.71 287.707 1617.92 287.134L1656.72 335.115C1651.41 337.897 1648.21 343.824 1649.19 350.068C1650.18 356.312 1655.05 360.966 1660.95 361.981L1638.15 421.258C1637.12 421.192 1636.06 421.227 1634.99 421.396C1628.38 422.438 1623.55 427.837 1622.94 434.204L1556.37 444.7Z" fill="#3D63B7"/>
</g>
<defs>
<clipPath id="clip0_4136_26579">
<rect width="1920" height="1080" fill="white"/>
</clipPath>
</defs>
</svg>
