<svg width="504" height="201" viewBox="0 0 504 201" fill="none" xmlns="http://www.w3.org/2000/svg">
<path opacity="0.3" d="M138.688 200.181C134.066 192.934 131.365 184.307 131.365 175.021C131.365 149.323 151.905 128.477 177.247 128.477C183.05 128.477 188.572 129.613 193.675 131.602C191.874 127.289 190.884 122.549 190.884 117.576C190.884 97.6635 206.801 81.5162 226.431 81.5162C230.653 81.5162 234.685 82.2977 238.447 83.678C238.176 82.0135 238.006 80.3287 238.006 78.5831C238.006 61.2178 251.883 47.1409 269.001 47.1409C272.473 47.1409 275.795 47.7498 278.916 48.8155C278.146 45.7301 277.686 42.5128 277.686 39.1737C277.686 17.6372 294.894 0.180542 316.124 0.180542C337.354 0.180542 354.563 17.6372 354.563 39.1737C354.563 39.2143 354.563 39.2549 354.563 39.2854C357.734 38.4227 361.046 37.9152 364.488 37.9152C385.488 37.9152 402.516 55.1892 402.516 76.4923C402.516 81.435 401.566 86.1544 399.895 90.4982C411.48 99.0337 419.044 112.847 419.044 128.487C419.044 131.044 418.784 133.541 418.404 135.987C426.678 131.217 436.242 128.487 446.447 128.487C477.882 128.487 503.365 154.337 503.365 186.225C503.365 191.036 502.775 195.715 501.684 200.181H138.698H138.688Z" fill="white"/>
<g clip-path="url(#clip0_4081_4334)">
<path d="M160.225 159.493L144.884 96.1187C143.239 89.3248 136.659 89.4318 135.118 96.2774L120.884 159.493H160.225Z" fill="#ACE5AC"/>
<path d="M258.077 180.355C247.868 169.288 232.122 162.809 215.436 162.809C207.246 162.809 199.317 160.4 193.028 156.003C181.24 147.76 166.377 143.245 151.028 143.245H140.28C131.738 143.245 123.824 139.485 119.433 133.342L92.6629 95.8828C85.96 86.5036 71.3513 83.6045 60.3447 89.4693L53.2577 72.9172C51.1301 67.9481 45.5108 64.6337 39.2136 64.6337H0.364807V200.181H276.365L258.077 180.355Z" fill="#BDEFBD"/>
<path d="M94.2426 127.116H70.7946C69.4451 127.116 68.3511 128.033 68.3511 129.164C68.3511 130.296 69.4451 131.213 70.7946 131.213H94.2426C95.5921 131.213 96.686 130.296 96.686 129.164C96.686 128.033 95.592 127.116 94.2426 127.116Z" fill="#ACE5AC"/>
<path d="M107.436 127.116H104.825C103.476 127.116 102.382 128.033 102.382 129.164C102.382 130.296 103.476 131.213 104.825 131.213H107.436C108.785 131.213 109.879 130.296 109.879 129.164C109.879 128.033 108.785 127.116 107.436 127.116Z" fill="#ACE5AC"/>
<path d="M18.6886 66.6488L20.8862 81.4013C21.2809 84.0511 23.9675 86.0397 27.1526 86.0397C33.283 86.0397 38.5923 89.6067 39.9283 94.6229L46.6251 119.769H0.364807V66.6488H18.6886Z" fill="#C9F4C9"/>
<path d="M71.98 102.816H77.7585C79.108 102.816 80.2019 101.898 80.2019 100.767C80.2019 99.6356 79.1079 98.7184 77.7585 98.7184H71.98C70.6305 98.7184 69.5365 99.6356 69.5365 100.767C69.5365 101.898 70.6305 102.816 71.98 102.816Z" fill="#ACE5AC"/>
<path d="M0.364807 71.1172H49.2714C51.5537 71.1172 52.6209 68.7484 50.9086 67.4834C46.2828 64.066 40.329 62.1805 34.1635 62.1805H0.364807V71.1172Z" fill="#D7F9D7"/>
<path d="M68.0967 118.015L88.1399 162.809H60.3444L53.9572 147.279C52.9645 144.865 50.2546 143.245 47.2094 143.245C42.932 143.245 38.7865 142.004 35.4765 139.733L25.7958 133.089C23.1255 131.257 21.577 128.516 21.577 125.623V118.015H68.0967Z" fill="#C9F4C9"/>
<path d="M0.364807 114.863H51.7287C57.3988 114.863 62.995 115.94 68.0967 118.015C72.0915 119.639 70.7119 124.675 66.2721 124.675H0.364807V114.863Z" fill="#D7F9D7"/>
<path d="M24.7468 154.929H32.2426C33.9931 154.929 35.4122 153.739 35.4122 152.271C35.4122 150.804 33.9931 149.614 32.2426 149.614H24.7468C22.9963 149.614 21.5772 150.804 21.5772 152.271C21.5772 153.739 22.9963 154.929 24.7468 154.929Z" fill="#ACE5AC"/>
<path d="M0.364807 145.319H12.7351C15.9679 145.319 18.5886 143.122 18.5886 140.412C18.5886 137.701 15.9679 135.504 12.7351 135.504H0.364807V145.319Z" fill="#ACE5AC"/>
<path d="M70.4596 140.412L58.394 180.277H193.381L174.897 162.017C172.506 159.656 168.998 158.294 165.303 158.294C159.125 158.294 153.326 155.792 149.736 151.576L140.229 140.413L70.4596 140.412Z" fill="#C9F4C9"/>
<path d="M58.3939 180.277L70.4595 140.412L81.8006 140.413V140.988C81.8006 147.22 87.8258 152.271 95.2582 152.271C98.3996 152.271 101.305 153.67 102.889 155.944L119.837 180.277L58.3939 180.277Z" fill="#BDEFBD"/>
<path d="M73.9279 135.507H121.824C127.494 135.507 133.09 136.585 138.191 138.659C142.186 140.284 140.807 145.319 136.367 145.319H78.6947C74.1466 145.319 70.4596 142.228 70.4596 138.415C70.4596 136.809 72.0124 135.507 73.9279 135.507Z" fill="#D7F9D7"/>
<path d="M131.501 153.711H137.279C138.629 153.711 139.723 152.794 139.723 151.662C139.723 150.531 138.629 149.614 137.279 149.614H131.501C130.151 149.614 129.057 150.531 129.057 151.662C129.057 152.794 130.151 153.711 131.501 153.711Z" fill="#ACE5AC"/>
<path d="M140.732 164.858H158.134C159.484 164.858 160.578 163.94 160.578 162.809C160.578 161.678 159.484 160.76 158.134 160.76H140.732C139.382 160.76 138.289 161.678 138.289 162.809C138.289 163.94 139.383 164.858 140.732 164.858Z" fill="#ACE5AC"/>
</g>
<defs>
<clipPath id="clip0_4081_4334">
<rect width="276" height="138" fill="white" transform="translate(0.364807 62.1805)"/>
</clipPath>
</defs>
</svg>
