<svg width="504" height="200" viewBox="0 0 504 200" fill="none" xmlns="http://www.w3.org/2000/svg">
<g clip-path="url(#clip0_6072_6659)">
<path opacity="0.3" d="M138.688 200C134.066 192.753 131.365 184.127 131.365 174.84C131.365 149.142 151.905 128.296 177.247 128.296C183.05 128.296 188.572 129.433 193.675 131.422C191.874 127.108 190.884 122.369 190.884 117.396C190.884 97.483 206.801 81.3356 226.431 81.3356C230.653 81.3356 234.685 82.1171 238.447 83.4974C238.176 81.8329 238.006 80.1482 238.006 78.4025C238.006 61.0372 251.883 46.9603 269.001 46.9603C272.473 46.9603 275.795 47.5693 278.916 48.6349C278.146 45.5496 277.686 42.3323 277.686 38.9932C277.686 17.4566 294.894 0 316.124 0C337.354 0 354.563 17.4566 354.563 38.9932C354.563 39.0338 354.563 39.0744 354.563 39.1048C357.734 38.2422 361.046 37.7347 364.488 37.7347C385.488 37.7347 402.516 55.0086 402.516 76.3118C402.516 81.2544 401.566 85.9738 399.895 90.3177C411.48 98.8531 419.044 112.666 419.044 128.306C419.044 130.864 418.784 133.36 418.404 135.806C426.678 131.036 436.242 128.306 446.447 128.306C477.882 128.306 503.365 154.156 503.365 186.045C503.365 190.856 502.775 195.534 501.684 200H138.698H138.688Z" fill="white"/>
<g clip-path="url(#clip1_6072_6659)">
<path d="M4.76837e-06 133H15.6571L15.6571 123.649H4.76837e-06L4.76837e-06 133Z" fill="#442F57"/>
<path d="M4.76837e-06 163.351H15.6571L15.6571 154H4.76837e-06L4.76837e-06 163.351Z" fill="#442F57"/>
<path d="M45.6571 209H15.6571V98.3074L30.6571 78L45.6571 98.3074V209Z" fill="#442F57"/>
<path d="M45.6571 133H61.3142V123.649H45.6571V133Z" fill="#442F57"/>
<path d="M45.6571 163.351H61.3142V154H45.6571V163.351Z" fill="#442F57"/>
<path d="M91.3142 209H61.3142V98.3074L76.3142 78L91.3142 98.3074V209Z" fill="#442F57"/>
<path d="M91.3142 133H106.971V123.649H91.3142V133Z" fill="#442F57"/>
<path d="M91.3142 163.351H106.971V154H91.3142V163.351Z" fill="#442F57"/>
<path d="M136.971 209H106.971V98.3074L121.971 78L136.971 98.3074V209Z" fill="#442F57"/>
<path d="M136.971 133H152.628V123.649H136.971V133Z" fill="#442F57"/>
<path d="M136.971 163.351H152.628V154H136.971V163.351Z" fill="#442F57"/>
<path d="M182.628 209H152.628V98.3074L167.628 78L182.628 98.3074V209Z" fill="#442F57"/>
<path d="M182.628 133H198.286V123.649H182.628V133Z" fill="#442F57"/>
<path d="M182.628 163.351H198.286V154H182.628V163.351Z" fill="#442F57"/>
<path d="M228.286 209H198.286V98.3074L213.286 78L228.286 98.3074V209Z" fill="#442F57"/>
<path d="M228.286 133H243.943V123.649H228.286V133Z" fill="#442F57"/>
<path d="M228.286 163.351H243.943V154H228.286V163.351Z" fill="#442F57"/>
<path d="M273.943 209H243.943V98.3074L258.943 78L273.943 98.3074V209Z" fill="#442F57"/>
</g>
</g>
<defs>
<clipPath id="clip0_6072_6659">
<rect width="503" height="200" fill="white" transform="translate(0.364807)"/>
</clipPath>
<clipPath id="clip1_6072_6659">
<rect width="276" height="138" fill="white" transform="translate(0.364807 62)"/>
</clipPath>
</defs>
</svg>
