<svg width="504" height="200" viewBox="0 0 504 200" fill="none" xmlns="http://www.w3.org/2000/svg">
<g clip-path="url(#clip0_5910_6153)">
<path opacity="0.3" d="M138.688 200C134.066 192.753 131.365 184.127 131.365 174.84C131.365 149.142 151.905 128.296 177.247 128.296C183.05 128.296 188.572 129.433 193.675 131.422C191.874 127.108 190.884 122.369 190.884 117.396C190.884 97.483 206.801 81.3356 226.431 81.3356C230.653 81.3356 234.685 82.1171 238.447 83.4974C238.176 81.8329 238.006 80.1482 238.006 78.4025C238.006 61.0372 251.883 46.9603 269.001 46.9603C272.473 46.9603 275.795 47.5693 278.916 48.6349C278.146 45.5496 277.686 42.3323 277.686 38.9932C277.686 17.4566 294.894 0 316.124 0C337.354 0 354.563 17.4566 354.563 38.9932C354.563 39.0338 354.563 39.0744 354.563 39.1048C357.734 38.2422 361.046 37.7347 364.488 37.7347C385.488 37.7347 402.516 55.0086 402.516 76.3118C402.516 81.2544 401.566 85.9738 399.895 90.3177C411.48 98.8531 419.044 112.666 419.044 128.306C419.044 130.864 418.784 133.36 418.404 135.806C426.678 131.036 436.242 128.306 446.447 128.306C477.882 128.306 503.365 154.156 503.365 186.045C503.365 190.856 502.775 195.534 501.684 200H138.698H138.688Z" fill="white"/>
<g clip-path="url(#clip1_5910_6153)">
<g clip-path="url(#clip2_5910_6153)">
<path d="M222.214 106.808C223.923 103.19 228.563 101.013 232.63 101.08C236.117 101.074 239.686 102.36 242.452 104.26C246.473 107.014 249.432 111.009 250.839 115.681C253.054 122.48 250.586 131.698 243.306 134.188C241.774 134.725 240.262 133.244 240.687 131.704C241.699 125.288 239.786 121.922 236.678 117.316C235.27 115.408 233.602 113.702 231.92 112.437C230.626 111.433 229.035 110.589 227.338 110.37C226.413 110.276 225.375 110.341 224.39 110.329C222.624 110.363 221.405 108.361 222.214 106.808Z" fill="#88AA3D"/>
<path d="M221.86 108.056C225.718 92.0153 244.375 81.884 260.197 87.0389C269.89 90.0097 277.812 99.8292 276.141 110.172C275.962 111.256 274.939 111.989 273.855 111.811C272.753 111.607 271.967 110.401 271.2 109.726C265.557 104.034 258.705 101.325 250.756 101.785C244.186 102.087 236.919 104.731 230.768 107.956C228.908 108.864 227.231 109.882 225.289 110.808C223.503 111.708 221.367 109.979 221.86 108.056Z" fill="#88AA3D"/>
<path d="M223.544 109.295C229.595 100.479 239.407 93.8088 250.308 93.2106C258.436 92.661 266.885 96.3181 271.344 103.266C272.81 105.535 273.877 108.041 274.527 110.635C274.544 110.702 274.503 110.771 274.437 110.788C274.372 110.804 274.307 110.767 274.286 110.705C272.684 105.663 269.572 101.091 265.209 98.2041C256.353 92.1554 244.381 93.6314 235.531 98.9824C230.97 101.652 227.087 105.354 223.795 109.479C223.742 109.547 223.645 109.56 223.576 109.508C223.511 109.457 223.499 109.362 223.544 109.295Z" fill="#869E3C"/>
<path d="M231.888 116.061C232.126 119.14 229.823 121.829 226.744 122.067C223.665 122.305 220.976 120.002 220.738 116.923C220.5 113.844 222.803 111.155 225.882 110.917C228.961 110.679 231.65 112.982 231.888 116.061Z" fill="#7F5C33"/>
<path d="M222.719 110.389C222.956 113.457 220.662 116.135 217.594 116.373C214.527 116.61 211.848 114.315 211.611 111.248C211.374 108.181 213.668 105.502 216.735 105.265C219.803 105.027 222.482 107.322 222.719 110.389Z" fill="#755330"/>
<path d="M224.053 115.879C216.969 126.996 213.014 139.879 213.626 152.924C213.719 156.975 214.886 161.282 216.167 165.11C217.182 168.366 218.206 171.453 218.504 174.776C218.665 176.84 218.196 179.005 217.353 180.927C217.138 181.467 216.414 182.57 216.131 183.082C212.801 188.861 204.427 190.137 199.743 185.414C194.935 180.82 194.409 173.598 194.56 167.321C194.775 163.706 195.419 160.116 196.004 156.58C197.614 146.295 200.911 136.019 206.278 127.225C209.759 121.382 213.925 116.122 218.459 111.376C219.833 109.937 222.114 109.884 223.552 111.259C224.844 112.49 225.014 114.453 224.053 115.879Z" fill="#BF8E5A"/>
<path d="M222.656 108.805C222.314 107.649 221.894 106.542 221.13 105.643C217.946 102.269 212.818 100.683 208.241 100.435C206.332 100.371 204.288 100.648 201.448 102.179C200.354 102.936 198.755 102.112 198.768 100.779C198.704 96.7414 201.719 92.963 205.367 91.2592C209.118 89.4454 213.474 89.3529 217.362 90.5783C223.284 92.3754 228.741 97.7783 228.524 104.357C228.523 106.927 226.303 112.487 223.313 110.062C222.959 109.736 222.799 109.241 222.656 108.805Z" fill="#88AA3D"/>
<path d="M222.219 108.529C223.455 101.123 224.508 93.105 222.426 86.0627C220.317 78.6937 215.924 74.4052 209.029 71.2419C208.126 70.8426 207.715 69.7535 208.208 68.8799C208.74 68.0111 209.814 67.8308 210.676 67.4028C218.203 64.6607 226.907 68.2226 231.548 74.5695C236.711 81.3329 237.601 91.0858 234.719 98.6726C233.803 101.179 232.508 103.492 230.928 105.527C229.334 107.553 227.498 109.338 225.312 110.673C224.343 111.265 223.078 110.959 222.486 109.99C222.206 109.533 222.133 109.022 222.219 108.529Z" fill="#88AA3D"/>
<path d="M223.638 109.512C230.785 98.7742 232.402 82.3549 221.291 73.6927C217.838 71.021 213.388 69.7854 208.959 69.8565C208.89 69.8576 208.833 69.8024 208.832 69.7333C208.831 69.6675 208.882 69.6126 208.946 69.6065C211.181 69.3998 213.463 69.5572 215.669 70.0928C227.598 73.0631 232.432 86.4622 229.617 97.5511C228.606 101.973 226.547 106.087 223.894 109.69C223.843 109.759 223.746 109.774 223.676 109.723C223.61 109.674 223.594 109.58 223.638 109.512Z" fill="#869E3C"/>
<path d="M222.143 109.025C221.369 105.02 220.477 101.511 218.542 98.2634C216.894 95.463 214.817 93.2258 212.379 91.4181C206.48 87.3282 200.951 85.8695 193.126 87.9687C192.236 88.2061 191.322 87.677 191.085 86.7869C190.847 85.7462 191.589 84.8783 191.985 83.9633C193.027 82.2031 194.444 80.7028 196.09 79.4594C208.782 70.5382 226.92 80.207 229.384 94.8355C230.38 100.435 229.018 106.138 225.756 110.081C224.647 111.466 222.336 110.765 222.143 109.025Z" fill="#8CB741"/>
<path d="M223.8 109.51C225.438 103.172 224.507 96.2567 220.587 90.9856C216.798 85.8073 210.559 82.3661 204.097 82.3756C199.795 82.3222 195.539 84.0301 192.273 86.9383C192.168 87.0483 191.982 86.8655 192.1 86.7574C193.636 85.1585 195.493 83.8531 197.535 82.9223C210.792 77.1756 225.993 88.992 225.268 103.051C225.184 105.284 224.786 107.492 224.098 109.597C224.024 109.771 223.762 109.717 223.8 109.51Z" fill="#86A83D"/>
<path d="M222.357 107.327C229.862 95.4613 246.689 94.169 257.705 101.961C263.404 105.845 267.689 111.955 268.934 118.795C270.178 125.37 268.367 132.602 263.217 136.978C262.38 137.683 261.131 137.575 260.426 136.739C260.105 136.37 259.987 135.922 259.94 135.464C259.838 134.753 259.791 134.099 259.732 133.465C258.984 125.823 254.771 119.481 248.601 115.199C242.525 110.842 234.419 109.544 226.933 110.745C226.211 110.851 225.424 110.964 224.643 111.022C222.697 111.237 221.302 108.958 222.357 107.327Z" fill="#8CB741"/>
<path d="M223.562 109.034C227.808 105.862 232.974 103.827 238.314 103.65C251.752 102.944 265.088 114.841 263.873 128.66C263.628 131.318 262.884 133.916 261.692 136.274C261.662 136.336 261.587 136.361 261.525 136.33C261.465 136.301 261.44 136.229 261.465 136.169C263.518 131.366 263.82 125.878 262.099 121.018C258.778 111.193 248.65 104.369 238.336 104.573C233.166 104.618 228.107 106.437 223.742 109.289C223.671 109.337 223.574 109.318 223.526 109.246C223.48 109.177 223.498 109.084 223.562 109.034Z" fill="#86A83D"/>
<path d="M225.466 107.299C225.719 110.563 223.277 113.414 220.013 113.666C216.749 113.919 213.898 111.477 213.646 108.213C213.393 104.949 215.835 102.098 219.099 101.846C222.363 101.594 225.214 104.035 225.466 107.299Z" fill="#7F5C33"/>
<path d="M231.705 111.094C231.957 114.358 229.516 117.209 226.252 117.461C222.988 117.713 220.137 115.272 219.885 112.008C219.632 108.744 222.074 105.893 225.338 105.641C228.602 105.388 231.452 107.83 231.705 111.094Z" fill="#8E6938"/>
</g>
<path d="M160.224 159.313L144.883 95.9383C143.239 89.1444 136.659 89.2514 135.117 96.097L120.883 159.313H160.224Z" fill="#D6A685"/>
<path d="M258.077 180.174C247.868 169.107 232.122 162.628 215.436 162.628C207.246 162.628 199.317 160.22 193.028 155.822C181.24 147.579 166.377 143.065 151.028 143.065H140.28C131.738 143.065 123.824 139.305 119.433 133.162L92.6629 95.7022C85.96 86.323 71.3513 83.4239 60.3447 89.2887L53.2577 72.7366C51.1301 67.7675 45.5108 64.4531 39.2136 64.4531H0.364807V200H276.365L258.077 180.174Z" fill="#D19C74"/>
<path d="M94.2426 126.935H70.7946C69.4451 126.935 68.3511 127.853 68.3511 128.984C68.3511 130.115 69.4451 131.033 70.7946 131.033H94.2426C95.5921 131.033 96.686 130.115 96.686 128.984C96.686 127.852 95.592 126.935 94.2426 126.935Z" fill="#C49270"/>
<path d="M107.436 126.935H104.826C103.476 126.935 102.382 127.853 102.382 128.984C102.382 130.115 103.476 131.033 104.826 131.033H107.436C108.786 131.033 109.88 130.115 109.88 128.984C109.88 127.852 108.786 126.935 107.436 126.935Z" fill="#C49270"/>
<path d="M18.6886 66.4683L20.8862 81.2208C21.2809 83.8706 23.9675 85.8592 27.1526 85.8592C33.283 85.8592 38.5923 89.4262 39.9283 94.4424L46.6251 119.588H0.364807V66.4683H18.6886Z" fill="#C49270"/>
<path d="M71.9802 102.635H77.7587C79.1082 102.635 80.2021 101.718 80.2021 100.586C80.2021 99.455 79.1081 98.5378 77.7587 98.5378H71.9802C70.6307 98.5378 69.5367 99.455 69.5367 100.586C69.5367 101.718 70.6307 102.635 71.9802 102.635Z" fill="#C49270"/>
<path d="M0.364807 70.9367H49.2714C51.5537 70.9367 52.6209 68.5679 50.9086 67.3029C46.2828 63.8855 40.329 62 34.1635 62H0.364807V70.9367Z" fill="#E2B698"/>
<path d="M68.0964 117.834L88.1396 162.628H60.3441L53.9569 147.098C52.9642 144.684 50.2543 143.065 47.2091 143.065C42.9317 143.065 38.7862 141.824 35.4762 139.552L25.7955 132.909C23.1252 131.076 21.5767 128.336 21.5767 125.443V117.834H68.0964Z" fill="#D6A685"/>
<path d="M0.364807 114.682H51.7287C57.3988 114.682 62.995 115.76 68.0967 117.834C72.0915 119.459 70.7119 124.494 66.2721 124.494H0.364807V114.682Z" fill="#E2B698"/>
<path d="M24.7463 154.748H32.2421C33.9926 154.748 35.4117 153.558 35.4117 152.091C35.4117 150.623 33.9926 149.433 32.2421 149.433H24.7463C22.9958 149.433 21.5767 150.623 21.5767 152.091C21.5767 153.558 22.9958 154.748 24.7463 154.748Z" fill="#C49270"/>
<path d="M0.364807 145.139H12.7351C15.9679 145.139 18.5886 142.942 18.5886 140.231C18.5886 137.521 15.9679 135.324 12.7351 135.324H0.364807V145.139Z" fill="#C49270"/>
<path d="M70.4597 140.231L58.3941 180.096H193.381L174.897 161.837C172.506 159.475 168.998 158.114 165.303 158.114C159.125 158.114 153.326 155.611 149.736 151.396L140.229 140.233L70.4597 140.231Z" fill="#D6A685"/>
<path d="M58.3941 180.096L70.4597 140.231L81.8008 140.233V140.808C81.8008 147.039 87.826 152.091 95.2584 152.091C98.3998 152.091 101.305 153.489 102.889 155.763L119.837 180.096L58.3941 180.096Z" fill="#C49270"/>
<path d="M73.9278 135.327H121.824C127.494 135.327 133.09 136.404 138.191 138.479C142.186 140.103 140.807 145.139 136.367 145.139H78.6946C74.1465 145.139 70.4595 142.048 70.4595 138.234C70.4595 136.629 72.0123 135.327 73.9278 135.327Z" fill="#E2B698"/>
<path d="M131.501 153.531H137.279C138.629 153.531 139.723 152.613 139.723 151.482C139.723 150.351 138.629 149.433 137.279 149.433H131.501C130.151 149.433 129.057 150.351 129.057 151.482C129.057 152.613 130.151 153.531 131.501 153.531Z" fill="#C49270"/>
<path d="M140.732 164.677H158.134C159.484 164.677 160.578 163.76 160.578 162.628C160.578 161.497 159.484 160.58 158.134 160.58H140.732C139.383 160.58 138.289 161.497 138.289 162.628C138.289 163.76 139.383 164.677 140.732 164.677Z" fill="#C49270"/>
<path d="M275.568 200C275.623 199.826 275.65 199.644 275.646 199.454C275.939 199.275 276.132 198.993 276.25 198.624C276.335 198.503 276.38 198.343 276.358 198.144C276.377 197.996 276.356 197.873 276.314 197.77C275.484 190.905 272.273 184.476 264.726 183.491C256.594 182.431 248.594 186.286 241.757 190.321C239.313 187.727 236.369 185.773 232.91 184.782C229.009 183.667 224.879 184.22 221.053 185.342C211.924 188.019 204.014 195.005 194.362 195.883C193.323 195.978 192.235 195.067 191.378 194.582C190.358 194.005 189.313 193.466 188.274 192.929C186.412 191.966 184.594 191.413 182.508 191.222C177.568 190.77 172.521 191.888 167.635 192.48C163.295 193.005 159.007 193.882 155.006 195.694C152.835 196.677 150.484 196.757 148.111 196.855C145.517 196.961 143.209 196.504 140.755 195.72C133.741 193.475 127.094 189.587 119.543 189.633C115.448 189.659 111.36 190.818 107.589 192.337C104.765 193.475 102.237 194.634 99.1763 195.042C94.3023 195.692 89.3937 195.499 84.4967 195.335C80.5866 195.205 76.8405 195.337 72.963 195.825C67.2946 196.539 61.3316 197.585 56.063 200H275.568Z" fill="#FFB583"/>
</g>
</g>
<defs>
<clipPath id="clip0_5910_6153">
<rect width="503" height="200" fill="white" transform="translate(0.364807)"/>
</clipPath>
<clipPath id="clip1_5910_6153">
<rect width="276" height="138" fill="white" transform="translate(0.364807 62)"/>
</clipPath>
<clipPath id="clip2_5910_6153">
<rect width="85.3257" height="121.833" fill="white" transform="translate(191.039 66.4683)"/>
</clipPath>
</defs>
</svg>
