<svg width="504" height="201" viewBox="0 0 504 201" fill="none" xmlns="http://www.w3.org/2000/svg">
<path opacity="0.3" d="M138.688 200.116C134.066 192.869 131.365 184.242 131.365 174.956C131.365 149.258 151.905 128.412 177.247 128.412C183.05 128.412 188.572 129.548 193.675 131.538C191.874 127.224 190.884 122.484 190.884 117.511C190.884 97.5986 206.801 81.4512 226.431 81.4512C230.653 81.4512 234.685 82.2327 238.447 83.613C238.176 81.9485 238.006 80.2638 238.006 78.5181C238.006 61.1528 251.883 47.0759 269.001 47.0759C272.473 47.0759 275.795 47.6849 278.916 48.7505C278.146 45.6652 277.686 42.4479 277.686 39.1088C277.686 17.5722 294.894 0.115601 316.124 0.115601C337.354 0.115601 354.563 17.5722 354.563 39.1088C354.563 39.1494 354.563 39.19 354.563 39.2204C357.734 38.3578 361.046 37.8503 364.488 37.8503C385.488 37.8503 402.516 55.1242 402.516 76.4274C402.516 81.37 401.566 86.0894 399.895 90.4333C411.48 98.9687 419.044 112.782 419.044 128.422C419.044 130.979 418.784 133.476 418.404 135.922C426.678 131.152 436.242 128.422 446.447 128.422C477.882 128.422 503.365 154.272 503.365 186.16C503.365 190.971 502.775 195.65 501.684 200.116H138.698H138.688Z" fill="white"/>
<path d="M160.225 159.428L144.884 96.0536C143.239 89.2597 136.659 89.3667 135.118 96.2123L120.884 159.428H160.225Z" fill="#B0EEFF"/>
<path d="M258.077 180.29C247.868 169.223 232.122 162.744 215.436 162.744C207.246 162.744 199.317 160.335 193.028 155.938C181.24 147.695 166.377 143.18 151.028 143.18H140.28C131.738 143.18 123.824 139.42 119.433 133.277L92.6629 95.8177C85.96 86.4385 71.3513 83.5394 60.3447 89.4042L53.2577 72.8521C51.1301 67.883 45.5108 64.5686 39.2136 64.5686H0.364807V200.116H276.365L258.077 180.29Z" fill="#B0EEFF"/>
<path d="M94.2426 127.051H70.7946C69.4451 127.051 68.3511 127.968 68.3511 129.099C68.3511 130.231 69.4451 131.148 70.7946 131.148H94.2426C95.5921 131.148 96.686 130.231 96.686 129.099C96.686 127.968 95.592 127.051 94.2426 127.051Z" fill="#97EBFF"/>
<path d="M107.436 127.051H104.825C103.476 127.051 102.382 127.968 102.382 129.099C102.382 130.231 103.476 131.148 104.825 131.148H107.436C108.785 131.148 109.879 130.231 109.879 129.099C109.879 127.968 108.785 127.051 107.436 127.051Z" fill="#97EBFF"/>
<path d="M18.6886 66.5837L20.8862 81.3362C21.2809 83.986 23.9675 85.9746 27.1526 85.9746C33.283 85.9746 38.5923 89.5416 39.9283 94.5578L46.6251 119.704H0.364807V66.5837H18.6886Z" fill="#C0F3FF"/>
<path d="M71.98 102.751H77.7585C79.108 102.751 80.2019 101.833 80.2019 100.702C80.2019 99.5705 79.1079 98.6533 77.7585 98.6533H71.98C70.6305 98.6533 69.5365 99.5705 69.5365 100.702C69.5365 101.833 70.6305 102.751 71.98 102.751Z" fill="#97EBFF"/>
<path d="M0.364807 71.0522H49.2714C51.5537 71.0522 52.6209 68.6834 50.9086 67.4184C46.2828 64.001 40.329 62.1155 34.1635 62.1155H0.364807V71.0522Z" fill="#DEFAFF"/>
<path d="M68.0967 117.95L88.1399 162.744H60.3444L53.9572 147.214C52.9645 144.8 50.2546 143.18 47.2094 143.18C42.932 143.18 38.7865 141.939 35.4765 139.668L25.7958 133.024C23.1255 131.192 21.577 128.451 21.577 125.558V117.95H68.0967Z" fill="#C0F3FF"/>
<path d="M0.364807 114.798H51.7287C57.3988 114.798 62.995 115.875 68.0967 117.95C72.0915 119.574 70.7119 124.61 66.2721 124.61H0.364807V114.798Z" fill="#DEFAFF"/>
<path d="M24.7468 154.864H32.2426C33.9931 154.864 35.4122 153.674 35.4122 152.206C35.4122 150.739 33.9931 149.549 32.2426 149.549H24.7468C22.9963 149.549 21.5772 150.739 21.5772 152.206C21.5772 153.674 22.9963 154.864 24.7468 154.864Z" fill="#97EBFF"/>
<path d="M0.364807 145.254H12.7351C15.9679 145.254 18.5886 143.057 18.5886 140.347C18.5886 137.636 15.9679 135.439 12.7351 135.439H0.364807V145.254Z" fill="#97EBFF"/>
<path d="M70.4596 140.347L58.394 180.212H193.381L174.897 161.952C172.506 159.591 168.998 158.229 165.303 158.229C159.125 158.229 153.326 155.727 149.736 151.511L140.229 140.348L70.4596 140.347Z" fill="#C0F3FF"/>
<path d="M58.3939 180.212L70.4595 140.347L81.8006 140.348V140.923C81.8006 147.155 87.8258 152.206 95.2582 152.206C98.3996 152.206 101.305 153.605 102.889 155.879L119.837 180.212L58.3939 180.212Z" fill="#B0EEFF"/>
<path d="M73.9279 135.442H121.824C127.494 135.442 133.09 136.52 138.191 138.594C142.186 140.219 140.807 145.254 136.367 145.254H78.6947C74.1466 145.254 70.4596 142.163 70.4596 138.35C70.4596 136.744 72.0124 135.442 73.9279 135.442Z" fill="#DEFAFF"/>
<path d="M131.501 153.646H137.279C138.629 153.646 139.723 152.729 139.723 151.597C139.723 150.466 138.629 149.549 137.279 149.549H131.501C130.151 149.549 129.057 150.466 129.057 151.597C129.057 152.729 130.151 153.646 131.501 153.646Z" fill="#97EBFF"/>
<path d="M140.732 164.793H158.134C159.484 164.793 160.578 163.875 160.578 162.744C160.578 161.613 159.484 160.695 158.134 160.695H140.732C139.382 160.695 138.289 161.613 138.289 162.744C138.289 163.875 139.383 164.793 140.732 164.793Z" fill="#97EBFF"/>
</svg>
