<svg width="504" height="200" viewBox="0 0 504 200" fill="none" xmlns="http://www.w3.org/2000/svg">
<path opacity="0.3" d="M138.688 200C134.066 192.753 131.365 184.127 131.365 174.84C131.365 149.142 151.905 128.296 177.247 128.296C183.05 128.296 188.572 129.433 193.675 131.422C191.874 127.108 190.884 122.369 190.884 117.396C190.884 97.483 206.801 81.3356 226.431 81.3356C230.653 81.3356 234.685 82.1171 238.447 83.4974C238.176 81.8329 238.006 80.1482 238.006 78.4025C238.006 61.0372 251.883 46.9603 269.001 46.9603C272.473 46.9603 275.795 47.5693 278.916 48.6349C278.146 45.5496 277.686 42.3323 277.686 38.9932C277.686 17.4566 294.894 0 316.124 0C337.354 0 354.563 17.4566 354.563 38.9932C354.563 39.0338 354.563 39.0744 354.563 39.1048C357.734 38.2422 361.046 37.7347 364.488 37.7347C385.488 37.7347 402.516 55.0086 402.516 76.3118C402.516 81.2544 401.566 85.9738 399.895 90.3177C411.48 98.8531 419.044 112.666 419.044 128.306C419.044 130.864 418.784 133.36 418.404 135.806C426.678 131.036 436.242 128.306 446.447 128.306C477.882 128.306 503.365 154.156 503.365 186.045C503.365 190.856 502.775 195.534 501.684 200H138.698H138.688Z" fill="white"/>
<g clip-path="url(#clip0_4081_4314)">
<path d="M160.225 159.313L144.884 95.9383C143.239 89.1444 136.659 89.2514 135.118 96.097L120.884 159.313H160.225Z" fill="#97C8F7"/>
<path d="M258.077 180.174C247.868 169.107 232.122 162.628 215.436 162.628C207.246 162.628 199.317 160.22 193.028 155.822C181.24 147.579 166.377 143.065 151.028 143.065H140.28C131.738 143.065 123.824 139.305 119.433 133.162L92.6629 95.7022C85.96 86.323 71.3513 83.4239 60.3447 89.2887L53.2577 72.7366C51.1301 67.7675 45.5108 64.4531 39.2136 64.4531H0.364807V200H276.365L258.077 180.174Z" fill="#97C8F7"/>
<path d="M94.2426 126.935H70.7946C69.4451 126.935 68.3511 127.853 68.3511 128.984C68.3511 130.115 69.4451 131.033 70.7946 131.033H94.2426C95.5921 131.033 96.686 130.115 96.686 128.984C96.686 127.852 95.592 126.935 94.2426 126.935Z" fill="#8AC0ED"/>
<path d="M107.436 126.935H104.825C103.476 126.935 102.382 127.853 102.382 128.984C102.382 130.115 103.476 131.033 104.825 131.033H107.436C108.785 131.033 109.879 130.115 109.879 128.984C109.879 127.852 108.785 126.935 107.436 126.935Z" fill="#8AC0ED"/>
<path d="M18.6886 66.4683L20.8862 81.2208C21.2809 83.8706 23.9675 85.8592 27.1526 85.8592C33.283 85.8592 38.5923 89.4262 39.9283 94.4424L46.6251 119.588H0.364807V66.4683H18.6886Z" fill="#8AC0ED"/>
<path d="M71.98 102.635H77.7585C79.108 102.635 80.2019 101.718 80.2019 100.586C80.2019 99.455 79.1079 98.5378 77.7585 98.5378H71.98C70.6305 98.5378 69.5365 99.455 69.5365 100.586C69.5365 101.718 70.6305 102.635 71.98 102.635Z" fill="#8AC0ED"/>
<path d="M0.364807 70.9367H49.2714C51.5537 70.9367 52.6209 68.5679 50.9086 67.3029C46.2828 63.8855 40.329 62 34.1635 62H0.364807V70.9367Z" fill="#CCE6FF"/>
<path d="M68.0967 117.834L88.1399 162.628H60.3444L53.9572 147.098C52.9645 144.684 50.2546 143.065 47.2094 143.065C42.932 143.065 38.7865 141.824 35.4765 139.552L25.7958 132.909C23.1255 131.076 21.577 128.336 21.577 125.443V117.834H68.0967Z" fill="#9DD0F9"/>
<path d="M0.364807 114.682H51.7287C57.3988 114.682 62.995 115.76 68.0967 117.834C72.0915 119.459 70.7119 124.494 66.2721 124.494H0.364807V114.682Z" fill="#CCE6FF"/>
<path d="M24.7468 154.748H32.2426C33.9931 154.748 35.4122 153.558 35.4122 152.091C35.4122 150.623 33.9931 149.433 32.2426 149.433H24.7468C22.9963 149.433 21.5772 150.623 21.5772 152.091C21.5772 153.558 22.9963 154.748 24.7468 154.748Z" fill="#8AC0ED"/>
<path d="M0.364807 145.139H12.7351C15.9679 145.139 18.5886 142.942 18.5886 140.231C18.5886 137.521 15.9679 135.324 12.7351 135.324H0.364807V145.139Z" fill="#8AC0ED"/>
<path d="M70.4596 140.231L58.394 180.096H193.381L174.897 161.837C172.506 159.475 168.998 158.114 165.303 158.114C159.125 158.114 153.326 155.611 149.736 151.396L140.229 140.233L70.4596 140.231Z" fill="#9DD0F9"/>
<path d="M58.3939 180.096L70.4595 140.231L81.8006 140.233V140.808C81.8006 147.039 87.8258 152.091 95.2582 152.091C98.3996 152.091 101.305 153.489 102.889 155.763L119.837 180.096L58.3939 180.096Z" fill="#97C8F7"/>
<path d="M73.9279 135.327H121.824C127.494 135.327 133.09 136.405 138.191 138.479C142.186 140.103 140.807 145.139 136.367 145.139H78.6947C74.1466 145.139 70.4596 142.048 70.4596 138.235C70.4596 136.629 72.0124 135.327 73.9279 135.327Z" fill="#CCE6FF"/>
<path d="M131.501 153.531H137.279C138.629 153.531 139.723 152.613 139.723 151.482C139.723 150.351 138.629 149.433 137.279 149.433H131.501C130.151 149.433 129.057 150.351 129.057 151.482C129.057 152.613 130.151 153.531 131.501 153.531Z" fill="#8AC0ED"/>
<path d="M140.732 164.677H158.134C159.484 164.677 160.578 163.76 160.578 162.628C160.578 161.497 159.484 160.58 158.134 160.58H140.732C139.382 160.58 138.289 161.497 138.289 162.628C138.289 163.76 139.383 164.677 140.732 164.677Z" fill="#8AC0ED"/>
</g>
<defs>
<clipPath id="clip0_4081_4314">
<rect width="276" height="138" fill="white" transform="translate(0.364807 62)"/>
</clipPath>
</defs>
</svg>
