<svg width="96" height="96" viewBox="0 0 96 96" fill="none" xmlns="http://www.w3.org/2000/svg">
<path d="M73.3261 30.4111C73.3261 30.4111 77.4758 30.8757 78.8693 36.2176C80.2629 41.5595 75.5945 43.0924 75.5945 43.0924L70.5684 31.5498L73.3261 30.4111Z" fill="#52656D"/>
<path d="M75.5942 43.0919C75.5942 43.0919 80.2627 41.559 78.8691 36.2171C78.7609 35.8024 78.6345 35.4204 78.4964 35.0625C76.9637 35.7582 75.1561 36.5795 73.155 37.4901L75.5942 43.0919Z" fill="#384650"/>
<path d="M75.5248 43.5879C75.5248 43.5879 77.7854 42.3646 79.7983 43.2937C81.8113 44.2227 83.3596 48.5427 82.7712 50.5246C82.1829 52.5066 76.8409 54.3337 76.8409 54.3337C76.8409 54.3337 72.7532 52.0885 72.7532 52.0421C72.7532 51.9956 75.5248 43.5879 75.5248 43.5879Z" fill="#374651"/>
<path d="M40.3069 38.3548C40.3069 38.3548 32.9366 33.1212 30.5211 33.2141C28.1056 33.307 27.765 43.4954 29.0656 44.4554C30.3663 45.4154 40.3069 38.3548 40.3069 38.3548Z" fill="#374651"/>
<path d="M73.326 53.2033C73.326 53.2033 77.0731 45.864 76.1441 38.4782C75.215 31.0924 65.0266 26.5324 58.4537 28.2975C51.8808 30.0627 28.7479 42.4266 24.7996 44.3775C20.8512 46.3285 18.7608 52.3672 15.6486 56.362C12.5363 60.3569 6.35826 66.2098 8.7273 73.5491C11.0963 80.8885 28.5599 76.9759 35.3441 74.8033C42.1282 72.6307 57.5479 66.7208 63.9583 63.8408C70.3686 60.9608 73.326 53.2033 73.326 53.2033Z" fill="#FFFAE4"/>
<path d="M35.344 74.8033C42.1281 72.6307 57.5478 66.7207 63.9582 63.8407C64.7023 63.5064 65.398 63.1042 66.0498 62.6582C59.2396 61.78 51.2179 63.4848 44.2549 67.0614C35.7543 71.4278 26.464 74.4937 20.1001 74.3543L16.1492 77.7232C22.4658 78.2526 31.0467 76.1795 35.344 74.8033Z" fill="#485862"/>
<path d="M22.1365 67.2776C18.5285 60.931 14.0816 60.7627 11.7507 61.2264C9.25831 64.6384 7.188 68.7792 8.72748 73.5486C9.94005 77.3052 15.1074 78.1133 20.7728 77.7165C23.2504 75.8076 25.0724 72.442 22.1365 67.2776Z" fill="#FF834A"/>
<path d="M50.6944 54.948C51.0198 53.3736 50.4213 51.9191 49.3577 51.6993C48.2941 51.4796 47.1682 52.5778 46.8429 54.1522C46.5176 55.7266 47.1161 57.1811 48.1797 57.4008C49.2432 57.6206 50.3691 56.5224 50.6944 54.948Z" fill="#F46536"/>
<path d="M57.9769 51.5329C58.3022 49.9585 57.7037 48.5041 56.6402 48.2843C55.5766 48.0645 54.4507 49.1627 54.1254 50.7371C53.8001 52.3116 54.3986 53.766 55.4621 53.9858C56.5257 54.2055 57.6516 53.1074 57.9769 51.5329Z" fill="#F46536"/>
<path d="M65.2596 47.8269C65.5849 46.2525 64.9865 44.798 63.9229 44.5782C62.8593 44.3585 61.7334 45.4567 61.4081 47.0311C61.0828 48.6055 61.6813 50.06 62.7449 50.2797C63.8084 50.4995 64.9343 49.4013 65.2596 47.8269Z" fill="#F46536"/>
<path d="M37.7829 57.0898C38.9132 54.922 37.628 49.6265 34.6551 49.642C31.6822 49.6575 27.6564 49.8898 25.6899 47.4898C24.5687 46.1213 23.6695 45.6746 23.1032 45.543C21.2968 47.1476 19.8792 49.6161 18.4363 52.0669C19.3224 55.09 23.4803 58.4688 27.9506 59.1336C32.8435 59.8614 36.6525 59.2575 37.7829 57.0898Z" fill="#265A85"/>
<path d="M20.3781 55.1734C21.6531 52.6589 24.5902 49.433 26.0649 47.8924C25.9331 47.767 25.8076 47.6334 25.6899 47.4898C24.5687 46.1213 23.6695 45.6746 23.1032 45.543C21.2968 47.1476 19.8792 49.6161 18.4363 52.0669C18.7396 53.1018 19.4267 54.1783 20.3781 55.1734Z" fill="#4885AA"/>
<path opacity="0.05" d="M76.144 38.4785C76.0522 37.7485 75.8667 37.0474 75.6064 36.376C62.7825 42.2051 38.6491 53.2312 32.1466 56.5946C23.1659 61.2398 23.1659 66.814 14.7427 70.7779C11.7733 72.1752 9.76904 72.5033 8.41455 72.3453C8.49529 72.7423 8.59609 73.1433 8.72722 73.5495C11.0963 80.8888 28.5598 76.9763 35.344 74.8037C42.1281 72.6311 57.5479 66.7211 63.9582 63.8411C70.3685 60.9611 73.3259 53.2037 73.3259 53.2037C73.3259 53.2037 77.073 45.8643 76.144 38.4785Z" fill="#485862"/>
<path d="M73.3262 53.2034C73.3262 53.2034 73.6959 52.479 74.174 51.2573C72.7586 50.7135 71.1766 50.7422 69.7585 51.3735C64.3314 53.7901 51.2195 59.7301 46.691 62.6881C43.3616 64.8629 37.3382 70.1483 38.5021 72.5099C38.7116 72.9348 39.0898 73.2097 39.6459 73.3407C47.2904 70.6389 58.6785 66.2129 63.9584 63.8408C70.3688 60.9608 73.3262 53.2034 73.3262 53.2034Z" fill="#5D676D"/>
<path d="M73.3261 30.4104L73.1953 14.3555C73.1634 10.4403 67.9632 9.10188 66.0451 12.5152L54.7065 32.6921C53.4054 35.0076 55.7594 37.6636 58.2144 36.6499L73.3261 30.4104Z" fill="#FD854B"/>
<path d="M73.326 30.4108L73.1953 14.3558C73.1908 13.8036 73.0805 13.3047 72.8941 12.8611C71.3451 12.4528 69.553 12.9675 68.5893 14.6825L57.2507 34.8594C56.8727 35.5321 56.8048 36.233 56.9567 36.8649C57.3604 36.8904 57.7856 36.8274 58.2144 36.6503L73.326 30.4108Z" fill="#F16735"/>
<path d="M74.9142 52.2997L89.9117 62.2634C91.2372 63.144 91.311 65.0606 90.0599 66.0441C87.3852 68.1465 82.4958 70.9951 75.9117 70.6689C65.5995 70.158 58.1208 67.2315 45.5324 71.6444C32.944 76.0573 41.2588 66.9528 47.0188 63.1902C51.4976 60.2646 64.4581 54.39 70.0022 51.9213C71.5987 51.2104 73.4451 51.3532 74.9142 52.2997Z" fill="#FFFAE4"/>
<path d="M45.5325 71.6442C58.1209 67.2313 65.5996 70.1577 75.9118 70.6687C82.4959 70.9949 87.3852 68.1463 90.0599 66.0439C91.3111 65.0604 91.2373 63.1438 89.9118 62.2631L88.4147 61.2686C87.2686 61.9971 85.9687 62.7733 84.8073 63.3448C81.8809 64.7848 77.886 66.1319 70.3609 63.6235C62.8357 61.1151 52.7557 62.6945 44.2551 67.0609C43.0333 67.6885 41.795 68.2882 40.5515 68.8564C37.9551 71.9702 37.8085 74.3518 45.5325 71.6442Z" fill="#48565E"/>
</svg>
