<svg width="96" height="96" viewBox="0 0 96 96" fill="none" xmlns="http://www.w3.org/2000/svg">
<path d="M15.2703 52.1045L16.7902 56.4272C21.0983 51.0222 31.4031 44.4448 44.2729 39.3984C56.531 34.5919 68.026 32.3861 74.9962 33.0824L73.4084 29.0332C65.0152 29.4049 54.2421 31.8267 43.0282 36.2238C31.4664 40.7573 21.6756 46.5122 15.2703 52.1045Z" fill="#ED8C94"/>
<path d="M48.2239 78.6469C64.3349 78.6469 77.3955 65.5864 77.3955 49.4753C77.3955 33.3643 64.3349 20.3037 48.2239 20.3037C32.1128 20.3037 19.0522 33.3643 19.0522 49.4753C19.0522 65.5864 32.1128 78.6469 48.2239 78.6469Z" fill="#FFD5D9"/>
<path d="M38.1404 54.9067C41.2453 53.6892 42.8867 50.4692 41.8066 47.7146C40.7265 44.96 37.3338 43.7138 34.2289 44.9313C31.124 46.1488 29.4825 49.3688 30.5627 52.1234C31.6428 54.8781 35.0354 56.1242 38.1404 54.9067Z" fill="#F59DA4"/>
<path d="M35.0854 48.3146C32.9119 49.1668 31.7599 51.4131 32.5122 53.3317C32.8554 54.207 33.5375 54.8596 34.3822 55.2332C35.5658 55.4893 36.8769 55.402 38.1404 54.9066C38.5624 54.7411 38.9563 54.5375 39.3211 54.3042C40.4619 53.2241 40.933 51.6484 40.383 50.2455C39.6306 48.3269 37.2588 47.4623 35.0854 48.3146Z" fill="#FDB0B4"/>
<path d="M29.2025 61.0934C29.9591 60.4256 29.9095 59.1333 29.0919 58.2068C28.2742 57.2803 26.998 57.0706 26.2415 57.7383C25.4849 58.406 25.5344 59.6983 26.3521 60.6248C27.1698 61.5513 28.4459 61.7611 29.2025 61.0934Z" fill="#F8ACB0"/>
<path d="M29.3648 42.4426C30.5076 40.9106 30.5671 39.022 29.4978 38.2244C28.4285 37.4268 26.6352 38.0222 25.4925 39.5542C24.3497 41.0862 24.2902 42.9747 25.3595 43.7723C26.4288 44.57 28.2221 43.9746 29.3648 42.4426Z" fill="#FDB0B5"/>
<path d="M35.9257 32.2135C36.8586 31.3902 37.1882 30.2394 36.662 29.6431C36.1357 29.0468 34.9529 29.2308 34.02 30.0542C33.0871 30.8775 32.7574 32.0283 33.2837 32.6246C33.8099 33.2209 34.9928 33.0368 35.9257 32.2135Z" fill="#F8ACB0"/>
<path d="M52.7872 70.8911C54.1513 70.0242 54.7356 68.5009 54.0924 67.4887C53.4491 66.4764 51.8218 66.3585 50.4577 67.2254C49.0936 68.0922 48.5093 69.6155 49.1525 70.6278C49.7958 71.64 51.4231 71.7579 52.7872 70.8911Z" fill="#FDAFB4"/>
<path d="M63.9831 62.6497C66.7995 60.7387 67.7982 57.2965 66.2137 54.9613C64.6292 52.6261 61.0616 52.2822 58.2453 54.1932C55.4289 56.1042 54.4302 59.5464 56.0147 61.8815C57.5992 64.2167 61.1668 64.5606 63.9831 62.6497Z" fill="#FDAFB3"/>
<path d="M69.9945 47.5339C70.8091 47.4762 71.4051 46.5202 71.3257 45.3984C71.2463 44.2767 70.5216 43.4141 69.707 43.4718C68.8923 43.5294 68.2963 44.4855 68.3757 45.6072C68.4551 46.7289 69.1798 47.5915 69.9945 47.5339Z" fill="#FBADB1"/>
<path d="M65.3297 36.009C66.5259 32.2167 63.1166 27.7612 57.7147 26.0573C52.3129 24.3534 46.9642 26.0463 45.768 29.8386C44.5718 33.6308 47.9811 38.0864 53.3829 39.7903C58.7848 41.4942 64.1335 39.8012 65.3297 36.009Z" fill="#F2979E"/>
<path d="M62.6915 38.1927C63.6082 35.2864 60.9953 31.8717 56.8554 30.5658C52.7155 29.26 48.6163 30.5574 47.6995 33.4638C47.3832 34.4665 47.4873 35.5295 47.929 36.5457C49.2934 37.932 51.1706 39.0916 53.3828 39.7894C56.5123 40.7766 59.6222 40.6217 61.919 39.5809C62.2644 39.1721 62.5288 38.7083 62.6915 38.1927Z" fill="#FDAEB3"/>
<path d="M73.4085 29.0339L74.9963 33.0831C78.5091 33.4341 80.874 34.5213 81.6052 36.386C83.7872 41.9508 70.6108 52.3222 52.1748 59.5511C33.7389 66.78 17.0247 68.129 14.8427 62.5642C14.1839 60.8841 14.9271 58.7655 16.7903 56.4279L15.2704 52.1052C9.13309 57.4635 6.10367 62.6725 7.61005 66.5142C10.6886 74.3656 31.5373 73.534 54.1769 64.6569C76.8164 55.7797 92.6737 42.2185 89.5951 34.3672C88.0414 30.4048 81.9602 28.6552 73.4085 29.0339Z" fill="#ED8C94"/>
<path d="M24.4405 19.1732C24.4434 19.3389 24.3455 19.49 24.1917 19.5525L21.8148 20.5125C20.9785 20.8505 20.3303 21.5356 20.0355 22.3912L19.1695 24.9142C19.1634 24.9331 19.1494 24.9466 19.1402 24.9637C19.1327 24.9778 19.1255 24.9916 19.1162 25.0045C19.1018 25.024 19.0876 25.0416 19.0696 25.0576C19.0421 25.0831 19.0117 25.1054 18.9775 25.1213C18.9559 25.1299 18.9343 25.1384 18.9126 25.1415C18.891 25.1473 18.8693 25.1504 18.8476 25.1508L18.7768 25.1439C18.755 25.1415 18.7332 25.1338 18.7113 25.126C18.6752 25.1111 18.6434 25.0892 18.6145 25.0641C18.5967 25.0492 18.5824 25.0325 18.5677 25.0142C18.5593 25.0034 18.5525 24.9921 18.5454 24.9804C18.5337 24.9618 18.5177 24.9468 18.5094 24.9258L17.5556 22.4347C17.2337 21.5899 16.5619 20.9278 15.7142 20.6194L13.3052 19.7432C13.1493 19.6862 13.0435 19.5386 13.0406 19.3729C13.0375 19.1991 13.1489 19.0423 13.3137 18.9878L15.4909 18.2595C16.4336 17.9441 17.1677 17.1976 17.4717 16.2522L18.3165 13.6046C18.3269 13.5746 18.34 13.5471 18.3558 13.5224C18.3664 13.5059 18.377 13.4894 18.3931 13.4756C18.425 13.4397 18.4653 13.4118 18.5139 13.3919C18.5273 13.3863 18.5435 13.3806 18.5598 13.3775C18.5841 13.369 18.6112 13.3658 18.6384 13.3653C18.6655 13.3648 18.6928 13.3671 18.7173 13.3748C18.7337 13.3772 18.7501 13.3824 18.7637 13.3875C18.8075 13.4031 18.846 13.4296 18.8791 13.4589C18.8929 13.4722 18.9041 13.4856 18.9151 13.499C18.9374 13.5285 18.9569 13.5581 18.9684 13.5932L19.9055 16.2095C20.2397 17.1438 21.0022 17.864 21.9527 18.1462L24.154 18.7978C24.3233 18.8464 24.4374 18.9994 24.4405 19.1732Z" fill="#FED158"/>
<path d="M83.5731 78.7572C83.576 78.9229 83.4781 79.074 83.3243 79.1365L80.9474 80.0965C80.1111 80.4344 79.4628 81.1196 79.1681 81.9752L78.3021 84.4982C78.296 84.517 78.2819 84.5306 78.2728 84.5477C78.2653 84.5618 78.258 84.5756 78.2487 84.5884C78.2344 84.608 78.2202 84.6256 78.2022 84.6416C78.1746 84.6671 78.1442 84.6894 78.1101 84.7053C78.0885 84.7139 78.0669 84.7224 78.0452 84.7255C78.0236 84.7313 78.0019 84.7344 77.9801 84.7348L77.9094 84.7279C77.8876 84.7255 77.8657 84.7178 77.8439 84.71C77.8078 84.695 77.776 84.6732 77.7471 84.6481C77.7293 84.6332 77.715 84.6165 77.7002 84.5982C77.6919 84.5874 77.685 84.5761 77.678 84.5644C77.6663 84.5458 77.6502 84.5307 77.642 84.5097L76.6882 82.0187C76.3663 81.1739 75.6945 80.5118 74.8468 80.2034L72.4378 79.3272C72.2819 79.2702 72.1761 79.1226 72.1732 78.9569C72.1701 78.7831 72.2815 78.6262 72.4463 78.5717L74.6234 77.8435C75.5661 77.528 76.3002 76.7816 76.6043 75.8362L77.4491 73.1886C77.4594 73.1585 77.4726 73.1311 77.4884 73.1064C77.499 73.0899 77.5096 73.0734 77.5256 73.0595C77.5576 73.0237 77.5979 72.9958 77.6464 72.9759C77.6599 72.9703 77.6761 72.9645 77.6924 72.9615C77.7167 72.953 77.7438 72.9498 77.7709 72.9493C77.7981 72.9488 77.8253 72.9511 77.8499 72.9588C77.8662 72.9612 77.8827 72.9663 77.8963 72.9715C77.94 72.9871 77.9786 73.0136 78.0117 73.0429C78.0255 73.0562 78.0366 73.0696 78.0477 73.083C78.07 73.1125 78.0895 73.142 78.101 73.1772L79.038 75.7935C79.3723 76.7278 80.1348 77.448 81.0852 77.7302L83.2866 78.3817C83.4559 78.4304 83.57 78.5833 83.5731 78.7572Z" fill="#FED158"/>
</svg>
