<svg width="129" height="96" viewBox="0 0 129 96" fill="none" xmlns="http://www.w3.org/2000/svg">
<path d="M126.888 36.8873C125.847 33.3326 122.21 28.841 110.8 27.6368C109.394 27.4877 108.079 28.143 107.332 29.2508C103.084 27.9405 97.5822 27.4013 91.053 27.6981C91.0812 27.5173 91.0965 27.3326 91.0976 27.144C91.1096 25.1937 89.6105 23.5659 87.6655 23.4174C86.0307 23.293 84.2726 23.2372 82.4132 23.235C82.3187 23.1117 82.2218 22.9866 82.1216 22.86L82.0153 22.7255C81.745 22.389 81.467 22.0586 81.1803 21.7366C81.1711 21.726 81.1616 21.7154 81.1518 21.7043C80.2302 20.673 79.2163 19.7077 78.1379 18.836C78.1264 18.8265 78.1147 18.817 78.1033 18.8081C73.5695 15.1552 67.8659 13.1435 62.0411 13.1435C50.1923 13.1435 40.0829 21.1167 37.2205 32.3963C16.6677 40.1814 -1.96197 52.8622 1.42889 64.4309C3.27723 70.7365 10.8735 74.2867 23.109 74.7059C23.1243 74.7837 23.1337 74.8619 23.1541 74.9393C23.2777 75.4074 23.432 75.865 23.6136 76.3009C25.2969 80.3316 30.1136 84.8684 43.2615 84.8684C44.6588 84.8684 46.1505 84.8171 47.7423 84.7088C59.3525 83.917 73.5972 80.2016 87.8528 74.2479C96.5829 70.6022 104.948 66.2434 112.044 61.6424C113.624 60.618 114.173 58.5862 113.366 56.9145C123.753 50.2358 128.707 43.0962 126.888 36.8873Z" fill="white"/>
<path d="M113.212 38.2144C110.778 29.9133 89.0035 28.9895 64.5746 36.151C40.145 43.3123 22.3132 55.8461 24.7474 64.1471C27.1801 72.4474 48.956 73.3712 73.3852 66.2099C97.8148 59.0493 115.645 46.5154 113.212 38.2144ZM34.7035 61.1597C35.0754 63.3151 36.8662 65.1086 39.7478 66.4892C34.7816 65.3807 31.5732 63.415 31.1131 60.7467C30.3248 56.175 37.8352 50.8402 49.2107 47.1547C39.6722 51.4234 33.9158 56.5919 34.7035 61.1597ZM79.7222 56.8215C89.538 53.2378 95.6447 48.4889 95.182 43.8768C94.9633 41.7002 93.3037 39.7841 90.5269 38.2038C95.403 39.6605 98.4639 41.8484 98.7345 44.5419C99.1971 49.1591 91.3299 53.9494 79.7222 56.8215Z" fill="#1E2760"/>
<path d="M84.2969 68.6326C60.7227 75.8555 38.8868 77.5612 26.7458 73.9926C26.8248 74.2925 26.9219 74.5835 27.0411 74.8695C31.1164 84.6287 57.7018 82.8151 86.4213 70.8201C95.2679 67.1259 103.283 62.8963 110.023 58.5258C102.45 62.2722 93.7361 65.7406 84.2969 68.6326Z" fill="#252F6B"/>
<path d="M123.324 37.9312C122.259 34.2973 117.487 32.0777 110.41 31.3305C114.633 32.7889 117.407 34.9948 118.268 37.9312C120.092 44.1528 112.92 52.2532 100.347 59.7072C115.566 52.7708 125.148 44.1594 123.324 37.9312Z" fill="#021A38"/>
<path d="M15.2319 63.386C12.529 54.1678 32.3329 40.2476 59.4641 32.2947C69.4844 29.357 79.1004 27.648 87.3834 27.1212C77.394 26.3589 63.7338 28.0419 49.2252 32.2947C22.0941 40.2476 2.29104 54.1678 4.99332 63.386C6.69732 69.1999 16.9487 71.7518 31.0913 70.8517C22.3998 70.1879 16.4894 67.6759 15.2319 63.386Z" fill="#021A38"/>
<path d="M83.9475 38.7643C83.9475 50.8634 74.1395 60.672 62.041 60.672C49.9424 60.672 40.1333 50.8634 40.1333 38.7643C40.1333 26.6653 49.9419 16.8575 62.041 16.8575C74.14 16.8575 83.9475 26.6653 83.9475 38.7643Z" fill="#FFBD42"/>
<path d="M75.7795 21.7052C76.1908 23.3841 76.4135 25.1371 76.4135 26.9432C76.4135 39.0422 66.6054 48.8508 54.5072 48.8508C49.3041 48.8508 44.5264 47.033 40.7687 44.0026C43.1168 53.5715 51.7474 60.672 62.041 60.672C74.1395 60.672 83.9475 50.8634 83.9475 38.7643C83.9475 31.869 80.7589 25.7208 75.7795 21.7052Z" fill="#FFAF2E"/>
<path d="M83.6485 41.689L85.5538 38.2038L87.4603 41.689L90.9448 43.5945L87.4603 45.5007L85.5538 48.9855L83.6485 45.5007L80.1633 43.5945L83.6485 41.689Z" fill="white"/>
<path d="M74.34 4.68029L75.4181 2.70932L76.4963 4.68029L78.4667 5.75818L76.4963 6.83629L75.4181 8.80726L74.34 6.83629L72.3696 5.75818L74.34 4.68029Z" fill="white"/>
<path d="M15.6011 83.8721L16.5958 82.0517L17.591 83.8721L19.4125 84.8673L17.591 85.8637L16.5958 87.685L15.6011 85.8637L13.7797 84.8673L15.6011 83.8721Z" fill="white"/>
<path d="M95.3388 20.4046L95.8785 19.4185L96.4175 20.4046L97.4042 20.9434L96.4175 21.4827L95.8785 22.4682L95.3388 21.4827L94.3545 20.9434L95.3388 20.4046Z" fill="white"/>
<path d="M20.0376 31.2714L21.2182 29.1131L22.3987 31.2714L24.5546 32.4519L22.3987 33.6313L21.2182 35.7877L20.0376 33.6313L17.8805 32.4519L20.0376 31.2714Z" fill="white"/>
<path d="M111.625 69.7965L113.434 66.4892L115.243 69.7965L118.547 71.6055L115.243 73.4127L113.434 76.7171L111.625 73.4127L108.32 71.6055L111.625 69.7965Z" fill="white"/>
<path d="M103.182 73.2615C103.141 73.213 103.099 73.1645 103.057 73.117C103.077 72.9061 103.087 72.6924 103.087 72.4758C103.087 71.3737 102.829 70.3263 102.34 69.4005C102.578 68.6796 102.702 67.91 102.702 67.1126V64.0936C102.702 61.9915 101.909 60.1076 100.464 58.7861C99.132 57.5702 97.4166 56.9273 95.5034 56.9273H91.0072C89.3055 56.9273 87.7017 57.5646 86.4824 58.7292C85.8295 59.3561 85.3307 60.0968 84.9974 60.9077C84.451 60.7645 83.8825 60.6851 83.2999 60.6851H76.7162C75.0224 60.6851 73.4491 61.3106 72.2637 62.4398C71.8207 62.0919 71.356 61.768 70.8459 61.4965C69.4333 60.7448 67.8858 60.3637 66.2469 60.3637C64.6069 60.3637 63.0588 60.7448 61.647 61.4965C60.195 62.2693 59.0145 63.3575 58.1375 64.7319C57.2078 66.1901 56.7363 67.8441 56.7363 69.6494C56.7363 70.5328 56.8466 71.3798 57.065 72.1845C56.6299 72.629 56.2686 73.1273 55.9859 73.6653C55.8637 73.4556 55.7339 73.2501 55.5882 73.0545C55.6105 72.8324 55.6217 72.607 55.6217 72.3793C55.6217 71.3882 55.4143 70.448 55.0195 69.6037C55.3306 68.8425 55.4933 68.0127 55.4933 67.1444C55.4933 65.2917 54.7639 63.6031 53.4414 62.3916C52.2419 61.2912 50.6652 60.6852 49.0014 60.6852H43.831C42.0581 60.6852 40.4535 61.2632 39.1519 62.3521C38.6865 62.0613 38.1905 61.8255 37.6627 61.6623C37.3754 61.2248 37.0305 60.8185 36.6321 60.4508C35.4214 59.3386 33.8377 58.7259 32.1734 58.7259C30.5283 58.7259 28.9552 59.3391 27.742 60.4547C27.3433 60.8225 26.9981 61.2298 26.7104 61.669C25.9646 61.9022 25.266 62.2638 24.6371 62.7477C23.0966 63.9329 22.2133 65.7465 22.2133 67.7226C22.2133 68.525 22.3544 69.2996 22.6217 70.0144C22.2855 70.7527 22.0958 71.5579 22.0712 72.3939C22.0542 72.9379 22.1025 73.4732 22.2141 73.9921C21.5601 75.0312 21.2177 76.203 21.2177 77.4213C21.2177 79.0847 21.856 80.6674 23.0154 81.8777C24.2324 83.1489 25.8879 83.8487 27.6772 83.8487H36.3838C36.3821 83.9225 36.3758 83.9948 36.3758 84.0691C36.3758 85.8548 36.8477 87.4988 37.777 88.9553C38.6713 90.3565 39.8853 91.4541 41.392 92.2209C42.7913 92.9307 44.3142 93.2906 45.9185 93.2906C47.5452 93.2906 49.077 92.9206 50.4791 92.1869C51.911 91.4341 53.0879 90.3649 53.9788 89.0055C54.9275 87.5563 55.4288 85.8493 55.4288 84.0691C55.4288 83.1556 55.2969 82.2633 55.0405 81.4173C55.4895 80.9598 55.8609 80.4468 56.1501 79.8947C56.3311 80.2005 56.5368 80.4958 56.7709 80.7767C57.7491 81.9519 59.0962 82.6969 60.6373 82.9329C60.8903 83.3386 61.1894 83.7158 61.5323 84.0585C62.7419 85.2694 64.3819 85.9362 66.1506 85.9362C68.1305 85.9362 69.8881 85.1422 71.1007 83.6991C71.3046 83.4564 71.4891 83.2025 71.6537 82.9385C72.1481 82.8658 72.621 82.7357 73.0718 82.561C73.5087 82.7309 73.9668 82.8594 74.4467 82.9329C74.6998 83.3386 74.9988 83.7158 75.3418 84.0584C76.5513 85.2693 78.1914 85.9362 79.96 85.9362C81.9399 85.9362 83.6975 85.1421 84.9101 83.699C85.1141 83.4563 85.2985 83.2024 85.4631 82.9384C85.6063 82.9174 85.7464 82.8877 85.8863 82.858C86.9029 83.4991 88.0854 83.8486 89.3373 83.8486H98.2332C100.04 83.8486 101.706 83.1499 102.931 81.8737C104.088 80.6627 104.725 79.0818 104.725 77.4211C104.725 75.9044 104.193 74.468 103.182 73.2615Z" fill="white"/>
<path d="M33.49 75.366C33.49 75.9017 33.7679 76.169 34.3251 76.169H36.5732C37.0226 76.169 37.36 76.303 37.5846 76.5702C37.8095 76.8386 37.9219 77.1221 37.9219 77.4212C37.9219 77.7644 37.7983 78.0635 37.5525 78.3208C37.3061 78.5775 36.9794 78.7058 36.5731 78.7058H27.6772C27.2916 78.7058 26.9754 78.5775 26.7296 78.3208C26.4832 78.0635 26.3605 77.7644 26.3605 77.4212C26.3605 77.1222 26.4673 76.8387 26.6816 76.5702C26.8953 76.3029 27.2274 76.169 27.6772 76.169H29.9573C30.5136 76.169 30.7921 75.9123 30.7921 75.3984V74.7561C30.7921 74.3493 30.9151 74.0285 31.1615 73.7924C31.4073 73.5575 31.7234 73.4391 32.109 73.4391C32.5797 73.4391 32.928 73.5675 33.1526 73.8247C33.3775 74.0814 33.4899 74.3923 33.4899 74.7561L33.49 75.366ZM33.747 68.943C33.49 68.943 33.3937 69.0931 33.4579 69.3928C33.5433 69.6071 33.7949 69.8532 34.2126 70.1317C34.6301 70.4101 35.0796 70.6724 35.5615 70.9179C36.0431 71.1646 36.3804 71.3515 36.5732 71.4805C36.8298 71.6518 36.9956 71.9297 37.0709 72.3153C37.1457 72.7009 37.0653 73.0435 36.8299 73.3431C36.6159 73.5998 36.3427 73.7661 36.0109 73.8409C35.6789 73.9157 35.331 73.8459 34.9674 73.6322L33.1368 72.1869C32.7941 71.9297 32.5051 71.8013 32.2696 71.8013C32.0338 71.8013 31.7559 71.9191 31.4345 72.1546L29.54 73.6964C29.2188 73.9107 28.8703 74.0067 28.4961 73.9855C28.1212 73.9643 27.8056 73.8142 27.5486 73.5357C27.3128 73.236 27.2004 72.9096 27.2116 72.5563C27.2219 72.2031 27.3771 71.9191 27.6772 71.7048C27.9766 71.5123 28.3566 71.2823 28.8173 71.0145C29.2774 70.7472 29.711 70.4687 30.1178 70.1797C30.5243 69.8906 30.7601 69.6284 30.8245 69.3929C30.8454 69.2857 30.8349 69.1842 30.7922 69.0876C30.7492 68.9911 30.6638 68.9431 30.5355 68.9431H28.769C28.3405 68.9431 27.9984 68.8421 27.7415 68.6378C27.4845 68.4347 27.3561 68.1295 27.3561 67.7226C27.3561 67.3376 27.4951 67.0379 27.7736 66.8237C28.0514 66.6099 28.3838 66.5022 28.7691 66.5022H30.3749C30.5886 66.5022 30.7172 66.433 30.7602 66.2935C30.8029 66.1546 30.8247 66.0424 30.8247 65.9565V65.1535C30.8247 64.7897 30.958 64.485 31.2258 64.2383C31.4934 63.9922 31.809 63.8689 32.1734 63.8689C32.5587 63.8689 32.8849 63.9922 33.1528 64.2383C33.4204 64.4849 33.5543 64.7896 33.5543 65.1535V65.9241C33.5543 66.053 33.5808 66.1814 33.6346 66.3097C33.6879 66.4381 33.8218 66.5022 34.0361 66.5022H35.6097C36.016 66.5022 36.3427 66.6099 36.5891 66.8237C36.8349 67.0379 36.9585 67.3376 36.9585 67.7226C36.9585 68.1294 36.8349 68.4347 36.5891 68.6378C36.3427 68.8421 36.016 68.9431 35.6097 68.9431L33.747 68.943Z" fill="#FF792E"/>
<path d="M50.3826 75.6551C50.8321 75.6551 51.1695 75.7834 51.394 76.0407C51.619 76.2974 51.7314 76.5976 51.7314 76.9397C51.7314 77.2823 51.6077 77.5769 51.3619 77.823C51.1155 78.0692 50.7888 78.1925 50.3826 78.1925H41.5508C41.1437 78.1925 40.8122 78.0692 40.5552 77.823C40.2983 77.5769 40.1699 77.2823 40.1699 76.9397C40.1699 76.5976 40.2821 76.2974 40.507 76.0407C40.7319 75.7834 41.0795 75.6551 41.5508 75.6551H50.3826ZM41.5188 84.0691C41.5188 83.2773 41.7163 82.5758 42.1128 81.9659C42.5088 81.3554 43.0442 80.8789 43.7186 80.5367C44.393 80.1941 45.1263 80.0228 45.9187 80.0228C46.7105 80.0228 47.4329 80.1941 48.0864 80.5367C48.7393 80.8788 49.2691 81.3554 49.6759 81.9659C50.0824 82.5758 50.2862 83.2773 50.2862 84.0691C50.2862 84.861 50.0825 85.568 49.6759 86.1892C49.2691 86.8097 48.7392 87.2913 48.0864 87.6345C47.4329 87.9765 46.7106 88.1478 45.9187 88.1478C45.1263 88.1478 44.393 87.9765 43.7186 87.6345C43.0442 87.2913 42.5088 86.8097 42.1128 86.1892C41.7164 85.5681 41.5188 84.861 41.5188 84.0691ZM43.831 73.6963C43.2314 73.6963 42.7392 73.5033 42.3536 73.1182C41.9683 72.7326 41.7758 72.2405 41.7758 71.6406V67.851C41.7758 67.2305 41.9683 66.7382 42.3536 66.3738C42.7392 66.01 43.2314 65.8281 43.831 65.8281H49.0015C49.3871 65.8281 49.7082 65.9458 49.9649 66.1813C50.2219 66.4168 50.3505 66.7382 50.3505 67.1445C50.3505 67.5301 50.2219 67.8353 49.9649 68.0602C49.7082 68.2845 49.3871 68.3972 49.0015 68.3972H45.6295C45.2439 68.3972 44.9602 68.5043 44.7785 68.7181C44.5963 68.9323 44.5054 69.1896 44.5054 69.4893V69.8743C44.5054 70.6885 44.8586 71.0947 45.5654 71.0947H49.1301C49.5154 71.0947 49.8366 71.2069 50.0935 71.4317C50.3505 71.6566 50.4788 71.973 50.4788 72.3793C50.4788 72.7649 50.3505 73.0695 50.0935 73.2945C49.8366 73.5194 49.5154 73.6533 49.1301 73.6962L43.831 73.6963ZM44.2484 84.0691C44.2484 84.5619 44.4091 84.9469 44.7303 85.2254C45.0515 85.5033 45.4474 85.6428 45.9187 85.6428C46.3894 85.6428 46.7856 85.5033 47.1067 85.2254C47.4279 84.9469 47.5886 84.5619 47.5886 84.0691C47.5886 83.5764 47.4279 83.1914 47.1067 82.9134C46.7856 82.635 46.3894 82.4955 45.9187 82.4955C45.4474 82.4955 45.0515 82.635 44.7303 82.9134C44.4092 83.1913 44.2484 83.5764 44.2484 84.0691Z" fill="#FF792E"/>
<path d="M67.4995 79.4447C67.4995 79.8085 67.387 80.1244 67.1622 80.3922C66.9375 80.6595 66.6002 80.7934 66.1507 80.7934C65.7436 80.7934 65.4169 80.6701 65.1711 80.424C64.9247 80.1779 64.8016 79.8514 64.8016 79.4446V78.7705C64.8016 78.1712 64.5232 77.871 63.9668 77.871H61.7188C61.269 77.871 60.937 77.7426 60.7232 77.4859C60.509 77.2287 60.4021 76.9508 60.4021 76.6506C60.4021 76.2867 60.5248 75.9871 60.7712 75.7516C61.0171 75.5161 61.3332 75.3983 61.7188 75.3983H70.6147C71.021 75.3983 71.3477 75.5161 71.5941 75.7516C71.8399 75.9871 71.9635 76.2867 71.9635 76.6506C71.9635 76.9508 71.8511 77.2287 71.6262 77.4859C71.4016 77.7426 71.0643 77.871 70.6148 77.871H68.3344C67.7775 77.871 67.4996 78.1818 67.4996 78.8023L67.4995 79.4447ZM61.8792 69.6495C61.8792 68.8364 62.0771 68.1194 62.4735 67.4977C62.8695 66.8772 63.3993 66.39 64.0631 66.0368C64.7266 65.6835 65.4546 65.5067 66.247 65.5067C67.0388 65.5067 67.7668 65.6836 68.4308 66.0368C69.094 66.3901 69.6295 66.8772 70.0366 67.4977C70.4431 68.1194 70.6469 68.8365 70.6469 69.6495C70.6469 70.4849 70.4432 71.2181 70.0366 71.8493C69.6295 72.4815 69.0941 72.9737 68.4308 73.3269C67.7668 73.6802 67.0389 73.8565 66.247 73.8565C65.4546 73.8565 64.7266 73.6802 64.0631 73.3269C63.3993 72.9737 62.8694 72.4815 62.4735 71.8493C62.0771 71.2181 61.8792 70.4849 61.8792 69.6495ZM64.577 69.6495C64.577 70.1634 64.7425 70.5647 65.0748 70.8537C65.4066 71.1428 65.7974 71.2873 66.247 71.2873C66.7391 71.2873 67.1462 71.1428 67.4674 70.8537C67.7885 70.5646 67.949 70.1634 67.949 69.6495C67.949 69.1573 67.7885 68.7667 67.4674 68.4776C67.1462 68.1885 66.7391 68.044 66.247 68.044C65.7975 68.044 65.4066 68.1885 65.0748 68.4776C64.7425 68.7667 64.577 69.1573 64.577 69.6495Z" fill="#021A38"/>
<path d="M81.3089 79.4447C81.3089 79.8085 81.1965 80.1244 80.9716 80.3922C80.747 80.6595 80.4097 80.7934 79.9602 80.7934C79.5531 80.7934 79.2263 80.6701 78.9805 80.424C78.7341 80.1779 78.6111 79.8514 78.6111 79.4446V78.7705C78.6111 78.1712 78.3326 77.871 77.7763 77.871H75.5282C75.0785 77.871 74.7464 77.7426 74.5327 77.4859C74.3184 77.2287 74.2115 76.9508 74.2115 76.6506C74.2115 76.2867 74.3343 75.9871 74.5807 75.7516C74.8265 75.5161 75.1426 75.3983 75.5282 75.3983H84.4242C84.8304 75.3983 85.1571 75.5161 85.4035 75.7516C85.6494 75.9871 85.773 76.2867 85.773 76.6506C85.773 76.9508 85.6605 77.2287 85.4357 77.4859C85.211 77.7426 84.8737 77.871 84.4242 77.871H82.1438C81.5869 77.871 81.309 78.1818 81.309 78.8023L81.3089 79.4447ZM81.598 68.3973C81.4906 68.3973 81.4214 68.4291 81.3893 68.4933C81.3572 68.558 81.341 68.6115 81.341 68.6539C81.341 69.1037 81.6407 69.505 82.2403 69.8582C82.8393 70.2114 83.5779 70.6885 84.4562 71.2873C84.6914 71.4592 84.8466 71.7371 84.9219 72.1227C84.9967 72.5077 84.8842 72.8503 84.5846 73.1501C84.3488 73.4285 84.0333 73.5675 83.6373 73.5675C83.2409 73.5675 82.8932 73.4391 82.5935 73.1825L80.9235 71.7695C80.5806 71.4698 80.3022 71.3253 80.0885 71.3359C79.8742 71.3465 79.5957 71.5016 79.2534 71.8013L77.423 73.3108C77.1019 73.5893 76.7431 73.7232 76.3472 73.712C75.9507 73.7019 75.6351 73.5574 75.3996 73.2784C75.1211 73.0005 74.9984 72.6634 75.0305 72.2673C75.0625 71.8711 75.2391 71.5658 75.5603 71.3515C76.5664 70.731 77.3371 70.2333 77.8725 69.8582C78.4074 69.4843 78.6858 69.0826 78.7076 68.654C78.7076 68.6116 78.6914 68.558 78.6593 68.4933C78.6272 68.4291 78.5469 68.3973 78.4185 68.3973H76.7162C76.3309 68.3973 76.0203 68.2846 75.7849 68.0603C75.5491 67.8354 75.4316 67.5302 75.4316 67.1446C75.4316 66.7383 75.5491 66.4169 75.7849 66.1814C76.0203 65.9459 76.3309 65.8282 76.7162 65.8282H83.2999C83.6853 65.8282 84.0011 65.9459 84.2475 66.1814C84.4933 66.4169 84.6166 66.7383 84.6166 67.1446C84.6166 67.5302 84.4933 67.8354 84.2475 68.0603C84.0011 68.2846 83.6853 68.3973 83.2999 68.3973L81.598 68.3973Z" fill="#021A38"/>
<path d="M95.1502 75.366C95.1502 75.9017 95.4281 76.169 95.9853 76.169H98.2333C98.6828 76.169 99.0202 76.303 99.2448 76.5702C99.4697 76.8386 99.5821 77.1221 99.5821 77.4213C99.5821 77.7645 99.4585 78.0635 99.2126 78.3208C98.9662 78.5775 98.6395 78.7058 98.2333 78.7058H89.3373C88.9517 78.7058 88.6356 78.5775 88.3898 78.3208C88.1434 78.0635 88.0206 77.7645 88.0206 77.4213C88.0206 77.1222 88.1275 76.8387 88.3418 76.5702C88.5555 76.3029 88.8875 76.169 89.3373 76.169H91.6174C92.1738 76.169 92.4522 75.9123 92.4522 75.3984V74.7561C92.4522 74.3063 92.5915 73.9643 92.8699 73.7282H91.6174C91.0605 73.7282 90.5786 73.5413 90.1721 73.1663C89.7653 72.7918 89.5619 72.3047 89.5619 71.7048V68.654C89.5619 68.0335 89.7759 67.5301 90.2042 67.1445C90.6322 66.7595 91.1461 66.5664 91.7458 66.5664H93.9297C94.315 66.5664 94.572 66.4816 94.7006 66.3097C94.8289 66.1384 94.8931 65.9782 94.8931 65.8281V65.539C94.8931 65.3253 94.834 65.1272 94.7165 64.9447C94.5985 64.7634 94.3041 64.6719 93.8334 64.6719H91.0072C90.6219 64.6719 90.3007 64.5547 90.0438 64.3186C89.7868 64.0831 89.6585 63.7623 89.6585 63.3549C89.6585 62.9911 89.7868 62.6864 90.0438 62.4397C90.3007 62.1942 90.6219 62.0703 91.0072 62.0703H95.5033C96.1241 62.0703 96.6219 62.2422 96.9966 62.5842C97.3711 62.9269 97.5589 63.4302 97.5589 64.0937V67.1127C97.5589 67.712 97.3549 68.1942 96.9486 68.558C96.5415 68.9218 96.0599 69.1038 95.5033 69.1038H93.2232C92.8161 69.1038 92.5647 69.1953 92.4685 69.3766C92.3722 69.5586 92.3239 69.7354 92.3239 69.9067V70.1317C92.3239 70.3454 92.3722 70.5703 92.4685 70.8058C92.5647 71.0418 92.8482 71.159 93.3195 71.159H96.6275C97.0129 71.159 97.3285 71.2768 97.5748 71.5123C97.8206 71.7483 97.9442 72.0692 97.9442 72.476C97.9442 72.861 97.8206 73.1663 97.5748 73.3912C97.3284 73.6161 97.0129 73.7282 96.6275 73.7282H94.7006C95 73.9855 95.1501 74.3281 95.1501 74.7561L95.1502 75.366Z" fill="#021A38"/>
</svg>
