<svg width="128" height="92" viewBox="0 0 128 92" fill="none" xmlns="http://www.w3.org/2000/svg">
<g id="Group">
<path id="Vector" d="M126.745 34.8874C125.704 31.3327 122.067 26.841 110.657 25.6368C109.251 25.4877 107.936 26.143 107.189 27.2509C102.941 25.9406 97.4394 25.4014 90.9102 25.6982C90.9384 25.5174 90.9537 25.3327 90.9548 25.1441C90.9668 23.1937 89.4677 21.566 87.5226 21.4175C85.8879 21.293 84.1298 21.2373 82.2704 21.235C82.1758 21.1117 82.079 20.9867 81.9788 20.8601L81.8725 20.7256C81.6022 20.389 81.3242 20.0587 81.0374 19.7367C81.0282 19.7261 81.0188 19.7155 81.009 19.7044C80.0874 18.6731 79.0734 17.7077 77.995 16.8361C77.9836 16.8266 77.9719 16.8171 77.9605 16.8082C73.4267 13.1553 67.723 11.1436 61.8982 11.1436C50.0494 11.1436 39.9401 19.1168 37.0777 30.3964C16.5249 38.1814 -2.10484 50.8622 1.28608 62.4309C3.13442 68.7365 10.7306 72.2867 22.9662 72.7059C22.9814 72.7837 22.9909 72.862 23.0113 72.9393C23.1349 73.4074 23.2892 73.865 23.4708 74.3009C25.1541 78.3316 29.9708 82.8684 43.1187 82.8684C44.516 82.8684 46.0077 82.8171 47.5994 82.7088C59.2097 81.917 73.4544 78.2016 87.71 72.2479C96.4401 68.6022 104.806 64.2434 111.901 59.6424C113.481 58.618 114.03 56.5862 113.223 54.9145C123.61 48.2358 128.564 41.0963 126.745 34.8874Z" fill="white"/>
<g id="Group_2">
<path id="Vector_2" d="M113.069 36.2145C110.636 27.9134 88.8605 26.9895 64.4317 34.1511C40.002 41.3124 22.1702 53.8461 24.6044 62.1472C27.0372 70.4474 48.8131 71.3713 73.2422 64.21C97.6719 57.0493 115.502 44.5155 113.069 36.2145ZM34.5606 59.1598C34.9325 61.3151 36.7233 63.1087 39.6049 64.4893C34.6387 63.3807 31.4303 61.4151 30.9702 58.7468C30.182 54.1751 37.6923 48.8403 49.0678 45.1547C39.5293 49.4234 33.7729 54.5919 34.5606 59.1598ZM79.5793 54.8216C89.3951 51.2379 95.5017 46.489 95.0391 41.8769C94.8204 39.7002 93.1608 37.7842 90.384 36.2038C95.2601 37.6606 98.3209 39.8485 98.5916 42.542C99.0542 47.1592 91.187 51.9494 79.5793 54.8216Z" fill="#1E2760"/>
<path id="Vector_3" d="M84.1541 66.6327C60.5799 73.8556 38.7439 75.5613 26.603 71.9926C26.682 72.2926 26.7791 72.5836 26.8982 72.8696C30.9736 82.6288 57.559 80.8151 86.2785 68.8202C95.1251 65.126 103.14 60.8963 109.881 56.5258C102.307 60.2722 93.5933 63.7407 84.1541 66.6327Z" fill="#252F6B"/>
<path id="Vector_4" d="M123.181 35.9313C122.116 32.2973 117.344 30.0777 110.267 29.3305C114.49 30.7889 117.265 32.9949 118.126 35.9313C119.949 42.1528 112.777 50.2532 100.204 57.7072C115.424 50.7708 125.006 42.1595 123.181 35.9313Z" fill="#021A38"/>
<path id="Vector_5" d="M15.0891 61.3861C12.3862 52.1678 32.1901 38.2477 59.3212 30.2948C69.3416 27.357 78.9576 25.6481 87.2406 25.1213C77.2512 24.359 63.591 26.042 49.0824 30.2948C21.9512 38.2477 2.14822 52.1678 4.8505 61.3861C6.5545 67.1999 16.8059 69.7518 30.9484 68.8517C22.257 68.188 16.3466 65.6759 15.0891 61.3861Z" fill="#021A38"/>
</g>
<path id="Vector_6" d="M83.8048 36.7644C83.8048 48.8634 73.9968 58.6721 61.8983 58.6721C49.7997 58.6721 39.9906 48.8634 39.9906 36.7644C39.9906 24.6654 49.7992 14.8576 61.8983 14.8576C73.9973 14.8576 83.8048 24.6653 83.8048 36.7644Z" fill="#924AC6"/>
<path id="Vector_7" d="M75.6368 19.7053C76.0481 21.3841 76.2708 23.1371 76.2708 24.9433C76.2708 37.0423 66.4627 46.8509 54.3645 46.8509C49.1614 46.8509 44.3837 45.0331 40.626 42.0027C42.9741 51.5716 51.6047 58.6721 61.8983 58.6721C73.9968 58.6721 83.8048 48.8634 83.8048 36.7644C83.8048 29.869 80.6162 23.7209 75.6368 19.7053Z" fill="#832EB5"/>
<g id="Group_3">
<path id="Vector_8" d="M83.5057 39.689L85.4109 36.2038L87.3174 39.689L90.8019 41.5945L87.3174 43.5007L85.4109 46.9856L83.5057 43.5007L80.0205 41.5945L83.5057 39.689Z" fill="white"/>
<path id="Vector_9" d="M74.1972 2.68035L75.2753 0.709381L76.3534 2.68035L78.3239 3.75824L76.3534 4.83635L75.2753 6.80732L74.1972 4.83635L72.2268 3.75824L74.1972 2.68035Z" fill="white"/>
<path id="Vector_10" d="M15.4583 81.8721L16.4531 80.0517L17.4482 81.8721L19.2696 82.8674L17.4482 83.8637L16.4531 85.685L15.4583 83.8637L13.6368 82.8674L15.4583 81.8721Z" fill="white"/>
<path id="Vector_11" d="M95.196 18.4046L95.7357 17.4186L96.2747 18.4046L97.2613 18.9434L96.2747 19.4828L95.7357 20.4682L95.196 19.4828L94.2117 18.9434L95.196 18.4046Z" fill="white"/>
<path id="Vector_12" d="M19.8948 29.2715L21.0754 27.1132L22.2558 29.2715L24.4118 30.452L22.2558 31.6313L21.0754 33.7878L19.8948 31.6313L17.7377 30.452L19.8948 29.2715Z" fill="white"/>
<path id="Vector_13" d="M111.483 67.7966L113.292 64.4893L115.101 67.7966L118.404 69.6055L115.101 71.4127L113.292 74.7172L111.483 71.4127L108.177 69.6055L111.483 67.7966Z" fill="white"/>
</g>
<path id="Vector_14" d="M102.914 71.117C102.934 70.9061 102.944 70.6924 102.944 70.4758C102.944 69.3737 102.686 68.3263 102.197 67.4005C102.435 66.6796 102.559 65.91 102.559 65.1126V62.0936C102.559 59.9915 101.766 58.1076 100.321 56.7861C98.989 55.5702 97.2736 54.9273 95.3604 54.9273H90.8643C89.1625 54.9273 87.5587 55.5646 86.3394 56.7292C85.6865 57.3561 85.1877 58.0968 84.8544 58.9077C84.308 58.7645 83.7395 58.6851 83.1569 58.6851H76.5732C74.8794 58.6851 73.3061 59.3106 72.1207 60.4398C71.6777 60.0919 71.213 59.768 70.7029 59.4965C69.2902 58.7448 67.7428 58.3637 66.1039 58.3637C64.4639 58.3637 62.9159 58.7448 61.504 59.4965C60.052 60.2693 58.8715 61.3575 57.9945 62.7319C57.0648 64.1901 56.5933 65.8441 56.5933 67.6494C56.5933 68.5327 56.7036 69.3798 56.922 70.1845C56.4869 70.629 56.1256 71.1273 55.8429 71.6653C55.7207 71.4556 55.5909 71.2501 55.4452 71.0545C55.4675 70.8324 55.4786 70.607 55.4786 70.3793C55.4786 69.3882 55.2713 68.448 54.8765 67.6037C55.1876 66.8425 55.3503 66.0127 55.3503 65.1444C55.3503 63.2917 54.6209 61.6031 53.2984 60.3916C52.0989 59.2912 50.5222 58.6852 48.8584 58.6852H43.688C42.0713 58.6852 40.5945 59.1661 39.3593 60.0756C38.2228 59.1758 36.8052 58.6852 35.306 58.6852H28.7222C26.9758 58.6852 25.3534 59.3453 24.1564 60.5423C22.9561 61.7415 22.2948 63.376 22.2948 65.1444C22.2948 65.9039 22.419 66.6371 22.6576 67.3213C22.2413 68.0903 21.9834 68.9486 21.9104 69.852C21.8682 70.371 21.8864 70.8816 21.962 71.3777C21.383 72.3514 21.0747 73.472 21.0747 74.6505C21.0747 76.1622 21.5976 77.5897 22.5864 78.7766C22.65 78.8531 22.7151 78.9273 22.7815 78.9998C22.4385 79.9625 22.2628 80.9931 22.2628 82.069C22.2628 83.8542 22.7346 85.4988 23.6643 86.9552C24.5585 88.3564 25.7725 89.4541 27.2792 90.2208C28.6785 90.9306 30.2014 91.2906 31.8055 91.2906C33.4329 91.2906 34.9651 90.9206 36.366 90.1868C37.2751 89.7091 38.0685 89.0895 38.7645 88.3628C39.4761 89.1048 40.2969 89.7362 41.2491 90.2208C42.6484 90.9306 44.1713 91.2906 45.7756 91.2906C47.4023 91.2906 48.9341 90.9206 50.3362 90.1868C51.7681 89.434 52.945 88.3648 53.8359 87.0054C54.7846 85.5562 55.286 83.8492 55.286 82.069C55.286 81.1555 55.154 80.2632 54.8976 79.4173C55.3466 78.9597 55.718 78.4468 56.0072 77.8946C56.1883 78.2004 56.394 78.4957 56.628 78.7766C57.6063 79.9518 58.9533 80.6969 60.4944 80.9329C60.7475 81.3386 61.0465 81.7158 61.3895 82.0584C62.599 83.2693 64.2391 83.9362 66.0077 83.9362C67.9876 83.9362 69.7452 83.1421 70.9578 81.699C71.1617 81.4563 71.3462 81.2024 71.5108 80.9384C72.0052 80.8658 72.4781 80.7356 72.9289 80.561C73.3658 80.7308 73.8239 80.8593 74.3038 80.9328C74.5569 81.3385 74.856 81.7157 75.1989 82.0583C76.4084 83.2693 78.0485 83.9361 79.8172 83.9361C81.7971 83.9361 83.5546 83.1421 84.7672 81.699C84.9712 81.4562 85.1556 81.2023 85.3203 80.9383C85.4635 80.9173 85.6035 80.8877 85.7434 80.8579C86.76 81.4991 87.9425 81.8485 89.1944 81.8485H98.0903C99.8972 81.8485 101.563 81.1498 102.788 79.8736C103.945 78.6627 104.582 77.0818 104.582 75.421C104.582 73.9043 104.05 72.4679 103.039 71.2614C102.998 71.2129 102.956 71.1645 102.914 71.117Z" fill="white"/>
<g id="Group_4">
<path id="Vector_15" d="M27.4057 82.0692C27.4057 81.0631 27.7269 80.2065 28.3691 79.5C29.0114 78.7935 29.8033 78.3443 30.7458 78.1512C30.6599 77.9799 30.6172 77.7444 30.6172 77.4447V76.7706C30.6172 76.1713 30.3387 75.8711 29.7824 75.8711H27.5343C27.0846 75.8711 26.7525 75.7427 26.5388 75.4861C26.3245 75.2288 26.2177 74.9509 26.2177 74.6507C26.2177 74.2869 26.3404 73.9872 26.5868 73.7517C26.8326 73.5162 27.1487 73.3985 27.5343 73.3985H36.4303C36.8365 73.3985 37.1633 73.5162 37.4097 73.7517C37.6555 73.9872 37.7791 74.2869 37.7791 74.6507C37.7791 74.9509 37.6666 75.2288 37.4418 75.4861C37.2171 75.7427 36.8798 75.8711 36.4303 75.8711H34.1499C33.593 75.8711 33.3151 76.1819 33.3151 76.8025V77.4447C33.3151 77.7226 33.251 77.9799 33.1223 78.2154C34.0001 78.4509 34.7281 78.9168 35.3062 79.6127C35.8843 80.308 36.1734 81.1272 36.1734 82.0691C36.1734 82.861 35.9698 83.568 35.5632 84.1891C35.1561 84.8097 34.6263 85.2913 33.9734 85.6345C33.3202 85.9765 32.5975 86.1478 31.8057 86.1478C31.0133 86.1478 30.2803 85.9765 29.6059 85.6345C28.9315 85.2913 28.3961 84.8097 28.0001 84.1891C27.6037 83.5681 27.4057 82.8611 27.4057 82.0692ZM33.6041 66.3973C33.4967 66.3973 33.4275 66.4291 33.3954 66.4933C33.3633 66.5581 33.3471 66.6116 33.3471 66.654C33.3471 67.1038 33.6468 67.505 34.2464 67.8582C34.8454 68.2115 35.584 68.6886 36.4623 69.2874C36.6975 69.4593 36.8527 69.7371 36.928 70.1227C37.0028 70.5078 36.8903 70.8504 36.5907 71.1501C36.3549 71.4286 36.0394 71.5675 35.6434 71.5675C35.247 71.5675 34.8993 71.4392 34.5996 71.1825L32.9297 69.7695C32.5867 69.4699 32.3083 69.3254 32.0946 69.3359C31.8803 69.3466 31.6018 69.5017 31.2595 69.8014L29.4291 71.3109C29.108 71.5893 28.7492 71.7233 28.3533 71.7121C27.9568 71.702 27.6412 71.5575 27.4057 71.2785C27.1273 71.0006 27.0045 70.6635 27.0366 70.2673C27.0686 69.8711 27.2453 69.5659 27.5664 69.3516C28.5725 68.7311 29.3432 68.2333 29.8786 67.8583C30.4135 67.4844 30.6919 67.0826 30.7137 66.6541C30.7137 66.6117 30.6975 66.5581 30.6654 66.4934C30.6333 66.4292 30.553 66.3974 30.4246 66.3974H28.7223C28.337 66.3974 28.0265 66.2846 27.791 66.0603C27.5552 65.8354 27.4377 65.5302 27.4377 65.1446C27.4377 64.7384 27.5552 64.417 27.791 64.1815C28.0265 63.946 28.337 63.8282 28.7223 63.8282H35.3061C35.6914 63.8282 36.0073 63.946 36.2536 64.1815C36.4994 64.417 36.6227 64.7384 36.6227 65.1446C36.6227 65.5302 36.4994 65.8355 36.2536 66.0603C36.0072 66.2847 35.6914 66.3974 35.3061 66.3974L33.6041 66.3973ZM30.1356 82.0692C30.1356 82.5619 30.2961 82.947 30.6172 83.2254C30.9383 83.5033 31.3343 83.6429 31.8055 83.6429C32.2762 83.6429 32.6727 83.5034 32.9939 83.2254C33.315 82.947 33.4755 82.5619 33.4755 82.0692C33.4755 81.5765 33.315 81.1914 32.9939 80.9135C32.6727 80.635 32.2762 80.4955 31.8055 80.4955C31.3343 80.4955 30.9383 80.635 30.6172 80.9135C30.2961 81.1914 30.1356 81.5765 30.1356 82.0692Z" fill="#A248CA"/>
<path id="Vector_16" d="M50.2397 73.6552C50.6891 73.6552 51.0265 73.7835 51.2511 74.0407C51.476 74.2974 51.5884 74.5977 51.5884 74.9397C51.5884 75.2824 51.4648 75.577 51.219 75.8231C50.9726 76.0692 50.6459 76.1925 50.2396 76.1925H41.4078C41.0007 76.1925 40.6693 76.0692 40.4123 75.8231C40.1553 75.577 40.027 75.2824 40.027 74.9397C40.027 74.5977 40.1391 74.2974 40.364 74.0407C40.5889 73.7835 40.9366 73.6552 41.4078 73.6552H50.2397ZM41.3758 82.0692C41.3758 81.2774 41.5733 80.5759 41.9698 79.966C42.3658 79.3554 42.9012 78.8789 43.5756 78.5368C44.25 78.1942 44.9833 78.0229 45.7757 78.0229C46.5675 78.0229 47.2899 78.1942 47.9434 78.5368C48.5963 78.8789 49.1261 79.3554 49.5329 79.966C49.9394 80.5759 50.1431 81.2773 50.1431 82.0692C50.1431 82.8611 49.9395 83.5681 49.5329 84.1892C49.1261 84.8097 48.5962 85.2913 47.9434 85.6345C47.2899 85.9766 46.5675 86.1479 45.7757 86.1479C44.9833 86.1479 44.25 85.9766 43.5756 85.6345C42.9012 85.2913 42.3658 84.8097 41.9698 84.1892C41.5734 83.5681 41.3758 82.8611 41.3758 82.0692ZM43.688 71.6964C43.0884 71.6964 42.5962 71.5033 42.2106 71.1183C41.8253 70.7327 41.6328 70.2405 41.6328 69.6406V65.851C41.6328 65.2305 41.8253 64.7383 42.2106 64.3739C42.5962 64.0101 43.0884 63.8281 43.688 63.8281H48.8585C49.2441 63.8281 49.5652 63.9459 49.8219 64.1814C50.0789 64.4169 50.2075 64.7383 50.2075 65.1445C50.2075 65.5301 50.0789 65.8354 49.8219 66.0602C49.5652 66.2846 49.2441 66.3973 48.8585 66.3973H45.4865C45.1009 66.3973 44.8171 66.5044 44.6355 66.7181C44.4533 66.9324 44.3623 67.1897 44.3623 67.4893V67.8744C44.3623 68.6885 44.7156 69.0948 45.4223 69.0948H48.9871C49.3724 69.0948 49.6935 69.2069 49.9505 69.4318C50.2075 69.6566 50.3358 69.9731 50.3358 70.3793C50.3358 70.7649 50.2075 71.0696 49.9505 71.2945C49.6935 71.5194 49.3724 71.6533 48.9871 71.6963L43.688 71.6964ZM44.1054 82.0692C44.1054 82.562 44.2661 82.947 44.5873 83.2254C44.9085 83.5033 45.3044 83.6429 45.7757 83.6429C46.2463 83.6429 46.6426 83.5034 46.9637 83.2254C47.2849 82.947 47.4456 82.562 47.4456 82.0692C47.4456 81.5765 47.2849 81.1914 46.9637 80.9135C46.6426 80.635 46.2463 80.4955 45.7757 80.4955C45.3044 80.4955 44.9085 80.635 44.5873 80.9135C44.2662 81.1914 44.1054 81.5765 44.1054 82.0692Z" fill="#A248CA"/>
<path id="Vector_17" d="M67.3565 77.4447C67.3565 77.8086 67.2441 78.1245 67.0192 78.3923C66.7946 78.6596 66.4573 78.7935 66.0078 78.7935C65.6007 78.7935 65.274 78.6702 65.0281 78.4241C64.7817 78.1779 64.6587 77.8515 64.6587 77.4447V76.7706C64.6587 76.1713 64.3802 75.871 63.8239 75.871H61.5758C61.1261 75.871 60.794 75.7427 60.5803 75.486C60.366 75.2287 60.2592 74.9509 60.2592 74.6506C60.2592 74.2868 60.3819 73.9871 60.6283 73.7517C60.8741 73.5162 61.1902 73.3984 61.5758 73.3984H70.4718C70.878 73.3984 71.2048 73.5162 71.4512 73.7517C71.697 73.9871 71.8206 74.2868 71.8206 74.6506C71.8206 74.9509 71.7081 75.2287 71.4833 75.486C71.2586 75.7427 70.9213 75.871 70.4718 75.871H68.1914C67.6345 75.871 67.3566 76.1818 67.3566 76.8024L67.3565 77.4447ZM61.7363 67.6495C61.7363 66.8365 61.9341 66.1194 62.3306 65.4978C62.7265 64.8773 63.2564 64.3901 63.9201 64.0369C64.5836 63.6836 65.3116 63.5067 66.104 63.5067C66.8958 63.5067 67.6238 63.6837 68.2879 64.0369C68.9511 64.3901 69.4866 64.8773 69.8937 65.4978C70.3002 66.1194 70.5039 66.8365 70.5039 67.6495C70.5039 68.4849 70.3002 69.2182 69.8937 69.8493C69.4866 70.4815 68.9512 70.9738 68.2879 71.327C67.6238 71.6802 66.8959 71.8566 66.104 71.8566C65.3116 71.8566 64.5837 71.6802 63.9201 71.327C63.2564 70.9737 62.7265 70.4815 62.3306 69.8493C61.9341 69.2182 61.7363 68.4849 61.7363 67.6495ZM64.4341 67.6495C64.4341 68.1635 64.5996 68.5647 64.9319 68.8538C65.2637 69.1429 65.6545 69.2874 66.1041 69.2874C66.5962 69.2874 67.0033 69.1429 67.3245 68.8538C67.6456 68.5647 67.8061 68.1635 67.8061 67.6495C67.8061 67.1574 67.6456 66.7667 67.3245 66.4777C67.0033 66.1886 66.5962 66.0441 66.1041 66.0441C65.6546 66.0441 65.2637 66.1886 64.9319 66.4777C64.5996 66.7667 64.4341 67.1574 64.4341 67.6495Z" fill="#021A38"/>
<path id="Vector_18" d="M81.166 77.4447C81.166 77.8086 81.0535 78.1245 80.8287 78.3923C80.604 78.6596 80.2667 78.7935 79.8172 78.7935C79.4101 78.7935 79.0834 78.6702 78.8376 78.4241C78.5912 78.1779 78.4681 77.8515 78.4681 77.4447V76.7706C78.4681 76.1713 78.1897 75.871 77.6334 75.871H75.3853C74.9355 75.871 74.6035 75.7427 74.3898 75.486C74.1755 75.2287 74.0686 74.9509 74.0686 74.6506C74.0686 74.2868 74.1914 73.9871 74.4378 73.7517C74.6836 73.5162 74.9997 73.3984 75.3853 73.3984H84.2812C84.6875 73.3984 85.0142 73.5162 85.2606 73.7517C85.5064 73.9871 85.63 74.2868 85.63 74.6506C85.63 74.9509 85.5176 75.2287 85.2927 75.486C85.0681 75.7427 84.7308 75.871 84.2813 75.871H82.0009C81.444 75.871 81.1661 76.1818 81.1661 76.8024L81.166 77.4447ZM81.455 66.3973C81.3476 66.3973 81.2784 66.4291 81.2463 66.4933C81.2142 66.5581 81.198 66.6116 81.198 66.654C81.198 67.1038 81.4977 67.505 82.0973 67.8582C82.6963 68.2115 83.4349 68.6886 84.3132 69.2874C84.5484 69.4593 84.7036 69.7371 84.7789 70.1227C84.8537 70.5078 84.7412 70.8504 84.4416 71.1501C84.2058 71.4286 83.8903 71.5675 83.4943 71.5675C83.0979 71.5675 82.7502 71.4392 82.4505 71.1825L80.7806 69.7695C80.4376 69.4699 80.1592 69.3254 79.9455 69.3359C79.7312 69.3466 79.4527 69.5017 79.1104 69.8014L77.28 71.3109C76.9589 71.5893 76.6001 71.7233 76.2042 71.7121C75.8077 71.702 75.4921 71.5575 75.2566 71.2785C74.9782 71.0006 74.8554 70.6635 74.8875 70.2673C74.9195 69.8711 75.0962 69.5659 75.4173 69.3516C76.4234 68.7311 77.1941 68.2333 77.7295 67.8583C78.2644 67.4844 78.5428 67.0826 78.5646 66.6541C78.5646 66.6117 78.5484 66.5581 78.5163 66.4934C78.4842 66.4292 78.4039 66.3974 78.2755 66.3974H76.5732C76.1879 66.3974 75.8773 66.2846 75.6419 66.0603C75.4061 65.8354 75.2886 65.5302 75.2886 65.1446C75.2886 64.7384 75.4061 64.417 75.6419 64.1815C75.8773 63.946 76.1879 63.8282 76.5732 63.8282H83.1569C83.5423 63.8282 83.8581 63.946 84.1045 64.1815C84.3503 64.417 84.4736 64.7384 84.4736 65.1446C84.4736 65.5302 84.3503 65.8355 84.1045 66.0603C83.8581 66.2847 83.5423 66.3974 83.1569 66.3974L81.455 66.3973Z" fill="#021A38"/>
<path id="Vector_19" d="M95.0072 73.3661C95.0072 73.9018 95.2851 74.1691 95.8423 74.1691H98.0904C98.5399 74.1691 98.8772 74.303 99.1018 74.5703C99.3267 74.8387 99.4391 75.1222 99.4391 75.4213C99.4391 75.7645 99.3155 76.0636 99.0697 76.3209C98.8233 76.5775 98.4966 76.7059 98.0903 76.7059H89.1944C88.8088 76.7059 88.4927 76.5775 88.2468 76.3209C88.0004 76.0636 87.8777 75.7645 87.8777 75.4213C87.8777 75.1222 87.9845 74.8387 88.1988 74.5703C88.4125 74.303 88.7446 74.1691 89.1944 74.1691H91.4745C92.0308 74.1691 92.3093 73.9124 92.3093 73.3985V72.7562C92.3093 72.3064 92.4485 71.9643 92.727 71.7283H91.4745C90.9176 71.7283 90.4357 71.5414 90.0292 71.1663C89.6224 70.7919 89.4189 70.3047 89.4189 69.7049V66.6541C89.4189 66.0335 89.6329 65.5302 90.0612 65.1446C90.4892 64.7595 91.0032 64.5665 91.6028 64.5665H93.7867C94.172 64.5665 94.429 64.4817 94.5576 64.3098C94.686 64.1385 94.7501 63.9783 94.7501 63.8282V63.5391C94.7501 63.3254 94.691 63.1273 94.5735 62.9448C94.4555 62.7634 94.1611 62.6719 93.6904 62.6719H90.8643C90.4789 62.6719 90.1578 62.5547 89.9008 62.3187C89.6439 62.0832 89.5155 61.7623 89.5155 61.355C89.5155 60.9911 89.6439 60.6865 89.9008 60.4398C90.1578 60.1942 90.4789 60.0703 90.8643 60.0703H95.3604C95.9812 60.0703 96.4789 60.2422 96.8537 60.5843C97.2281 60.9269 97.4159 61.4303 97.4159 62.0938V65.1127C97.4159 65.7121 97.212 66.1942 96.8057 66.5581C96.3986 66.9219 95.917 67.1038 95.3604 67.1038H93.0803C92.6732 67.1038 92.4218 67.1954 92.3255 67.3767C92.2292 67.5586 92.181 67.7355 92.181 67.9068V68.1317C92.181 68.3454 92.2293 68.5703 92.3255 68.8058C92.4218 69.0419 92.7053 69.1591 93.1765 69.1591H96.4846C96.8699 69.1591 97.1855 69.2769 97.4319 69.5123C97.6777 69.7484 97.8013 70.0693 97.8013 70.4761C97.8013 70.8611 97.6777 71.1663 97.4319 71.3913C97.1855 71.6162 96.8699 71.7283 96.4846 71.7283H94.5577C94.8571 71.9855 95.0072 72.3282 95.0072 72.7562L95.0072 73.3661Z" fill="#021A38"/>
</g>
</g>
</svg>
