<svg width="80" height="80" viewBox="0 0 80 80" fill="none" xmlns="http://www.w3.org/2000/svg">
<path d="M80 80C68.4303 72.6659 54.7121 68.4165 40 68.4165C25.2879 68.4165 11.5697 72.6659 0 80H80Z" fill="#5B6871"/>
<path d="M19.0779 75.5488C19.0779 75.5488 16.8986 79.1289 10.8705 79.4093C4.84243 79.6898 8.81526 75.3286 8.81526 75.3286L19.0779 75.5488Z" fill="#55636C"/>
<path d="M19.4733 74.1939C19.34 73.2029 18.3321 71.763 18.3321 71.763L18.3153 71.7662C17.7245 70.8007 15.6101 70.2973 13.1979 70.6218C10.7856 70.9463 8.8805 71.9899 8.56498 73.0769C8.56498 73.0769 7.97317 74.7321 8.10648 75.723C8.10655 75.7236 8.10681 75.7242 8.10687 75.7248C8.10655 75.7802 8.10866 75.8356 8.11608 75.8908C8.30636 77.3054 11.0071 78.1097 14.1483 77.6871C17.2895 77.2645 19.6817 75.7752 19.4914 74.3606C19.4869 74.3275 19.4797 74.2951 19.4725 74.2627C19.4754 74.2396 19.4764 74.2166 19.4733 74.1939Z" fill="#4B5B66"/>
<path d="M13.6085 73.5479C15.7241 73.2633 17.3714 72.5295 17.2879 71.9089C17.2044 71.2884 15.4218 71.016 13.3062 71.3006C11.1906 71.5852 9.54326 72.319 9.62674 72.9396C9.71023 73.5601 11.4929 73.8325 13.6085 73.5479Z" fill="#3D4C56"/>
<path d="M51.5078 72.1864C51.5078 72.1864 54.9729 76.0302 58.9818 74.2992C62.3289 72.854 55.5668 69.8042 55.5668 69.8042L51.5078 72.1864Z" fill="#55636C"/>
<path d="M59.2271 71.5422C58.3733 68.8032 58.4116 66.4851 58.4116 66.4851C58.4135 65.7851 57.0213 65.2138 55.302 65.209C53.5827 65.2042 52.1873 65.7678 52.1853 66.4677C52.1853 66.4677 52.2105 68.7861 51.3416 71.5203C51.3268 71.5765 51.319 71.6335 51.3189 71.6914C51.3164 72.5829 53.0896 73.3105 55.2794 73.3166C57.4692 73.3227 59.2465 72.605 59.249 71.7135C59.2491 71.6556 59.2415 71.5985 59.2271 71.5422Z" fill="#4B5B66"/>
<path d="M57.8101 66.3332C57.8112 65.9591 56.6877 65.6527 55.3007 65.6488C53.9138 65.645 52.7886 65.9451 52.7875 66.3192C52.7865 66.6933 53.91 66.9997 55.2969 67.0036C56.6839 67.0074 57.8091 66.7073 57.8101 66.3332Z" fill="#3D4C56"/>
<path d="M61.9188 76.7745C64.1551 77.1954 65.9387 77.9895 66.2715 78.6629C66.3535 78.5881 66.4056 78.5043 66.423 78.4117C66.5584 77.6922 64.5874 76.7174 62.0205 76.2343C59.4536 75.7513 57.263 75.9429 57.1276 76.6624C57.1101 76.755 57.1282 76.8519 57.1774 76.9514C57.7322 76.4451 59.6824 76.3536 61.9188 76.7745Z" fill="#43535C"/>
<path d="M61.53 78.8395C63.7664 79.2604 65.7166 79.1689 66.2714 78.6626C65.9386 77.9893 64.155 77.1952 61.9186 76.7743C59.6822 76.3534 57.7321 76.4449 57.1772 76.9512C57.51 77.6245 59.2936 78.4186 61.53 78.8395Z" fill="#526069"/>
<path d="M24.0793 75.5448C25.7281 75.1164 27.2128 75.1757 27.6842 75.646C27.7113 75.5514 27.715 75.4596 27.6924 75.3724C27.5164 74.6951 25.8397 74.5446 23.9472 75.0362C22.0548 75.5278 20.6633 76.4754 20.8392 77.1527C20.8619 77.2399 20.9098 77.3183 20.9795 77.3877C21.1625 76.7475 22.4305 75.9731 24.0793 75.5448Z" fill="#43535C"/>
<path d="M24.5844 77.4891C26.2332 77.0608 27.5013 76.2864 27.6843 75.6461C27.2128 75.1759 25.7282 75.1166 24.0794 75.5449C22.4305 75.9732 21.1625 76.7476 20.9795 77.3879C21.4509 77.8582 22.9356 77.9174 24.5844 77.4891Z" fill="#526069"/>
<path d="M29.7017 77.0185C30.6846 76.7632 31.5696 76.7985 31.8506 77.0788C31.8668 77.0224 31.869 76.9677 31.8555 76.9158C31.7506 76.512 30.751 76.4222 29.6229 76.7153C28.4948 77.0084 27.6653 77.5733 27.7702 77.977C27.7837 78.029 27.8123 78.0757 27.8538 78.1171C27.9629 77.7354 28.7188 77.2738 29.7017 77.0185Z" fill="#43535C"/>
<path d="M30.003 78.1775C30.9859 77.9221 31.7418 77.4605 31.8509 77.0788C31.5698 76.7985 30.6848 76.7632 29.7019 77.0185C28.719 77.2738 27.9631 77.7354 27.854 78.1171C28.135 78.3975 29.0201 78.4328 30.003 78.1775Z" fill="#526069"/>
<path d="M66.6632 75.4595C67.3947 75.5972 67.9705 75.897 68.0693 76.1707C68.0976 76.1383 68.1162 76.1027 68.1234 76.064C68.18 75.7635 67.5452 75.3918 66.7056 75.2338C65.866 75.0758 65.1396 75.1913 65.083 75.4918C65.0758 75.5305 65.0801 75.5704 65.0947 75.6108C65.2862 75.3918 65.9317 75.3218 66.6632 75.4595Z" fill="#43535C"/>
<path d="M66.5008 76.3219C67.2323 76.4596 67.8778 76.3896 68.0693 76.1706C67.9705 75.8969 67.3947 75.597 66.6632 75.4594C65.9317 75.3218 65.2862 75.3918 65.0947 75.6108C65.1935 75.8844 65.7693 76.1843 66.5008 76.3219Z" fill="#526069"/>
<path d="M60.6677 39.8606L65.8883 38.8767C65.8883 38.8767 67.9725 38.6931 67.5869 36.647L66.3395 30.0288L68.9413 29.5385L70.3696 37.1165C70.3696 37.1165 71.414 41.1311 67.5997 41.85L61.2675 43.0434L60.6677 39.8606Z" fill="white"/>
<path d="M62.4527 39.5239L60.6675 39.8604L61.2674 43.0431L63.0526 42.7067L62.4527 39.5239Z" fill="#DDDDDD"/>
<path d="M69.2105 29.4874L66.0825 30.077C65.2881 30.2267 64.5858 29.5431 64.714 28.745L64.9381 27.3499C64.9381 27.3499 64.5578 27.2058 64.4757 26.7701C64.3935 26.3343 64.7285 26.1339 64.7285 26.1339C64.7285 26.1339 62.5929 25.2808 62.9709 23.8167C63.3489 22.3526 64.6555 22.8322 64.6555 22.8322C64.6555 22.8322 63.7946 20.346 66.8637 19.7676C69.9328 19.1891 70.0292 23.4477 69.7009 24.412C69.3725 25.3763 68.7309 25.615 68.7309 25.615C68.7309 25.615 69.1507 25.6563 69.2301 25.9735C69.3094 26.2906 69.0528 26.5941 69.0528 26.5941L69.8886 27.5905C70.462 28.2741 70.0873 29.3222 69.2105 29.4874Z" fill="white"/>
<path d="M68.9412 29.5384L66.3394 30.0288L66.5607 31.2034L69.1626 30.713L68.9412 29.5384Z" fill="#DDDDDD"/>
<path d="M44.0964 68.5322H45.6387V64.021H51.0882V70.3316C51.0882 71.8293 49.874 73.0435 48.3763 73.0435H46.8469H45.6387H44.0964C42.8507 73.0435 41.8408 72.0336 41.8408 70.7879C41.8408 69.5421 42.8507 68.5322 44.0964 68.5322Z" fill="white"/>
<path d="M45.6389 65.7168H51.0884V64.0203H45.6389V65.7168Z" fill="#4B4BBC"/>
<path d="M47.0528 64.02H49.8169V54.2521H47.0528V64.02Z" fill="white"/>
<path d="M47.0527 54.2529H49.8169V57.9203C48.4348 57.5492 47.7129 57.1738 47.0527 56.8714V54.2529Z" fill="#DDDDDD"/>
<path d="M61.2701 68.5317H59.7278V64.0205H54.2783V70.3311C54.2783 71.8288 55.4925 73.043 56.9902 73.043H61.2701C62.5158 73.043 63.5257 72.0331 63.5257 70.7874C63.5257 69.5416 62.5158 68.5317 61.2701 68.5317Z" fill="white"/>
<path d="M59.7278 64.0205H54.2783V65.717H59.7278V64.0205Z" fill="#4B4BBC"/>
<path d="M58.3139 54.2529H55.5498V64.0208H58.3139V54.2529Z" fill="white"/>
<path d="M58.314 54.2529H55.5498V57.9203C56.9319 57.5492 57.6538 57.1738 58.314 56.8714V54.2529Z" fill="#DDDDDD"/>
<path d="M43.5904 34.8711V47.3914C43.5904 52.4606 47.6998 56.57 52.769 56.57C57.8382 56.57 61.9476 52.4606 61.9476 47.3914V34.8711H43.5904Z" fill="white"/>
<path d="M52.769 36.7514C52.769 36.7514 47.1935 36.1049 43.5903 33.3159V34.8711C43.5903 34.8711 46.6062 38.2127 52.769 38.2127C58.9317 38.2127 61.9476 34.8711 61.9476 34.8711V33.3159C58.3444 36.1049 52.769 36.7514 52.769 36.7514Z" fill="#4B4BBC"/>
<path d="M43.5902 27.5518C43.5902 27.5518 42.249 28.2477 42.249 29.7658C42.249 31.2838 43.5902 31.8606 43.5902 31.8606V27.5518Z" fill="#DDDDDD"/>
<path d="M61.9473 27.5518C61.9473 27.5518 63.2884 28.2477 63.2884 29.7658C63.2884 31.2838 61.9473 31.8606 61.9473 31.8606V27.5518Z" fill="#DDDDDD"/>
<path d="M52.769 18.3945C47.6997 18.3945 43.5903 22.5039 43.5903 27.5731V33.3163C43.5903 33.3163 47.1974 36.7518 52.769 36.7518C58.3405 36.7518 61.9476 33.3163 61.9476 33.3163V27.5731C61.9476 22.5039 57.8382 18.3945 52.769 18.3945Z" fill="white"/>
<path d="M52.7684 35.1802C56.8392 35.1802 60.1393 31.8802 60.1393 27.8094C60.1393 23.7385 56.8392 20.4385 52.7684 20.4385C48.6975 20.4385 45.3975 23.7385 45.3975 27.8094C45.3975 31.8802 48.6975 35.1802 52.7684 35.1802Z" fill="#DDDDDD"/>
<path d="M52.7685 33.9716C56.2502 33.9716 59.0727 31.1491 59.0727 27.6674C59.0727 24.1857 56.2502 21.3633 52.7685 21.3633C49.2868 21.3633 46.4644 24.1857 46.4644 27.6674C46.4644 31.1491 49.2868 33.9716 52.7685 33.9716Z" fill="#4B4BBC"/>
<path d="M52.7683 32.4292C55.4245 32.4292 57.5777 30.276 57.5777 27.6199C57.5777 24.9638 55.4245 22.8105 52.7683 22.8105C50.1122 22.8105 47.959 24.9638 47.959 27.6199C47.959 30.276 50.1122 32.4292 52.7683 32.4292Z" fill="#2B2B5E"/>
<path d="M53.5978 23.214C54.2529 22.0494 56.1812 23.6767 56.721 24.6792C57.2608 25.6817 57.7104 27.125 56.5917 27.4912C55.6414 27.8023 55.4872 26.4027 54.4461 25.3289C53.4051 24.2551 53.2508 23.8309 53.5978 23.214Z" fill="white"/>
<path d="M53.8929 40.0894H51.7337C49.6979 40.0894 48.0322 41.7551 48.0322 43.7908V48.4692C48.0322 50.505 49.6979 52.1707 51.7337 52.1707H53.8929C55.9288 52.1707 57.5944 50.505 57.5944 48.4692V43.7908C57.5944 41.755 55.9288 40.0894 53.8929 40.0894ZM55.0909 42.6837C55.3483 42.6837 55.557 42.8924 55.557 43.1498C55.557 43.4073 55.3483 43.616 55.0909 43.616C54.8334 43.616 54.6247 43.4073 54.6247 43.1498C54.6247 42.8924 54.8334 42.6837 55.0909 42.6837ZM55.0909 45.5648C55.3483 45.5648 55.557 45.7735 55.557 46.031C55.557 46.2884 55.3483 46.4971 55.0909 46.4971C54.8334 46.4971 54.6247 46.2884 54.6247 46.031C54.6247 45.7735 54.8334 45.5648 55.0909 45.5648ZM49.5102 43.1335C49.5102 42.8861 49.7127 42.6837 49.96 42.6837H53.4556C53.703 42.6837 53.9054 42.8861 53.9054 43.1335V43.1661C53.9054 43.4136 53.703 43.616 53.4556 43.616H49.96C49.7127 43.616 49.5102 43.4136 49.5102 43.1661V43.1335ZM49.5102 46.0147C49.5102 45.7673 49.7127 45.5648 49.96 45.5648H53.4556C53.703 45.5648 53.9054 45.7673 53.9054 46.0147V46.0473C53.9054 46.2947 53.703 46.4971 53.4556 46.4971H49.96C49.7127 46.4971 49.5102 46.2947 49.5102 46.0473V46.0147ZM56.1165 48.7265C56.1165 48.9739 55.914 49.1763 55.6666 49.1763H49.9601C49.7127 49.1763 49.5103 48.9739 49.5103 48.7265V48.6938C49.5103 48.4465 49.7127 48.244 49.9601 48.244H55.6666C55.914 48.244 56.1165 48.4465 56.1165 48.6938V48.7265Z" fill="#DDDDDD"/>
<path d="M53.4556 42.6841H49.9601C49.7117 42.6841 49.5103 42.8855 49.5103 43.1339V43.1666C49.5103 43.415 49.7117 43.6164 49.9601 43.6164H53.4556C53.7041 43.6164 53.9055 43.415 53.9055 43.1666V43.1339C53.9055 42.8855 53.7041 42.6841 53.4556 42.6841Z" fill="#C1C1C1"/>
<path d="M53.4557 45.5649H49.9601C49.7116 45.5649 49.5103 45.7663 49.5103 46.0148V46.0474C49.5103 46.2959 49.7116 46.4972 49.9601 46.4972H53.4557C53.7041 46.4972 53.9055 46.2959 53.9055 46.0474V46.0148C53.9055 45.7663 53.7041 45.5649 53.4557 45.5649Z" fill="#C1C1C1"/>
<path d="M55.6666 48.2437H49.9601C49.7116 48.2437 49.5103 48.445 49.5103 48.6935V48.7262C49.5103 48.9746 49.7116 49.176 49.9601 49.176H55.6666C55.915 49.176 56.1164 48.9746 56.1164 48.7262V48.6935C56.1164 48.445 55.915 48.2437 55.6666 48.2437Z" fill="#C1C1C1"/>
<path d="M55.0912 43.6164C55.3486 43.6164 55.5573 43.4077 55.5573 43.1502C55.5573 42.8927 55.3486 42.6841 55.0912 42.6841C54.8337 42.6841 54.625 42.8928 54.625 43.1502C54.625 43.4077 54.8337 43.6164 55.0912 43.6164Z" fill="#E01949"/>
<path d="M55.0912 46.4972C55.3486 46.4972 55.5573 46.2885 55.5573 46.0311C55.5573 45.7736 55.3486 45.5649 55.0912 45.5649C54.8337 45.5649 54.625 45.7736 54.625 46.0311C54.625 46.2885 54.8337 46.4972 55.0912 46.4972Z" fill="#E01949"/>
<path d="M43.5898 37.5573C43.5898 37.5573 41.6446 37.4802 39.8323 40.3335C38.0201 43.1867 36.9405 46.4641 34.5885 46.4641H30.3472V49.3945H35.1283C35.1283 49.3945 37.8659 49.433 39.4468 46.734C40.3451 45.2003 40.9073 44.2144 41.2252 43.649C41.3956 43.3459 41.5531 43.0404 41.7048 42.7277C41.9895 42.1409 42.693 40.9119 43.5898 40.9119V37.5573Z" fill="white"/>
<path d="M28.7847 45.3376L27.4553 45.8162C27.4553 45.8162 27.2432 45.4691 26.7998 45.4691C26.3564 45.4691 26.2215 45.8355 26.2215 45.8355C26.2215 45.8355 25.0069 44.2665 23.2332 44.9991C21.4596 45.7317 19.9719 49.3018 23.079 51.3418C24.9876 52.5949 26.4335 50.8939 26.4528 49.8647C26.4528 49.8647 26.5712 50.2696 26.8976 50.2888C27.2239 50.3081 27.4746 49.9997 27.4746 49.9997L28.6085 50.6364C29.3865 51.0733 30.3471 50.5111 30.3471 49.6188V46.4357C30.3471 45.6274 29.5452 45.0638 28.7847 45.3376Z" fill="white"/>
<path d="M31.9409 46.4648H30.3472V49.3953H31.9409V46.4648Z" fill="#DDDDDD"/>
<path d="M43.5893 37.5573C43.5893 37.5573 42.6033 37.524 41.3823 38.5292L42.7597 41.259C43.009 41.0523 43.2878 40.9117 43.5893 40.9117V37.5573Z" fill="#DDDDDD"/>
<path d="M24.8133 15.7729H0.0336731L5.66308 23.9086L0 31.8604H24.8133V15.7729Z" fill="#4B4BBC"/>
<path opacity="0.5" d="M24.8139 21.8919L17.1539 31.8604H11.6016L24.8139 15.7729V21.8919Z" fill="#2B2B5E"/>
<path opacity="0.5" d="M18.5643 15.7729L4.89203 31.8604H2.57861L16.3123 15.7729H18.5643Z" fill="#2B2B5E"/>
<path d="M14.8598 29.9617C18.2953 29.9617 21.0804 27.1767 21.0804 23.7411C21.0804 20.3056 18.2953 17.5205 14.8598 17.5205C11.4242 17.5205 8.63916 20.3056 8.63916 23.7411C8.63916 27.1767 11.4242 29.9617 14.8598 29.9617Z" fill="#F3FCFF"/>
<path d="M14.8596 29.3969C17.9788 29.3969 20.5073 26.8684 20.5073 23.7492C20.5073 20.6301 17.9788 18.1016 14.8596 18.1016C11.7405 18.1016 9.21191 20.6301 9.21191 23.7492C9.21191 26.8684 11.7405 29.3969 14.8596 29.3969Z" fill="#5497F7"/>
<path d="M16.3439 29.1984C16.3002 29.0097 16.289 28.7951 16.3825 28.6162C16.6042 28.1921 16.4788 27.9993 16.45 27.7006C16.4211 27.4019 16.6331 27.1802 16.45 26.9103C16.2668 26.6404 16.4307 26.3899 16.3343 26.0718C16.2379 25.7538 15.8717 26.0237 15.6404 25.9176C15.4091 25.8116 15.4958 25.5514 15.3705 25.1755C15.2452 24.7996 14.9368 24.9635 14.6766 24.8575C14.4163 24.7515 14.6091 24.4913 14.4742 24.3852C14.3393 24.2792 13.8863 24.4045 13.8188 24.7322C13.7513 25.0599 13.4044 25.0117 13.4044 24.8392C13.4044 24.6668 13.1923 24.5973 12.9707 24.7226C12.749 24.8479 12.2767 24.9057 11.843 24.7226C11.4093 24.5394 11.631 23.9612 11.6696 23.7492C11.7081 23.5371 12.2671 23.354 12.3056 23.4504C12.3442 23.5467 12.7008 23.3926 12.8357 23.1612C12.9706 22.9299 12.5658 22.795 12.5177 22.6504C12.4695 22.5059 12.7104 22.3999 13.0574 22.236C13.4044 22.0721 13.761 21.5999 13.8959 21.4264C14.0308 21.2529 13.8188 20.9252 13.7898 20.7903C13.7609 20.6554 13.1152 20.4819 12.9514 20.6169C12.7875 20.7518 12.7201 20.9638 12.5273 21.0313C12.3345 21.0988 12.1032 20.8 12.084 20.5591C12.0647 20.3181 12.2767 20.3663 12.6333 20.2314C12.9899 20.0965 13.1827 19.5471 13.2598 19.4218C13.3369 19.2965 13.3369 18.9785 13.1923 18.6893C13.1571 18.6189 13.1139 18.5129 13.0687 18.3931C10.8277 19.1421 9.21191 21.2562 9.21191 23.7491C9.21191 23.8736 9.21736 23.9967 9.22529 24.1192C9.32818 24.0941 9.42689 24.072 9.50103 24.125C9.70342 24.2695 10.166 24.1635 10.1082 24.4237C10.0503 24.684 10.0696 24.684 10.5804 24.79C11.0912 24.8959 10.8503 25.002 10.8889 25.3104C10.9274 25.6188 11.496 25.5321 11.843 25.6863C12.19 25.8405 12.4213 25.8694 12.508 26.1104C12.5947 26.3513 12.3634 26.573 12.2863 26.785C12.2092 26.997 12.3056 27.0645 12.4983 27.2379C12.6911 27.4114 13.0284 27.3054 13.173 27.5849C13.3175 27.8644 13.3175 27.98 13.597 28.1053C13.8765 28.2306 13.8958 28.1728 14.1464 28.5776C14.2912 28.8115 14.2975 29.1351 14.277 29.367C14.4686 29.3866 14.6628 29.3968 14.8596 29.3968C15.3734 29.3968 15.8708 29.327 16.3439 29.1984Z" fill="#C5E269"/>
<path d="M15.7273 18.6125C15.8815 18.8534 15.7851 18.9016 15.814 19.0173C15.8429 19.1329 16.132 19.2004 16.2959 19.2293C16.4597 19.2582 16.479 18.9016 16.6332 18.7185C16.7146 18.6219 16.782 18.5261 16.8323 18.4564C16.4717 18.322 16.0938 18.2231 15.7027 18.1646C15.6226 18.3635 15.587 18.3933 15.7273 18.6125Z" fill="#C5E269"/>
<path d="M18.6573 21.4168C18.3103 21.5132 18.3007 21.8505 18.1754 22.024C18.0501 22.1974 17.7899 22.2938 17.4815 22.1589C17.1731 22.0239 16.8454 22.4094 16.7876 22.66C16.7297 22.9107 16.5756 23.1323 16.6334 23.2576C16.6912 23.3829 16.6719 23.6045 16.6719 23.9515C16.6719 24.2985 17.0574 24.3948 17.3465 24.5201C17.6357 24.6454 17.7321 24.6936 18.0887 24.4719C18.4453 24.2503 18.4549 24.1443 18.7055 24.0672C18.9561 23.9901 19.1199 24.2021 19.2548 24.1057C19.3898 24.0094 19.4091 24.125 19.3319 24.4719C19.2548 24.8189 19.3416 24.8864 19.2934 25.1273C19.2452 25.3683 19.438 25.4261 19.3994 25.5803C19.3609 25.7344 19.5151 25.9176 19.7656 26.0236C19.8338 26.0524 19.9096 26.0877 19.9842 26.1238C20.3194 25.4017 20.5078 24.5976 20.5078 23.7491C20.5078 22.7136 20.2278 21.7441 19.7414 20.9097C19.6588 20.9163 19.5729 20.9149 19.4862 20.9252C19.2374 20.9547 19.0043 21.3205 18.6573 21.4168Z" fill="#C5E269"/>
<path d="M17.8577 19.0465C17.7516 19.2874 17.4529 19.0079 17.3083 19.0754C17.1637 19.1429 17.3758 19.3067 17.5589 19.4513C17.742 19.5959 17.6938 19.7501 17.6167 19.9814C17.5396 20.2126 17.3468 20.2512 17.1059 20.2801C16.865 20.3091 16.7589 20.5982 16.73 20.8777C16.7011 21.1572 16.5276 21.3596 16.3445 21.321C16.1613 21.2825 16.0842 21.5909 16.2192 21.6583C16.3541 21.7258 16.412 21.7547 16.5276 21.8704C16.6433 21.986 17.0384 21.6005 17.077 21.4752C17.1155 21.3499 17.289 21.215 17.4625 21.0897C17.636 20.9644 17.7709 21.1379 17.8576 21.2439C17.9444 21.3499 18.1275 21.1572 18.166 21.0415C18.2046 20.9259 18.5612 20.8102 18.6961 20.4632C18.77 20.2732 18.9475 20.1313 19.1156 20.0386C18.7506 19.6205 18.3256 19.2568 17.8532 18.9609C17.8654 18.9913 17.8692 19.0203 17.8577 19.0465Z" fill="#C5E269"/>
<path d="M26.7419 13.6904H24.814V71.7837H26.7419V13.6904Z" fill="#2B2B5E"/>
<path d="M27.3989 11.9833C28.0977 11.4792 28.5542 10.6601 28.5542 9.73266C28.5542 8.19948 27.3113 6.95654 25.7781 6.95654C24.2449 6.95654 23.002 8.19948 23.002 9.73266C23.002 10.6327 23.4322 11.4303 24.096 11.9376C23.7321 12.0529 23.4646 12.3907 23.4646 12.7915C23.4646 13.2864 23.8695 13.6912 24.3643 13.6912H27.0119C27.5067 13.6912 27.9116 13.2864 27.9116 12.7915C27.9116 12.4356 27.7006 12.129 27.3989 11.9833Z" fill="#F7D56B"/>
<path d="M27.3166 8.17718C26.6331 7.3852 25.7101 7.49602 25.4787 7.94583C25.2474 8.39564 25.6972 8.96116 26.3977 9.24391C27.0982 9.52667 26.9567 10.3363 27.6508 10.3235C28.3449 10.3106 28.1263 9.11541 27.3166 8.17718Z" fill="#F9E6B4"/>
<path d="M24.0961 11.937L27.3989 11.9828L27.6188 12.1326C27.6188 12.1326 27.2947 12.6753 25.7781 12.6753C24.2615 12.6753 23.8398 12.0658 23.8398 12.0658L24.0961 11.937Z" fill="#DDB55B"/>
<path d="M23.2508 45.4142C24.9005 45.3132 25.9903 46.6021 26.0583 48.2948C26.1262 49.9875 24.8887 51.2625 23.5225 51.1648C22.1564 51.0672 21.417 49.3083 21.417 48.4706C21.417 47.633 22.1415 45.4822 23.2508 45.4142Z" fill="white"/>
</svg>
