<svg width="80" height="80" viewBox="0 0 80 80" fill="none" xmlns="http://www.w3.org/2000/svg">
<path d="M20.5186 60.6484C20.897 60.6395 28.1754 57.7423 28.6048 47.792" stroke="#57CBF4" stroke-width="6.49456" stroke-linecap="round" stroke-linejoin="round"/>
<path d="M30.938 51.9688C30.938 51.9688 35.0583 61.9716 42.9357 67.8016" stroke="#57CBF4" stroke-width="8.04989" stroke-miterlimit="10" stroke-linecap="round"/>
<path d="M44.0669 41.9526C44.0669 41.9526 52.6259 48.5691 56.1678 57.7067" stroke="#57CBF4" stroke-width="8.04989" stroke-miterlimit="10" stroke-linecap="round"/>
<path d="M49.5935 60.9099L47.7611 62.3079C42.2599 66.5049 34.3468 65.1055 30.6187 59.2764L28.2681 55.6011C24.952 50.4161 26.1654 43.5545 31.0587 39.8212L32.3179 38.8606C37.2112 35.1273 44.1496 35.7696 48.2744 40.3378L51.1981 43.5757C55.8353 48.7113 55.0946 56.7129 49.5935 60.9099Z" fill="#57CBF4"/>
<path d="M42.2066 50.2369L34.5146 56.1054C34.0497 56.46 33.9604 57.1244 34.315 57.5893L37.7531 62.0957C38.1078 62.5606 38.7722 62.6499 39.237 62.2953L46.9291 56.4268C47.394 56.0721 47.4833 55.4077 47.1286 54.9429L43.6905 50.4364C43.3359 49.9716 42.6715 49.8822 42.2066 50.2369Z" fill="#3BA8FA"/>
<path d="M63.7482 42.5018C63.521 42.8046 56.9335 47.0441 48.5864 41.6108" stroke="#57CBF4" stroke-width="6.49456" stroke-linecap="round" stroke-linejoin="round"/>
<path d="M44.5447 18.713C46.3438 18.713 47.8023 17.2545 47.8023 15.4554C47.8023 13.6562 46.3438 12.1978 44.5447 12.1978C42.7456 12.1978 41.2871 13.6562 41.2871 15.4554C41.2871 17.2545 42.7456 18.713 44.5447 18.713Z" fill="#3192D9"/>
<path d="M43.297 16.3996L40.9438 22.3701L42.4592 22.9674L44.8123 16.9969L43.297 16.3996Z" fill="#3192D9"/>
<path d="M25.3484 18.713C27.1476 18.713 28.606 17.2545 28.606 15.4554C28.606 13.6562 27.1476 12.1978 25.3484 12.1978C23.5493 12.1978 22.0908 13.6562 22.0908 15.4554C22.0908 17.2545 23.5493 18.713 25.3484 18.713Z" fill="#3192D9"/>
<path d="M26.5959 16.3993L25.0806 16.9966L27.4337 22.9671L28.949 22.3698L26.5959 16.3993Z" fill="#3192D9"/>
<path d="M52.801 36.3741C52.801 46.4669 44.6192 52.1189 34.5265 52.1189C24.4337 52.1189 16.252 46.4669 16.252 36.3741C16.252 26.2814 24.4337 18.0996 34.5265 18.0996C44.6193 18.0996 52.801 26.2814 52.801 36.3741Z" fill="#57CBF4"/>
<path d="M45.1293 37.9636C45.1293 45.2956 39.1855 47.2473 31.8534 47.2473C24.5214 47.2473 18.5776 45.2956 18.5776 37.9636C18.5776 30.6315 24.5214 28.0957 31.8534 28.0957C39.1855 28.0957 45.1293 30.6315 45.1293 37.9636Z" fill="#CCECFF" stroke="white" stroke-width="1.6138" stroke-miterlimit="10"/>
<path d="M24.4588 41.2546C26.4379 41.2546 28.0422 39.6503 28.0422 37.6712C28.0422 35.6922 26.4379 34.0879 24.4588 34.0879C22.4798 34.0879 20.8755 35.6922 20.8755 37.6712C20.8755 39.6503 22.4798 41.2546 24.4588 41.2546Z" fill="white"/>
<path d="M24.4589 40.0066C25.7486 40.0066 26.7942 38.961 26.7942 37.6713C26.7942 36.3815 25.7486 35.3359 24.4589 35.3359C23.1691 35.3359 22.1235 36.3815 22.1235 37.6713C22.1235 38.961 23.1691 40.0066 24.4589 40.0066Z" fill="#003A7F"/>
<path opacity="0.13" d="M24.4591 37.6049C24.9885 37.6049 25.4176 37.2688 25.4176 36.8542C25.4176 36.4396 24.9885 36.1035 24.4591 36.1035C23.9297 36.1035 23.5005 36.4396 23.5005 36.8542C23.5005 37.2688 23.9297 37.6049 24.4591 37.6049Z" fill="white"/>
<path d="M35.4369 41.2546C37.4159 41.2546 39.0202 39.6503 39.0202 37.6712C39.0202 35.6922 37.4159 34.0879 35.4369 34.0879C33.4578 34.0879 31.8535 35.6922 31.8535 37.6712C31.8535 39.6503 33.4578 41.2546 35.4369 41.2546Z" fill="white"/>
<path d="M35.4369 40.0066C36.7266 40.0066 37.7722 38.961 37.7722 37.6713C37.7722 36.3815 36.7266 35.3359 35.4369 35.3359C34.1471 35.3359 33.1016 36.3815 33.1016 37.6713C33.1016 38.961 34.1471 40.0066 35.4369 40.0066Z" fill="#003A7F"/>
<path opacity="0.13" d="M35.4366 37.6049C35.966 37.6049 36.3952 37.2688 36.3952 36.8542C36.3952 36.4396 35.966 36.1035 35.4366 36.1035C34.9072 36.1035 34.478 36.4396 34.478 36.8542C34.478 37.2688 34.9072 37.6049 35.4366 37.6049Z" fill="white"/>
<path d="M28.4756 40.8994C29.2249 41.8462 30.6611 41.847 31.4116 40.9011L31.4129 40.8994L31.4192 40.9074" stroke="#232323" stroke-width="1.31643" stroke-linecap="round" stroke-linejoin="round"/>
</svg>
