<svg width="80" height="80" viewBox="0 0 80 80" fill="none" xmlns="http://www.w3.org/2000/svg">
<path d="M50.7637 39.3951C51.1751 39.3991 59.184 36.5134 60.0071 25.7217" stroke="#5CC11A" stroke-width="7.05763" stroke-linecap="round" stroke-linejoin="round"/>
<path d="M37.3897 50.0435C37.2194 50.418 31.2193 56.457 21.0908 52.6421" stroke="#5CC11A" stroke-width="7.05763" stroke-linecap="round" stroke-linejoin="round"/>
<path d="M56.576 59.3237L54.5615 60.8118C48.5134 65.2793 39.9388 63.6254 35.9863 57.2287L33.4942 53.1957C29.9784 47.5059 31.4126 40.0707 36.7924 36.0968L38.1768 35.0742C43.5567 31.1003 51.0849 31.9152 55.4897 36.9483L58.6119 40.5159C63.564 46.1742 62.6242 54.8562 56.576 59.3237Z" fill="#63C928"/>
<path d="M37.4268 48.9873C37.4268 48.9873 41.7351 59.9256 50.1961 66.3931" stroke="#63C928" stroke-width="8.74781" stroke-miterlimit="10" stroke-linecap="round"/>
<path d="M47.0986 40.3975C47.0986 40.3975 55.1106 49.0007 65.3514 51.9237" stroke="#63C928" stroke-width="8.74781" stroke-miterlimit="10" stroke-linecap="round"/>
<path d="M20.391 37.3174L18.6085 37.7809L15.9131 22.4273L16.4803 22.2798L20.391 37.3174Z" fill="#4EAF0E"/>
<path d="M27.2101 45.5652C33.2392 45.5652 38.1267 40.6777 38.1267 34.6486C38.1267 28.6195 33.2392 23.7319 27.2101 23.7319C21.181 23.7319 16.2935 28.6195 16.2935 34.6486C16.2935 40.6777 21.181 45.5652 27.2101 45.5652Z" fill="#4EAF0E"/>
<path d="M16.1804 23.8907C17.0265 23.8907 17.7124 23.2048 17.7124 22.3587C17.7124 21.5126 17.0265 20.8267 16.1804 20.8267C15.3343 20.8267 14.6484 21.5126 14.6484 22.3587C14.6484 23.2048 15.3343 23.8907 16.1804 23.8907Z" fill="#4EAF0E"/>
<path d="M48.3635 36.7045C52.794 36.7045 56.3857 33.1129 56.3857 28.6823C56.3857 24.2518 52.794 20.6602 48.3635 20.6602C43.933 20.6602 40.3413 24.2518 40.3413 28.6823C40.3413 33.1129 43.933 36.7045 48.3635 36.7045Z" fill="#4EAF0E"/>
<path d="M50.116 21.8464C49.9187 21.0878 49.5569 20.3774 49.0347 19.7927C44.5661 14.7894 37.5243 12.4017 30.5853 14.2063C23.6463 16.0109 18.6597 21.5268 17.195 28.0731C17.0238 28.8381 17.0539 29.6347 17.2512 30.3934L20.3593 42.3447C20.5566 43.1034 20.9185 43.8137 21.4406 44.3983C25.9091 49.4018 32.9511 51.7895 39.8901 49.9849C46.8291 48.1803 51.8156 42.6644 53.2804 36.118C53.4515 35.353 53.4215 34.5563 53.2242 33.7977L50.116 21.8464Z" fill="#63C928"/>
<path d="M41.2762 14.6255C37.9471 13.4707 34.2523 13.2529 30.5858 14.2065C28.6304 14.715 26.8302 15.5184 25.2199 16.5564C20.1827 23.1915 22.2777 29.3388 24.3245 35.651L39.0834 30.8656C37.7216 26.6649 36.6474 19.629 41.2762 14.6255Z" fill="#4EAF0E"/>
<path d="M44.9151 29.5795C46.6451 36.2316 42.6549 43.0267 36.0028 44.7566C29.3506 46.4866 22.5556 42.4965 20.8257 35.8443C19.0957 29.1922 23.9708 25.7998 30.6229 24.0698C37.275 22.3399 43.1851 22.9274 44.9151 29.5795Z" fill="#D8F4C6" stroke="white" stroke-width="1.75379" stroke-miterlimit="10"/>
<path d="M26.3584 38.8589C28.509 38.8589 30.2524 37.1154 30.2524 34.9648C30.2524 32.8142 28.509 31.0708 26.3584 31.0708C24.2078 31.0708 22.4644 32.8142 22.4644 34.9648C22.4644 37.1154 24.2078 38.8589 26.3584 38.8589Z" fill="white"/>
<path d="M26.3586 37.5028C27.7602 37.5028 28.8964 36.3666 28.8964 34.965C28.8964 33.5635 27.7602 32.4272 26.3586 32.4272C24.957 32.4272 23.8208 33.5635 23.8208 34.965C23.8208 36.3666 24.957 37.5028 26.3586 37.5028Z" fill="#133000"/>
<path opacity="0.13" d="M26.3402 34.8949C26.8969 34.7502 27.2564 34.2793 27.143 33.8433C27.0296 33.4072 26.4863 33.1711 25.9295 33.3159C25.3727 33.4607 25.0133 33.9316 25.1267 34.3676C25.2401 34.8037 25.7834 35.0397 26.3402 34.8949Z" fill="white"/>
<path d="M37.9043 35.8554C40.0549 35.8554 41.7983 34.112 41.7983 31.9614C41.7983 29.8108 40.0549 28.0674 37.9043 28.0674C35.7537 28.0674 34.0103 29.8108 34.0103 31.9614C34.0103 34.112 35.7537 35.8554 37.9043 35.8554Z" fill="white"/>
<path d="M37.9045 34.4999C39.3061 34.4999 40.4423 33.3637 40.4423 31.9621C40.4423 30.5605 39.3061 29.4243 37.9045 29.4243C36.5029 29.4243 35.3667 30.5605 35.3667 31.9621C35.3667 33.3637 36.5029 34.4999 37.9045 34.4999Z" fill="#133000"/>
<path opacity="0.13" d="M37.8861 31.893C38.4428 31.7482 38.8023 31.2773 38.6889 30.8413C38.5755 30.4053 38.0322 30.1692 37.4754 30.314C36.9186 30.4588 36.5592 30.9296 36.6726 31.3657C36.786 31.8017 37.3293 32.0378 37.8861 31.893Z" fill="white"/>
<path d="M33.2106 41.8892L35.6339 41.259C36.1815 41.1166 36.7534 41.3811 36.9995 41.8906L37.6855 43.3112C38.0104 43.9839 37.6395 44.7857 36.9166 44.9737L33.9002 45.7581C33.1772 45.9461 32.4627 45.4266 32.4187 44.6809L32.3258 43.1061C32.2925 42.5412 32.663 42.0316 33.2106 41.8892Z" fill="white"/>
<path d="M53.3443 34.8999C54.4719 34.6066 54.5667 31.2184 53.556 27.3322C52.5453 23.4459 50.8119 20.5332 49.6843 20.8264C48.5567 21.1197 48.4619 24.5079 49.4726 28.3941C50.4833 32.2804 52.2167 35.1931 53.3443 34.8999Z" fill="#4EAF0E"/>
<path d="M30.6647 37.5856C31.0251 38.9713 32.3902 39.8156 33.7139 39.4714C35.0375 39.1272 35.8183 37.7248 35.458 36.339C35.0976 34.9533 34.2192 35.9807 32.8955 36.3249C31.5719 36.6691 30.3043 36.1999 30.6647 37.5856Z" fill="#FF9FC2"/>
</svg>
