<svg width="80" height="80" viewBox="0 0 80 80" fill="none" xmlns="http://www.w3.org/2000/svg">
<path d="M69.1109 36.3049C69.1665 37.6704 68.4215 38.8715 67.2903 39.4668L67.4405 43.0561L67.4839 44.0568L67.5091 44.6606L67.5495 45.6615L67.5762 46.2637L67.6165 47.2645L67.6305 47.5986L67.7652 50.8554C68.9435 51.3526 69.7879 52.4887 69.8434 53.8543C69.9098 55.4037 68.9358 56.7478 67.5449 57.2251L67.4271 54.4436L66.4116 53.5096L65.4776 54.5251L65.5955 57.3067C64.168 56.9458 63.0852 55.6876 63.0204 54.1397C62.9649 52.7741 63.7083 51.5716 64.841 50.9777L64.7063 47.721L64.6923 47.3869L64.652 46.3861L64.6253 45.7838L64.5849 44.783L64.5597 44.1792L64.5163 43.1784L64.3661 39.5892C63.1878 39.0919 62.3435 37.9558 62.2879 36.5902C62.2215 35.0409 63.1955 33.6967 64.5878 33.2178L64.7042 36.0009L65.7197 36.9349L66.6537 35.9194L66.5373 33.1362C67.9618 33.4973 69.0446 34.7555 69.1109 36.3049Z" fill="#C2C2C2"/>
<path opacity="0.15" d="M68.6275 56.0132C68.4294 56.2287 68.2004 56.4135 67.9502 56.5619L67.8532 54.2449L66.3862 52.8956L65.0368 54.3627L65.1338 56.6819C64.1541 56.2131 63.501 55.2446 63.4539 54.1205C63.4207 53.325 63.6976 52.5658 64.2336 51.983C64.4664 51.73 64.7386 51.5208 65.0428 51.361L65.2862 51.2333L64.7869 39.2962L64.5337 39.1893C63.4636 38.7372 62.7687 37.7345 62.72 36.5721C62.6867 35.776 62.9648 35.0154 63.5028 34.4303C63.7008 34.215 63.9298 34.03 64.1802 33.8816L64.277 36.1987L65.7442 37.548L67.0935 36.0809L66.9964 33.7617C67.9762 34.2305 68.6292 35.1989 68.6764 36.323C68.7096 37.1186 68.4328 37.8777 67.8967 38.4605C67.664 38.7136 67.3918 38.9229 67.0875 39.0826L66.8441 39.2103L67.3434 51.1474L67.5966 51.2543C68.6666 51.7063 69.3617 52.7092 69.4104 53.8715C69.4436 54.6675 69.1656 55.4282 68.6275 56.0132Z" fill="white"/>
<g opacity="0.15">
<path d="M67.5755 46.2642L67.6159 47.265L67.1806 47.2832L65.1239 47.3692L64.6917 47.3873L64.6514 46.3864L65.0835 46.3684L67.5755 46.2642Z" fill="white"/>
<path d="M67.5086 44.6611L67.5489 45.662L67.1137 45.6802L65.057 45.7662L64.6248 45.7842L64.5845 44.7834L65.0167 44.7654L67.0733 44.6793L67.5086 44.6611Z" fill="white"/>
<path d="M67.4397 43.0566L67.4831 44.0574L64.9912 44.1616L64.559 44.1796L64.5156 43.179L64.9478 43.1609L67.0061 43.0763L67.4397 43.0566Z" fill="white"/>
</g>
<path d="M10.2302 49.3757C10.2302 49.3757 9.96507 48.9243 10.4165 48.6592L11.7708 47.864C11.7708 47.864 12.2222 47.5989 12.4873 48.0503L14.608 51.6617C14.608 51.6617 14.873 52.1131 14.4216 52.3782L13.0674 53.1734C13.0674 53.1734 12.6159 53.4385 12.3509 52.9871L10.2302 49.3757Z" fill="#A9A9A9"/>
<path opacity="0.15" d="M12.4544 48.0029L11.256 48.7066C10.8043 48.9719 11.0695 49.4236 11.0695 49.4236L13.1902 53.035C13.1997 53.0511 13.2091 53.0672 13.2225 53.0809L13.066 53.1728C13.066 53.1728 12.6163 53.4369 12.3522 52.9872L10.2315 49.3757C10.2315 49.3757 9.96626 48.9241 10.4159 48.66L11.771 47.8643C11.771 47.8643 12.1886 47.619 12.4544 48.0029Z" fill="white"/>
<path d="M12.7524 48.5017L13.9204 48.4229C13.9204 48.4229 12.7813 45.4493 15.9413 43.5937C22.7126 39.6174 25.9435 49.2548 25.9435 49.2548C25.9435 49.2548 21.752 46.2523 20.8492 46.7825L20.4765 48.2155L22.067 50.924L19.8099 52.2495L18.4845 49.9923L16.6794 51.0523L14.9807 50.2286L14.343 51.2102L12.7524 48.5017Z" fill="#C2C2C2"/>
<path opacity="0.15" d="M22.9085 44.326C21.3158 43.0664 19.1842 42.4984 16.4962 44.0769C13.3364 45.9324 14.4761 48.9078 14.4761 48.9078L13.0455 49.0001L12.752 48.5002L13.9206 48.4214C13.9206 48.4214 12.78 45.4493 15.9418 43.5926C18.957 41.8219 21.2684 42.7513 22.9085 44.326Z" fill="white"/>
<path d="M29.1997 61.0018C29.8598 62.1259 29.4853 63.5662 28.3611 64.2263C27.2368 64.8864 25.7966 64.5119 25.1365 63.3877C24.9432 63.0585 24.1668 61.5571 23.2004 59.5895C22.1094 57.3684 20.7737 54.5513 19.752 52.1492L22.0084 50.8242C23.6083 52.8868 25.4178 55.4257 26.8259 57.4605C28.0734 59.263 29.0063 60.6725 29.1997 61.0018Z" fill="#FFAA00"/>
<path d="M29.199 61.0017C29.8591 62.1259 29.4846 63.5661 28.3604 64.2262C27.2361 64.8864 25.7959 64.5118 25.1358 63.3877C24.9425 63.0584 24.1661 61.557 23.1997 59.5895L26.8252 57.4604C28.0727 59.263 29.0056 60.6724 29.199 61.0017Z" fill="#FF654F"/>
<path opacity="0.15" d="M28.739 63.9504C28.6258 64.052 28.4996 64.145 28.3611 64.2264C27.2369 64.8865 25.7966 64.5119 25.1365 63.3878C24.7228 62.6831 21.6768 56.6776 19.752 52.1493L20.555 51.6777C22.4798 56.2061 25.5257 62.2116 25.9395 62.9162C26.5183 63.9019 27.699 64.3128 28.739 63.9504Z" fill="white"/>
<path d="M34.728 44.4805C34.8954 44.82 35.6992 52.6125 27.0796 57.602" stroke="#986EFF" stroke-width="6.49454" stroke-linecap="round" stroke-linejoin="round"/>
<path d="M36.3931 49.2012C36.3931 49.2012 38.1588 59.8743 44.5237 67.3262" stroke="#A678FF" stroke-width="8.04987" stroke-miterlimit="10" stroke-linecap="round"/>
<path d="M47.6255 51.0405C47.6255 51.0405 53.0422 60.405 61.6262 65.1331" stroke="#A678FF" stroke-width="8.04987" stroke-miterlimit="10" stroke-linecap="round"/>
<path d="M49.6222 62.42L47.3915 62.9992C40.6943 64.7383 33.9406 60.3837 32.7608 53.5656L32.017 49.2669C30.9676 43.2022 34.7436 37.3459 40.7008 35.799L42.2337 35.401C48.191 33.854 54.3392 37.1332 56.373 42.9423L57.8147 47.0598C60.1012 53.5904 56.3194 60.6809 49.6222 62.42Z" fill="#A678FF"/>
<path d="M48.0332 49.436L38.6688 51.8677C38.1028 52.0147 37.7632 52.5926 37.9101 53.1585L39.3348 58.6448C39.4817 59.2107 40.0596 59.5504 40.6256 59.4034L49.99 56.9717C50.556 56.8248 50.8956 56.2468 50.7487 55.6809L49.3241 50.1946C49.1771 49.6287 48.5992 49.289 48.0332 49.436Z" fill="#8E67EF"/>
<path d="M52.6553 43.214C53.0051 43.0693 60.8336 42.7807 65.2443 51.7103" stroke="#A678FF" stroke-width="6.49454" stroke-linecap="round" stroke-linejoin="round"/>
<path d="M22.1729 24.6306L30.882 26.8955C31.1954 26.9771 31.3837 27.2977 31.3022 27.6112L29.0084 36.4312C28.3019 39.1479 25.5226 40.78 22.8058 40.0735C20.089 39.3669 18.457 36.5876 19.1635 33.8708L21.4573 25.0508C21.5388 24.7374 21.8595 24.5491 22.1729 24.6306Z" fill="#FFC200"/>
<path d="M55.043 38.8946C52.6392 48.1377 43.8001 51.3653 34.5571 48.9615C25.314 46.5577 19.1671 39.4328 21.5709 30.1897C23.9748 20.9466 33.4163 15.4022 42.6595 17.806C51.9025 20.2098 57.4468 29.6515 55.043 38.8946Z" fill="#A678FF"/>
<path d="M48.8423 31.5657L57.5514 33.8306C57.8649 33.9121 58.0531 34.2328 57.9716 34.5462L55.6779 43.3662C54.9713 46.083 52.192 47.7151 49.4753 47.0085C46.7585 46.302 45.1264 43.5227 45.833 40.8059L48.1267 31.9859C48.2082 31.6724 48.5289 31.4842 48.8423 31.5657Z" fill="#FFC200"/>
<path d="M27.2034 15.3834L30.8491 13.2426C31.3837 12.9287 32.0725 13.1078 32.3864 13.6424L33.0338 14.7449L27.451 18.0232L26.8036 16.9207C26.4897 16.3861 26.6688 15.6973 27.2034 15.3834Z" fill="#FFC200"/>
<path d="M55.8349 25.4048L52.5566 19.8219L53.6591 19.1745C54.1937 18.8606 54.8825 19.0398 55.1964 19.5743L57.3373 23.22C57.6512 23.7546 57.472 24.4435 56.9374 24.7574L55.8349 25.4048Z" fill="#FFC200"/>
<path d="M57.2989 35.272C59.175 25.6888 53.3085 16.1796 43.7303 13.6887C34.1519 11.1977 24.396 16.644 21.3657 25.927L57.2989 35.272Z" fill="#FFDC00"/>
<path d="M36.7019 26.2036C36.7458 26.0349 38.7946 14.1434 49.5446 16.3289L49.5392 16.1505C49.5254 15.6928 49.1745 15.3164 48.719 15.2704L39.4773 14.3389L34.0518 25.3117L36.7019 26.2036Z" fill="#FFB600"/>
<path d="M44.5166 13.7518C44.5166 13.7518 33.4289 11.9997 29.0791 23.8153L35.9091 25.5915C35.9091 25.5915 36.2607 14.0857 48.9129 15.3047L44.5166 13.7518Z" fill="#FFC200"/>
<path d="M24.6077 22.2162L56.2752 30.4519C58.8294 31.1161 60.3637 33.729 59.6995 36.2832C59.6481 36.4807 59.446 36.5994 59.2485 36.548L19.0413 26.0915C18.8438 26.0401 18.7251 25.838 18.7765 25.6405C19.4407 23.0863 22.0536 21.552 24.6077 22.2162Z" fill="#FFAA00"/>
<path d="M44.077 29.7032L26.8494 25.2229C25.3879 24.8428 23.895 25.7194 23.5149 27.1809L21.963 33.1485C21.5829 34.61 22.4595 36.1029 23.921 36.483L41.1487 40.9633C42.6102 41.3434 44.103 40.4667 44.4831 39.0053L46.0351 33.0376C46.4152 31.5762 45.5385 30.0833 44.077 29.7032Z" fill="#F1F1FF" stroke="white" stroke-width="1.52716" stroke-miterlimit="10"/>
<path d="M21.7311 33.8683L20.5761 33.2738C19.9542 32.9537 19.6374 32.2451 19.8134 31.5682L20.7927 27.8028C20.9687 27.1259 21.5906 26.6615 22.2896 26.6849L23.5879 26.7284L21.7311 33.8683Z" fill="white"/>
<path d="M46.1922 32.6064L47.3472 33.201C47.9691 33.5211 48.2859 34.2296 48.1099 34.9065L47.1307 38.6719C46.9546 39.3488 46.3328 39.8132 45.6337 39.7898L44.3354 39.7463L46.1922 32.6064Z" fill="white"/>
<path d="M27.7903 34.8696C29.663 34.8696 31.1811 33.3515 31.1811 31.4787C31.1811 29.606 29.663 28.0879 27.7903 28.0879C25.9175 28.0879 24.3994 29.606 24.3994 31.4787C24.3994 33.3515 25.9175 34.8696 27.7903 34.8696Z" fill="white"/>
<path d="M27.7899 33.6878C29.0104 33.6878 29.9998 32.6984 29.9998 31.4779C29.9998 30.2574 29.0104 29.2681 27.7899 29.2681C26.5695 29.2681 25.5801 30.2574 25.5801 31.4779C25.5801 32.6984 26.5695 33.6878 27.7899 33.6878Z" fill="black"/>
<path opacity="0.13" d="M28.8628 30.9576C28.9615 30.5779 28.6485 30.1679 28.1637 30.0418C27.6788 29.9157 27.2058 30.1213 27.107 30.501C27.0083 30.8807 27.3213 31.2907 27.8061 31.4168C28.291 31.5429 28.764 31.3373 28.8628 30.9576Z" fill="white"/>
<path d="M37.8445 37.4844C39.7172 37.4844 41.2353 35.9662 41.2353 34.0935C41.2353 32.2208 39.7172 30.7026 37.8445 30.7026C35.9717 30.7026 34.4536 32.2208 34.4536 34.0935C34.4536 35.9662 35.9717 37.4844 37.8445 37.4844Z" fill="white"/>
<path d="M37.8446 36.3035C39.0651 36.3035 40.0545 35.3141 40.0545 34.0936C40.0545 32.8732 39.0651 31.8838 37.8446 31.8838C36.6241 31.8838 35.6348 32.8732 35.6348 34.0936C35.6348 35.3141 36.6241 36.3035 37.8446 36.3035Z" fill="black"/>
<path opacity="0.13" d="M38.917 33.5738C39.0157 33.1941 38.7027 32.7841 38.2179 32.658C37.733 32.5319 37.26 32.7375 37.1612 33.1172C37.0625 33.4969 37.3755 33.9069 37.8603 34.033C38.3452 34.1591 38.8182 33.9535 38.917 33.5738Z" fill="white"/>
</svg>
