<svg width="240" height="181" viewBox="0 0 240 181" fill="none" xmlns="http://www.w3.org/2000/svg">
<g clip-path="url(#clip0_4747_11509)">
<g clip-path="url(#clip1_4747_11509)">
<path d="M148.065 26.8565C153.105 26.8565 157.191 22.7704 157.191 17.73C157.191 12.6896 153.105 8.60352 148.065 8.60352C143.024 8.60352 138.938 12.6896 138.938 17.73C138.938 22.7704 143.024 26.8565 148.065 26.8565Z" fill="#3192D9"/>
<path d="M148.815 22.0482L144.57 20.375L137.977 37.1018L142.222 38.775L148.815 22.0482Z" fill="#3192D9"/>
<path d="M94.2856 26.8565C99.326 26.8565 103.412 22.7704 103.412 17.73C103.412 12.6896 99.326 8.60352 94.2856 8.60352C89.2451 8.60352 85.1591 12.6896 85.1591 17.73C85.1591 22.7704 89.2451 26.8565 94.2856 26.8565Z" fill="#3192D9"/>
<path d="M100.127 38.7748L104.373 37.1016L97.7803 20.3747L93.5349 22.048L100.127 38.7748Z" fill="#3192D9"/>
<path d="M96.8679 113.971C96.8679 113.971 89.0473 143.253 96.686 169.624" stroke="#57CBF4" stroke-width="22.5525" stroke-miterlimit="10" stroke-linecap="round"/>
<path d="M143.132 113.971C143.132 113.971 150.953 143.253 143.314 169.624" stroke="#57CBF4" stroke-width="22.5525" stroke-miterlimit="10" stroke-linecap="round"/>
<path d="M123.228 165.589H116.772C97.3864 165.589 82.1389 149.025 83.7407 129.706L84.7506 117.526C86.1754 100.341 100.538 87.1201 117.781 87.1201H122.218C139.462 87.1201 153.825 100.341 155.249 117.526L156.259 129.706C157.861 149.025 142.614 165.589 123.228 165.589Z" fill="#57CBF4"/>
<path d="M133.553 129.262H106.447C104.809 129.262 103.481 130.59 103.481 132.228V148.108C103.481 149.746 104.809 151.074 106.447 151.074H133.553C135.191 151.074 136.519 149.746 136.519 148.108V132.228C136.519 130.59 135.191 129.262 133.553 129.262Z" fill="#3BA8FA"/>
<path d="M171.198 76.3355C171.198 104.611 148.276 120.446 120 120.446C91.7241 120.446 68.8022 104.611 68.8022 76.3355C68.8022 48.0598 91.7242 25.1377 120 25.1377C148.276 25.1377 171.198 48.0597 171.198 76.3355Z" fill="#57CBF4"/>
<path d="M157.193 80.7902C157.193 101.332 140.541 106.8 120 106.8C99.4587 106.8 82.8066 101.332 82.8066 80.7902C82.8066 60.2488 99.4587 53.1445 120 53.1445C140.541 53.1445 157.193 60.2489 157.193 80.7902Z" fill="#CCECFF" stroke="white" stroke-width="4.5212" stroke-miterlimit="10"/>
<path d="M104.622 86.5274C110.166 86.5274 114.661 82.0328 114.661 76.4883C114.661 70.9439 110.166 66.4492 104.622 66.4492C99.0775 66.4492 94.5828 70.9439 94.5828 76.4883C94.5828 82.0328 99.0775 86.5274 104.622 86.5274Z" fill="white"/>
<path d="M104.622 80.7414C108.235 80.7414 111.165 77.8122 111.165 74.1989C111.165 70.5855 108.235 67.6562 104.622 67.6562C101.009 67.6562 98.0793 70.5855 98.0793 74.1989C98.0793 77.8122 101.009 80.7414 104.622 80.7414Z" fill="#003A7F"/>
<path opacity="0.13" d="M104.884 75.9126C106.739 75.0714 107.588 72.9471 106.782 71.1678C105.975 69.3885 103.817 68.6279 101.962 69.4691C100.107 70.3103 99.2571 72.4346 100.064 74.2139C100.871 75.9932 103.029 76.7538 104.884 75.9126Z" fill="white"/>
<path opacity="0.13" d="M107.284 79.0184C108.146 78.6276 108.541 77.6407 108.166 76.814C107.791 75.9874 106.789 75.634 105.927 76.0248C105.065 76.4156 104.67 77.4026 105.045 78.2292C105.42 79.0559 106.423 79.4092 107.284 79.0184Z" fill="white"/>
<path d="M135.378 86.5274C140.922 86.5274 145.417 82.0328 145.417 76.4883C145.417 70.9439 140.922 66.4492 135.378 66.4492C129.834 66.4492 125.339 70.9439 125.339 76.4883C125.339 82.0328 129.834 86.5274 135.378 86.5274Z" fill="white"/>
<path d="M135.378 80.7414C138.991 80.7414 141.921 77.8122 141.921 74.1989C141.921 70.5855 138.991 67.6562 135.378 67.6562C131.765 67.6562 128.835 70.5855 128.835 74.1989C128.835 77.8122 131.765 80.7414 135.378 80.7414Z" fill="#003A7F"/>
<path opacity="0.13" d="M135.64 75.9126C137.495 75.0714 138.345 72.9471 137.538 71.1678C136.731 69.3885 134.573 68.6279 132.718 69.4691C130.863 70.3103 130.013 72.4346 130.82 74.2139C131.627 75.9932 133.785 76.7538 135.64 75.9126Z" fill="white"/>
<path opacity="0.13" d="M138.041 79.0184C138.902 78.6276 139.297 77.6407 138.922 76.814C138.547 75.9874 137.545 75.634 136.683 76.0248C135.821 76.4156 135.427 77.4026 135.801 78.2292C136.176 79.0559 137.179 79.4092 138.041 79.0184Z" fill="white"/>
<path d="M115.688 82.8008H124.312C125.383 82.8008 126.253 83.6704 126.253 84.7415V85.9035C126.253 89.3546 123.451 92.1564 120 92.1564C116.549 92.1564 113.747 89.3546 113.747 85.9035V84.7415C113.747 83.6704 114.617 82.8008 115.688 82.8008Z" fill="#FF9FC2"/>
<path d="M102.166 110.688C104.421 104.966 101.611 98.4989 95.8886 96.2437C90.1665 93.9884 83.6996 96.7989 81.4443 102.521L75.6373 117.255C73.382 122.977 76.1924 129.444 81.9145 131.699C87.6366 133.954 94.1036 131.144 96.3588 125.422L102.166 110.688Z" fill="#3BA8FA"/>
<path d="M143.641 125.421C145.896 131.144 152.363 133.954 158.085 131.699C163.807 129.443 166.618 122.977 164.363 117.254L158.556 102.521C156.3 96.7985 149.833 93.988 144.111 96.2433C138.389 98.4985 135.579 104.965 137.834 110.688L143.641 125.421Z" fill="#3BA8FA"/>
</g>
<rect x="35.7261" y="135.782" width="20.7021" height="9.48438" transform="rotate(-43.3903 35.7261 135.782)" fill="#FFE173"/>
<circle cx="53.2553" cy="91.9663" r="4.99609" transform="rotate(-27.7919 53.2553 91.9663)" fill="#C3DDFE"/>
<circle cx="34.3779" cy="104.899" r="3.38477" transform="rotate(-27.7919 34.3779 104.899)" fill="#FF7E89"/>
<circle cx="59.3964" cy="33.4703" r="3.38477" transform="rotate(43.3193 59.3964 33.4703)" fill="#FF7E89"/>
<rect x="54.4435" y="57.1387" width="9.64648" height="18.1123" rx="4.82324" transform="rotate(113.801 54.4435 57.1387)" fill="#B3E59E"/>
<rect x="200.95" y="54.4404" width="9.64648" height="18.1123" rx="4.82324" transform="rotate(49.4086 200.95 54.4404)" fill="#B3E59E"/>
<rect x="170.905" y="33.1875" width="20.7021" height="9.48438" transform="rotate(-23.1927 170.905 33.1875)" fill="#FFDF7B"/>
<circle cx="180.299" cy="101.459" r="4.99609" transform="rotate(-57.5524 180.299 101.459)" fill="#C3DDFE"/>
<circle cx="192.539" cy="89.8894" r="3.38477" transform="rotate(-57.5524 192.539 89.8894)" fill="#FF7E89"/>
<rect x="214.185" y="132.117" width="9.64648" height="18.1123" rx="4.82324" transform="rotate(116.722 214.185 132.117)" fill="#B3E59E"/>
</g>
<defs>
<clipPath id="clip0_4747_11509">
<rect width="240" height="180" fill="white" transform="translate(0 0.900391)"/>
</clipPath>
<clipPath id="clip1_4747_11509">
<rect width="102.396" height="172.299" fill="white" transform="translate(68.8022 8.60156)"/>
</clipPath>
</defs>
</svg>
