<svg width="210" height="122" viewBox="0 0 210 122" fill="none" xmlns="http://www.w3.org/2000/svg">
<g clip-path="url(#clip0_4300_43888)">
<path d="M109.103 69.3173L118.023 86.9545L136.545 84.1144L123.659 98.6618L131.902 116.674L115.018 108.028L101.59 122L104.041 102.109L87.5 92.7319L105.899 89.0849L109.103 69.3173Z" fill="#FEDD5D"/>
<path d="M205.54 38.5273L204.804 44.1899L209.5 46.8975L204.25 47.8969L203.3 53.5227L200.792 48.4777L195.509 49.247L199.208 45.1297L196.893 39.9793L201.688 42.4796L205.54 38.5273Z" fill="#FEDD5D"/>
<path d="M169.464 74.5411L166.068 76.2107L166.348 80.2056L163.818 77.2581L160.361 78.778L162.193 75.2867L159.777 72.231L163.44 73.0209L165.403 69.6126L165.834 73.5919L169.464 74.5411Z" fill="#FEDD5D"/>
<path d="M146.723 0L148.809 5.26149L154.135 4.99242L150.113 8.74573L151.998 14.0941L147.426 11.1523L143.265 14.7268L144.461 9.15527L140.005 6.01617L145.316 5.51466L146.723 0Z" fill="#FEDD5D"/>
<path d="M195.196 84.4217L194.383 88.1359L197.348 90.244L193.803 90.5627L192.849 94.2384L191.471 90.721L187.917 90.8846L190.61 88.3922L189.367 84.8176L192.41 86.7944L195.196 84.4217Z" fill="#FEDD5D"/>
<path d="M130.253 33.1536L133.463 34.7993L136.018 32.1438L135.55 35.9258L138.694 37.7103L135.196 38.4021L134.585 42.1605L132.89 38.806L129.368 39.3444L131.819 36.5794L130.253 33.1536Z" fill="#FEDD5D"/>
<path d="M158.723 27.9091L160.996 30.8436L164.352 29.577L162.452 32.8026L164.613 35.8339L161.165 34.8931L159.144 38.033L158.913 34.2259L155.504 33.1351L158.809 31.7231L158.723 27.9091Z" fill="#FEDD5D"/>
<path d="M192.387 22.4138L190.671 24.34L191.759 26.7343L189.521 25.5799L187.734 27.4296L188.066 24.7899L185.873 23.5387L188.317 23.0617L188.749 20.4387L189.927 22.7836L192.387 22.4138Z" fill="#FEDD5D"/>
<path d="M182.891 50.6989L182.204 53.2586L184.204 54.8389L181.721 54.9292L180.937 57.4567L180.09 54.9529L177.606 54.9347L179.565 53.297L178.814 50.7582L180.872 52.2498L182.891 50.6989Z" fill="#FEDD5D"/>
<path d="M181.579 89.9148L179.753 90.6591L179.769 92.7543L178.544 91.1216L176.691 91.7855L177.761 90.0321L176.599 88.3472L178.485 88.8962L179.62 87.191L179.716 89.2838L181.579 89.9148Z" fill="#FEDD5D"/>
<path d="M187.103 69.1548L187.084 71.2501L188.909 71.9975L187.045 72.6253L186.946 74.718L185.813 73.0108L183.927 73.5568L185.091 71.8737L184.024 70.1185L185.876 70.7856L187.103 69.1548Z" fill="#FEDD5D"/>
<path d="M153.069 51.8857L153.05 53.9809L154.875 54.7284L153.011 55.3562L152.912 57.4488L151.779 55.7416L149.893 56.2876L151.057 54.6047L149.99 52.8494L151.842 53.5164L153.069 51.8857Z" fill="#FEDD5D"/>
<path d="M142.479 22.7656L144.178 23.8005L145.674 22.4519L145.281 24.5045L146.939 25.6127L144.997 25.8463L144.527 27.88L143.72 25.9717L141.771 26.1203L143.213 24.7074L142.479 22.7656Z" fill="#FEDD5D"/>
<path d="M121.696 74.195C122.716 71.4257 123.917 68.7846 125.182 66.1888C126.436 63.5849 127.797 61.0572 129.178 58.5435C131.927 53.5067 135.352 48.9483 138.489 44.1863L147.967 29.9466C151.184 25.2408 154.352 20.5009 157.611 15.8246L157.943 16.0599C155.216 21.112 152.399 26.1005 149.63 31.1231L141.15 46.0687C138.302 51.0351 135.741 56.205 132.504 60.8967C130.892 63.2472 129.261 65.5838 127.521 67.844C125.794 70.1125 124.002 72.3355 122.029 74.4304L121.696 74.195Z" fill="#FEDD5D"/>
<path d="M136.71 77.538C138.7 75.124 140.822 72.8945 142.992 70.7303C145.152 68.5542 147.392 66.4879 149.646 64.442C154.144 60.3362 159.136 56.9189 163.917 53.2086L178.31 42.1444C183.15 38.5151 187.955 34.8366 192.825 31.2497L193.068 31.5883C188.586 35.7161 184.038 39.7524 179.525 43.8378L165.861 55.9179C161.29 59.9223 156.929 64.2197 152.075 67.8286C149.653 69.64 147.216 71.4311 144.7 73.1124C142.193 74.8056 139.639 76.4333 136.953 77.8767L136.71 77.538Z" fill="#FEDD5D"/>
<path d="M136.775 94.5938C139.116 93.2059 141.519 92.0409 143.943 90.9551C146.364 89.855 148.822 88.8874 151.287 87.9444C156.212 86.0418 161.368 84.9715 166.426 83.547C171.481 82.1153 176.547 80.7176 181.621 79.3542C186.706 78.0276 191.775 76.6416 196.874 75.3663L196.988 75.7757C192.071 77.705 187.122 79.5235 182.191 81.4015C177.249 83.2427 172.298 85.0497 167.337 86.8226C162.378 88.6025 157.518 90.7369 152.426 92.0389C149.883 92.6982 147.332 93.3329 144.745 93.835C142.161 94.3514 139.556 94.7888 136.889 95.0032L136.775 94.5938Z" fill="#FEDD5D"/>
</g>
<path d="M29.9488 80.6209C33.428 80.6209 36.4494 80.1157 38.8984 79.4649C44.8628 77.8793 50.4781 74.5646 52.2495 71.5835C54.3933 67.9763 53.2062 63.3143 49.5998 61.1712C46.5218 59.3426 42.6801 59.9367 40.2861 62.3879C39.1295 63.25 30.9174 68.7727 18.4079 62.4176C14.6658 60.5162 10.0934 62.0113 8.19411 65.7513C6.29407 69.4927 7.78639 74.0657 11.5271 75.9658C18.4425 79.4775 24.7136 80.6209 29.9488 80.6209Z" fill="#FF7415"/>
<path d="M50.7853 56.144L53.3226 54.1768C63.1824 46.5323 77.2566 47.7245 85.6899 56.9187L91.6677 63.4358C95.1291 67.2096 97.1369 71.7695 97.7601 76.4564C101.159 78.0501 104.816 79.42 108.604 80.2958C112.977 81.3067 115.886 85.689 114.905 90.0685C114.054 93.8679 110.684 96.4459 106.95 96.4459C106.351 96.4459 105.742 96.3795 105.133 96.241C101.299 95.3686 97.6095 94.1276 94.1267 92.6805C92.7004 94.8824 90.8896 96.8925 88.6895 98.5984L84.9973 101.461C84.5487 101.809 84.0892 102.132 83.625 102.442C84.6607 102.911 85.7612 103.393 86.9478 103.894C90.9222 105.571 93.1118 110.025 91.7243 114.109C90.5515 117.561 87.36 119.663 83.9889 119.663C82.9354 119.663 81.8642 119.457 80.8311 119.024C68.0476 113.651 61.7821 109.172 57.2615 103.865C55.8298 102.184 54.3478 100.551 52.8353 98.9424C51.8767 97.9231 50.9932 96.8047 50.2012 95.5873L45.3784 88.1748C38.5741 77.717 40.9252 63.7888 50.7853 56.144Z" fill="#FF8022"/>
<path d="M66.2922 86.102C64.1861 86.102 62.4788 84.3947 62.4788 82.2885C62.4788 80.1824 64.1861 78.4751 66.2922 78.4751C68.3984 78.4751 70.1057 80.1824 70.1057 82.2885C70.1057 84.3947 68.3984 86.102 66.2922 86.102Z" fill="#FF6700"/>
<path d="M74.3848 96.5391C72.2786 96.5391 70.5713 94.8317 70.5713 92.7256C70.5713 90.6195 72.2786 88.9121 74.3848 88.9121C76.4909 88.9121 78.1982 90.6195 78.1982 92.7256C78.1982 94.8317 76.4909 96.5391 74.3848 96.5391Z" fill="#FF6700"/>
<path d="M79.8014 66.3032C80.1568 66.3032 80.5158 66.2785 80.8776 66.2269C93.6605 64.4137 101.218 58.2481 105.306 53.3951C109.283 48.6751 111.982 42.739 111.723 39.281C111.41 35.0973 107.77 31.9691 103.58 32.2716C100.013 32.5386 97.2048 35.2287 96.6494 38.6097C96.1964 39.9784 92.6374 49.2121 78.7436 51.1835C74.5895 51.7729 71.6995 55.6181 72.2889 59.7722C72.8266 63.5644 76.0784 66.3032 79.8014 66.3032Z" fill="#FF8022"/>
<path d="M22.2554 21.9321C20.2085 19.998 18.9245 17.2654 18.9245 14.2271C18.9245 8.36746 23.6744 3.61742 29.534 3.61742C32.5346 3.61742 35.2387 4.8683 37.1686 6.87073C42.4435 3.9818 48.4968 2.33688 54.9353 2.33688C61.3737 2.33688 67.427 3.9818 72.7019 6.87073C74.6317 4.86823 77.3358 3.61742 80.3366 3.61742C86.196 3.61742 90.9461 8.36746 90.9461 14.2271C90.9461 17.2654 89.6619 19.998 87.6152 21.9321C90.3977 27.1323 91.9795 33.0712 91.9795 39.381C91.9795 59.8401 75.3942 71.2971 54.9353 71.2971C34.4764 71.2971 17.8911 59.8401 17.8911 39.381C17.8911 33.0712 19.473 27.1323 22.2554 21.9321Z" fill="#FF8022"/>
<path d="M80.2898 46.0589C80.2898 60.9216 68.2412 64.878 53.3785 64.878C38.5158 64.878 26.4672 60.9217 26.4672 46.0589C26.4672 31.1963 38.5158 19.1476 53.3785 19.1476C68.2412 19.1476 80.2898 31.1963 80.2898 46.0589Z" fill="#FFEBB3"/>
<path opacity="0.12" d="M29.9699 37.3401C32.59 37.3401 34.7133 35.2168 34.7133 32.5968C34.7133 23.7898 41.8788 16.6242 50.6858 16.6242C53.3059 16.6242 55.4292 14.5009 55.4292 11.8808C55.4292 9.26078 53.3059 7.13745 50.6858 7.13745C36.6473 7.13745 25.2266 18.5581 25.2266 32.5967C25.2266 35.2167 27.3498 37.3401 29.9699 37.3401Z" fill="white"/>
<path opacity="0.12" d="M62.6717 16.7956C60.1347 16.7956 58.078 14.7389 58.078 12.2019C58.078 9.66488 60.1347 7.60822 62.6717 7.60822C65.2087 7.60822 67.2654 9.66488 67.2654 12.2019C67.2654 14.7389 65.2087 16.7956 62.6717 16.7956Z" fill="white"/>
<path d="M40.1436 51.0737C35.1394 51.0737 31.0827 47.017 31.0827 42.0127C31.0827 37.0085 35.1394 32.9518 40.1436 32.9518C45.1479 32.9518 49.2046 37.0085 49.2046 42.0127C49.2046 47.017 45.1479 51.0737 40.1436 51.0737Z" fill="white"/>
<path d="M40.1437 47.9178C36.8824 47.9178 34.2386 45.274 34.2386 42.0127C34.2386 38.7514 36.8824 36.1076 40.1437 36.1076C43.405 36.1076 46.0488 38.7514 46.0488 42.0127C46.0488 45.274 43.405 47.9178 40.1437 47.9178Z" fill="black"/>
<path opacity="0.13" d="M40.1437 41.8449C38.8051 41.8449 37.7198 40.995 37.7198 39.9466C37.7198 38.8983 38.8051 38.0484 40.1437 38.0484C41.4824 38.0484 42.5676 38.8983 42.5676 39.9466C42.5676 40.995 41.4824 41.8449 40.1437 41.8449Z" fill="white"/>
<path d="M63.8912 49.2766C59.8795 49.2766 56.6274 46.0245 56.6274 42.0128C56.6274 38.0011 59.8795 34.749 63.8912 34.749C67.9029 34.749 71.155 38.0011 71.155 42.0128C71.155 46.0245 67.9029 49.2766 63.8912 49.2766Z" fill="white"/>
<path d="M63.8911 46.7467C61.2766 46.7467 59.1572 44.6273 59.1572 42.0128C59.1572 39.3983 61.2766 37.2789 63.8911 37.2789C66.5056 37.2789 68.625 39.3983 68.625 42.0128C68.625 44.6273 66.5056 46.7467 63.8911 46.7467Z" fill="black"/>
<path opacity="0.13" d="M63.8911 41.8782C62.818 41.8782 61.948 41.197 61.948 40.3565C61.948 39.5161 62.818 38.8348 63.8911 38.8348C64.9643 38.8348 65.8342 39.5161 65.8342 40.3565C65.8342 41.197 64.9643 41.8782 63.8911 41.8782Z" fill="white"/>
<path d="M52.278 53.8413C50.4131 53.8413 48.9013 52.2531 48.9013 50.2939C48.9013 48.3348 50.4131 46.7466 52.278 46.7466C54.143 46.7466 55.6548 48.3348 55.6548 50.2939C55.6548 52.2531 54.143 53.8413 52.278 53.8413Z" fill="#FFAEAE"/>
<path opacity="0.7" d="M33.8758 60.2571C24.8717 60.2571 17.5724 52.9578 17.5724 43.9537C17.5724 34.9496 24.8717 27.6503 33.8758 27.6503C42.8799 27.6503 50.1792 34.9496 50.1792 43.9537C50.1792 52.9578 42.8799 60.2571 33.8758 60.2571Z" fill="white"/>
<g opacity="0.1">
<path d="M38.6094 59.5527L26.1429 29.598C28.9452 28.0912 32.132 27.4404 35.2858 27.711L46.3914 54.3957C44.2923 56.9163 41.5681 58.6575 38.6094 59.5527Z" fill="white"/>
<path d="M20.8061 34.215C21.7477 32.9505 22.8371 31.859 24.0358 30.9512L36.1633 60.0913C34.6487 60.3062 33.1044 60.3102 31.5762 60.0939L20.8061 34.215Z" fill="white"/>
</g>
<path d="M21.1075 56.775L25.7214 60.1068L21.7902 65.5509L17.1763 62.2191L21.1075 56.775Z" fill="#3864B0"/>
<path d="M21.7999 64.6028L18.0732 61.9117C17.2198 61.2954 16.0265 61.4879 15.4103 62.3414L6.49007 74.6941C6.16666 75.142 6.2677 75.7682 6.71557 76.0916L11.9119 79.844C12.3597 80.1674 12.986 80.0664 13.3094 79.6185L22.2296 67.2657C22.8458 66.4123 22.6534 65.2191 21.7999 64.6028Z" fill="#4078C5"/>
<path d="M33.837 62.0701C34.8079 62.0701 35.7844 61.9924 36.7609 61.8348C41.5375 61.0639 45.7276 58.4799 48.5596 54.5576C51.3923 50.6353 52.5278 45.8446 51.7569 41.0688C50.986 36.2922 48.402 32.1021 44.4797 29.2701C40.5566 26.4381 35.7618 25.304 30.9908 26.0728C26.2142 26.8437 22.0241 29.4277 19.1921 33.35C16.3594 37.2723 15.2239 42.063 15.9948 46.8389C16.7657 51.6155 19.3497 55.8055 23.272 58.6375C26.3923 60.8909 30.0624 62.0701 33.837 62.0701ZM33.907 29.4559C36.9277 29.4559 39.8643 30.3992 42.3614 32.2024C45.5001 34.4692 47.5683 37.8227 48.1851 41.6446C48.8019 45.4673 47.8933 49.3006 45.6272 52.4392C43.3605 55.5779 40.007 57.6461 36.185 58.2629C32.3631 58.8805 28.5291 57.9718 25.3904 55.705C22.2518 53.4382 20.1835 50.0848 19.5667 46.2628C18.9499 42.4402 19.8585 38.6069 22.1246 35.4683C24.3914 32.3296 27.7449 30.2614 31.5668 29.6445C32.3483 29.5181 33.1304 29.4559 33.907 29.4559Z" fill="#8E8E8E"/>
<defs>
<clipPath id="clip0_4300_43888">
<rect width="122" height="122" fill="white" transform="translate(87.5)"/>
</clipPath>
</defs>
</svg>
