<svg width="193" height="122" viewBox="0 0 193 122" fill="none" xmlns="http://www.w3.org/2000/svg">
<g clip-path="url(#clip0_4327_42855)">
<path d="M100.397 69.3173L91.4767 86.9545L72.9548 84.1144L85.8406 98.6618L77.5981 116.674L94.482 108.028L107.91 122L105.459 102.109L122 92.7319L103.601 89.0849L100.397 69.3173Z" fill="#FEDD5D"/>
<path d="M3.95993 38.5273L4.69576 44.1899L5.43594e-05 46.8975L5.24951 47.8969L6.19981 53.5227L8.70833 48.4777L13.9915 49.247L10.2923 45.1297L12.6071 39.9793L7.81242 42.4796L3.95993 38.5273Z" fill="#FEDD5D"/>
<path d="M40.0361 74.5411L43.4321 76.2107L43.1523 80.2056L45.6824 77.2581L49.1391 78.778L47.3068 75.2867L49.7229 72.231L46.0603 73.0209L44.0969 69.6126L43.6656 73.5919L40.0361 74.5411Z" fill="#FEDD5D"/>
<path d="M62.7766 0L60.6906 5.26149L55.365 4.99242L59.3867 8.74573L57.5023 14.0941L62.0739 11.1523L66.2349 14.7268L65.0386 9.15527L69.4946 6.01617L64.1837 5.51466L62.7766 0Z" fill="#FEDD5D"/>
<path d="M14.3043 84.4217L15.1172 88.1359L12.152 90.244L15.6973 90.5627L16.6507 94.2384L18.0288 90.721L21.5833 90.8846L18.8897 88.3922L20.1332 84.8176L17.0904 86.7944L14.3043 84.4217Z" fill="#FEDD5D"/>
<path d="M79.2465 33.1536L76.0368 34.7993L73.4824 32.1438L73.9501 35.9258L70.8055 37.7103L74.3043 38.4021L74.9152 42.1605L76.6099 38.806L80.1321 39.3444L77.6807 36.5794L79.2465 33.1536Z" fill="#FEDD5D"/>
<path d="M50.7774 27.9091L48.5037 30.8436L45.1477 29.577L47.0476 32.8026L44.8873 35.8339L48.3352 34.8931L50.356 38.033L50.587 34.2259L53.9963 33.1351L50.6912 31.7231L50.7774 27.9091Z" fill="#FEDD5D"/>
<path d="M17.1131 22.4138L18.8287 24.34L17.7406 26.7343L19.9791 25.5799L21.7663 27.4296L21.4342 24.7899L23.627 23.5387L21.1833 23.0617L20.7512 20.4387L19.5729 22.7836L17.1131 22.4138Z" fill="#FEDD5D"/>
<path d="M26.6089 50.6989L27.2959 53.2586L25.2964 54.8389L27.7789 54.9292L28.5625 57.4567L29.4097 54.9529L31.8936 54.9347L29.9348 53.297L30.6862 50.7582L28.6283 52.2498L26.6089 50.6989Z" fill="#FEDD5D"/>
<path d="M27.9206 89.9148L29.7471 90.6591L29.731 92.7543L30.9555 91.1216L32.8088 91.7855L31.7391 90.0321L32.9006 88.3472L31.015 88.8962L29.8796 87.191L29.7839 89.2838L27.9206 89.9148Z" fill="#FEDD5D"/>
<path d="M22.3971 69.1548L22.4163 71.2501L20.5909 71.9975L22.4551 72.6253L22.5539 74.718L23.6868 73.0108L25.5732 73.5568L24.4093 71.8737L25.4763 70.1185L23.624 70.7856L22.3971 69.1548Z" fill="#FEDD5D"/>
<path d="M56.4313 51.8857L56.4504 53.9809L54.625 54.7284L56.4893 55.3562L56.588 57.4488L57.7209 55.7416L59.6074 56.2876L58.4434 54.6047L59.5105 52.8494L57.6582 53.5164L56.4313 51.8857Z" fill="#FEDD5D"/>
<path d="M67.0206 22.7656L65.3217 23.8005L63.8262 22.4519L64.2192 24.5045L62.5609 25.6127L64.5028 25.8463L64.9733 27.88L65.7805 25.9717L67.7295 26.1203L66.2866 24.7074L67.0206 22.7656Z" fill="#FEDD5D"/>
<path d="M87.8037 74.195C86.7839 71.4257 85.5829 68.7846 84.3177 66.1888C83.0642 63.5849 81.7029 61.0572 80.3217 58.5435C77.5727 53.5067 74.1478 48.9483 71.0105 44.1863L61.533 29.9466C58.3163 25.2408 55.1477 20.5009 51.8892 15.8246L51.5567 16.0599C54.284 21.112 57.1012 26.1005 59.8701 31.1231L68.3499 46.0687C71.1984 51.0351 73.7591 56.205 76.9958 60.8967C78.6075 63.2472 80.2391 65.5838 81.9785 67.844C83.7061 70.1125 85.498 72.3355 87.4711 74.4304L87.8037 74.195Z" fill="#FEDD5D"/>
<path d="M72.7898 77.538C70.7998 75.124 68.6775 72.8945 66.5084 70.7303C64.3477 68.5542 62.1083 66.4879 59.8543 64.442C55.3563 60.3362 50.3644 56.9189 45.5827 53.2086L31.1896 42.1444C26.3498 38.5151 21.5453 34.8366 16.6751 31.2497L16.4321 31.5883C20.9144 35.7161 25.4622 39.7524 29.9749 43.8378L43.6392 55.9179C48.2099 59.9223 52.5705 64.2197 57.4249 67.8286C59.8472 69.64 62.284 71.4311 64.7996 73.1124C67.3067 74.8056 69.8606 76.4333 72.5468 77.8767L72.7898 77.538Z" fill="#FEDD5D"/>
<path d="M72.7253 94.5938C70.3844 93.2059 67.9814 92.0409 65.5566 90.9551C63.1356 89.855 60.6778 88.8874 58.2131 87.9444C53.2883 86.0418 48.132 84.9715 43.0743 83.547C38.0186 82.1153 32.9535 80.7176 27.8787 79.3542C22.7937 78.0276 17.7253 76.6416 12.626 75.3663L12.5122 75.7757C17.4294 77.705 22.3775 79.5235 27.3091 81.4015C32.2509 83.2427 37.2022 85.0497 42.1631 86.8226C47.1219 88.6025 51.9821 90.7369 57.074 92.0389C59.6175 92.6982 62.168 93.3329 64.7553 93.835C67.3386 94.3514 69.944 94.7888 72.6114 95.0032L72.7253 94.5938Z" fill="#FEDD5D"/>
</g>
<path d="M116.445 62.425C111.859 62.425 93.5899 53.9795 91.7369 29.6821C91.4505 25.9248 94.2637 22.6464 98.0218 22.3601C101.754 22.0767 105.057 24.8862 105.344 28.645C106.517 44.0317 116.52 48.4116 117.883 48.9375C120.918 49.604 123.203 52.2927 123.235 55.5329C123.274 59.3004 120.25 62.3862 116.482 62.4243C116.47 62.425 116.458 62.425 116.445 62.425Z" fill="#5CC11A"/>
<path d="M161.171 90.4783C146.743 90.4783 137.483 82.1492 136.058 79.0122C134.5 75.5808 136.019 71.5364 139.451 69.9785C142.402 68.639 145.804 69.575 147.69 72.0432C148.741 73.0547 156.937 80.272 171.38 74.8316C174.911 73.5029 178.842 75.2864 180.171 78.8115C181.499 82.3381 179.717 86.2742 176.191 87.602C170.731 89.6587 165.697 90.4783 161.171 90.4783Z" fill="#5CC11A"/>
<path d="M143.427 49.2242L140.75 47.2472C130.348 39.5632 115.792 41.1388 107.274 50.8707L101.237 57.7688C98.6471 60.7283 96.8977 64.1171 95.945 67.6552C92.8783 69.2247 89.601 70.6071 86.1855 71.6069C81.735 72.9095 78.8629 77.4174 80.0091 81.9106C80.991 85.7595 84.442 88.2855 88.2007 88.2855C88.969 88.2855 89.7505 88.1801 90.5262 87.9582C93.0195 87.2466 95.4413 86.3798 97.7835 85.4113C99.4745 88.7431 101.946 91.7502 105.174 94.1346L109.069 97.0119C110.619 98.1567 112.256 99.0874 113.945 99.8226C113.467 100.222 112.982 100.615 112.488 100.996C108.824 103.821 107.962 109.146 110.726 112.856C112.39 115.089 114.938 116.261 117.515 116.261C119.306 116.261 121.111 115.695 122.644 114.523C128.499 110.048 133.399 104.65 137.365 99.366C138.685 97.607 140.116 95.9379 141.65 94.3614C142.888 93.0888 144.01 91.6619 144.985 90.0839L149.804 82.2858C156.602 71.2842 153.829 56.9081 143.427 49.2242Z" fill="#63C928"/>
<path d="M175.14 51.5857L178.587 52.482L183.798 22.7949L182.702 22.5097L175.14 51.5857Z" fill="#4EAF0E"/>
<path d="M161.954 67.5319C173.611 67.5319 183.062 58.0816 183.062 46.424C183.062 34.7664 173.611 25.3161 161.954 25.3161C150.296 25.3161 140.846 34.7664 140.846 46.424C140.846 58.0816 150.296 67.5319 161.954 67.5319Z" fill="#4EAF0E"/>
<path d="M183.282 25.6226C184.918 25.6226 186.244 24.2964 186.244 22.6604C186.244 21.0245 184.918 19.6982 183.282 19.6982C181.646 19.6982 180.319 21.0245 180.319 22.6604C180.319 24.2964 181.646 25.6226 183.282 25.6226Z" fill="#4EAF0E"/>
<path d="M121.053 50.399C129.62 50.399 136.564 43.4543 136.564 34.8876C136.564 26.3209 129.62 19.3763 121.053 19.3763C112.486 19.3763 105.542 26.3209 105.542 34.8876C105.542 43.4543 112.486 50.399 121.053 50.399Z" fill="#4EAF0E"/>
<path d="M117.664 21.6705C118.045 20.2035 118.745 18.8301 119.754 17.6995C128.395 8.02526 142.01 3.40856 155.427 6.89786C168.844 10.3872 178.486 21.0524 181.318 33.7101C181.649 35.1893 181.591 36.7296 181.21 38.1965L175.2 61.305C174.818 62.772 174.119 64.1454 173.109 65.2758C164.469 74.9503 150.853 79.567 137.436 76.0777C124.019 72.5884 114.377 61.9233 111.545 49.2653C111.214 47.7861 111.272 46.2458 111.654 44.7789L117.664 21.6705Z" fill="#63C928"/>
<path d="M134.757 7.708C141.194 5.4751 148.338 5.0542 155.427 6.89785C159.208 7.8811 162.689 9.43458 165.803 11.4415C175.542 24.2709 171.492 36.157 167.534 48.362L138.997 39.1091C141.63 30.987 143.707 17.3826 134.757 7.708Z" fill="#4EAF0E"/>
<path d="M127.721 36.6219C124.376 49.4841 132.092 62.6226 144.954 65.9676C157.816 69.3126 170.955 61.5975 174.3 48.7352C177.645 35.873 168.218 29.3136 155.356 25.9686C142.494 22.6236 131.067 23.7597 127.721 36.6219Z" fill="#D8F4C6" stroke="white" stroke-width="3.39105" stroke-miterlimit="10"/>
<path d="M163.601 54.5652C167.759 54.5652 171.13 51.1942 171.13 47.0359C171.13 42.8776 167.759 39.5066 163.601 39.5066C159.443 39.5066 156.072 42.8776 156.072 47.0359C156.072 51.1942 159.443 54.5652 163.601 54.5652Z" fill="white"/>
<path d="M163.601 51.9428C166.311 51.9428 168.508 49.7459 168.508 47.0359C168.508 44.3259 166.311 42.1289 163.601 42.1289C160.891 42.1289 158.694 44.3259 158.694 47.0359C158.694 49.7459 160.891 51.9428 163.601 51.9428Z" fill="#133000"/>
<path opacity="0.13" d="M165.983 45.8812C166.202 45.0381 165.507 44.1277 164.431 43.8477C163.354 43.5678 162.304 44.0243 162.084 44.8673C161.865 45.7104 162.56 46.6209 163.637 46.9008C164.713 47.1808 165.764 46.7243 165.983 45.8812Z" fill="white"/>
<path d="M141.277 48.7594C145.435 48.7594 148.806 45.3884 148.806 41.2301C148.806 37.0717 145.435 33.7007 141.277 33.7007C137.118 33.7007 133.747 37.0717 133.747 41.2301C133.747 45.3884 137.118 48.7594 141.277 48.7594Z" fill="white"/>
<path d="M141.277 46.137C143.987 46.137 146.184 43.9401 146.184 41.2301C146.184 38.52 143.987 36.3231 141.277 36.3231C138.567 36.3231 136.37 38.52 136.37 41.2301C136.37 43.9401 138.567 46.137 141.277 46.137Z" fill="#133000"/>
<path opacity="0.13" d="M143.658 40.0754C143.877 39.2323 143.182 38.3219 142.106 38.0419C141.029 37.7619 139.979 38.2184 139.759 39.0615C139.54 39.9046 140.235 40.815 141.312 41.095C142.388 41.375 143.439 40.9185 143.658 40.0754Z" fill="white"/>
<path d="M150.352 60.4237L145.667 59.2051C144.608 58.9298 143.502 59.4412 143.026 60.4264L141.7 63.1732C141.072 64.4738 141.789 66.0241 143.187 66.3877L149.019 67.9045C150.417 68.268 151.798 67.2634 151.883 65.8216L152.063 62.7766C152.127 61.6844 151.411 60.6991 150.352 60.4237Z" fill="white"/>
<path d="M118.909 34.33C120.863 26.8157 120.68 20.2645 118.499 19.6974C116.319 19.1304 112.967 24.7623 111.013 32.2766C109.059 39.791 109.242 46.3422 111.423 46.9092C113.603 47.4762 116.955 41.8443 118.909 34.33Z" fill="#4EAF0E"/>
<path d="M155.276 52.1029C154.579 54.7823 151.939 56.4147 149.38 55.7492C146.821 55.0836 145.311 52.372 146.008 49.6926C146.705 47.0133 148.403 48.9997 150.962 49.6653C153.522 50.3308 155.973 49.4235 155.276 52.1029Z" fill="#FF9FC2"/>
<defs>
<clipPath id="clip0_4327_42855">
<rect width="122" height="122" fill="white" transform="matrix(-1 0 0 1 122 0)"/>
</clipPath>
</defs>
</svg>
