<svg width="80" height="40" viewBox="0 0 80 40" fill="none" xmlns="http://www.w3.org/2000/svg">
<rect width="80" height="40" fill="white"/>
<path d="M49.133 27.0313C49.133 27.1536 49.0588 27.2638 48.9445 27.3078L47.1791 27.9851C46.5579 28.2235 46.0709 28.7206 45.8425 29.3477L45.1712 31.1973C45.1665 31.2111 45.1559 31.2209 45.1489 31.2335C45.1431 31.2438 45.1377 31.2539 45.1307 31.2632C45.1199 31.2775 45.1091 31.2902 45.0957 31.3018C45.075 31.3204 45.0524 31.3364 45.027 31.3476C45.0109 31.3537 44.9949 31.3597 44.9789 31.3617C44.9628 31.3657 44.9469 31.3678 44.9308 31.3678L44.8786 31.3617C44.8626 31.3597 44.8466 31.3537 44.8306 31.3476C44.8041 31.3362 44.781 31.3197 44.76 31.3008C44.7471 31.2896 44.7367 31.277 44.7261 31.2634C44.7202 31.2554 44.7152 31.2469 44.7102 31.2381C44.7018 31.2242 44.6902 31.213 44.6844 31.1973L44.0131 29.3477C43.7867 28.7206 43.2996 28.2235 42.6784 27.9851L40.913 27.3078C40.7987 27.2638 40.7227 27.1536 40.7227 27.0313C40.7227 26.903 40.8068 26.7889 40.9291 26.7508L42.5443 26.2418C43.2437 26.0214 43.7947 25.4803 44.0312 24.7869L44.6885 22.8451C44.6964 22.8231 44.7066 22.8029 44.7186 22.785C44.7265 22.7729 44.7347 22.7609 44.7467 22.7509C44.7707 22.7249 44.8008 22.7049 44.8369 22.6908C44.8469 22.6868 44.8589 22.6828 44.8709 22.6808C44.889 22.6749 44.909 22.6729 44.929 22.6729C44.949 22.6729 44.9691 22.6749 44.9871 22.6808C44.9991 22.6828 45.0112 22.6869 45.0211 22.6908C45.0532 22.7028 45.0813 22.7228 45.1053 22.745C45.1153 22.755 45.1234 22.765 45.1314 22.7751C45.1474 22.7971 45.1615 22.8191 45.1695 22.8452L45.8267 24.787C46.0612 25.4804 46.6142 26.0215 47.3116 26.2419L48.9268 26.7509C49.0511 26.789 49.133 26.903 49.133 27.0313Z" fill="#C1D2E6"/>
<path d="M61.3963 10.8644C61.3963 10.9549 61.3414 11.0365 61.2568 11.0691L59.9498 11.5705C59.4899 11.747 59.1294 12.115 58.9603 12.5793L58.4633 13.9486C58.4598 13.9588 58.452 13.9661 58.4468 13.9754C58.4425 13.983 58.4385 13.9905 58.4333 13.9974C58.4253 14.008 58.4173 14.0174 58.4074 14.026C58.3921 14.0397 58.3753 14.0516 58.3565 14.0599C58.3446 14.0644 58.3328 14.0688 58.3209 14.0703C58.309 14.0733 58.2972 14.0748 58.2853 14.0748L58.2467 14.0703C58.2348 14.0688 58.223 14.0644 58.2111 14.0599C58.1915 14.0514 58.1744 14.0392 58.1589 14.0252C58.1493 14.0169 58.1416 14.0076 58.1338 13.9975C58.1294 13.9916 58.1257 13.9853 58.122 13.9788C58.1158 13.9685 58.1072 13.9602 58.1029 13.9486L57.6059 12.5793C57.4383 12.115 57.0777 11.747 56.6178 11.5705L55.3108 11.0691C55.2262 11.0365 55.1699 10.9549 55.1699 10.8644C55.1699 10.7694 55.2322 10.6849 55.3227 10.6567L56.5185 10.2799C57.0363 10.1167 57.4442 9.7161 57.6193 9.2028L58.1059 7.7652C58.1118 7.7489 58.1193 7.734 58.1282 7.7207C58.1341 7.7118 58.1401 7.7029 58.149 7.6955C58.1668 7.6762 58.1891 7.6614 58.2158 7.651C58.2232 7.648 58.2321 7.6451 58.241 7.6436C58.2544 7.6392 58.2692 7.6377 58.284 7.6377C58.2988 7.6377 58.3137 7.6392 58.327 7.6436C58.3359 7.6451 58.3448 7.6481 58.3522 7.651C58.3759 7.6599 58.3967 7.6747 58.4145 7.6911C58.4219 7.6985 58.4279 7.7059 58.4338 7.7134C58.4457 7.7297 58.4561 7.746 58.462 7.7653L58.9486 9.2029C59.1222 9.7162 59.5316 10.1168 60.0479 10.28L61.2437 10.6568C61.3357 10.685 61.3963 10.7694 61.3963 10.8644Z" fill="#FFEAA3"/>
<path d="M3.34196 12.591C3.34196 12.6815 3.39686 12.7631 3.48146 12.7957L4.78846 13.2971C5.24836 13.4736 5.60886 13.8416 5.77796 14.3059L6.27496 15.6752C6.27846 15.6854 6.28626 15.6927 6.29146 15.702C6.29576 15.7096 6.29976 15.7171 6.30496 15.724C6.31296 15.7346 6.32096 15.744 6.33086 15.7526C6.34616 15.7663 6.36296 15.7782 6.38176 15.7865C6.39366 15.791 6.40546 15.7954 6.41736 15.7969C6.42926 15.7999 6.44106 15.8014 6.45296 15.8014L6.49156 15.7969C6.50346 15.7954 6.51526 15.791 6.52716 15.7865C6.54676 15.778 6.56386 15.7658 6.57936 15.7518C6.58896 15.7435 6.59666 15.7342 6.60446 15.7241C6.60886 15.7182 6.61256 15.7119 6.61626 15.7054C6.62246 15.6951 6.63106 15.6868 6.63536 15.6752L7.13236 14.3059C7.29996 13.8416 7.66056 13.4736 8.12046 13.2971L9.42746 12.7957C9.51206 12.7631 9.56836 12.6815 9.56836 12.591C9.56836 12.496 9.50606 12.4115 9.41556 12.3833L8.21976 12.0065C7.70196 11.8433 7.29406 11.4427 7.11896 10.9294L6.63236 9.49176C6.62646 9.47546 6.61896 9.46056 6.61006 9.44726C6.60416 9.43836 6.59816 9.42946 6.58926 9.42206C6.57146 9.40276 6.54916 9.38796 6.52246 9.37756C6.51506 9.37456 6.50616 9.37166 6.49726 9.37016C6.48386 9.36576 6.46906 9.36426 6.45426 9.36426C6.43946 9.36426 6.42456 9.36576 6.41126 9.37016C6.40236 9.37166 6.39346 9.37466 6.38606 9.37756C6.36236 9.38646 6.34156 9.40126 6.32376 9.41766C6.31636 9.42506 6.31036 9.43246 6.30446 9.43996C6.29256 9.45626 6.28216 9.47256 6.27626 9.49186L5.78966 10.9295C5.61606 11.4428 5.20666 11.8434 4.69036 12.0066L3.49456 12.3834C3.40256 12.4116 3.34196 12.496 3.34196 12.591Z" fill="#C1D2E6"/>
<path d="M57.7741 31.8979C57.7741 31.9736 57.7282 32.0418 57.6575 32.0691L56.5644 32.4885C56.1798 32.6361 55.8783 32.9439 55.7368 33.3322L55.3211 34.4774C55.3182 34.486 55.3116 34.4921 55.3073 34.4998C55.3037 34.5062 55.3003 34.5124 55.296 34.5182C55.2893 34.527 55.2827 34.5349 55.2743 34.5421C55.2615 34.5536 55.2475 34.5635 55.2317 34.5705C55.2218 34.5742 55.2118 34.5779 55.2019 34.5792C55.192 34.5817 55.1821 34.5829 55.1721 34.5829L55.1398 34.5792C55.1299 34.578 55.12 34.5742 55.11 34.5705C55.0936 34.5634 55.0793 34.5532 55.0663 34.5414C55.0583 34.5345 55.0519 34.5267 55.0453 34.5182C55.0416 34.5132 55.0385 34.508 55.0354 34.5026C55.0302 34.494 55.023 34.487 55.0194 34.4774L54.6037 33.3322C54.4635 32.9438 54.162 32.6361 53.7774 32.4885L52.6843 32.0691C52.6136 32.0418 52.5664 31.9736 52.5664 31.8979C52.5664 31.8185 52.6185 31.7478 52.6942 31.7242L53.6943 31.409C54.1273 31.2725 54.4685 30.9375 54.6149 30.5082L55.0219 29.3059C55.0269 29.2923 55.0331 29.2798 55.0405 29.2687C55.0455 29.2613 55.0504 29.2538 55.0579 29.2476C55.0728 29.2315 55.0914 29.2191 55.1137 29.2104C55.1199 29.2079 55.1273 29.2054 55.1348 29.2042C55.146 29.2005 55.1584 29.1992 55.1708 29.1992C55.1832 29.1992 55.1956 29.2004 55.2068 29.2042C55.2142 29.2054 55.2217 29.2079 55.2279 29.2104C55.2477 29.2178 55.2651 29.2303 55.28 29.2439C55.2862 29.2501 55.2912 29.2563 55.2961 29.2625C55.306 29.2761 55.3147 29.2898 55.3197 29.3059L55.7267 30.5082C55.8719 30.9375 56.2143 31.2725 56.6461 31.409L57.6462 31.7242C57.7231 31.7478 57.7741 31.8185 57.7741 31.8979Z" fill="#FFEAA3"/>
<path d="M71.6489 30.6522C75.7643 30.6522 79.1005 27.316 79.1005 23.2006C79.1005 19.0852 75.7643 15.749 71.6489 15.749C67.5335 15.749 64.1973 19.0852 64.1973 23.2006C64.1973 27.316 67.5335 30.6522 71.6489 30.6522Z" fill="#DFC2DA"/>
<path d="M67.4007 24.6234C67.6975 24.6234 67.9381 24.3529 67.9381 24.0192C67.9381 23.6856 67.6975 23.415 67.4007 23.415C67.1039 23.415 66.8633 23.6856 66.8633 24.0192C66.8633 24.3529 67.1039 24.6234 67.4007 24.6234Z" fill="#DAB9D3"/>
<path d="M70.5589 22.2826C70.8255 22.2826 71.0416 21.9992 71.0416 21.6496C71.0416 21.3 70.8255 21.0166 70.5589 21.0166C70.2923 21.0166 70.0762 21.3 70.0762 21.6496C70.0762 21.9992 70.2923 22.2826 70.5589 22.2826Z" fill="#DAB9D3"/>
<path d="M68.3416 21.0162C68.5303 21.0162 68.6832 20.8185 68.6832 20.5745C68.6832 20.3306 68.5303 20.1328 68.3416 20.1328C68.1529 20.1328 68 20.3306 68 20.5745C68 20.8185 68.1529 21.0162 68.3416 21.0162Z" fill="#DAB9D3"/>
<path d="M74.5747 19.8874C74.7507 19.8874 74.8935 19.6835 74.8935 19.432C74.8935 19.1805 74.7507 18.9766 74.5747 18.9766C74.3986 18.9766 74.2559 19.1805 74.2559 19.432C74.2559 19.6835 74.3986 19.8874 74.5747 19.8874Z" fill="#DAB9D3"/>
<path d="M74.3349 26.9463C74.6191 26.9463 74.8495 26.6588 74.8495 26.3042C74.8495 25.9496 74.6191 25.6621 74.3349 25.6621C74.0507 25.6621 73.8203 25.9496 73.8203 26.3042C73.8203 26.6588 74.0507 26.9463 74.3349 26.9463Z" fill="#DAB9D3"/>
<g clip-path="url(#clip0_6627_10637)">
<path d="M37.4542 10.6475C37.3071 10.2125 37.6325 9.73517 38.4491 9.18848L38.8347 9.76427C38.1561 10.2183 38.1145 10.4463 38.1142 10.4486L37.4542 10.6475Z" fill="#ADB6CE"/>
<path d="M46.1241 7.7171C46.1119 7.71676 45.892 7.56524 45.0074 7.63965L44.9492 6.94954C46.026 6.8565 46.6261 7.03649 46.7807 7.49381L46.1244 7.71572C46.1248 7.71676 46.1248 7.7171 46.1241 7.7171Z" fill="#ADB6CE"/>
<path d="M41.99 12.4615C44.0729 12.4615 45.7613 10.7731 45.7613 8.69024C45.7613 6.60741 44.0729 4.91895 41.99 4.91895C39.9072 4.91895 38.2188 6.60741 38.2188 8.69024C38.2188 10.7731 39.9072 12.4615 41.99 12.4615Z" fill="#C2D2E9"/>
<path d="M41.6906 8.03295C41.7185 7.74854 41.5542 7.49959 41.3236 7.47692C41.0929 7.45425 40.8833 7.66643 40.8553 7.95084C40.8274 8.23526 40.9917 8.4842 41.2223 8.50687C41.453 8.52955 41.6626 8.31736 41.6906 8.03295Z" fill="#A9B9E1"/>
<path d="M44.2062 7.64923C44.3316 7.58478 44.3689 7.4072 44.2894 7.2526C44.21 7.09799 44.0439 7.02491 43.9185 7.08936C43.7931 7.15381 43.7558 7.33139 43.8353 7.48599C43.9147 7.6406 44.0808 7.71368 44.2062 7.64923Z" fill="#A9B9E1"/>
<path d="M40.9615 10.6076C41.1676 10.5016 41.2289 10.2097 41.0982 9.95551C40.9676 9.70133 40.6946 9.58116 40.4885 9.68709C40.2823 9.79303 40.2211 10.085 40.3518 10.3391C40.4824 10.5933 40.7554 10.7135 40.9615 10.6076Z" fill="#A9B9E1"/>
<path d="M42.134 8.78735C42.2587 8.78735 42.3598 8.66269 42.3598 8.50891C42.3598 8.35513 42.2587 8.23047 42.134 8.23047C42.0093 8.23047 41.9082 8.35513 41.9082 8.50891C41.9082 8.66269 42.0093 8.78735 42.134 8.78735Z" fill="#A9B9E1"/>
<path d="M39.7805 7.15336C39.8408 7.0119 39.7966 6.85759 39.6819 6.80869C39.5672 6.75979 39.4253 6.83482 39.365 6.97628C39.3047 7.11774 39.3489 7.27206 39.4636 7.32096C39.5783 7.36986 39.7201 7.29482 39.7805 7.15336Z" fill="#A9B9E1"/>
<path d="M42.4348 11.7707C42.5595 11.7707 42.6606 11.6461 42.6606 11.4923C42.6606 11.3385 42.5595 11.2139 42.4348 11.2139C42.3101 11.2139 42.209 11.3385 42.209 11.4923C42.209 11.6461 42.3101 11.7707 42.4348 11.7707Z" fill="#A9B9E1"/>
<path d="M44.4346 10.4934C44.5115 10.3603 44.4863 10.2018 44.3783 10.1394C44.2703 10.0771 44.1204 10.1345 44.0435 10.2677C43.9666 10.4008 43.9918 10.5593 44.0998 10.6217C44.2078 10.684 44.3577 10.6266 44.4346 10.4934Z" fill="#A9B9E1"/>
<path d="M38.7792 11.2138C38.0171 11.2138 37.5814 11.0264 37.4531 10.6459L38.1094 10.4246C38.3101 10.6266 39.9128 10.6083 42.3566 9.78193C44.8017 8.95548 46.0869 7.99712 46.1194 7.6927L46.7794 7.49414C47.144 8.5743 44.3102 9.85301 42.5785 10.4382C41.3955 10.838 40.242 11.1039 39.3306 11.1865C39.1307 11.2048 38.947 11.2138 38.7792 11.2138Z" fill="#ADB6CE"/>
<path d="M42.2078 15.8287C46.0958 15.8287 49.2476 12.6768 49.2476 8.78885C49.2476 4.90086 46.0958 1.74902 42.2078 1.74902C38.3198 1.74902 35.168 4.90086 35.168 8.78885C35.168 12.6768 38.3198 15.8287 42.2078 15.8287Z" stroke="#ADB5CE" stroke-width="1.38561" stroke-miterlimit="10"/>
<path d="M37.9713 14.7789L36.7871 13.5947L35.3303 15.0516L36.5144 16.2357L37.9713 14.7789Z" fill="#AEB6CE"/>
<path d="M36.8081 15.6294L35.8926 14.7139C35.5398 14.3611 34.968 14.3611 34.6152 14.7139L28.5859 20.7432C28.2332 21.0959 28.2332 21.6678 28.5859 22.0205L29.5014 22.936C29.8542 23.2887 30.426 23.2887 30.7788 22.936L36.8081 16.9067C37.1608 16.554 37.1608 15.9821 36.8081 15.6294Z" fill="#B8C2D8"/>
</g>
<g clip-path="url(#clip1_6627_10637)">
<path d="M26.0492 20.6174C25.7042 19.7733 23.9244 19.6198 21.4066 20.0629" stroke="#627399" stroke-width="1.62621" stroke-miterlimit="10"/>
<path d="M7.34031 25.982C5.59152 27.2765 4.66343 28.4638 4.97637 29.2296" stroke="#627399" stroke-width="1.62621" stroke-miterlimit="10"/>
<path d="M21.0184 31.3332C17.4968 34.6707 11.9363 34.5215 8.59878 30.9999C5.26125 27.4782 5.41049 21.9178 8.93212 18.5802C12.4537 15.2427 18.0142 15.392 21.3517 18.9136C24.6893 22.4352 24.54 27.9957 21.0184 31.3332Z" fill="#ADB6CE"/>
<path d="M4.9776 29.228C5.59537 30.7395 10.8133 30.0369 16.6323 27.6587C22.4514 25.2806 26.6678 22.1273 26.0501 20.6158" stroke="#627399" stroke-width="1.62621" stroke-miterlimit="10"/>
<path d="M14.9222 19.5378C14.7884 19.6646 14.5526 19.633 14.3955 19.4673C14.2385 19.3016 14.2196 19.0644 14.3534 18.9376C14.4872 18.8108 14.723 18.8424 14.8801 19.0081C15.0372 19.1738 15.056 19.411 14.9222 19.5378Z" fill="#B7C8D9"/>
<path d="M10.1273 27.9948C9.99346 28.1216 9.75766 28.0901 9.6006 27.9243C9.44354 27.7586 9.42469 27.5215 9.5585 27.3947C9.69231 27.2678 9.92811 27.2994 10.0852 27.4651C10.2422 27.6308 10.2611 27.868 10.1273 27.9948Z" fill="#B7C8D9"/>
<path d="M17.6029 20.7589C17.4691 20.8857 17.2671 20.8899 17.1519 20.7683C17.0366 20.6467 17.0516 20.4453 17.1855 20.3185C17.3193 20.1917 17.5212 20.1875 17.6364 20.3091C17.7517 20.4307 17.7367 20.6321 17.6029 20.7589Z" fill="#B7C8D9"/>
<path d="M15.1231 31.6282C14.909 31.4499 14.8463 31.1722 14.983 31.0081C15.1198 30.8439 15.4041 30.8553 15.6182 31.0336C15.8323 31.2119 15.895 31.4895 15.7583 31.6537C15.6216 31.8179 15.3372 31.8064 15.1231 31.6282Z" fill="#B7C8D9"/>
<path d="M17.5155 31.8521C17.3281 31.9546 17.0678 31.8395 16.9341 31.595C16.8005 31.3505 16.8442 31.0693 17.0316 30.9668C17.2191 30.8643 17.4794 30.9794 17.613 31.2239C17.7467 31.4684 17.703 31.7496 17.5155 31.8521Z" fill="#B7C8D9"/>
</g>
<defs>
<clipPath id="clip0_6627_10637">
<rect width="21.6198" height="22.145" fill="white" transform="translate(28.3223 1.05566)"/>
</clipPath>
<clipPath id="clip1_6627_10637">
<rect width="22.9546" height="17.5703" fill="white" transform="matrix(-0.725824 0.687881 0.687881 0.725824 17.5625 10.4014)"/>
</clipPath>
</defs>
</svg>
