<svg width="80" height="40" viewBox="0 0 80 40" fill="none" xmlns="http://www.w3.org/2000/svg">
<g clip-path="url(#clip0_6627_10736)">
<rect width="80" height="40" fill="white"/>
<path d="M40.6549 7.74528C40.4441 6.65872 41.1528 5.60525 42.2401 5.39514C56.0554 2.71002 66.6769 10.7432 67.1221 11.0864C67.9975 11.7608 68.1597 13.0165 67.4864 13.8927C67.2241 14.2346 66.8728 14.4688 66.4893 14.5869C66.0447 14.724 65.5576 14.7031 65.1168 14.5167C64.6581 14.5968 64.1713 14.5287 63.7416 14.2723C63.4664 14.1071 56.902 10.2905 47.6858 14.0926C46.6749 14.5126 45.4906 14.0275 45.0684 13.0045C44.6466 11.9814 45.1334 10.8094 46.1569 10.387C47.6643 9.76515 49.111 9.3272 50.4967 9.01548C48.1632 8.78238 45.6485 8.81651 43.005 9.33045C41.9184 9.54127 40.8662 8.83169 40.6549 7.74528Z" fill="#FFEB9E"/>
<path d="M67.0165 8.55847L65.7116 10.56C65.5976 10.7349 65.4098 10.8479 65.2019 10.8668L62.8223 11.0829C62.2797 11.1322 62.011 11.7663 62.3531 12.1904L63.8534 14.0499C63.9845 14.2123 64.034 14.4259 63.9877 14.6295L63.4579 16.9593C63.3371 17.4905 63.8573 17.9421 64.3663 17.7477L66.5985 16.8954C66.7935 16.821 67.0119 16.8399 67.1911 16.9468L69.2431 18.1706C69.711 18.4497 70.3012 18.0945 70.2737 17.5504L70.1529 15.1641C70.1423 14.9556 70.2278 14.7538 70.3849 14.6163L72.183 13.0428C72.593 12.684 72.4376 12.0131 71.9115 11.871L69.6047 11.2485C69.4032 11.1941 69.2377 11.0505 69.1555 10.8586L68.2147 8.66225C68.0002 8.16144 67.3141 8.10206 67.0165 8.55847Z" fill="#E3C6DB"/>
<path d="M45.8881 24.2726C45.8881 24.3925 45.9608 24.5005 46.0729 24.5437L47.8035 25.2076C48.4125 25.4413 48.8898 25.9286 49.1138 26.5434L49.7719 28.3566C49.7765 28.3701 49.7868 28.3797 49.7937 28.392C49.7994 28.4021 49.8047 28.412 49.8116 28.4212C49.8222 28.4352 49.8328 28.4477 49.8459 28.459C49.8661 28.4772 49.8884 28.4929 49.9133 28.5039C49.929 28.5099 49.9447 28.5157 49.9604 28.5177C49.9762 28.5217 49.9918 28.5237 50.0076 28.5237L50.0587 28.5177C50.0744 28.5157 50.0901 28.5099 50.1058 28.5039C50.1318 28.4927 50.1544 28.4765 50.1749 28.458C50.1876 28.447 50.1978 28.4347 50.2082 28.4213C50.214 28.4135 50.2189 28.4052 50.2238 28.3965C50.232 28.3829 50.2434 28.3719 50.2491 28.3566L50.9072 26.5434C51.1291 25.9286 51.6066 25.4413 52.2156 25.2076L53.9462 24.5437C54.0583 24.5005 54.1328 24.3925 54.1328 24.2726C54.1328 24.1468 54.0503 24.0349 53.9305 23.9976L52.3471 23.4987C51.6614 23.2826 51.1213 22.7521 50.8894 22.0724L50.2451 20.1688C50.2373 20.1472 50.2274 20.1275 50.2156 20.1099C50.2078 20.0981 50.1998 20.0863 50.188 20.0765C50.1645 20.051 50.1349 20.0314 50.0996 20.0176C50.0898 20.0136 50.078 20.0098 50.0662 20.0078C50.0485 20.002 50.0289 20 50.0093 20C49.9897 20 49.97 20.002 49.9523 20.0078C49.9406 20.0098 49.9288 20.0138 49.919 20.0176C49.8876 20.0294 49.8601 20.049 49.8365 20.0707C49.8267 20.0805 49.8187 20.0903 49.8109 20.1002C49.7952 20.1218 49.7814 20.1434 49.7736 20.169L49.1293 22.0726C48.8994 22.7522 48.3573 23.2827 47.6736 23.4988L46.0902 23.9977C45.9684 24.0351 45.8881 24.1468 45.8881 24.2726Z" fill="#C1D2E6"/>
<path d="M68.4038 30.7297C68.4038 30.8495 68.4765 30.9575 68.5885 31.0007L70.3191 31.6646C70.9281 31.8984 71.4055 32.3856 71.6294 33.0004L72.2875 34.8136C72.2921 34.8271 72.3025 34.8368 72.3093 34.8491C72.315 34.8591 72.3203 34.8691 72.3272 34.8782C72.3378 34.8922 72.3484 34.9047 72.3615 34.9161C72.3818 34.9342 72.404 34.95 72.4289 34.961C72.4447 34.9669 72.4603 34.9728 72.4761 34.9747C72.4918 34.9787 72.5074 34.9807 72.5232 34.9807L72.5743 34.9747C72.5901 34.9728 72.6057 34.9669 72.6214 34.961C72.6474 34.9497 72.67 34.9336 72.6906 34.915C72.7033 34.904 72.7135 34.8917 72.7238 34.8783C72.7296 34.8705 72.7345 34.8622 72.7394 34.8536C72.7476 34.8399 72.759 34.8289 72.7647 34.8136L73.4228 33.0004C73.6447 32.3856 74.1222 31.8984 74.7312 31.6646L76.4619 31.0007C76.5739 30.9575 76.6484 30.8495 76.6484 30.7297C76.6484 30.6039 76.5659 30.492 76.4461 30.4546L74.8627 29.9557C74.177 29.7396 73.6369 29.2091 73.4051 28.5295L72.7607 26.6259C72.7529 26.6043 72.743 26.5845 72.7312 26.5669C72.7234 26.5552 72.7155 26.5434 72.7037 26.5336C72.6801 26.508 72.6506 26.4884 72.6152 26.4746C72.6054 26.4707 72.5936 26.4668 72.5818 26.4648C72.5641 26.459 72.5445 26.457 72.5249 26.457C72.5053 26.457 72.4856 26.459 72.468 26.4648C72.4562 26.4668 72.4444 26.4708 72.4346 26.4746C72.4032 26.4864 72.3757 26.506 72.3521 26.5277C72.3423 26.5375 72.3344 26.5473 72.3266 26.5573C72.3108 26.5789 72.297 26.6004 72.2892 26.626L71.6449 28.5296C71.415 29.2093 70.8729 29.7397 70.1892 29.9558L68.6058 30.4548C68.484 30.4921 68.4038 30.6039 68.4038 30.7297Z" fill="#A7B0CB"/>
<path d="M55.4721 30.3405L54.6719 31.4884C54.6339 31.5428 54.5787 31.5829 54.5152 31.6023L53.1762 32.0085C52.9793 32.0682 52.9022 32.3058 53.0264 32.4699L53.8708 33.5856C53.9109 33.6385 53.9319 33.7034 53.9306 33.7698L53.9032 35.1687C53.8992 35.3745 54.1013 35.5212 54.2957 35.4538L55.6177 34.9954C55.6805 34.9737 55.7487 34.9737 55.8114 34.9954L57.1335 35.4538C57.3278 35.5212 57.5299 35.3744 57.5259 35.1687L57.4985 33.7698C57.4972 33.7034 57.5183 33.6385 57.5584 33.5856L58.4028 32.4699C58.527 32.3058 58.4498 32.0682 58.2529 32.0085L56.9139 31.6023C56.8504 31.5829 56.7951 31.5429 56.7573 31.4884L55.9571 30.3405C55.8394 30.1717 55.5898 30.1717 55.4721 30.3405Z" fill="#FEE99F"/>
<path d="M14.7599 5.00724C14.7599 5.09184 14.7085 5.16823 14.6295 5.19875L13.4073 5.66764C12.9773 5.83274 12.6402 6.17669 12.482 6.61095L12.0172 7.89141C12.0139 7.90106 12.0066 7.90785 12.0019 7.91639C11.9979 7.92351 11.9941 7.93047 11.9892 7.93695C11.9818 7.94676 11.9744 7.95562 11.965 7.96368C11.9508 7.97649 11.935 7.98756 11.9174 7.99547C11.9064 7.99958 11.8953 8.00385 11.8841 8.00512C11.873 8.00796 11.8619 8.00922 11.8507 8.00922L11.8146 8.00512C11.8036 8.00369 11.7925 7.99958 11.7813 7.99547C11.7629 7.98756 11.7469 7.97602 11.7324 7.96305C11.7234 7.9553 11.7163 7.9466 11.709 7.93711C11.7049 7.93158 11.7014 7.92573 11.6979 7.91972C11.6921 7.91007 11.684 7.90232 11.68 7.89157L11.2153 6.61111C11.0585 6.17685 10.7214 5.83289 10.2914 5.6678L9.06924 5.19891C8.99016 5.16839 8.9375 5.09217 8.9375 5.0074C8.9375 4.91869 8.9957 4.83961 9.08046 4.8132L10.1987 4.46087C10.6829 4.30826 11.0644 3.93378 11.2281 3.45367L11.6831 2.10947C11.6886 2.09429 11.6956 2.08037 11.7039 2.06788C11.7095 2.0595 11.715 2.05128 11.7234 2.04432C11.74 2.02629 11.7609 2.01237 11.7859 2.00273C11.7928 2.00004 11.801 1.99719 11.8094 1.99577C11.8219 1.99166 11.8358 1.99023 11.8496 1.99023C11.8635 1.99023 11.8773 1.99166 11.8898 1.99577C11.8981 1.99719 11.9064 1.99988 11.9133 2.00273C11.9355 2.01111 11.9549 2.02487 11.9715 2.04021C11.9785 2.04716 11.984 2.05412 11.9895 2.06108C12.0006 2.07626 12.0104 2.0916 12.016 2.10963L12.4709 3.45382C12.6332 3.93378 13.0162 4.30842 13.4989 4.46103L14.6171 4.81336C14.7031 4.83977 14.7599 4.91852 14.7599 5.00724Z" fill="#C2D2E9"/>
<path d="M35.1484 11.8594L20.8812 8.47537C19.7312 8.20258 18.5777 8.91377 18.3049 10.0639L13.7859 29.1161C13.5131 30.2662 14.2243 31.4197 15.3744 31.6925L29.6416 35.0765C30.7916 35.3493 31.9451 34.6381 32.2179 33.488L36.7369 14.4357C37.0097 13.2856 36.2985 12.1322 35.1484 11.8594Z" fill="#EEEEF4"/>
<path d="M32.9116 10.3451L31.431 9.99393L31.5386 9.54025C31.6632 9.01515 31.3385 8.48853 30.8133 8.36395L26.3272 7.29989C25.8021 7.17535 25.2753 7.50001 25.1508 8.02511L25.0432 8.47879L23.5626 8.12762C23.2567 8.05507 22.9499 8.24416 22.8773 8.55018L22.3834 10.6326C22.3108 10.9385 22.4999 11.2452 22.806 11.3178L32.1549 13.5353C32.4608 13.6078 32.7676 13.4187 32.8402 13.1128L33.3341 11.0304C33.4067 10.7245 33.2176 10.4177 32.9116 10.3451Z" fill="#AEB6CD"/>
<path d="M33.2597 16.7447L20.3804 13.6899C20.193 13.6454 20.005 13.7613 19.9605 13.9488L19.822 14.5328C19.7775 14.7202 19.8934 14.9082 20.0809 14.9527L32.9602 18.0075C33.1477 18.052 33.3357 17.9361 33.3801 17.7486L33.5186 17.1646C33.5631 16.9772 33.4472 16.7892 33.2597 16.7447Z" fill="#D2D6E4"/>
<path d="M32.4375 20.2008L19.5581 17.1459C19.3707 17.1015 19.1827 17.2174 19.1382 17.4048L18.9997 17.9889C18.9553 18.1763 19.0712 18.3643 19.2586 18.4088L32.138 21.4636C32.3254 21.5081 32.5134 21.3921 32.5579 21.2047L32.6964 20.6207C32.7408 20.4332 32.6249 20.2452 32.4375 20.2008Z" fill="#D2D6E4"/>
<path d="M31.6172 23.6558L18.7378 20.601C18.5504 20.5565 18.3624 20.6725 18.3179 20.8599L18.1794 21.4439C18.135 21.6314 18.2509 21.8194 18.4383 21.8638L31.3176 24.9187C31.5051 24.9631 31.6931 24.8472 31.7375 24.6598L31.8761 24.0758C31.9205 23.8883 31.8046 23.7003 31.6172 23.6558Z" fill="#D2D6E4"/>
<path d="M23.9307 25.4829L17.9195 24.0571C17.732 24.0126 17.544 24.1285 17.4996 24.316L17.3611 24.9C17.3166 25.0874 17.4325 25.2754 17.6199 25.3199L23.6312 26.7457C23.8187 26.7902 24.0067 26.6742 24.0511 26.4868L24.1896 25.9028C24.2341 25.7153 24.1182 25.5273 23.9307 25.4829Z" fill="#D2D6E4"/>
<path d="M1.65195 3.12618C2.56378 2.9937 3.41156 3.62637 3.54405 4.53819L6.32399 23.6707L3.01999 24.1508L0.240042 5.01826C0.107555 4.10644 0.740225 3.25866 1.65195 3.12618Z" fill="#FFEA9F"/>
<path d="M5.23439 27.0742L6.32549 23.6703L3.02148 24.1504L5.03617 27.103C5.08854 27.1797 5.20601 27.1626 5.23439 27.0742Z" fill="#FEEDD2"/>
<path d="M1.65205 3.12617C0.739731 3.25873 0.107468 4.10584 0.240042 5.01826L0.638383 7.75977L3.94239 7.2797L3.54405 4.53819C3.41149 3.62587 2.56447 2.99359 1.65205 3.12617Z" fill="#B0B6CF"/>
<path d="M4.19336 25.8721L5.03354 27.1034C5.0859 27.18 5.20357 27.1629 5.23185 27.0745L5.68688 25.6551L4.19336 25.8721Z" fill="#AEB7CD"/>
</g>
<defs>
<clipPath id="clip0_6627_10736">
<rect width="80" height="40" fill="white"/>
</clipPath>
</defs>
</svg>
