<svg width="160" height="121" viewBox="0 0 160 121" fill="none" xmlns="http://www.w3.org/2000/svg">
<g opacity="0.05">
<path d="M75.8602 116.231L72.9134 113.283C59.2833 99.6541 19.1295 102.443 4.80704 104.668L0 105.415V8.01232L3.52742 7.46427C5.69327 7.12693 54.503 -0.221278 75.8602 15.871C97.2175 -0.22032 146.026 7.12693 148.193 7.46427L151.721 8.01232V29.3804H143.387V15.2121C126.867 13.1633 91.4262 11.6956 78.8071 24.3156L75.8603 27.262L72.9136 24.3156C60.2943 11.6966 24.8534 13.1629 8.33434 15.2121V95.7997C21.5381 94.2732 58.1442 91.4915 75.8602 104.839C93.5774 91.4906 130.185 94.2714 143.386 95.7997V79.5655H151.721V105.413L146.915 104.668C132.585 102.448 92.4186 99.6702 78.807 113.283L75.8602 116.231Z" fill="white"/>
<path d="M51.7635 51.3975H41.4149V41.0488H32.333V51.3975H21.9844V60.4795H32.333V70.8281H41.4149V60.4795H51.7635V51.3975Z" fill="white"/>
<path d="M160.002 60.0057V51.875H131.893V60.0057H160.002Z" fill="white"/>
<path d="M150.01 71.244V63.1133H141.879V71.244H150.01Z" fill="white"/>
<path d="M150.01 48.7674V40.6367H141.879V48.7674H150.01Z" fill="white"/>
<path d="M124.897 48.6211L118.475 42.1992L111.157 49.5169L103.84 42.1992L97.418 48.6211L104.736 55.9387L97.418 63.2564L103.84 69.6783L111.157 62.3606L118.475 69.6783L124.897 63.2564L117.579 55.9387L124.897 48.6211Z" fill="white"/>
<path d="M89.4766 60.4804V51.3984H59.6973V60.4804H89.4766Z" fill="white"/>
</g>
</svg>
