<svg width="320" height="240" viewBox="0 0 320 240" fill="none" xmlns="http://www.w3.org/2000/svg">
<g clip-path="url(#clip0_3695_36863)">
<g clip-path="url(#clip1_3695_36863)">
<path d="M230.161 45.6384C242.762 45.6384 252.978 35.4232 252.978 22.8221C252.978 10.221 242.762 0.00585938 230.161 0.00585938C217.56 0.00585938 207.345 10.221 207.345 22.8221C207.345 35.4232 217.56 45.6384 230.161 45.6384Z" fill="#3192D9"/>
<path d="M221.424 29.4337L204.943 71.2507L215.556 75.4338L232.038 33.6168L221.424 29.4337Z" fill="#3192D9"/>
<path d="M95.7138 45.6384C108.315 45.6384 118.53 35.4232 118.53 22.8221C118.53 10.221 108.315 0.00585938 95.7138 0.00585938C83.1128 0.00585938 72.8976 10.221 72.8976 22.8221C72.8976 35.4232 83.1128 45.6384 95.7138 45.6384Z" fill="#3192D9"/>
<path d="M104.451 29.4336L93.8372 33.6167L110.319 75.4337L120.932 71.2507L104.451 29.4336Z" fill="#3192D9"/>
<path d="M287.994 169.334C287.994 240.023 230.689 279.61 160 279.61C89.3104 279.61 32.0056 240.023 32.0056 169.334C32.0056 98.6446 89.3106 41.3394 160 41.3394C230.69 41.3394 287.994 98.6444 287.994 169.334Z" fill="#57CBF4"/>
<path d="M252.984 180.472C252.984 231.825 211.353 245.495 160 245.495C108.647 245.495 67.0166 231.825 67.0166 180.472C67.0166 129.118 108.647 111.358 160 111.358C211.353 111.358 252.984 129.119 252.984 180.472Z" fill="#CCECFF" stroke="white" stroke-width="11.303" stroke-miterlimit="10"/>
<path d="M121.555 203.524C135.416 203.524 146.653 192.288 146.653 178.427C146.653 164.565 135.416 153.329 121.555 153.329C107.694 153.329 96.4571 164.565 96.4571 178.427C96.4571 192.288 107.694 203.524 121.555 203.524Z" fill="white"/>
<path d="M121.555 188.009C130.588 188.009 137.911 180.686 137.911 171.652C137.911 162.619 130.588 155.296 121.555 155.296C112.521 155.296 105.198 162.619 105.198 171.652C105.198 180.686 112.521 188.009 121.555 188.009Z" fill="#003A7F"/>
<path opacity="0.13" d="M121.555 171.187C125.262 171.187 128.268 168.833 128.268 165.93C128.268 163.026 125.262 160.672 121.555 160.672C117.847 160.672 114.841 163.026 114.841 165.93C114.841 168.833 117.847 171.187 121.555 171.187Z" fill="white"/>
<path d="M198.445 203.524C212.306 203.524 223.543 192.288 223.543 178.427C223.543 164.565 212.306 153.329 198.445 153.329C184.584 153.329 173.347 164.565 173.347 178.427C173.347 192.288 184.584 203.524 198.445 203.524Z" fill="white"/>
<path d="M198.445 188.009C207.479 188.009 214.802 180.686 214.802 171.652C214.802 162.619 207.479 155.296 198.445 155.296C189.412 155.296 182.089 162.619 182.089 171.652C182.089 180.686 189.412 188.009 198.445 188.009Z" fill="#003A7F"/>
<path opacity="0.13" d="M198.445 171.187C202.153 171.187 205.159 168.833 205.159 165.93C205.159 163.026 202.153 160.672 198.445 160.672C194.737 160.672 191.731 163.026 191.731 165.93C191.731 168.833 194.737 171.187 198.445 171.187Z" fill="white"/>
<path d="M149.691 201.036C154.94 207.667 164.999 207.672 170.255 201.047L170.264 201.036L170.309 201.091" stroke="#232323" stroke-width="9.22025" stroke-linecap="round" stroke-linejoin="round"/>
</g>
</g>
<defs>
<clipPath id="clip0_3695_36863">
<rect width="320" height="240" fill="white"/>
</clipPath>
<clipPath id="clip1_3695_36863">
<rect width="255.989" height="279.61" fill="white" transform="translate(32.0056)"/>
</clipPath>
</defs>
</svg>
