<svg width="320" height="240" viewBox="0 0 320 240" fill="none" xmlns="http://www.w3.org/2000/svg">
<g clip-path="url(#clip0_3695_36862)">
<g clip-path="url(#clip1_3695_36862)">
<path d="M50.1413 150.625H38.2708L46.3643 50.4817H50.1413V150.625Z" fill="#4EAF0E"/>
<path d="M82.585 194.188C111.333 194.188 134.637 170.883 134.637 142.135C134.637 113.387 111.333 90.0828 82.585 90.0828C53.8372 90.0828 30.5325 113.387 30.5325 142.135C30.5325 170.883 53.8372 194.188 82.585 194.188Z" fill="#4EAF0E"/>
<path d="M237.415 194.188C266.163 194.188 289.467 170.883 289.467 142.135C289.467 113.387 266.163 90.0828 237.415 90.0828C208.667 90.0828 185.362 113.387 185.362 142.135C185.362 170.883 208.667 194.188 237.415 194.188Z" fill="#4EAF0E"/>
<path d="M271.176 102.34C271.176 97.2873 270.071 92.2692 267.762 87.7753C248.005 49.317 207.953 23 161.743 23C115.532 23 75.4794 49.317 55.7232 87.7753C53.4147 92.2692 52.3097 97.287 52.3097 102.34V181.93C52.3097 186.982 53.4144 192 55.7232 196.494C75.4794 234.953 115.532 261.27 161.743 261.27C207.953 261.27 248.005 234.953 267.762 196.494C270.071 192 271.176 186.982 271.176 181.93V102.34Z" fill="#63C928"/>
<path d="M48.145 60.3557C53.5983 60.3557 58.019 55.9349 58.019 50.4817C58.019 45.0284 53.5983 40.6077 48.145 40.6077C42.6917 40.6077 38.271 45.0284 38.271 50.4817C38.271 55.9349 42.6917 60.3557 48.145 60.3557Z" fill="#4EAF0E"/>
<path d="M204.877 31.0708C191.501 25.8693 176.96 23 161.743 23C146.525 23 131.984 25.8693 118.608 31.0708V109.619H204.877V31.0708Z" fill="#4EAF0E"/>
<path d="M241.955 142.135C241.955 186.435 206.043 222.348 161.743 222.348C117.443 222.348 81.5302 186.435 81.5302 142.135C81.5302 97.835 117.443 84.5825 161.743 84.5825C206.043 84.5825 241.955 97.8348 241.955 142.135Z" fill="#D8F4C6" stroke="white" stroke-width="11.3035" stroke-miterlimit="10"/>
<path d="M151.434 168.238C156.682 174.869 166.741 174.875 171.998 168.25L172.007 168.238L172.051 168.294" stroke="#232323" stroke-width="9.22025" stroke-linecap="round" stroke-linejoin="round"/>
<path d="M153.674 199.934H169.812C173.458 199.934 176.597 202.511 177.305 206.089L179.28 216.063C180.215 220.786 176.601 225.185 171.787 225.185H151.699C146.884 225.185 143.27 220.786 144.205 216.063L146.181 206.089C146.889 202.511 150.027 199.934 153.674 199.934Z" fill="white"/>
<path d="M200.188 170.727C214.049 170.727 225.285 159.49 225.285 145.629C225.285 131.768 214.049 120.531 200.188 120.531C186.327 120.531 175.09 131.768 175.09 145.629C175.09 159.49 186.327 170.727 200.188 170.727Z" fill="white"/>
<path d="M200.188 155.211C209.221 155.211 216.544 147.888 216.544 138.855C216.544 129.821 209.221 122.498 200.188 122.498C191.154 122.498 183.831 129.821 183.831 138.855C183.831 147.888 191.154 155.211 200.188 155.211Z" fill="#133000"/>
<path opacity="0.13" d="M200.188 138.39C203.896 138.39 206.902 136.036 206.902 133.132C206.902 130.228 203.896 127.874 200.188 127.874C196.48 127.874 193.474 130.228 193.474 133.132C193.474 136.036 196.48 138.39 200.188 138.39Z" fill="white"/>
<path d="M123.297 170.727C137.159 170.727 148.395 159.49 148.395 145.629C148.395 131.768 137.159 120.531 123.297 120.531C109.436 120.531 98.1997 131.768 98.1997 145.629C98.1997 159.49 109.436 170.727 123.297 170.727Z" fill="white"/>
<path d="M123.297 155.211C132.331 155.211 139.654 147.888 139.654 138.855C139.654 129.821 132.331 122.498 123.297 122.498C114.264 122.498 106.941 129.821 106.941 138.855C106.941 147.888 114.264 155.211 123.297 155.211Z" fill="#133000"/>
<path opacity="0.13" d="M123.297 138.39C127.005 138.39 130.011 136.036 130.011 133.132C130.011 130.228 127.005 127.874 123.297 127.874C119.59 127.874 116.584 130.228 116.584 133.132C116.584 136.036 119.59 138.39 123.297 138.39Z" fill="white"/>
</g>
</g>
<defs>
<clipPath id="clip0_3695_36862">
<rect width="320" height="240" fill="white"/>
</clipPath>
<clipPath id="clip1_3695_36862">
<rect width="258.935" height="238.27" fill="white" transform="translate(30.5325 23)"/>
</clipPath>
</defs>
</svg>
