<svg width="320" height="240" viewBox="0 0 320 240" fill="none" xmlns="http://www.w3.org/2000/svg">
<g clip-path="url(#clip0_3695_36860)">
<g clip-path="url(#clip1_3695_36860)">
<path d="M287.994 178.678C287.994 249.367 230.689 288.954 160 288.954C89.3102 288.954 32.0052 249.368 32.0052 178.678C32.0052 107.989 89.3105 50.6836 160 50.6836C230.689 50.6836 287.994 107.989 287.994 178.678Z" fill="#A678FF"/>
<path d="M24.2708 144.261H59.7545V224.516C59.7545 234.308 51.8045 242.258 42.0125 242.258C32.2205 242.258 24.2705 234.308 24.2705 224.516L24.2708 144.261Z" fill="#FFC200"/>
<path d="M260.245 144.261H295.729V224.516C295.729 234.308 287.779 242.258 277.987 242.258C268.195 242.258 260.245 234.308 260.245 224.516L260.245 144.261Z" fill="#FFC200"/>
<path d="M44.7721 62.1254L66.8992 39.9982C70.1436 36.7539 75.4119 36.7539 78.6563 39.9982L85.3476 46.6896L51.4634 80.5738L44.7721 73.8824C41.5277 70.6381 41.5277 65.3698 44.7721 62.1254Z" fill="#FFC200"/>
<path d="M268.537 80.5737L234.652 46.6895L241.344 39.9982C244.588 36.7538 249.856 36.7538 253.101 39.9982L275.228 62.1253C278.472 65.3697 278.472 70.638 275.228 73.8824L268.537 80.5737Z" fill="#FFC200"/>
<path d="M297.405 148.524C292.992 76.3823 233.253 19.1938 160.001 19.1938C86.7484 19.1938 27.0084 76.3823 22.5946 148.524H297.405Z" fill="#FFDC00"/>
<path d="M184.704 139.703L222.461 34.8289C203.648 25.1636 182.624 19.1936 160 19.1936C137.377 19.1936 116.352 25.1636 97.537 34.8289L135.29 139.69L139.609 147.172H180.392L184.704 139.703Z" fill="#FFD400"/>
<path d="M141.65 0H178.35C184.112 0 188.79 4.678 188.79 10.4402V140.796H131.21V10.4402C131.21 4.67825 135.887 0 141.65 0Z" fill="#FFC200"/>
<path d="M38.9063 115.902H281.094C300.627 115.902 316.486 131.761 316.486 151.294C316.486 152.805 315.26 154.032 313.749 154.032H6.25129C4.74054 154.032 3.51404 152.805 3.51404 151.294C3.51404 131.761 19.3728 115.902 38.9063 115.902Z" fill="#FFAA00"/>
<path d="M225.877 133.268H94.1228C82.9456 133.268 73.8848 142.329 73.8848 153.506V199.145C73.8848 210.322 82.9456 219.383 94.1228 219.383H225.877C237.054 219.383 246.115 210.322 246.115 199.145V153.506C246.115 142.329 237.054 133.268 225.877 133.268Z" fill="#F1F1FF" stroke="white" stroke-width="11.3035" stroke-miterlimit="10"/>
<path d="M73.5643 204.729L64.1833 202.622C59.1323 201.488 55.5428 197.003 55.5428 191.826V163.029C55.5428 157.852 59.1321 153.367 64.1833 152.233L73.5643 150.125V204.729Z" fill="white"/>
<path d="M246.436 150.125L255.817 152.233C260.868 153.367 264.457 157.852 264.457 163.029V191.826C264.457 197.003 260.868 201.488 255.817 202.622L246.436 204.729V150.125Z" fill="white"/>
<path d="M198.445 201.423C212.306 201.423 223.543 190.186 223.543 176.325C223.543 162.464 212.306 151.228 198.445 151.228C184.584 151.228 173.348 162.464 173.348 176.325C173.348 190.186 184.584 201.423 198.445 201.423Z" fill="white"/>
<path d="M198.445 185.908C207.479 185.908 214.802 178.585 214.802 169.551C214.802 160.518 207.479 153.195 198.445 153.195C189.412 153.195 182.089 160.518 182.089 169.551C182.089 178.585 189.412 185.908 198.445 185.908Z" fill="black"/>
<path opacity="0.15" d="M198.737 169.086C202.445 169.086 205.451 166.732 205.451 163.828C205.451 160.925 202.445 158.571 198.737 158.571C195.029 158.571 192.023 160.925 192.023 163.828C192.023 166.732 195.029 169.086 198.737 169.086Z" fill="white"/>
<path d="M121.555 201.423C135.416 201.423 146.653 190.186 146.653 176.325C146.653 162.464 135.416 151.228 121.555 151.228C107.694 151.228 96.457 162.464 96.457 176.325C96.457 190.186 107.694 201.423 121.555 201.423Z" fill="white"/>
<path d="M121.556 185.907C130.589 185.907 137.912 178.584 137.912 169.551C137.912 160.517 130.589 153.194 121.556 153.194C112.522 153.194 105.199 160.517 105.199 169.551C105.199 178.584 112.522 185.907 121.556 185.907Z" fill="black"/>
<path opacity="0.15" d="M121.847 169.086C125.555 169.086 128.561 166.732 128.561 163.828C128.561 160.925 125.555 158.571 121.847 158.571C118.139 158.571 115.133 160.925 115.133 163.828C115.133 166.732 118.139 169.086 121.847 169.086Z" fill="white"/>
</g>
</g>
<defs>
<clipPath id="clip0_3695_36860">
<rect width="320" height="240" fill="white"/>
</clipPath>
<clipPath id="clip1_3695_36860">
<rect width="312.972" height="288.954" fill="white" transform="translate(3.51404)"/>
</clipPath>
</defs>
</svg>
