<svg width="512" height="333" viewBox="0 0 512 333" fill="none" xmlns="http://www.w3.org/2000/svg">
<rect y="0.5" width="512" height="332" rx="24" fill="white"/>
<rect x="16" y="16.5" width="480" height="300" rx="16" fill="#021A38"/>
<path d="M103.634 110.636H106.402V108.22C106.402 107.532 106.45 106.46 106.482 105.756H106.418C106.13 106.396 105.81 107.052 105.474 107.692L103.634 110.636ZM106.402 115.5V112.428H101.346V110.828L105.762 103.644H108.594V110.636H109.986V112.428H108.594V115.5H106.402ZM120.74 107.352V108.808H111.822V104.16H120.67V105.63H113.656V107.352H120.74ZM116.19 115.304C117.912 115.304 118.794 115.01 118.794 114.338C118.794 113.666 117.912 113.358 116.19 113.358C114.468 113.358 113.586 113.666 113.586 114.338C113.586 115.01 114.468 115.304 116.19 115.304ZM116.19 111.958C118.976 111.958 120.67 112.812 120.67 114.338C120.67 115.85 118.976 116.704 116.19 116.704C113.404 116.704 111.724 115.85 111.724 114.338C111.724 112.812 113.404 111.958 116.19 111.958ZM110.408 109.704H122.07V111.216H110.408V109.704ZM131.141 115.08V113.918H125.933V115.08H131.141ZM131.141 112.49V111.146H132.989V116.564H124.099V111.146H125.933V112.49H131.141ZM132.737 108.836H134.389V110.32H122.713V108.836H130.903C131.155 107.618 131.197 106.652 131.197 105.798H124.155V104.328H133.017V105.364C133.017 106.372 133.017 107.394 132.737 108.836Z" fill="white"/>
<path opacity="0.2" d="M118 204.5C138.987 204.5 156 187.487 156 166.5C156 145.513 138.987 128.5 118 128.5C97.0132 128.5 80 145.513 80 166.5C80 187.487 97.0132 204.5 118 204.5Z" fill="#D6AA85"/>
<path d="M121.837 142.717C123.678 143.041 125.148 144.36 125.672 146.144L128.377 155.394L137.533 158.412C139.301 158.993 140.57 160.509 140.83 162.358C141.09 164.207 140.291 165.999 138.745 167.055L130.782 172.473L130.741 182.103C130.74 183.534 130.101 184.89 129 185.802C127.887 186.73 126.44 187.126 125.023 186.876C124.255 186.74 123.514 186.405 122.883 185.922L115.257 180.033L106.085 182.96C105.327 183.198 104.516 183.26 103.748 183.124C102.331 182.875 101.107 182.008 100.378 180.755C99.656 179.522 99.519 178.029 100.007 176.684L103.262 167.62L97.6322 159.806C96.5417 158.285 96.4029 156.327 97.2799 154.679C98.1569 153.03 99.8671 152.04 101.727 152.099L111.363 152.394L117.07 144.627C118.171 143.13 120.004 142.394 121.837 142.717Z" fill="#CD9D6F"/>
<path d="M135.14 157.623L128.378 155.394L125.672 146.144C125.149 144.36 123.678 143.041 121.837 142.717C120.005 142.393 118.172 143.13 117.07 144.627L111.364 152.394L101.728 152.099C99.8673 152.04 98.1571 153.03 97.2802 154.679C96.4032 156.327 96.542 158.285 97.6324 159.806L103.262 167.62L101.626 172.176L135.14 157.623Z" fill="#D6AA85"/>
<path d="M140.576 164.705C140.537 164.811 140.487 164.912 140.441 165.015C140.367 165.179 140.287 165.34 140.195 165.495C140.115 165.629 140.025 165.756 139.933 165.882C139.825 166.031 139.714 166.178 139.588 166.314C139.534 166.373 139.48 166.431 139.423 166.487C139.215 166.692 138.993 166.886 138.746 167.056L130.783 172.473L130.32 175.098L138.283 169.68C138.531 169.51 138.752 169.316 138.96 169.112C139.018 169.055 139.071 168.997 139.126 168.938C139.185 168.874 139.252 168.815 139.308 168.747C139.37 168.672 139.413 168.585 139.47 168.507C139.563 168.38 139.652 168.253 139.732 168.119C139.764 168.064 139.809 168.016 139.839 167.96C139.895 167.857 139.931 167.746 139.978 167.639C140.025 167.536 140.074 167.436 140.113 167.329C140.129 167.287 140.153 167.247 140.167 167.204C140.243 166.979 140.301 166.749 140.343 166.513L140.806 163.889C140.756 164.169 140.673 164.44 140.576 164.705Z" fill="#C2905B"/>
<path d="M103.262 167.62L97.6323 159.806C96.8484 158.712 96.5563 157.393 96.7798 156.126L96.317 158.75C96.0935 160.018 96.3857 161.337 97.1696 162.43L102.8 170.245L103.262 167.62Z" fill="#D39E72"/>
<path d="M130.309 184.048C130.25 184.18 130.196 184.314 130.125 184.44C130.013 184.641 129.879 184.83 129.739 185.013C129.697 185.068 129.664 185.129 129.62 185.182C129.433 185.405 129.227 185.614 129 185.802C127.887 186.73 126.44 187.126 125.023 186.876C124.256 186.74 123.514 186.405 122.883 185.922L115.257 180.033L106.086 182.96C105.327 183.198 104.516 183.26 103.749 183.125C102.332 182.875 101.107 182.008 100.379 180.755C99.7979 179.764 99.5954 178.605 99.7921 177.49L99.3293 180.114C99.1327 181.229 99.3351 182.388 99.9159 183.38C100.644 184.633 101.869 185.499 103.286 185.749C104.053 185.884 104.864 185.823 105.623 185.585L114.794 182.657L122.42 188.547C123.052 189.03 123.793 189.365 124.56 189.5C125.977 189.75 127.424 189.355 128.537 188.426C128.764 188.238 128.97 188.03 129.157 187.807C129.161 187.801 129.168 187.797 129.172 187.791C129.213 187.743 129.24 187.685 129.278 187.635C129.418 187.452 129.551 187.265 129.663 187.065C129.674 187.045 129.69 187.028 129.701 187.008C129.759 186.9 129.797 186.782 129.847 186.67C129.9 186.551 129.96 186.435 130.003 186.311C130.01 186.29 130.022 186.271 130.03 186.25C130.105 186.025 130.164 185.794 130.205 185.558L130.668 182.934C130.623 183.191 130.552 183.442 130.466 183.687C130.422 183.811 130.363 183.928 130.309 184.048Z" fill="#C2905B"/>
<path d="M121.218 146.227C121.722 146.316 122.108 146.659 122.251 147.144L124.956 156.395L125.482 158.193L127.262 158.779L136.42 161.798C136.901 161.956 137.23 162.351 137.301 162.854C137.372 163.359 137.165 163.818 136.741 164.108L128.777 169.526L127.226 170.581L127.218 172.457L127.177 182.1C127.176 182.471 127.012 182.82 126.717 183.065C126.408 183.322 126.016 183.432 125.642 183.366C125.448 183.331 125.232 183.231 125.061 183.101L117.435 177.212L115.955 176.068L114.173 176.637L105.018 179.56C104.798 179.629 104.561 179.649 104.367 179.614C103.993 179.548 103.662 179.311 103.454 178.954C103.266 178.633 103.231 178.249 103.362 177.889L106.617 168.825L107.251 167.059L106.154 165.537L100.529 157.729C100.225 157.304 100.187 156.803 100.427 156.353C100.666 155.904 101.11 155.645 101.618 155.661L111.254 155.957L113.127 156.014L114.236 154.504L119.941 146.739C120.242 146.33 120.719 146.139 121.218 146.227ZM121.837 142.717C120.004 142.393 118.171 143.13 117.07 144.627L111.363 152.394L101.727 152.098C99.8671 152.04 98.1569 153.03 97.2799 154.679C96.4029 156.327 96.5417 158.285 97.6322 159.806L103.262 167.62L100.007 176.684C99.519 178.029 99.656 179.522 100.378 180.755C101.107 182.008 102.331 182.875 103.748 183.125C104.516 183.26 105.327 183.198 106.085 182.96L115.257 180.033L122.883 185.922C123.514 186.405 124.255 186.74 125.023 186.876C126.44 187.126 127.887 186.73 129 185.802C130.1 184.89 130.74 183.534 130.741 182.103L130.782 172.473L138.745 167.055C140.29 165.999 141.09 164.207 140.83 162.358C140.57 160.509 139.301 158.993 137.533 158.412L128.377 155.394L125.671 146.144C125.148 144.36 123.678 143.041 121.837 142.717Z" fill="#E4AC79"/>
<path d="M106.113 170.228L106.617 168.825L107.251 167.059L106.154 165.537L100.529 157.729C100.225 157.304 100.187 156.803 100.427 156.353C100.666 155.904 101.11 155.645 101.618 155.661L111.254 155.957L113.127 156.014L114.236 154.504L119.941 146.739C120.242 146.33 120.719 146.139 121.218 146.227C121.722 146.316 122.109 146.659 122.251 147.144L124.957 156.395L125.483 158.193L127.262 158.779L130.227 159.757L135.14 157.623L128.378 155.394L125.672 146.144C125.149 144.36 123.678 143.041 121.837 142.717C120.005 142.393 118.172 143.13 117.07 144.627L111.364 152.394L101.728 152.098C99.8674 152.04 98.1571 153.03 97.2802 154.679C96.4032 156.327 96.542 158.285 97.6324 159.806L103.262 167.62L101.626 172.176L106.113 170.228Z" fill="#EBB88B"/>
<path opacity="0.1" d="M90.1462 166.5C90.1462 154.783 97.3806 144.756 107.626 140.642" stroke="white" stroke-width="7.98" stroke-linecap="round" stroke-linejoin="round"/>
<path opacity="0.1" d="M93.3546 179.49C92.9854 178.791 92.6451 178.074 92.3352 177.342" stroke="white" stroke-width="7.98" stroke-linecap="round" stroke-linejoin="round"/>
<path d="M98.6186 231.708C96.3786 231.708 94.9546 229.676 94.9546 225.596C94.9546 221.516 96.3786 219.548 98.6186 219.548C100.843 219.548 102.267 221.532 102.267 225.596C102.267 229.676 100.843 231.708 98.6186 231.708ZM98.6186 230.54C99.9466 230.54 100.843 229.052 100.843 225.596C100.843 222.172 99.9466 220.716 98.6186 220.716C97.2746 220.716 96.3786 222.172 96.3786 225.596C96.3786 229.052 97.2746 230.54 98.6186 230.54ZM108.422 226.908C107.014 226.908 106.246 225.388 105.238 225.388C104.726 225.388 104.278 225.708 103.862 226.476L103.046 225.9C103.702 224.78 104.502 224.3 105.286 224.3C106.694 224.3 107.446 225.804 108.454 225.804C108.966 225.804 109.414 225.484 109.814 224.716L110.646 225.308C109.99 226.428 109.19 226.908 108.422 226.908ZM115.329 225.308C114.593 225.308 113.649 225.74 112.929 226.812C113.105 229.244 113.985 230.572 115.457 230.572C116.577 230.572 117.457 229.5 117.457 227.9C117.457 226.316 116.753 225.308 115.329 225.308ZM115.457 231.708C113.201 231.708 111.537 229.772 111.537 225.9C111.537 221.308 113.601 219.548 115.873 219.548C117.089 219.548 117.969 220.06 118.609 220.748L117.809 221.66C117.345 221.1 116.641 220.764 115.921 220.764C114.321 220.764 112.961 221.996 112.897 225.644C113.617 224.764 114.641 224.22 115.569 224.22C117.553 224.22 118.817 225.452 118.817 227.9C118.817 230.172 117.281 231.708 115.457 231.708ZM120.716 227.1H124.316V223.5C124.316 222.924 124.364 221.98 124.396 221.372H124.332C124.044 221.948 123.724 222.524 123.388 223.1L120.716 227.1ZM124.316 231.5V228.268H119.196V227.308L124.076 219.756H125.692V227.1H127.244V228.268H125.692V231.5H124.316ZM136.423 225.244L135.767 226.268C134.167 225.692 132.935 224.492 132.311 223.02C131.687 224.668 130.375 225.98 128.695 226.588L128.007 225.564C130.135 224.796 131.623 222.892 131.623 220.86V220.316H128.423V219.244H136.087V220.316H132.935V220.844C132.935 222.716 134.343 224.508 136.423 225.244ZM131.735 228.476V231.436H138.503V228.476H131.735ZM130.455 232.492V227.436H139.783V232.492H130.455ZM138.455 218.332H139.783V226.732H138.455V223.02H135.623V221.932H138.455V218.332Z" fill="white"/>
<path d="M197.394 115.724C195.522 115.724 194.258 115.02 193.426 114.076L194.53 112.588C195.234 113.276 196.098 113.804 197.17 113.804C198.37 113.804 199.186 113.212 199.186 112.14C199.186 110.988 198.498 110.252 195.922 110.252V108.572C198.098 108.572 198.802 107.82 198.802 106.764C198.802 105.836 198.226 105.292 197.218 105.292C196.37 105.292 195.682 105.676 194.978 106.332L193.778 104.892C194.802 103.996 195.938 103.436 197.33 103.436C199.618 103.436 201.17 104.572 201.17 106.588C201.17 107.868 200.45 108.796 199.202 109.292V109.372C200.53 109.74 201.554 110.732 201.554 112.284C201.554 114.46 199.65 115.724 197.394 115.724ZM212.74 107.352V108.808H203.822V104.16H212.67V105.63H205.656V107.352H212.74ZM208.19 115.304C209.912 115.304 210.794 115.01 210.794 114.338C210.794 113.666 209.912 113.358 208.19 113.358C206.468 113.358 205.586 113.666 205.586 114.338C205.586 115.01 206.468 115.304 208.19 115.304ZM208.19 111.958C210.976 111.958 212.67 112.812 212.67 114.338C212.67 115.85 210.976 116.704 208.19 116.704C205.404 116.704 203.724 115.85 203.724 114.338C203.724 112.812 205.404 111.958 208.19 111.958ZM202.408 109.704H214.07V111.216H202.408V109.704ZM223.141 115.08V113.918H217.933V115.08H223.141ZM223.141 112.49V111.146H224.989V116.564H216.099V111.146H217.933V112.49H223.141ZM224.737 108.836H226.389V110.32H214.713V108.836H222.903C223.155 107.618 223.197 106.652 223.197 105.798H216.155V104.328H225.017V105.364C225.017 106.372 225.017 107.394 224.737 108.836Z" fill="white"/>
<path opacity="0.2" d="M210 204.5C230.987 204.5 248 187.487 248 166.5C248 145.513 230.987 128.5 210 128.5C189.013 128.5 172 145.513 172 166.5C172 187.487 189.013 204.5 210 204.5Z" fill="#D2E0EB"/>
<path d="M213.913 142.267C215.792 142.598 217.292 143.943 217.825 145.763L220.585 155.198L229.924 158.277C231.728 158.87 233.022 160.415 233.287 162.301C233.553 164.187 232.737 166.015 231.161 167.093L223.038 172.619L222.996 182.442C222.995 183.902 222.343 185.285 221.22 186.215C220.085 187.162 218.609 187.565 217.163 187.31C216.381 187.172 215.624 186.83 214.98 186.338L207.202 180.33L197.847 183.316C197.073 183.559 196.246 183.622 195.463 183.484C194.018 183.229 192.768 182.345 192.026 181.067C191.289 179.809 191.149 178.287 191.647 176.915L194.967 167.669L189.224 159.698C188.112 158.147 187.97 156.15 188.865 154.469C189.759 152.787 191.504 151.777 193.401 151.837L203.23 152.138L209.051 144.216C210.175 142.688 212.044 141.937 213.913 142.267Z" fill="#C3D1DE"/>
<path d="M227.483 157.472L220.585 155.198L217.825 145.763C217.292 143.943 215.792 142.598 213.914 142.267C212.045 141.937 210.175 142.688 209.051 144.216L203.231 152.138L193.402 151.837C191.504 151.777 189.76 152.787 188.865 154.469C187.971 156.15 188.112 158.147 189.224 159.699L194.967 167.669L193.298 172.317L227.483 157.472Z" fill="#D2E0EB"/>
<path d="M233.027 164.696C232.988 164.804 232.938 164.907 232.89 165.012C232.815 165.179 232.733 165.343 232.639 165.501C232.558 165.638 232.466 165.768 232.372 165.897C232.261 166.048 232.149 166.198 232.021 166.337C231.965 166.396 231.91 166.456 231.852 166.513C231.64 166.722 231.414 166.92 231.161 167.093L223.038 172.619L222.566 175.296L230.689 169.77C230.942 169.597 231.167 169.399 231.38 169.19C231.438 169.133 231.493 169.074 231.548 169.014C231.609 168.948 231.678 168.887 231.734 168.819C231.798 168.742 231.842 168.653 231.9 168.573C231.995 168.444 232.086 168.315 232.167 168.178C232.2 168.122 232.245 168.073 232.276 168.016C232.333 167.911 232.37 167.797 232.418 167.688C232.466 167.583 232.516 167.481 232.556 167.372C232.572 167.329 232.596 167.289 232.611 167.244C232.688 167.015 232.748 166.78 232.79 166.54L233.262 163.863C233.212 164.149 233.127 164.425 233.027 164.696Z" fill="#A9BFD4"/>
<path d="M194.967 167.67L189.225 159.699C188.425 158.583 188.127 157.238 188.355 155.945L187.883 158.622C187.655 159.915 187.953 161.26 188.753 162.376L194.495 170.346L194.967 167.67Z" fill="#CED8E1"/>
<path d="M222.556 184.425C222.496 184.56 222.44 184.697 222.368 184.826C222.254 185.031 222.117 185.223 221.974 185.411C221.931 185.467 221.898 185.529 221.853 185.583C221.662 185.81 221.452 186.023 221.22 186.215C220.085 187.162 218.609 187.565 217.164 187.31C216.381 187.172 215.625 186.83 214.981 186.338L207.202 180.33L197.847 183.317C197.073 183.559 196.246 183.622 195.463 183.484C194.018 183.229 192.769 182.345 192.026 181.067C191.433 180.056 191.227 178.874 191.428 177.736L190.956 180.413C190.755 181.55 190.961 182.733 191.554 183.744C192.297 185.022 193.546 185.906 194.991 186.161C195.774 186.299 196.601 186.236 197.375 185.993L206.73 183.007L214.509 189.014C215.153 189.507 215.909 189.849 216.691 189.987C218.137 190.242 219.613 189.839 220.748 188.892C220.98 188.7 221.19 188.487 221.38 188.26C221.385 188.254 221.391 188.25 221.396 188.244C221.437 188.194 221.465 188.135 221.504 188.084C221.646 187.898 221.782 187.707 221.896 187.503C221.907 187.483 221.924 187.465 221.935 187.445C221.995 187.335 222.034 187.215 222.085 187.1C222.139 186.979 222.199 186.861 222.243 186.735C222.251 186.713 222.263 186.693 222.271 186.672C222.347 186.442 222.408 186.206 222.45 185.966L222.922 183.289C222.876 183.552 222.803 183.807 222.716 184.057C222.671 184.184 222.61 184.303 222.556 184.425Z" fill="#A9BFD4"/>
<path d="M213.282 145.847C213.797 145.938 214.191 146.289 214.336 146.784L217.096 156.219L217.632 158.053L219.447 158.651L228.789 161.73C229.279 161.892 229.615 162.294 229.687 162.808C229.76 163.323 229.549 163.791 229.116 164.087L220.993 169.613L219.411 170.689L219.403 172.603L219.361 182.439C219.36 182.818 219.193 183.174 218.891 183.423C218.577 183.686 218.177 183.797 217.795 183.73C217.597 183.695 217.377 183.593 217.203 183.46L209.424 177.453L207.914 176.287L206.096 176.867L196.759 179.848C196.534 179.918 196.292 179.939 196.095 179.904C195.712 179.836 195.375 179.594 195.163 179.23C194.971 178.903 194.935 178.511 195.069 178.143L198.389 168.898L199.036 167.097L197.917 165.544L192.179 157.58C191.869 157.147 191.831 156.635 192.075 156.176C192.319 155.718 192.772 155.454 193.29 155.471L203.119 155.772L205.029 155.831L206.161 154.291L211.98 146.37C212.287 145.953 212.774 145.758 213.282 145.847ZM213.914 142.267C212.045 141.937 210.175 142.688 209.051 144.216L203.231 152.138L193.402 151.837C191.504 151.777 189.76 152.787 188.865 154.468C187.971 156.15 188.112 158.147 189.225 159.698L194.967 167.669L191.647 176.915C191.149 178.287 191.289 179.809 192.026 181.067C192.769 182.345 194.018 183.229 195.463 183.484C196.246 183.622 197.073 183.559 197.847 183.317L207.202 180.33L214.981 186.338C215.625 186.83 216.381 187.172 217.163 187.31C218.609 187.565 220.085 187.162 221.22 186.215C222.343 185.285 222.995 183.902 222.996 182.442L223.038 172.619L231.161 167.093C232.737 166.015 233.553 164.187 233.288 162.301C233.022 160.415 231.728 158.87 229.925 158.277L220.585 155.198L217.825 145.763C217.292 143.943 215.792 142.598 213.914 142.267Z" fill="#D6E2EE"/>
<path d="M197.875 170.329L198.389 168.898L199.036 167.097L197.917 165.544L192.179 157.58C191.869 157.147 191.831 156.635 192.075 156.176C192.319 155.718 192.772 155.454 193.29 155.471L203.119 155.772L205.029 155.831L206.161 154.291L211.98 146.37C212.287 145.953 212.774 145.758 213.282 145.847C213.797 145.938 214.191 146.289 214.336 146.783L217.096 156.219L217.632 158.053L219.447 158.651L222.472 159.648L227.483 157.472L220.585 155.198L217.825 145.763C217.292 143.943 215.792 142.598 213.914 142.267C212.045 141.937 210.175 142.688 209.051 144.216L203.231 152.138L193.402 151.837C191.504 151.777 189.76 152.787 188.865 154.468C187.971 156.15 188.112 158.147 189.224 159.698L194.967 167.669L193.298 172.317L197.875 170.329Z" fill="#E4EBF1"/>
<path opacity="0.1" d="M182.146 166.5C182.146 154.783 189.381 144.756 199.626 140.642" stroke="white" stroke-width="7.98" stroke-linecap="round" stroke-linejoin="round"/>
<path opacity="0.1" d="M185.355 179.49C184.985 178.791 184.645 178.074 184.335 177.342" stroke="white" stroke-width="7.98" stroke-linecap="round" stroke-linejoin="round"/>
<path d="M186.741 225.308C186.005 225.308 185.061 225.74 184.341 226.812C184.517 229.244 185.397 230.572 186.869 230.572C187.989 230.572 188.869 229.5 188.869 227.9C188.869 226.316 188.165 225.308 186.741 225.308ZM186.869 231.708C184.613 231.708 182.949 229.772 182.949 225.9C182.949 221.308 185.013 219.548 187.285 219.548C188.501 219.548 189.381 220.06 190.021 220.748L189.221 221.66C188.757 221.1 188.053 220.764 187.333 220.764C185.733 220.764 184.373 221.996 184.309 225.644C185.029 224.764 186.053 224.22 186.981 224.22C188.965 224.22 190.229 225.452 190.229 227.9C190.229 230.172 188.693 231.708 186.869 231.708ZM194.464 231.708C192.64 231.708 191.52 230.94 190.736 230.156L191.456 229.196C192.128 229.868 192.976 230.492 194.336 230.492C195.712 230.492 196.832 229.436 196.832 227.724C196.832 226.044 195.872 225.052 194.4 225.052C193.616 225.052 193.12 225.292 192.448 225.74L191.664 225.26L192.032 219.756H197.744V221.02H193.312L193.024 224.412C193.552 224.124 194.064 223.948 194.768 223.948C196.72 223.948 198.304 225.1 198.304 227.676C198.304 230.252 196.448 231.708 194.464 231.708ZM204.539 226.908C203.131 226.908 202.363 225.388 201.355 225.388C200.843 225.388 200.395 225.708 199.979 226.476L199.163 225.9C199.819 224.78 200.619 224.3 201.403 224.3C202.811 224.3 203.563 225.804 204.571 225.804C205.083 225.804 205.531 225.484 205.931 224.716L206.763 225.308C206.107 226.428 205.307 226.908 204.539 226.908ZM211.222 231.708C209.062 231.708 207.478 230.396 207.478 228.588C207.478 227.02 208.566 225.932 209.638 225.356V225.276C208.774 224.684 208.054 223.804 208.054 222.572C208.054 220.78 209.446 219.596 211.27 219.596C213.27 219.596 214.486 220.876 214.486 222.684C214.486 223.916 213.622 224.972 212.918 225.516V225.596C213.942 226.188 214.902 227.068 214.902 228.668C214.902 230.38 213.43 231.708 211.222 231.708ZM212.022 225.132C212.822 224.428 213.238 223.628 213.238 222.764C213.238 221.612 212.518 220.668 211.254 220.668C210.166 220.668 209.382 221.436 209.382 222.572C209.382 223.98 210.646 224.588 212.022 225.132ZM211.254 230.62C212.598 230.62 213.51 229.804 213.51 228.636C213.51 227.068 212.07 226.476 210.406 225.804C209.462 226.412 208.806 227.34 208.806 228.46C208.806 229.708 209.846 230.62 211.254 230.62ZM216.833 227.1H220.433V223.5C220.433 222.924 220.481 221.98 220.513 221.372H220.449C220.161 221.948 219.841 222.524 219.505 223.1L216.833 227.1ZM220.433 231.5V228.268H215.313V227.308L220.193 219.756H221.809V227.1H223.361V228.268H221.809V231.5H220.433ZM232.54 225.244L231.884 226.268C230.284 225.692 229.052 224.492 228.428 223.02C227.804 224.668 226.492 225.98 224.812 226.588L224.124 225.564C226.252 224.796 227.74 222.892 227.74 220.86V220.316H224.54V219.244H232.204V220.316H229.052V220.844C229.052 222.716 230.46 224.508 232.54 225.244ZM227.852 228.476V231.436H234.62V228.476H227.852ZM226.572 232.492V227.436H235.9V232.492H226.572ZM234.572 218.332H235.9V226.732H234.572V223.02H231.74V221.932H234.572V218.332Z" fill="white"/>
<path d="M285.698 115.5V114.14C288.914 111.26 290.818 109.036 290.818 107.212C290.818 106.012 290.178 105.292 289.042 105.292C288.178 105.292 287.474 105.852 286.866 106.508L285.586 105.228C286.674 104.06 287.73 103.436 289.346 103.436C291.586 103.436 293.074 104.876 293.074 107.084C293.074 109.228 291.298 111.532 289.138 113.644C289.73 113.58 290.514 113.516 291.074 113.516H293.634V115.5H285.698ZM304.74 107.352V108.808H295.822V104.16H304.67V105.63H297.656V107.352H304.74ZM300.19 115.304C301.912 115.304 302.794 115.01 302.794 114.338C302.794 113.666 301.912 113.358 300.19 113.358C298.468 113.358 297.586 113.666 297.586 114.338C297.586 115.01 298.468 115.304 300.19 115.304ZM300.19 111.958C302.976 111.958 304.67 112.812 304.67 114.338C304.67 115.85 302.976 116.704 300.19 116.704C297.404 116.704 295.724 115.85 295.724 114.338C295.724 112.812 297.404 111.958 300.19 111.958ZM294.408 109.704H306.07V111.216H294.408V109.704ZM315.141 115.08V113.918H309.933V115.08H315.141ZM315.141 112.49V111.146H316.989V116.564H308.099V111.146H309.933V112.49H315.141ZM316.737 108.836H318.389V110.32H306.713V108.836H314.903C315.155 107.618 315.197 106.652 315.197 105.798H308.155V104.328H317.017V105.364C317.017 106.372 317.017 107.394 316.737 108.836Z" fill="white"/>
<path d="M305.914 142.267C307.792 142.598 309.292 143.943 309.825 145.763L312.585 155.198L321.925 158.277C323.728 158.87 325.022 160.415 325.288 162.301C325.553 164.187 324.737 166.015 323.161 167.093L315.038 172.619L314.996 182.442C314.995 183.902 314.343 185.285 313.22 186.215C312.085 187.162 310.609 187.565 309.163 187.31C308.381 187.172 307.625 186.83 306.981 186.338L299.202 180.33L289.847 183.316C289.073 183.559 288.246 183.622 287.463 183.484C286.018 183.229 284.769 182.345 284.026 181.067C283.289 179.809 283.149 178.287 283.647 176.915L286.967 167.669L281.224 159.698C280.112 158.147 279.971 156.15 280.865 154.469C281.76 152.787 283.504 151.777 285.402 151.837L295.231 152.138L301.051 144.216C302.175 142.688 304.045 141.937 305.914 142.267Z" fill="#FFC702"/>
<path d="M319.483 157.472L312.585 155.198L309.825 145.763C309.292 143.943 307.792 142.598 305.914 142.267C304.045 141.937 302.175 142.688 301.051 144.216L295.231 152.138L285.402 151.837C283.504 151.777 281.76 152.787 280.865 154.469C279.971 156.15 280.112 158.147 281.224 159.699L286.967 167.669L285.298 172.317L319.483 157.472Z" fill="#FFD240"/>
<path d="M325.028 164.696C324.988 164.804 324.938 164.907 324.89 165.012C324.815 165.179 324.733 165.343 324.639 165.501C324.558 165.638 324.466 165.768 324.372 165.897C324.261 166.048 324.149 166.198 324.021 166.337C323.965 166.396 323.91 166.456 323.852 166.513C323.64 166.722 323.414 166.92 323.161 167.093L315.038 172.619L314.566 175.296L322.689 169.77C322.942 169.597 323.167 169.399 323.38 169.19C323.438 169.133 323.493 169.074 323.548 169.014C323.609 168.948 323.678 168.887 323.734 168.819C323.798 168.742 323.842 168.653 323.9 168.573C323.995 168.444 324.086 168.315 324.167 168.178C324.2 168.122 324.246 168.073 324.276 168.016C324.333 167.911 324.37 167.797 324.418 167.688C324.466 167.583 324.516 167.481 324.556 167.372C324.572 167.329 324.596 167.289 324.611 167.244C324.688 167.015 324.748 166.78 324.79 166.54L325.262 163.863C325.212 164.149 325.127 164.425 325.028 164.696Z" fill="#FFC207"/>
<path d="M286.967 167.67L281.225 159.699C280.425 158.583 280.127 157.238 280.355 155.945L279.883 158.622C279.655 159.915 279.953 161.26 280.753 162.376L286.495 170.346L286.967 167.67Z" fill="#FFD35A"/>
<path d="M314.556 184.425C314.496 184.56 314.44 184.697 314.368 184.826C314.254 185.031 314.117 185.223 313.974 185.411C313.931 185.467 313.898 185.529 313.853 185.583C313.662 185.81 313.452 186.023 313.22 186.215C312.085 187.162 310.609 187.565 309.164 187.31C308.381 187.172 307.625 186.83 306.981 186.338L299.202 180.33L289.847 183.317C289.073 183.559 288.246 183.622 287.463 183.484C286.018 183.229 284.769 182.345 284.026 181.067C283.434 180.056 283.227 178.874 283.428 177.736L282.956 180.413C282.755 181.55 282.962 182.733 283.554 183.744C284.297 185.022 285.546 185.906 286.991 186.161C287.774 186.299 288.601 186.236 289.375 185.993L298.73 183.007L306.509 189.014C307.153 189.507 307.909 189.849 308.691 189.987C310.137 190.242 311.613 189.839 312.748 188.892C312.98 188.7 313.19 188.487 313.38 188.26C313.385 188.254 313.391 188.25 313.396 188.244C313.437 188.194 313.465 188.135 313.504 188.084C313.646 187.898 313.782 187.707 313.896 187.503C313.907 187.483 313.924 187.465 313.935 187.445C313.995 187.335 314.034 187.215 314.085 187.1C314.139 186.979 314.199 186.861 314.243 186.735C314.251 186.713 314.263 186.693 314.271 186.672C314.347 186.442 314.408 186.206 314.45 185.966L314.922 183.289C314.876 183.552 314.803 183.807 314.716 184.057C314.671 184.184 314.61 184.303 314.556 184.425Z" fill="#FFC207"/>
<path d="M305.282 145.847C305.797 145.938 306.191 146.289 306.336 146.784L309.096 156.219L309.632 158.053L311.447 158.651L320.789 161.73C321.279 161.892 321.615 162.294 321.687 162.808C321.76 163.323 321.549 163.791 321.116 164.087L312.993 169.613L311.411 170.689L311.403 172.603L311.361 182.439C311.36 182.818 311.193 183.174 310.891 183.423C310.577 183.686 310.177 183.797 309.795 183.73C309.597 183.695 309.377 183.593 309.203 183.46L301.424 177.453L299.914 176.287L298.096 176.867L288.759 179.848C288.534 179.918 288.292 179.939 288.095 179.904C287.712 179.836 287.375 179.594 287.163 179.23C286.971 178.903 286.935 178.511 287.069 178.143L290.389 168.898L291.036 167.097L289.917 165.544L284.179 157.58C283.869 157.147 283.831 156.635 284.075 156.176C284.319 155.718 284.772 155.454 285.29 155.471L295.119 155.772L297.029 155.831L298.161 154.291L303.98 146.37C304.287 145.953 304.774 145.758 305.282 145.847ZM305.914 142.267C304.045 141.937 302.175 142.688 301.051 144.216L295.231 152.138L285.402 151.837C283.504 151.777 281.76 152.787 280.865 154.468C279.971 156.15 280.112 158.147 281.225 159.698L286.967 167.669L283.647 176.915C283.149 178.287 283.289 179.809 284.026 181.067C284.769 182.345 286.018 183.229 287.463 183.484C288.246 183.622 289.073 183.559 289.847 183.317L299.202 180.33L306.981 186.338C307.625 186.83 308.381 187.172 309.163 187.31C310.609 187.565 312.085 187.162 313.22 186.215C314.343 185.285 314.995 183.902 314.996 182.442L315.039 172.619L323.161 167.093C324.737 166.015 325.553 164.187 325.288 162.301C325.022 160.415 323.728 158.87 321.925 158.277L312.585 155.198L309.825 145.763C309.292 143.943 307.792 142.598 305.914 142.267Z" fill="#FFDC34"/>
<path d="M289.875 170.329L290.389 168.898L291.036 167.097L289.917 165.544L284.179 157.58C283.869 157.147 283.831 156.635 284.075 156.176C284.319 155.718 284.772 155.454 285.29 155.471L295.119 155.772L297.029 155.831L298.161 154.291L303.98 146.37C304.287 145.953 304.774 145.758 305.282 145.847C305.797 145.938 306.191 146.289 306.336 146.783L309.096 156.219L309.632 158.053L311.447 158.651L314.472 159.648L319.483 157.472L312.585 155.198L309.825 145.763C309.292 143.943 307.792 142.598 305.914 142.267C304.045 141.937 302.175 142.688 301.051 144.216L295.231 152.138L285.402 151.837C283.504 151.777 281.76 152.787 280.865 154.468C279.971 156.15 280.112 158.147 281.224 159.698L286.967 167.669L285.298 172.317L289.875 170.329Z" fill="#FFEB62"/>
<path opacity="0.2" d="M302 204.5C322.987 204.5 340 187.487 340 166.5C340 145.513 322.987 128.5 302 128.5C281.013 128.5 264 145.513 264 166.5C264 187.487 281.013 204.5 302 204.5Z" fill="#FFD240"/>
<path opacity="0.1" d="M274.146 166.5C274.146 154.783 281.381 144.756 291.626 140.642" stroke="white" stroke-width="7.98" stroke-linecap="round" stroke-linejoin="round"/>
<path opacity="0.1" d="M277.355 179.49C276.986 178.791 276.645 178.074 276.335 177.342" stroke="white" stroke-width="7.98" stroke-linecap="round" stroke-linejoin="round"/>
<path d="M278.517 231.708C276.357 231.708 274.773 230.396 274.773 228.588C274.773 227.02 275.861 225.932 276.933 225.356V225.276C276.069 224.684 275.349 223.804 275.349 222.572C275.349 220.78 276.741 219.596 278.565 219.596C280.565 219.596 281.781 220.876 281.781 222.684C281.781 223.916 280.917 224.972 280.213 225.516V225.596C281.237 226.188 282.197 227.068 282.197 228.668C282.197 230.38 280.725 231.708 278.517 231.708ZM279.317 225.132C280.117 224.428 280.533 223.628 280.533 222.764C280.533 221.612 279.813 220.668 278.549 220.668C277.461 220.668 276.677 221.436 276.677 222.572C276.677 223.98 277.941 224.588 279.317 225.132ZM278.549 230.62C279.893 230.62 280.805 229.804 280.805 228.636C280.805 227.068 279.365 226.476 277.701 225.804C276.757 226.412 276.101 227.34 276.101 228.46C276.101 229.708 277.141 230.62 278.549 230.62ZM286.464 231.708C284.64 231.708 283.52 230.94 282.736 230.156L283.456 229.196C284.128 229.868 284.976 230.492 286.336 230.492C287.712 230.492 288.832 229.436 288.832 227.724C288.832 226.044 287.872 225.052 286.4 225.052C285.616 225.052 285.12 225.292 284.448 225.74L283.664 225.26L284.032 219.756H289.744V221.02H285.312L285.024 224.412C285.552 224.124 286.064 223.948 286.768 223.948C288.72 223.948 290.304 225.1 290.304 227.676C290.304 230.252 288.448 231.708 286.464 231.708ZM296.539 226.908C295.131 226.908 294.363 225.388 293.355 225.388C292.843 225.388 292.395 225.708 291.979 226.476L291.163 225.9C291.819 224.78 292.619 224.3 293.403 224.3C294.811 224.3 295.563 225.804 296.571 225.804C297.083 225.804 297.531 225.484 297.931 224.716L298.763 225.308C298.107 226.428 297.307 226.908 296.539 226.908ZM300.838 223.356C300.838 224.94 301.542 225.964 302.934 225.964C303.734 225.964 304.63 225.5 305.382 224.396C305.222 221.98 304.326 220.7 302.822 220.7C301.702 220.7 300.838 221.756 300.838 223.356ZM302.502 231.708C301.238 231.708 300.342 231.196 299.686 230.508L300.502 229.596C300.982 230.156 301.702 230.492 302.454 230.492C303.974 230.492 305.286 229.244 305.398 225.612C304.678 226.492 303.67 227.052 302.694 227.052C300.742 227.052 299.462 225.788 299.462 223.356C299.462 221.084 300.998 219.548 302.822 219.548C305.078 219.548 306.758 221.404 306.758 225.132C306.758 229.884 304.71 231.708 302.502 231.708ZM308.833 227.1H312.433V223.5C312.433 222.924 312.481 221.98 312.513 221.372H312.449C312.161 221.948 311.841 222.524 311.505 223.1L308.833 227.1ZM312.433 231.5V228.268H307.313V227.308L312.193 219.756H313.809V227.1H315.361V228.268H313.809V231.5H312.433ZM324.54 225.244L323.884 226.268C322.284 225.692 321.052 224.492 320.428 223.02C319.804 224.668 318.492 225.98 316.812 226.588L316.124 225.564C318.252 224.796 319.74 222.892 319.74 220.86V220.316H316.54V219.244H324.204V220.316H321.052V220.844C321.052 222.716 322.46 224.508 324.54 225.244ZM319.852 228.476V231.436H326.62V228.476H319.852ZM318.572 232.492V227.436H327.9V232.492H318.572ZM326.572 218.332H327.9V226.732H326.572V223.02H323.74V221.932H326.572V218.332Z" fill="white"/>
<path d="M378.322 115.5V113.596H380.866V106.108H378.722V104.652C379.906 104.428 380.722 104.124 381.474 103.644H383.218V113.596H385.442V115.5H378.322ZM396.74 107.352V108.808H387.822V104.16H396.67V105.63H389.656V107.352H396.74ZM392.19 115.304C393.912 115.304 394.794 115.01 394.794 114.338C394.794 113.666 393.912 113.358 392.19 113.358C390.468 113.358 389.586 113.666 389.586 114.338C389.586 115.01 390.468 115.304 392.19 115.304ZM392.19 111.958C394.976 111.958 396.67 112.812 396.67 114.338C396.67 115.85 394.976 116.704 392.19 116.704C389.404 116.704 387.724 115.85 387.724 114.338C387.724 112.812 389.404 111.958 392.19 111.958ZM386.408 109.704H398.07V111.216H386.408V109.704ZM407.141 115.08V113.918H401.933V115.08H407.141ZM407.141 112.49V111.146H408.989V116.564H400.099V111.146H401.933V112.49H407.141ZM408.737 108.836H410.389V110.32H398.713V108.836H406.903C407.155 107.618 407.197 106.652 407.197 105.798H400.155V104.328H409.017V105.364C409.017 106.372 409.017 107.394 408.737 108.836Z" fill="white"/>
<path opacity="0.2" d="M394 204.5C414.987 204.5 432 187.487 432 166.5C432 145.513 414.987 128.5 394 128.5C373.013 128.5 356 145.513 356 166.5C356 187.487 373.013 204.5 394 204.5Z" fill="#F5BAFF"/>
<path d="M417.028 164.696C416.988 164.804 416.938 164.907 416.891 165.012C416.815 165.179 416.733 165.343 416.639 165.501C416.558 165.638 416.467 165.768 416.372 165.897C416.262 166.048 416.149 166.198 416.021 166.337C415.966 166.396 415.91 166.456 415.852 166.513C415.64 166.722 415.414 166.92 415.161 167.093L407.039 172.619L406.567 175.296L414.689 169.77C414.942 169.597 415.168 169.399 415.38 169.19C415.439 169.133 415.493 169.074 415.549 169.014C415.61 168.948 415.678 168.887 415.735 168.819C415.798 168.742 415.842 168.653 415.9 168.573C415.995 168.444 416.086 168.315 416.167 168.178C416.2 168.122 416.246 168.073 416.277 168.016C416.333 167.911 416.37 167.797 416.419 167.688C416.466 167.583 416.516 167.481 416.556 167.372C416.572 167.329 416.596 167.289 416.611 167.244C416.688 167.015 416.748 166.78 416.79 166.54L417.262 163.863C417.212 164.149 417.127 164.425 417.028 164.696Z" fill="#C7B0F4"/>
<path d="M378.968 167.67L373.225 159.699C372.425 158.583 372.127 157.238 372.355 155.945L371.883 158.622C371.655 159.915 371.953 161.26 372.753 162.376L378.496 170.346L378.968 167.67Z" fill="#C7B0F4"/>
<path d="M397.914 142.267C399.792 142.598 401.292 143.943 401.826 145.763L404.586 155.198L413.925 158.277C415.728 158.87 417.022 160.415 417.288 162.301C417.553 164.187 416.737 166.015 415.161 167.093L407.039 172.619L406.996 182.442C406.995 183.902 406.343 185.285 405.22 186.215C404.085 187.162 402.609 187.565 401.164 187.31C400.381 187.172 399.625 186.83 398.981 186.338L391.202 180.33L381.847 183.316C381.073 183.559 380.246 183.622 379.463 183.484C378.018 183.229 376.769 182.345 376.026 181.067C375.289 179.809 375.149 178.287 375.648 176.915L378.967 167.669L373.225 159.698C372.112 158.147 371.971 156.15 372.865 154.469C373.76 152.787 375.504 151.777 377.402 151.837L387.231 152.138L393.052 144.216C394.175 142.688 396.045 141.937 397.914 142.267Z" fill="url(#paint0_linear_3861_21739)"/>
<path opacity="0.1" d="M411.484 157.472L404.585 155.198L401.826 145.763C401.292 143.943 399.792 142.598 397.914 142.267C396.045 141.937 394.175 142.688 393.052 144.216L387.231 152.138L377.402 151.837C375.504 151.777 373.76 152.787 372.865 154.469C371.971 156.15 372.112 158.147 373.225 159.699L378.967 167.669L377.299 172.317L411.484 157.472Z" fill="white"/>
<path opacity="0.2" d="M397.283 145.847C397.797 145.938 398.191 146.289 398.336 146.784L401.096 156.219L401.633 158.053L403.447 158.651L412.789 161.73C413.28 161.892 413.615 162.294 413.688 162.808C413.76 163.323 413.549 163.791 413.116 164.087L404.994 169.613L403.411 170.689L403.403 172.603L403.361 182.439C403.36 182.818 403.193 183.174 402.892 183.423C402.577 183.686 402.177 183.797 401.795 183.73C401.597 183.695 401.377 183.593 401.203 183.46L393.424 177.453L391.914 176.287L390.097 176.867L380.759 179.848C380.535 179.918 380.292 179.939 380.095 179.904C379.712 179.836 379.375 179.594 379.163 179.23C378.972 178.903 378.936 178.511 379.069 178.143L382.389 168.898L383.036 167.097L381.917 165.544L376.18 157.58C375.869 157.147 375.831 156.635 376.075 156.176C376.319 155.718 376.772 155.454 377.29 155.471L387.119 155.772L389.029 155.831L390.161 154.291L395.98 146.37C396.287 145.953 396.774 145.758 397.283 145.847ZM397.914 142.267C396.045 141.937 394.175 142.688 393.052 144.216L387.231 152.138L377.402 151.837C375.504 151.777 373.76 152.787 372.865 154.468C371.971 156.15 372.112 158.147 373.225 159.698L378.967 167.669L375.648 176.915C375.149 178.287 375.289 179.809 376.026 181.067C376.769 182.345 378.018 183.229 379.463 183.484C380.246 183.622 381.073 183.559 381.847 183.317L391.202 180.33L398.981 186.338C399.625 186.83 400.381 187.172 401.164 187.31C402.609 187.565 404.085 187.162 405.22 186.215C406.343 185.285 406.995 183.902 406.996 182.442L407.039 172.619L415.161 167.093C416.737 166.015 417.553 164.187 417.288 162.301C417.022 160.415 415.728 158.87 413.925 158.277L404.586 155.198L401.826 145.763C401.292 143.943 399.792 142.598 397.914 142.267Z" fill="white"/>
<path opacity="0.1" d="M381.875 170.329L382.389 168.898L383.036 167.097L381.917 165.544L376.18 157.58C375.869 157.147 375.831 156.635 376.075 156.176C376.319 155.718 376.772 155.454 377.29 155.471L387.119 155.772L389.029 155.831L390.161 154.291L395.98 146.37C396.287 145.953 396.774 145.758 397.283 145.847C397.797 145.938 398.191 146.289 398.336 146.783L401.096 156.219L401.633 158.053L403.447 158.651L406.472 159.648L411.484 157.472L404.585 155.198L401.826 145.763C401.292 143.943 399.792 142.598 397.914 142.267C396.045 141.937 394.175 142.688 393.052 144.216L387.231 152.138L377.402 151.837C375.504 151.777 373.76 152.787 372.865 154.468C371.971 156.15 372.112 158.147 373.225 159.698L378.967 167.669L377.299 172.317L381.875 170.329Z" fill="white"/>
<path d="M406.556 184.425C406.496 184.56 406.44 184.697 406.369 184.826C406.254 185.031 406.117 185.223 405.974 185.411C405.931 185.466 405.898 185.529 405.853 185.583C405.663 185.81 405.452 186.023 405.221 186.215C404.085 187.162 402.609 187.565 401.164 187.31C400.381 187.172 399.625 186.83 398.981 186.338L391.202 180.33L381.847 183.316C381.074 183.559 380.246 183.622 379.464 183.484C378.018 183.229 376.769 182.345 376.026 181.067C375.434 180.056 375.227 178.874 375.428 177.736L374.956 180.413C374.755 181.55 374.962 182.733 375.554 183.744C376.297 185.022 377.546 185.906 378.992 186.161C379.774 186.299 380.602 186.236 381.375 185.993L390.73 183.007L398.509 189.014C399.153 189.507 399.909 189.849 400.692 189.987C402.137 190.242 403.613 189.839 404.748 188.892C404.98 188.7 405.19 188.487 405.38 188.26C405.385 188.254 405.392 188.25 405.396 188.244C405.437 188.194 405.465 188.135 405.504 188.084C405.647 187.898 405.782 187.707 405.896 187.503C405.908 187.483 405.924 187.465 405.935 187.445C405.995 187.335 406.034 187.215 406.085 187.1C406.139 186.979 406.199 186.86 406.244 186.734C406.251 186.713 406.264 186.693 406.271 186.672C406.348 186.442 406.408 186.206 406.45 185.966L406.922 183.289C406.876 183.552 406.803 183.807 406.716 184.057C406.671 184.184 406.611 184.303 406.556 184.425Z" fill="#59D3D3"/>
<path opacity="0.1" d="M366.146 166.5C366.146 154.783 373.381 144.756 383.626 140.642" stroke="white" stroke-width="7.98" stroke-linecap="round" stroke-linejoin="round"/>
<path opacity="0.1" d="M369.355 179.49C368.985 178.791 368.645 178.074 368.335 177.342" stroke="white" stroke-width="7.98" stroke-linecap="round" stroke-linejoin="round"/>
<path d="M364.016 223.356C364.016 224.94 364.72 225.964 366.112 225.964C366.912 225.964 367.808 225.5 368.56 224.396C368.4 221.98 367.504 220.7 366 220.7C364.88 220.7 364.016 221.756 364.016 223.356ZM365.68 231.708C364.416 231.708 363.52 231.196 362.864 230.508L363.68 229.596C364.16 230.156 364.88 230.492 365.632 230.492C367.152 230.492 368.464 229.244 368.576 225.612C367.856 226.492 366.848 227.052 365.872 227.052C363.92 227.052 362.64 225.788 362.64 223.356C362.64 221.084 364.176 219.548 366 219.548C368.256 219.548 369.936 221.404 369.936 225.132C369.936 229.884 367.888 231.708 365.68 231.708ZM374.347 231.708C372.523 231.708 371.403 230.94 370.619 230.156L371.339 229.196C372.011 229.868 372.859 230.492 374.219 230.492C375.595 230.492 376.715 229.436 376.715 227.724C376.715 226.044 375.755 225.052 374.283 225.052C373.499 225.052 373.003 225.292 372.331 225.74L371.547 225.26L371.915 219.756H377.627V221.02H373.195L372.907 224.412C373.435 224.124 373.947 223.948 374.651 223.948C376.603 223.948 378.187 225.1 378.187 227.676C378.187 230.252 376.331 231.708 374.347 231.708ZM384.422 226.908C383.014 226.908 382.246 225.388 381.238 225.388C380.726 225.388 380.278 225.708 379.862 226.476L379.046 225.9C379.702 224.78 380.502 224.3 381.286 224.3C382.694 224.3 383.446 225.804 384.454 225.804C384.966 225.804 385.414 225.484 385.814 224.716L386.646 225.308C385.99 226.428 385.19 226.908 384.422 226.908ZM388.049 231.5V230.284H390.657V221.532H388.577V220.604C389.617 220.412 390.369 220.14 391.009 219.756H392.129V230.284H394.481V231.5H388.049ZM399.324 231.708C397.084 231.708 395.66 229.676 395.66 225.596C395.66 221.516 397.084 219.548 399.324 219.548C401.548 219.548 402.972 221.532 402.972 225.596C402.972 229.676 401.548 231.708 399.324 231.708ZM399.324 230.54C400.652 230.54 401.548 229.052 401.548 225.596C401.548 222.172 400.652 220.716 399.324 220.716C397.98 220.716 397.084 222.172 397.084 225.596C397.084 229.052 397.98 230.54 399.324 230.54ZM407.559 231.708C405.319 231.708 403.895 229.676 403.895 225.596C403.895 221.516 405.319 219.548 407.559 219.548C409.783 219.548 411.207 221.532 411.207 225.596C411.207 229.676 409.783 231.708 407.559 231.708ZM407.559 230.54C408.887 230.54 409.783 229.052 409.783 225.596C409.783 222.172 408.887 220.716 407.559 220.716C406.215 220.716 405.319 222.172 405.319 225.596C405.319 229.052 406.215 230.54 407.559 230.54ZM420.658 225.244L420.002 226.268C418.402 225.692 417.17 224.492 416.546 223.02C415.922 224.668 414.61 225.98 412.93 226.588L412.242 225.564C414.37 224.796 415.858 222.892 415.858 220.86V220.316H412.658V219.244H420.322V220.316H417.17V220.844C417.17 222.716 418.578 224.508 420.658 225.244ZM415.97 228.476V231.436H422.738V228.476H415.97ZM414.69 232.492V227.436H424.018V232.492H414.69ZM422.69 218.332H424.018V226.732H422.69V223.02H419.858V221.932H422.69V218.332Z" fill="white"/>
<defs>
<linearGradient id="paint0_linear_3861_21739" x1="391.207" y1="180.331" x2="396.745" y2="148.922" gradientUnits="userSpaceOnUse">
<stop stop-color="#5EE0ED"/>
<stop offset="0.3" stop-color="#C0B2FD"/>
<stop offset="0.7" stop-color="#F6B2FF"/>
<stop offset="1" stop-color="#FADCA0"/>
</linearGradient>
</defs>
</svg>
