<svg width="16" height="15" viewBox="0 0 16 15" fill="none" xmlns="http://www.w3.org/2000/svg">
<path d="M10.543 4.37891L14.4531 4.95312C14.7812 5.00781 15.0547 5.22656 15.1641 5.55469C15.2734 5.85547 15.1914 6.21094 14.9453 6.42969L12.1016 9.24609L12.7852 13.2383C12.8398 13.5664 12.7031 13.8945 12.4297 14.0859C12.1562 14.3047 11.8008 14.3047 11.5 14.168L8 12.2812L4.47266 14.168C4.19922 14.3047 3.81641 14.3047 3.57031 14.0859C3.29688 13.8945 3.16016 13.5664 3.21484 13.2383L3.87109 9.24609L1.02734 6.42969C0.78125 6.21094 0.699219 5.85547 0.808594 5.55469C0.917969 5.22656 1.19141 5.00781 1.51953 4.95312L5.45703 4.37891L7.20703 0.742188C7.34375 0.441406 7.64453 0.25 8 0.25C8.32812 0.25 8.62891 0.441406 8.76562 0.742188L10.543 4.37891Z" fill="#7777FF"/>
</svg>
