<svg width="32" height="24" viewBox="0 0 32 24" fill="none" xmlns="http://www.w3.org/2000/svg">
<path d="M15.172 23.1461L14.5827 22.5567C11.8567 19.8308 3.82589 20.3886 0.961409 20.8335L0 20.9829V1.50246L0.705484 1.39285C1.13865 1.32539 10.9006 -0.144256 15.172 3.07419C19.4435 -0.144064 29.2051 1.32539 29.6387 1.39285L30.3442 1.50246V5.77607H28.6773V2.94242C25.3734 2.53266 18.2852 2.23912 15.7614 4.76313L15.1721 5.35239L14.5827 4.76313C12.0589 2.23931 4.97068 2.53259 1.66687 2.94242V19.0599C4.30763 18.7546 11.6288 18.1983 15.172 20.8677C18.7155 18.1981 26.037 18.7543 28.6773 19.0599V15.8131H30.3442V20.9826L29.3829 20.8337C26.5171 20.3897 18.4837 19.8341 15.7614 22.5566L15.172 23.1461Z" fill="#002775"/>
<path d="M10.3526 10.1796H8.28283V8.10986H6.46646V10.1796H4.39673V11.996H6.46646V14.0657H8.28283V11.996H10.3526V10.1796Z" fill="#4BC8DC"/>
<path d="M32.0002 11.9008V10.2747H26.3784V11.9008H32.0002Z" fill="#64C947"/>
<path d="M30.0022 14.1484V12.5222H28.3761V14.1484H30.0022Z" fill="#64C947"/>
<path d="M30.0022 9.65324V8.0271H28.3761V9.65324H30.0022Z" fill="#64C947"/>
<path d="M24.9792 9.62446L23.6948 8.34009L22.2313 9.80362L20.7678 8.34009L19.4834 9.62446L20.9469 11.088L19.4834 12.5515L20.7678 13.8359L22.2313 12.3724L23.6948 13.8359L24.9792 12.5515L23.5157 11.088L24.9792 9.62446Z" fill="#FF9B4E"/>
<path d="M17.8958 11.9961V10.1797H11.9399V11.9961H17.8958Z" fill="#F7417A"/>
</svg>
