<svg width="28" height="20" viewBox="0 0 28 20" fill="none" xmlns="http://www.w3.org/2000/svg">
<path d="M13.3099 19.2886L12.8187 18.7974C10.5471 16.5258 3.85475 16.9907 1.46768 17.3614L0.666504 17.4859V1.25222L1.25441 1.16087C1.61538 1.10465 9.75033 -0.12005 13.3099 2.56199C16.8694 -0.119891 25.0041 1.10465 25.3654 1.16087L25.9533 1.25222V4.81356H24.5643V2.45218C21.811 2.11071 15.9042 1.8661 13.801 3.96944L13.3099 4.46049L12.8188 3.96944C10.7156 1.86625 4.80874 2.11065 2.05556 2.45218V15.8835C4.25619 15.629 10.3572 15.1654 13.3099 17.3899C16.2627 15.1653 22.364 15.6287 24.5642 15.8835V13.1778H25.9533V17.4856L25.1523 17.3616C22.7641 16.9916 16.0696 16.5285 13.801 18.7974L13.3099 19.2886Z" fill="#002775"/>
<path d="M9.29376 8.48332H7.56898V6.75854H6.05534V8.48332H4.33057V9.99698H6.05534V11.7218H7.56898V9.99698H9.29376V8.48332Z" fill="#4BC8DC"/>
<path d="M27.3335 9.91762V8.5625H22.6486V9.91762H27.3335Z" fill="#64C947"/>
<path d="M25.6685 11.7904V10.4353H24.3133V11.7904H25.6685Z" fill="#64C947"/>
<path d="M25.6685 8.04457V6.68945H24.3133V8.04457H25.6685Z" fill="#64C947"/>
<path d="M21.4822 8.0205L20.4119 6.9502L19.1923 8.16981L17.9727 6.9502L16.9023 8.0205L18.122 9.24012L16.9023 10.4597L17.9727 11.53L19.1923 10.3104L20.4119 11.53L21.4822 10.4597L20.2626 9.24012L21.4822 8.0205Z" fill="#FF9B4E"/>
<path d="M15.5796 9.99682V8.48315H10.6164V9.99682H15.5796Z" fill="#F7417A"/>
</svg>
