<svg width="24" height="25" viewBox="0 0 24 25" fill="none" xmlns="http://www.w3.org/2000/svg">
<path d="M19.4773 6.65113L17.8487 5.02257C17.6852 4.85905 17.42 4.85905 17.2564 5.02257L11.9999 10.2792L6.74342 5.02257C6.5799 4.85905 6.3147 4.85897 6.1511 5.02257L4.52254 6.65113C4.35902 6.81465 4.35902 7.07985 4.52254 7.24345L9.77902 12.5002L4.52254 17.7569C4.35902 17.9204 4.35902 18.1856 4.52254 18.3492L6.1511 19.9778C6.31462 20.1413 6.57982 20.1413 6.74342 19.9778L11.9999 14.7211L17.2564 19.9778C17.4199 20.1413 17.6851 20.1414 17.8487 19.9778L19.4773 18.3492C19.6408 18.1857 19.6408 17.9205 19.4773 17.7569L14.2208 12.5002L19.4773 7.24345C19.6408 7.07993 19.6408 6.81473 19.4773 6.65113Z" fill="#7777FF"/>
</svg>
