<svg width="14" height="15" viewBox="0 0 14 15" fill="none" xmlns="http://www.w3.org/2000/svg">
<path d="M4.375 1.46094L0.382812 4.76953C0.136719 4.35938 0 3.89453 0 3.375C0 1.92578 1.14844 0.75 2.59766 0.75C3.28125 0.75 3.91016 1.02344 4.375 1.46094ZM7.65625 8.37891L8.75 9.47266C9.02344 9.74609 9.02344 10.1562 8.75 10.4023C8.50391 10.6758 8.09375 10.6758 7.84766 10.4023L6.53516 9.08984C6.39844 8.98047 6.34375 8.81641 6.34375 8.625V5.78125C6.34375 5.42578 6.61719 5.125 7 5.125C7.35547 5.125 7.65625 5.42578 7.65625 5.78125V8.37891ZM3.14453 13.4102L1.96875 14.5586C1.72266 14.832 1.3125 14.832 1.06641 14.5586C0.792969 14.3125 0.792969 13.9023 1.06641 13.6289L2.21484 12.4805C1.36719 11.4414 0.875 10.1016 0.875 8.625C0.875 5.26172 3.60938 2.5 7 2.5C10.3633 2.5 13.125 5.26172 13.125 8.625C13.125 10.1016 12.6055 11.4414 11.7578 12.4805L12.9062 13.6289C13.1797 13.9023 13.1797 14.3125 12.9062 14.5586C12.6602 14.832 12.25 14.832 12.0039 14.5586L10.8281 13.4102C9.78906 14.2578 8.44922 14.75 7 14.75C5.52344 14.75 4.18359 14.2578 3.14453 13.4102ZM7 13.4375C9.65234 13.4375 11.8125 11.3047 11.8125 8.625C11.8125 5.97266 9.65234 3.8125 7 3.8125C4.32031 3.8125 2.1875 5.97266 2.1875 8.625C2.1875 11.3047 4.32031 13.4375 7 13.4375ZM13.5898 4.76953L9.625 1.46094C10.0625 1.02344 10.6914 0.75 11.375 0.75C12.8242 0.75 14 1.92578 14 3.375C14 3.86719 13.8359 4.35938 13.5898 4.76953Z" fill="#9DA3B1"/>
</svg>
