<svg width="15" height="11" viewBox="0 0 15 11" fill="none" xmlns="http://www.w3.org/2000/svg">
<path d="M13.5625 1.75C14.0781 1.75 14.5 2.17188 14.5 2.6875C14.5 3.22656 14.0781 3.625 13.5625 3.625C13.5391 3.625 13.5391 3.625 13.5391 3.625L12.3438 10.1406C12.2969 10.4922 11.9688 10.75 11.6172 10.75H3.85938C3.50781 10.75 3.17969 10.4922 3.10938 10.1406L1.91406 3.625C1.39844 3.625 0.976562 3.22656 0.976562 2.6875C0.976562 2.17188 1.39844 1.75 1.91406 1.75C2.42969 1.75 2.85156 2.17188 2.85156 2.6875C2.85156 2.89844 2.78125 3.08594 2.66406 3.25L4.77344 4.9375C4.91406 5.05469 5.07812 5.10156 5.24219 5.10156C5.5 5.10156 5.78125 4.9375 5.89844 4.67969L7.23438 1.98438C6.97656 1.82031 6.78906 1.53906 6.78906 1.1875C6.78906 0.671875 7.21094 0.25 7.75 0.25C8.26562 0.25 8.66406 0.671875 8.66406 1.1875C8.66406 1.53906 8.5 1.82031 8.21875 1.98438L9.57812 4.67969C9.69531 4.9375 9.97656 5.10156 10.2344 5.10156C10.3984 5.10156 10.5625 5.05469 10.7031 4.9375L12.8125 3.25C12.6953 3.08594 12.625 2.89844 12.625 2.6875C12.625 2.17188 13.0234 1.75 13.5625 1.75ZM11.2891 9.625L12.0859 5.26562L11.4062 5.80469C11.0781 6.08594 10.6797 6.22656 10.2344 6.22656C9.53125 6.22656 8.89844 5.82812 8.57031 5.19531L7.75 3.53125L6.90625 5.19531C6.60156 5.82812 5.94531 6.22656 5.24219 6.22656C4.82031 6.22656 4.39844 6.08594 4.07031 5.80469L3.39062 5.26562L4.1875 9.625H11.2891Z" fill="white"/>
</svg>
