<svg width="10" height="13" viewBox="0 0 10 13" fill="none" xmlns="http://www.w3.org/2000/svg">
<path d="M7.27344 0.523438C7.71875 0.523438 8.04688 0.945312 7.92969 1.36719L6.66406 5.75H8.67969C9.125 5.75 9.5 6.125 9.5 6.57031C9.5 6.82812 9.38281 7.03906 9.19531 7.20312L3.125 12.3594C3.00781 12.4531 2.86719 12.5 2.70312 12.5C2.25781 12.5 1.92969 12.0781 2.04688 11.6562L3.3125 7.25H1.27344C0.851562 7.25 0.5 6.89844 0.5 6.47656C0.5 6.24219 0.59375 6.00781 0.757812 5.86719L6.85156 0.664062C6.96875 0.570312 7.10938 0.5 7.27344 0.5V0.523438ZM6.42969 2.49219L2.1875 6.125H4.0625C4.22656 6.125 4.39062 6.21875 4.50781 6.35938C4.60156 6.5 4.64844 6.6875 4.60156 6.85156L3.54688 10.5312L7.83594 6.875H5.9375C5.75 6.875 5.58594 6.80469 5.46875 6.66406C5.375 6.52344 5.32812 6.33594 5.375 6.17188L6.42969 2.49219Z" fill="white"/>
</svg>
