<svg width="24" height="24" viewBox="0 0 24 24" fill="none" xmlns="http://www.w3.org/2000/svg">
<g clip-path="url(#clip0_696_96011)">
<path d="M12 5C7.58167 5 4 7.83129 4 11.3245C4 13.5978 5.51739 15.5906 7.79527 16.7054C7.62798 17.3298 7.18922 18.9683 7.10163 19.3186C6.99297 19.7536 7.26052 19.748 7.4364 19.6315C7.57419 19.5397 9.62841 18.1424 10.5149 17.5395C10.9962 17.611 11.4925 17.6487 12 17.6487C16.4183 17.6487 20 14.8175 20 11.3245C20 7.8314 16.4183 5 12 5Z" fill="#371C1D"/>
<path d="M6.41897 10.1602H7.24237C7.24237 10.1602 7.2476 12.422 7.24312 12.9489C7.24426 13.3335 8.09976 13.3388 8.09863 12.9545L8.10236 10.1897C8.10236 10.1897 8.37814 10.1916 8.92165 10.192C9.4336 10.192 9.434 9.38703 8.92221 9.38648C8.34546 9.38648 6.41786 9.37061 6.41786 9.37061C5.93464 9.37135 5.93615 10.1602 6.41897 10.1602Z" fill="#F9E000"/>
<mask id="mask0_696_96011" style="mask-type:luminance" maskUnits="userSpaceOnUse" x="6" y="9" width="4" height="5">
<path d="M6.41897 10.1602H7.24237C7.24237 10.1602 7.2476 12.422 7.24312 12.9489C7.24426 13.3335 8.09976 13.3388 8.09863 12.9545L8.10236 10.1897C8.10236 10.1897 8.37814 10.1916 8.92165 10.192C9.4336 10.192 9.434 9.38703 8.92221 9.38648C8.34546 9.38648 6.41786 9.37061 6.41786 9.37061C5.93464 9.37135 5.93615 10.1602 6.41897 10.1602Z" fill="white"/>
</mask>
<g mask="url(#mask0_696_96011)">
<path d="M9.43392 9.37061H5.93457V13.3388H9.43392V9.37061Z" fill="#F9E000"/>
</g>
<path d="M10.36 10.3065L10.8182 11.7421H9.86313L10.36 10.3065ZM9.84652 9.6339C9.64393 10.0801 8.91202 12.1874 8.66911 12.7464C8.49323 13.1504 9.25089 13.4798 9.42659 13.0759L9.59146 12.4997H11.0982C11.0982 12.4997 11.0463 12.5233 11.2465 13.0515C11.4085 13.4787 12.1909 13.1825 12.0286 12.755C11.7973 12.144 10.997 9.94534 10.851 9.6339C10.7838 9.48977 10.5424 9.38672 10.3088 9.38672C10.1154 9.38672 9.92679 9.45728 9.84652 9.6339Z" fill="#F9E000"/>
<mask id="mask1_696_96011" style="mask-type:luminance" maskUnits="userSpaceOnUse" x="8" y="9" width="5" height="5">
<path d="M10.36 10.3065L10.8182 11.7421H9.86313L10.36 10.3065ZM9.84652 9.6339C9.64393 10.0801 8.91202 12.1874 8.66911 12.7464C8.49323 13.1504 9.25089 13.4798 9.42659 13.0759L9.59146 12.4997H11.0982C11.0982 12.4997 11.0463 12.5233 11.2465 13.0515C11.4085 13.4787 12.1909 13.1825 12.0286 12.755C11.7973 12.144 10.997 9.94534 10.851 9.6339C10.7838 9.48977 10.5424 9.38672 10.3088 9.38672C10.1154 9.38672 9.92679 9.45728 9.84652 9.6339Z" fill="white"/>
</mask>
<g mask="url(#mask1_696_96011)">
<path d="M12.1908 9.38672H8.49316V13.4798H12.1908V9.38672Z" fill="#F9E000"/>
</g>
<path d="M12.3172 9.76597C12.3187 10.4822 12.3213 12.7903 12.3213 12.7903C12.3213 12.7903 12.2552 13.2491 12.6485 13.2491C13.0417 13.2491 13.9147 13.2448 14.3018 13.2448C14.6888 13.2448 14.6866 12.4215 14.2997 12.4215C13.9125 12.4215 13.2063 12.4174 13.2063 12.4174C13.2063 12.4174 13.2097 10.2824 13.2086 9.7639C13.2079 9.51315 12.9857 9.3877 12.7633 9.3877C12.54 9.3877 12.3168 9.51391 12.3172 9.76597Z" fill="#F9E000"/>
<mask id="mask2_696_96011" style="mask-type:luminance" maskUnits="userSpaceOnUse" x="12" y="9" width="3" height="5">
<path d="M12.3172 9.76597C12.3187 10.4822 12.3213 12.7903 12.3213 12.7903C12.3213 12.7903 12.2552 13.2491 12.6485 13.2491C13.0417 13.2491 13.9147 13.2448 14.3018 13.2448C14.6888 13.2448 14.6866 12.4215 14.2997 12.4215C13.9125 12.4215 13.2063 12.4174 13.2063 12.4174C13.2063 12.4174 13.2097 10.2824 13.2086 9.7639C13.2079 9.51315 12.9857 9.3877 12.7633 9.3877C12.54 9.3877 12.3168 9.51391 12.3172 9.76597Z" fill="white"/>
</mask>
<g mask="url(#mask2_696_96011)">
<path d="M14.6888 9.3877H12.2554V13.2491H14.6888V9.3877Z" fill="#F9E000"/>
</g>
<path d="M14.7919 9.65187C14.8005 9.96592 14.7818 12.8058 14.782 13.0162C14.7822 13.3484 15.6276 13.3476 15.6274 13.0157C15.6272 12.6301 15.6274 11.8984 15.6274 11.8984L15.8757 11.6994L16.9612 13.1805C17.1807 13.4699 17.8712 12.9469 17.652 12.6576L16.4992 11.1392C16.4992 11.1392 17.2816 10.293 17.59 9.98646C17.77 9.80779 17.2129 9.24634 17.0329 9.42558C16.8585 9.59849 15.6328 10.8255 15.6328 10.8255C15.6328 10.8255 15.6438 10.055 15.6324 9.62909C15.6281 9.4674 15.4297 9.38916 15.2267 9.38916C15.0096 9.38916 14.7874 9.4788 14.7919 9.65187Z" fill="#F9E000"/>
<mask id="mask3_696_96011" style="mask-type:luminance" maskUnits="userSpaceOnUse" x="14" y="9" width="4" height="5">
<path d="M14.7919 9.65187C14.8005 9.96592 14.7818 12.8058 14.782 13.0162C14.7822 13.3484 15.6276 13.3476 15.6274 13.0157C15.6272 12.6301 15.6274 11.8984 15.6274 11.8984L15.8757 11.6994L16.9612 13.1805C17.1807 13.4699 17.8712 12.9469 17.652 12.6576L16.4992 11.1392C16.4992 11.1392 17.2816 10.293 17.59 9.98646C17.77 9.80779 17.2129 9.24634 17.0329 9.42558C16.8585 9.59849 15.6328 10.8255 15.6328 10.8255C15.6328 10.8255 15.6438 10.055 15.6324 9.62909C15.6281 9.4674 15.4297 9.38916 15.2267 9.38916C15.0096 9.38916 14.7874 9.4788 14.7919 9.65187Z" fill="white"/>
</mask>
<g mask="url(#mask3_696_96011)">
<path d="M17.8712 9.24658H14.7817V13.4702H17.8712V9.24658Z" fill="#F9E000"/>
</g>
</g>
<defs>
<clipPath id="clip0_696_96011">
<rect width="16" height="14.699" fill="white" transform="translate(4 5)"/>
</clipPath>
</defs>
</svg>
