<svg width="16" height="15" viewBox="0 0 16 15" fill="none" xmlns="http://www.w3.org/2000/svg">
<path d="M7.97266 0.25C8.24609 0.25 8.46484 0.414062 8.57422 0.632812L10.4609 4.48828L14.6445 5.11719C14.8906 5.14453 15.082 5.33594 15.1641 5.55469C15.2461 5.80078 15.1914 6.04688 15 6.23828L11.9648 9.24609L12.6758 13.4844C12.7305 13.7305 12.6211 14.0039 12.4297 14.1406C12.2109 14.2773 11.9375 14.3047 11.7188 14.1953L7.97266 12.1719L4.22656 14.1953C4.00781 14.3047 3.76172 14.2773 3.54297 14.1406C3.35156 14.0039 3.24219 13.7305 3.26953 13.4844L4.00781 9.24609L0.972656 6.23828C0.78125 6.04688 0.726562 5.80078 0.808594 5.55469C0.890625 5.33594 1.08203 5.14453 1.32812 5.11719L5.51172 4.48828L7.39844 0.632812C7.50781 0.414062 7.72656 0.25 7.97266 0.25ZM7.97266 2.41016L6.55078 5.39062C6.44141 5.58203 6.27734 5.71875 6.05859 5.74609L2.80469 6.21094L5.15625 8.53516C5.32031 8.69922 5.375 8.91797 5.34766 9.13672L4.80078 12.3906L7.67188 10.8594C7.86328 10.75 8.10938 10.75 8.30078 10.8594L11.1719 12.3906L10.625 9.13672C10.5703 8.91797 10.6523 8.69922 10.8164 8.53516L13.1406 6.21094L9.91406 5.74609C9.69531 5.71875 9.50391 5.58203 9.42188 5.39062L7.97266 2.41016Z" fill="#7777FF"/>
</svg>
