<svg width="240" height="241" viewBox="0 0 240 241" fill="none" xmlns="http://www.w3.org/2000/svg">
<path d="M140.546 137.574C188.898 98.9665 222.714 60.9297 216.077 52.6168C209.439 44.3039 164.861 68.8628 116.509 107.471C68.157 146.079 34.3408 184.115 40.9785 192.428C47.6161 200.741 92.1941 176.182 140.546 137.574Z" stroke="#FFC100" stroke-width="12.3255" stroke-miterlimit="10"/>
<path d="M121.689 205.941C167.456 205.941 204.557 168.84 204.557 123.073C204.557 77.3069 167.456 40.2058 121.689 40.2058C75.9227 40.2058 38.8215 77.3069 38.8215 123.073C38.8215 168.84 75.9227 205.941 121.689 205.941Z" fill="#63C928"/>
<path d="M40.6253 106.021L56.6755 105.033L59.3784 148.951L43.3282 149.938C38.1689 150.256 33.7224 146.325 33.4049 141.166L31.8527 115.944C31.5351 110.785 35.466 106.338 40.6253 106.021Z" fill="#63C928"/>
<path d="M171.8 187.307L166.119 181.626L194.868 152.877L200.549 158.558C203.251 161.26 203.251 165.647 200.549 168.349L181.591 187.307C178.889 190.009 174.502 190.009 171.8 187.307Z" fill="#63C928"/>
<path d="M173.113 63.5563L141.712 47.6309L146.588 38.0153C148.692 33.8664 153.762 32.209 157.911 34.3131L174.287 42.6187C178.436 44.7229 180.093 49.792 177.989 53.9409L173.113 63.5563Z" fill="#63C928"/>
<g opacity="0.63">
<path d="M156.558 36.1182C155.205 35.4317 153.551 35.9724 152.865 37.326C152.178 38.6796 152.719 40.3334 154.072 41.0199L171.144 49.6778C172.497 50.3643 174.151 49.8236 174.838 48.47C175.524 47.1164 174.983 45.4626 173.63 44.7761L156.558 36.1182Z" fill="#4EAF0E"/>
</g>
<path opacity="0.33" d="M118.707 103.563C131.004 103.563 140.973 93.5943 140.973 81.2974C140.973 69.0006 131.004 59.032 118.707 59.032C106.41 59.032 96.4419 69.0006 96.4419 81.2974C96.4419 93.5943 106.41 103.563 118.707 103.563Z" fill="#4EAF0E"/>
<path opacity="0.33" d="M95.4779 178.002C103.651 178.002 110.276 171.376 110.276 163.203C110.276 155.03 103.651 148.405 95.4779 148.405C87.3049 148.405 80.6794 155.03 80.6794 163.203C80.6794 171.376 87.3049 178.002 95.4779 178.002Z" fill="#4EAF0E"/>
<path opacity="0.33" d="M161.391 120.61C167.173 120.61 171.861 115.923 171.861 110.14C171.861 104.358 167.173 99.6702 161.391 99.6702C155.608 99.6702 150.92 104.358 150.92 110.14C150.92 115.923 155.608 120.61 161.391 120.61Z" fill="#4EAF0E"/>
<path d="M216.077 52.6167C222.715 60.9295 188.898 98.9664 140.546 137.574C92.1942 176.182 47.6163 200.741 40.9788 192.428" stroke="#FFC100" stroke-width="12.3255" stroke-miterlimit="10"/>
<path d="M42.42 76.1148C40.4421 76.2365 38.7699 75.7524 37.4004 74.6565C36.0305 73.5637 35.2893 72.0893 35.1752 70.2364C35.0537 68.2616 35.6029 66.6144 36.8244 65.2978C38.0456 63.9842 39.6437 63.2644 41.6215 63.1427L57.0032 62.1961L56.1021 47.5556C55.973 45.4556 56.4852 43.7181 57.6413 42.3451C58.7952 40.9715 60.3627 40.2244 62.3405 40.1027C64.1934 39.9887 65.7452 40.5438 67.0009 41.7691C68.2534 42.9939 68.9459 44.6573 69.0751 46.7572L69.9761 61.3977L83.3189 60.5765C85.4188 60.4473 87.1565 60.9617 88.5294 62.1157C89.9033 63.2726 90.6502 64.8399 90.7717 66.8149C90.8858 68.6677 90.3308 70.2219 89.1052 71.4744C87.8806 72.7299 86.217 73.4194 84.1171 73.5486L70.7743 74.3698L71.6412 88.4545C71.7629 90.4323 71.2757 92.1049 70.1829 93.474C69.0871 94.8442 67.6149 95.5853 65.7621 95.6994C63.7842 95.8211 62.137 95.2718 60.8235 94.0502C59.5077 92.8292 58.7901 91.2309 58.6684 89.2531L57.8015 75.1684L42.42 76.1148Z" fill="#388E00"/>
<path d="M203.748 170.734C205.831 171.069 207.476 171.986 208.689 173.478C209.897 174.972 210.347 176.687 210.035 178.62C209.723 180.556 208.757 182.043 207.14 183.077C205.52 184.115 203.67 184.464 201.588 184.129L160.095 177.436C158.009 177.1 156.401 176.193 155.266 174.71C154.13 173.232 153.718 171.523 154.031 169.587C154.366 167.504 155.3 165.976 156.832 164.999C158.364 164.026 160.169 163.705 162.255 164.041L203.748 170.734Z" fill="#388E00"/>
<path d="M178.622 203.116C182.966 203.116 186.487 199.594 186.487 195.251C186.487 190.907 182.966 187.385 178.622 187.385C174.278 187.385 170.757 190.907 170.757 195.251C170.757 199.594 174.278 203.116 178.622 203.116Z" fill="#388E00"/>
<path d="M185.444 160.82C189.788 160.82 193.309 157.299 193.309 152.955C193.309 148.611 189.788 145.09 185.444 145.09C181.1 145.09 177.579 148.611 177.579 152.955C177.579 157.299 181.1 160.82 185.444 160.82Z" fill="#388E00"/>
</svg>
