<svg width="240" height="241" viewBox="0 0 240 241" fill="none" xmlns="http://www.w3.org/2000/svg">
<path d="M44.5675 40.0098H151.449C162.807 40.0098 172.028 49.2311 172.028 60.5892V188.172C172.028 199.531 162.806 208.753 151.448 208.753H44.5675C33.2094 208.753 23.988 199.531 23.988 188.173V60.5892C23.988 49.2311 33.2094 40.0098 44.5675 40.0098Z" fill="#E4E5E9"/>
<path d="M148.506 48.2549H47.5102C38.7583 48.2549 31.6636 55.3497 31.6636 64.1015V168.813C31.6636 177.565 38.7583 184.66 47.5102 184.66H148.506C157.258 184.66 164.353 177.565 164.353 168.813V64.1015C164.353 55.3497 157.258 48.2549 148.506 48.2549Z" fill="white"/>
<path d="M52.5783 74.3353C58.3061 74.3353 62.9493 69.692 62.9493 63.9643C62.9493 58.2365 58.3061 53.5933 52.5783 53.5933C46.8506 53.5933 42.2073 58.2365 42.2073 63.9643C42.2073 69.692 46.8506 74.3353 52.5783 74.3353Z" fill="#EFEFEF"/>
<path d="M59.1708 38.7201C59.1708 35.0792 56.2192 32.1277 52.5783 32.1277C48.9374 32.1277 45.9858 35.0792 45.9858 38.7201V63.482C45.9858 67.1229 48.9374 70.0744 52.5783 70.0744C56.2192 70.0744 59.1708 67.1229 59.1708 63.482V38.7201Z" fill="#A0A4AF"/>
<path d="M52.5781 32.1277C48.9374 32.1277 45.9858 35.0793 45.9858 38.7201V54.8542C47.1838 57.2887 49.6816 58.9681 52.5783 58.9681C55.4749 58.9681 57.9728 57.2887 59.1708 54.8542V38.7201C59.1706 35.0793 56.2192 32.1277 52.5781 32.1277Z" fill="#B4B8C1"/>
<path d="M82.8647 74.3353C88.5925 74.3353 93.2357 69.692 93.2357 63.9643C93.2357 58.2365 88.5925 53.5933 82.8647 53.5933C77.1369 53.5933 72.4937 58.2365 72.4937 63.9643C72.4937 69.692 77.1369 74.3353 82.8647 74.3353Z" fill="#EFEFEF"/>
<path d="M89.4571 38.7201C89.4571 35.0792 86.5056 32.1277 82.8647 32.1277C79.2238 32.1277 76.2722 35.0792 76.2722 38.7201V63.482C76.2722 67.1229 79.2238 70.0744 82.8647 70.0744C86.5056 70.0744 89.4571 67.1229 89.4571 63.482V38.7201Z" fill="#A0A4AF"/>
<path d="M82.8647 32.1277C79.2238 32.1277 76.2722 35.0793 76.2722 38.7201V54.8542C77.4702 57.2887 79.968 58.9681 82.8647 58.9681C85.7612 58.9681 88.2592 57.2887 89.4571 54.8542V38.7201C89.4571 35.0793 86.5056 32.1277 82.8647 32.1277Z" fill="#B4B8C1"/>
<path d="M113.151 74.3353C118.879 74.3353 123.522 69.692 123.522 63.9643C123.522 58.2365 118.879 53.5933 113.151 53.5933C107.423 53.5933 102.78 58.2365 102.78 63.9643C102.78 69.692 107.423 74.3353 113.151 74.3353Z" fill="#EFEFEF"/>
<path d="M119.743 38.7201C119.743 35.0792 116.792 32.1277 113.151 32.1277C109.51 32.1277 106.558 35.0792 106.558 38.7201V63.482C106.558 67.1229 109.51 70.0744 113.151 70.0744C116.792 70.0744 119.743 67.1229 119.743 63.482V38.7201Z" fill="#A0A4AF"/>
<path d="M113.151 32.1277C109.51 32.1277 106.558 35.0793 106.558 38.7201V54.8542C107.756 57.2887 110.254 58.9681 113.151 58.9681C116.047 58.9681 118.545 57.2887 119.743 54.8542V38.7201C119.743 35.0793 116.792 32.1277 113.151 32.1277Z" fill="#B4B8C1"/>
<path d="M143.437 74.3353C149.165 74.3353 153.808 69.692 153.808 63.9643C153.808 58.2365 149.165 53.5933 143.437 53.5933C137.709 53.5933 133.066 58.2365 133.066 63.9643C133.066 69.692 137.709 74.3353 143.437 74.3353Z" fill="#EFEFEF"/>
<path d="M150.03 38.7201C150.03 35.0792 147.078 32.1277 143.437 32.1277C139.796 32.1277 136.845 35.0792 136.845 38.7201V63.482C136.845 67.1229 139.796 70.0744 143.437 70.0744C147.078 70.0744 150.03 67.1229 150.03 63.482V38.7201Z" fill="#A0A4AF"/>
<path d="M143.437 32.1277C139.796 32.1277 136.845 35.0793 136.845 38.7201V54.8542C138.043 57.2887 140.541 58.9681 143.437 58.9681C146.334 58.9681 148.832 57.2887 150.03 54.8542V38.7201C150.03 35.0793 147.078 32.1277 143.437 32.1277Z" fill="#B4B8C1"/>
<path d="M142.685 89.9917H53.3309C49.6367 89.9917 46.6418 92.9865 46.6418 96.6807C46.6418 100.375 49.6367 103.37 53.3309 103.37H142.685C146.379 103.37 149.374 100.375 149.374 96.6807C149.374 92.9865 146.379 89.9917 142.685 89.9917Z" fill="#D6DDEA"/>
<path d="M142.685 119.026H53.3309C49.6367 119.026 46.6418 122.021 46.6418 125.715C46.6418 129.409 49.6367 132.404 53.3309 132.404H142.685C146.379 132.404 149.374 129.409 149.374 125.715C149.374 122.021 146.379 119.026 142.685 119.026Z" fill="#D6DDEA"/>
<path d="M142.685 148.061H53.3309C49.6367 148.061 46.6418 151.056 46.6418 154.75C46.6418 158.444 49.6367 161.439 53.3309 161.439H142.685C146.379 161.439 149.374 158.444 149.374 154.75C149.374 151.056 146.379 148.061 142.685 148.061Z" fill="#D6DDEA"/>
<path d="M214.275 89.8315L176.581 73.3264L182.011 60.9245C186.566 50.5226 198.709 45.7754 209.111 50.3301C219.513 54.8848 224.26 67.0277 219.705 77.4296L214.275 89.8315Z" fill="#FF8500"/>
<path d="M152.291 191.899L182.742 164.093L143.437 146.882L143.656 188.118C143.68 192.588 148.991 194.913 152.291 191.899Z" fill="#FFCD97"/>
<path d="M143.498 146.909L182.681 164.066L197.581 130.037L158.398 112.88L143.498 146.909Z" fill="#FFCD97"/>
<path d="M206.882 73.175L215.158 81.6605C216.642 83.182 217.056 85.4515 216.203 87.3985L182.64 164.048L172.141 152.517L206.882 73.175Z" fill="#FFC100"/>
<path d="M159.093 146.804L172.141 152.517L206.882 73.1751L193.835 67.4621L159.093 146.804Z" fill="#FFD90A"/>
<path d="M181.986 67.1353L193.835 67.462L159.093 146.804L143.498 146.909L177.061 70.2592C177.913 68.3124 179.862 67.0767 181.986 67.1353Z" fill="#FFC100"/>
<path d="M154.917 174.151C151.212 172.529 147.284 172.133 143.575 172.769L143.656 188.119C143.68 192.588 148.99 194.913 152.291 191.899L163.625 181.549C161.577 178.392 158.622 175.774 154.917 174.151Z" fill="#43221D"/>
</svg>
