<svg width="240" height="241" viewBox="0 0 240 241" fill="none" xmlns="http://www.w3.org/2000/svg">
<path d="M193.481 37.1843H30.7603C19.2173 37.1843 9.85986 46.5418 9.85986 58.0848V164.387C9.85986 175.93 19.2173 185.287 30.7603 185.287H193.481C205.024 185.287 214.382 175.93 214.382 164.387V58.0848C214.382 46.5418 205.024 37.1843 193.481 37.1843Z" fill="#3F3F3F"/>
<path d="M193.482 33.3225H30.76C22.0921 33.3225 15.0654 40.3492 15.0654 49.0171V155.319C15.0654 163.987 22.0921 171.014 30.76 171.014H193.482C202.15 171.014 209.177 163.987 209.177 155.319V49.0171C209.177 40.3492 202.15 33.3225 193.482 33.3225Z" fill="#E6F4FF"/>
<path d="M193.482 33.3225H30.76C22.0921 33.3225 15.0654 40.3492 15.0654 49.0171V155.319C15.0654 163.987 22.0921 171.014 30.76 171.014H193.482C202.15 171.014 209.177 163.987 209.177 155.319V49.0171C209.177 40.3492 202.15 33.3225 193.482 33.3225Z" stroke="#565656" stroke-width="10.4108" stroke-miterlimit="10"/>
<path d="M136.783 52.3955H36.4954C34.2813 52.3955 32.4863 54.1904 32.4863 56.4046V141.328C32.4863 143.542 34.2813 145.337 36.4954 145.337H136.783C138.997 145.337 140.792 143.542 140.792 141.328V56.4046C140.792 54.1904 138.997 52.3955 136.783 52.3955Z" fill="white"/>
<path d="M190.433 52.3955H154.919C152.704 52.3955 150.909 54.1904 150.909 56.4046V141.328C150.909 143.542 152.704 145.337 154.919 145.337H190.433C192.647 145.337 194.442 143.542 194.442 141.328V56.4046C194.442 54.1904 192.647 52.3955 190.433 52.3955Z" fill="white"/>
<path d="M130.969 62.3025H41.8059V67.172H130.969V62.3025Z" fill="#EDEEEF"/>
<path d="M130.969 73.5527H41.8059V78.4222H130.969V73.5527Z" fill="#EDEEEF"/>
<path d="M130.969 84.8032H41.8059V89.6727H130.969V84.8032Z" fill="#EDEEEF"/>
<path d="M130.969 96.054H41.8059V100.923H130.969V96.054Z" fill="#EDEEEF"/>
<path d="M130.969 107.304H41.8059V112.174H130.969V107.304Z" fill="#EDEEEF"/>
<path d="M83.1133 118.555H41.8059V123.424H83.1133V118.555Z" fill="#EDEEEF"/>
<path d="M193.371 150.668H168.436C167.845 150.668 167.365 151.148 167.365 151.739V159.547C167.365 160.138 167.845 160.618 168.436 160.618H193.371C193.963 160.618 194.442 160.138 194.442 159.547V151.739C194.442 151.148 193.963 150.668 193.371 150.668Z" fill="#9FD5FF"/>
<path d="M49.197 143.922C53.0623 132.76 60.7804 123.322 71.1013 117.509C76.6945 114.358 84.7403 110.899 91.166 113.309C97.7623 115.782 98.0879 122.57 100.324 128.255C103.791 137.066 111.465 143.264 121.08 139.477C127.342 137.011 132.973 132.242 138.549 128.543C144.905 124.326 151.262 120.11 157.618 115.893C163.176 112.206 157.968 103.186 152.364 106.904C145.61 111.384 138.856 115.864 132.102 120.344C126.755 123.891 116.78 133.847 111.189 127.069C107.686 122.821 107.878 115.705 104.628 111.012C101.398 106.346 96.3817 103.491 90.8173 102.603C67.5481 98.8914 46.0981 121.113 39.1581 141.154C36.9612 147.499 47.0144 150.225 49.197 143.922Z" fill="#008CFF"/>
<path d="M230.708 210.298L222.888 191.464L225.578 181.416C226.032 179.716 225.914 177.891 225.243 176.276L214.048 149.313C212.986 146.757 210.967 144.794 208.36 143.782C205.673 142.736 202.638 142.846 200.043 144.076C198.926 144.596 197.926 145.308 197.075 146.182C196.532 145.843 195.955 145.554 195.354 145.321C192.701 144.289 189.671 144.394 187.036 145.614C185.154 146.492 183.595 147.952 182.543 149.776C180.17 149.162 177.621 149.394 175.399 150.448C174.886 150.687 174.395 150.97 173.93 151.292L167.924 136.826C166.873 134.297 164.872 132.341 162.288 131.32C159.729 130.309 156.908 130.339 154.343 131.404C149.015 133.617 146.439 139.649 148.598 144.85L162.057 177.262C159.769 176.816 157.406 177.027 155.193 177.894L154.954 177.989C151.898 179.258 149.519 181.642 148.254 184.703C145.658 190.988 148.647 198.238 154.915 200.865L178.023 210.558L185.679 228.994C186.342 230.593 187.894 231.56 189.528 231.56C190.057 231.56 190.597 231.458 191.117 231.242L228.462 215.736C230.579 214.856 231.587 212.417 230.708 210.298Z" fill="#FFD6B8"/>
</svg>
