<svg width="80" height="80" viewBox="0 0 80 80" fill="none" xmlns="http://www.w3.org/2000/svg">
<path d="M60.1613 70.2745H13.1613C12.03 70.2745 11.1129 69.3574 11.1129 68.2261V11.3196L14.4807 7.9519H54.2871L62.2097 15.8745V68.2261C62.2097 69.3574 61.2926 70.2745 60.1613 70.2745Z" fill="#FFFFF9"/>
<path d="M20.4417 52.6743H24.003C25.114 52.6743 26.0159 53.5763 26.0159 54.6872V65.2163H18.4288V54.6872C18.4288 53.5763 19.3308 52.6743 20.4417 52.6743Z" fill="#23A9E0"/>
<path d="M30.429 46.3647H33.9903C35.1013 46.3647 36.0032 47.2667 36.0032 48.3776V65.2163H28.4161V48.3776C28.4161 47.2667 29.3181 46.3647 30.429 46.3647Z" fill="#23A9E0"/>
<path d="M40.4161 42.855H43.9774C45.0884 42.855 45.9903 43.7569 45.9903 44.8679V65.2163H38.4032V44.8679C38.4032 43.7569 39.3052 42.855 40.4161 42.855Z" fill="#23A9E0"/>
<path d="M51.0611 35.7322H54.6224C55.7334 35.7322 56.6353 36.6341 56.6353 37.7451V65.216H49.0482V37.7451C49.0482 36.6341 49.9502 35.7322 51.0611 35.7322Z" fill="#23A9E0"/>
<path d="M11.1128 17.3196H62.2096V15.8745L54.287 7.9519H14.4805L11.1128 11.3196V17.3196Z" fill="#36B025"/>
<path d="M62.2095 15.8745H55.7224C55.019 15.1298 54.6461 14.7351 53.9427 13.9905L54.287 7.9519L62.2095 15.8745Z" fill="#258622"/>
<path d="M39.6741 21.397H17.416C16.7426 21.397 16.1967 21.9429 16.1967 22.6163V22.7712C16.1967 23.4446 16.7426 23.9905 17.416 23.9905H39.6741C40.3475 23.9905 40.8934 23.4446 40.8934 22.7712V22.6163C40.8934 21.9429 40.3475 21.397 39.6741 21.397Z" fill="#5CB9EA"/>
<path d="M32.8612 26.6614H17.416C16.7426 26.6614 16.1967 27.2073 16.1967 27.8807V28.0356C16.1967 28.709 16.7426 29.2549 17.416 29.2549H32.8612C33.5346 29.2549 34.0805 28.709 34.0805 28.0356V27.8807C34.0805 27.2073 33.5346 26.6614 32.8612 26.6614Z" fill="#5CB9EA"/>
<path d="M67.8928 17.9729L62.0407 19.4677C61.7436 19.5436 61.646 19.9168 61.868 20.1285L63.3199 21.5126L54.8978 29.6681H47.332C47.0125 29.6681 46.7062 29.7954 46.4808 30.0222L36.5275 40.0356L31.7695 36.6513C31.3178 36.33 30.7047 36.36 30.2863 36.7239C27.8277 38.8634 15.5545 49.5436 15.3824 49.7024C14.8982 50.1495 14.8676 50.9013 15.3109 51.3892C15.5473 51.6489 15.8721 51.7808 16.1984 51.7808C16.4848 51.7808 16.7723 51.6792 17.0018 51.4737C17.2594 51.2431 25.9879 43.646 31.1486 39.155L35.9656 42.5813C36.444 42.9214 37.0983 42.8657 37.5123 42.4493L47.8313 32.068H55.3836C55.6951 32.068 55.9945 31.9469 56.2184 31.7301L65.0584 23.17L66.6387 24.6765C66.8639 24.8912 67.2375 24.769 67.2922 24.4627L68.3736 18.4199C68.4236 18.1403 68.1679 17.9026 67.8928 17.9729Z" fill="#35AE22"/>
<path d="M58.6225 64.7517H17.2031C16.6473 64.7517 16.1967 65.2023 16.1967 65.7582C16.1967 66.314 16.6473 66.7646 17.2031 66.7646H58.6225C59.1783 66.7646 59.6289 66.314 59.6289 65.7582C59.6289 65.2023 59.1783 64.7517 58.6225 64.7517Z" fill="#0075C9"/>
<path d="M60.7954 62.4912L64.6573 58.6293L71.4784 65.4503C72.5441 66.5161 72.5441 68.2465 71.4784 69.3122C70.4127 70.378 68.6822 70.378 67.6165 69.3122L60.7954 62.4912Z" fill="#FA9000"/>
<path d="M64.6573 58.6292L60.7954 62.4911L61.9646 63.6603C63.6023 62.7929 65.0391 61.5971 66.1888 60.1607L64.6573 58.6292Z" fill="#E57D00"/>
<path d="M55.6982 64.0301C48.9439 64.0301 43.4487 58.535 43.4487 51.7807C43.4487 45.0264 48.9439 39.5312 55.6982 39.5312C62.4525 39.5312 67.9478 45.0264 67.9478 51.7807C67.9478 58.535 62.4526 64.0301 55.6982 64.0301ZM55.6982 43.3926C51.073 43.3926 47.3101 47.1555 47.3101 51.7807C47.3101 56.4058 51.073 60.1687 55.6982 60.1687C60.3233 60.1687 64.0864 56.4058 64.0864 51.7807C64.0864 47.1555 60.3235 43.3926 55.6982 43.3926Z" fill="#F99900"/>
</svg>
