<svg width="176" height="71" viewBox="0 0 176 71" fill="none" xmlns="http://www.w3.org/2000/svg">
<path d="M141.797 50.7462H34.2025L14.285 30.2614H161.714L141.797 50.7462Z" fill="#4864AE"/>
<path d="M108.906 40.5035H24.244L34.2027 50.746H109.77L112.047 44.9879C112.9 42.8284 111.272 40.5035 108.906 40.5035Z" fill="#92AFF9"/>
<path d="M108.907 40.5035H70.6913C70.7285 40.6233 79.0407 50.746 79.0407 50.746H109.771L112.047 44.9879C112.901 42.8284 111.273 40.5035 108.907 40.5035Z" fill="#6783CD"/>
<path d="M151.755 40.5035H128.786C126.42 40.5035 124.792 42.8284 125.645 44.9879L127.921 50.746H141.797L151.755 40.5035Z" fill="#6783CD"/>
<path d="M169.437 28.6633H6.56232L13.9232 10.5495C16.4297 4.3814 22.5268 0.333069 29.3098 0.333069H146.689C153.472 0.333069 159.569 4.3814 162.076 10.5495L169.437 28.6633Z" fill="#C0D1FF"/>
<path d="M146.689 0.332886H87.9997V28.6631H169.437L162.076 10.5493C159.57 4.38127 153.472 0.332886 146.689 0.332886Z" fill="#92AFF9"/>
<path d="M137.778 28.6631H38.2224L45.5833 10.5493C48.0898 4.38121 54.1869 0.332886 60.9699 0.332886H115.03C121.813 0.332886 127.91 4.38121 130.417 10.5493L137.778 28.6631Z" fill="#92AFF9"/>
<path d="M115.03 0.332886H87.9997V28.6631H137.777L130.417 10.5493C127.91 4.38127 121.813 0.332886 115.03 0.332886Z" fill="#6783CD"/>
<path d="M170.023 19.3666H5.97604C2.67551 19.3666 -0.000106812 21.9849 -0.000106812 25.2148V25.5768C-0.000106812 28.8067 2.67551 31.4251 5.97604 31.4251H170.023C173.324 31.4251 175.999 28.8067 175.999 25.5768V25.2148C175.999 21.9849 173.324 19.3666 170.023 19.3666Z" fill="#9BB6FF"/>
<path d="M36.9086 13.6807C38.8764 13.6807 40.4716 12.1197 40.4716 10.194C40.4716 8.26829 38.8764 6.70721 36.9086 6.70721C34.9408 6.70721 33.3456 8.26829 33.3456 10.194C33.3456 12.1197 34.9408 13.6807 36.9086 13.6807Z" fill="#304C96"/>
<path d="M62.4535 13.6807C64.4213 13.6807 66.0165 12.1197 66.0165 10.194C66.0165 8.26829 64.4213 6.70721 62.4535 6.70721C60.4857 6.70721 58.8905 8.26829 58.8905 10.194C58.8905 12.1197 60.4857 13.6807 62.4535 13.6807Z" fill="#304C96"/>
<path d="M87.9965 13.6807C89.9643 13.6807 91.5595 12.1197 91.5595 10.194C91.5595 8.26829 89.9643 6.70721 87.9965 6.70721C86.0287 6.70721 84.4335 8.26829 84.4335 10.194C84.4335 12.1197 86.0287 13.6807 87.9965 13.6807Z" fill="#304C96"/>
<path d="M113.543 13.6807C115.511 13.6807 117.106 12.1197 117.106 10.194C117.106 8.26829 115.511 6.70721 113.543 6.70721C111.576 6.70721 109.98 8.26829 109.98 10.194C109.98 12.1197 111.576 13.6807 113.543 13.6807Z" fill="#304C96"/>
<path d="M139.086 13.6807C141.054 13.6807 142.649 12.1197 142.649 10.194C142.649 8.26829 141.054 6.70721 139.086 6.70721C137.119 6.70721 135.523 8.26829 135.523 10.194C135.523 12.1197 137.119 13.6807 139.086 13.6807Z" fill="#304C96"/>
<path opacity="0.36" d="M100.218 19.3666H28.271C24.9704 19.3666 22.2948 21.9849 22.2948 25.2148V25.5768C22.2948 28.8067 24.9704 31.4251 28.271 31.4251H100.218C103.518 31.4251 106.194 28.8067 106.194 25.5768V25.2148C106.194 21.9849 103.518 19.3666 100.218 19.3666Z" fill="#E5ECFF"/>
<path d="M170.024 19.3647H98.0771C94.7766 19.3647 92.101 21.983 92.101 25.2129V25.5749C92.101 28.8048 94.7766 31.4232 98.0771 31.4232H170.024C173.324 31.4232 176 28.8048 176 25.5749V25.2129C176 21.983 173.324 19.3647 170.024 19.3647Z" fill="#6783CD"/>
<path d="M123.973 19.3647H52.0268C48.7263 19.3647 46.0507 21.983 46.0507 25.2129V25.5749C46.0507 28.8048 48.7263 31.4232 52.0268 31.4232H123.973C127.274 31.4232 129.95 28.8048 129.95 25.5749V25.2129C129.95 21.983 127.274 19.3647 123.973 19.3647Z" fill="#9BB6FF"/>
<path d="M132.042 70.3338H43.9597C42.8547 70.3338 41.8635 69.669 41.4649 68.6605L38.9619 62.3284C38.2838 60.6131 39.5772 58.7662 41.4567 58.7662H134.545C136.424 58.7662 137.718 60.613 137.04 62.3284L134.537 68.6605C134.138 69.669 133.147 70.3338 132.042 70.3338Z" fill="#6783CD"/>
<path d="M103.836 70.3338H43.9597C42.8547 70.3338 41.8635 69.669 41.4649 68.6605L38.9619 62.3284C38.2838 60.6131 39.5772 58.7662 41.4567 58.7662H106.339C108.219 58.7662 109.512 60.613 108.834 62.3284L106.331 68.6605C105.932 69.669 104.941 70.3338 103.836 70.3338Z" fill="#8BA7F1"/>
<path d="M143.443 61.3522H32.5567C31.1657 61.3522 29.9178 60.5152 29.416 59.2457L26.265 51.2742C25.4114 49.1148 27.0398 46.7899 29.4057 46.7899H146.594C148.96 46.7899 150.588 49.1148 149.734 51.2742L146.583 59.2457C146.081 60.5152 144.834 61.3522 143.443 61.3522Z" fill="#C0D1FF"/>
<path opacity="0.59" d="M91.3227 61.3522H43.7559C42.3649 61.3522 41.1171 60.5152 40.6152 59.2457L37.4642 51.2742C36.6106 49.1148 38.239 46.7899 40.6049 46.7899H94.4737C96.8398 46.7899 98.4681 49.1148 97.6144 51.2742L94.4634 59.2457C93.9616 60.5152 92.7137 61.3522 91.3227 61.3522Z" fill="#E5ECFF"/>
<path d="M143.442 61.3522H107.388C105.997 61.3522 104.749 60.5152 104.248 59.2457L101.097 51.2742C100.243 49.1148 101.871 46.7899 104.237 46.7899H146.594C148.96 46.7899 150.588 49.1148 149.734 51.2742L146.583 59.2457C146.081 60.5152 144.833 61.3522 143.442 61.3522Z" fill="#9BB6FF"/>
<path d="M110.953 61.3522H92.168C90.777 61.3522 89.5292 60.5152 89.0273 59.2457L85.8763 51.2742C85.0227 49.1148 86.6511 46.7899 89.017 46.7899H114.104C116.47 46.7899 118.099 49.1148 117.245 51.2742L114.094 59.2457C113.592 60.5152 112.344 61.3522 110.953 61.3522Z" fill="#C0D1FF"/>
</svg>
