<svg width="80" height="80" viewBox="0 0 80 80" fill="none" xmlns="http://www.w3.org/2000/svg">
<path d="M51.2142 10.9387H12.1208C9.2551 10.9387 6.93201 13.2618 6.93201 16.1275V58.7048C6.93201 61.5705 9.2551 63.8936 12.1208 63.8936H51.2142C54.0799 63.8936 56.403 61.5705 56.403 58.7048V16.1275C56.403 13.2618 54.0799 10.9387 51.2142 10.9387Z" fill="#CACAC8"/>
<path d="M50.3643 10.0872H12.0417C9.21969 10.0872 6.93201 12.3748 6.93201 15.1968V57.313C6.93201 60.135 9.21969 62.4226 12.0417 62.4226H50.3643C53.1863 62.4226 55.4739 60.135 55.4739 57.313V15.1968C55.4739 12.3748 53.1863 10.0872 50.3643 10.0872Z" fill="#F8F6F3"/>
<path d="M17.7517 58.876C14.7866 58.876 12.3743 56.4637 12.3743 53.4984C12.3743 50.5332 14.7866 48.1211 17.7517 48.1211C20.7168 48.1211 23.1291 50.5334 23.1291 53.4984C23.1291 56.4635 20.7168 58.876 17.7517 58.876ZM17.7517 50.7211C16.2203 50.7211 14.9743 51.967 14.9743 53.4984C14.9743 55.0299 16.2203 56.276 17.7517 56.276C19.2831 56.276 20.5291 55.0299 20.5291 53.4984C20.5291 51.967 19.2831 50.7211 17.7517 50.7211Z" fill="#16B3D3"/>
<path d="M47.6651 51.0601L47.8436 65.3873C47.8523 66.0918 48.2806 66.7231 48.9319 66.9917C49.5949 67.2651 50.3576 67.1087 50.8594 66.5963L61.2759 55.9617L47.6651 51.0601Z" fill="#FFC72B"/>
<path d="M54.8898 53.7466C54.8898 53.7466 55.0754 55.6655 57.5625 56.6913C60.0496 57.7171 61.276 55.9617 61.276 55.9617L72.4535 28.8601L66.2149 26.2871" fill="#FFA100"/>
<path d="M51.0795 61.394C49.9851 60.9427 48.8136 60.9676 47.7935 61.3713L47.8435 65.3871C47.8523 66.0916 48.2805 66.7229 48.9318 66.9915C49.5949 67.265 50.3575 67.1085 50.8594 66.5962L53.5072 63.8929C53.0922 62.8004 52.2452 61.8748 51.0795 61.394Z" fill="#80553F"/>
<path d="M50.3644 10.0872H12.0418C9.21979 10.0872 6.93213 12.3748 6.93213 15.1968V21.0807H55.4741V15.1968C55.4741 12.3748 53.1864 10.0872 50.3644 10.0872Z" fill="#57A31D"/>
<path d="M17.7517 34.8658C14.7866 34.8658 12.3743 32.4535 12.3743 29.4884C12.3743 26.5234 14.7866 24.1111 17.7517 24.1111C20.7168 24.1111 23.1291 26.5234 23.1291 29.4884C23.1291 32.4535 20.7168 34.8658 17.7517 34.8658ZM17.7517 26.7111C16.2203 26.7111 14.9743 27.957 14.9743 29.4884C14.9743 31.0199 16.2203 32.2658 17.7517 32.2658C19.2831 32.2658 20.5291 31.0199 20.5291 29.4884C20.5291 27.957 19.2831 26.7111 17.7517 26.7111Z" fill="#16B3D3"/>
<path d="M35.1127 33.9129C34.7672 33.9129 34.4217 33.7811 34.1581 33.5174L27.4356 26.7947C26.9084 26.2676 26.9084 25.4129 27.4356 24.8856C27.9627 24.3584 28.8175 24.3584 29.3448 24.8858L36.0673 31.6084C36.5946 32.1356 36.5946 32.9903 36.0673 33.5176C35.8037 33.7811 35.4581 33.9129 35.1127 33.9129Z" fill="#FF5110"/>
<path d="M28.3902 33.9128C28.0447 33.9128 27.6992 33.781 27.4356 33.5175C26.9084 32.9902 26.9084 32.1355 27.4356 31.6084L34.1581 24.8857C34.6853 24.3583 35.5402 24.3585 36.0673 24.8855C36.5946 25.4128 36.5946 26.2675 36.0673 26.7947L29.3448 33.5173C29.0812 33.781 28.7357 33.9128 28.3902 33.9128Z" fill="#FF5110"/>
<path d="M49.0991 33.9128C48.7536 33.9128 48.4081 33.781 48.1444 33.5173L41.4219 26.7947C40.8948 26.2675 40.8948 25.4128 41.4221 24.8855C41.9491 24.3585 42.804 24.3584 43.3313 24.8857L50.0538 31.6084C50.5809 32.1355 50.5809 32.9902 50.0536 33.5175C49.7901 33.781 49.4446 33.9128 49.0991 33.9128Z" fill="#FF5110"/>
<path d="M42.3765 33.9128C42.031 33.9128 41.6855 33.781 41.422 33.5175C40.8947 32.9902 40.8947 32.1355 41.4218 31.6084L48.1443 24.8857C48.6716 24.3583 49.5265 24.3585 50.0535 24.8855C50.5808 25.4128 50.5808 26.2675 50.0537 26.7947L43.3312 33.5173C43.0675 33.781 42.722 33.9128 42.3765 33.9128Z" fill="#FF5110"/>
<path d="M45.7378 46.8708C42.7725 46.8708 40.3602 44.4585 40.3602 41.4935C40.3602 38.5285 42.7725 36.116 45.7378 36.116C48.703 36.116 51.1151 38.5283 51.1151 41.4935C51.1151 44.4587 48.7028 46.8708 45.7378 46.8708ZM45.7378 38.716C44.2063 38.716 42.9602 39.9621 42.9602 41.4935C42.9602 43.0249 44.2063 44.2708 45.7378 44.2708C47.2692 44.2708 48.5151 43.0249 48.5151 41.4935C48.5151 39.9621 47.2692 38.716 45.7378 38.716Z" fill="#16B3D3"/>
<path d="M35.1127 45.918C34.7672 45.918 34.4217 45.7862 34.1581 45.5225L27.4356 38.7999C26.9084 38.2727 26.9084 37.418 27.4356 36.8907C27.9627 36.3636 28.8175 36.3636 29.3448 36.8909L36.0673 43.6136C36.5946 44.1407 36.5946 44.9954 36.0673 45.5227C35.8037 45.7862 35.4581 45.918 35.1127 45.918Z" fill="#FF5110"/>
<path d="M28.3902 45.918C28.0447 45.918 27.6992 45.7861 27.4356 45.5227C26.9084 44.9953 26.9084 44.1406 27.4356 43.6135L34.1581 36.8908C34.6853 36.3635 35.5402 36.3637 36.0673 36.8906C36.5946 37.418 36.5946 38.2727 36.0673 38.7998L29.3448 45.5225C29.0812 45.7861 28.7357 45.918 28.3902 45.918Z" fill="#FF5110"/>
<path d="M21.1131 45.9179C20.7676 45.9179 20.4221 45.7861 20.1585 45.5226L13.4358 38.8C12.9086 38.2726 12.9086 37.4179 13.4358 36.8906C13.963 36.3636 14.8179 36.3636 15.345 36.8906L22.0677 43.6132C22.5949 44.1406 22.5949 44.9953 22.0677 45.5226C21.8041 45.7861 21.4586 45.9179 21.1131 45.9179Z" fill="#FF5110"/>
<path d="M14.3904 45.9179C14.0449 45.9179 13.6994 45.7861 13.4358 45.5226C12.9086 44.9953 12.9086 44.1406 13.4358 43.6132L20.1585 36.8906C20.6856 36.3636 21.5405 36.3636 22.0677 36.8906C22.5949 37.4179 22.5949 38.2726 22.0677 38.8L15.345 45.5226C15.0814 45.7861 14.7359 45.9179 14.3904 45.9179Z" fill="#FF5110"/>
<path d="M35.1127 57.9229C34.7672 57.9229 34.4217 57.7911 34.1581 57.5276L27.4356 50.8051C26.9084 50.2778 26.9084 49.4231 27.4356 48.8959C27.9627 48.3686 28.8176 48.3688 29.3448 48.8957L36.0673 55.6182C36.5946 56.1455 36.5946 57.0002 36.0673 57.5274C35.8037 57.7911 35.4582 57.9229 35.1127 57.9229Z" fill="#FF5110"/>
<path d="M28.3902 57.9225C28.0447 57.9225 27.6992 57.7907 27.4356 57.527C26.9084 56.9999 26.9084 56.1452 27.4356 55.6179L34.1581 48.8954C34.6853 48.3683 35.54 48.3681 36.0673 48.8956C36.5946 49.4227 36.5946 50.2774 36.0673 50.8048L29.3448 57.5272C29.0812 57.7907 28.7356 57.9225 28.3902 57.9225Z" fill="#FF5110"/>
<path d="M59.0935 23.3504L47.665 51.0603C47.665 51.0603 48.5133 53.4201 51.0006 54.09C53.4879 54.7599 54.8897 53.7469 54.8897 53.7469L66.2148 26.2874L59.0935 23.3504Z" fill="#FFBB00"/>
<path d="M71.0001 13.4658C74.6935 14.989 76.4554 19.2242 74.9321 22.9176L74.3368 24.361L60.953 18.8411L61.5483 17.3977C63.0715 13.7044 67.3068 11.9425 71.0001 13.4658Z" fill="#FF7023"/>
<path d="M71.0003 13.4657C70.864 13.4095 70.7268 13.3591 70.5892 13.3118L67.2395 21.4337L74.337 24.3609L74.9323 22.9175C76.4565 19.2217 74.6961 14.99 71.0003 13.4657Z" fill="#FF520B"/>
<path d="M74.6279 16.752L71.9036 23.3575L74.337 24.3612L74.9323 22.9178C75.7893 20.8398 75.6079 18.5923 74.6279 16.752Z" fill="#F94500"/>
<path opacity="0.08" d="M58.8211 55.0776L58.0817 56.8704L48.2365 66.4666C48.4182 66.6921 48.6528 66.8765 48.9319 66.9916C49.5949 67.2651 50.3576 67.1087 50.8594 66.5963L61.2759 55.9617L58.8211 55.0776Z" fill="#80553F"/>
<path d="M74.3368 24.3609L60.953 18.8411L59.0934 23.3501L72.4772 28.8699L74.3368 24.3609Z" fill="#1AB0D0"/>
<path d="M67.2394 21.4339L65.3798 25.9429L72.4772 28.8701L74.3369 24.3611L67.2394 21.4339Z" fill="#00A6C6"/>
<path d="M71.8318 23.3277L69.9722 27.8367L72.4771 28.8698L74.3368 24.3608L71.8318 23.3277Z" fill="#00A0C2"/>
<path d="M58.0817 56.8704C60.2197 57.4706 61.2759 55.9616 61.2759 55.9616L72.4534 28.86L70.0438 27.8662L58.0817 56.8704Z" fill="#FD8B00"/>
</svg>
