<svg width="80" height="80" viewBox="0 0 80 80" fill="none" xmlns="http://www.w3.org/2000/svg">
<path d="M12.0801 12.6096L7.39332 54.3664C7.0899 57.0697 8.85734 59.5724 11.5064 60.1905L12.0801 12.6096Z" fill="#CED7DB"/>
<path d="M60.0741 11.1584H15.687C12.808 11.1584 10.4741 13.4923 10.4741 16.3713V59.8294C10.4741 62.7084 12.808 65.0423 15.687 65.0423H60.0741C62.9531 65.0423 65.287 62.7084 65.287 59.8294V16.3713C65.287 13.4923 62.9531 11.1584 60.0741 11.1584Z" fill="white"/>
<path d="M21.7756 25.603H17.9213C16.8478 25.603 15.9775 26.4733 15.9775 27.5469V31.4011C15.9775 32.4747 16.8478 33.345 17.9213 33.345H21.7756C22.8491 33.345 23.7194 32.4747 23.7194 31.4011V27.5469C23.7194 26.4733 22.8491 25.603 21.7756 25.603Z" fill="#EFF0F2"/>
<path d="M31.2556 25.603H27.4013C26.3277 25.603 25.4575 26.4733 25.4575 27.5469V31.4011C25.4575 32.4747 26.3277 33.345 27.4013 33.345H31.2556C32.3291 33.345 33.1994 32.4747 33.1994 31.4011V27.5469C33.1994 26.4733 32.3291 25.603 31.2556 25.603Z" fill="#EFF0F2"/>
<path d="M40.7355 25.603H36.8812C35.8077 25.603 34.9374 26.4733 34.9374 27.5469V31.4011C34.9374 32.4747 35.8077 33.345 36.8812 33.345H40.7355C41.809 33.345 42.6793 32.4747 42.6793 31.4011V27.5469C42.6793 26.4733 41.809 25.603 40.7355 25.603Z" fill="#EFF0F2"/>
<path d="M50.2155 25.603H46.3612C45.2876 25.603 44.4174 26.4733 44.4174 27.5469V31.4011C44.4174 32.4747 45.2876 33.345 46.3612 33.345H50.2155C51.289 33.345 52.1593 32.4747 52.1593 31.4011V27.5469C52.1593 26.4733 51.289 25.603 50.2155 25.603Z" fill="#EFF0F2"/>
<path d="M59.6954 25.603H55.8411C54.7676 25.603 53.8973 26.4733 53.8973 27.5469V31.4011C53.8973 32.4747 54.7676 33.345 55.8411 33.345H59.6954C60.7689 33.345 61.6392 32.4747 61.6392 31.4011V27.5469C61.6392 26.4733 60.7689 25.603 59.6954 25.603Z" fill="#EFF0F2"/>
<path d="M21.7756 35.3579H17.9213C16.8478 35.3579 15.9775 36.2282 15.9775 37.3018V41.156C15.9775 42.2296 16.8478 43.0999 17.9213 43.0999H21.7756C22.8491 43.0999 23.7194 42.2296 23.7194 41.156V37.3018C23.7194 36.2282 22.8491 35.3579 21.7756 35.3579Z" fill="#EFF0F2"/>
<path d="M31.2556 35.3579H27.4013C26.3277 35.3579 25.4575 36.2282 25.4575 37.3018V41.156C25.4575 42.2296 26.3277 43.0999 27.4013 43.0999H31.2556C32.3291 43.0999 33.1994 42.2296 33.1994 41.156V37.3018C33.1994 36.2282 32.3291 35.3579 31.2556 35.3579Z" fill="#EFF0F2"/>
<path d="M40.7355 35.3579H36.8812C35.8077 35.3579 34.9374 36.2282 34.9374 37.3018V41.156C34.9374 42.2296 35.8077 43.0999 36.8812 43.0999H40.7355C41.809 43.0999 42.6793 42.2296 42.6793 41.156V37.3018C42.6793 36.2282 41.809 35.3579 40.7355 35.3579Z" fill="#EFF0F2"/>
<path d="M50.2155 35.3579H46.3612C45.2876 35.3579 44.4174 36.2282 44.4174 37.3018V41.156C44.4174 42.2296 45.2876 43.0999 46.3612 43.0999H50.2155C51.289 43.0999 52.1593 42.2296 52.1593 41.156V37.3018C52.1593 36.2282 51.289 35.3579 50.2155 35.3579Z" fill="#EFF0F2"/>
<path d="M59.6954 35.3579H55.8411C54.7676 35.3579 53.8973 36.2282 53.8973 37.3018V41.156C53.8973 42.2296 54.7676 43.0999 55.8411 43.0999H59.6954C60.7689 43.0999 61.6392 42.2296 61.6392 41.156V37.3018C61.6392 36.2282 60.7689 35.3579 59.6954 35.3579Z" fill="#EFF0F2"/>
<path d="M21.7756 45.1128H17.9213C16.8478 45.1128 15.9775 45.9831 15.9775 47.0566V50.9109C15.9775 51.9844 16.8478 52.8547 17.9213 52.8547H21.7756C22.8491 52.8547 23.7194 51.9844 23.7194 50.9109V47.0566C23.7194 45.9831 22.8491 45.1128 21.7756 45.1128Z" fill="#EFF0F2"/>
<path d="M31.2556 45.1128H27.4013C26.3277 45.1128 25.4575 45.9831 25.4575 47.0566V50.9109C25.4575 51.9844 26.3277 52.8547 27.4013 52.8547H31.2556C32.3291 52.8547 33.1994 51.9844 33.1994 50.9109V47.0566C33.1994 45.9831 32.3291 45.1128 31.2556 45.1128Z" fill="#EFF0F2"/>
<path d="M40.7355 45.1128H36.8812C35.8077 45.1128 34.9374 45.9831 34.9374 47.0566V50.9109C34.9374 51.9844 35.8077 52.8547 36.8812 52.8547H40.7355C41.809 52.8547 42.6793 51.9844 42.6793 50.9109V47.0566C42.6793 45.9831 41.809 45.1128 40.7355 45.1128Z" fill="#EFF0F2"/>
<path d="M21.7756 54.8677H17.9213C16.8478 54.8677 15.9775 55.738 15.9775 56.8115V60.6658C15.9775 61.7393 16.8478 62.6096 17.9213 62.6096H21.7756C22.8491 62.6096 23.7194 61.7393 23.7194 60.6658V56.8115C23.7194 55.738 22.8491 54.8677 21.7756 54.8677Z" fill="#EFF0F2"/>
<path d="M31.2556 54.8677H27.4013C26.3277 54.8677 25.4575 55.738 25.4575 56.8115V60.6658C25.4575 61.7393 26.3277 62.6096 27.4013 62.6096H31.2556C32.3291 62.6096 33.1994 61.7393 33.1994 60.6658V56.8115C33.1994 55.738 32.3291 54.8677 31.2556 54.8677Z" fill="#EFF0F2"/>
<path d="M40.7355 54.8677H36.8812C35.8077 54.8677 34.9374 55.738 34.9374 56.8115V60.6658C34.9374 61.7393 35.8077 62.6096 36.8812 62.6096H40.7355C41.809 62.6096 42.6793 61.7393 42.6793 60.6658V56.8115C42.6793 55.738 41.809 54.8677 40.7355 54.8677Z" fill="#EFF0F2"/>
<path d="M59.4794 67.8227C68.2518 67.8227 75.3633 60.7112 75.3633 51.9388C75.3633 43.1664 68.2518 36.0549 59.4794 36.0549C50.707 36.0549 43.5955 43.1664 43.5955 51.9388C43.5955 60.7112 50.707 67.8227 59.4794 67.8227Z" fill="#1D72B6"/>
<path d="M56.2355 58.9615C56.2118 58.9615 56.188 58.9611 56.1642 58.9601C55.6548 58.941 55.1745 58.7179 54.8312 58.3412L48.999 51.9412C48.2921 51.1656 48.348 49.964 49.1236 49.2572C49.899 48.5501 51.1011 48.606 51.8075 49.3818L56.3372 54.3523L66.9568 44.3253C67.72 43.6048 68.9224 43.6398 69.6427 44.4023C70.3632 45.1654 70.3286 46.3679 69.5657 47.0882L57.54 58.4429C57.1866 58.7765 56.7196 58.9615 56.2355 58.9615Z" fill="white"/>
<path d="M60.0741 11.1584H15.687C12.808 11.1584 10.4741 13.4923 10.4741 16.3713V22.6165H65.287V16.3713C65.287 13.4923 62.9531 11.1584 60.0741 11.1584Z" fill="#67AB45"/>
<path d="M20.4871 18.3212C21.9124 18.3212 23.0678 17.1658 23.0678 15.7406C23.0678 14.3153 21.9124 13.1599 20.4871 13.1599C19.0619 13.1599 17.9065 14.3153 17.9065 15.7406C17.9065 17.1658 19.0619 18.3212 20.4871 18.3212Z" fill="#194B34"/>
<path d="M22.4096 10.1518C22.4096 9.09002 21.5488 8.22925 20.487 8.22925C19.4252 8.22925 18.5645 9.09002 18.5645 10.1518V15.3131C18.5645 16.3749 19.4252 17.2357 20.487 17.2357C21.5488 17.2357 22.4096 16.3749 22.4096 15.3131V10.1518Z" fill="#FFB543"/>
<path d="M31.9091 18.3212C33.3344 18.3212 34.4898 17.1658 34.4898 15.7406C34.4898 14.3153 33.3344 13.1599 31.9091 13.1599C30.4839 13.1599 29.3285 14.3153 29.3285 15.7406C29.3285 17.1658 30.4839 18.3212 31.9091 18.3212Z" fill="#194B34"/>
<path d="M33.8316 10.1518C33.8316 9.09002 32.9708 8.22925 31.909 8.22925C30.8472 8.22925 29.9865 9.09002 29.9865 10.1518V15.3131C29.9865 16.3749 30.8472 17.2357 31.909 17.2357C32.9708 17.2357 33.8316 16.3749 33.8316 15.3131V10.1518Z" fill="#FFB543"/>
<path d="M43.331 18.3212C44.7563 18.3212 45.9116 17.1658 45.9116 15.7406C45.9116 14.3153 44.7563 13.1599 43.331 13.1599C41.9058 13.1599 40.7504 14.3153 40.7504 15.7406C40.7504 17.1658 41.9058 18.3212 43.331 18.3212Z" fill="#194B34"/>
<path d="M45.2537 10.1518C45.2537 9.09002 44.3929 8.22925 43.3311 8.22925C42.2693 8.22925 41.4085 9.09002 41.4085 10.1518V15.3131C41.4085 16.3749 42.2693 17.2357 43.3311 17.2357C44.3929 17.2357 45.2537 16.3749 45.2537 15.3131V10.1518Z" fill="#FFB543"/>
<path d="M54.753 18.3212C56.1783 18.3212 57.3336 17.1658 57.3336 15.7406C57.3336 14.3153 56.1783 13.1599 54.753 13.1599C53.3278 13.1599 52.1724 14.3153 52.1724 15.7406C52.1724 17.1658 53.3278 18.3212 54.753 18.3212Z" fill="#194B34"/>
<path d="M56.6755 10.1518C56.6755 9.09002 55.8147 8.22925 54.7529 8.22925C53.6911 8.22925 52.8303 9.09002 52.8303 10.1518V15.3131C52.8303 16.3749 53.6911 17.2357 54.7529 17.2357C55.8147 17.2357 56.6755 16.3749 56.6755 15.3131V10.1518Z" fill="#FFB543"/>
</svg>
