<svg width="108" height="24" viewBox="0 0 108 24" fill="none" xmlns="http://www.w3.org/2000/svg">
<g clip-path="url(#clip0_1303_1416)">
<path d="M23.6047 8.46068H15.5113V0.394653H8.40856V8.46068H0.315186V15.5392H8.40856V23.6052H15.5113V15.5392H23.6047V8.46068Z" fill="#E4E6EA"/>
</g>
<path d="M51.6042 15.5529V8.44763L28.3148 8.44763V15.5529L51.6042 15.5529Z" fill="#E4E6EA"/>
<path d="M78.7369 6.28154L73.7184 1.26306L68 6.98148L62.2816 1.26306L57.2632 6.28154L62.9815 11.9999L57.2632 17.7183L62.2816 22.7367L68 17.0183L73.7184 22.7367L78.7369 17.7183L73.0184 11.9999L78.7369 6.28154Z" fill="#E4E6EA"/>
<path d="M106.974 15.0789V8.76306L85.0263 8.76306V15.0789L106.974 15.0789Z" fill="#E4E6EA"/>
<path d="M99.1575 23.9209V17.5261H92.8417V23.9209H99.1575Z" fill="#E4E6EA"/>
<path d="M99.1575 6.31579V0L92.8417 0V6.31579H99.1575Z" fill="#E4E6EA"/>
<defs>
<clipPath id="clip0_1303_1416">
<rect width="24" height="24" fill="white"/>
</clipPath>
</defs>
</svg>
