<svg width="500" height="500" viewBox="0 0 500 500" fill="none" xmlns="http://www.w3.org/2000/svg">
<g clip-path="url(#clip0_7838_20871)">
<path d="M500 460.938C500 482.512 482.512 500 460.938 500H39.0625C17.4883 500 0 482.512 0 460.938V39.0625C0 17.4883 17.4883 0 39.0625 0H460.938C482.512 0 500 17.4883 500 39.0625V460.938Z" fill="#FFE812"/>
<path d="M250 70.3125C137.816 70.3125 46.875 142.018 46.875 230.469C46.875 287.654 84.8945 337.832 142.086 366.166C138.975 376.896 122.092 435.197 121.42 439.777C121.42 439.777 121.016 443.219 123.244 444.531C125.473 445.844 128.094 444.824 128.094 444.824C134.484 443.932 202.201 396.365 213.922 388.105C225.631 389.764 237.688 390.625 250 390.625C362.184 390.625 453.125 318.922 453.125 230.469C453.125 142.018 362.184 70.3125 250 70.3125Z" fill="black"/>
<path d="M137.695 286.377C131.232 286.377 125.977 281.357 125.977 275.186V205.566H107.691C101.35 205.566 96.1914 200.418 96.1914 194.092C96.1914 187.766 101.352 182.617 107.691 182.617H167.699C174.041 182.617 179.199 187.766 179.199 194.092C179.199 200.418 174.039 205.566 167.699 205.566H149.414V275.186C149.414 281.357 144.158 286.377 137.695 286.377ZM240.453 286.225C235.566 286.225 231.828 284.24 230.701 281.049L224.898 265.857L189.164 265.855L183.357 281.057C182.234 284.242 178.498 286.225 173.611 286.225C171.041 286.227 168.5 285.676 166.162 284.607C162.932 283.117 159.826 279.02 163.385 267.967L191.416 194.186C193.391 188.574 199.389 182.793 207.021 182.619C214.676 182.791 220.674 188.574 222.652 194.197L250.672 267.945C254.238 279.023 251.133 283.123 247.902 284.609C245.564 285.676 243.023 286.227 240.453 286.225ZM218.736 245.1L207.031 211.848L195.326 245.1H218.736ZM269.531 284.668C263.338 284.668 258.301 279.848 258.301 273.926V194.336C258.301 187.873 263.668 182.617 270.264 182.617C276.859 182.617 282.227 187.873 282.227 194.336V263.184H307.129C313.322 263.184 318.359 268.004 318.359 273.926C318.359 279.848 313.322 284.668 307.129 284.668H269.531ZM334.637 286.225C328.174 286.225 322.918 280.969 322.918 274.506V194.336C322.918 187.873 328.174 182.617 334.637 182.617C341.1 182.617 346.355 187.873 346.355 194.336V219.523L379.051 186.828C380.732 185.146 383.043 184.221 385.551 184.221C388.477 184.221 391.414 185.482 393.615 187.682C395.668 189.732 396.893 192.371 397.061 195.111C397.23 197.875 396.311 200.408 394.475 202.246L367.77 228.947L396.615 267.162C397.547 268.388 398.225 269.787 398.611 271.277C398.998 272.768 399.084 274.32 398.865 275.844C398.656 277.369 398.147 278.837 397.366 280.164C396.586 281.49 395.55 282.649 394.318 283.572C392.292 285.113 389.815 285.944 387.27 285.937C385.454 285.946 383.661 285.529 382.036 284.72C380.41 283.911 378.996 282.733 377.908 281.279L350.426 244.865L346.359 248.932V274.5C346.356 277.608 345.12 280.588 342.922 282.786C340.724 284.984 337.745 286.22 334.637 286.225Z" fill="#FFE812"/>
</g>
<defs>
<clipPath id="clip0_7838_20871">
<rect width="500" height="500" fill="white"/>
</clipPath>
</defs>
</svg>
