<svg width="128" height="96" viewBox="0 0 128 96" fill="none" xmlns="http://www.w3.org/2000/svg">
<g clip-path="url(#clip0_2004_24138)">
<path d="M55.6198 83.6421C48.6239 83.6421 43.3776 81.3758 41.8454 79.8956C39.275 77.4148 39.2028 73.3198 41.6843 70.7501C43.8179 68.5394 47.145 68.1777 49.6702 69.6969C50.9498 70.2246 60.6903 73.7322 71.5306 63.9077C74.178 61.5096 78.2682 61.7109 80.667 64.3569C83.0659 67.0036 82.8645 71.0945 80.2178 73.4933C71.5862 81.3161 62.7053 83.6421 55.6198 83.6421Z" fill="#3BA8FA"/>
<path d="M52.9792 123.851C52.2411 123.851 51.4899 123.748 50.7449 123.532C46.4923 122.301 44.0434 117.854 45.2751 113.601C49.9936 97.311 45.1466 78.5069 45.0973 78.3188C43.9712 74.0426 46.5186 69.6545 50.7935 68.5214C55.0683 67.3876 59.4522 69.9225 60.5922 74.1953C60.8429 75.1333 66.6591 97.4075 60.6763 118.063C59.6598 121.57 56.457 123.851 52.9792 123.851Z" fill="#57CBF4"/>
<path d="M19.8212 123.851C16.3434 123.851 13.1405 121.57 12.124 118.063C6.14117 97.4075 11.9574 75.1333 12.2081 74.1953C13.3509 69.9176 17.7417 67.3709 22.0221 68.5179C26.2963 69.6593 28.8375 74.0467 27.7023 78.3209C27.6252 78.6166 22.8206 97.3588 27.5253 113.601C28.757 117.854 26.3082 122.301 22.0555 123.532C21.3104 123.748 20.5592 123.851 19.8212 123.851Z" fill="#57CBF4"/>
<path d="M34.1048 112.963H38.6955C52.4779 112.963 63.3185 101.187 62.1796 87.4514L61.4616 78.7914C60.4486 66.5738 50.237 57.1738 37.9775 57.1738H34.8229C22.5634 57.1738 12.3518 66.5738 11.3388 78.7914L10.6208 87.4514C9.48193 101.187 20.3224 112.963 34.1048 112.963Z" fill="#57CBF4"/>
<path d="M32.9065 102.643H52.1779C53.3426 102.643 54.2867 101.699 54.2867 100.534V89.2442C54.2867 88.0795 53.3426 87.1354 52.1779 87.1354H32.9065C31.7419 87.1354 30.7977 88.0795 30.7977 89.2442V100.534C30.7977 101.699 31.7419 102.643 32.9065 102.643Z" fill="#37BEE2"/>
<path d="M44.3975 103.982C23.607 103.982 14.1103 89.2858 13.5472 85.2463C13.0542 81.708 15.5225 78.4406 19.0607 77.947C22.106 77.527 24.9464 79.2891 25.9962 82.0421C26.6794 83.2446 32.1978 92.0151 46.7783 90.9577C50.3443 90.7126 53.4389 93.3801 53.6958 96.9433C53.9526 100.506 51.2733 103.603 47.7101 103.861C46.577 103.943 45.4709 103.982 44.3975 103.982Z" fill="#3BA8FA"/>
<path d="M16.4472 14.328C20.0308 14.328 22.9359 11.4229 22.9359 7.83929C22.9359 4.25568 20.0308 1.35059 16.4472 1.35059C12.8636 1.35059 9.9585 4.25568 9.9585 7.83929C9.9585 11.4229 12.8636 14.328 16.4472 14.328Z" fill="#3192D9"/>
<path d="M18.9319 9.71956L15.9136 10.9092L20.6007 22.8015L23.619 21.6119L18.9319 9.71956Z" fill="#3192D9"/>
<path d="M54.6827 14.328C58.2663 14.328 61.1714 11.4229 61.1714 7.83929C61.1714 4.25568 58.2663 1.35059 54.6827 1.35059C51.0991 1.35059 48.194 4.25568 48.194 7.83929C48.194 11.4229 51.0991 14.328 54.6827 14.328Z" fill="#3192D9"/>
<path d="M52.1979 9.71973L47.5107 21.6121L50.5291 22.8017L55.2162 10.9093L52.1979 9.71973Z" fill="#3192D9"/>
<path d="M0 49.5055C0 69.6088 16.2969 80.8669 36.4003 80.8669C56.5037 80.8669 72.8006 69.6089 72.8006 49.5055C72.8006 29.4022 56.5037 13.1052 36.4003 13.1052C16.2969 13.1052 0 29.4022 0 49.5055Z" fill="#57CBF4"/>
<path d="M15.2812 52.6737C15.2812 67.278 27.1205 71.1656 41.7248 71.1656C56.3291 71.1656 68.1684 67.2781 68.1684 52.6737C68.1684 38.0694 56.3291 33.0183 41.7248 33.0183C27.1205 33.0183 15.2812 38.0694 15.2812 52.6737Z" fill="#CCECFF"/>
<path d="M41.7246 72.773C22.849 72.773 13.6737 66.1986 13.6737 52.6734C13.6737 38.9621 23.6357 31.4109 41.7246 31.4109C59.8134 31.4109 69.7761 38.9622 69.7761 52.6734C69.7761 66.1986 60.6001 72.773 41.7246 72.773ZM41.7246 34.6255C30.3941 34.6255 16.8884 37.7568 16.8884 52.6734C16.8884 64.1934 24.7799 69.5583 41.7246 69.5583C58.6692 69.5583 66.5614 64.1934 66.5614 52.6734C66.5614 37.7568 53.055 34.6255 41.7246 34.6255Z" fill="white"/>
<path d="M56.4542 59.2292C60.3961 59.2292 63.5917 56.0336 63.5917 52.0916C63.5917 48.1497 60.3961 44.9541 56.4542 44.9541C52.5122 44.9541 49.3167 48.1497 49.3167 52.0916C49.3167 56.0336 52.5122 59.2292 56.4542 59.2292Z" fill="white"/>
<path d="M56.4544 56.7432C59.0234 56.7432 61.106 54.6606 61.106 52.0916C61.106 49.5225 59.0234 47.4399 56.4544 47.4399C53.8853 47.4399 51.8027 49.5225 51.8027 52.0916C51.8027 54.6606 53.8853 56.7432 56.4544 56.7432Z" fill="#003A7F"/>
<path opacity="0.13" d="M56.454 51.9595C57.5085 51.9595 58.3633 51.29 58.3633 50.4642C58.3633 49.6384 57.5085 48.969 56.454 48.969C55.3995 48.969 54.5447 49.6384 54.5447 50.4642C54.5447 51.29 55.3995 51.9595 56.454 51.9595Z" fill="white"/>
<path d="M34.5874 59.2292C38.5293 59.2292 41.7249 56.0336 41.7249 52.0916C41.7249 48.1497 38.5293 44.9541 34.5874 44.9541C30.6454 44.9541 27.4498 48.1497 27.4498 52.0916C27.4498 56.0336 30.6454 59.2292 34.5874 59.2292Z" fill="white"/>
<path d="M34.5877 56.7432C37.1567 56.7432 39.2393 54.6606 39.2393 52.0916C39.2393 49.5225 37.1567 47.4399 34.5877 47.4399C32.0186 47.4399 29.936 49.5225 29.936 52.0916C29.936 54.6606 32.0186 56.7432 34.5877 56.7432Z" fill="#003A7F"/>
<path opacity="0.13" d="M34.5874 51.9595C35.6419 51.9595 36.4967 51.29 36.4967 50.4642C36.4967 49.6384 35.6419 48.969 34.5874 48.969C33.5329 48.969 32.6781 49.6384 32.6781 50.4642C32.6781 51.29 33.5329 51.9595 34.5874 51.9595Z" fill="white"/>
<path d="M45.5271 61.2485C44.0406 61.2485 42.6541 60.6076 41.6945 59.4828C41.2064 59.0246 41.1356 58.2678 41.5564 57.7297C41.8036 57.4145 42.1875 57.2208 42.5882 57.2187C42.9881 57.2103 43.3748 57.3894 43.6255 57.7026C44.0927 58.2921 44.7843 58.626 45.5272 58.626H45.5286C46.2722 58.6253 46.9631 58.2914 47.4241 57.7082C47.874 57.1395 48.6988 57.0451 49.266 57.4936C49.834 57.9435 49.9298 58.7677 49.4806 59.3356C48.519 60.5499 47.079 61.247 45.53 61.2484L45.5271 61.2485Z" fill="#232323"/>
<path d="M66.005 63.1194C68.7101 63.1194 70.903 60.9265 70.903 58.2215C70.903 55.5164 68.7101 53.3235 66.005 53.3235C63.3 53.3235 61.1071 55.5164 61.1071 58.2215C61.1071 60.9265 63.3 63.1194 66.005 63.1194Z" fill="#253238"/>
<path d="M108.803 54.401C112.759 54.401 115.966 51.1941 115.966 47.2381C115.966 43.2821 112.759 40.0752 108.803 40.0752C104.847 40.0752 101.64 43.2821 101.64 47.2381C101.64 51.1941 104.847 54.401 108.803 54.401Z" fill="#253238"/>
<path d="M90.5347 82.108L85.4628 83.4096C84.6139 83.6275 83.7241 83.2511 83.2891 82.4902L73.0581 64.5932C72.4204 63.4776 73.0195 62.0611 74.2641 61.7417L79.336 60.4402C80.1849 60.2223 81.0748 60.5986 81.5098 61.3595L91.7407 79.2566C92.3785 80.3722 91.7793 81.7887 90.5347 82.108Z" fill="#253238"/>
<path d="M101.118 29.3669L86.4299 43.7468L67.1918 50.818C65.59 51.4066 64.6941 53.1123 65.1182 54.7653L67.0432 62.2661C67.4674 63.9191 69.074 64.9826 70.7613 64.7272L91.027 61.6605L110.824 67.1905L101.118 29.3669Z" fill="#3D4077"/>
<path d="M91.1217 61.6869L109.654 66.8637L110.673 66.6022L101.118 29.3669L86.5001 43.6781L91.1217 61.6869Z" fill="#565C9B"/>
<path d="M105.695 30.5498C105.157 28.4536 103.022 27.1904 100.926 27.7284C98.8296 28.2663 97.5665 30.4017 98.1044 32.4978L106.676 65.8973C107.214 67.9934 109.349 69.2566 111.445 68.7186C113.541 68.1807 114.804 66.0454 114.266 63.9492L105.695 30.5498Z" fill="#3D4077"/>
<path d="M109.14 8.70654L106.185 23.2051L112.665 22.7177L112.054 33.8015L117.85 19.4113L111.049 18.6224L109.14 8.70654Z" fill="#FFC200"/>
<path d="M125.859 23.2825L118.638 30.2558L122.449 32.4721L117.85 38.436L126.618 32.6145L123.118 29.5612L125.859 23.2825Z" fill="#FFC200"/>
</g>
<defs>
<clipPath id="clip0_2004_24138">
<rect width="128" height="96" fill="white"/>
</clipPath>
</defs>
</svg>
