<svg width="128" height="96" viewBox="0 0 128 96" fill="none" xmlns="http://www.w3.org/2000/svg">
<g clip-path="url(#clip0_2004_39829)">
<g clip-path="url(#clip1_2004_39829)">
<path d="M68.6006 61.0723C63.0592 61.0723 58.5603 56.5733 58.5603 51.0319V33.042C58.5603 32.4026 59.0793 31.8835 59.7187 31.8835L77.4825 31.8835C78.1219 31.8835 78.6409 32.4026 78.6409 33.042V51.0319C78.6409 56.5733 74.142 61.0723 68.6006 61.0723Z" fill="#FFC200"/>
<path d="M72.0875 79.0242C63.8898 79.0242 57.8597 75.7692 56.3732 73.9929C54.2238 71.4235 54.5637 67.5982 57.133 65.4482C59.341 63.599 62.4788 63.5905 64.6828 65.2593C65.8242 65.8773 74.5591 70.1128 85.6406 62.0226C88.3474 60.047 92.1415 60.6396 94.1164 63.345C96.0919 66.0511 95.4993 69.8459 92.7939 71.8207C85.3502 77.2551 78.13 79.0242 72.0875 79.0242Z" fill="#8E67EF"/>
<path d="M57.8565 112.525C57.1636 112.525 56.4598 112.429 55.7611 112.226C51.773 111.071 49.4764 106.901 50.6315 102.913C55.0918 87.5175 50.515 70.0132 50.4681 69.838C49.397 65.8264 51.7801 61.7054 55.7917 60.6337C59.8059 59.5671 63.9249 61.9464 64.9961 65.9573C65.2311 66.837 70.6863 87.7258 65.0749 107.097C64.1216 110.386 61.118 112.525 57.8565 112.525Z" fill="#A678FF"/>
<path d="M26.7612 112.526C23.4997 112.526 20.496 110.387 19.5427 107.097C13.9313 87.726 19.3865 66.8372 19.6216 65.9575C20.6926 61.9459 24.8097 59.564 28.8259 60.6338C32.8342 61.7049 35.2168 65.8188 34.1521 69.8278C34.0785 70.1091 29.5741 87.6824 33.9861 102.913C35.1412 106.901 32.8447 111.071 28.8565 112.227C28.1578 112.429 27.4533 112.526 26.7612 112.526Z" fill="#A678FF"/>
<path d="M40.1562 102.315H44.4614C57.3865 102.315 67.5529 91.2706 66.4849 78.3896L65.8115 70.2682C64.8615 58.8105 55.2851 49.9951 43.788 49.9951H40.8296C29.3326 49.9951 19.7561 58.8105 18.8061 70.2682L18.1327 78.3896C17.0647 91.2706 27.231 102.315 40.1562 102.315Z" fill="#A678FF"/>
<path d="M36.9338 92.6357H55.0066C56.0988 92.6357 56.9843 91.7503 56.9843 90.6581V80.07C56.9843 78.9778 56.0988 78.0924 55.0066 78.0924H36.9338C35.8416 78.0924 34.9561 78.9778 34.9561 80.07V90.6581C34.9561 91.7503 35.8416 92.6357 36.9338 92.6357Z" fill="#8E67EF"/>
<path d="M13.6879 97.1298C10.6139 97.1298 7.97879 94.8021 7.66042 91.6786C5.45832 70.0696 20.2011 59.8118 24.1678 59.1411C27.4684 58.5805 30.6009 60.8066 31.1603 64.1098C31.6408 66.9494 30.0638 69.662 27.5133 70.722C26.4044 71.3959 18.3389 76.7996 19.7297 90.448C20.0697 93.7811 17.6429 96.7581 14.3104 97.0979C14.1014 97.1194 13.893 97.1298 13.6879 97.1298Z" fill="#8E67EF"/>
<path d="M7.59875 42.8034C7.59875 61.6563 22.8821 72.2142 41.7351 72.2142C60.5882 72.2142 75.8715 61.6564 75.8715 42.8034C75.8715 23.9504 60.5882 8.66699 41.7351 8.66699C22.8821 8.66699 7.59875 23.9504 7.59875 42.8034Z" fill="#A678FF"/>
<path d="M14.2041 61.0723C8.66266 61.0723 4.16373 56.5733 4.16373 51.0319L4.16373 33.042C4.16373 32.4026 4.6828 31.8835 5.32215 31.8835L23.086 31.8835C23.7253 31.8835 24.2444 32.4026 24.2444 33.042L24.2444 51.0319C24.2444 56.5733 19.7455 61.0723 14.2041 61.0723Z" fill="#FFC200"/>
<path d="M70.6822 16.6396L61.6452 7.60266L63.4298 5.81807C64.2951 4.95279 65.7002 4.95279 66.5654 5.81807L72.4668 11.7194C73.3321 12.5847 73.3321 13.9898 72.4668 14.8551L70.6822 16.6396Z" fill="#FFC200"/>
<path d="M11.0036 11.7193L16.905 5.81794C17.7702 4.95266 19.1753 4.95266 20.0406 5.81794L21.8252 7.60254L12.7882 16.6395L11.0036 14.8549C10.1383 13.9896 10.1383 12.5846 11.0036 11.7193Z" fill="#FFC200"/>
<path d="M5.08875 34.7613C6.2659 15.5209 22.1983 0.268555 41.7349 0.268555C61.2718 0.268555 77.2042 15.5209 78.3813 34.7613L5.08875 34.7613Z" fill="#FFDC00"/>
<path d="M48.9438 27.6696C48.9438 27.3255 50.9378 3.58933 29.3145 2.42344L29.4134 2.08526C29.6671 1.21788 30.5245 0.672944 31.4176 0.811496L49.5363 3.62347L54.4499 27.2825L48.9438 27.6696Z" fill="#FFB600"/>
<path d="M40.2007 0C40.2007 0 62.2539 2.16155 64.6937 26.896H50.7627C50.7627 26.896 55.8076 4.73989 31.0302 0.78237L40.2007 0Z" fill="#FFC200"/>
<path d="M82.7402 36.2305L0.730064 36.2305C0.327141 36.2305 3.8147e-05 35.9034 3.8147e-05 35.5004C3.8147e-05 30.2908 4.2296 26.0613 9.43922 26.0613L74.031 26.0613C79.2407 26.0613 83.4702 30.2908 83.4702 35.5004C83.4702 35.9034 83.1431 36.2305 82.7402 36.2305Z" fill="#FFAA00"/>
<path d="M33.1153 53.6592L68.2544 53.6592C71.2354 53.6592 73.6519 51.2426 73.6519 48.2617V36.0897C73.6519 33.1087 71.2354 30.6921 68.2544 30.6921L33.1153 30.6921C30.1343 30.6921 27.7178 33.1087 27.7178 36.0897V48.2617C27.7178 51.2426 30.1343 53.6592 33.1153 53.6592Z" fill="#F1F1FF"/>
<path d="M68.2549 55.1669H33.1155C29.3077 55.1669 26.2103 52.0695 26.2103 48.2623V36.0901C26.2103 32.283 29.3077 29.1855 33.1155 29.1855H68.2549C72.0621 29.1855 75.1595 32.283 75.1595 36.0901V48.2623C75.1595 52.0695 72.0621 55.1669 68.2549 55.1669ZM33.1154 32.2003C30.97 32.2003 29.2249 33.9454 29.2249 36.0902V48.2624C29.2249 50.4072 30.97 52.1523 33.1154 52.1523H68.2548C70.3996 52.1523 72.1447 50.4072 72.1447 48.2624V36.0902C72.1447 33.9454 70.3996 32.2003 68.2548 32.2003H33.1154Z" fill="white"/>
<path d="M73.7376 49.7525L76.2395 49.1905C77.5867 48.8879 78.544 47.6918 78.544 46.3111V38.6309C78.544 37.2502 77.5867 36.054 76.2395 35.7515L73.7376 35.1895V49.7525Z" fill="white"/>
<path d="M27.6324 35.1895L25.1305 35.7515C23.7834 36.054 22.826 37.2502 22.826 38.6309V46.3111C22.826 47.6918 23.7833 48.8879 25.1305 49.1905L27.6324 49.7525V35.1895Z" fill="white"/>
<path d="M63.3494 48.8697C67.0462 48.8697 70.0431 45.8728 70.0431 42.176C70.0431 38.4793 67.0462 35.4824 63.3494 35.4824C59.6527 35.4824 56.6558 38.4793 56.6558 42.176C56.6558 45.8728 59.6527 48.8697 63.3494 48.8697Z" fill="white"/>
<path d="M63.3496 46.5381C65.7588 46.5381 67.7119 44.585 67.7119 42.1758C67.7119 39.7666 65.7588 37.8135 63.3496 37.8135C60.9403 37.8135 58.9872 39.7666 58.9872 42.1758C58.9872 44.585 60.9403 46.5381 63.3496 46.5381Z" fill="black"/>
<path opacity="0.13" d="M63.3495 42.0516C64.3384 42.0516 65.1401 41.4238 65.1401 40.6493C65.1401 39.8749 64.3384 39.2471 63.3495 39.2471C62.3606 39.2471 61.559 39.8749 61.559 40.6493C61.559 41.4238 62.3606 42.0516 63.3495 42.0516Z" fill="white"/>
<path d="M42.8427 48.8697C46.5394 48.8697 49.5363 45.8728 49.5363 42.176C49.5363 38.4793 46.5394 35.4824 42.8427 35.4824C39.1459 35.4824 36.149 38.4793 36.149 42.176C36.149 45.8728 39.1459 48.8697 42.8427 48.8697Z" fill="white"/>
<path d="M42.8428 46.5381C45.252 46.5381 47.2051 44.585 47.2051 42.1758C47.2051 39.7666 45.252 37.8135 42.8428 37.8135C40.4335 37.8135 38.4805 39.7666 38.4805 42.1758C38.4805 44.585 40.4335 46.5381 42.8428 46.5381Z" fill="black"/>
<path opacity="0.13" d="M42.8428 42.0516C43.8317 42.0516 44.6333 41.4238 44.6333 40.6493C44.6333 39.8749 43.8317 39.2471 42.8428 39.2471C41.8539 39.2471 41.0522 39.8749 41.0522 40.6493C41.0522 41.4238 41.8539 42.0516 42.8428 42.0516Z" fill="white"/>
<path d="M71.1563 59.38C73.6932 59.38 75.7497 57.3235 75.7497 54.7867C75.7497 52.2499 73.6932 50.1934 71.1563 50.1934C68.6195 50.1934 66.563 52.2499 66.563 54.7867C66.563 57.3235 68.6195 59.38 71.1563 59.38Z" fill="#253238"/>
<path d="M111.292 51.2034C115.002 51.2034 118.01 48.1959 118.01 44.486C118.01 40.776 115.002 37.7686 111.292 37.7686C107.583 37.7686 104.575 40.776 104.575 44.486C104.575 48.1959 107.583 51.2034 111.292 51.2034Z" fill="#253238"/>
<path d="M94.1605 77.1872L89.4041 78.4079C88.608 78.6122 87.7735 78.2592 87.3656 77.5457L77.7709 60.7617C77.1728 59.7155 77.7347 58.3872 78.9019 58.0876L83.6583 56.867C84.4545 56.6627 85.289 57.0156 85.6969 57.7292L95.2916 74.5132C95.8896 75.5594 95.3278 76.8877 94.1605 77.1872Z" fill="#253238"/>
<path d="M104.085 27.7266L90.3108 41.2121L72.2692 47.8435C70.7671 48.3955 69.9269 49.9951 70.3246 51.5452L72.1299 58.5796C72.5277 60.1297 74.0344 61.127 75.6168 60.8876L94.6221 58.0116L113.188 63.1977L104.085 27.7266Z" fill="#3D4077"/>
<path d="M94.7107 58.0363L112.09 62.8911L113.046 62.6459L104.085 27.7266L90.3765 41.1476L94.7107 58.0363Z" fill="#565C9B"/>
<path d="M108.378 28.836C107.873 26.8702 105.871 25.6856 103.905 26.1901C101.939 26.6946 100.755 28.6971 101.259 30.6629L109.297 61.985C109.802 63.9508 111.804 65.1354 113.77 64.6309C115.736 64.1265 116.92 62.1239 116.416 60.1582L108.378 28.836Z" fill="#3D4077"/>
<path d="M111.609 8.34961L108.838 21.9463L114.914 21.4893L114.341 31.8837L119.777 18.3886L113.399 17.6486L111.609 8.34961Z" fill="#FFC200"/>
<path d="M127.288 22.0195L120.516 28.5593L124.09 30.6376L119.777 36.2307L128 30.7712L124.718 27.9078L127.288 22.0195Z" fill="#FFC200"/>
</g>
</g>
<defs>
<clipPath id="clip0_2004_39829">
<rect width="128" height="96" fill="white"/>
</clipPath>
<clipPath id="clip1_2004_39829">
<rect width="128" height="112.525" fill="white"/>
</clipPath>
</defs>
</svg>
