<svg width="160" height="41" viewBox="0 0 160 41" fill="none" xmlns="http://www.w3.org/2000/svg">
<g clip-path="url(#clip0_3405_19747)">
<path d="M87.5188 4.87354H83.5317V26.2909H87.5188V4.87354Z" fill="#002775"/>
<path d="M122.662 10.984L129.413 17.7348L132.474 14.6735L122.742 4.94139L122.73 4.95327L122.65 4.87354L112.997 14.5269L116.058 17.5881L122.662 10.984Z" fill="#002775"/>
<path d="M110.317 4.87354H105.949V19.5642H110.317V4.87354Z" fill="#002775"/>
<path d="M160 10.2708H156.459V4.87354H152.129V19.5642H156.459V14.167H160V10.2708Z" fill="#002775"/>
<path d="M102.81 21.0142C98.6864 21.0142 95.3315 24.3688 95.3315 28.4923C95.3315 32.6157 98.6864 35.9706 102.81 35.9706C106.933 35.9706 110.288 32.6158 110.288 28.4923C110.288 24.3688 106.933 21.0142 102.81 21.0142ZM102.81 32.0744C100.835 32.0744 99.2277 30.4674 99.2277 28.4923C99.2277 26.5171 100.835 24.9104 102.81 24.9104C104.785 24.9104 106.392 26.5173 106.392 28.4923C106.392 30.4672 104.785 32.0744 102.81 32.0744Z" fill="#002775"/>
<path d="M149.29 14.8024C149.29 13.4892 148.905 12.2667 148.25 11.231H150.707V7.33476H144.528V4.15625H140.632V7.33476H134.452V11.231H136.909C136.254 12.2666 135.869 13.4891 135.869 14.8024C135.869 18.5024 138.88 21.5125 142.58 21.5125C146.28 21.5125 149.29 18.5024 149.29 14.8024ZM142.58 17.6163C141.028 17.6163 139.766 16.3539 139.766 14.8024C139.766 13.2508 141.028 11.9884 142.58 11.9884C144.131 11.9884 145.394 13.2508 145.394 14.8024C145.394 16.3539 144.131 17.6163 142.58 17.6163Z" fill="#002775"/>
<path d="M112.583 23.4602H120.571V31.2936H124.9V23.4602H132.888V19.564H112.583V23.4602Z" fill="#002775"/>
<path d="M151.331 22.9429H142.58V27.272H151.331V33.4194H155.66V22.9429H151.548H151.331Z" fill="#002775"/>
<path d="M71.6267 21.135V17.0929H79.4192V6.33984H67.7305V10.2361H75.5229V13.1967H67.7305V24.589C69.6307 24.9201 71.5813 25.1025 73.5749 25.1025C76.2046 25.1025 78.7614 24.7916 81.2207 24.2229V20.2169C78.7786 20.861 76.2167 21.2062 73.5749 21.2062C72.9196 21.2062 72.2714 21.1771 71.6267 21.135Z" fill="#002775"/>
<path d="M103.806 19.1793V15.1733C101.363 15.8175 98.8016 16.1627 96.1598 16.1627C95.5045 16.1627 94.8563 16.1335 94.2117 16.0914V10.2361H102.004V6.33984H90.3154V19.5454C92.2157 19.8764 94.1662 20.0589 96.1599 20.0589C98.7896 20.0589 101.346 19.748 103.806 19.1793Z" fill="#002775"/>
<path d="M27.2637 40.3491L26.2047 39.2899C21.3061 34.3916 6.87502 35.394 1.72762 36.1935L0 36.462V1.45614L1.26773 1.25917C2.04613 1.13793 19.5881 -1.50297 27.2637 4.28049C34.9394 -1.50263 52.4808 1.13793 53.2599 1.25917L54.5276 1.45614V9.13569H51.5323V4.0437C45.5953 3.30737 32.8581 2.77988 28.3228 7.31546L27.2638 8.37434L26.2047 7.31546C21.6694 2.78023 8.93217 3.30724 2.99532 4.0437V33.0064C7.74069 32.4578 20.8967 31.4581 27.2637 36.2549C33.6312 31.4577 46.7878 32.4571 51.5323 33.0064V27.1719H54.5276V36.4613L52.8003 36.1938C47.6505 35.3959 33.2147 34.3975 28.3228 39.2899L27.2637 40.3491Z" fill="#002775"/>
<path d="M18.6029 17.0484H14.8836V13.3291H11.6196V17.0484H7.90039V20.3124H11.6196V24.0316H14.8836V20.3124H18.6029V17.0484Z" fill="#4BC8DC"/>
<path d="M57.5024 20.1419V17.2197H47.4002V20.1419H57.5024Z" fill="#64C947"/>
<path d="M53.9126 24.1809V21.2588H50.9905V24.1809H53.9126Z" fill="#64C947"/>
<path d="M53.9126 16.1028V13.1807H50.9905V16.1028H53.9126Z" fill="#64C947"/>
<path d="M44.8865 16.0511L42.5786 13.7432L39.9486 16.3731L37.3188 13.7432L35.0107 16.0511L37.6407 18.6811L35.0107 21.311L37.3188 23.619L39.9486 20.989L42.5786 23.619L44.8865 21.311L42.2567 18.6811L44.8865 16.0511Z" fill="#FF9B4E"/>
<path d="M32.1582 20.3128V17.0488H21.4557V20.3128H32.1582Z" fill="#F7417A"/>
</g>
<defs>
<clipPath id="clip0_3405_19747">
<rect width="160" height="39.7959" fill="white" transform="translate(0 0.553223)"/>
</clipPath>
</defs>
</svg>
