<svg width="17" height="15" viewBox="0 0 17 15" fill="none" xmlns="http://www.w3.org/2000/svg">
<g clip-path="url(#clip0_2879_31312)">
<path d="M8.20019 0C3.78186 0 0.200195 2.83129 0.200195 6.32447C0.200195 8.59785 1.71758 10.5906 3.99547 11.7054C3.82818 12.3298 3.38942 13.9683 3.30183 14.3186C3.19317 14.7536 3.46072 14.748 3.6366 14.6315C3.77439 14.5397 5.82861 13.1424 6.71509 12.5395C7.19644 12.611 7.69273 12.6487 8.20019 12.6487C12.6185 12.6487 16.2002 9.81753 16.2002 6.32447C16.2002 2.8314 12.6185 0 8.20019 0Z" fill="#371C1D"/>
<path d="M2.61916 5.16021H3.44256C3.44256 5.16021 3.44779 7.42203 3.44332 7.94892C3.44445 8.33354 4.29995 8.33878 4.29882 7.95452L4.30255 5.18972C4.30255 5.18972 4.57833 5.19156 5.12185 5.19195C5.6338 5.19195 5.63419 4.38703 5.1224 4.38648C4.54566 4.38648 2.61806 4.37061 2.61806 4.37061C2.13484 4.37135 2.13635 5.16021 2.61916 5.16021Z" fill="#F9E000"/>
<mask id="mask0_2879_31312" style="mask-type:luminance" maskUnits="userSpaceOnUse" x="2" y="4" width="4" height="5">
<path d="M2.61916 5.16021H3.44256C3.44256 5.16021 3.44779 7.42203 3.44332 7.94892C3.44445 8.33354 4.29995 8.33878 4.29882 7.95452L4.30255 5.18972C4.30255 5.18972 4.57833 5.19156 5.12185 5.19195C5.6338 5.19195 5.63419 4.38703 5.1224 4.38648C4.54566 4.38648 2.61806 4.37061 2.61806 4.37061C2.13484 4.37135 2.13635 5.16021 2.61916 5.16021Z" fill="white"/>
</mask>
<g mask="url(#mask0_2879_31312)">
<path d="M5.63412 4.37061H2.13477V8.33878H5.63412V4.37061Z" fill="#F9E000"/>
</g>
<path d="M6.56028 5.3067L7.01847 6.74231H6.06345L6.56028 5.3067ZM6.04683 4.63415C5.84424 5.08039 5.11234 7.18762 4.86943 7.74663C4.69355 8.15068 5.45121 8.48004 5.62691 8.07619L5.79178 7.49999H7.29855C7.29855 7.49999 7.24664 7.52351 7.44678 8.05172C7.60885 8.47891 8.39117 8.18279 8.22893 7.75521C7.99758 7.14429 7.19735 4.94558 7.05133 4.63415C6.98411 4.49002 6.74269 4.38696 6.50913 4.38696C6.31568 4.38696 6.12711 4.45752 6.04683 4.63415Z" fill="#F9E000"/>
<mask id="mask1_2879_31312" style="mask-type:luminance" maskUnits="userSpaceOnUse" x="4" y="4" width="5" height="5">
<path d="M6.56028 5.3067L7.01847 6.74231H6.06345L6.56028 5.3067ZM6.04683 4.63415C5.84424 5.08039 5.11234 7.18762 4.86943 7.74663C4.69355 8.15068 5.45121 8.48004 5.62691 8.07619L5.79178 7.49999H7.29855C7.29855 7.49999 7.24664 7.52351 7.44678 8.05172C7.60885 8.47891 8.39117 8.18279 8.22893 7.75521C7.99758 7.14429 7.19735 4.94558 7.05133 4.63415C6.98411 4.49002 6.74269 4.38696 6.50913 4.38696C6.31568 4.38696 6.12711 4.45752 6.04683 4.63415Z" fill="white"/>
</mask>
<g mask="url(#mask1_2879_31312)">
<path d="M8.39111 4.38696H4.69348V8.48004H8.39111V4.38696Z" fill="#F9E000"/>
</g>
<path d="M8.51744 4.76597C8.51892 5.48219 8.52152 7.79031 8.52152 7.79031C8.52152 7.79031 8.45543 8.24906 8.84866 8.24906C9.24189 8.24906 10.1149 8.24477 10.502 8.24477C10.889 8.24477 10.8868 7.42155 10.4999 7.42155C10.1127 7.42155 9.40654 7.41744 9.40654 7.41744C9.40654 7.41744 9.40989 5.2824 9.40879 4.7639C9.40805 4.51315 9.18586 4.3877 8.96348 4.3877C8.74017 4.3877 8.51705 4.51391 8.51744 4.76597Z" fill="#F9E000"/>
<mask id="mask2_2879_31312" style="mask-type:luminance" maskUnits="userSpaceOnUse" x="8" y="4" width="3" height="5">
<path d="M8.51744 4.76597C8.51892 5.48219 8.52152 7.79031 8.52152 7.79031C8.52152 7.79031 8.45543 8.24906 8.84866 8.24906C9.24189 8.24906 10.1149 8.24477 10.502 8.24477C10.889 8.24477 10.8868 7.42155 10.4999 7.42155C10.1127 7.42155 9.40654 7.41744 9.40654 7.41744C9.40654 7.41744 9.40989 5.2824 9.40879 4.7639C9.40805 4.51315 9.18586 4.3877 8.96348 4.3877C8.74017 4.3877 8.51705 4.51391 8.51744 4.76597Z" fill="white"/>
</mask>
<g mask="url(#mask2_2879_31312)">
<path d="M10.8889 4.3877H8.45544V8.24906H10.8889V4.3877Z" fill="#F9E000"/>
</g>
<path d="M10.9921 4.65187C11.0007 4.96592 10.982 7.80581 10.9822 8.01624C10.9823 8.3484 11.8278 8.34763 11.8276 8.01566C11.8274 7.6301 11.8276 6.89838 11.8276 6.89838L12.0759 6.69936L13.1614 8.18052C13.3809 8.46993 14.0714 7.94694 13.8522 7.65755L12.6993 6.13923C12.6993 6.13923 13.4818 5.29305 13.7902 4.98646C13.9702 4.80779 13.413 4.24634 13.2331 4.42558C13.0587 4.59849 11.833 5.82553 11.833 5.82553C11.833 5.82553 11.844 5.05499 11.8326 4.62909C11.8283 4.4674 11.6299 4.38916 11.4269 4.38916C11.2098 4.38916 10.9876 4.4788 10.9921 4.65187Z" fill="#F9E000"/>
<mask id="mask3_2879_31312" style="mask-type:luminance" maskUnits="userSpaceOnUse" x="10" y="4" width="4" height="5">
<path d="M10.9921 4.65187C11.0007 4.96592 10.982 7.80581 10.9822 8.01624C10.9823 8.3484 11.8278 8.34763 11.8276 8.01566C11.8274 7.6301 11.8276 6.89838 11.8276 6.89838L12.0759 6.69936L13.1614 8.18052C13.3809 8.46993 14.0714 7.94694 13.8522 7.65755L12.6993 6.13923C12.6993 6.13923 13.4818 5.29305 13.7902 4.98646C13.9702 4.80779 13.413 4.24634 13.2331 4.42558C13.0587 4.59849 11.833 5.82553 11.833 5.82553C11.833 5.82553 11.844 5.05499 11.8326 4.62909C11.8283 4.4674 11.6299 4.38916 11.4269 4.38916C11.2098 4.38916 10.9876 4.4788 10.9921 4.65187Z" fill="white"/>
</mask>
<g mask="url(#mask3_2879_31312)">
<path d="M14.0715 4.24634H10.9821V8.46992H14.0715V4.24634Z" fill="#F9E000"/>
</g>
</g>
<defs>
<clipPath id="clip0_2879_31312">
<rect width="16" height="14.699" fill="white" transform="translate(0.200195)"/>
</clipPath>
</defs>
</svg>
