<svg width="136" height="40" viewBox="0 0 136 40" fill="none" xmlns="http://www.w3.org/2000/svg">
<path d="M74.0154 7.47382H70.8257V24.6957H74.0154V7.47382Z" fill="#002775"/>
<path d="M102.13 12.3873L107.53 17.8156L109.979 15.3542L102.194 7.5282L102.184 7.53789L102.12 7.47385L94.3976 15.2361L96.8465 17.6976L102.13 12.3873Z" fill="#002775"/>
<path d="M92.2536 7.47382H88.7596V19.2867H92.2536V7.47382Z" fill="#002775"/>
<path d="M132 11.8137H129.167V7.47385H125.704V19.2866H129.167V14.9467H132V11.8137Z" fill="#002775"/>
<path d="M86.248 20.4525C85.0647 20.4525 83.9081 20.8052 82.9242 21.4659C81.9404 22.1267 81.1736 23.0658 80.7207 24.1646C80.2679 25.2634 80.1495 26.4725 80.3803 27.639C80.6112 28.8054 81.1809 29.8769 82.0176 30.7179C82.8543 31.5589 83.9203 32.1316 85.0808 32.3636C86.2413 32.5956 87.4442 32.4766 88.5374 32.0214C89.6306 31.5663 90.565 30.7955 91.2223 29.8067C91.8797 28.8178 92.2306 27.6551 92.2306 26.4658C92.2288 24.8715 91.5979 23.3431 90.4763 22.2158C89.3547 21.0884 87.8341 20.4543 86.248 20.4525ZM86.248 29.3461C85.6812 29.3461 85.1272 29.1772 84.6559 28.8607C84.1847 28.5442 83.8174 28.0944 83.6005 27.5681C83.3836 27.0418 83.3269 26.4626 83.4374 25.9039C83.548 25.3452 83.8209 24.832 84.2217 24.4291C84.6224 24.0263 85.1331 23.752 85.6889 23.6408C86.2448 23.5297 86.821 23.5867 87.3446 23.8048C87.8682 24.0228 88.3158 24.3919 88.6306 24.8656C88.9455 25.3393 89.1136 25.8962 89.1136 26.4658C89.1126 27.2294 88.8104 27.9615 88.2732 28.5015C87.736 29.0414 87.0077 29.3452 86.248 29.3461V29.3461Z" fill="#002775"/>
<path d="M123.432 15.4575C123.432 14.4403 123.143 13.4442 122.601 12.5858H124.566V9.45274H119.622V6.89685H116.505V9.45274H111.562V12.5858H113.527C113.084 13.2932 112.81 14.0945 112.728 14.9265C112.645 15.7585 112.757 16.5984 113.053 17.3798C113.349 18.1611 113.822 18.8626 114.434 19.4287C115.046 19.9949 115.781 20.4102 116.58 20.642C117.379 20.8737 118.221 20.9154 119.039 20.7639C119.857 20.6124 120.629 20.2718 121.293 19.769C121.958 19.2661 122.497 18.6149 122.868 17.8666C123.24 17.1184 123.433 16.2936 123.432 15.4575ZM118.064 17.7202C117.619 17.7202 117.183 17.5875 116.813 17.3388C116.443 17.0902 116.154 16.7368 115.984 16.3234C115.814 15.9099 115.769 15.4549 115.856 15.016C115.943 14.5771 116.157 14.1739 116.472 13.8575C116.787 13.5411 117.188 13.3256 117.625 13.2383C118.061 13.151 118.514 13.1958 118.925 13.367C119.337 13.5383 119.688 13.8283 119.936 14.2004C120.183 14.5725 120.315 15.01 120.315 15.4575C120.314 16.0574 120.077 16.6325 119.655 17.0567C119.233 17.4809 118.661 17.7195 118.064 17.7202Z" fill="#002775"/>
<path d="M94.0663 22.4196H100.457V28.7186H103.92V22.4196H110.31V19.2866H94.0663V22.4196Z" fill="#002775"/>
<path d="M125.065 22.0035H118.064V25.4845H125.065V30.4277H128.529V22.0035H125.239H125.065Z" fill="#002775"/>
<path d="M61.3017 20.5498V17.2997H67.5357V8.65286H58.1846V11.7859H64.4187V14.1666H58.1846V23.3273C61.7648 23.9638 65.4362 23.8637 68.9768 23.033V19.8118C66.9806 20.3408 64.9246 20.6082 62.8602 20.6074C62.336 20.6071 61.8174 20.5837 61.3017 20.5498Z" fill="#002775"/>
<path d="M87.0447 18.9772V15.756C85.0485 16.285 82.9925 16.5524 80.9281 16.5515C80.4038 16.5515 79.8853 16.528 79.3695 16.4941V11.7859H85.6036V8.65292H76.2525V19.2716C79.8327 19.9081 83.5041 19.808 87.0447 18.9773L87.0447 18.9772Z" fill="#002775"/>
<path d="M25.811 36L24.9637 35.1484C21.0449 31.2096 9.50002 32.0156 5.3821 32.6585L4 32.8744V4.72601L5.01418 4.56765C5.6369 4.47016 19.6704 2.34662 25.811 6.99711C31.9515 2.34686 45.9847 4.47016 46.6079 4.56765L47.6221 4.72601V10.901H45.2259V6.80663C40.4763 6.21464 30.2865 5.79038 26.6583 9.43744L25.811 10.2889L24.9637 9.43744C21.3355 5.79062 11.1457 6.2144 6.39621 6.80663V30.0958C10.1925 29.6546 20.7173 28.8507 25.811 32.7079C30.905 28.8505 41.4302 29.6541 45.2258 30.0958V25.404H47.6221V32.8738L46.2402 32.6587C42.1204 32.0171 30.5718 31.2143 26.6582 35.1483L25.811 36Z" fill="#002775"/>
<path d="M18.8826 17.2642H15.9074V14.2734H13.296V17.2642H10.3205V19.8886H13.296V22.8794H15.9074V19.8886H18.8826V17.2642Z" fill="#4BC8DC"/>
<path d="M50.0025 19.7512V17.4015H41.9207V19.7512H50.0025Z" fill="#64C947"/>
<path d="M47.1305 22.9989V20.6492H44.7928V22.9989H47.1305Z" fill="#64C947"/>
<path d="M47.1305 16.5036V14.1539H44.7928V16.5036H47.1305Z" fill="#64C947"/>
<path d="M39.9096 16.4617L38.0631 14.6057L35.9591 16.7206L33.8553 14.6057L32.0089 16.4617L34.1126 18.5762L32.0089 20.6911L33.8553 22.547L35.9591 20.4321L38.0631 22.547L39.9096 20.6911L37.8055 18.5762L39.9096 16.4617Z" fill="#FF9B4E"/>
<path d="M29.7268 19.8887V17.2641H21.1648V19.8887H29.7268Z" fill="#F7417A"/>
</svg>
