<svg width="1200" height="300" viewBox="0 0 1200 300" fill="none" xmlns="http://www.w3.org/2000/svg">
<g clip-path="url(#clip0_4327_44322)">
<path opacity="0.1" d="M10.3143 343.198C3.80438 332.937 -6.10352e-05 320.721 -6.10352e-05 307.572C-6.10352e-05 271.184 28.9279 241.666 64.6193 241.666C72.7918 241.666 80.5698 243.275 87.756 246.092C85.2197 239.984 83.8247 233.273 83.8247 226.231C83.8247 198.035 106.243 175.17 133.888 175.17C139.835 175.17 145.513 176.277 150.811 178.231C150.431 175.874 150.191 173.489 150.191 171.017C150.191 146.428 169.735 126.495 193.844 126.495C198.733 126.495 203.411 127.358 207.808 128.866C206.723 124.498 206.075 119.942 206.075 115.214C206.075 84.7184 230.31 60 260.21 60C290.111 60 314.346 84.7184 314.346 115.214C314.346 115.271 314.346 115.329 314.346 115.372C318.813 114.15 323.477 113.432 328.324 113.432C357.9 113.432 381.883 137.892 381.883 168.057C381.883 175.055 380.544 181.738 378.191 187.889C394.508 199.975 405.16 219.534 405.16 241.68C405.16 245.301 404.794 248.837 404.258 252.3C415.911 245.546 429.382 241.68 443.754 241.68C488.027 241.68 523.916 278.283 523.916 323.437C523.916 330.249 523.084 336.874 521.548 343.198H10.3282H10.3143Z" fill="white"/>
<g opacity="0.1">
<path d="M210.855 5.28917C210.794 5.28917 210.732 5.29423 210.671 5.30447L96.8553 23.8798C96.5623 23.9269 96.2965 24.0796 96.1069 24.3088L61.3614 66.3478C61.3465 66.3656 61.3322 66.3847 61.3182 66.4037L7.08922 140.216C6.68745 140.764 6.80445 141.535 7.35021 141.938C7.64062 142.153 8.01077 142.228 8.36146 142.145L65.6133 128.473L140.805 118.68L159.629 186.656C159.659 186.765 159.704 186.871 159.763 186.968L174.919 211.855C175.272 212.434 176.027 212.618 176.606 212.263C177.184 211.908 177.366 211.15 177.013 210.57L161.947 185.83L143.028 117.515L211.908 7.1744C212.268 6.59775 212.093 5.83778 211.519 5.47625C211.32 5.35151 211.09 5.28667 210.855 5.28917ZM208.388 8.17259L140.97 116.174L65.2327 126.038C65.1904 126.044 65.1486 126.052 65.1071 126.062L11.0544 138.97L63.2729 67.8933L97.7027 26.2375L208.388 8.17259Z" fill="white"/>
<path d="M14.8235 141.282C14.8235 145.39 11.5052 148.72 7.41188 148.72C3.31858 148.72 0 145.39 0 141.282C0 137.174 3.31829 133.844 7.41188 133.844C11.5052 133.844 14.8235 137.174 14.8235 141.282Z" fill="white"/>
<path d="M73.8344 127.917C73.8344 132.025 70.5162 135.355 66.4229 135.355C62.3296 135.355 59.011 132.025 59.011 127.917C59.011 123.809 62.3293 120.479 66.4229 120.479C70.5162 120.479 73.8344 123.809 73.8344 127.917Z" fill="white"/>
<path d="M148.067 115.794C148.067 119.901 144.749 123.232 140.655 123.232C136.561 123.232 133.244 119.901 133.244 115.794C133.244 111.686 136.562 108.355 140.655 108.355C144.749 108.355 148.067 111.686 148.067 115.794Z" fill="white"/>
<path d="M168.962 186.767C168.962 190.875 165.644 194.205 161.55 194.205C157.457 194.205 154.139 190.875 154.139 186.767C154.139 182.659 157.457 179.329 161.55 179.329C165.644 179.329 168.962 182.659 168.962 186.767Z" fill="white"/>
<path d="M184.578 211.462C184.578 215.57 181.26 218.9 177.166 218.9C173.073 218.9 169.754 215.57 169.754 211.462C169.754 207.355 173.072 204.024 177.166 204.024C181.26 204.024 184.578 207.355 184.578 211.462Z" fill="white"/>
<path d="M220.286 6.05343C220.286 10.1613 216.967 13.4915 212.874 13.4915C208.781 13.4915 205.462 10.1613 205.462 6.05343C205.462 1.94487 208.781 -1.38525 212.874 -1.38525C216.967 -1.38525 220.286 1.94553 220.286 6.05343Z" fill="white"/>
<path d="M103.07 26.2857C103.07 30.3936 99.7514 33.7237 95.6581 33.7237C91.5648 33.7244 88.2458 30.3936 88.2458 26.2857C88.2458 22.1777 91.5641 18.8477 95.6581 18.8477C99.7514 18.8477 103.07 22.1777 103.07 26.2857Z" fill="white"/>
<path d="M70.1035 67.6048C70.1035 71.7127 66.7852 75.0428 62.6919 75.0428C58.5986 75.0428 55.2803 71.7127 55.2803 67.6048C55.2803 63.4969 58.5986 60.1667 62.6919 60.1667C66.7852 60.1667 70.1035 63.4969 70.1035 67.6048Z" fill="white"/>
</g>
<path opacity="0.1" d="M1189.69 343.198C1196.2 332.937 1200 320.721 1200 307.572C1200 271.184 1171.07 241.666 1135.38 241.666C1127.21 241.666 1119.43 243.275 1112.24 246.092C1114.78 239.984 1116.18 233.273 1116.18 226.231C1116.18 198.035 1093.76 175.17 1066.11 175.17C1060.17 175.17 1054.49 176.277 1049.19 178.231C1049.57 175.874 1049.81 173.489 1049.81 171.017C1049.81 146.428 1030.27 126.495 1006.16 126.495C1001.27 126.495 996.589 127.358 992.192 128.866C993.277 124.498 993.925 119.942 993.925 115.214C993.925 84.7184 969.69 60 939.79 60C909.889 60 885.654 84.7184 885.654 115.214C885.654 115.271 885.654 115.329 885.654 115.372C881.187 114.15 876.523 113.432 871.676 113.432C842.1 113.432 818.117 137.892 818.117 168.057C818.117 175.055 819.456 181.738 821.809 187.889C805.492 199.975 794.84 219.534 794.84 241.68C794.84 245.301 795.206 248.837 795.742 252.3C784.089 245.546 770.618 241.68 756.246 241.68C711.973 241.68 676.084 278.283 676.084 323.437C676.084 330.249 676.916 336.874 678.452 343.198H1189.67H1189.69Z" fill="white"/>
<g opacity="0.1">
<path d="M1009.34 12.034C1008.98 11.9448 1008.6 12.0135 1008.29 12.2235L977.828 33.2337C977.243 33.6386 977.097 34.4395 977.5 35.0252C977.903 35.6096 978.704 35.7575 979.289 35.3548L1009.22 14.7146L1052.72 29.68L1086.45 71.3305L1071.52 139.595L1055.58 116.528C1055.39 116.25 1055.1 116.058 1054.76 115.995C1054.7 115.983 1054.64 115.976 1054.58 115.973L1016.19 114.237C1015.96 114.227 1015.72 114.28 1015.52 114.391L1007.35 118.827C1007.12 118.951 1006.93 119.142 1006.81 119.374L993.886 144.755C993.562 145.389 993.814 146.165 994.447 146.489L994.448 146.489C995.081 146.812 995.857 146.561 996.181 145.927L996.181 145.926L1008.93 120.901L1016.43 116.827L1053.83 118.52L1070.38 142.48L1044 162.259C1043.93 162.311 1043.86 162.371 1043.8 162.437L1022.62 186.465C1022.15 186.998 1022.2 187.812 1022.73 188.284C1022.73 188.284 1022.74 188.284 1022.74 188.285C1023.27 188.756 1024.08 188.706 1024.55 188.173C1024.55 188.172 1024.56 188.172 1024.56 188.171L1045.65 164.24L1072.45 144.15L1177.39 166.351C1178.08 166.498 1178.76 166.059 1178.92 165.367L1193.61 98.4965C1193.76 97.8201 1193.34 97.1467 1192.67 96.9731L1088.57 69.8613L1054.49 27.7714C1054.34 27.5839 1054.13 27.4421 1053.91 27.3633L1009.45 12.0669C1009.41 12.0525 1009.37 12.0399 1009.34 12.0286L1009.34 12.034ZM1088.81 72.5866L1190.83 99.1557L1176.67 163.565L1073.68 141.774L1088.81 72.5866Z" fill="white"/>
<path d="M1095.68 74.5224C1094.78 78.47 1090.86 80.943 1086.91 80.0461C1082.96 79.1492 1080.49 75.2219 1081.39 71.2744C1082.29 67.3262 1086.21 64.8533 1090.16 65.7502C1094.1 66.6471 1096.57 70.5743 1095.68 74.5224Z" fill="white"/>
<path d="M1199.82 100.642C1198.92 104.59 1194.99 107.063 1191.05 106.166C1187.1 105.269 1184.63 101.342 1185.53 97.3945C1186.43 93.4469 1190.35 90.9739 1194.3 91.8708C1198.24 92.7677 1200.71 96.6949 1199.82 100.642Z" fill="white"/>
<path d="M1183.9 167.647C1183.01 171.595 1179.08 174.068 1175.14 173.171C1171.19 172.274 1168.72 168.347 1169.61 164.399C1170.51 160.452 1174.44 157.979 1178.38 158.876C1182.33 159.773 1184.8 163.7 1183.9 167.647Z" fill="white"/>
<path d="M1079.34 144.927C1078.44 148.875 1074.52 151.348 1070.57 150.451C1066.63 149.554 1064.16 145.627 1065.05 141.679C1065.95 137.732 1069.87 135.259 1073.82 136.155C1077.76 137.052 1080.24 140.979 1079.34 144.927Z" fill="white"/>
<path d="M1052.71 163.697C1051.82 167.644 1047.89 170.118 1043.95 169.221C1040 168.324 1037.53 164.397 1038.43 160.449C1039.32 156.501 1043.25 154.028 1047.19 154.925C1051.14 155.822 1053.61 159.749 1052.71 163.697Z" fill="white"/>
<path d="M1060.02 119.209C1059.12 123.156 1055.2 125.629 1051.25 124.732C1047.31 123.835 1044.84 119.908 1045.73 115.961C1046.63 112.013 1050.56 109.539 1054.5 110.436C1058.45 111.333 1060.92 115.26 1060.02 119.209Z" fill="white"/>
<path d="M1018.44 119.196C1017.55 123.143 1013.62 125.616 1009.67 124.72C1005.73 123.823 1003.26 119.896 1004.15 115.948C1005.05 112 1008.98 109.527 1012.92 110.424C1016.87 111.321 1019.34 115.248 1018.44 119.196Z" fill="white"/>
<path d="M1001.27 147.108C1000.38 151.056 996.449 153.529 992.504 152.632C988.558 151.735 986.087 147.808 986.983 143.86C987.88 139.913 991.805 137.44 995.75 138.337C999.696 139.233 1002.17 143.161 1001.27 147.108Z" fill="white"/>
<path d="M984.273 37.3101C983.376 41.2577 979.451 43.7307 975.506 42.8339C971.56 41.937 969.089 38.0097 969.985 34.0622C970.881 30.1146 974.806 27.6416 978.752 28.5385C982.697 29.4354 985.169 33.3626 984.273 37.3101Z" fill="white"/>
<path d="M1016.16 16.938C1015.26 20.8855 1011.33 23.3585 1007.39 22.4615C1003.44 21.5646 1000.97 17.6374 1001.87 13.6899C1002.76 9.7423 1006.69 7.2693 1010.63 8.16619C1014.58 9.06307 1017.05 12.9904 1016.16 16.938Z" fill="white"/>
<path d="M1060.18 30.7923C1059.29 34.7399 1055.36 37.2128 1051.41 36.316C1047.47 35.4191 1045 31.4919 1045.89 27.5444C1046.79 23.5969 1050.72 21.1238 1054.66 22.0207C1058.61 22.9176 1061.08 26.8448 1060.18 30.7923Z" fill="white"/>
<path d="M1029.89 190.325C1029 194.272 1025.07 196.745 1021.13 195.848C1017.18 194.951 1014.71 191.024 1015.61 187.077C1016.5 183.129 1020.43 180.656 1024.37 181.553C1028.32 182.45 1030.79 186.377 1029.89 190.325Z" fill="white"/>
</g>
<g clip-path="url(#clip1_4327_44322)">
<g clip-path="url(#clip2_4327_44322)">
<path d="M900.124 350.732C900.124 304.283 889.175 260.412 869.805 221.467L875.656 217.39C882.657 212.513 884.379 202.884 879.501 195.883L838.29 136.731C833.413 129.73 823.784 128.009 816.784 132.886L808.302 138.795C756.294 89.9643 686.361 60 609.392 60C484.255 60 377.601 139.068 336.619 249.964L332.811 249.199C324.446 247.52 316.303 252.939 314.623 261.304L300.43 331.986C298.75 340.351 304.169 348.494 312.534 350.174L318.677 351.407C319.037 508.314 443.697 635.943 599.404 641.211C600.518 649.442 607.936 655.372 616.258 654.514L687.97 647.118C696.457 646.242 702.627 638.653 701.752 630.166L701.376 626.522C816.843 588.024 900.124 479.139 900.124 350.732Z" fill="#2E72D6"/>
<path d="M550.246 260.116C550.246 208.791 508.639 167.184 457.314 167.184C405.989 167.184 364.381 208.791 364.381 260.116C364.381 293.195 381.678 322.216 407.706 338.685C407.269 341.128 407.002 343.632 407.002 346.201C407.002 369.646 426.008 388.651 449.452 388.651C472.837 388.651 491.799 369.738 491.893 346.374C526.087 332.652 550.246 299.216 550.246 260.116Z" fill="#296CD5"/>
<path d="M833.507 132.316C828.456 129.312 821.919 129.308 816.783 132.886L808.302 138.795C782.656 114.716 752.638 95.2527 719.581 81.6792C684.355 94.1236 659.108 127.697 659.108 167.184C659.108 217.264 699.706 257.862 749.786 257.862C799.867 257.862 840.464 217.264 840.464 167.184C840.464 154.827 837.983 143.051 833.507 132.316Z" fill="#296CD5"/>
<path d="M532.519 244.694C556.375 244.694 575.715 225.355 575.715 201.499C575.715 177.642 556.375 158.303 532.519 158.303C508.663 158.303 489.323 177.642 489.323 201.499C489.323 225.355 508.663 244.694 532.519 244.694Z" fill="#296CD5"/>
</g>
</g>
</g>
<defs>
<clipPath id="clip0_4327_44322">
<rect width="1200" height="300" fill="white"/>
</clipPath>
<clipPath id="clip1_4327_44322">
<rect width="600" height="240" fill="white" transform="translate(300 60)"/>
</clipPath>
<clipPath id="clip2_4327_44322">
<rect width="600" height="594.597" fill="white" transform="translate(300.124 60)"/>
</clipPath>
</defs>
</svg>
