<svg width="241" height="240" viewBox="0 0 241 240" fill="none" xmlns="http://www.w3.org/2000/svg">
<g clip-path="url(#clip0_4282_6246)">
<g clip-path="url(#clip1_4282_6246)">
<path d="M178.478 37.4808C188.826 37.4808 197.216 29.0915 197.216 18.7428C197.216 8.39415 188.826 0.00488281 178.478 0.00488281C168.129 0.00488281 159.74 8.39415 159.74 18.7428C159.74 29.0915 168.129 37.4808 178.478 37.4808Z" fill="#3192D9"/>
<path d="M180.019 27.6082L171.302 24.1729L157.767 58.5153L166.483 61.9507L180.019 27.6082Z" fill="#3192D9"/>
<path d="M68.0622 37.4808C78.4109 37.4808 86.8001 29.0915 86.8001 18.7428C86.8001 8.39415 78.4109 0.00488281 68.0622 0.00488281C57.7135 0.00488281 49.3242 8.39415 49.3242 18.7428C49.3242 29.0915 57.7135 37.4808 68.0622 37.4808Z" fill="#3192D9"/>
<path d="M80.0561 61.9505L88.7725 58.5151L75.2371 24.1727L66.5208 27.6081L80.0561 61.9505Z" fill="#3192D9"/>
<path d="M73.364 216.338C73.364 216.338 57.3073 276.457 72.9906 330.603" stroke="#57CBF4" stroke-width="46.3034" stroke-miterlimit="10" stroke-linecap="round"/>
<path d="M168.351 216.338C168.351 216.338 184.407 276.457 168.724 330.603" stroke="#57CBF4" stroke-width="46.3034" stroke-miterlimit="10" stroke-linecap="round"/>
<path d="M127.486 322.318H114.229C74.4282 322.318 43.123 288.309 46.4117 248.645L48.4851 223.637C51.4105 188.355 80.8992 161.21 116.302 161.21H125.412C160.815 161.21 190.304 188.355 193.229 223.637L195.302 248.645C198.591 288.309 167.286 322.318 127.486 322.318Z" fill="#57CBF4"/>
<path d="M225.973 139.066C225.973 197.12 178.911 229.631 120.857 229.631C62.803 229.631 15.7412 197.12 15.7412 139.066C15.7412 81.0124 62.8032 33.9502 120.857 33.9502C178.911 33.9502 225.973 81.0122 225.973 139.066Z" fill="#57CBF4"/>
<path d="M197.22 148.214C197.22 190.388 163.031 201.614 120.857 201.614C78.6832 201.614 44.4941 190.388 44.4941 148.214C44.4941 106.039 78.6832 91.4531 120.857 91.4531C163.031 91.4531 197.22 106.039 197.22 148.214Z" fill="#CCECFF" stroke="white" stroke-width="9.28264" stroke-miterlimit="10"/>
<path d="M89.2845 159.992C100.668 159.992 109.896 150.764 109.896 139.381C109.896 127.997 100.668 118.769 89.2845 118.769C77.901 118.769 68.6729 127.997 68.6729 139.381C68.6729 150.764 77.901 159.992 89.2845 159.992Z" fill="white"/>
<path d="M89.2839 148.114C96.7027 148.114 102.717 142.1 102.717 134.681C102.717 127.262 96.7027 121.248 89.2839 121.248C81.8652 121.248 75.8511 127.262 75.8511 134.681C75.8511 142.1 81.8652 148.114 89.2839 148.114Z" fill="#003A7F"/>
<path opacity="0.13" d="M89.8213 138.199C93.6299 136.472 95.3745 132.111 93.7179 128.458C92.0614 124.805 87.631 123.243 83.8224 124.97C80.0138 126.697 78.2692 131.059 79.9257 134.712C81.5823 138.365 86.0127 139.926 89.8213 138.199Z" fill="white"/>
<path opacity="0.13" d="M94.7502 144.575C96.5196 143.773 97.3301 141.747 96.5605 140.049C95.7909 138.352 93.7325 137.627 91.9631 138.429C90.1937 139.231 89.3832 141.258 90.1528 142.955C90.9224 144.652 92.9807 145.378 94.7502 144.575Z" fill="white"/>
<path d="M152.431 159.992C163.814 159.992 173.043 150.764 173.043 139.381C173.043 127.997 163.814 118.769 152.431 118.769C141.047 118.769 131.819 127.997 131.819 139.381C131.819 150.764 141.047 159.992 152.431 159.992Z" fill="white"/>
<path d="M152.43 148.114C159.849 148.114 165.863 142.1 165.863 134.681C165.863 127.262 159.849 121.248 152.43 121.248C145.012 121.248 138.998 127.262 138.998 134.681C138.998 142.1 145.012 148.114 152.43 148.114Z" fill="#003A7F"/>
<path opacity="0.13" d="M152.968 138.199C156.776 136.472 158.521 132.111 156.864 128.458C155.208 124.805 150.777 123.243 146.969 124.97C143.16 126.697 141.416 131.059 143.072 134.712C144.729 138.365 149.159 139.926 152.968 138.199Z" fill="white"/>
<path opacity="0.13" d="M157.897 144.575C159.667 143.773 160.477 141.747 159.707 140.049C158.938 138.352 156.88 137.627 155.11 138.429C153.341 139.231 152.53 141.258 153.3 142.955C154.069 144.652 156.128 145.378 157.897 144.575Z" fill="white"/>
<path d="M112.004 152.341H129.711C131.91 152.341 133.695 154.127 133.695 156.326V158.712C133.695 165.797 127.943 171.55 120.857 171.55C113.772 171.55 108.019 165.797 108.019 158.712V156.326C108.019 154.127 109.804 152.341 112.004 152.341Z" fill="#FF9FC2"/>
<path d="M84.2412 209.596C88.8716 197.848 83.1014 184.57 71.3531 179.94C59.6049 175.31 46.3274 181.08 41.697 192.828L29.7744 223.079C25.144 234.827 30.9142 248.105 42.6625 252.735C54.4107 257.365 67.6882 251.595 72.3185 239.847L84.2412 209.596Z" fill="#3BA8FA"/>
<path d="M169.396 239.847C174.026 251.596 187.303 257.366 199.052 252.736C210.8 248.105 216.57 234.828 211.94 223.079L200.017 192.829C195.387 181.081 182.109 175.31 170.361 179.941C158.613 184.571 152.843 197.848 157.473 209.597L169.396 239.847Z" fill="#3BA8FA"/>
</g>
</g>
<defs>
<clipPath id="clip0_4282_6246">
<rect width="240" height="240" fill="white" transform="translate(0.857422)"/>
</clipPath>
<clipPath id="clip1_4282_6246">
<rect width="210.232" height="353.754" fill="white" transform="translate(15.7412)"/>
</clipPath>
</defs>
</svg>
