<svg width="1920" height="1002" viewBox="0 0 1920 1002" fill="none" xmlns="http://www.w3.org/2000/svg">
<g clip-path="url(#clip0_5643_19515)">
<rect width="1920" height="1002" fill="url(#paint0_linear_5643_19515)"/>
<g clip-path="url(#clip1_5643_19515)">
<g opacity="0.2" filter="url(#filter0_d_5643_19515)">
<path d="M251.75 452.978C251.75 454.514 250.504 455.759 248.969 455.759C247.433 455.759 246.188 454.514 246.188 452.978C246.188 451.442 247.433 450.197 248.969 450.197C250.505 450.197 251.75 451.442 251.75 452.978Z" fill="white"/>
<path d="M483.169 34.8318C484.705 34.8318 485.95 33.5866 485.95 32.0507C485.95 30.5147 484.705 29.2696 483.169 29.2696C481.633 29.2696 480.388 30.5147 480.388 32.0507C480.388 33.5866 481.633 34.8318 483.169 34.8318Z" fill="white"/>
<path d="M860.595 230.656C860.595 232.192 859.35 233.437 857.814 233.437C856.278 233.437 855.033 232.192 855.033 230.656C855.033 229.12 856.278 227.875 857.814 227.875C859.35 227.875 860.595 229.12 860.595 230.656Z" fill="white"/>
<path d="M521.836 292.253C521.836 293.789 520.591 295.034 519.055 295.034C517.519 295.034 516.274 293.789 516.274 292.253C516.274 290.717 517.519 289.472 519.055 289.472C520.591 289.472 521.836 290.717 521.836 292.253Z" fill="white"/>
<path d="M107.092 383.794C108.628 383.794 109.873 382.548 109.873 381.012C109.873 379.476 108.628 378.231 107.092 378.231C105.556 378.231 104.311 379.476 104.311 381.012C104.311 382.548 105.556 383.794 107.092 383.794Z" fill="white"/>
<path d="M151.436 138.049C152.972 138.049 154.217 136.804 154.217 135.268C154.217 133.732 152.972 132.487 151.436 132.487C149.9 132.487 148.655 133.732 148.655 135.268C148.655 136.804 149.9 138.049 151.436 138.049Z" fill="white"/>
<path d="M91.287 174.95C91.8106 174.95 92.2351 174.525 92.2351 174.001C92.2351 173.478 91.8106 173.053 91.287 173.053C90.7634 173.053 90.3389 173.478 90.3389 174.001C90.3389 174.525 90.7634 174.95 91.287 174.95Z" fill="white"/>
<path d="M105.258 60.9773C105.258 61.5009 104.834 61.9255 104.31 61.9255C103.787 61.9255 103.362 61.5009 103.362 60.9773C103.362 60.4537 103.787 60.0292 104.31 60.0292C104.834 60.0292 105.258 60.4537 105.258 60.9773Z" fill="white"/>
<path d="M284.82 166.403C284.82 166.927 284.396 167.351 283.872 167.351C283.348 167.351 282.924 166.927 282.924 166.403C282.924 165.879 283.348 165.455 283.872 165.455C284.396 165.455 284.82 165.879 284.82 166.403Z" fill="white"/>
<path d="M393.429 61.9254C393.429 62.4489 393.005 62.8734 392.481 62.8734C391.958 62.8734 391.533 62.4489 391.533 61.9254C391.533 61.402 391.958 60.9773 392.481 60.9773C393.005 60.9773 393.429 61.4018 393.429 61.9254Z" fill="white"/>
<path d="M73.274 443.755C73.274 444.278 72.8495 444.703 72.3259 444.703C71.8023 444.703 71.3779 444.278 71.3779 443.755C71.3779 443.231 71.8023 442.807 72.3259 442.807C72.8495 442.807 73.274 443.231 73.274 443.755Z" fill="white"/>
<path d="M423.078 149.084C423.078 149.608 422.653 150.032 422.13 150.032C421.606 150.032 421.182 149.608 421.182 149.084C421.182 148.561 421.606 148.136 422.13 148.136C422.653 148.136 423.078 148.561 423.078 149.084Z" fill="white"/>
<path d="M758.619 123.276C758.619 123.8 758.194 124.224 757.671 124.224C757.147 124.224 756.723 123.8 756.723 123.276C756.723 122.753 757.147 122.328 757.671 122.328C758.194 122.328 758.619 122.753 758.619 123.276Z" fill="white"/>
<path d="M536.986 149.084C536.986 149.608 536.562 150.032 536.038 150.032C535.514 150.032 535.09 149.608 535.09 149.084C535.09 148.561 535.514 148.136 536.038 148.136C536.562 148.136 536.986 148.561 536.986 149.084Z" fill="white"/>
<path d="M861.544 148.136C861.544 148.66 861.119 149.084 860.595 149.084C860.072 149.084 859.647 148.66 859.647 148.136C859.647 147.613 860.072 147.188 860.595 147.188C861.119 147.188 861.544 147.613 861.544 148.136Z" fill="white"/>
<path d="M878.17 76.5055C878.17 77.0291 877.745 77.4536 877.221 77.4536C876.698 77.4536 876.273 77.0291 876.273 76.5055C876.273 75.9818 876.698 75.5573 877.221 75.5573C877.745 75.5573 878.17 75.9818 878.17 76.5055Z" fill="white"/>
<path d="M376.747 349.754C376.747 350.278 376.322 350.702 375.799 350.702C375.275 350.702 374.851 350.278 374.851 349.754C374.851 349.231 375.275 348.806 375.799 348.806C376.322 348.806 376.747 349.231 376.747 349.754Z" fill="white"/>
<path d="M713.596 239.441C713.596 239.965 713.172 240.389 712.648 240.389C712.125 240.389 711.7 239.965 711.7 239.441C711.7 238.917 712.125 238.493 712.648 238.493C713.172 238.493 713.596 238.917 713.596 239.441Z" fill="white"/>
<path d="M577.167 397.607C577.167 398.131 576.742 398.555 576.218 398.555C575.695 398.555 575.271 398.131 575.271 397.607C575.271 397.084 575.695 396.659 576.218 396.659C576.742 396.659 577.167 397.084 577.167 397.607Z" fill="white"/>
<path d="M897.139 289.472C897.139 289.996 896.715 290.42 896.191 290.42C895.668 290.42 895.243 289.996 895.243 289.472C895.243 288.948 895.668 288.524 896.191 288.524C896.715 288.524 897.139 288.948 897.139 289.472Z" fill="white"/>
<path d="M664.943 346.973C664.943 347.497 664.519 347.922 663.995 347.922C663.471 347.922 663.047 347.497 663.047 346.973C663.047 346.45 663.471 346.025 663.995 346.025C664.519 346.025 664.943 346.45 664.943 346.973Z" fill="white"/>
<path d="M609.907 374.413C609.907 374.936 609.482 375.361 608.959 375.361C608.435 375.361 608.011 374.936 608.011 374.413C608.011 373.889 608.435 373.464 608.959 373.464C609.482 373.464 609.907 373.889 609.907 374.413Z" fill="white"/>
<path d="M752.908 361.993C752.908 362.517 752.483 362.941 751.96 362.941C751.436 362.941 751.012 362.517 751.012 361.993C751.012 361.469 751.436 361.045 751.96 361.045C752.483 361.045 752.908 361.469 752.908 361.993Z" fill="white"/>
<path d="M673.984 440.458C673.984 440.982 673.559 441.406 673.036 441.406C672.512 441.406 672.088 440.982 672.088 440.458C672.088 439.935 672.512 439.51 673.036 439.51C673.559 439.51 673.984 439.935 673.984 440.458Z" fill="white"/>
<path d="M733.327 492.052C733.327 492.576 732.902 493 732.379 493C731.855 493 731.431 492.576 731.431 492.052C731.431 491.528 731.855 491.104 732.379 491.104C732.902 491.104 733.327 491.528 733.327 492.052Z" fill="white"/>
<path d="M872.4 340.856C872.4 341.38 871.976 341.804 871.452 341.804C870.928 341.804 870.504 341.38 870.504 340.856C870.504 340.332 870.928 339.908 871.452 339.908C871.976 339.908 872.4 340.332 872.4 340.856Z" fill="white"/>
<path d="M952 418.041C952 418.565 951.575 418.989 951.052 418.989C950.528 418.989 950.104 418.565 950.104 418.041C950.104 417.518 950.528 417.093 951.052 417.093C951.575 417.093 952 417.518 952 418.041Z" fill="white"/>
<path d="M929.514 156.643C929.514 157.167 929.09 157.591 928.566 157.591C928.043 157.591 927.618 157.167 927.618 156.643C927.618 156.12 928.043 155.695 928.566 155.695C929.09 155.695 929.514 156.12 929.514 156.643Z" fill="white"/>
<path d="M584.528 50.8627C584.528 51.3863 584.103 51.8108 583.58 51.8108C583.056 51.8108 582.632 51.3863 582.632 50.8627C582.632 50.3391 583.056 49.9147 583.58 49.9147C584.103 49.9147 584.528 50.3391 584.528 50.8627Z" fill="white"/>
<path d="M375.798 138.049C375.798 138.572 375.374 138.997 374.85 138.997C374.327 138.997 373.902 138.572 373.902 138.049C373.902 137.525 374.327 137.101 374.85 137.101C375.374 137.101 375.798 137.525 375.798 138.049Z" fill="white"/>
<path d="M758.619 184.033C758.619 184.556 758.194 184.981 757.671 184.981C757.147 184.981 756.723 184.556 756.723 184.033C756.723 183.509 757.147 183.085 757.671 183.085C758.194 183.085 758.619 183.509 758.619 184.033Z" fill="white"/>
<path d="M283.872 393.033C283.872 393.556 283.447 393.981 282.924 393.981C282.4 393.981 281.976 393.556 281.976 393.033C281.976 392.51 282.4 392.085 282.924 392.085C283.447 392.085 283.872 392.509 283.872 393.033Z" fill="white"/>
<path d="M299.492 467.773C299.492 468.297 299.067 468.721 298.544 468.721C298.02 468.721 297.596 468.297 297.596 467.773C297.596 467.25 298.02 466.825 298.544 466.825C299.068 466.825 299.492 467.25 299.492 467.773Z" fill="white"/>
<path d="M186.908 415.471C186.908 415.995 186.483 416.419 185.96 416.419C185.436 416.419 185.012 415.995 185.012 415.471C185.012 414.947 185.436 414.523 185.96 414.523C186.483 414.523 186.908 414.947 186.908 415.471Z" fill="white"/>
<path d="M356.2 399.246C356.2 399.77 355.775 400.194 355.252 400.194C354.728 400.194 354.304 399.77 354.304 399.246C354.304 398.723 354.728 398.298 355.252 398.298C355.775 398.298 356.2 398.723 356.2 399.246Z" fill="white"/>
<path d="M661.214 135.268C662.75 135.268 663.995 134.022 663.995 132.487C663.995 130.951 662.75 129.705 661.214 129.705C659.678 129.705 658.433 130.951 658.433 132.487C658.433 134.022 659.678 135.268 661.214 135.268Z" fill="white"/>
<path d="M819.725 456.069C821.261 456.069 822.506 454.824 822.506 453.288C822.506 451.752 821.261 450.507 819.725 450.507C818.189 450.507 816.944 451.752 816.944 453.288C816.944 454.824 818.189 456.069 819.725 456.069Z" fill="white"/>
<path d="M145.647 205.311L145.27 204.179L144.894 205.311C144.037 207.885 142.526 210.192 140.508 212.005C142.526 213.819 144.037 216.126 144.894 218.7L145.27 219.831L145.647 218.7C146.504 216.126 148.015 213.819 150.033 212.005C148.015 210.192 146.504 207.885 145.647 205.311Z" fill="white"/>
</g>
<g opacity="0.2" filter="url(#filter1_d_5643_19515)">
<path d="M1153.28 452.978C1153.28 454.514 1152.03 455.759 1150.5 455.759C1148.96 455.759 1147.71 454.514 1147.71 452.978C1147.71 451.442 1148.96 450.197 1150.5 450.197C1152.03 450.197 1153.28 451.442 1153.28 452.978Z" fill="white"/>
<path d="M1384.7 34.8318C1386.23 34.8318 1387.48 33.5866 1387.48 32.0507C1387.48 30.5147 1386.23 29.2696 1384.7 29.2696C1383.16 29.2696 1381.92 30.5147 1381.92 32.0507C1381.92 33.5866 1383.16 34.8318 1384.7 34.8318Z" fill="white"/>
<path d="M1762.12 230.656C1762.12 232.192 1760.88 233.437 1759.34 233.437C1757.81 233.437 1756.56 232.192 1756.56 230.656C1756.56 229.12 1757.81 227.875 1759.34 227.875C1760.88 227.875 1762.12 229.12 1762.12 230.656Z" fill="white"/>
<path d="M1423.36 292.253C1423.36 293.789 1422.12 295.034 1420.58 295.034C1419.05 295.034 1417.8 293.789 1417.8 292.253C1417.8 290.717 1419.05 289.472 1420.58 289.472C1422.12 289.472 1423.36 290.717 1423.36 292.253Z" fill="white"/>
<path d="M1008.62 383.794C1010.15 383.794 1011.4 382.548 1011.4 381.012C1011.4 379.476 1010.15 378.231 1008.62 378.231C1007.08 378.231 1005.84 379.476 1005.84 381.012C1005.84 382.548 1007.08 383.794 1008.62 383.794Z" fill="white"/>
<path d="M1052.96 138.049C1054.5 138.049 1055.74 136.804 1055.74 135.268C1055.74 133.732 1054.5 132.487 1052.96 132.487C1051.43 132.487 1050.18 133.732 1050.18 135.268C1050.18 136.804 1051.43 138.049 1052.96 138.049Z" fill="white"/>
<path d="M992.814 174.95C993.338 174.95 993.762 174.525 993.762 174.001C993.762 173.478 993.338 173.053 992.814 173.053C992.291 173.053 991.866 173.478 991.866 174.001C991.866 174.525 992.291 174.95 992.814 174.95Z" fill="white"/>
<path d="M1006.79 60.9773C1006.79 61.5009 1006.36 61.9255 1005.84 61.9255C1005.31 61.9255 1004.89 61.5009 1004.89 60.9773C1004.89 60.4537 1005.31 60.0292 1005.84 60.0292C1006.36 60.0292 1006.79 60.4537 1006.79 60.9773Z" fill="white"/>
<path d="M1186.35 166.403C1186.35 166.927 1185.92 167.351 1185.4 167.351C1184.88 167.351 1184.45 166.927 1184.45 166.403C1184.45 165.879 1184.88 165.455 1185.4 165.455C1185.92 165.455 1186.35 165.879 1186.35 166.403Z" fill="white"/>
<path d="M1294.96 61.9254C1294.96 62.4489 1294.53 62.8734 1294.01 62.8734C1293.48 62.8734 1293.06 62.4489 1293.06 61.9254C1293.06 61.402 1293.48 60.9773 1294.01 60.9773C1294.53 60.9773 1294.96 61.4018 1294.96 61.9254Z" fill="white"/>
<path d="M974.801 443.755C974.801 444.278 974.377 444.703 973.853 444.703C973.33 444.703 972.905 444.278 972.905 443.755C972.905 443.231 973.33 442.807 973.853 442.807C974.377 442.807 974.801 443.231 974.801 443.755Z" fill="white"/>
<path d="M1324.61 149.084C1324.61 149.608 1324.18 150.032 1323.66 150.032C1323.13 150.032 1322.71 149.608 1322.71 149.084C1322.71 148.561 1323.13 148.136 1323.66 148.136C1324.18 148.136 1324.61 148.561 1324.61 149.084Z" fill="white"/>
<path d="M1660.15 123.276C1660.15 123.8 1659.72 124.224 1659.2 124.224C1658.67 124.224 1658.25 123.8 1658.25 123.276C1658.25 122.753 1658.67 122.328 1659.2 122.328C1659.72 122.328 1660.15 122.753 1660.15 123.276Z" fill="white"/>
<path d="M1438.51 149.084C1438.51 149.608 1438.09 150.032 1437.57 150.032C1437.04 150.032 1436.62 149.608 1436.62 149.084C1436.62 148.561 1437.04 148.136 1437.57 148.136C1438.09 148.136 1438.51 148.561 1438.51 149.084Z" fill="white"/>
<path d="M1763.07 148.136C1763.07 148.66 1762.65 149.084 1762.12 149.084C1761.6 149.084 1761.17 148.66 1761.17 148.136C1761.17 147.613 1761.6 147.188 1762.12 147.188C1762.65 147.188 1763.07 147.613 1763.07 148.136Z" fill="white"/>
<path d="M1779.7 76.5055C1779.7 77.0291 1779.27 77.4536 1778.75 77.4536C1778.23 77.4536 1777.8 77.0291 1777.8 76.5055C1777.8 75.9818 1778.23 75.5573 1778.75 75.5573C1779.27 75.5573 1779.7 75.9818 1779.7 76.5055Z" fill="white"/>
<path d="M1278.27 349.754C1278.27 350.278 1277.85 350.702 1277.33 350.702C1276.8 350.702 1276.38 350.278 1276.38 349.754C1276.38 349.231 1276.8 348.806 1277.33 348.806C1277.85 348.806 1278.27 349.231 1278.27 349.754Z" fill="white"/>
<path d="M1615.12 239.441C1615.12 239.965 1614.7 240.389 1614.18 240.389C1613.65 240.389 1613.23 239.965 1613.23 239.441C1613.23 238.917 1613.65 238.493 1614.18 238.493C1614.7 238.493 1615.12 238.917 1615.12 239.441Z" fill="white"/>
<path d="M1478.69 397.607C1478.69 398.131 1478.27 398.555 1477.75 398.555C1477.22 398.555 1476.8 398.131 1476.8 397.607C1476.8 397.084 1477.22 396.659 1477.75 396.659C1478.27 396.659 1478.69 397.084 1478.69 397.607Z" fill="white"/>
<path d="M1798.67 289.472C1798.67 289.996 1798.24 290.42 1797.72 290.42C1797.19 290.42 1796.77 289.996 1796.77 289.472C1796.77 288.948 1797.19 288.524 1797.72 288.524C1798.24 288.524 1798.67 288.948 1798.67 289.472Z" fill="white"/>
<path d="M1566.47 346.973C1566.47 347.497 1566.05 347.922 1565.52 347.922C1565 347.922 1564.57 347.497 1564.57 346.973C1564.57 346.45 1565 346.025 1565.52 346.025C1566.05 346.025 1566.47 346.45 1566.47 346.973Z" fill="white"/>
<path d="M1511.43 374.413C1511.43 374.936 1511.01 375.361 1510.49 375.361C1509.96 375.361 1509.54 374.936 1509.54 374.413C1509.54 373.889 1509.96 373.464 1510.49 373.464C1511.01 373.464 1511.43 373.889 1511.43 374.413Z" fill="white"/>
<path d="M1654.44 361.993C1654.44 362.517 1654.01 362.941 1653.49 362.941C1652.96 362.941 1652.54 362.517 1652.54 361.993C1652.54 361.469 1652.96 361.045 1653.49 361.045C1654.01 361.045 1654.44 361.469 1654.44 361.993Z" fill="white"/>
<path d="M1575.51 440.458C1575.51 440.982 1575.09 441.406 1574.56 441.406C1574.04 441.406 1573.62 440.982 1573.62 440.458C1573.62 439.935 1574.04 439.51 1574.56 439.51C1575.09 439.51 1575.51 439.935 1575.51 440.458Z" fill="white"/>
<path d="M1634.85 492.052C1634.85 492.576 1634.43 493 1633.91 493C1633.38 493 1632.96 492.576 1632.96 492.052C1632.96 491.528 1633.38 491.104 1633.91 491.104C1634.43 491.104 1634.85 491.528 1634.85 492.052Z" fill="white"/>
<path d="M1773.93 340.856C1773.93 341.38 1773.5 341.804 1772.98 341.804C1772.46 341.804 1772.03 341.38 1772.03 340.856C1772.03 340.332 1772.46 339.908 1772.98 339.908C1773.5 339.908 1773.93 340.332 1773.93 340.856Z" fill="white"/>
<path d="M1853.53 418.041C1853.53 418.565 1853.1 418.989 1852.58 418.989C1852.06 418.989 1851.63 418.565 1851.63 418.041C1851.63 417.518 1852.06 417.093 1852.58 417.093C1853.1 417.093 1853.53 417.518 1853.53 418.041Z" fill="white"/>
<path d="M1831.04 156.643C1831.04 157.167 1830.62 157.591 1830.09 157.591C1829.57 157.591 1829.15 157.167 1829.15 156.643C1829.15 156.12 1829.57 155.695 1830.09 155.695C1830.62 155.695 1831.04 156.12 1831.04 156.643Z" fill="white"/>
<path d="M1486.06 50.8627C1486.06 51.3863 1485.63 51.8108 1485.11 51.8108C1484.58 51.8108 1484.16 51.3863 1484.16 50.8627C1484.16 50.3391 1484.58 49.9147 1485.11 49.9147C1485.63 49.9147 1486.06 50.3391 1486.06 50.8627Z" fill="white"/>
<path d="M1277.33 138.049C1277.33 138.572 1276.9 138.997 1276.38 138.997C1275.85 138.997 1275.43 138.572 1275.43 138.049C1275.43 137.525 1275.85 137.101 1276.38 137.101C1276.9 137.101 1277.33 137.525 1277.33 138.049Z" fill="white"/>
<path d="M1660.15 184.033C1660.15 184.556 1659.72 184.981 1659.2 184.981C1658.67 184.981 1658.25 184.556 1658.25 184.033C1658.25 183.509 1658.67 183.085 1659.2 183.085C1659.72 183.085 1660.15 183.509 1660.15 184.033Z" fill="white"/>
<path d="M1185.4 393.033C1185.4 393.556 1184.97 393.981 1184.45 393.981C1183.93 393.981 1183.5 393.556 1183.5 393.033C1183.5 392.51 1183.93 392.085 1184.45 392.085C1184.97 392.085 1185.4 392.509 1185.4 393.033Z" fill="white"/>
<path d="M1201.02 467.773C1201.02 468.297 1200.59 468.721 1200.07 468.721C1199.55 468.721 1199.12 468.297 1199.12 467.773C1199.12 467.25 1199.55 466.825 1200.07 466.825C1200.59 466.825 1201.02 467.25 1201.02 467.773Z" fill="white"/>
<path d="M1088.44 415.471C1088.44 415.995 1088.01 416.419 1087.49 416.419C1086.96 416.419 1086.54 415.995 1086.54 415.471C1086.54 414.947 1086.96 414.523 1087.49 414.523C1088.01 414.523 1088.44 414.947 1088.44 415.471Z" fill="white"/>
<path d="M1257.73 399.246C1257.73 399.77 1257.3 400.194 1256.78 400.194C1256.26 400.194 1255.83 399.77 1255.83 399.246C1255.83 398.723 1256.26 398.298 1256.78 398.298C1257.3 398.298 1257.73 398.723 1257.73 399.246Z" fill="white"/>
<path d="M1562.74 135.268C1564.28 135.268 1565.52 134.022 1565.52 132.487C1565.52 130.951 1564.28 129.705 1562.74 129.705C1561.21 129.705 1559.96 130.951 1559.96 132.487C1559.96 134.022 1561.21 135.268 1562.74 135.268Z" fill="white"/>
<path d="M1721.25 456.069C1722.79 456.069 1724.03 454.824 1724.03 453.288C1724.03 451.752 1722.79 450.507 1721.25 450.507C1719.72 450.507 1718.47 451.752 1718.47 453.288C1718.47 454.824 1719.72 456.069 1721.25 456.069Z" fill="white"/>
<path d="M1047.17 205.311L1046.8 204.179L1046.42 205.311C1045.56 207.885 1044.05 210.192 1042.04 212.005C1044.05 213.819 1045.56 216.126 1046.42 218.7L1046.8 219.831L1047.17 218.7C1048.03 216.126 1049.54 213.819 1051.56 212.005C1049.54 210.192 1048.03 207.885 1047.17 205.311Z" fill="white"/>
<path d="M973.282 310.732L972.905 309.6L972.529 310.732C971.672 313.306 970.16 315.613 968.143 317.426C970.16 319.24 971.672 321.547 972.529 324.121L972.905 325.253L973.282 324.121C974.138 321.547 975.65 319.24 977.668 317.426C975.65 315.613 974.138 313.306 973.282 310.732Z" fill="white"/>
<path d="M1847.24 303.992L1846.87 302.86L1846.49 303.992C1845.63 306.566 1844.12 308.873 1842.11 310.687C1844.12 312.5 1845.63 314.807 1846.49 317.381L1846.87 318.513L1847.24 317.381C1848.1 314.807 1849.61 312.5 1851.63 310.687C1849.61 308.873 1848.1 306.566 1847.24 303.992Z" fill="white"/>
</g>
<g opacity="0.2" filter="url(#filter2_d_5643_19515)">
<path d="M1024.57 526.206C1026.1 526.206 1027.35 524.961 1027.35 523.425C1027.35 521.889 1026.1 520.644 1024.57 520.644C1023.03 520.644 1021.79 521.889 1021.79 523.425C1021.79 524.961 1023.03 526.206 1024.57 526.206Z" fill="white"/>
<path d="M1180.72 807.529C1182.26 807.529 1183.5 806.284 1183.5 804.748C1183.5 803.212 1182.26 801.967 1180.72 801.967C1179.19 801.967 1177.94 803.212 1177.94 804.748C1177.94 806.284 1179.19 807.529 1180.72 807.529Z" fill="white"/>
<path d="M1762.12 793.182C1762.12 794.718 1760.88 795.963 1759.34 795.963C1757.81 795.963 1756.56 794.718 1756.56 793.182C1756.56 791.646 1757.81 790.401 1759.34 790.401C1760.88 790.401 1762.12 791.646 1762.12 793.182Z" fill="white"/>
<path d="M1423.36 854.779C1423.36 856.315 1422.12 857.56 1420.58 857.56C1419.05 857.56 1417.8 856.315 1417.8 854.779C1417.8 853.243 1419.05 851.998 1420.58 851.998C1422.12 851.998 1423.36 853.243 1423.36 854.779Z" fill="white"/>
<path d="M1008.62 946.32C1010.15 946.32 1011.4 945.075 1011.4 943.539C1011.4 942.003 1010.15 940.757 1008.62 940.757C1007.08 940.757 1005.84 942.003 1005.84 943.539C1005.84 945.075 1007.08 946.32 1008.62 946.32Z" fill="white"/>
<path d="M1052.96 700.575C1054.5 700.575 1055.74 699.33 1055.74 697.794C1055.74 696.258 1054.5 695.013 1052.96 695.013C1051.43 695.013 1050.18 696.258 1050.18 697.794C1050.18 699.33 1051.43 700.575 1052.96 700.575Z" fill="white"/>
<path d="M992.814 737.476C993.338 737.476 993.762 737.051 993.762 736.528C993.762 736.004 993.338 735.579 992.814 735.579C992.291 735.579 991.866 736.004 991.866 736.528C991.866 737.051 992.291 737.476 992.814 737.476Z" fill="white"/>
<path d="M1006.79 623.503C1006.79 624.027 1006.36 624.451 1005.84 624.451C1005.31 624.451 1004.89 624.027 1004.89 623.503C1004.89 622.98 1005.31 622.555 1005.84 622.555C1006.36 622.555 1006.79 622.98 1006.79 623.503Z" fill="white"/>
<path d="M1186.35 728.929C1186.35 729.453 1185.92 729.877 1185.4 729.877C1184.88 729.877 1184.45 729.453 1184.45 728.929C1184.45 728.405 1184.88 727.981 1185.4 727.981C1185.92 727.981 1186.35 728.405 1186.35 728.929Z" fill="white"/>
<path d="M1136.21 502.896C1136.21 503.42 1135.78 503.844 1135.26 503.844C1134.74 503.844 1134.31 503.42 1134.31 502.896C1134.31 502.372 1134.74 501.948 1135.26 501.948C1135.78 501.948 1136.21 502.372 1136.21 502.896Z" fill="white"/>
<path d="M1294.96 624.452C1294.96 624.975 1294.53 625.4 1294.01 625.4C1293.48 625.4 1293.06 624.975 1293.06 624.452C1293.06 623.928 1293.48 623.503 1294.01 623.503C1294.53 623.503 1294.96 623.928 1294.96 624.452Z" fill="white"/>
<path d="M1470.67 526.206C1470.67 526.729 1470.25 527.154 1469.73 527.154C1469.2 527.154 1468.78 526.729 1468.78 526.206C1468.78 525.682 1469.2 525.258 1469.73 525.258C1470.25 525.258 1470.67 525.682 1470.67 526.206Z" fill="white"/>
<path d="M1324.61 711.61C1324.61 712.134 1324.18 712.558 1323.66 712.558C1323.13 712.558 1322.71 712.134 1322.71 711.61C1322.71 711.087 1323.13 710.662 1323.66 710.662C1324.18 710.662 1324.61 711.087 1324.61 711.61Z" fill="white"/>
<path d="M1660.15 685.803C1660.15 686.326 1659.72 686.75 1659.2 686.75C1658.67 686.75 1658.25 686.326 1658.25 685.803C1658.25 685.279 1658.67 684.854 1659.2 684.854C1659.72 684.854 1660.15 685.279 1660.15 685.803Z" fill="white"/>
<path d="M1438.51 711.61C1438.51 712.134 1438.09 712.558 1437.57 712.558C1437.04 712.558 1436.62 712.134 1436.62 711.61C1436.62 711.087 1437.04 710.662 1437.57 710.662C1438.09 710.662 1438.51 711.087 1438.51 711.61Z" fill="white"/>
<path d="M1763.07 710.662C1763.07 711.186 1762.65 711.61 1762.12 711.61C1761.6 711.61 1761.17 711.186 1761.17 710.662C1761.17 710.139 1761.6 709.714 1762.12 709.714C1762.65 709.714 1763.07 710.139 1763.07 710.662Z" fill="white"/>
<path d="M1779.7 639.032C1779.7 639.555 1779.27 639.98 1778.75 639.98C1778.23 639.98 1777.8 639.555 1777.8 639.032C1777.8 638.508 1778.23 638.083 1778.75 638.083C1779.27 638.083 1779.7 638.508 1779.7 639.032Z" fill="white"/>
<path d="M1278.27 912.28C1278.27 912.804 1277.85 913.229 1277.33 913.229C1276.8 913.229 1276.38 912.804 1276.38 912.28C1276.38 911.757 1276.8 911.333 1277.33 911.333C1277.85 911.333 1278.27 911.757 1278.27 912.28Z" fill="white"/>
<path d="M1615.12 801.967C1615.12 802.491 1614.7 802.915 1614.18 802.915C1613.65 802.915 1613.23 802.491 1613.23 801.967C1613.23 801.444 1613.65 801.019 1614.18 801.019C1614.7 801.019 1615.12 801.444 1615.12 801.967Z" fill="white"/>
<path d="M1478.69 960.133C1478.69 960.657 1478.27 961.081 1477.75 961.081C1477.22 961.081 1476.8 960.657 1476.8 960.133C1476.8 959.61 1477.22 959.185 1477.75 959.185C1478.27 959.185 1478.69 959.61 1478.69 960.133Z" fill="white"/>
<path d="M1798.67 851.998C1798.67 852.522 1798.24 852.946 1797.72 852.946C1797.19 852.946 1796.77 852.522 1796.77 851.998C1796.77 851.474 1797.19 851.05 1797.72 851.05C1798.24 851.05 1798.67 851.474 1798.67 851.998Z" fill="white"/>
<path d="M1566.47 909.499C1566.47 910.023 1566.05 910.448 1565.52 910.448C1565 910.448 1564.57 910.023 1564.57 909.499C1564.57 908.976 1565 908.552 1565.52 908.552C1566.05 908.552 1566.47 908.976 1566.47 909.499Z" fill="white"/>
<path d="M1511.43 936.939C1511.43 937.462 1511.01 937.887 1510.49 937.887C1509.96 937.887 1509.54 937.462 1509.54 936.939C1509.54 936.415 1509.96 935.99 1510.49 935.99C1511.01 935.99 1511.43 936.415 1511.43 936.939Z" fill="white"/>
<path d="M1654.44 924.519C1654.44 925.043 1654.01 925.467 1653.49 925.467C1652.96 925.467 1652.54 925.043 1652.54 924.519C1652.54 923.996 1652.96 923.571 1653.49 923.571C1654.01 923.571 1654.44 923.996 1654.44 924.519Z" fill="white"/>
<path d="M1773.93 903.382C1773.93 903.906 1773.5 904.33 1772.98 904.33C1772.46 904.33 1772.03 903.906 1772.03 903.382C1772.03 902.858 1772.46 902.434 1772.98 902.434C1773.5 902.434 1773.93 902.858 1773.93 903.382Z" fill="white"/>
<path d="M1853.53 980.567C1853.53 981.091 1853.1 981.515 1852.58 981.515C1852.06 981.515 1851.63 981.091 1851.63 980.567C1851.63 980.044 1852.06 979.619 1852.58 979.619C1853.1 979.619 1853.53 980.044 1853.53 980.567Z" fill="white"/>
<path d="M1831.04 719.169C1831.04 719.693 1830.62 720.117 1830.09 720.117C1829.57 720.117 1829.15 719.693 1829.15 719.169C1829.15 718.646 1829.57 718.221 1830.09 718.221C1830.62 718.221 1831.04 718.646 1831.04 719.169Z" fill="white"/>
<path d="M1828.9 520.644C1828.9 521.167 1828.47 521.592 1827.95 521.592C1827.43 521.592 1827 521.167 1827 520.644C1827 520.12 1827.43 519.696 1827.95 519.696C1828.47 519.696 1828.9 520.12 1828.9 520.644Z" fill="white"/>
<path d="M1486.06 613.389C1486.06 613.912 1485.63 614.337 1485.11 614.337C1484.58 614.337 1484.16 613.912 1484.16 613.389C1484.16 612.865 1484.58 612.441 1485.11 612.441C1485.63 612.441 1486.06 612.865 1486.06 613.389Z" fill="white"/>
<path d="M1277.33 700.575C1277.33 701.098 1276.9 701.523 1276.38 701.523C1275.85 701.523 1275.43 701.098 1275.43 700.575C1275.43 700.051 1275.85 699.627 1276.38 699.627C1276.9 699.627 1277.33 700.051 1277.33 700.575Z" fill="white"/>
<path d="M1660.15 746.559C1660.15 747.082 1659.72 747.507 1659.2 747.507C1658.67 747.507 1658.25 747.082 1658.25 746.559C1658.25 746.035 1658.67 745.611 1659.2 745.611C1659.72 745.611 1660.15 746.035 1660.15 746.559Z" fill="white"/>
<path d="M1185.4 955.559C1185.4 956.082 1184.97 956.507 1184.45 956.507C1183.93 956.507 1183.5 956.082 1183.5 955.559C1183.5 955.036 1183.93 954.611 1184.45 954.611C1184.97 954.611 1185.4 955.035 1185.4 955.559Z" fill="white"/>
<path d="M1567.42 501.948C1567.42 502.472 1566.99 502.896 1566.47 502.896C1565.95 502.896 1565.52 502.472 1565.52 501.948C1565.52 501.425 1565.95 501 1566.47 501C1566.99 501 1567.42 501.425 1567.42 501.948Z" fill="white"/>
<path d="M1088.44 977.997C1088.44 978.521 1088.01 978.945 1087.49 978.945C1086.96 978.945 1086.54 978.521 1086.54 977.997C1086.54 977.474 1086.96 977.049 1087.49 977.049C1088.01 977.049 1088.44 977.474 1088.44 977.997Z" fill="white"/>
<path d="M1257.73 961.772C1257.73 962.296 1257.3 962.72 1256.78 962.72C1256.26 962.72 1255.83 962.296 1255.83 961.772C1255.83 961.249 1256.26 960.824 1256.78 960.824C1257.3 960.824 1257.73 961.249 1257.73 961.772Z" fill="white"/>
<path d="M1562.74 697.794C1564.28 697.794 1565.52 696.549 1565.52 695.013C1565.52 693.477 1564.28 692.232 1562.74 692.232C1561.21 692.232 1559.96 693.477 1559.96 695.013C1559.96 696.549 1561.21 697.794 1562.74 697.794Z" fill="white"/>
<path d="M1241.95 531.768C1243.49 531.768 1244.73 530.523 1244.73 528.987C1244.73 527.451 1243.49 526.206 1241.95 526.206C1240.41 526.206 1239.17 527.451 1239.17 528.987C1239.17 530.523 1240.41 531.768 1241.95 531.768Z" fill="white"/>
<path d="M1680.43 528.987C1681.97 528.987 1683.21 527.742 1683.21 526.206C1683.21 524.67 1681.97 523.425 1680.43 523.425C1678.9 523.425 1677.65 524.67 1677.65 526.206C1677.65 527.742 1678.9 528.987 1680.43 528.987Z" fill="white"/>
<path d="M1357.87 504.028L1357.49 502.896L1357.11 504.028C1356.26 506.602 1354.74 508.909 1352.73 510.722C1354.74 512.536 1356.26 514.843 1357.11 517.417L1357.49 518.549L1357.87 517.417C1358.72 514.843 1360.23 512.536 1362.25 510.722C1360.23 508.909 1358.72 506.602 1357.87 504.028Z" fill="white"/>
<path d="M1746.23 504.028L1745.85 502.896L1745.48 504.028C1744.62 506.602 1743.11 508.909 1741.09 510.722C1743.11 512.536 1744.62 514.843 1745.48 517.417L1745.85 518.549L1746.23 517.417C1747.09 514.843 1748.6 512.536 1750.62 510.722C1748.6 508.909 1747.09 506.602 1746.23 504.028Z" fill="white"/>
<path d="M1847.24 866.518L1846.87 865.386L1846.49 866.518C1845.63 869.092 1844.12 871.399 1842.11 873.213C1844.12 875.026 1845.63 877.333 1846.49 879.907L1846.87 881.039L1847.24 879.907C1848.1 877.333 1849.61 875.026 1851.63 873.213C1849.61 871.399 1848.1 869.092 1847.24 866.518Z" fill="white"/>
</g>
<g opacity="0.2" filter="url(#filter3_d_5643_19515)">
<path d="M72.0745 526.206C73.6105 526.206 74.8556 524.961 74.8556 523.425C74.8556 521.889 73.6105 520.644 72.0745 520.644C70.5386 520.644 69.2935 521.889 69.2935 523.425C69.2935 524.961 70.5386 526.206 72.0745 526.206Z" fill="white"/>
<path d="M228.23 807.529C229.766 807.529 231.011 806.284 231.011 804.748C231.011 803.212 229.766 801.967 228.23 801.967C226.694 801.967 225.449 803.212 225.449 804.748C225.449 806.284 226.694 807.529 228.23 807.529Z" fill="white"/>
<path d="M809.631 793.182C809.631 794.718 808.386 795.963 806.85 795.963C805.314 795.963 804.069 794.718 804.069 793.182C804.069 791.646 805.314 790.401 806.85 790.401C808.386 790.401 809.631 791.646 809.631 793.182Z" fill="white"/>
<path d="M470.872 854.779C470.872 856.315 469.627 857.56 468.091 857.56C466.555 857.56 465.31 856.315 465.31 854.779C465.31 853.243 466.555 851.998 468.091 851.998C469.627 851.998 470.872 853.243 470.872 854.779Z" fill="white"/>
<path d="M56.1273 946.32C57.6632 946.32 58.9084 945.075 58.9084 943.539C58.9084 942.003 57.6632 940.757 56.1273 940.757C54.5913 940.757 53.3462 942.003 53.3462 943.539C53.3462 945.075 54.5913 946.32 56.1273 946.32Z" fill="white"/>
<path d="M100.472 700.575C102.008 700.575 103.253 699.33 103.253 697.794C103.253 696.258 102.008 695.013 100.472 695.013C98.9361 695.013 97.6909 696.258 97.6909 697.794C97.6909 699.33 98.9361 700.575 100.472 700.575Z" fill="white"/>
<path d="M40.3226 737.476C40.8463 737.476 41.2708 737.051 41.2708 736.528C41.2708 736.004 40.8463 735.579 40.3226 735.579C39.799 735.579 39.3745 736.004 39.3745 736.528C39.3745 737.051 39.799 737.476 40.3226 737.476Z" fill="white"/>
<path d="M54.2941 623.503C54.2941 624.027 53.8697 624.451 53.3461 624.451C52.8225 624.451 52.3979 624.027 52.3979 623.503C52.3979 622.98 52.8225 622.555 53.3461 622.555C53.8697 622.555 54.2941 622.98 54.2941 623.503Z" fill="white"/>
<path d="M233.856 728.929C233.856 729.453 233.431 729.877 232.908 729.877C232.384 729.877 231.959 729.453 231.959 728.929C231.959 728.405 232.384 727.981 232.908 727.981C233.431 727.981 233.856 728.405 233.856 728.929Z" fill="white"/>
<path d="M183.716 502.896C183.716 503.42 183.292 503.844 182.768 503.844C182.244 503.844 181.82 503.42 181.82 502.896C181.82 502.372 182.244 501.948 182.768 501.948C183.292 501.948 183.716 502.372 183.716 502.896Z" fill="white"/>
<path d="M342.465 624.452C342.465 624.975 342.04 625.4 341.517 625.4C340.993 625.4 340.569 624.975 340.569 624.452C340.569 623.928 340.993 623.503 341.517 623.503C342.04 623.503 342.465 623.928 342.465 624.452Z" fill="white"/>
<path d="M518.182 526.206C518.182 526.729 517.757 527.154 517.234 527.154C516.71 527.154 516.286 526.729 516.286 526.206C516.286 525.682 516.71 525.258 517.234 525.258C517.757 525.258 518.182 525.682 518.182 526.206Z" fill="white"/>
<path d="M372.114 711.61C372.114 712.134 371.689 712.558 371.165 712.558C370.642 712.558 370.217 712.134 370.217 711.61C370.217 711.087 370.642 710.662 371.165 710.662C371.689 710.662 372.114 711.087 372.114 711.61Z" fill="white"/>
<path d="M707.655 685.803C707.655 686.326 707.23 686.75 706.706 686.75C706.183 686.75 705.758 686.326 705.758 685.803C705.758 685.279 706.183 684.854 706.706 684.854C707.23 684.854 707.655 685.279 707.655 685.803Z" fill="white"/>
<path d="M486.022 711.61C486.022 712.134 485.597 712.558 485.074 712.558C484.55 712.558 484.125 712.134 484.125 711.61C484.125 711.087 484.55 710.662 485.074 710.662C485.597 710.662 486.022 711.087 486.022 711.61Z" fill="white"/>
<path d="M810.579 710.662C810.579 711.186 810.155 711.61 809.631 711.61C809.107 711.61 808.683 711.186 808.683 710.662C808.683 710.139 809.108 709.714 809.631 709.714C810.154 709.714 810.579 710.139 810.579 710.662Z" fill="white"/>
<path d="M827.205 639.032C827.205 639.555 826.781 639.98 826.257 639.98C825.733 639.98 825.309 639.555 825.309 639.032C825.309 638.508 825.733 638.083 826.257 638.083C826.781 638.083 827.205 638.508 827.205 639.032Z" fill="white"/>
<path d="M325.782 912.28C325.782 912.804 325.358 913.229 324.834 913.229C324.311 913.229 323.886 912.804 323.886 912.28C323.886 911.757 324.311 911.333 324.834 911.333C325.358 911.333 325.782 911.757 325.782 912.28Z" fill="white"/>
<path d="M662.632 801.967C662.632 802.491 662.208 802.915 661.684 802.915C661.16 802.915 660.736 802.491 660.736 801.967C660.736 801.444 661.16 801.019 661.684 801.019C662.208 801.019 662.632 801.444 662.632 801.967Z" fill="white"/>
<path d="M526.202 960.133C526.202 960.657 525.778 961.081 525.254 961.081C524.731 961.081 524.306 960.657 524.306 960.133C524.306 959.61 524.731 959.185 525.254 959.185C525.778 959.185 526.202 959.61 526.202 960.133Z" fill="white"/>
<path d="M846.175 851.998C846.175 852.522 845.75 852.946 845.227 852.946C844.703 852.946 844.279 852.522 844.279 851.998C844.279 851.474 844.703 851.05 845.227 851.05C845.75 851.05 846.175 851.474 846.175 851.998Z" fill="white"/>
<path d="M613.979 909.499C613.979 910.023 613.554 910.448 613.031 910.448C612.507 910.448 612.083 910.023 612.083 909.499C612.083 908.976 612.507 908.552 613.031 908.552C613.554 908.552 613.979 908.976 613.979 909.499Z" fill="white"/>
<path d="M558.942 936.939C558.942 937.462 558.518 937.887 557.995 937.887C557.471 937.887 557.046 937.462 557.046 936.939C557.046 936.415 557.471 935.99 557.995 935.99C558.518 935.99 558.942 936.415 558.942 936.939Z" fill="white"/>
<path d="M701.943 924.519C701.943 925.043 701.519 925.467 700.995 925.467C700.472 925.467 700.047 925.043 700.047 924.519C700.047 923.996 700.472 923.571 700.995 923.571C701.519 923.571 701.943 923.996 701.943 924.519Z" fill="white"/>
<path d="M821.436 903.382C821.436 903.906 821.011 904.33 820.488 904.33C819.964 904.33 819.54 903.906 819.54 903.382C819.54 902.858 819.964 902.434 820.488 902.434C821.011 902.434 821.436 902.858 821.436 903.382Z" fill="white"/>
<path d="M901.035 980.567C901.035 981.091 900.61 981.515 900.087 981.515C899.563 981.515 899.139 981.091 899.139 980.567C899.139 980.044 899.563 979.619 900.087 979.619C900.61 979.619 901.035 980.044 901.035 980.567Z" fill="white"/>
<path d="M878.55 719.169C878.55 719.693 878.126 720.117 877.602 720.117C877.078 720.117 876.654 719.693 876.654 719.169C876.654 718.646 877.078 718.221 877.602 718.221C878.126 718.221 878.55 718.646 878.55 719.169Z" fill="white"/>
<path d="M876.406 520.644C876.406 521.167 875.982 521.592 875.458 521.592C874.935 521.592 874.51 521.167 874.51 520.644C874.51 520.12 874.935 519.696 875.458 519.696C875.982 519.696 876.406 520.12 876.406 520.644Z" fill="white"/>
<path d="M533.564 613.389C533.564 613.912 533.139 614.337 532.615 614.337C532.092 614.337 531.667 613.912 531.667 613.389C531.667 612.865 532.092 612.441 532.615 612.441C533.139 612.441 533.564 612.865 533.564 613.389Z" fill="white"/>
<path d="M324.834 700.575C324.834 701.098 324.41 701.523 323.886 701.523C323.362 701.523 322.938 701.098 322.938 700.575C322.938 700.051 323.362 699.627 323.886 699.627C324.41 699.627 324.834 700.051 324.834 700.575Z" fill="white"/>
<path d="M707.654 746.559C707.654 747.082 707.23 747.507 706.706 747.507C706.183 747.507 705.758 747.082 705.758 746.559C705.758 746.035 706.183 745.611 706.706 745.611C707.23 745.611 707.654 746.035 707.654 746.559Z" fill="white"/>
<path d="M232.907 955.559C232.907 956.082 232.483 956.507 231.959 956.507C231.436 956.507 231.011 956.082 231.011 955.559C231.011 955.036 231.436 954.611 231.959 954.611C232.483 954.611 232.907 955.035 232.907 955.559Z" fill="white"/>
<path d="M614.927 501.948C614.927 502.472 614.503 502.896 613.979 502.896C613.455 502.896 613.031 502.472 613.031 501.948C613.031 501.425 613.455 501 613.979 501C614.503 501 614.927 501.425 614.927 501.948Z" fill="white"/>
<path d="M135.943 977.997C135.943 978.521 135.519 978.945 134.995 978.945C134.472 978.945 134.047 978.521 134.047 977.997C134.047 977.474 134.472 977.049 134.995 977.049C135.519 977.049 135.943 977.474 135.943 977.997Z" fill="white"/>
<path d="M305.236 961.772C305.236 962.296 304.811 962.72 304.287 962.72C303.764 962.72 303.339 962.296 303.339 961.772C303.339 961.249 303.764 960.824 304.287 960.824C304.811 960.824 305.236 961.249 305.236 961.772Z" fill="white"/>
<path d="M610.249 697.794C611.785 697.794 613.03 696.549 613.03 695.013C613.03 693.477 611.785 692.232 610.249 692.232C608.713 692.232 607.468 693.477 607.468 695.013C607.468 696.549 608.713 697.794 610.249 697.794Z" fill="white"/>
<path d="M289.458 531.768C290.994 531.768 292.239 530.523 292.239 528.987C292.239 527.451 290.994 526.206 289.458 526.206C287.922 526.206 286.677 527.451 286.677 528.987C286.677 530.523 287.922 531.768 289.458 531.768Z" fill="white"/>
<path d="M727.94 528.987C729.476 528.987 730.721 527.742 730.721 526.206C730.721 524.67 729.476 523.425 727.94 523.425C726.404 523.425 725.159 524.67 725.159 526.206C725.159 527.742 726.404 528.987 727.94 528.987Z" fill="white"/>
<path d="M405.374 504.028L404.997 502.896L404.621 504.028C403.764 506.602 402.253 508.909 400.235 510.722C402.253 512.536 403.764 514.843 404.621 517.417L404.997 518.549L405.374 517.417C406.231 514.843 407.742 512.536 409.76 510.722C407.742 508.909 406.231 506.602 405.374 504.028Z" fill="white"/>
<path d="M793.737 504.028L793.361 502.896L792.984 504.028C792.128 506.602 790.616 508.909 788.598 510.722C790.616 512.536 792.128 514.843 792.984 517.417L793.361 518.549L793.737 517.417C794.594 514.843 796.106 512.536 798.123 510.722C796.106 508.909 794.594 506.602 793.737 504.028Z" fill="white"/>
<path d="M894.753 866.518L894.376 865.386L894 866.518C893.143 869.092 891.632 871.399 889.614 873.213C891.632 875.026 893.143 877.333 894 879.907L894.376 881.039L894.753 879.907C895.61 877.333 897.121 875.026 899.139 873.213C897.121 871.399 895.61 869.092 894.753 866.518Z" fill="white"/>
</g>
</g>
</g>
<defs>
<filter id="filter0_d_5643_19515" x="56.3089" y="-76.5951" width="910.76" height="584.664" filterUnits="userSpaceOnUse" color-interpolation-filters="sRGB">
<feFlood flood-opacity="0" result="BackgroundImageFix"/>
<feColorMatrix in="SourceAlpha" type="matrix" values="0 0 0 0 0 0 0 0 0 0 0 0 0 0 0 0 0 0 127 0" result="hardAlpha"/>
<feOffset/>
<feGaussianBlur stdDeviation="7.53451"/>
<feColorMatrix type="matrix" values="0 0 0 0 1 0 0 0 0 1 0 0 0 0 1 0 0 0 0.9 0"/>
<feBlend mode="normal" in2="BackgroundImageFix" result="effect1_dropShadow_5643_19515"/>
<feBlend mode="normal" in="SourceGraphic" in2="effect1_dropShadow_5643_19515" result="shape"/>
</filter>
<filter id="filter1_d_5643_19515" x="953.074" y="-76.5951" width="915.522" height="584.664" filterUnits="userSpaceOnUse" color-interpolation-filters="sRGB">
<feFlood flood-opacity="0" result="BackgroundImageFix"/>
<feColorMatrix in="SourceAlpha" type="matrix" values="0 0 0 0 0 0 0 0 0 0 0 0 0 0 0 0 0 0 127 0" result="hardAlpha"/>
<feOffset/>
<feGaussianBlur stdDeviation="7.53451"/>
<feColorMatrix type="matrix" values="0 0 0 0 1 0 0 0 0 1 0 0 0 0 1 0 0 0 0.9 0"/>
<feBlend mode="normal" in2="BackgroundImageFix" result="effect1_dropShadow_5643_19515"/>
<feBlend mode="normal" in="SourceGraphic" in2="effect1_dropShadow_5643_19515" result="shape"/>
</filter>
<filter id="filter2_d_5643_19515" x="957.836" y="485.931" width="910.76" height="584.664" filterUnits="userSpaceOnUse" color-interpolation-filters="sRGB">
<feFlood flood-opacity="0" result="BackgroundImageFix"/>
<feColorMatrix in="SourceAlpha" type="matrix" values="0 0 0 0 0 0 0 0 0 0 0 0 0 0 0 0 0 0 127 0" result="hardAlpha"/>
<feOffset/>
<feGaussianBlur stdDeviation="7.53451"/>
<feColorMatrix type="matrix" values="0 0 0 0 1 0 0 0 0 1 0 0 0 0 1 0 0 0 0.9 0"/>
<feBlend mode="normal" in2="BackgroundImageFix" result="effect1_dropShadow_5643_19515"/>
<feBlend mode="normal" in="SourceGraphic" in2="effect1_dropShadow_5643_19515" result="shape"/>
</filter>
<filter id="filter3_d_5643_19515" x="5.34455" y="485.931" width="910.759" height="584.664" filterUnits="userSpaceOnUse" color-interpolation-filters="sRGB">
<feFlood flood-opacity="0" result="BackgroundImageFix"/>
<feColorMatrix in="SourceAlpha" type="matrix" values="0 0 0 0 0 0 0 0 0 0 0 0 0 0 0 0 0 0 127 0" result="hardAlpha"/>
<feOffset/>
<feGaussianBlur stdDeviation="7.53451"/>
<feColorMatrix type="matrix" values="0 0 0 0 1 0 0 0 0 1 0 0 0 0 1 0 0 0 0.9 0"/>
<feBlend mode="normal" in2="BackgroundImageFix" result="effect1_dropShadow_5643_19515"/>
<feBlend mode="normal" in="SourceGraphic" in2="effect1_dropShadow_5643_19515" result="shape"/>
</filter>
<linearGradient id="paint0_linear_5643_19515" x1="960" y1="0" x2="960" y2="1002" gradientUnits="userSpaceOnUse">
<stop stop-color="#284AC1"/>
<stop offset="1" stop-color="#101E4E"/>
</linearGradient>
<clipPath id="clip0_5643_19515">
<rect width="1920" height="1002" fill="white"/>
</clipPath>
<clipPath id="clip1_5643_19515">
<rect width="1920" height="1080" fill="white" transform="translate(0 -39)"/>
</clipPath>
</defs>
</svg>
