<svg width="80" height="80" viewBox="0 0 80 80" fill="none" xmlns="http://www.w3.org/2000/svg">
<path d="M74.3584 35.8804C74.3584 17.4551 59.3681 2.46484 40.9426 2.46484H39.0574C20.6318 2.46489 5.6416 17.4551 5.6416 35.8804V39.7207C4.7173 41.3433 4.2334 43.1641 4.2334 45.0469C4.2334 46.9297 4.7173 48.7505 5.6416 50.373V62.6225C5.6416 70.8457 12.3315 77.5356 20.5547 77.5356H59.4451C67.6683 77.5356 74.3585 70.8457 74.3585 62.6225V50.373C75.2828 48.7505 75.7666 46.9297 75.7666 45.0469C75.7666 43.1641 75.2828 41.3433 74.3585 39.7207L74.3584 35.8804Z" fill="#683510"/>
<path d="M39.0573 5.71484H40.9427C57.5916 5.71484 71.1083 19.2316 71.1083 35.8805V62.6228C71.1083 69.0598 65.8823 74.2859 59.4452 74.2859H20.5548C14.1177 74.2859 8.8916 69.0598 8.8916 62.6228V35.8805C8.8916 19.2316 22.4084 5.71484 39.0573 5.71484Z" fill="#683510"/>
<path d="M33.7939 22.4033H46.2059C56.6793 22.4033 65.1824 30.9064 65.1824 41.3798V45.9828C65.1824 59.0127 54.6037 69.5914 41.5738 69.5914H38.426C25.396 69.5914 14.8174 59.0127 14.8174 45.9828V41.3798C14.8174 30.9064 23.3205 22.4033 33.7939 22.4033Z" fill="#FFDBBD"/>
<path d="M15.0446 52.6079C19.2206 52.6079 22.6059 49.2226 22.6059 45.0466C22.6059 40.8706 19.2206 37.4854 15.0446 37.4854C10.8687 37.4854 7.4834 40.8706 7.4834 45.0466C7.4834 49.2226 10.8687 52.6079 15.0446 52.6079Z" fill="#FFDBBD"/>
<path d="M64.9553 52.6079C69.1313 52.6079 72.5165 49.2226 72.5165 45.0466C72.5165 40.8706 69.1313 37.4854 64.9553 37.4854C60.7793 37.4854 57.394 40.8706 57.394 45.0466C57.394 49.2226 60.7793 52.6079 64.9553 52.6079Z" fill="#FFDBBD"/>
<path d="M59.8347 15.188H25.7288L12.811 32.9011H34.4485C40.457 32.9011 45.763 29.9066 48.9657 25.3317C52.1684 29.9066 57.4744 32.9011 63.4829 32.9011H66.5382L59.8347 15.188Z" fill="#683510"/>
<path d="M29.3159 42.0806H29.3158C27.3945 42.0806 25.8369 43.6381 25.8369 45.5595V48.5414C25.8369 50.4628 27.3945 52.0203 29.3158 52.0203H29.3159C31.2372 52.0203 32.7948 50.4628 32.7948 48.5414V45.5595C32.7948 43.6381 31.2372 42.0806 29.3159 42.0806Z" fill="#1C1815"/>
<path d="M50.684 42.0806H50.684C48.7626 42.0806 47.2051 43.6381 47.2051 45.5595V48.5414C47.2051 50.4628 48.7626 52.0203 50.684 52.0203H50.684C52.6054 52.0203 54.1629 50.4628 54.1629 48.5414V45.5595C54.1629 43.6381 52.6054 42.0806 50.684 42.0806Z" fill="#1C1815"/>
<path d="M41.8503 49.5077C41.8503 48.4857 41.0218 47.6572 39.9999 47.6572C38.9779 47.6572 38.1494 48.4857 38.1494 49.5077V51.7422C38.1494 52.7642 38.9779 53.5926 39.9999 53.5926C41.0218 53.5926 41.8503 52.7642 41.8503 51.7422V49.5077Z" fill="#FFCEA9"/>
<path d="M35.0168 59.7127C34.434 59.7127 33.8801 59.3709 33.6366 58.8015C33.3112 58.0398 33.6649 57.158 34.4267 56.8328C37.9687 55.3201 42.0314 55.3201 45.5729 56.8328C46.3349 57.158 46.6886 58.0393 46.3632 58.8015C46.0378 59.5628 45.1557 59.9158 44.3947 59.5916C41.6015 58.3982 38.3977 58.3982 35.6054 59.5916C35.413 59.6736 35.2133 59.7127 35.0168 59.7127Z" fill="#FFB685"/>
</svg>
