<svg width="481" height="96" viewBox="0 0 481 96" fill="none" xmlns="http://www.w3.org/2000/svg">
<path opacity="0.2" d="M48.1602 96C74.6698 96 96.1602 74.5097 96.1602 48C96.1602 21.4903 74.6698 0 48.1602 0C21.6505 0 0.160156 21.4903 0.160156 48C0.160156 74.5097 21.6505 96 48.1602 96Z" fill="#F5BAFF"/>
<path d="M77.2479 45.7208C77.1978 45.8572 77.1342 45.9876 77.0747 46.1201C76.9797 46.3313 76.8755 46.5384 76.757 46.7384C76.6548 46.9108 76.539 47.075 76.42 47.2378C76.2802 47.4286 76.1382 47.6181 75.9759 47.7937C75.9062 47.8692 75.8365 47.9447 75.7629 48.017C75.4946 48.2806 75.2094 48.5311 74.8901 48.7495L64.6301 55.7296L64.0339 59.1109L74.2939 52.1307C74.6134 51.9121 74.8984 51.662 75.1668 51.3982C75.2407 51.3257 75.3096 51.251 75.3796 51.1752C75.4565 51.0918 75.5427 51.0156 75.6145 50.9289C75.6948 50.832 75.75 50.7197 75.8239 50.6189C75.9433 50.4557 76.0584 50.2927 76.1608 50.1197C76.2028 50.0488 76.2601 49.9871 76.2991 49.9149C76.3707 49.7823 76.4169 49.6384 76.4786 49.5011C76.5383 49.3683 76.6015 49.2388 76.6517 49.1021C76.672 49.0468 76.7031 48.9963 76.7219 48.9404C76.8189 48.6509 76.8945 48.3538 76.9479 48.0508L77.5442 44.6691C77.4805 45.0303 77.3731 45.3793 77.2479 45.7208Z" fill="#C7B0F4"/>
<path d="M29.1718 49.4773L21.9177 39.409C20.9077 37.9997 20.5313 36.3003 20.8193 34.6669L20.223 38.0485C19.9351 39.6817 20.3114 41.3813 21.3215 42.7902L28.5755 52.8587L29.1718 49.4773Z" fill="#C7B0F4"/>
<path d="M53.104 17.3897C55.4764 17.808 57.3712 19.5072 58.0452 21.8056L61.5314 33.7243L73.3285 37.6126C75.6066 38.3616 77.2408 40.3142 77.5763 42.6964C77.9116 45.0787 76.881 47.3877 74.8902 48.749L64.6301 55.7292L64.5766 68.1375C64.5752 69.9813 63.7516 71.7281 62.3333 72.903C60.8993 74.0991 59.0348 74.6085 57.209 74.2866C56.2205 74.1123 55.2654 73.6805 54.4518 73.0581L44.6261 65.4699L32.8093 69.2419C31.8319 69.5485 30.7868 69.6277 29.7982 69.4534C27.9724 69.1315 26.3946 68.015 25.4561 66.4006C24.5253 64.8115 24.3487 62.8883 24.9781 61.1553L29.1717 49.477L21.9177 39.4086C20.5127 37.4485 20.3338 34.9263 21.4638 32.8024C22.5937 30.6786 24.7972 29.4027 27.1941 29.478L39.6097 29.8591L46.9621 19.8514C48.3815 17.9222 50.7433 16.9735 53.104 17.3897Z" fill="url(#paint0_linear_3336_23801)"/>
<path opacity="0.1" d="M70.2447 36.5964L61.5313 33.7244L58.0451 21.8056C57.3711 19.5074 55.4764 17.8081 53.1039 17.3898C50.7432 16.9736 48.3815 17.9223 46.9621 19.8514L39.6097 29.8591L27.1941 29.4781C24.7972 29.4027 22.5937 30.6786 21.4638 32.8024C20.3338 34.9263 20.5127 37.4485 21.9176 39.4088L29.1717 49.4771L27.0637 55.3473L70.2447 36.5964Z" fill="white"/>
<path opacity="0.2" d="M52.3064 21.9125C52.9563 22.0271 53.4542 22.4703 53.6374 23.095L57.1236 35.0137L57.8012 37.3303L60.0937 38.0859L71.8942 41.9754C72.5132 42.1788 72.9374 42.6877 73.0287 43.3363C73.1201 43.9869 72.8539 44.578 72.3069 44.952L62.0469 51.9323L60.0482 53.292L60.0378 55.7094L59.9843 68.1339C59.9838 68.612 59.7723 69.0613 59.3917 69.3766C58.9943 69.7081 58.4894 69.8493 58.0065 69.7642C57.7569 69.7202 57.4784 69.5914 57.2589 69.4235L47.4331 61.8353L45.5257 60.3622L43.2296 61.0951L31.4346 64.8603C31.1511 64.9492 30.8454 64.975 30.5957 64.9309C30.1127 64.8458 29.6866 64.5404 29.4187 64.0795C29.1768 63.6665 29.1316 63.1719 29.3002 62.7072L33.4939 51.029L34.3109 48.7538L32.8978 46.7926L25.6502 36.7329C25.2578 36.1856 25.2097 35.539 25.5181 34.9593C25.8259 34.3808 26.3985 34.0476 27.0533 34.0683L39.4688 34.4493L41.8815 34.5232L43.3106 32.5781L50.6612 22.573C51.0489 22.0461 51.6639 21.7992 52.3064 21.9125ZM53.1039 17.3899C50.7431 16.9737 48.3814 17.9222 46.9621 19.8515L39.6096 29.859L27.1941 29.478C24.7972 29.4026 22.5937 30.6786 21.4638 32.8023C20.3338 34.9263 20.5126 37.4485 21.9177 39.4086L29.1716 49.477L24.978 61.1553C24.3487 62.8884 24.5252 64.8116 25.4561 66.4007C26.3945 68.0152 27.9723 69.1316 29.7981 69.4535C30.7866 69.6278 31.8318 69.5487 32.8092 69.242L44.6261 65.47L54.4518 73.0582C55.2654 73.6806 56.2204 74.1125 57.209 74.2868C59.0347 74.6087 60.8993 74.0993 62.3333 72.9032C63.7515 71.7282 64.5752 69.9814 64.5766 68.1375L64.6301 55.7293L74.8901 48.749C76.8809 47.3878 77.9115 45.0789 77.5762 42.6964C77.2408 40.3143 75.6066 38.3617 73.3284 37.6127L61.5313 33.7244L58.0451 21.8057C57.3712 19.5073 55.4763 17.8082 53.1039 17.3899Z" fill="white"/>
<path opacity="0.1" d="M32.8447 52.837L33.4939 51.0291L34.3109 48.7539L32.8978 46.7926L25.6501 36.7329C25.2577 36.1856 25.2097 35.539 25.5181 34.9593C25.8259 34.3808 26.3985 34.0476 27.0533 34.0683L39.4688 34.4492L41.8814 34.5232L43.3106 32.5781L50.6611 22.573C51.0488 22.0461 51.6639 21.7992 52.3064 21.9125C52.9563 22.027 53.4542 22.4702 53.6374 23.095L57.1236 35.0136L57.8012 37.3302L60.0937 38.0859L63.9143 39.3451L70.2446 36.5963L61.5312 33.7243L58.045 21.8057C57.3711 19.5073 55.4763 17.8082 53.1038 17.3899C50.7431 16.9736 48.3814 17.9222 46.962 19.8514L39.6096 29.859L27.194 29.478C24.7972 29.4026 22.5936 30.6785 21.4638 32.8023C20.3338 34.9263 20.5126 37.4485 21.9176 39.4086L29.1716 49.477L27.0636 55.3472L32.8447 52.837Z" fill="white"/>
<path d="M64.0203 70.6427C63.9445 70.813 63.8743 70.9855 63.7835 71.1482C63.6388 71.4073 63.4662 71.6503 63.285 71.8872C63.231 71.9577 63.1891 72.0362 63.132 72.1044C62.8919 72.3917 62.6263 72.6604 62.3333 72.9031C60.8994 74.099 59.0349 74.6085 57.209 74.2866C56.2205 74.1123 55.2655 73.6804 54.4519 73.0581L44.6261 65.4699L32.8093 69.2419C31.832 69.5484 30.7868 69.6276 29.7982 69.4533C27.9725 69.1313 26.3946 68.0149 25.4562 66.4006C24.7079 65.123 24.447 63.6299 24.7004 62.1929L24.1041 65.5743C23.8508 67.0111 24.1117 68.5044 24.86 69.7818C25.7984 71.3964 27.3762 72.5128 29.202 72.8348C30.1905 73.0091 31.2357 72.9299 32.2131 72.6231L44.0299 68.8512L53.8556 76.4392C54.6691 77.0618 55.6242 77.4937 56.6127 77.668C58.4385 77.9899 60.3031 77.4805 61.7371 76.2842C62.0299 76.0418 62.2952 75.7734 62.5353 75.4862C62.5413 75.4789 62.5493 75.4734 62.5553 75.4661C62.6073 75.4033 62.642 75.3291 62.6914 75.2643C62.8715 75.0286 63.043 74.7879 63.1869 74.5299C63.2013 74.5044 63.2223 74.4827 63.2363 74.4568C63.3116 74.3174 63.3608 74.1661 63.4251 74.0216C63.4936 73.8677 63.5698 73.7186 63.6255 73.5594C63.635 73.5321 63.6508 73.5074 63.6599 73.48C63.757 73.1901 63.833 72.8922 63.8865 72.5889L64.4827 69.2075C64.4242 69.539 64.3325 69.862 64.222 70.1774C64.166 70.3373 64.0891 70.4881 64.0203 70.6427Z" fill="#59D3D3"/>
<path opacity="0.1" d="M12.9765 48C12.9765 33.2 22.1146 20.5344 35.0565 15.3375" stroke="white" stroke-width="10.08" stroke-linecap="round" stroke-linejoin="round"/>
<path opacity="0.1" d="M17.029 64.4086C16.5627 63.5256 16.1328 62.6204 15.7414 61.695" stroke="white" stroke-width="10.08" stroke-linecap="round" stroke-linejoin="round"/>
<path d="M149.104 17.3897C151.476 17.808 153.371 19.5072 154.045 21.8056L157.531 33.7243L169.328 37.6126C171.607 38.3616 173.241 40.3142 173.576 42.6964C173.912 45.0787 172.881 47.3877 170.89 48.749L160.63 55.7292L160.577 68.1375C160.575 69.9813 159.752 71.7281 158.333 72.903C156.899 74.0991 155.035 74.6085 153.209 74.2866C152.221 74.1123 151.265 73.6805 150.452 73.0581L140.626 65.4699L128.809 69.2419C127.832 69.5485 126.787 69.6277 125.798 69.4534C123.972 69.1315 122.395 68.015 121.456 66.4006C120.525 64.8115 120.349 62.8883 120.978 61.1553L125.172 49.477L117.918 39.4086C116.513 37.4485 116.334 34.9263 117.464 32.8024C118.594 30.6786 120.797 29.4027 123.194 29.478L135.61 29.8591L142.962 19.8514C144.381 17.9222 146.743 16.9735 149.104 17.3897Z" fill="#FFC702"/>
<path d="M166.245 36.5964L157.531 33.7244L154.045 21.8056C153.371 19.5074 151.476 17.8081 149.104 17.3898C146.743 16.9736 144.381 17.9223 142.962 19.8514L135.61 29.8591L123.194 29.4781C120.797 29.4027 118.594 30.6786 117.464 32.8024C116.334 34.9263 116.513 37.4485 117.918 39.4088L125.172 49.4771L123.064 55.3473L166.245 36.5964Z" fill="#FFD240"/>
<path d="M173.248 45.7207C173.198 45.8571 173.134 45.9875 173.075 46.12C172.98 46.3312 172.875 46.5383 172.757 46.7383C172.655 46.9107 172.539 47.0749 172.42 47.2377C172.28 47.4285 172.138 47.618 171.976 47.7937C171.906 47.8692 171.836 47.9446 171.763 48.0169C171.495 48.2805 171.209 48.531 170.89 48.7494L160.63 55.7295L160.034 59.1109L170.294 52.1306C170.613 51.9121 170.898 51.6619 171.167 51.3981C171.241 51.3256 171.31 51.2509 171.38 51.1751C171.456 51.0917 171.543 51.0155 171.614 50.9288C171.695 50.8319 171.75 50.7196 171.824 50.6188C171.943 50.4556 172.058 50.2926 172.161 50.1196C172.203 50.0487 172.26 49.987 172.299 49.9148C172.371 49.7822 172.417 49.6383 172.479 49.501C172.538 49.3682 172.601 49.2387 172.652 49.102C172.672 49.0467 172.703 48.9962 172.722 48.9403C172.819 48.6508 172.894 48.3537 172.948 48.0507L173.544 44.669C173.48 45.0302 173.373 45.3793 173.248 45.7207Z" fill="#FFC207"/>
<path d="M125.172 49.4773L117.918 39.409C116.908 37.9997 116.531 36.3003 116.819 34.6669L116.223 38.0485C115.935 39.6817 116.311 41.3813 117.321 42.7902L124.575 52.8587L125.172 49.4773Z" fill="#FFD35A"/>
<path d="M160.02 70.6427C159.944 70.813 159.874 70.9855 159.783 71.1482C159.639 71.4073 159.466 71.6503 159.285 71.8872C159.231 71.9577 159.189 72.0362 159.132 72.1044C158.892 72.3917 158.626 72.6604 158.333 72.9031C156.899 74.099 155.035 74.6085 153.209 74.2866C152.22 74.1123 151.265 73.6804 150.452 73.0581L140.626 65.4699L128.809 69.2419C127.832 69.5484 126.787 69.6276 125.798 69.4533C123.972 69.1313 122.394 68.0149 121.456 66.4006C120.708 65.123 120.447 63.6299 120.7 62.1929L120.104 65.5743C119.851 67.0111 120.112 68.5044 120.86 69.7818C121.798 71.3964 123.376 72.5128 125.202 72.8348C126.19 73.0091 127.236 72.9299 128.213 72.6231L140.03 68.8512L149.855 76.4392C150.669 77.0618 151.624 77.4937 152.613 77.668C154.438 77.9899 156.303 77.4805 157.737 76.2842C158.03 76.0418 158.295 75.7734 158.535 75.4862C158.541 75.4789 158.549 75.4734 158.555 75.4661C158.607 75.4033 158.642 75.3291 158.691 75.2643C158.871 75.0286 159.043 74.7879 159.187 74.5299C159.201 74.5044 159.222 74.4827 159.236 74.4568C159.311 74.3174 159.361 74.1661 159.425 74.0216C159.493 73.8677 159.57 73.7186 159.625 73.5594C159.635 73.5321 159.651 73.5074 159.66 73.48C159.757 73.1901 159.833 72.8922 159.886 72.5889L160.483 69.2075C160.424 69.539 160.332 69.862 160.222 70.1774C160.166 70.3373 160.089 70.4881 160.02 70.6427Z" fill="#FFC207"/>
<path d="M148.306 21.9125C148.956 22.0271 149.454 22.4703 149.637 23.095L153.124 35.0137L153.801 37.3303L156.094 38.0859L167.894 41.9754C168.513 42.1788 168.937 42.6877 169.029 43.3363C169.12 43.9869 168.854 44.578 168.307 44.952L158.047 51.9323L156.048 53.292L156.038 55.7094L155.984 68.1339C155.984 68.612 155.772 69.0613 155.392 69.3766C154.994 69.7081 154.489 69.8493 154.006 69.7642C153.757 69.7202 153.478 69.5914 153.259 69.4235L143.433 61.8353L141.526 60.3622L139.23 61.0951L127.434 64.8603C127.151 64.9492 126.845 64.975 126.596 64.9309C126.113 64.8458 125.687 64.5404 125.419 64.0795C125.177 63.6665 125.132 63.1719 125.3 62.7072L129.494 51.029L130.311 48.7538L128.898 46.7926L121.65 36.7329C121.258 36.1856 121.21 35.539 121.518 34.9593C121.826 34.3808 122.398 34.0476 123.053 34.0683L135.469 34.4493L137.881 34.5232L139.311 32.5781L146.661 22.573C147.049 22.0461 147.664 21.7992 148.306 21.9125ZM149.104 17.3899C146.743 16.9737 144.381 17.9222 142.962 19.8515L135.61 29.859L123.194 29.478C120.797 29.4026 118.594 30.6786 117.464 32.8023C116.334 34.9263 116.513 37.4485 117.918 39.4086L125.172 49.477L120.978 61.1553C120.349 62.8884 120.525 64.8116 121.456 66.4007C122.394 68.0152 123.972 69.1316 125.798 69.4535C126.787 69.6278 127.832 69.5487 128.809 69.242L140.626 65.47L150.452 73.0582C151.265 73.6806 152.22 74.1125 153.209 74.2868C155.035 74.6087 156.899 74.0993 158.333 72.9032C159.751 71.7282 160.575 69.9814 160.577 68.1375L160.63 55.7293L170.89 48.749C172.881 47.3878 173.911 45.0789 173.576 42.6964C173.241 40.3143 171.607 38.3617 169.328 37.6127L157.531 33.7244L154.045 21.8057C153.371 19.5073 151.476 17.8082 149.104 17.3899Z" fill="#FFDC34"/>
<path d="M128.845 52.837L129.494 51.0291L130.311 48.7539L128.898 46.7926L121.65 36.7329C121.258 36.1856 121.21 35.539 121.518 34.9593C121.826 34.3808 122.398 34.0476 123.053 34.0683L135.469 34.4492L137.881 34.5232L139.311 32.5781L146.661 22.573C147.049 22.0461 147.664 21.7992 148.306 21.9125C148.956 22.027 149.454 22.4702 149.637 23.095L153.124 35.0136L153.801 37.3302L156.094 38.0859L159.914 39.3451L166.245 36.5963L157.531 33.7243L154.045 21.8057C153.371 19.5073 151.476 17.8082 149.104 17.3899C146.743 16.9736 144.381 17.9222 142.962 19.8514L135.61 29.859L123.194 29.478C120.797 29.4026 118.594 30.6785 117.464 32.8023C116.334 34.9263 116.513 37.4485 117.918 39.4086L125.172 49.477L123.064 55.3472L128.845 52.837Z" fill="#FFEB62"/>
<path opacity="0.2" d="M144.16 96C170.67 96 192.16 74.5097 192.16 48C192.16 21.4903 170.67 0 144.16 0C117.65 0 96.1602 21.4903 96.1602 48C96.1602 74.5097 117.65 96 144.16 96Z" fill="#FFD240"/>
<path opacity="0.1" d="M108.977 48C108.977 33.2 118.115 20.5344 131.057 15.3375" stroke="white" stroke-width="10.08" stroke-linecap="round" stroke-linejoin="round"/>
<path opacity="0.1" d="M113.029 64.4086C112.563 63.5256 112.133 62.6204 111.742 61.695" stroke="white" stroke-width="10.08" stroke-linecap="round" stroke-linejoin="round"/>
<path opacity="0.2" d="M240.16 96C266.67 96 288.16 74.5097 288.16 48C288.16 21.4903 266.67 0 240.16 0C213.651 0 192.16 21.4903 192.16 48C192.16 74.5097 213.651 96 240.16 96Z" fill="#D2E0EB"/>
<path d="M245.104 17.3897C247.476 17.808 249.371 19.5072 250.045 21.8056L253.531 33.7243L265.328 37.6126C267.606 38.3616 269.24 40.3142 269.576 42.6964C269.911 45.0787 268.881 47.3877 266.89 48.749L256.63 55.7292L256.576 68.1375C256.575 69.9813 255.751 71.7281 254.333 72.903C252.899 74.0991 251.034 74.6085 249.209 74.2866C248.22 74.1123 247.265 73.6805 246.451 73.0581L236.626 65.4699L224.809 69.2419C223.832 69.5485 222.786 69.6277 221.798 69.4534C219.972 69.1315 218.394 68.015 217.456 66.4006C216.525 64.8115 216.348 62.8883 216.978 61.1553L221.171 49.477L213.917 39.4086C212.512 37.4485 212.333 34.9263 213.463 32.8024C214.593 30.6786 216.797 29.4027 219.194 29.478L231.609 29.8591L238.962 19.8514C240.381 17.9222 242.743 16.9735 245.104 17.3897Z" fill="#C3D1DE"/>
<path d="M262.244 36.5964L253.531 33.7244L250.045 21.8056C249.371 19.5074 247.476 17.8081 245.104 17.3898C242.743 16.9736 240.381 17.9223 238.962 19.8514L231.609 29.8591L219.194 29.4781C216.797 29.4027 214.593 30.6786 213.464 32.8024C212.334 34.9263 212.512 37.4485 213.917 39.4088L221.171 49.4771L219.063 55.3473L262.244 36.5964Z" fill="#D2E0EB"/>
<path d="M269.248 45.7207C269.198 45.8571 269.134 45.9875 269.075 46.12C268.98 46.3312 268.875 46.5383 268.757 46.7383C268.655 46.9107 268.539 47.0749 268.42 47.2377C268.28 47.4285 268.138 47.618 267.976 47.7937C267.906 47.8692 267.836 47.9446 267.763 48.0169C267.494 48.2805 267.209 48.531 266.89 48.7494L256.63 55.7295L256.034 59.1109L266.294 52.1306C266.613 51.9121 266.898 51.6619 267.167 51.3981C267.24 51.3256 267.309 51.2509 267.379 51.1751C267.456 51.0917 267.543 51.0155 267.614 50.9288C267.695 50.8319 267.75 50.7196 267.824 50.6188C267.943 50.4556 268.058 50.2926 268.161 50.1196C268.203 50.0487 268.26 49.987 268.299 49.9148C268.371 49.7822 268.417 49.6383 268.478 49.501C268.538 49.3682 268.601 49.2387 268.652 49.102C268.672 49.0467 268.703 48.9962 268.722 48.9403C268.819 48.6508 268.894 48.3537 268.948 48.0507L269.544 44.669C269.48 45.0302 269.373 45.3793 269.248 45.7207Z" fill="#A9BFD4"/>
<path d="M221.172 49.4773L213.918 39.409C212.907 37.9997 212.531 36.3003 212.819 34.6669L212.223 38.0485C211.935 39.6817 212.311 41.3813 213.321 42.7902L220.575 52.8587L221.172 49.4773Z" fill="#CED8E1"/>
<path d="M256.02 70.6427C255.944 70.813 255.874 70.9855 255.783 71.1482C255.639 71.4073 255.466 71.6503 255.285 71.8872C255.231 71.9577 255.189 72.0362 255.132 72.1044C254.892 72.3917 254.626 72.6604 254.333 72.9031C252.899 74.099 251.035 74.6085 249.209 74.2866C248.22 74.1123 247.265 73.6804 246.452 73.0581L236.626 65.4699L224.809 69.2419C223.832 69.5484 222.787 69.6276 221.798 69.4533C219.972 69.1313 218.394 68.0149 217.456 66.4006C216.708 65.123 216.447 63.6299 216.7 62.1929L216.104 65.5743C215.851 67.0111 216.111 68.5044 216.86 69.7818C217.798 71.3964 219.376 72.5128 221.202 72.8348C222.19 73.0091 223.235 72.9299 224.213 72.6231L236.03 68.8512L245.855 76.4392C246.669 77.0618 247.624 77.4937 248.612 77.668C250.438 77.9899 252.303 77.4805 253.737 76.2842C254.03 76.0418 254.295 75.7734 254.535 75.4862C254.541 75.4789 254.549 75.4734 254.555 75.4661C254.607 75.4033 254.642 75.3291 254.691 75.2643C254.871 75.0286 255.043 74.7879 255.187 74.5299C255.201 74.5044 255.222 74.4827 255.236 74.4568C255.311 74.3174 255.361 74.1661 255.425 74.0216C255.493 73.8677 255.57 73.7186 255.625 73.5594C255.635 73.5321 255.651 73.5074 255.66 73.48C255.757 73.1901 255.833 72.8922 255.886 72.5889L256.482 69.2075C256.424 69.539 256.332 69.862 256.222 70.1774C256.166 70.3373 256.089 70.4881 256.02 70.6427Z" fill="#A9BFD4"/>
<path d="M244.306 21.9125C244.956 22.0271 245.454 22.4703 245.637 23.095L249.123 35.0137L249.801 37.3303L252.093 38.0859L263.894 41.9754C264.513 42.1788 264.937 42.6877 265.028 43.3363C265.12 43.9869 264.854 44.578 264.307 44.952L254.047 51.9323L252.048 53.292L252.038 55.7094L251.984 68.1339C251.984 68.612 251.772 69.0613 251.392 69.3766C250.994 69.7081 250.489 69.8493 250.006 69.7642C249.757 69.7202 249.478 69.5914 249.259 69.4235L239.433 61.8353L237.525 60.3622L235.229 61.0951L223.434 64.8603C223.151 64.9492 222.845 64.975 222.595 64.9309C222.113 64.8458 221.686 64.5404 221.419 64.0795C221.177 63.6665 221.131 63.1719 221.3 62.7072L225.494 51.029L226.311 48.7538L224.898 46.7926L217.65 36.7329C217.258 36.1856 217.209 35.539 217.518 34.9593C217.826 34.3808 218.398 34.0476 219.053 34.0683L231.469 34.4493L233.881 34.5232L235.31 32.5781L242.661 22.573C243.049 22.0461 243.664 21.7992 244.306 21.9125ZM245.104 17.3899C242.743 16.9737 240.381 17.9222 238.962 19.8515L231.609 29.859L219.194 29.478C216.797 29.4026 214.593 30.6786 213.464 32.8023C212.334 34.9263 212.512 37.4485 213.917 39.4086L221.171 49.477L216.978 61.1553C216.348 62.8884 216.525 64.8116 217.456 66.4007C218.394 68.0152 219.972 69.1316 221.798 69.4535C222.786 69.6278 223.832 69.5487 224.809 69.242L236.626 65.47L246.452 73.0582C247.265 73.6806 248.22 74.1125 249.209 74.2868C251.035 74.6087 252.899 74.0993 254.333 72.9032C255.751 71.7282 256.575 69.9814 256.576 68.1375L256.63 55.7293L266.89 48.749C268.881 47.3878 269.911 45.0789 269.576 42.6964C269.241 40.3143 267.606 38.3617 265.328 37.6127L253.531 33.7244L250.045 21.8057C249.371 19.5073 247.476 17.8082 245.104 17.3899Z" fill="#D6E2EE"/>
<path d="M224.844 52.837L225.494 51.0291L226.311 48.7539L224.898 46.7926L217.65 36.7329C217.258 36.1856 217.209 35.539 217.518 34.9593C217.826 34.3808 218.398 34.0476 219.053 34.0683L231.469 34.4492L233.881 34.5232L235.31 32.5781L242.661 22.573C243.049 22.0461 243.664 21.7992 244.306 21.9125C244.956 22.027 245.454 22.4702 245.637 23.095L249.123 35.0136L249.801 37.3302L252.094 38.0859L255.914 39.3451L262.244 36.5963L253.531 33.7243L250.045 21.8057C249.371 19.5073 247.476 17.8082 245.104 17.3899C242.743 16.9736 240.381 17.9222 238.962 19.8514L231.609 29.859L219.194 29.478C216.797 29.4026 214.593 30.6785 213.464 32.8023C212.334 34.9263 212.512 37.4485 213.917 39.4086L221.171 49.477L219.063 55.3472L224.844 52.837Z" fill="#E4EBF1"/>
<path opacity="0.1" d="M204.976 48C204.976 33.2 214.115 20.5344 227.056 15.3375" stroke="white" stroke-width="10.08" stroke-linecap="round" stroke-linejoin="round"/>
<path opacity="0.1" d="M209.029 64.4086C208.563 63.5256 208.133 62.6204 207.741 61.695" stroke="white" stroke-width="10.08" stroke-linecap="round" stroke-linejoin="round"/>
<path opacity="0.2" d="M336.16 96C362.67 96 384.16 74.5097 384.16 48C384.16 21.4903 362.67 0 336.16 0C309.65 0 288.16 21.4903 288.16 48C288.16 74.5097 309.65 96 336.16 96Z" fill="#D6AA85"/>
<path d="M341.007 17.9579C343.332 18.368 345.19 20.0338 345.851 22.287L349.268 33.9718L360.834 37.7838C363.067 38.5181 364.67 40.4323 364.998 42.7678C365.327 45.1034 364.317 47.3669 362.365 48.7015L352.307 55.5447L352.254 67.7094C352.253 69.517 351.445 71.2295 350.055 72.3814C348.649 73.554 346.821 74.0534 345.031 73.7378C344.062 73.5669 343.126 73.1436 342.328 72.5333L332.695 65.0942L321.11 68.7921C320.152 69.0927 319.128 69.1703 318.158 68.9994C316.368 68.6838 314.822 67.5892 313.902 66.0065C312.989 64.4486 312.816 62.5632 313.433 60.8641L317.544 49.4151L310.433 39.5443C309.055 37.6227 308.88 35.15 309.988 33.0677C311.095 30.9857 313.256 29.7348 315.605 29.8087L327.777 30.1822L334.985 20.3711C336.377 18.4797 338.692 17.5498 341.007 17.9579Z" fill="#CD9D6F"/>
<path d="M357.811 36.7874L349.269 33.9717L345.851 22.2869C345.19 20.0338 343.333 18.3679 341.007 17.9578C338.692 17.5497 336.377 18.4798 334.986 20.3711L327.778 30.1823L315.606 29.8088C313.256 29.7349 311.096 30.9857 309.988 33.0678C308.88 35.15 309.055 37.6227 310.433 39.5445L317.544 49.4151L315.478 55.1702L357.811 36.7874Z" fill="#D6AA85"/>
<path d="M364.677 45.7327C364.628 45.8664 364.565 45.9943 364.507 46.1242C364.414 46.3313 364.312 46.5343 364.196 46.7303C364.095 46.8994 363.982 47.0603 363.865 47.2199C363.728 47.407 363.589 47.5928 363.43 47.765C363.361 47.8391 363.293 47.913 363.221 47.984C362.958 48.2423 362.678 48.4879 362.365 48.7021L352.307 55.5451L351.722 58.8601L361.781 52.0169C362.094 51.8027 362.373 51.5575 362.636 51.2988C362.709 51.2277 362.777 51.1545 362.845 51.0802C362.921 50.9984 363.005 50.9238 363.075 50.8387C363.154 50.7437 363.208 50.6337 363.281 50.5348C363.398 50.3748 363.511 50.215 363.611 50.0454C363.652 49.9759 363.708 49.9153 363.747 49.8446C363.817 49.7146 363.862 49.5735 363.923 49.4389C363.981 49.3087 364.043 49.1817 364.092 49.0477C364.112 48.9935 364.143 48.944 364.161 48.8892C364.256 48.6055 364.33 48.3141 364.383 48.0171L364.967 44.7018C364.905 45.0559 364.8 45.398 364.677 45.7327Z" fill="#C2905B"/>
<path d="M317.544 49.4152L310.433 39.5445C309.443 38.1629 309.074 36.4969 309.356 34.8955L308.771 38.2107C308.489 39.8118 308.858 41.4781 309.848 42.8594L316.96 52.7301L317.544 49.4152Z" fill="#D39E72"/>
<path d="M351.709 70.1654C351.634 70.3323 351.566 70.5015 351.477 70.661C351.335 70.915 351.166 71.1532 350.988 71.3855C350.935 71.4546 350.894 71.5315 350.838 71.5984C350.602 71.88 350.342 72.1434 350.055 72.3814C348.649 73.5539 346.821 74.0534 345.031 73.7378C344.062 73.5669 343.126 73.1435 342.328 72.5334L332.695 65.0942L321.11 68.7922C320.152 69.0927 319.128 69.1703 318.159 68.9994C316.369 68.6838 314.822 67.5893 313.902 66.0067C313.168 64.7542 312.912 63.2903 313.161 61.8816L312.576 65.1965C312.328 66.6052 312.584 68.0692 313.317 69.3215C314.237 70.9044 315.784 71.999 317.574 72.3146C318.543 72.4854 319.568 72.4078 320.526 72.1071L332.111 68.4092L341.744 75.8483C342.541 76.4587 343.478 76.8821 344.447 77.053C346.237 77.3686 348.065 76.8691 349.47 75.6964C349.757 75.4587 350.018 75.1956 350.253 74.914C350.259 74.9069 350.267 74.9014 350.273 74.8943C350.324 74.8327 350.358 74.7599 350.406 74.6964C350.583 74.4653 350.751 74.2294 350.892 73.9765C350.906 73.9514 350.926 73.9301 350.94 73.9049C351.014 73.7681 351.062 73.6198 351.125 73.4781C351.192 73.3273 351.267 73.1811 351.322 73.025C351.331 72.9983 351.346 72.974 351.355 72.9472C351.451 72.663 351.525 72.371 351.578 72.0736L352.162 68.7586C352.105 69.0836 352.015 69.4002 351.907 69.7094C351.852 69.8662 351.776 70.0139 351.709 70.1654Z" fill="#C2905B"/>
<path d="M340.225 22.3916C340.862 22.5039 341.35 22.9384 341.53 23.5509L344.947 35.2356L345.612 37.5067L347.859 38.2476L359.428 42.0607C360.035 42.2602 360.451 42.759 360.54 43.3949C360.63 44.0328 360.369 44.6122 359.833 44.979L349.774 51.8222L347.815 53.1552L347.804 55.5252L347.752 67.7058C347.751 68.1745 347.544 68.615 347.171 68.924C346.781 69.249 346.286 69.3875 345.813 69.304C345.568 69.2608 345.295 69.1346 345.08 68.97L335.447 61.5308L333.577 60.0865L331.326 60.8051L319.763 64.4964C319.485 64.5835 319.185 64.6088 318.94 64.5656C318.467 64.4822 318.049 64.1827 317.786 63.7309C317.549 63.326 317.505 62.8411 317.67 62.3856L321.782 50.9366L322.583 48.7061L321.197 46.7833L314.092 36.9211C313.707 36.3845 313.66 35.7507 313.962 35.1823C314.264 34.6151 314.825 34.2885 315.467 34.3087L327.639 34.6822L330.004 34.7547L331.406 32.8478L338.612 23.0391C338.992 22.5225 339.595 22.2805 340.225 22.3916ZM341.007 17.9578C338.692 17.5497 336.377 18.4797 334.985 20.3711L327.777 30.1821L315.605 29.8086C313.256 29.7347 311.095 30.9856 309.988 33.0677C308.88 35.15 309.055 37.6227 310.433 39.5442L317.544 49.415L313.433 60.864C312.816 62.5632 312.989 64.4486 313.902 66.0065C314.822 67.5893 316.368 68.6838 318.158 68.9994C319.128 69.1703 320.152 69.0927 321.11 68.7921L332.695 65.0941L342.328 72.5333C343.126 73.1435 344.062 73.5669 345.031 73.7378C346.821 74.0534 348.649 73.554 350.055 72.3813C351.445 71.2294 352.253 69.517 352.254 67.7093L352.306 55.5446L362.365 48.7013C364.317 47.3668 365.327 45.1032 364.998 42.7675C364.67 40.4322 363.067 38.5179 360.834 37.7837L349.268 33.9716L345.851 22.2869C345.19 20.0336 343.332 18.3679 341.007 17.9578Z" fill="#E4AC79"/>
<path d="M321.145 52.709L321.782 50.9366L322.583 48.7061L321.197 46.7833L314.092 36.9211C313.707 36.3845 313.66 35.7507 313.962 35.1823C314.264 34.6151 314.826 34.2885 315.468 34.3087L327.639 34.6822L330.005 34.7547L331.406 32.8478L338.612 23.0392C338.992 22.5226 339.595 22.2805 340.225 22.3916C340.862 22.5039 341.35 22.9384 341.53 23.5509L344.948 35.2356L345.612 37.5067L347.859 38.2476L351.605 39.482L357.811 36.7872L349.269 33.9716L345.851 22.2869C345.19 20.0336 343.333 18.3679 341.007 17.9578C338.692 17.5497 336.377 18.4797 334.986 20.3711L327.778 30.1821L315.606 29.8086C313.256 29.7347 311.096 30.9856 309.988 33.0677C308.88 35.15 309.055 37.6227 310.433 39.5442L317.544 49.415L315.478 55.17L321.145 52.709Z" fill="#EBB88B"/>
<path opacity="0.1" d="M300.976 48C300.976 33.2 310.115 20.5344 323.056 15.3375" stroke="white" stroke-width="10.08" stroke-linecap="round" stroke-linejoin="round"/>
<path opacity="0.1" d="M305.029 64.4086C304.563 63.5256 304.133 62.6204 303.741 61.695" stroke="white" stroke-width="10.08" stroke-linecap="round" stroke-linejoin="round"/>
<g opacity="0.3">
<path d="M456.4 45.8019C456.358 45.9156 456.305 46.0243 456.256 46.1347C456.177 46.3108 456.09 46.4833 455.991 46.6499C455.906 46.7937 455.809 46.9305 455.71 47.0661C455.594 47.2251 455.475 47.383 455.34 47.5294C455.282 47.5924 455.224 47.6552 455.163 47.7155C454.939 47.9351 454.701 48.1439 454.435 48.326L445.885 54.1427L445.388 56.9605L453.938 51.1436C454.205 50.9615 454.442 50.753 454.666 50.5332C454.727 50.4728 454.785 50.4105 454.843 50.3473C454.907 50.2779 454.979 50.2143 455.039 50.1421C455.106 50.0613 455.152 49.9678 455.213 49.8838C455.313 49.7478 455.409 49.6119 455.494 49.4677C455.529 49.4086 455.577 49.3572 455.609 49.297C455.669 49.1866 455.707 49.0666 455.759 48.9522C455.809 48.8416 455.861 48.7336 455.903 48.6197C455.92 48.5736 455.946 48.5316 455.962 48.485C456.042 48.2437 456.105 47.9962 456.15 47.7436L456.647 44.9255C456.594 45.2266 456.504 45.5174 456.4 45.8019Z" fill="#AAAAAA"/>
<path d="M416.336 48.9323L410.291 40.542C409.45 39.3676 409.136 37.9514 409.376 36.5903L408.879 39.4082C408.639 40.7692 408.953 42.1856 409.795 43.3597L415.84 51.75L416.336 48.9323Z" fill="#AAAAAA"/>
<path d="M445.377 66.5704C445.314 66.7123 445.255 66.8561 445.179 66.9917C445.059 67.2076 444.915 67.4101 444.764 67.6075C444.719 67.6662 444.684 67.7316 444.637 67.7884C444.436 68.0278 444.215 68.2518 443.971 68.454C442.776 69.4507 441.222 69.8752 439.701 69.607C438.877 69.4617 438.081 69.1018 437.403 68.5833L429.215 62.2597L419.368 65.4031C418.553 65.6585 417.682 65.7245 416.858 65.5792C415.337 65.311 414.022 64.3806 413.24 63.0353C412.617 61.9707 412.399 60.7264 412.61 59.5289L412.113 62.3467C411.902 63.544 412.12 64.7884 412.743 65.853C413.525 67.1985 414.84 68.1288 416.362 68.3971C417.185 68.5424 418.056 68.4764 418.871 68.2207L428.718 65.0775L436.906 71.4009C437.584 71.9197 438.38 72.2796 439.204 72.4248C440.725 72.6931 442.279 72.2686 443.474 71.2717C443.718 71.0697 443.939 70.846 444.139 70.6067C444.144 70.6007 444.151 70.596 444.156 70.59C444.199 70.5376 444.228 70.4758 444.27 70.4218C444.42 70.2254 444.562 70.0248 444.682 69.8098C444.694 69.7885 444.712 69.7704 444.723 69.7489C444.786 69.6327 444.827 69.5066 444.881 69.3862C444.938 69.258 445.001 69.1337 445.048 69.0011C445.056 68.9783 445.069 68.9578 445.076 68.935C445.157 68.6933 445.221 68.4451 445.265 68.1923L445.762 65.3745C445.713 65.6508 445.637 65.9199 445.545 66.1827C445.498 66.316 445.434 66.4416 445.377 66.5704Z" fill="#AAAAAA"/>
</g>
<path opacity="0.3" d="M436.28 22.1929C438.257 22.5416 439.836 23.9576 440.398 25.8728L443.303 35.8051L453.134 39.0454C455.032 39.6696 456.394 41.2967 456.673 43.2818C456.953 45.2671 456.094 47.1912 454.435 48.3257L445.885 54.1425L445.84 64.4828C445.839 66.0193 445.153 67.4749 443.971 68.454C442.776 69.4508 441.222 69.8753 439.701 69.6071C438.877 69.4618 438.081 69.102 437.403 68.5833L429.215 62.2598L419.368 65.4031C418.553 65.6586 417.682 65.7246 416.858 65.5793C415.337 65.3111 414.022 64.3807 413.24 63.0353C412.464 61.711 412.317 60.1084 412.842 58.6642L416.336 48.9323L410.291 40.5419C409.12 38.9085 408.971 36.8066 409.913 35.0367C410.855 33.2668 412.691 32.2036 414.688 32.2664L425.035 32.5839L431.162 24.2443C432.345 22.6366 434.313 21.8461 436.28 22.1929Z" fill="#BABABA"/>
<path opacity="0.3" d="M433.029 49.5329C432.89 50.0842 432.612 50.4782 432.194 50.7151C431.776 50.9518 431.276 50.997 430.695 50.8507C430.143 50.7119 429.724 50.4355 429.438 50.0214C429.151 49.6073 429.077 49.1245 429.216 48.5732L429.435 47.7003C429.667 46.7814 430.144 46.1123 430.869 45.6917C431.593 45.2716 432.282 44.932 432.933 44.6723C434.428 44.0392 435.299 43.2325 435.545 42.2519C435.7 41.6395 435.614 41.1378 435.289 40.7462C434.964 40.3552 434.48 40.0785 433.837 39.9166C433.255 39.7701 432.747 39.7813 432.315 39.9487C431.881 40.1168 431.584 40.4571 431.422 40.97C431.291 41.3606 430.992 41.6762 430.525 41.9165C430.056 42.1575 429.563 42.2118 429.042 42.0808C428.521 41.9497 428.117 41.6451 427.831 41.1654C427.544 40.6863 427.459 40.2169 427.575 39.7574C427.798 38.8694 428.271 38.1249 428.992 37.5248C429.712 36.9244 430.579 36.5242 431.591 36.3223C432.602 36.121 433.659 36.159 434.762 36.4365C436.477 36.8681 437.785 37.6859 438.688 38.8901C439.589 40.0941 439.856 41.4313 439.486 42.9015C439.123 44.3416 438.578 45.344 437.849 45.9095C437.121 46.4757 436.304 46.9372 435.4 47.296C434.679 47.571 434.154 47.8129 433.824 48.0232C433.494 48.2332 433.303 48.446 433.249 48.66L433.029 49.5329ZM429.651 57.1343C428.915 56.9493 428.353 56.5635 427.963 55.9769C427.573 55.3903 427.46 54.7753 427.621 54.1321C427.791 53.4587 428.19 52.9402 428.819 52.577C429.447 52.2146 430.129 52.1252 430.865 52.3102C431.538 52.4797 432.05 52.8697 432.402 53.4789C432.754 54.0886 432.845 54.7306 432.675 55.404C432.513 56.0472 432.137 56.5387 431.547 56.8788C430.956 57.2186 430.324 57.3038 429.651 57.1343Z" fill="white"/>
<path opacity="0.1" d="M432.16 96C458.67 96 480.16 74.5097 480.16 48C480.16 21.4903 458.67 0 432.16 0C405.65 0 384.16 21.4903 384.16 48C384.16 74.5097 405.65 96 432.16 96Z" fill="white"/>
<path opacity="0.1" d="M396.977 48C396.977 33.2 406.115 20.5344 419.057 15.3375" stroke="white" stroke-width="10.08" stroke-linecap="round" stroke-linejoin="round"/>
<path opacity="0.1" d="M401.029 64.4086C400.563 63.5256 400.133 62.6204 399.742 61.695" stroke="white" stroke-width="10.08" stroke-linecap="round" stroke-linejoin="round"/>
<defs>
<linearGradient id="paint0_linear_3336_23801" x1="44.632" y1="65.4711" x2="51.6277" y2="25.7961" gradientUnits="userSpaceOnUse">
<stop stop-color="#5EE0ED"/>
<stop offset="0.3" stop-color="#C0B2FD"/>
<stop offset="0.7" stop-color="#F6B2FF"/>
<stop offset="1" stop-color="#FADCA0"/>
</linearGradient>
</defs>
</svg>
