<svg width="81" height="80" viewBox="0 0 81 80" fill="none" xmlns="http://www.w3.org/2000/svg">
<path d="M74.645 53.2735C75.8289 51.5147 76.4951 49.419 76.4951 47.2456C76.4951 46.3164 76.3731 45.3921 76.1314 44.4863C76.5213 42.3491 76.7185 40.1685 76.7185 37.9907C76.7185 18.1455 60.5735 2.00049 40.7285 2.00049C20.8835 2.00049 4.73829 18.1455 4.73829 37.9907C4.73829 40.1675 4.93578 42.3486 5.32568 44.4868C5.08398 45.3926 4.96194 46.3169 4.96194 47.2456C4.96194 49.419 5.62818 51.5142 6.81203 53.2735C3.90163 55.9234 2.16113 59.7188 2.16113 63.7862C2.16113 71.6231 8.53689 77.9991 16.3735 77.9991C20.8621 77.9991 24.9963 75.9 27.6457 72.4483C31.228 74.1509 35.1499 75.0401 39.1545 75.0401H42.3025C46.3071 75.0401 50.229 74.1509 53.8113 72.4483C56.4607 75.8999 60.5947 77.9991 65.0832 77.9991C72.9199 77.9991 79.2956 71.6231 79.2956 63.7862C79.2956 59.7193 77.5554 55.9234 74.645 53.2735Z" fill="#44220A"/>
<path d="M16.3735 74.7485C22.4279 74.7485 27.3359 69.8405 27.3359 63.7861C27.3359 57.7318 22.4279 52.8237 16.3735 52.8237C10.3192 52.8237 5.41113 57.7318 5.41113 63.7861C5.41113 69.8405 10.3192 74.7485 16.3735 74.7485Z" fill="#44220A"/>
<path d="M65.083 74.7485C71.1374 74.7485 76.0454 69.8405 76.0454 63.7861C76.0454 57.7318 71.1374 52.8237 65.083 52.8237C59.0286 52.8237 54.1206 57.7318 54.1206 63.7861C54.1206 69.8405 59.0286 74.7485 65.083 74.7485Z" fill="#44220A"/>
<path d="M40.7285 70.7309C58.8104 70.7309 73.4687 56.0726 73.4687 37.9907C73.4687 19.9088 58.8104 5.25049 40.7285 5.25049C22.6466 5.25049 7.98828 19.9088 7.98828 37.9907C7.98828 56.0726 22.6466 70.7309 40.7285 70.7309Z" fill="#44220A"/>
<path d="M34.5224 24.6016H46.9344C57.4078 24.6016 65.9109 33.1046 65.9109 43.578V48.181C65.9109 61.211 55.3322 71.7896 42.3023 71.7896H39.1545C26.1245 71.7896 15.5459 61.211 15.5459 48.181V43.578C15.5459 33.1046 24.049 24.6016 34.5224 24.6016Z" fill="#FFDBBD"/>
<path d="M15.7732 54.8071C19.9491 54.8071 23.3344 51.4218 23.3344 47.2458C23.3344 43.0699 19.9491 39.6846 15.7732 39.6846C11.5972 39.6846 8.21191 43.0699 8.21191 47.2458C8.21191 51.4218 11.5972 54.8071 15.7732 54.8071Z" fill="#FFDBBD"/>
<path d="M65.6838 54.8071C69.8598 54.8071 73.2451 51.4218 73.2451 47.2458C73.2451 43.0699 69.8598 39.6846 65.6838 39.6846C61.5078 39.6846 58.1226 43.0699 58.1226 47.2458C58.1226 51.4218 61.5078 54.8071 65.6838 54.8071Z" fill="#FFDBBD"/>
<path d="M30.0444 44.2793H30.0443C28.123 44.2793 26.5654 45.8369 26.5654 47.7582V50.7401C26.5654 52.6615 28.123 54.219 30.0443 54.219H30.0444C31.9657 54.219 33.5233 52.6615 33.5233 50.7401V47.7582C33.5233 45.8369 31.9657 44.2793 30.0444 44.2793Z" fill="#1C1815"/>
<path d="M51.4126 44.2793H51.4125C49.4911 44.2793 47.9336 45.8369 47.9336 47.7582V50.7401C47.9336 52.6615 49.4911 54.219 51.4125 54.219H51.4126C53.3339 54.219 54.8914 52.6615 54.8914 50.7401V47.7582C54.8914 45.8369 53.3339 44.2793 51.4126 44.2793Z" fill="#1C1815"/>
<path d="M42.5788 51.7069C42.5788 50.6849 41.7504 49.8564 40.7284 49.8564C39.7064 49.8564 38.8779 50.6849 38.8779 51.7069V53.9414C38.8779 54.9634 39.7064 55.7918 40.7284 55.7918C41.7504 55.7918 42.5788 54.9634 42.5788 53.9414V51.7069Z" fill="#FFCEA9"/>
<path d="M45.7124 60.3613H35.7446C34.9163 60.3613 34.2446 59.6899 34.2446 58.8613C34.2446 58.0327 34.9163 57.3613 35.7446 57.3613H45.7124C46.5407 57.3613 47.2124 58.0327 47.2124 58.8613C47.2124 59.6899 46.5407 60.3613 45.7124 60.3613Z" fill="#FFB685"/>
<path d="M54.6741 17.3867H20.5682L13.8647 35.0999H16.9201C22.9285 35.0999 28.2345 32.1054 31.4372 27.5304C34.6399 32.1054 39.946 35.0999 45.9544 35.0999H67.5919L54.6741 17.3867Z" fill="#44220A"/>
<path d="M52.437 39.1289C48.0294 39.1289 44.3263 42.1608 43.2767 46.2456H38.1801C37.1304 42.1608 33.4274 39.1289 29.0198 39.1289C23.7993 39.1289 19.5522 43.376 19.5522 48.5967C19.5522 53.8174 23.7993 58.0644 29.0198 58.0644C34.2403 58.0644 38.4875 53.8174 38.4875 48.5967C38.4875 48.4781 38.4741 48.363 38.4697 48.2456H42.987C42.9826 48.3631 42.9692 48.4782 42.9692 48.5967C42.9692 53.8174 47.2165 58.0644 52.437 58.0644C57.6574 58.0644 61.9047 53.8174 61.9047 48.5967C61.9047 43.376 57.6574 39.1289 52.437 39.1289ZM29.0198 56.0645C24.9021 56.0645 21.5522 52.7144 21.5522 48.5967C21.5522 44.4791 24.9021 41.129 29.0198 41.129C33.1375 41.129 36.4875 44.4791 36.4875 48.5967C36.4875 52.7144 33.1374 56.0645 29.0198 56.0645ZM52.437 56.0645C48.3193 56.0645 44.9692 52.7144 44.9692 48.5967C44.9692 44.4791 48.3193 41.129 52.437 41.129C56.5546 41.129 59.9047 44.4791 59.9047 48.5967C59.9047 52.7144 56.5546 56.0645 52.437 56.0645Z" fill="#FF6112"/>
</svg>
