<svg width="81" height="80" viewBox="0 0 81 80" fill="none" xmlns="http://www.w3.org/2000/svg">
<path d="M76.4478 39.4702C76.4478 19.625 60.3025 3.47998 40.4575 3.47998C20.6125 3.47998 4.46729 19.625 4.46729 39.4702C4.46729 41.6475 4.66479 43.8286 5.05469 45.9663C4.81299 46.8721 4.69093 47.7964 4.69093 48.7251C4.69093 52.3003 6.46924 55.6333 9.39014 57.6382C12.2881 62.5816 16.3525 66.7945 21.1982 69.8702C26.0972 74.1602 32.3659 76.5196 38.8835 76.5196H42.0315C48.5491 76.5196 54.8179 74.1602 59.7168 69.8702C64.563 66.794 68.6277 62.5811 71.5249 57.6382C74.4458 55.6333 76.2241 52.3008 76.2241 48.7251C76.2241 47.7964 76.102 46.8721 75.8603 45.9663C76.2502 43.8281 76.4478 41.647 76.4478 39.4702Z" fill="#331D0D"/>
<path d="M40.4575 72.2104C58.5394 72.2104 73.1977 57.5521 73.1977 39.4702C73.1977 21.3883 58.5394 6.72998 40.4575 6.72998C22.3756 6.72998 7.71729 21.3883 7.71729 39.4702C7.71729 57.5521 22.3756 72.2104 40.4575 72.2104Z" fill="#331D0D"/>
<path d="M34.2514 26.0811H46.6635C57.1369 26.0811 65.6399 34.5841 65.6399 45.0575V49.6605C65.6399 62.6905 55.0612 73.2691 42.0313 73.2691H38.8835C25.8535 73.2691 15.2749 62.6905 15.2749 49.6605V45.0575C15.2749 34.5841 23.778 26.0811 34.2514 26.0811Z" fill="#FFDBBD"/>
<path d="M15.5022 56.2866C19.6781 56.2866 23.0634 52.9013 23.0634 48.7253C23.0634 44.5493 19.6781 41.1641 15.5022 41.1641C11.3262 41.1641 7.94092 44.5493 7.94092 48.7253C7.94092 52.9013 11.3262 56.2866 15.5022 56.2866Z" fill="#FFDBBD"/>
<path d="M65.4128 56.2866C69.5888 56.2866 72.974 52.9013 72.974 48.7253C72.974 44.5493 69.5888 41.1641 65.4128 41.1641C61.2368 41.1641 57.8516 44.5493 57.8516 48.7253C57.8516 52.9013 61.2368 56.2866 65.4128 56.2866Z" fill="#FFDBBD"/>
<path d="M29.7734 45.7588H29.7733C27.852 45.7588 26.2944 47.3163 26.2944 49.2377V52.2196C26.2944 54.141 27.852 55.6985 29.7733 55.6985H29.7734C31.6947 55.6985 33.2523 54.141 33.2523 52.2196V49.2377C33.2523 47.3163 31.6947 45.7588 29.7734 45.7588Z" fill="#1C1815"/>
<path d="M51.1416 45.7588H51.1415C49.2202 45.7588 47.6626 47.3163 47.6626 49.2377V52.2196C47.6626 54.141 49.2202 55.6985 51.1415 55.6985H51.1416C53.0629 55.6985 54.6205 54.141 54.6205 52.2196V49.2377C54.6205 47.3163 53.0629 45.7588 51.1416 45.7588Z" fill="#1C1815"/>
<path d="M42.3078 53.1864C42.3078 52.1644 41.4794 51.3359 40.4574 51.3359C39.4354 51.3359 38.6069 52.1644 38.6069 53.1864V55.4209C38.6069 56.4429 39.4354 57.2713 40.4574 57.2713C41.4794 57.2713 42.3078 56.4429 42.3078 55.4209V53.1864Z" fill="#FFCEA9"/>
<path d="M45.4414 62.7441H35.4736C34.6453 62.7441 33.9736 62.0727 33.9736 61.2441C33.9736 60.4155 34.6453 59.7441 35.4736 59.7441H45.4414C46.2697 59.7441 46.9414 60.4155 46.9414 61.2441C46.9414 62.0727 46.2697 62.7441 45.4414 62.7441Z" fill="#FFB685"/>
<path d="M54.4333 20.1401H26.4814V36.574H54.4333V20.1401Z" fill="#331D0D"/>
<path d="M15.5327 38.1223H23.6682L26.3873 21.6886L21.1462 20.1401L15.5327 38.1223Z" fill="#331D0D"/>
<path d="M59.7689 20.1401L54.5278 21.6886L57.2469 38.1223H65.3824L59.7689 20.1401Z" fill="#331D0D"/>
</svg>
