<?xml version="1.0" encoding="UTF-8"?>
<svg xmlns="http://www.w3.org/2000/svg" viewBox="0 0 1500 1092.5217">
  <defs>
    <style>
      .cls-1 {
        fill: #ffb47f;
      }

      .cls-2 {
        fill: #512b13;
      }

      .cls-3 {
        fill: #f8eacb;
      }

      .cls-4 {
        fill: #142835;
      }

      .cls-5 {
        fill: #ffb583;
      }

      .cls-6 {
        fill: #1e4056;
      }

      .cls-7 {
        fill: #ffaf78;
      }

      .cls-8 {
        fill: #163649;
      }

      .cls-9 {
        fill: #f7e8cd;
      }

      .cls-10 {
        fill: #204359;
      }

      .cls-11 {
        fill: #ffb781;
      }

      .cls-12 {
        fill: #fb8b3d;
      }

      .cls-13 {
        fill: #274d5f;
      }

      .cls-14 {
        fill: #e2d0b5;
      }

      .cls-15 {
        fill: #19394e;
      }

      .cls-16 {
        fill: #332721;
      }

      .cls-17 {
        fill: #f5e6c9;
      }

      .cls-18 {
        fill: #153448;
      }

      .cls-19 {
        fill: #1e3f54;
      }

      .cls-20 {
        fill: #153549;
      }

      .cls-21 {
        fill: #f4e3c0;
      }

      .cls-22 {
        fill: #ffbf8b;
      }

      .cls-23 {
        fill: #214358;
      }

      .cls-24 {
        fill: #11333f;
      }

      .cls-25 {
        fill: #f8e8cd;
      }

      .cls-26 {
        fill: #31231c;
      }

      .cls-27 {
        fill: #cbbfa5;
      }

      .cls-28 {
        fill: #783c0f;
      }

      .cls-29 {
        fill: #f08d44;
      }

      .cls-30 {
        fill: #32251e;
      }

      .cls-31 {
        fill: #ffbb85;
      }

      .cls-32 {
        fill: #f5e3c6;
      }

      .cls-33 {
        fill: #f1e2c5;
      }

      .cls-34 {
        fill: #19384d;
      }

      .cls-35 {
        fill: #252630;
      }

      .cls-36 {
        fill: #1c4055;
      }

      .cls-37 {
        fill: #16374b;
      }

      .cls-38 {
        fill: none;
        stroke: #f88a3e;
        stroke-linecap: round;
        stroke-linejoin: round;
        stroke-width: 10px;
      }

      .cls-39 {
        fill: #252c32;
      }

      .cls-40 {
        fill: #66381f;
      }

      .cls-41 {
        fill: #fea360;
      }

      .cls-42 {
        fill: #fda15f;
      }

      .cls-43 {
        fill: #ffc08e;
      }

      .cls-44 {
        fill: #f6e8c7;
      }

      .cls-45 {
        fill: #d3c6a9;
      }

      .cls-46 {
        fill: #1a3a4e;
      }

      .cls-47 {
        fill: #ac7846;
      }

      .cls-48 {
        fill: #261106;
      }

      .cls-49 {
        fill: #1f4156;
      }

      .cls-50 {
        fill: #f6e7ca;
      }

      .cls-51 {
        fill: #1e3f56;
      }

      .cls-52 {
        fill: #1e4257;
      }

      .cls-53 {
        fill: #f8ebcd;
      }

      .cls-54 {
        fill: #f99a53;
      }

      .cls-55 {
        fill: #f5e3c0;
      }

      .cls-56 {
        fill: #1b394f;
      }

      .cls-57 {
        fill: #f7e6cb;
      }

      .cls-58 {
        fill: #31251c;
      }

      .cls-59 {
        fill: #f2dbb9;
      }

      .cls-60 {
        fill: #fdb47d;
      }

      .cls-61 {
        fill: #fb9f5d;
      }

      .cls-62 {
        fill: #502816;
      }

      .cls-63 {
        fill: #25475f;
      }

      .cls-64 {
        fill: #fec091;
      }

      .cls-65 {
        fill: #f4dbb7;
      }

      .cls-66 {
        fill: #204257;
      }

      .cls-67 {
        fill: #d1c7a9;
      }

      .cls-68 {
        fill: #d0c6aa;
      }

      .cls-69 {
        fill: #f6e6c9;
      }

      .cls-70 {
        fill: #23475c;
      }

      .cls-71 {
        fill: #fbffef;
      }

      .cls-72 {
        fill: #13303f;
      }

      .cls-73 {
        fill: #f7ebcf;
      }

      .cls-74 {
        fill: #ffba84;
      }

      .cls-75 {
        fill: #322620;
      }

      .cls-76 {
        fill: #2b2c3a;
      }
    </style>
  </defs>
  <g id="Layer_17" data-name="Layer 17">
    <path class="cls-22" d="M939.0807,992.6668s-1.1426,79.8391,14.8091,99.8549h53.0815c3.6299-2.4469,6.1572-5.1776,6.9482-7.8549,3.3545-11.3547,9.8062-45.1613,9.6772-45.5483s-2.1934-41.9355-2.1934-41.9355l-82.3228-4.5161Z"/>
    <polygon class="cls-39" points="1368.2418 996.1507 1018.1129 998.0217 1021.3839 1092.5217 1172.7872 1092.5217 1174.3063 1070.2798 1178.4469 1076.0862 1180.5963 1092.5217 1370.4156 1092.5217 1368.2418 996.1507"/>
    <path class="cls-23" d="M1014.1774,954.8282c-2.4516,3.2258-4.129,14.0645-3.0968,22.4516,1.0323,8.3871-1.0323,23.2258,6.5806,25.8065s78.4516,10.4516,142.7097,11.4839c64.2581,1.0323,200-6.4516,207.4839-10.5806,7.4839-4.129,8.2581-19.0968,8.5161-29.2903.2581-10.1935-1.6774-26.3226-1.6774-26.3226l-360.5161,6.4516Z"/>
    <path class="cls-74" d="M1112.3871,433.9411s-2.7097,17.6129-1.1613,27.871c1.5484,10.2581,23.0323,49.7419,50.129,59.2258,27.0968,9.4839,76.6452-44.9032,78.9677-62.5161,2.3226-17.6129,1.3548-39.871,1.3548-39.871l-129.2903,15.2903Z"/>
    <path class="cls-65" d="M1001.9194,517.3765c-16.2581,8.5161-41.4194,100.2581-50.7097,170.3226-9.2903,70.0645-38.5077,249.6451-20.2216,260.6935,18.2861,11.0484,77.641,6.7904,87.1248,3.1775,9.4839-3.6129,10.7742-430.0806,10.7742-430.0806l-26.9677-4.1129Z"/>
    <path class="cls-52" d="M938.3065,946.8917c-5.0323,8.3559-10.0645,43.3236.6452,48.2268,10.7097,4.9032,83.3548,12,88,6.1935,4.6452-5.8065,3.6129-48.1936-1.0323-52.9355-4.6452-4.7419-87.6129-1.4849-87.6129-1.4849Z"/>
    <path class="cls-59" d="M1029.7057,968.8124c-36.8101,3.9517-79.5728-1.6556-96.2354-4.2452-.7974,5.7737-1.1167,11.9729-.603,17.3094,19.1284,4.0192,72.0098,5.5455,96.8032,6.0521.3799-5.8325.377-12.7117.0352-19.1163Z"/>
    <path class="cls-5" d="M1013.9195,1084.6668c.457-1.5471.9727-3.5209,1.5205-5.7603-3.8818,1.2769-8.5654,1.879-13.8018.6968-11.1523-2.5146-10.9014-29.5166-9.9336-38.7773.2295-2.1963-1.3652-4.1641-3.5615-4.3945-2.1885-.2305-4.1631,1.3623-4.3945,3.5586-.4609,4.377-3.9238,42.8945,16.1299,47.418,2.5898.584,5.0693.8369,7.4268.8369,1.6963-.0001,3.3242-.1372,4.8853-.3708.8242-1.0637,1.4136-2.14,1.729-3.2073Z"/>
    <path class="cls-36" d="M1110.8985,448.7896c3.2818-5.5116-9.8985,5.8289-20.0921,10.345-10.1935,4.5161-21.5484,11.6129-21.8065,13.9355s-46.8387,10.8387-72.5161,42.3226,8.2581,270.4516,8.2581,293.1613-1.6774,56-2.8387,70.5806-7.2258,74.2581,13.0968,79.4839,184.6452,10.4516,239.0323,9.0968c54.3871-1.3548,120.3871-1.9355,127.1613-17.8065,6.7742-15.871,11.0323-59.8065,4.2581-81.4839-6.7742-21.6774-11.2903-339.6036-11.4194-346.2856-.129-6.6821-.7742-7.0692-3.4839-11.3273-2.7097-4.2581-64.3871-36.7742-80.2581-41.6774-15.871-4.9032-10.3226-6.8387-15.3548-9.6774-5.0323-2.8387-32.7742-16.9032-34.4516-12.9032s-10.1935,29.8065-25.9355,42.9677c-15.7419,13.1613-47.7419,28.2581-51.0968,28.129s-26.5806-16.129-33.1613-26.0645c-6.5806-9.9355-23.5444-35.8227-19.3918-42.7966Z"/>
    <path class="cls-15" d="M1101.0807,969.0217l135.7417,3.0968-1.4233,41.2888c61.5-2.1519,127.3091-6.5781,132.4561-9.4178,7.4834-4.129,8.2578-19.0968,8.5156-29.2904.2583-10.1935-1.6772-26.3225-1.6772-26.3225l-360.5161,6.4517c-2.4517,3.2258-4.1289,14.0645-3.0967,22.4517,1.0322,8.387-1.0322,23.2257,6.5806,25.8064,5.2896,1.793,41.1006,6.1389,84.0176,8.9716-.1484-11.025-.5981-43.0361-.5981-43.0361Z"/>
    <path class="cls-8" d="M1163.4518,517.6508c-.686-.0264-2.2124-.7248-4.248-1.891-5.958,7.4153-9.1221,13.5944-9.3906,18.3641-.1133,2.0186-.6973,8.583-1.5068,17.6689-2.8516,32.043-8.1611,91.6875-6.9395,108.332.626,8.5264-.8203,52.7451-2.3516,99.5596-2.2871,69.9404-4.8799,149.2119-2.7109,164.2383,1.3633,9.4463,1.6416,26.3877,1.9111,42.7705.3701,22.4788.8154,37.6473,2.2373,47.3551,3.0215.1075,6.0435.2028,9.0601.2848-1.6875-10.7379-2.0444-32.342-2.2983-47.7874-.2861-17.4316-.5576-33.8965-2.002-43.9082-2.0557-14.2412.6357-96.5352,2.7979-162.6592,1.6064-49.1035,2.9932-91.5107,2.333-100.5117-1.1689-15.917,4.2998-77.3516,6.9277-106.876.8164-9.1709,1.4062-15.7969,1.5283-17.9609.2983-5.2941,9.3486-15.9288,13.6958-20.2884-4.6875,2.1007-8.0718,3.3468-9.0435,3.3094Z"/>
    <path class="cls-9" d="M1236.4674,982.4232l-.5288,15.3354c14.481-.5046,57.7397-2.1217,86.1743-4.3499,22.5078-1.7637,42.3828-4.8928,53.5234-6.8635.4878-4.0867.6436-8.2615.7344-11.8462.0308-1.2062.0293-2.4972.0054-3.833-10.3945,2.1396-28.4829,5.6667-45.231,7.9622-24.2061,3.3176-77.1953,3.476-94.6777,3.595Z"/>
    <path class="cls-9" d="M1101.4996,999.0138c-.0762-5.5009-.1602-11.5294-.2334-16.7355-10.5454-.1157-36.146-.6316-54.7661-2.9341-22.0796-2.7302-23.6372-3.8259-35.6987-9.1071-.0737,2.3949.0039,4.8055.2793,7.0426.3008,2.4424.3389,5.4326.4297,8.5073,6.2236,2.5789,16.7856,6.4393,28.2798,8.3958,14.7627,2.5128,49.2324,4.261,61.7095,4.8309Z"/>
    <circle class="cls-3" cx="1167.9954" cy="991.9733" r="10.4516"/>
    <path class="cls-72" d="M1138.2154,966.6932c.3701,22.4788.8154,37.6472,2.2373,47.355.0039.0002.0078.0004.0117.0005,3.0122.1072,6.0254.202,9.0327.2839.0054.0002.0103.0002.0156.0005-1.6875-10.738-2.0444-32.342-2.2983-47.7874-.0791-4.8125-.1577-9.5441-.2598-14.0938l-9.0005.1611c.1045,4.6134.1836,9.3674.2612,14.0801Z"/>
    <path class="cls-7" d="M1179.5485,474.1991c32.7554-2.7145,51.2109-13.128,61.5801-23.4485,1.2573-15.7588.5488-32.0998.5488-32.0998l-129.29,15.2903s-1.4434,9.389-1.6201,18.4495c4.8643,10.0652,20.2354,25.8317,68.7812,21.8085Z"/>
    <path class="cls-69" d="M1375.7592,515.3138c-.8255-.7279-2.0649-.6731-2.8417.1065-13.5782,13.6258-24.9939,41.8334-30.982,63.166-6.1935,22.0645-17.8065,117.1613,9.2903,183.3548,0,0-7.3548,6.5806-11.2258,7.9355-3.871,1.3548-22.4516-2.9032-23.2258,1.5484-.7742,4.4516,10.6452,10.4516,8.129,36.1935s-12.1935,49.9355-35.8065,56.5161c0,0,39.6774,8.7097,50.129,4.2581,18.3871,10.4516,66.5806,9.4839,98.9032-7.7419,32.3226-17.2258,29.6129-75.4839,28.6452-106.4516-.9677-30.9677-29.0323-138.7742-42.9677-174.5806-12.2634-31.5101-41.2643-58.3238-48.0473-64.3047Z"/>
    <path class="cls-35" d="M1274.9032,739.1346l-11.0343-42.2294c-1.633-6.2495-7.2783-10.6093-13.7376-10.6093h-169.712c-9.7742,0-16.8387,17.1613-14.7097,28.1935,1.7906,9.2786,32.1261,121.4419,41.7251,156.8666,1.7038,6.2879,7.4091,10.6496,13.9238,10.6496h161.5738c4.848,0,9.3642-2.4622,11.9906-6.5371l6.4318-9.979-4.6452-99.871-21.8065-26.4839Z"/>
    <path class="cls-76" d="M1296.7096,765.6185l-21.8062-26.4839-11.0347-42.2295c-1.6328-6.2495-7.2783-10.6091-13.7373-10.6091h-169.7119c-4.9307,0-9.1689,4.3683-11.8882,10.1121l183.146,1.8556,25.7422,80.9032,19.8706-1.069-.5806-12.4794Z"/>
    <path class="cls-22" d="M1319.129,772.812s-23.4194-37.0645-44.2258-33.6774l7.7419,30.2004s-23.5484-4.652-46.3871-8.3294c-22.8387-3.6774-37.7419-.871-39.4839,4.0645-1.7419,4.9355-.5806,14.8065-.5806,14.8065,0,0-11.129-3.0968-16.0645,4.6452-4.9355,7.7419,1.9355,16.7419,8.4194,19.1613-1.9355,6.2903-2.2258,11.4194,3.0968,18.1935,5.3226,6.7742,12.0968,9,12.0968,9,0,0-3.6774,5.7097,8.2258,15.1935,11.9032,9.4839,65.3226,23.129,84.4839,16.6452,19.1613-6.4839,37.5484-41.4516,37.5484-41.4516l5.2903-31.7419-20.1613-16.7097Z"/>
    <path class="cls-63" d="M1338.9049,868.5176c2.312-1.3611,5.8877-1.0605,8.9658-1.8669,4.0649-1.0645,1.2583-2.3225,11.0327-13.1613,9.7739-10.8387,10.1611-23.9032,9.8706-40.6451-.29-16.7419-3-25.2097-12.8706-35.2258-7.8062-7.9207-11.9805-7.9738-15.7783-7.793-.0405.0149-.0854.0371-.125.051-3.8711,1.3549-22.4517-2.9032-23.2261,1.5483-.7739,4.4517,10.6455,10.4517,8.1294,36.1936-2.5161,25.7419-12.1938,49.9355-35.8066,56.5161,0,0,38.8984,8.5376,49.8081,4.3831Z"/>
    <path class="cls-48" d="M1038.9677,296.5217s-11.2258-44.5161-3.0968-92.5161c8.129-48,73.1613-85.1613,130.0645-84.7742s125.6129,31.5484,135.871,96c10.2581,64.4516-10.6452,101.8065-10.6452,101.8065l-247.7419,2.7097-4.4516-23.2258Z"/>
    <path class="cls-64" d="M1058.6452,305.4249s-10.0645-22.4516-32.3871-6.7097-16.9032,65.8065,26.5806,65.9355c0,0,24.3871,89.2903,114.9677,89.2903s115.3548-89.5484,115.3548-89.5484c0,0,28.9677,6,37.7419-18,8.7742-24,2.7097-52.3871-18.8387-51.6129s-25.4194,15.0968-25.4194,15.0968c0,0-.129-35.7419-6.8387-46.9677l-56.7742-3.7419s.129-19.0968-9.8065-32.6452c0,0-6.3226,19.6129-2.5806,31.7419,0,0-50.1935-3.871-73.1613,1.9355,0,0,1.4194-28.6452-2.1935-37.8065,0,0-10.1935,20.2581-11.3548,39.0968l-51.4839,3.6129-3.8065,40.3226Z"/>
    <path class="cls-45" d="M1420.6774,759.941c1.355-4.9677-.9033-7.9354-3.6128-7.6128-2.7095.3225-35.8711-1.0968-43.355,1.1613-4.9375,1.4899-16.1631,6.1239-23.2319,9.1055-.8071.6962-2.1924,1.8622-3.7617,3.0739,2.6929.6716,4.3472,1.5425,13.6392.2078,11.6772-1.6775,6.1934-3.3549,26.1289-3.6129,19.9355-.2581,32.8384,2.6451,34.1934-2.3226Z"/>
    <g>
      <path class="cls-5" d="M1252.4537,850.5027c2.1982-.2158,3.8066-2.1719,3.5918-4.3711-.2139-2.1982-2.1562-3.8086-4.3711-3.5918-9.6553.9551-38.3486-10.8223-48.5771-15.4385-1.6489-.7418-3.5186-.2645-4.647,1.0299,2.9795,1.9777,5.2915,2.7452,5.2915,2.7452,0,0-1.1997,1.8732.0015,5.251,9.9663,4.3074,34.7437,14.4543,46.9614,14.4543.6152,0,1.2012-.0264,1.749-.0791Z"/>
      <path class="cls-5" d="M1259.7682,790.4627c-39.4771-9.115-56.4595-13.0273-63.8872-14.7078.1084,2.3815.3125,4.1216.3125,4.1216,0,0-5.1929-1.4429-10.0576.1091.5117,1.2633,1.6431,2.2092,3.022,2.4458,2.54.5361,50.4141,11.5781,68.8115,15.8262.3027.0703.6045.1035.9033.1035,1.8203,0,3.4668-1.251,3.8936-3.1016.4971-2.1523-.8447-4.2998-2.998-4.7969Z"/>
      <path class="cls-5" d="M1247.5182,825.5545c1.748,0,3.3545-1.1553,3.8496-2.9209.5967-2.1279-.6445-4.335-2.7715-4.9316l-61.4521-17.2256c-1.1123-.313-2.2388-.1147-3.1523.4403,1.4302,1.2268,3.0034,2.1869,4.5566,2.7662-.5532,1.7974-.9639,3.4988-1.1558,5.1719l59.0435,16.5503c.3613.1016.7246.1494,1.082.1494Z"/>
    </g>
    <path class="cls-24" d="M1282.9283,466.4447c-6.6587-3.0495-3.9995-4.7349-7.9927-6.9875-5.0322-2.8387-32.7744-16.9032-34.4517-12.9032-1.6777,4-10.1938,29.8065-25.9355,42.9677-9.2705,7.7508-24.1758,16.1698-35.5527,21.7581-10.2256,21.0803,35.1143,10.2264,45.8267,5.7419,11.0972-4.6451,20.2583-4.2581,31.8711-10.8387,10.6792-6.0516,21.0269-24.2131,26.2349-39.7383Z"/>
    <path class="cls-69" d="M1271.8453,457.8025c-3.1738-1.65-7.915-4.0074-12.7676-6.1976-4.0225,7.1287-14.0215,24.7473-19.3521,33.2313-6.5298,10.3931-29.603,29.931-50.5874,38.955,10.499.4353,25.4243-3.152,33.0356-5.7755,5.6987-4.5265,13.1826-10.4543,18.9067-14.9294,10.645-8.3226,19.9355-22.5483,26.1289-34.8387,2.4634-4.8882,3.853-8.2109,4.6357-10.445Z"/>
    <path class="cls-24" d="M1090.8224,505.6023c19.0972,10.1935,49.2905,19.7419,61.5483,17.8065,9.2524-1.4609,12.4014-2.923,12.7246-6.1039-.7705.2373-1.332.3578-1.6436.3459-3.355-.1291-26.5811-16.1291-33.1616-26.0646-6.5806-9.9354-23.5444-35.8226-19.3916-42.7966,3.2817-5.5116-9.8984,5.8289-20.0923,10.345-10.1934,4.5162-21.5483,11.6129-21.8062,13.9355-.0107.0955-.1069.2025-.2695.32.9551,9.2955,6.5947,23.9401,22.0918,32.2123Z"/>
    <path class="cls-69" d="M1109.1451,491.4088c-11.6318-12.2441-13.2432-26.8506-13.0757-34.9977-1.7773,1.0239-3.5615,1.9697-5.2632,2.7234-3.542,1.5692-7.2227,3.45-10.5308,5.3337,1.0454,7.1284,5.3325,17.8398,12.3535,28.2308,5.3926,7.9813,12.8667,16.2062,18.4297,21.9277,9.3657,3.5272,19.0615,6.3961,27.1802,7.8965-6.2681-6.7933-17.6191-19.0361-29.0938-31.1145Z"/>
    <circle class="cls-3" cx="1177.9589" cy="557.3463" r="10.4516"/>
    <circle class="cls-3" cx="1172.4952" cy="655.6759" r="10.4516"/>
    <circle class="cls-3" cx="1167.9954" cy="908.6166" r="10.4516"/>
    <rect class="cls-30" x="1202.129" y="297.1023" width="23.8065" height="34.2581" rx="11.9032" ry="11.9032"/>
    <rect class="cls-75" x="1108.5484" y="297.1023" width="23.8065" height="34.2581" rx="11.9032" ry="11.9032"/>
    <path class="cls-16" d="M1276.777,301.0682l-.0117-.2666c-.1602-3.5889-.3818-7.0615-.6572-10.3223l-.043-.5039-19.8477,7.9014c-6.29-16.1436-22.0664-26.9629-39.3818-26.9629-17.2949,0-32.6143,10.334-39.1387,26.3643-9.1221-4.001-17.3857-2.0225-21.7314-.3496-6.6055-15.8164-21.873-26.0146-38.998-26.0146-17.1543,0-32.873,10.6826-39.2461,26.626-7.8643-3.8242-13.7197-6.6494-17.4102-8.3994l-.4844-.2295-1.0566,11.2061.2354.1133c4.6758,2.2471,10.8965,5.2607,16.0381,7.7617-.2188,1.7686-.3291,3.5078-.3291,5.1748,0,23.2979,18.9551,42.2529,42.2529,42.2529s42.2529-18.9551,42.2529-42.2529c0-1.9746-.1426-3.9756-.4229-5.9512,3.2324-1.4805,9.3857-3.2197,16.1504.4805-.2422,1.8506-.3652,3.6895-.3652,5.4707,0,23.2979,18.9551,42.2529,42.2529,42.2529s42.2529-18.9551,42.2529-42.2529c0-1.6084-.0977-3.2256-.2988-4.9365l17.9873-7.1621ZM1216.8356,344.8494c-17.4697,0-31.6826-14.2129-31.6826-31.6826s14.2129-31.6826,31.6826-31.6826,31.6826,14.2129,31.6826,31.6826-14.2129,31.6826-31.6826,31.6826ZM1116.9674,344.8494c-17.4697,0-31.6826-14.2129-31.6826-31.6826s14.2129-31.6826,31.6826-31.6826,31.6826,14.2129,31.6826,31.6826-14.2129,31.6826-31.6826,31.6826Z"/>
    <path class="cls-42" d="M1168.1627,357.7996c-5.4854,0-9.9658-1.249-13.3633-3.7324-3.4854-2.5459-4.5527-7.376-2.4824-11.2344l8.9316-16.6533c1.0449-1.9453,3.4668-2.6777,5.416-1.6348,1.9473,1.0449,2.6787,3.4697,1.6348,5.416l-8.9326,16.6533c-.1875.3496-.1191.7949.1523.9932,1.874,1.3711,5.6299,2.8145,12.8916,1.9121,2.1973-.2695,4.1904,1.2852,4.4619,3.4775s-1.2852,4.1895-3.4775,4.4619c-1.834.2275-3.5791.3408-5.2324.3408Z"/>
    <path class="cls-12" d="M1165.2545,388.4539c-21.0215,0-33.2783-7.7744-34.0225-8.2607-1.8496-1.207-2.3691-3.6865-1.1611-5.5361,1.2061-1.8447,3.6748-2.3662,5.5234-1.1689.9951.6357,24.3174,15.1328,62.9805.3936,2.0645-.7871,4.376.248,5.1621,2.3125.7871,2.0645-.248,4.375-2.3125,5.1621-13.8818,5.293-26.0439,7.0977-36.1699,7.0977Z"/>
    <path class="cls-69" d="M1321.4073,869.2505c9.7422-4.741,21.6318-16.0562,25.3086-24.1804,4.5547-10.0646,8.8647-30.7097,3.9614-51.3549-2.9858-12.5724-13.4316-20.0656-21.2646-24.067-2.1714-.17-4.3682-.3142-6.3135-.3108,5.1997,6.3992,15.8057,19.8335,17.6426,25.152,2.4517,7.0968,1.1616,23.2258-2.9678,38.1935-4.1289,14.9678-13.29,24.1292-20.3867,28.1292-3.4404,1.939-6.4805,4.7861-7.5596,7.0598,3.8096.5562,7.7827,1.0515,11.5796,1.3787Z"/>
    <path class="cls-69" d="M1267.1099,667.1647c-7.9443,0-15.3691-1.339-22.2728-4.0139-6.9068-2.6749-12.3447-6.2559-16.3153-10.7475-1.9018-2.0719-2.8481-4.4886-2.8481-7.2516,0-2.9331,1.121-5.523,3.366-7.7696,2.242-2.242,4.9215-3.366,8.0293-3.366,2.9331,0,5.4379,1.0359,7.5098,3.1078,2.9331,2.763,6.6439,4.92,11.1356,6.4739,4.487,1.5539,8.8906,2.3316,13.2075,2.3316,4.4886,0,8.3726-.9926,11.6536-2.9795,3.2779-1.9822,4.9215-5.1349,4.9215-9.4518,0-3.6258-1.5137-6.4306-4.5319-8.4174-3.0228-1.9822-8.0726-3.581-15.151-4.7901-12.6045-2.0719-22.1011-5.5678-28.4869-10.4893-6.3888-4.92-9.5817-11.8685-9.5817-20.8472,0-9.6667,3.7108-17.3915,11.1356-23.1788,7.4217-5.7812,17.1781-8.6756,29.2646-8.6756,12.4298,0,22.3563,3.1975,29.781,9.5832,2.9347,2.4198,4.4035,5.2678,4.4035,8.5458,0,2.763-1.0808,5.1395-3.2377,7.1217-2.16,1.9868-4.7066,2.9779-7.6397,2.9779-2.2451,0-4.3169-.603-6.2157-1.8121-6.5635-4.1438-13.4657-6.2157-20.7173-6.2157-4.3185,0-7.9443.8659-10.8774,2.5899-2.9377,1.7271-4.402,4.3169-4.402,7.7696,0,3.6243,2.2853,6.4739,6.862,8.5458,4.5736,2.0719,11.2655,3.9737,20.071,5.6977,4.8318.8659,9.6219,2.3749,14.3733,4.5319,4.7468,2.16,8.7158,5.3977,11.9133,9.7116,3.1913,4.3169,4.7901,10.1893,4.7901,17.6095,0,9.8415-3.7541,17.8692-11.2655,24.0849-7.5098,6.2157-17.1363,9.3235-28.875,9.3235Z"/>
  </g>
  <g id="Layer_15" data-name="Layer 15">
    <path class="cls-43" d="M490.1383,1092.5217h16.1704c25.2515-16.4015,29.7236-106.2581,29.7236-106.2581l-38.0645-4.4005s-29.6245,93.823-7.8296,110.6586Z"/>
    <polygon class="cls-4" points="491.3226 992.6669 545.129 987.9288 538.1613 898.7694 491.3226 902.7798 491.3226 992.6669"/>
    <path class="cls-5" d="M496.5514,1074.909c-1.1729,0-2.334-.5127-3.124-1.498-1.3818-1.7236-1.1045-4.2412.6191-5.623,14.5332-11.6494,13.7393-43.4053,13.7295-43.7246-.0674-2.209,1.668-4.0527,3.876-4.1201.042-.001.083-.002.124-.002,2.1533,0,3.9307,1.7119,3.9961,3.8779.0449,1.4678.8906,36.0928-16.7217,50.2109-.7383.5918-1.6221.8789-2.499.8789Z"/>
    <path class="cls-47" d="M497.5807,987.554l-361.1611,4.2581s-8.6475,74.1262-6.2168,100.7096h207.7197l1.8862-34.8663c.0894-1.6488,1.4521-2.9401,3.1035-2.9401,1.6572,0,3.0229,1.3,3.104,2.9552l1.7163,34.8512h153.6357l-3.7876-104.9677Z"/>
    <path class="cls-28" d="M314.8226,129.8604c68.7413-4.7368,127.7419,29.0323,147.4839,108,19.7419,78.9677,13.8065,115.7419,30.5806,151.4839s2.4516,93.1613-27.6129,97.1613c-30.0645,4-295.6774,2.129-295.6774,2.129,0,0-38.1935-33.5484-27.3548-76.6452,10.8387-43.0968,24-59.871,32.5161-107.6129,8.5161-47.7419,24.9032-166.5806,140.0645-174.5161Z"/>
    <path class="cls-66" d="M125.7097,942.4572c-2.0645,27.3548-6.7097,50.6452,13.6774,57.7419s119.5484,17.871,213.2258,16.0645,142.7097-9.8065,147.0968-20.6452,10.0645-49.5123,8.2581-51.7239-382.2581-1.4374-382.2581-1.4374Z"/>
    <path class="cls-56" d="M125.7096,942.4571c-2.0645,27.355-6.7095,50.6453,13.6777,57.7419,15.7334,5.4771,78.3867,13.1426,149.2256,15.527v-44.6881s97.5483,3.3547,138.9678-2.2581l-.5898,44.1069c45.4526-3.6748,69.6948-9.7969,72.7188-17.2683,4.3872-10.8386,10.0645-49.5123,8.2583-51.7239-1.8066-2.2117-382.2583-1.4375-382.2583-1.4375Z"/>
    <path class="cls-51" d="M266.2958,436.4156c-6.7237,1.8255-36.5866,10.4628-51.4733,23.6384,0,0-74.5161,29.8065-92.5161,60.7742-22.2581,17.7419,19.0323,161.438,14.3871,204.2996-4.6452,42.8616-10.8123,115.1197-21.0191,161.3133-10.2067,46.1935.89,62.1935,27.2126,68.3871,26.3226,6.1935,218.0645,13.9355,283.3548,10.8387,65.2903-3.0968,85.9355-12.5885,89.2903-19.8426s0-435.0445,0-435.0445c0,0-115.2258-74.6613-123.3548-64.9839-8.129,9.6774-75.6129,41.1613-100.3871,17.1613-17.7478-17.1932-22.4503-23.5594-23.6901-25.7876-.3558-.6394-1.0982-.9458-1.8044-.754Z"/>
    <path class="cls-69" d="M844.0502,649.5401c-7.9443,0-15.3691-1.339-22.2728-4.0139-6.9068-2.6749-12.3447-6.2559-16.3153-10.7475-1.9018-2.0719-2.8481-4.4886-2.8481-7.2516,0-2.9331,1.121-5.523,3.366-7.7696,2.242-2.242,4.9215-3.366,8.0293-3.366,2.9331,0,5.4379,1.0359,7.5098,3.1078,2.9331,2.763,6.6439,4.92,11.1356,6.4739,4.487,1.5539,8.8906,2.3316,13.2075,2.3316,4.4886,0,8.3726-.9926,11.6536-2.9795,3.2779-1.9822,4.9215-5.1349,4.9215-9.4518,0-3.6258-1.5137-6.4306-4.5319-8.4174-3.0228-1.9822-8.0726-3.581-15.151-4.7901-12.6045-2.0719-22.1011-5.5678-28.4869-10.4893-6.3888-4.92-9.5817-11.8685-9.5817-20.8472,0-9.6667,3.7108-17.3915,11.1356-23.1788,7.4217-5.7812,17.1781-8.6756,29.2646-8.6756,12.4298,0,22.3563,3.1975,29.781,9.5832,2.9347,2.4198,4.4035,5.2678,4.4035,8.5458,0,2.763-1.0808,5.1395-3.2377,7.1217-2.16,1.9868-4.7066,2.9779-7.6397,2.9779-2.2451,0-4.3169-.603-6.2157-1.8121-6.5635-4.1438-13.4657-6.2157-20.7173-6.2157-4.3185,0-7.9443.8659-10.8774,2.5899-2.9377,1.7271-4.402,4.3169-4.402,7.7696,0,3.6243,2.2853,6.4739,6.862,8.5458,4.5736,2.0719,11.2655,3.9737,20.071,5.6977,4.8318.8659,9.6219,2.3749,14.3733,4.5319,4.7468,2.16,8.7158,5.3977,11.9133,9.7116,3.1913,4.3169,4.7901,10.1893,4.7901,17.6095,0,9.8415-3.7541,17.8692-11.2655,24.0849-7.5098,6.2157-17.1363,9.3235-28.875,9.3235Z"/>
    <path class="cls-18" d="M350.3551,696.9695c-.0439-31.8848-5.332-90.5605-8.8311-129.3877-1.5244-16.9121-2.8398-31.5166-2.7832-34.0781.1162-5.2568,6.6572-16.8076,10.7529-22.8535.4346-.6417.6831-1.3489.7896-2.0675-5.7124,3.5905-9.6221,5.5035-9.6221,5.5035-1.3853-.5195-2.7383-1.0456-4.0747-1.5749-3.5117,6.1345-7.709,14.6937-7.8438,20.7698-.0664,2.9834.9219,14.1211,2.8213,35.1982,3.4834,38.6514,8.748,97.0615,8.791,128.5039.0273,20.1797,2.5215,49.5527,5.1621,80.6494,3.5273,41.5391,7.1748,84.4932,5.127,108.1992-2.5518,29.5331-5.4385,94.7725-6.9146,130.5625,2.9644-.0325,5.9268-.0737,8.8833-.1307.3809-.0073.752-.016,1.1313-.0236,1.4795-35.8271,4.3398-100.3464,6.8628-129.5469,2.1221-24.5605-1.5625-67.9473-5.125-109.9062-2.623-30.8838-5.0996-60.0547-5.127-79.8174Z"/>
    <path class="cls-21" d="M288.6129,983.9195c-13.1992-.1277-38.2676-.6626-72.9302-2.6881-43.084-2.5177-79.5894-12.7107-91.7368-16.4351-.2842,5.4174-.2891,10.4459.2915,14.9539,40.251,15.6725,140.4126,19.4359,164.3755,20.1227v-15.9534Z"/>
    <path class="cls-21" d="M502.9029,984.1856c1.1177-5.0504,2.1865-10.871,3.0757-16.5054-16.5254,8.1006-66.4897,13.2045-78.5752,14.3411l-.187,13.9927c25.0815.6799,67.3584-9.7108,75.6865-11.8284Z"/>
    <circle class="cls-71" cx="373.0193" cy="989.4291" r="10.4032"/>
    <path class="cls-2" d="M210.8226,612.29l167.5198,29.2239c5.7355,1.0006,9.5638,6.4743,8.536,12.205l-43.7231,243.804c-1.0408,5.8036-6.6525,9.6146-12.4309,8.4422l-174.9183-35.4907c-5.7343-1.1635-9.4133-6.7872-8.1823-12.5074l51.1216-237.5372c1.1871-5.5159,6.5189-9.1094,12.0771-8.1398Z"/>
    <path class="cls-50" d="M369.0138,644.8765l-45.3041,253.6774s9.871,2.2903,14.5161-8.0645c4.1434-9.2363,35.3894-195.23,42.0915-235.3047.7091-4.24-2.0341-8.2858-6.2342-9.2022l-5.0693-1.1061Z"/>
    <path class="cls-17" d="M128.5484,522.2959c-7.4739-1.0764-3.9355-5.2903-10.3226.5806s-35.9677,37.0968-64.6129,151.2903-21.6774,141.0323,5.6774,171.7419,133.4194,29.9355,158.3226,26.7097,26.5806-2.5806,37.4194-3.7419,20.2581-5.6774,20.6452-10.8387,3.3548-80.3871-5.6774-83.3548-28.7742-8-33.9355-9.4194-52.9248-17.5059-77.2903-17.871c0,0,16.4516-63.4839,19.3548-97.5484s-8.9032-84.1935-20.129-100.4516-26.5844-26.6839-29.4516-27.0968Z"/>
    <path class="cls-67" d="M158.774,747.3926s.6128-2.3647,1.6201-6.4148c-4.0454-.9512-20.4702-4.6755-31.2651-5.0691-12.3872-.4517-13.5483,6.2581-8.9678,8.2581s15.355,1.4194,23.9355,1.8065c7.499.3383,12.7803,2.7452,17.6963,1.5382-1.0396-.0623-2.0493-.1044-3.019-.1189Z"/>
    <path class="cls-70" d="M275.6774,858.0379c.3872-5.1614,3.355-80.3872-5.6772-83.355-9.0322-2.9677-28.7744-8-33.9355-9.4193-.0986-.0272-.2183-.0614-.3481-.0992-9.0293,5.8928-12.2319,15.3823-15.4263,24.2927-3.6772,10.2582-6.9678,50.3228-2.3223,60.7743,3.5591,8.0087,5.3057,14.88,11.2373,20.9642,14.2344-1.6257,16.9844-1.3716,25.8271-2.3191,10.8384-1.1613,20.2578-5.6775,20.645-10.8386Z"/>
    <path class="cls-44" d="M256.1051,868.7399c-4.8813-11.2949-14.7061-38.6176-8.9116-64.7666,3.3896-15.2972,7.48-25.8206,10.9604-32.786-3.8452-1.0674-7.8682-2.1467-11.4707-3.1036-8.1694,14.1711-12.9126,32.8669-13.6187,50.0963-.7163,17.4792,3.3745,44.7249,9.5098,51.7179,4.3462-.3309,7.4106-.4806,12.458-1.0214.3608-.0386.7153-.0906,1.0728-.1366Z"/>
    <path class="cls-43" d="M285.9677,763.0701c-10.5802,6.8674-15.871,11.871-17.0323,19.6129s-10.5806,40.129-5.6774,61.9355,27.3548,24.3871,46.8387,26.0645,51.3548-5.1613,52.6452-15.3548-1.1613-10.4516,2.1935-12.2581,9.4194-6.9677,6.0645-23.0968c8.6452-13.6774,6.7097-25.1613,2.4516-28,6.5806-9.4194,5.8065-18.1935,2.9677-21.1613s-7.4839-9.4194-15.4839-7.7419c2.9677-9.5484,2.5806-21.1613-19.3548-18.9677s-49.7563,15.1663-55.6129,18.9677Z"/>
    <g>
      <path class="cls-5" d="M325.401,774.3729c.1045,0,.2109-.0049.3174-.0137,3.3301-.3008,32.8311-3.1318,43.29-10.1309.002-.0012.0034-.0031.0054-.0044-2.2251-1.186-4.8799-1.8245-8.0781-1.1538.2959-.9531.5566-1.927.7676-2.9055-9.7329,4.0508-29.0903,6.5436-36.6128,7.2219-1.9248.1738-3.3447,1.875-3.1709,3.8008.1631,1.8184,1.6904,3.1855,3.4814,3.1855Z"/>
      <path class="cls-5" d="M343.3502,796.6014c-1.9131-.0742-3.5586,1.4268-3.6357,3.3574-.0771,1.9316,1.4258,3.5596,3.3574,3.6367.1357.0059.6777.0244,1.5576.0244,4.6543,0,18.7334-.5387,31.9316-6.4368-.6143-2.4863-1.7402-4.297-3.1094-5.2098.3564-.5107.6821-1.0184.9966-1.5247-14.3818,6.6747-30.8247,6.161-31.0981,6.1527Z"/>
      <path class="cls-5" d="M372.5074,817.4205c-10.043,3.5757-24.1553,4.6494-30.3066,4.7268-1.9326.0244-3.4805,1.6113-3.4561,3.543.0234,1.9189,1.585,3.457,3.498,3.457h.0439c2.3188-.0284,16.9893-.3607,29.5015-4.1226-.1558-1.5535-.4092-3.2289-.7881-5.0514.5435-.8602,1.0449-1.7115,1.5073-2.5529Z"/>
      <path class="cls-5" d="M364.9357,843.0701c.9473-.5103,2.1113-1.2888,3.2178-2.5061-12.3877,5.2993-26.2407,2.9651-26.4565,2.928-1.9053-.3379-3.7188.9248-4.0596,2.8262-.3428,1.9023.9229,3.7217,2.8252,4.0635.3271.0596,3.8945.6768,9.0762.6768,3.8652,0,8.6309-.3489,13.6172-1.5251.0312-4.6086-.7666-5.092,1.7798-6.4631Z"/>
    </g>
    <path class="cls-19" d="M392.1774,445.7959c-1.3394,1.5945-4.2979,3.7827-8.4033,6.2155-13.0903,19.011-33.7954,49.3601-37.0645,55.8329-4.8389,9.5806,14.1289,9.4838,45.1938,2.3226,28.0542-6.4674,43.8701-34.8713,45.8174-46.4464-22.71-12.5496-42.3564-21.7183-45.5435-17.9246Z"/>
    <path class="cls-55" d="M408.6735,449.0721c.4785,8.7258-.8521,27.4366-17.7378,44.4174-9.3135,9.3657-16.186,16.1208-21.0669,20.8437,6.1782-.8335,13.3784-2.1887,21.4058-4.024,10.9766-10.1504,23.8569-23.7237,26.4995-33.6314,2.2363-8.3831,3.6514-15.7267,4.5244-21.1659-4.9722-2.5244-9.5762-4.7157-13.625-6.4398Z"/>
    <circle class="cls-73" cx="373.0193" cy="880.7592" r="10.4032"/>
    <circle class="cls-73" cx="358.1364" cy="553.1432" r="10.4032"/>
    <path class="cls-10" d="M273.0323,453.1346c-3.0317-6.5806-4.8179-12.2249-5.8706-16.6931-.2764-.0812-.5718-.1058-.8657-.0259-6.3379,1.7207-33.2295,9.4955-48.7637,21.4166.4883,12.5202,7.7422,35.1386,41.9517,47.9476,42.3867,15.871,82.2578,12.3871,82.4517,4.8387.1934-7.5484-60.9678-40.2581-68.9033-57.4839Z"/>
    <path class="cls-43" d="M263.629,428.9249c-.9677,14.9032,2.7097,57.2903,77.0323,85.1613,0,0,62.9032-30.7742,52.8387-77.2258l-129.871-7.9355Z"/>
    <path class="cls-41" d="M393.5001,436.8604l-51.5005-3.1468-40.9351,10.1629s19.0967,26.9678,63.4839,23.871c10.1895-.7109,19.3452-2.7083,27.4258-5.3514,2.6494-7.8259,3.5107-16.3743,1.5259-25.5356Z"/>
    <path class="cls-55" d="M279.9928,512.0966c10.3535,2.5342,20.1455,3.9726,28.7578,4.5659-55.7764-33.0787-62.9131-61.9941-63.2783-73.4052-4.5889,1.7675-9.4502,3.8379-14.1318,6.1801,1.3521,21.204,33.5737,50.1974,48.6523,62.6593Z"/>
    <path class="cls-43" d="M355.9839,197.4411s-44.3871,71.4839-133.1613,94.1935l-.4516,5.4839s-12.1935-7.0323-26.5161-1.5484-40.1613,64.7097,21.1935,68.5806c0,0,.5806,82.0645,104.9032,89.0323,104.3226,6.9677,125.6129-60.7742,125.2258-92.3226,0,0,33.871-2.5161,32.7097-38.3226s-35.2258-30.5806-35.2258-30.5806l-2.9032-16.2581s-51.9355-6.5161-85.7742-78.2581Z"/>
    <rect class="cls-58" x="370.0968" y="291.2959" width="23.4839" height="36.3871" rx="11.7419" ry="11.7419"/>
    <rect class="cls-58" x="283.129" y="291.2959" width="23.4839" height="36.3871" rx="11.7419" ry="11.7419"/>
    <ellipse class="cls-54" cx="345.2258" cy="339.554" rx="12.5806" ry="9.0323"/>
    <path class="cls-29" d="M343.3541,387.617c-20.8672,0-33.9229-11.3369-34.6318-11.9668-2.4766-2.2021-2.6982-5.9951-.4961-8.4707,2.1963-2.4707,5.9736-2.6963,8.4502-.5137.7812.6768,18.0869,15.3037,44.3838,5.6436,3.1143-1.1436,6.5596.4531,7.7012,3.5625,1.1426,3.1104-.4521,6.5586-3.5625,7.7012-7.957,2.9229-15.2881,4.0439-21.8447,4.0439Z"/>
  </g>
  <g id="Layer_14" data-name="Layer 14">
    <path class="cls-14" d="M454.4204,677.863c-7.9443,0-15.3691-1.339-22.2728-4.0139-6.9068-2.6749-12.3447-6.2559-16.3153-10.7475-1.9018-2.0719-2.8481-4.4886-2.8481-7.2516,0-2.9331,1.121-5.523,3.366-7.7696,2.242-2.242,4.9215-3.366,8.0293-3.366,2.9331,0,5.4379,1.0359,7.5098,3.1078,2.9331,2.763,6.6439,4.92,11.1356,6.4739,4.487,1.5539,8.8906,2.3316,13.2075,2.3316,4.4886,0,8.3726-.9926,11.6536-2.9795,3.2779-1.9822,4.9215-5.1349,4.9215-9.4518,0-3.6258-1.5137-6.4306-4.5319-8.4174-3.0228-1.9822-8.0726-3.581-15.151-4.7901-12.6045-2.0719-22.1011-5.5678-28.4869-10.4893-6.3888-4.92-9.5817-11.8685-9.5817-20.8472,0-9.6667,3.7108-17.3915,11.1356-23.1788,7.4217-5.7812,17.1781-8.6756,29.2646-8.6756,12.4298,0,22.3563,3.1975,29.781,9.5832,2.9347,2.4198,4.4035,5.2678,4.4035,8.5458,0,2.763-1.0808,5.1395-3.2377,7.1217-2.16,1.9868-4.7066,2.9779-7.6397,2.9779-2.2451,0-4.3169-.603-6.2157-1.8121-6.5635-4.1438-13.4657-6.2157-20.7173-6.2157-4.3185,0-7.9443.8659-10.8774,2.5899-2.9377,1.7271-4.402,4.3169-4.402,7.7696,0,3.6243,2.2853,6.4739,6.862,8.5458,4.5736,2.0719,11.2655,3.9737,20.071,5.6977,4.8318.8659,9.6219,2.3749,14.3733,4.5319,4.7468,2.16,8.7158,5.3977,11.9133,9.7116,3.1913,4.3169,4.7901,10.1893,4.7901,17.6095,0,9.8415-3.7541,17.8692-11.2655,24.0849-7.5098,6.2157-17.1363,9.3235-28.875,9.3235Z"/>
    <polygon class="cls-40" points="535.2076 1092.5217 735.9757 1092.5217 740.2579 1062.3282 744.6129 1064.6507 746.7223 1092.5217 939.7101 1092.5217 944.129 974.7803 529.4195 970.941 535.2076 1092.5217"/>
    <path class="cls-1" d="M666.3871,358.5217s-2.3226,35.0968,0,42.3226,27.871,82.0645,69.9355,79.2258,70.1935-73.0157,71.7419-90.3143c1.5484-17.2986-2.8387-33.2986-2.8387-33.2986l-138.8387,2.0645Z"/>
    <g>
      <path class="cls-6" d="M523.6129,918.4249c.5161,9.4194-2.3226,30.8387,0,42.9677s2.5806,9.9355,12.2581,15.871c9.6774,5.9355,146.7097,14.2581,189.8065,16.8387s208.2581-5.9355,215.4839-10.0645c7.2258-4.129,9.3871-13.6774,10.5484-22.0968s-1.0645-34.4516-1.0645-34.4516l-427.0323-9.0645Z"/>
      <path class="cls-20" d="M523.6129,918.4249c.5161,9.4194-2.3228,30.8387,0,42.9678,2.3228,12.129,2.5806,9.9355,12.2578,15.871,7.0493,4.3235,81.666,9.913,138.335,13.6278-.7432-11.8276-1.8833-41.7246-1.8833-41.7246,0,0,43.1616,2.5161,80.9033,1.7419,37.7422-.7742,54.1938-.9678,54.1938-.9678,0,0,.1377,27.8185-2.8623,43.4297,61.083-2.1499,131.9272-6.6603,136.604-9.3328,7.2261-4.1292,9.3872-13.6775,10.5483-22.0969,1.1611-8.4193-1.0645-34.4515-1.0645-34.4515l-427.0322-9.0646Z"/>
      <path class="cls-57" d="M673.3893,974.8599c-.2598-5.7471-.5078-11.6873-.6997-16.4131-9.0264-.139-29.6875-.5162-65.7891-1.4735-45.7812-1.214-77.9473-11.046-84.1455-13.0787-.1455,5.4294-.0898,10.7631.4912,15.1932,9.082,2.2792,30.5771,7.4188,50.8794,10.3693,22.6401,3.2904,81.9707,4.9722,99.2637,5.4028Z"/>
      <path class="cls-57" d="M807.3199,958.8724c-.0972,4.4548-.2881,10.1132-.6621,15.908,14.9019-.2388,57.4604-1.0416,84.2456-2.7748,25.6743-1.6613,50.875-7.0931,60.71-9.4.0317-.2213.0659-.4446.0962-.6646.4468-3.2384.3916-9.083.1553-15.0493-8.687,2.2012-30.1831,7.2432-53.4131,9.611-26.2124,2.672-77.9424,2.4696-91.1318,2.3698Z"/>
      <path class="cls-37" d="M714.2784,993.4153c2.3862.145,4.6309.2805,6.7217.4062v-45.429l-7.4517.6775.73,44.3452Z"/>
      <circle class="cls-53" cx="744.6129" cy="970.9411" r="10.0645"/>
    </g>
    <path class="cls-49" d="M626.3548,413.4894c-5.0323-4.2581-2.7097-3.871-16.6452,2.5161s-64.2581,29.8065-79.3548,41.2258c-15.0968,11.4194-25.9355,18.9677-23.0323,31.7419s-7.2258,405.871,9.0323,428.9032c16.2581,23.0323,213.0968,29.4194,250.0645,27.6774,36.9677-1.7419,172.6452-8.129,183.6774-14.3226,11.0323-6.1935,11.4194-11.8065,13.5484-31.1613,2.129-19.3548,1.3548-64.0645,1.3548-64.0645,0,0,13.3713-354.9677.1373-366.5806-13.234-11.6129-31.2985-25.3105-54.5243-36.2682s-56.2581-26.4415-63.2258-24.377c-6.9677,2.0645-78.6452,55.6129-92.1935,61.4194-13.5484,5.8065-18.918,6.9222-29.3226,5.871-10.4045-1.0513-99.5161-62.5807-99.5161-62.5807Z"/>
    <path class="cls-69" d="M855.7269,625.1784c-7.9443,0-15.3691-1.339-22.2728-4.0139-6.9068-2.6749-12.3447-6.2559-16.3153-10.7475-1.9018-2.0719-2.8481-4.4886-2.8481-7.2516,0-2.9331,1.121-5.523,3.366-7.7696,2.242-2.242,4.9215-3.366,8.0293-3.366,2.9331,0,5.4379,1.0359,7.5098,3.1078,2.9331,2.763,6.6439,4.92,11.1356,6.4739,4.487,1.5539,8.8906,2.3316,13.2075,2.3316,4.4886,0,8.3726-.9926,11.6536-2.9795,3.2779-1.9822,4.9215-5.1349,4.9215-9.4518,0-3.6258-1.5137-6.4306-4.5319-8.4174-3.0228-1.9822-8.0726-3.581-15.151-4.7901-12.6045-2.0719-22.1011-5.5678-28.4869-10.4893-6.3888-4.92-9.5817-11.8685-9.5817-20.8472,0-9.6667,3.7108-17.3915,11.1356-23.1788,7.4217-5.7812,17.1781-8.6756,29.2646-8.6756,12.4298,0,22.3563,3.1975,29.781,9.5832,2.9347,2.4198,4.4035,5.2678,4.4035,8.5458,0,2.763-1.0808,5.1395-3.2377,7.1217-2.16,1.9868-4.7066,2.9779-7.6397,2.9779-2.2451,0-4.3169-.603-6.2157-1.8121-6.5635-4.1438-13.4657-6.2157-20.7173-6.2157-4.3185,0-7.9443.8659-10.8774,2.5899-2.9377,1.7271-4.402,4.3169-4.402,7.7696,0,3.6243,2.2853,6.4739,6.862,8.5458,4.5736,2.0719,11.2655,3.9737,20.071,5.6977,4.8318.8659,9.6219,2.3749,14.3733,4.5319,4.7468,2.16,8.7158,5.3977,11.9133,9.7116,3.1913,4.3169,4.7901,10.1893,4.7901,17.6095,0,9.8415-3.7541,17.8692-11.2655,24.0849-7.5098,6.2157-17.1363,9.3235-28.875,9.3235Z"/>
    <path class="cls-60" d="M569.6774,702.3282s21.5484-30.4973,60.3871-25.1196c38.8387,5.3777,48.5161,15.0551,48.5161,15.0551l-25.1613,81.4194-81.1613-29.1613-2.5806-42.1935Z"/>
    <path class="cls-7" d="M666.3873,358.5217s-1.3296,20.1041-.9692,33.0132c10.9946,9.3838,32.5415,21.9546,69.0981,21.9546,38.5464,0,62.2031-16.7914,73.8208-28.182.5474-15.4968-3.1113-28.8503-3.1113-28.8503l-138.8384,2.0645Z"/>
    <path class="cls-62" d="M600.8387,224.8443s-19.3548-109.9355,33.0323-152.5161c52.3871-42.5806,159.7419-57.5484,196.6452,10.8387,0,0,52.129,6.1935,49.5484,70.7097-2.5806,64.5161-11.3548,82.3226-11.3548,82.3226l-255.7419,6.4516-12.129-17.8065Z"/>
    <path class="cls-34" d="M728.3854,476.2814c-4.8179,6.9456-11.1377,17.3932-12.1543,25.6618-1.1777,9.5799-2.7339,312.6377-3.3516,443.2246,3.4297.1047,6.7686.1967,9.9961.2756.8213-175.0778,2.2754-433.2358,3.2812-442.2795,1.0439-8.499,11.5244-23.0586,15.4746-27.9521.0127-.0157.02-.0339.0327-.0497-4.5479,1.1871-8.4263,1.4559-13.2788,1.1194Z"/>
    <path class="cls-31" d="M620.4516,228.9733s-13.1613-18.3226-35.3548-3.3548c-22.1935,14.9677-17.0323,73.5484,26.3226,69.1613,0,0,24.7742,96,126.9677,94.9677s121.5484-95.7419,121.5484-95.7419c0,0,39.2258,6.9677,41.0323-36.6452s-34.3226-35.3548-43.0968-29.6774c0,0-11.871-13.4194-14.9677-41.8065-3.0968-28.3871-20.6452-53.6774-20.6452-53.6774,0,0-37.6774,17.2903-87.2258,18.5806-49.5484,1.2903-88.7742-15.4839-88.7742-15.4839,0,0-17.0323,24-17.0323,44.9032s-8.7742,48.7742-8.7742,48.7742Z"/>
    <path class="cls-33" d="M747.2581,802.6507s-59.0968,33.0323-136.7742,43.3548c-77.6774,10.3226-116.129,1.0323-142.1935-35.871-26.0645-36.9032-9.5484-196.6452-7.2258-211.3548,2.3226-14.7097,29.4194-128.0438,46.1935-118.3445,16.7742,9.6993,51.6129,92.7961,54.1935,131.7638,2.5806,38.9677,16.5161,115.871,16.5161,115.871l104.5161,44.9032,64.7742,29.6774Z"/>
    <circle class="cls-3" cx="746.3734" cy="521.4894" r="10.7097"/>
    <circle class="cls-3" cx="745.5271" cy="618.4998" r="10.7097"/>
    <circle class="cls-53" cx="745.5271" cy="875.5532" r="10.7097"/>
    <rect class="cls-26" x="674.3367" y="210.3927" width="28.5161" height="44.2581" rx="14.2581" ry="14.2581"/>
    <rect class="cls-26" x="767.7419" y="210.3927" width="28.5161" height="44.2581" rx="14.2581" ry="14.2581"/>
    <path class="cls-61" d="M739.9693,279.2772c-4.5527,0-8.8779-2.1318-11.5479-4.7168-3.2803-3.1758-4.4492-7.2705-3.1279-10.9531,1.4111-3.9316,5.1631-18.6797,6.4893-24.0303.665-2.6807,3.3711-4.3135,6.0566-3.6504,2.6807.665,4.3145,3.376,3.6504,6.0566-.1963.791-4.7402,19.0947-6.6777,24.6992.2139.3789.9072,1.1855,2.2354,1.8408,1.5293.7529,3.165.9512,4.2744.5107,2.5654-1.0146,5.4727.2412,6.4893,2.8096,1.0156,2.5674-.2422,5.4727-2.8096,6.4893-1.6611.6572-3.3613.9443-5.0322.9443Z"/>
    <path class="cls-38" d="M702.5632,298.5862s5.4746,13.9355,32.8109,13.9355,35.3363-13.9355,35.3363-13.9355"/>
    <path class="cls-46" d="M619.3548,412.0701c9.4194-7.6129,45.5484-32,47.6129-25.2903,2.0645,6.7097,4,56,66.0645,89.1613,0,0-13.2258,5.8348-32.5806,4.2077s-34.6452-8.2077-53.8065-23.4981c-19.1613-15.2903-27.2903-44.5806-27.2903-44.5806Z"/>
    <path class="cls-3" d="M705.6881,480.4195c-7.2852-5.5399-19.4907-16.3088-35.043-35.5752-17.7788-22.0245-20.5498-42.4992-20.5347-53.2016-3.9585,2.2049-8.2139,4.8071-12.314,7.4525,1.0938,7.3384,3.9009,18.835,10.9775,33.9348,7.7256,16.4835,19.5015,31.9422,27.7617,41.7495,7.6353,2.9666,15.3804,4.6517,23.916,5.3693,1.8003.1514,3.5474.2378,5.2363.2707Z"/>
    <path class="cls-46" d="M810.1935,384.9733c-3.0061.0327-4.4516,3.5807-5.2258,6.9678-.7742,3.3871-21.871,57.7742-37.0645,67.1613-15.1935,9.3871-34.4516,16.3548-32.0323,18.7742s27.6774,4.9355,48.3871,2.4194c20.7097-2.5161,41.5161-15.4839,52.6452-30.3871,11.129-14.9032,18.0968-38.5161,16.8387-40.5484s-34.6452-24.4839-43.5484-24.3871Z"/>
    <path class="cls-3" d="M825.7569,391.1226c-.1592,5.894-1.4653,24.1181-11.2085,39.8507-9.0947,14.6857-34.6665,39.6465-45.9355,50.3398,5.2197-.0876,10.5688-.4005,15.645-1.0173,3.7866-.46,7.5752-1.2727,11.3081-2.3793,7.1187-7.4442,17.8042-19.2407,24.9824-30.0078,9.0586-13.5878,15.0547-39.1265,17.2539-49.7051-3.8926-2.4391-8.0762-4.9286-12.0454-7.0811Z"/>
    <path class="cls-33" d="M554.8065,720.0378s50.9032-11.8065,80.3226,40.8387c0,0-78.5806,7.1613-80.3226-40.8387Z"/>
    <path class="cls-68" d="M657.129,759.8765c-14.5161-9.6774-18.1935-10.6452-32.9032-23.6129-14.7097-12.9677-26.7097-18.9677-51.871-21.0968-25.1613-2.129-44.7097,2.9032-40.4516,8.3226s2.7097,2.3226,15.871.1935c13.1613-2.129,48.1935-1.1613,58.4516,10.0645,10.2581,11.2258,33.5966,32.1402,55.3548,31.3548l-4.4516-5.2258Z"/>
    <path class="cls-32" d="M821.7097,697.4894s-24.7742-1.7419-48.9677-4.2581c-24.1935-2.5161-41.4194-6.9677-61.1613-6.9677s-31.3548-6.7742-45.0968,9.871c-13.7419,16.6452-20.5161,49.5484-12.5806,64.6452,7.9355,15.0968,28.0645,18.7742,63.4839,35.2258,35.4194,16.4516,126.5806,49.7419,189.0968,53.4194,62.5161,3.6774,88.0645-6.9677,107.2258-41.0323,19.1613-34.0645,19.5484-108.3871,18.1935-143.4194-1.3548-35.0323-17.8065-115.5484-30.9677-143.6129-13.1613-28.0645-27.871-52.0645-32.7097-49.7419-4.8387,2.3226-32.3226,40.0645-37.9355,66.7742-5.6129,26.7097-17.0323,92.5161-20.129,114.5806-3.0968,22.0645-1.9355,39.6774-6.5806,44.9032-4.6452,5.2258-81.871-.3871-81.871-.3871Z"/>
    <path class="cls-13" d="M708.9679,709.6507c5.5952-12.7891,10.8833-18.9221,19.3345-22.418-5.5161-.5898-11.0142-.9691-16.7217-.9691-19.7422,0-31.355-6.7742-45.0967,9.871-13.7422,16.6453-20.5161,49.5483-12.5806,64.6453,7.2632,13.8175,24.7495,18.0754,54.8169,31.3108-3.2109-6.728-9.5815-21.303-8.6558-28.5044,1.1611-9.0322,1.6772-37.4194,8.9033-53.9355Z"/>
    <path class="cls-25" d="M695.2936,685.2136c-8.3853,4.5648-18.4438,16.0011-22.8418,36.0178-4.0908,18.6168-3.0664,45.0686.0254,55.2799,4.1797,2.0708,8.9785,4.123,14.4224,6.3855-.6152-3.033-1.5884-7.8612-2.835-14.1493-2.2261-11.2258-3.0967-33.3871,2.5161-48.7742,4.2026-11.5216,17.0312-26.7855,23.2124-33.7281-5.3667-.1077-10.1255-.6687-14.4995-1.0316Z"/>
    <path class="cls-27" d="M940.1613,722.4249c.3871,0,20.2258-.0968,29.4194,6.871,9.1935,6.9677,3.6774,10.0645-.0968,9.871s-14.7097-9.4839-31.5484-8.2258c-16.8387,1.2581,2.2258-8.5161,2.2258-8.5161Z"/>
    <path class="cls-11" d="M805.6452,696.6507c18.5806-7.1613,41.6129-19.1613,80.5161-10.0645,38.9032,9.0968,62.9032,32.5161,56.7097,40.8387-6.1935,8.3226-6,14.5161-27.4839,10.2581s-43.3548-24.1935-68.129-31.5484c-24.7742-7.3548-41.6129-9.4839-41.6129-9.4839Z"/>
  </g>
</svg>