<svg width="40" height="40" viewBox="0 0 40 40" fill="none" xmlns="http://www.w3.org/2000/svg">
<path d="M9.5 12.125C9.5 11.5156 9.96875 11 10.625 11H29.375C29.9844 11 30.5 11.5156 30.5 12.125C30.5 12.7812 29.9844 13.25 29.375 13.25H10.625C9.96875 13.25 9.5 12.7812 9.5 12.125ZM9.5 19.625C9.5 19.0156 9.96875 18.5 10.625 18.5H29.375C29.9844 18.5 30.5 19.0156 30.5 19.625C30.5 20.2812 29.9844 20.75 29.375 20.75H10.625C9.96875 20.75 9.5 20.2812 9.5 19.625ZM29.375 28.25H10.625C9.96875 28.25 9.5 27.7812 9.5 27.125C9.5 26.5156 9.96875 26 10.625 26H29.375C29.9844 26 30.5 26.5156 30.5 27.125C30.5 27.7812 29.9844 28.25 29.375 28.25Z" fill="#5C6373"/>
</svg>
