<svg width="240" height="240" viewBox="0 0 240 240" fill="none" xmlns="http://www.w3.org/2000/svg">
<g clip-path="url(#clip0_4652_15212)">
<g opacity="0.3">
<path d="M151.818 105.853C150.99 105.853 150.318 105.181 150.318 104.353V98.9736L146.516 95.1699C145.93 94.584 145.93 93.6347 146.516 93.0488C147.101 92.4629 148.051 92.4629 148.637 93.0488L152.879 97.292C153.16 97.5732 153.318 97.9551 153.318 98.3525V104.353C153.318 105.181 152.646 105.853 151.818 105.853Z" fill="#9B9B9B"/>
<path d="M144.818 192.711H134.034C133.206 192.711 132.534 192.039 132.534 191.211C132.534 190.383 133.206 189.711 134.034 189.711H144.818C145.188 189.711 145.558 189.674 145.918 189.601C146.728 189.444 147.52 189.964 147.685 190.776C147.848 191.589 147.322 192.379 146.51 192.543C145.955 192.654 145.387 192.711 144.818 192.711ZM125.908 192.711H113.719C112.891 192.711 112.219 192.039 112.219 191.211C112.219 190.383 112.891 189.711 113.719 189.711H125.908C126.736 189.711 127.408 190.383 127.408 191.211C127.408 192.039 126.736 192.711 125.908 192.711ZM105.592 192.711H93.4023C92.5742 192.711 91.9023 192.039 91.9023 191.211C91.9023 190.383 92.5742 189.711 93.4023 189.711H105.592C106.42 189.711 107.092 190.383 107.092 191.211C107.092 192.039 106.42 192.711 105.592 192.711ZM85.2754 192.711H73.0859C72.2578 192.711 71.5859 192.039 71.5859 191.211C71.5859 190.383 72.2578 189.711 73.0859 189.711H85.2754C86.1035 189.711 86.7754 190.383 86.7754 191.211C86.7754 192.039 86.1035 192.711 85.2754 192.711ZM64.96 192.711H64.3672C59.6807 192.711 55.8672 188.897 55.8672 184.211V183.613C55.8672 182.785 56.5391 182.113 57.3672 182.113C58.1953 182.113 58.8672 182.785 58.8672 183.613V184.211C58.8672 187.243 61.335 189.711 64.3672 189.711H64.96C65.7881 189.711 66.46 190.383 66.46 191.211C66.46 192.039 65.7881 192.711 64.96 192.711ZM151.668 187.168C151.564 187.168 151.46 187.157 151.354 187.136C150.545 186.964 150.026 186.167 150.198 185.356C150.278 184.982 150.318 184.597 150.318 184.211V173.489C150.318 172.661 150.99 171.989 151.818 171.989C152.646 171.989 153.318 172.661 153.318 173.489V184.211C153.318 184.806 153.256 185.4 153.134 185.98C152.983 186.685 152.361 187.168 151.668 187.168ZM57.3672 176.987C56.5391 176.987 55.8672 176.315 55.8672 175.487V163.298C55.8672 162.47 56.5391 161.798 57.3672 161.798C58.1953 161.798 58.8672 162.47 58.8672 163.298V175.487C58.8672 176.315 58.1953 176.987 57.3672 176.987ZM151.818 166.862C150.99 166.862 150.318 166.19 150.318 165.362V153.173C150.318 152.345 150.99 151.673 151.818 151.673C152.646 151.673 153.318 152.345 153.318 153.173V165.362C153.318 166.19 152.646 166.862 151.818 166.862ZM57.3672 156.671C56.5391 156.671 55.8672 155.999 55.8672 155.171V142.981C55.8672 142.153 56.5391 141.481 57.3672 141.481C58.1953 141.481 58.8672 142.153 58.8672 142.981V155.171C58.8672 155.999 58.1953 156.671 57.3672 156.671ZM151.818 146.547C150.99 146.547 150.318 145.875 150.318 145.047V132.856C150.318 132.028 150.99 131.356 151.818 131.356C152.646 131.356 153.318 132.028 153.318 132.856V145.047C153.318 145.875 152.646 146.547 151.818 146.547ZM57.3672 136.355C56.5391 136.355 55.8672 135.684 55.8672 134.855V122.665C55.8672 121.837 56.5391 121.165 57.3672 121.165C58.1953 121.165 58.8672 121.837 58.8672 122.665V134.855C58.8672 135.684 58.1953 136.355 57.3672 136.355ZM151.818 126.23C150.99 126.23 150.318 125.559 150.318 124.73V112.541C150.318 111.713 150.99 111.041 151.818 111.041C152.646 111.041 153.318 111.713 153.318 112.541V124.73C153.318 125.559 152.646 126.23 151.818 126.23ZM57.3672 116.039C56.5391 116.039 55.8672 115.367 55.8672 114.539V102.35C55.8672 101.521 56.5391 100.85 57.3672 100.85C58.1953 100.85 58.8672 101.521 58.8672 102.35V114.539C58.8672 115.367 58.1953 116.039 57.3672 116.039ZM57.3672 95.7227C56.5391 95.7227 55.8672 95.0508 55.8672 94.2227V82.0332C55.8672 81.2051 56.5391 80.5332 57.3672 80.5332C58.1953 80.5332 58.8672 81.2051 58.8672 82.0332V94.2227C58.8672 95.0508 58.1953 95.7227 57.3672 95.7227ZM141.83 89.8633C141.446 89.8633 141.062 89.7168 140.77 89.4238L132.15 80.8047C131.565 80.2188 131.565 79.2695 132.15 78.6836C132.736 78.0977 133.686 78.0977 134.272 78.6836L142.891 87.3027C143.477 87.8886 143.477 88.8379 142.891 89.4238C142.598 89.7168 142.214 89.8633 141.83 89.8633ZM127.465 75.498C127.081 75.498 126.697 75.3515 126.404 75.0585L122.508 71.162H117.07C116.242 71.162 115.57 70.4901 115.57 69.662C115.57 68.8339 116.242 68.162 117.07 68.162H123.129C123.526 68.162 123.908 68.3202 124.189 68.6015L128.525 72.9374C129.111 73.5233 129.111 74.4726 128.525 75.0585C128.232 75.3515 127.848 75.498 127.465 75.498ZM57.8994 75.4785C57.708 75.4785 57.5127 75.4424 57.3252 75.3633C56.5596 75.0459 56.1973 74.168 56.5156 73.4033C57.8379 70.2197 60.9199 68.1621 64.3672 68.1621H68.3125C69.1406 68.1621 69.8125 68.834 69.8125 69.6621C69.8125 70.4902 69.1406 71.1621 68.3125 71.1621H64.3672C62.1358 71.1621 60.1416 72.4932 59.2852 74.5537C59.0459 75.1308 58.4882 75.4785 57.8994 75.4785ZM108.944 71.1621H96.7548C95.9267 71.1621 95.2548 70.4902 95.2548 69.6621C95.2548 68.834 95.9267 68.1621 96.7548 68.1621H108.944C109.772 68.1621 110.444 68.834 110.444 69.6621C110.444 70.4902 109.772 71.1621 108.944 71.1621ZM88.6279 71.1621H76.4384C75.6103 71.1621 74.9384 70.4902 74.9384 69.6621C74.9384 68.834 75.6103 68.1621 76.4384 68.1621H88.6279C89.456 68.1621 90.1279 68.834 90.1279 69.6621C90.1279 70.4902 89.456 71.1621 88.6279 71.1621Z" fill="#9B9B9B"/>
</g>
<path d="M140.009 50.6621H81.2483C77.3823 50.6621 74.2483 53.7961 74.2483 57.6621V165.211C74.2483 169.076 77.3823 172.211 81.2483 172.211H161.7C165.566 172.211 168.7 169.076 168.7 165.211V79.3522L140.009 50.6621Z" fill="#D4D4D4"/>
<path d="M140.009 50.6621V72.3718C140.009 76.2378 143.143 79.3718 147.009 79.3718H168.699L140.009 50.6621Z" fill="#DEDEDE"/>
<path d="M214.134 185.267L200.975 165.905C200.106 164.628 198.367 164.296 197.089 165.164L195.211 166.441L189.178 157.564C199.439 148.558 201.636 133.067 193.769 121.492C185.254 108.963 168.134 105.698 155.607 114.213C149.537 118.338 145.438 124.579 144.064 131.786C142.689 138.994 144.203 146.307 148.328 152.375C152.452 158.444 158.693 162.544 165.901 163.919C167.637 164.25 169.377 164.413 171.107 164.413C175.435 164.413 179.679 163.37 183.553 161.379L189.59 170.261L187.713 171.537C186.435 172.405 186.103 174.145 186.971 175.423L200.131 194.785C200.999 196.063 202.739 196.395 204.017 195.526L213.393 189.153C214.671 188.285 215.002 186.545 214.134 185.267ZM167.175 157.241C161.75 156.207 157.054 153.122 153.949 148.555C150.846 143.987 149.705 138.484 150.74 133.06C151.774 127.636 154.859 122.938 159.427 119.834C162.978 117.422 167.017 116.267 171.017 116.267C177.639 116.267 184.152 119.435 188.147 125.312C194.554 134.741 192.097 147.625 182.669 154.033C178.102 157.137 172.599 158.276 167.175 157.241Z" fill="#F0F0F0"/>
<path d="M104.08 107.621C98.3985 107.621 93.7764 102.999 93.7764 97.3184C93.7764 96.1045 94.7608 95.1202 95.9746 95.1202C97.1884 95.1202 98.1728 96.1046 98.1728 97.3184C98.1728 100.575 100.823 103.225 104.08 103.225C107.337 103.225 109.986 100.575 109.986 97.3184C109.986 96.1045 110.971 95.1202 112.184 95.1202C113.398 95.1202 114.383 96.1046 114.383 97.3184C114.383 102.999 109.761 107.621 104.08 107.621ZM149.171 97.3184C149.171 96.1045 148.186 95.1202 146.973 95.1202C145.759 95.1202 144.774 96.1046 144.774 97.3184C144.774 100.575 142.125 103.225 138.868 103.225C135.611 103.225 132.962 100.575 132.962 97.3184C132.962 96.1045 131.978 95.1202 130.764 95.1202C129.55 95.1202 128.566 96.1046 128.566 97.3184C128.566 102.999 133.188 107.621 138.868 107.621C144.549 107.621 149.171 102.999 149.171 97.3184ZM130.503 118.724C130.503 113.745 126.452 109.694 121.474 109.694C116.495 109.694 112.445 113.745 112.445 118.724C112.445 123.702 116.495 127.753 121.474 127.753C126.452 127.753 130.503 123.702 130.503 118.724ZM126.106 118.724C126.106 121.278 124.028 123.356 121.474 123.356C118.919 123.356 116.842 121.278 116.842 118.724C116.842 116.169 118.92 114.091 121.474 114.091C124.027 114.091 126.106 116.169 126.106 118.724Z" fill="#BCBCBC"/>
<path d="M32.1778 49.9678C26.1212 49.9678 21.1934 45.041 21.1934 38.9844C21.1934 32.9278 26.1212 28 32.1778 28C38.2344 28 43.1612 32.9277 43.1612 38.9844C43.1612 45.0411 38.2344 49.9678 32.1778 49.9678ZM32.1778 31C27.7755 31 24.1934 34.582 24.1934 38.9844C24.1934 43.3868 27.7754 46.9678 32.1778 46.9678C36.5802 46.9678 40.1612 43.3867 40.1612 38.9844C40.1612 34.5821 36.5801 31 32.1778 31Z" fill="#EBEBEB"/>
<path d="M200.553 82.3555C194.496 82.3555 189.568 77.4278 189.568 71.3711C189.568 65.3144 194.496 60.3877 200.553 60.3877C206.609 60.3877 211.536 65.3145 211.536 71.3711C211.536 77.4277 206.609 82.3555 200.553 82.3555ZM200.553 63.3877C196.15 63.3877 192.568 66.9688 192.568 71.3711C192.568 75.7734 196.15 79.3555 200.553 79.3555C204.955 79.3555 208.536 75.7735 208.536 71.3711C208.536 66.9687 204.955 63.3877 200.553 63.3877Z" fill="#EBEBEB"/>
<path d="M31.4111 84.5283C28.3115 84.5283 25.79 82.0068 25.79 78.9072C25.79 75.8076 28.3115 73.2851 31.4111 73.2851C34.5107 73.2851 37.0322 75.8076 37.0322 78.9072C37.0322 82.0068 34.5107 84.5283 31.4111 84.5283ZM31.4111 76.2852C29.9658 76.2852 28.79 77.461 28.79 78.9073C28.79 80.3526 29.9658 81.5284 31.4111 81.5284C32.8564 81.5284 34.0322 80.3526 34.0322 78.9073C34.0322 77.461 32.8564 76.2852 31.4111 76.2852Z" fill="#EBEBEB"/>
<path d="M16.0196 121.211C17.3494 121.211 18.4274 120.133 18.4274 118.803C18.4274 117.473 17.3494 116.395 16.0196 116.395C14.6898 116.395 13.6118 117.473 13.6118 118.803C13.6118 120.133 14.6898 121.211 16.0196 121.211Z" fill="#EBEBEB"/>
<path d="M179.312 50.8759C180.642 50.8759 181.72 49.7979 181.72 48.4681C181.72 47.1383 180.642 46.0603 179.312 46.0603C177.983 46.0603 176.905 47.1383 176.905 48.4681C176.905 49.7979 177.983 50.8759 179.312 50.8759Z" fill="#EBEBEB"/>
<path d="M23.6611 69.8711H18.581V64.791C18.581 63.9629 17.9091 63.291 17.081 63.291C16.2529 63.291 15.581 63.9629 15.581 64.791V69.8711H10.5C9.6719 69.8711 9 70.543 9 71.3711C9 72.1992 9.6719 72.8711 10.5 72.8711H15.5811V77.9522C15.5811 78.7803 16.253 79.4522 17.0811 79.4522C17.9092 79.4522 18.5811 78.7803 18.5811 77.9522V72.8711H23.6612C24.4893 72.8711 25.1612 72.1992 25.1612 71.3711C25.1612 70.543 24.4892 69.8711 23.6611 69.8711Z" fill="#EBEBEB"/>
<path d="M52.1358 215.393L55.7286 211.8C56.3145 211.214 56.3145 210.265 55.7286 209.679C55.1427 209.093 54.1934 209.093 53.6075 209.679L50.0147 213.271L46.4219 209.679C45.836 209.093 44.8867 209.093 44.3008 209.679C43.7149 210.265 43.7149 211.214 44.3008 211.8L47.8936 215.393L44.3008 218.985C43.7149 219.571 43.7149 220.521 44.3008 221.106C44.5938 221.399 44.9776 221.546 45.3613 221.546C45.745 221.546 46.1289 221.399 46.4218 221.106L50.0146 217.514L53.6074 221.106C53.9004 221.399 54.2842 221.546 54.6679 221.546C55.0516 221.546 55.4355 221.399 55.7284 221.106C56.3143 220.521 56.3143 219.571 55.7284 218.985L52.1358 215.393Z" fill="#EBEBEB"/>
</g>
<defs>
<clipPath id="clip0_4652_15212">
<rect width="205.618" height="193.546" fill="white" transform="translate(9 28)"/>
</clipPath>
</defs>
</svg>
