<svg width="240" height="240" viewBox="0 0 240 240" fill="none" xmlns="http://www.w3.org/2000/svg">
<path d="M161.458 161.242C162.207 160.493 162.207 159.278 161.458 158.529L150.609 147.68C149.86 146.931 148.646 146.931 147.897 147.68C147.148 148.43 147.148 149.644 147.897 150.393L158.746 161.242C159.495 161.991 160.709 161.991 161.458 161.242Z" fill="#384344"/>
<path d="M153.185 92.0502L138.358 106.877C137.682 107.553 137.682 108.65 138.358 109.326C139.035 110.003 140.131 110.003 140.808 109.326L155.635 94.4994C156.311 93.823 156.311 92.7265 155.635 92.0501C154.958 91.3736 153.862 91.3737 153.185 92.0502Z" fill="#384344"/>
<path d="M138.609 77.4743L123.782 92.3012C123.106 92.9777 123.106 94.0741 123.782 94.7505C124.459 95.4269 125.555 95.4269 126.232 94.7505L141.059 79.9236C141.735 79.2472 141.735 78.1507 141.059 77.4743C140.382 76.7979 139.286 76.7979 138.609 77.4743Z" fill="#384344"/>
<path d="M180.618 21.9803L133.379 69.2191C132.544 70.0545 132.544 71.4089 133.379 72.2443L160.865 99.7295C161.7 100.565 163.054 100.565 163.89 99.7295L211.128 52.4907C211.964 51.6553 211.964 50.3009 211.128 49.4655L183.643 21.9803C182.808 21.1449 181.453 21.1449 180.618 21.9803Z" fill="#258DE2"/>
<path d="M174.703 60.8547L188.734 74.8854L186.285 77.3346L172.254 63.304L148.347 87.2113L145.897 84.762L169.805 60.8547L155.774 46.8242L158.223 44.3749L172.254 58.4054L196.161 34.498L198.611 36.9474L174.703 60.8547Z" fill="#0D7ECC"/>
<path d="M79.7073 141.275L94.5342 126.448C95.2106 125.772 95.2106 124.675 94.5342 123.999C93.8578 123.322 92.7613 123.322 92.0849 123.999L77.258 138.826C76.5816 139.502 76.5816 140.599 77.258 141.275C77.9344 141.951 79.0309 141.951 79.7073 141.275Z" fill="#384344"/>
<path d="M94.2834 155.851L109.11 141.024C109.787 140.348 109.787 139.251 109.11 138.575C108.434 137.898 107.337 137.898 106.661 138.575L91.834 153.402C91.1576 154.078 91.1576 155.175 91.834 155.851C92.5104 156.527 93.607 156.527 94.2834 155.851Z" fill="#384344"/>
<path d="M143.065 143.284C150.557 135.787 154.313 127.391 151.456 124.532C148.599 121.673 140.211 125.432 132.719 132.93C125.228 140.426 121.471 148.821 124.329 151.68C127.185 154.54 135.574 150.781 143.065 143.284Z" fill="#86A7B5"/>
<path d="M123.731 123.954C133.158 114.52 138.144 104.217 134.87 100.94C131.595 97.6618 121.3 102.651 111.872 112.085C102.447 121.517 97.46 131.82 100.735 135.098C104.009 138.375 114.305 133.386 123.731 123.954Z" fill="#526789"/>
<path d="M100.831 135.187C100.896 135.247 100.964 135.305 101.034 135.359C101.042 135.364 101.048 135.37 101.055 135.376C101.132 135.433 101.213 135.486 101.295 135.537C101.316 135.55 101.338 135.563 101.36 135.575C101.427 135.614 101.496 135.651 101.567 135.686C101.582 135.693 101.596 135.701 101.611 135.708C101.696 135.748 101.783 135.785 101.873 135.819C101.896 135.827 101.92 135.835 101.943 135.844C102.011 135.868 102.081 135.89 102.152 135.911C102.177 135.918 102.203 135.926 102.23 135.933C102.323 135.959 102.417 135.982 102.515 136.002C102.521 136.003 102.528 136.004 102.534 136.005C102.625 136.023 102.718 136.038 102.812 136.051C102.842 136.055 102.872 136.058 102.903 136.062C102.98 136.071 103.058 136.079 103.138 136.085C103.166 136.087 103.194 136.09 103.223 136.092C103.328 136.098 103.436 136.103 103.545 136.104C103.561 136.104 103.577 136.104 103.592 136.104C103.688 136.104 103.784 136.102 103.883 136.099C103.917 136.098 103.952 136.096 103.986 136.094C104.075 136.09 104.166 136.084 104.257 136.076C104.287 136.074 104.316 136.072 104.346 136.069C104.465 136.058 104.586 136.044 104.708 136.028C104.732 136.025 104.756 136.021 104.78 136.017C104.884 136.003 104.989 135.986 105.096 135.968C105.133 135.961 105.171 135.955 105.209 135.948C105.322 135.927 105.437 135.904 105.553 135.879C105.571 135.876 105.588 135.872 105.606 135.869C105.744 135.838 105.884 135.805 106.026 135.769C106.062 135.76 106.099 135.75 106.135 135.741C106.254 135.709 106.374 135.677 106.495 135.642C106.523 135.633 106.552 135.626 106.581 135.617C106.734 135.572 106.89 135.523 107.047 135.472C107.083 135.46 107.119 135.448 107.155 135.436C107.3 135.388 107.447 135.337 107.595 135.283C107.613 135.277 107.631 135.271 107.65 135.264C107.83 135.198 108.014 135.128 108.199 135.054C108.234 135.041 108.268 135.027 108.303 135.013C108.485 134.94 108.669 134.863 108.854 134.783C108.883 134.771 108.913 134.757 108.942 134.745C109.165 134.648 109.39 134.546 109.617 134.439C109.645 134.426 109.674 134.412 109.702 134.399C109.931 134.29 110.162 134.177 110.395 134.059C110.438 134.037 110.482 134.015 110.525 133.993C110.632 133.938 110.738 133.883 110.846 133.826C110.899 133.799 110.952 133.771 111.005 133.742C111.116 133.683 111.227 133.623 111.338 133.562C111.383 133.537 111.429 133.513 111.474 133.488C111.629 133.402 111.785 133.315 111.941 133.225C111.966 133.211 111.991 133.196 112.016 133.182C112.149 133.106 112.283 133.028 112.417 132.949C112.453 132.927 112.488 132.906 112.524 132.885C112.788 132.727 113.055 132.565 113.323 132.397C113.355 132.377 113.388 132.356 113.421 132.336C113.688 132.167 113.957 131.994 114.228 131.815C114.26 131.794 114.292 131.773 114.324 131.752C114.599 131.57 114.876 131.382 115.154 131.189C115.181 131.171 115.207 131.153 115.233 131.134C115.522 130.933 115.813 130.727 116.104 130.515C116.12 130.504 116.135 130.493 116.15 130.482C116.456 130.259 116.763 130.031 117.072 129.797C117.078 129.792 117.083 129.788 117.089 129.784C117.392 129.553 117.696 129.317 118.001 129.076C118.023 129.058 118.045 129.04 118.067 129.023C118.357 128.793 118.647 128.558 118.938 128.318C118.969 128.292 119 128.267 119.031 128.241C119.314 128.006 119.598 127.767 119.882 127.524C119.91 127.5 119.938 127.476 119.966 127.451C120.437 127.046 120.909 126.628 121.38 126.199C121.397 126.183 121.415 126.168 121.432 126.152C121.801 125.815 122.17 125.471 122.537 125.12C122.566 125.092 122.595 125.064 122.624 125.037C122.936 124.738 123.246 124.435 123.556 124.127C123.615 124.069 123.673 124.012 123.731 123.954C124.003 123.682 124.271 123.409 124.535 123.136C124.549 123.121 124.563 123.107 124.577 123.093C124.88 122.779 125.178 122.464 125.472 122.149C125.484 122.135 125.497 122.121 125.509 122.108C125.789 121.807 126.063 121.506 126.333 121.205C126.357 121.178 126.381 121.15 126.405 121.123C126.665 120.833 126.92 120.542 127.17 120.252C127.199 120.219 127.227 120.185 127.256 120.152C127.505 119.862 127.749 119.572 127.989 119.282C128.016 119.249 128.043 119.217 128.07 119.184C128.319 118.883 128.562 118.582 128.8 118.281C128.817 118.26 128.833 118.24 128.85 118.219C129.112 117.887 129.369 117.556 129.618 117.226C129.632 117.208 129.645 117.191 129.658 117.173C129.911 116.838 130.156 116.505 130.395 116.173C130.415 116.146 130.435 116.118 130.455 116.09C130.715 115.727 130.967 115.367 131.21 115.008C131.236 114.97 131.261 114.932 131.287 114.895C131.391 114.741 131.493 114.588 131.594 114.435C131.622 114.392 131.65 114.349 131.678 114.307C131.797 114.124 131.915 113.942 132.03 113.76C132.05 113.728 132.07 113.696 132.09 113.664C132.224 113.452 132.355 113.24 132.482 113.029C132.49 113.016 132.499 113.003 132.506 112.99C132.636 112.775 132.762 112.562 132.885 112.349C132.904 112.315 132.924 112.281 132.944 112.247C133.107 111.964 133.264 111.683 133.414 111.405C133.422 111.391 133.429 111.376 133.437 111.362C133.593 111.072 133.743 110.785 133.885 110.501C133.913 110.444 133.94 110.388 133.968 110.332C134.004 110.258 134.041 110.184 134.076 110.111C134.105 110.051 134.133 109.992 134.161 109.933C134.195 109.861 134.229 109.789 134.262 109.718C134.29 109.658 134.317 109.598 134.344 109.538C134.376 109.468 134.408 109.399 134.439 109.33C134.466 109.269 134.491 109.21 134.517 109.15C134.547 109.082 134.577 109.014 134.605 108.946C134.631 108.886 134.655 108.827 134.68 108.767C134.708 108.701 134.736 108.634 134.762 108.569C134.787 108.508 134.81 108.449 134.834 108.389C134.859 108.324 134.885 108.26 134.909 108.196C134.932 108.137 134.954 108.078 134.975 108.02C134.999 107.956 135.023 107.891 135.046 107.828C135.067 107.77 135.087 107.712 135.108 107.655C135.13 107.592 135.152 107.529 135.173 107.467C135.193 107.41 135.211 107.353 135.23 107.297C135.25 107.234 135.271 107.172 135.29 107.11C135.308 107.055 135.324 107 135.341 106.945C135.36 106.883 135.378 106.822 135.396 106.761C135.412 106.706 135.428 106.651 135.443 106.597C135.46 106.537 135.476 106.478 135.492 106.418C135.506 106.364 135.52 106.31 135.534 106.257C135.549 106.198 135.563 106.14 135.577 106.082C135.59 106.029 135.603 105.976 135.615 105.923C135.628 105.866 135.64 105.809 135.652 105.752C135.663 105.7 135.674 105.648 135.684 105.596C135.696 105.54 135.706 105.485 135.716 105.429C135.726 105.378 135.735 105.328 135.743 105.277C135.753 105.222 135.761 105.168 135.77 105.113C135.777 105.063 135.785 105.014 135.792 104.965C135.799 104.911 135.806 104.858 135.812 104.806C135.818 104.757 135.824 104.708 135.829 104.659C135.835 104.607 135.839 104.556 135.844 104.504C135.848 104.457 135.852 104.409 135.855 104.362C135.859 104.311 135.862 104.261 135.864 104.211C135.867 104.165 135.869 104.118 135.871 104.072C135.872 104.023 135.873 103.974 135.874 103.925C135.874 103.88 135.875 103.835 135.875 103.791C135.874 103.743 135.873 103.695 135.872 103.648C135.871 103.604 135.87 103.56 135.868 103.517C135.865 103.471 135.862 103.425 135.859 103.379C135.856 103.336 135.853 103.294 135.849 103.252C135.845 103.207 135.839 103.162 135.834 103.117C135.829 103.077 135.825 103.036 135.819 102.996C135.813 102.951 135.805 102.908 135.798 102.864C135.791 102.825 135.785 102.786 135.778 102.748C135.769 102.705 135.76 102.663 135.75 102.621C135.742 102.584 135.734 102.546 135.724 102.509C135.714 102.467 135.702 102.427 135.691 102.386C135.68 102.35 135.671 102.314 135.659 102.279C135.647 102.238 135.633 102.199 135.619 102.16C135.607 102.126 135.596 102.091 135.583 102.058C135.568 102.019 135.551 101.981 135.535 101.942C135.521 101.91 135.509 101.878 135.494 101.847C135.477 101.809 135.458 101.773 135.439 101.736C135.424 101.706 135.41 101.675 135.394 101.645C135.374 101.608 135.352 101.573 135.33 101.537C135.314 101.509 135.298 101.481 135.281 101.454C135.258 101.417 135.232 101.381 135.207 101.345C135.19 101.321 135.174 101.296 135.156 101.272C135.127 101.233 135.096 101.196 135.066 101.158C135.05 101.139 135.035 101.119 135.019 101.1C134.972 101.045 134.922 100.991 134.87 100.939L164.863 130.909C164.915 130.961 164.964 131.015 165.012 131.07C165.028 131.089 165.043 131.109 165.058 131.128C165.089 131.165 165.12 131.202 165.149 131.242C165.167 131.265 165.183 131.291 165.2 131.315C165.225 131.351 165.25 131.386 165.274 131.423C165.291 131.45 165.307 131.479 165.323 131.507C165.345 131.543 165.366 131.578 165.386 131.615C165.402 131.644 165.417 131.675 165.432 131.705C165.451 131.742 165.47 131.779 165.487 131.817C165.501 131.848 165.514 131.88 165.528 131.912C165.544 131.95 165.561 131.989 165.576 132.028C165.588 132.061 165.6 132.095 165.611 132.129C165.625 132.169 165.64 132.208 165.652 132.248C165.663 132.284 165.673 132.32 165.683 132.356C165.695 132.396 165.707 132.437 165.717 132.479C165.726 132.515 165.734 132.553 165.743 132.591C165.752 132.633 165.762 132.674 165.77 132.717C165.777 132.756 165.784 132.795 165.79 132.834C165.798 132.878 165.805 132.921 165.812 132.965C165.817 133.005 165.822 133.046 165.827 133.087C165.832 133.132 165.837 133.176 165.841 133.222C165.845 133.263 165.848 133.305 165.851 133.347C165.855 133.394 165.858 133.44 165.86 133.487C165.862 133.53 165.863 133.573 165.864 133.616C165.866 133.664 165.867 133.712 165.867 133.761C165.867 133.805 165.867 133.85 165.866 133.895C165.866 133.944 165.865 133.992 165.863 134.042C165.862 134.088 165.859 134.134 165.857 134.181C165.854 134.231 165.851 134.281 165.848 134.332C165.845 134.379 165.841 134.426 165.836 134.474C165.832 134.525 165.827 134.577 165.821 134.629C165.816 134.677 165.811 134.726 165.805 134.775C165.798 134.827 165.792 134.881 165.784 134.934C165.777 134.983 165.77 135.033 165.762 135.083C165.754 135.137 165.745 135.192 165.736 135.246C165.727 135.297 165.718 135.348 165.709 135.399C165.699 135.454 165.688 135.51 165.677 135.566C165.666 135.618 165.656 135.67 165.645 135.722C165.633 135.778 165.62 135.835 165.607 135.892C165.595 135.945 165.583 135.998 165.57 136.051C165.556 136.109 165.541 136.168 165.526 136.226C165.513 136.28 165.499 136.334 165.485 136.388C165.469 136.447 165.452 136.507 165.435 136.567C165.42 136.621 165.405 136.676 165.389 136.731C165.371 136.791 165.353 136.852 165.334 136.913C165.317 136.969 165.3 137.024 165.282 137.08C165.263 137.142 165.243 137.204 165.222 137.266C165.204 137.322 165.185 137.379 165.166 137.436C165.145 137.498 165.122 137.561 165.1 137.624C165.08 137.682 165.06 137.74 165.039 137.798C165.016 137.861 164.992 137.925 164.968 137.988C164.946 138.047 164.925 138.106 164.902 138.165C164.877 138.23 164.851 138.295 164.826 138.36C164.802 138.419 164.779 138.478 164.755 138.538C164.728 138.604 164.7 138.67 164.673 138.737C164.648 138.797 164.624 138.856 164.598 138.916C164.57 138.983 164.54 139.051 164.51 139.119C164.484 139.179 164.458 139.239 164.432 139.299C164.401 139.368 164.369 139.438 164.337 139.507C164.31 139.567 164.283 139.627 164.255 139.688C164.222 139.759 164.188 139.831 164.154 139.903C164.126 139.962 164.098 140.021 164.069 140.081C164.034 140.154 163.997 140.228 163.961 140.302C163.935 140.354 163.91 140.405 163.884 140.458C163.882 140.462 163.88 140.466 163.877 140.471C163.735 140.754 163.586 141.041 163.43 141.331C163.422 141.346 163.414 141.361 163.406 141.376C163.256 141.653 163.1 141.933 162.937 142.216C162.93 142.229 162.924 142.241 162.916 142.253C162.904 142.275 162.89 142.298 162.877 142.32C162.754 142.532 162.629 142.745 162.5 142.959C162.491 142.973 162.482 142.987 162.474 143.001C162.346 143.212 162.215 143.423 162.081 143.636C162.069 143.656 162.057 143.676 162.044 143.695C162.037 143.706 162.03 143.718 162.023 143.729C161.908 143.911 161.79 144.094 161.67 144.277C161.642 144.319 161.615 144.361 161.587 144.403C161.486 144.557 161.383 144.711 161.279 144.865C161.26 144.893 161.242 144.921 161.223 144.95C161.216 144.959 161.21 144.968 161.204 144.977C160.96 145.336 160.707 145.697 160.447 146.061C160.438 146.073 160.431 146.084 160.422 146.096C160.411 146.111 160.399 146.127 160.388 146.142C160.15 146.473 159.904 146.806 159.652 147.141C159.643 147.152 159.635 147.164 159.626 147.176C159.621 147.183 159.615 147.19 159.61 147.196C159.361 147.526 159.105 147.857 158.843 148.188C158.837 148.195 158.832 148.203 158.826 148.21C158.815 148.223 158.804 148.237 158.793 148.25C158.555 148.551 158.311 148.852 158.063 149.154C158.05 149.168 158.039 149.183 158.027 149.198C158.012 149.215 157.996 149.234 157.982 149.251C157.742 149.541 157.497 149.831 157.248 150.122C157.233 150.14 157.218 150.157 157.203 150.175C157.19 150.191 157.176 150.206 157.163 150.221C156.912 150.512 156.657 150.802 156.398 151.093C156.383 151.109 156.369 151.126 156.354 151.143C156.344 151.153 156.335 151.164 156.325 151.174C156.056 151.475 155.781 151.776 155.502 152.077C155.493 152.086 155.485 152.096 155.476 152.105C155.472 152.11 155.468 152.114 155.464 152.118C155.171 152.433 154.872 152.748 154.569 153.062C154.566 153.066 154.562 153.07 154.558 153.073C154.548 153.084 154.538 153.094 154.527 153.105C154.263 153.378 153.995 153.651 153.723 153.923C153.681 153.966 153.639 154.008 153.596 154.05C153.58 154.066 153.564 154.082 153.548 154.098C153.238 154.405 152.928 154.708 152.617 155.006C152.6 155.022 152.584 155.038 152.567 155.054C152.555 155.066 152.542 155.077 152.53 155.089C152.162 155.44 151.794 155.784 151.425 156.12C151.417 156.128 151.409 156.136 151.401 156.144C151.391 156.152 151.381 156.161 151.372 156.169C150.901 156.598 150.43 157.015 149.959 157.421C149.947 157.43 149.936 157.441 149.925 157.451C149.908 157.465 149.891 157.479 149.874 157.493C149.591 157.737 149.307 157.976 149.024 158.21C148.992 158.236 148.961 158.262 148.93 158.287C148.64 158.527 148.35 158.762 148.061 158.991C148.038 159.009 148.016 159.027 147.993 159.045C147.689 159.286 147.384 159.523 147.081 159.753C147.076 159.757 147.07 159.762 147.065 159.766C146.756 160 146.449 160.229 146.143 160.451C146.127 160.463 146.112 160.474 146.096 160.485C145.805 160.697 145.515 160.903 145.226 161.103C145.2 161.122 145.173 161.14 145.146 161.159C144.868 161.352 144.592 161.539 144.316 161.721C144.284 161.743 144.253 161.764 144.221 161.785C143.95 161.963 143.68 162.137 143.412 162.306C143.38 162.326 143.348 162.346 143.316 162.366C143.047 162.534 142.78 162.697 142.515 162.855C142.499 162.865 142.482 162.875 142.465 162.885C142.447 162.896 142.429 162.906 142.411 162.917C142.274 162.998 142.137 163.078 142.001 163.156C141.98 163.168 141.957 163.182 141.936 163.194C141.778 163.284 141.622 163.372 141.466 163.458C141.422 163.482 141.378 163.506 141.333 163.53C141.221 163.592 141.108 163.653 140.996 163.713C140.944 163.74 140.892 163.768 140.84 163.795C140.732 163.852 140.624 163.908 140.516 163.963C140.484 163.979 140.452 163.997 140.42 164.013C140.409 164.018 140.399 164.023 140.388 164.029C140.154 164.147 139.923 164.26 139.694 164.369C139.666 164.382 139.638 164.395 139.611 164.408C139.383 164.515 139.158 164.617 138.935 164.714C138.918 164.721 138.901 164.73 138.884 164.737C138.872 164.743 138.859 164.747 138.847 164.753C138.661 164.833 138.477 164.909 138.296 164.982C138.261 164.996 138.227 165.01 138.192 165.024C138.007 165.097 137.823 165.168 137.642 165.233C137.638 165.235 137.634 165.237 137.63 165.238C137.616 165.244 137.602 165.248 137.588 165.253C137.44 165.306 137.293 165.357 137.148 165.405C137.111 165.418 137.075 165.43 137.039 165.442C136.882 165.493 136.726 165.541 136.573 165.587C136.565 165.589 136.557 165.592 136.549 165.594C136.529 165.6 136.509 165.605 136.489 165.61C136.367 165.646 136.247 165.679 136.128 165.71C136.091 165.719 136.054 165.729 136.018 165.738C135.877 165.774 135.737 165.808 135.599 165.838C135.595 165.838 135.592 165.84 135.588 165.84C135.574 165.843 135.56 165.846 135.546 165.849C135.43 165.874 135.314 165.896 135.2 165.917C135.163 165.924 135.126 165.93 135.089 165.937C134.982 165.955 134.877 165.972 134.773 165.986C134.755 165.989 134.736 165.993 134.718 165.995C134.712 165.996 134.706 165.996 134.7 165.997C134.578 166.013 134.458 166.027 134.339 166.038C134.309 166.041 134.28 166.043 134.25 166.045C134.158 166.053 134.068 166.059 133.979 166.063C133.96 166.064 133.939 166.067 133.92 166.067C133.905 166.068 133.891 166.067 133.875 166.068C133.777 166.072 133.68 166.073 133.584 166.073C133.569 166.073 133.553 166.073 133.538 166.073C133.429 166.072 133.322 166.067 133.216 166.061C133.206 166.06 133.196 166.06 133.186 166.06C133.167 166.058 133.149 166.056 133.13 166.054C133.051 166.048 132.972 166.04 132.895 166.031C132.865 166.027 132.835 166.024 132.805 166.02C132.711 166.007 132.618 165.992 132.528 165.974C132.522 165.973 132.516 165.972 132.51 165.971C132.51 165.971 132.509 165.971 132.508 165.971C132.41 165.951 132.315 165.928 132.222 165.902C132.196 165.895 132.17 165.887 132.144 165.88C132.073 165.859 132.004 165.837 131.936 165.813C131.92 165.807 131.904 165.803 131.888 165.797C131.881 165.794 131.873 165.791 131.866 165.788C131.776 165.754 131.688 165.717 131.604 165.677C131.589 165.67 131.575 165.663 131.56 165.655C131.489 165.621 131.42 165.583 131.352 165.544C131.34 165.537 131.327 165.532 131.315 165.525C131.306 165.519 131.298 165.512 131.288 165.506C131.206 165.456 131.125 165.402 131.048 165.345C131.041 165.339 131.034 165.333 131.027 165.328C130.957 165.274 130.889 165.216 130.824 165.156C130.814 165.148 130.803 165.14 130.794 165.131C130.772 165.11 130.749 165.089 130.728 165.067L100.735 135.097C100.766 135.128 100.799 135.158 100.831 135.187Z" fill="#6A7DA0"/>
<path d="M131.656 105.862C132.405 105.113 132.405 103.899 131.656 103.15L120.807 92.3013C120.058 91.5522 118.844 91.5522 118.095 92.3013C117.346 93.0503 117.346 94.2645 118.095 95.0135L128.944 105.862C129.693 106.612 130.907 106.612 131.656 105.862Z" fill="#384344"/>
<path d="M105.678 131.841C106.427 131.091 106.427 129.877 105.678 129.128L94.829 118.279C94.0799 117.53 92.8658 117.53 92.1168 118.279C91.3677 119.028 91.3677 120.243 92.1168 120.992L102.966 131.84C103.715 132.589 104.929 132.59 105.678 131.841Z" fill="#384344"/>
<path d="M121.238 121.022C121.988 120.273 121.988 119.059 121.238 118.31L110.39 107.461C109.64 106.712 108.426 106.712 107.677 107.461C106.928 108.21 106.928 109.424 107.677 110.173L118.526 121.022C119.275 121.771 120.489 121.771 121.238 121.022Z" fill="#384344"/>
<path d="M95.3964 95.6197C104.824 86.1859 109.81 75.8823 106.536 72.6051C103.261 69.3273 92.9652 74.3168 83.5378 83.7506C74.112 93.1828 69.1255 103.486 72.4004 106.764C75.6748 110.041 85.9707 105.052 95.3964 95.6197Z" fill="#526789"/>
<path d="M72.4964 106.853C72.5619 106.913 72.6294 106.97 72.7 107.024C72.7071 107.03 72.7137 107.036 72.7209 107.041C72.7977 107.099 72.8783 107.152 72.9609 107.203C72.982 107.216 73.0035 107.228 73.0251 107.241C73.0924 107.28 73.1614 107.317 73.2323 107.352C73.2472 107.359 73.2615 107.367 73.2766 107.374C73.3613 107.414 73.4488 107.45 73.5384 107.484C73.5616 107.493 73.5854 107.501 73.6089 107.509C73.6769 107.533 73.7463 107.556 73.817 107.576C73.8429 107.584 73.8687 107.592 73.895 107.599C73.9881 107.624 74.0829 107.647 74.1805 107.667C74.1868 107.668 74.1934 107.669 74.1997 107.67C74.2903 107.688 74.3832 107.703 74.4775 107.716C74.5075 107.72 74.5379 107.724 74.5684 107.727C74.6455 107.737 74.7239 107.744 74.8033 107.75C74.8317 107.753 74.8597 107.755 74.8883 107.757C74.9939 107.764 75.1011 107.768 75.2106 107.769C75.226 107.769 75.2421 107.769 75.2576 107.769C75.353 107.769 75.4498 107.768 75.5481 107.764C75.5824 107.763 75.617 107.761 75.6515 107.76C75.7408 107.755 75.8312 107.749 75.9227 107.742C75.9524 107.739 75.9816 107.737 76.0115 107.734C76.1303 107.723 76.2508 107.71 76.3733 107.693C76.397 107.69 76.4213 107.686 76.4451 107.683C76.5491 107.668 76.6544 107.651 76.7609 107.633C76.7984 107.627 76.836 107.62 76.8739 107.613C76.9875 107.592 77.1023 107.57 77.2187 107.545C77.2364 107.541 77.2537 107.538 77.2715 107.534C77.4094 107.504 77.5496 107.47 77.691 107.434C77.7273 107.425 77.7639 107.415 77.8005 107.406C77.9191 107.375 78.039 107.342 78.16 107.307C78.1887 107.299 78.2172 107.291 78.2459 107.282C78.3994 107.237 78.5549 107.189 78.712 107.137C78.7478 107.126 78.7839 107.113 78.8199 107.101C78.9653 107.053 79.112 107.002 79.2604 106.949C79.2788 106.942 79.2968 106.936 79.3152 106.929C79.4958 106.864 79.6791 106.793 79.8639 106.72C79.8989 106.706 79.9338 106.692 79.9688 106.678C80.1505 106.605 80.3342 106.529 80.5196 106.449C80.5488 106.436 80.5783 106.423 80.6075 106.41C80.8301 106.313 81.055 106.211 81.2825 106.104C81.3109 106.091 81.3394 106.077 81.3678 106.064C81.5964 105.956 81.8273 105.843 82.0606 105.725C82.1037 105.703 82.1473 105.68 82.1907 105.658C82.2971 105.604 82.404 105.548 82.5113 105.492C82.5643 105.464 82.6174 105.436 82.6705 105.408C82.781 105.349 82.892 105.289 83.0033 105.228C83.0487 105.203 83.0941 105.178 83.1397 105.153C83.2946 105.068 83.4503 104.98 83.6068 104.891C83.6316 104.877 83.6565 104.862 83.6814 104.848C83.8144 104.771 83.948 104.693 84.0822 104.614C84.1179 104.593 84.1538 104.571 84.1895 104.55C84.4538 104.393 84.72 104.23 84.988 104.063C85.0207 104.042 85.0535 104.022 85.0862 104.001C85.3534 103.833 85.6225 103.659 85.8931 103.481C85.9251 103.46 85.9571 103.439 85.9893 103.417C86.2645 103.235 86.5414 103.047 86.8197 102.855C86.8461 102.836 86.8725 102.818 86.8988 102.8C87.1878 102.599 87.4781 102.393 87.7696 102.181C87.7849 102.17 87.8002 102.159 87.8156 102.148C88.1216 101.925 88.4288 101.696 88.7372 101.462C88.7429 101.458 88.7486 101.453 88.7542 101.449C89.0574 101.219 89.3616 100.982 89.6664 100.741C89.6884 100.723 89.7106 100.706 89.7327 100.688C90.0223 100.458 90.3127 100.223 90.6034 99.9834C90.6343 99.9579 90.6652 99.932 90.6962 99.9064C90.9795 99.6719 91.2633 99.4328 91.5472 99.1894C91.5753 99.1653 91.6035 99.1411 91.6315 99.1169C92.1027 98.7115 92.5743 98.294 93.0453 97.8647C93.0627 97.8489 93.0801 97.8332 93.0975 97.8174C93.4664 97.4805 93.835 97.1361 94.2028 96.7852C94.2317 96.7576 94.2605 96.7299 94.2894 96.7022C94.6009 96.4039 94.9118 96.1007 95.2217 95.7927C95.2799 95.7349 95.3382 95.6777 95.3963 95.6195C95.6681 95.3475 95.9359 95.0746 96.2004 94.8014C96.2142 94.787 96.2284 94.7727 96.2422 94.7583C96.5456 94.4442 96.8438 94.1294 97.137 93.8142C97.1497 93.8006 97.162 93.787 97.1747 93.7734C97.454 93.4727 97.7285 93.1716 97.9982 92.8704C98.0226 92.8432 98.0466 92.8161 98.0708 92.7889C98.33 92.4985 98.5849 92.208 98.8351 91.9177C98.8639 91.8842 98.8925 91.8507 98.9213 91.8172C99.1702 91.5271 99.4147 91.2371 99.6543 90.9475C99.6813 90.9149 99.7084 90.8824 99.7353 90.8497C99.9839 90.5483 100.227 90.2472 100.466 89.9468C100.482 89.926 100.499 89.9051 100.515 89.8843C100.778 89.5524 101.034 89.2215 101.284 88.8916C101.297 88.8738 101.31 88.8561 101.324 88.8383C101.576 88.5038 101.822 88.1706 102.06 87.839C102.08 87.8113 102.1 87.7836 102.12 87.7559C102.381 87.393 102.633 87.0321 102.876 86.6736C102.902 86.6357 102.927 86.5979 102.953 86.5601C103.056 86.4063 103.158 86.2531 103.259 86.1003C103.287 86.0577 103.315 86.015 103.343 85.9724C103.463 85.7894 103.58 85.6071 103.695 85.4257C103.715 85.3937 103.735 85.3619 103.755 85.3299C103.889 85.1172 104.02 84.9053 104.148 84.6949C104.156 84.6818 104.164 84.6687 104.172 84.6556C104.302 84.4406 104.427 84.2272 104.55 84.0147C104.57 83.9808 104.59 83.9468 104.609 83.9129C104.772 83.6293 104.929 83.3483 105.079 83.0701C105.087 83.056 105.095 83.0418 105.102 83.0277C105.259 82.7374 105.408 82.4502 105.55 82.1664C105.578 82.1098 105.606 82.0539 105.633 81.9977C105.67 81.9239 105.706 81.8498 105.742 81.7764C105.771 81.7168 105.798 81.6578 105.826 81.5984C105.86 81.5267 105.895 81.4547 105.928 81.3834C105.956 81.3231 105.983 81.2634 106.01 81.2034C106.042 81.1338 106.074 81.0642 106.104 80.9951C106.131 80.9348 106.157 80.875 106.183 80.8151C106.213 80.7472 106.242 80.6791 106.271 80.6116C106.297 80.5516 106.321 80.4921 106.346 80.4324C106.373 80.366 106.401 80.2997 106.428 80.2339C106.452 80.1737 106.475 80.1141 106.499 80.0543C106.525 79.9898 106.55 79.9253 106.575 79.8614C106.597 79.8023 106.619 79.7437 106.641 79.685C106.665 79.6209 106.689 79.5567 106.712 79.4932C106.733 79.4352 106.753 79.3778 106.773 79.3204C106.795 79.2574 106.817 79.1944 106.839 79.132C106.858 79.0751 106.876 79.0187 106.895 78.9621C106.915 78.8998 106.936 78.8374 106.955 78.7756C106.973 78.7201 106.99 78.6651 107.007 78.6101C107.025 78.5487 107.044 78.4874 107.062 78.4264C107.078 78.3715 107.093 78.3169 107.108 78.2624C107.125 78.2026 107.142 78.143 107.157 78.0839C107.172 78.0297 107.186 77.9758 107.199 77.9221C107.214 77.8636 107.229 77.8054 107.243 77.7476C107.256 77.6943 107.268 77.6412 107.28 77.5884C107.293 77.5312 107.306 77.4744 107.318 77.4179C107.329 77.3656 107.339 77.3135 107.35 77.2617C107.361 77.2057 107.372 77.1501 107.382 77.0947C107.391 77.0439 107.4 76.9932 107.409 76.9428C107.418 76.8878 107.427 76.8331 107.435 76.7787C107.443 76.7288 107.45 76.6792 107.457 76.6299C107.464 76.5766 107.471 76.5237 107.478 76.471C107.484 76.4219 107.489 76.373 107.494 76.3244C107.5 76.2724 107.505 76.221 107.509 76.1697C107.514 76.1221 107.517 76.0747 107.521 76.0277C107.524 75.9768 107.527 75.9265 107.53 75.8763C107.532 75.8298 107.534 75.7835 107.536 75.7378C107.538 75.6883 107.539 75.6394 107.539 75.5907C107.54 75.5457 107.54 75.5007 107.54 75.4563C107.54 75.4081 107.539 75.3607 107.537 75.3132C107.536 75.2694 107.535 75.2256 107.533 75.1824C107.531 75.1358 107.528 75.0901 107.524 75.0442C107.521 75.0017 107.518 74.9591 107.514 74.9173C107.51 74.8719 107.505 74.8272 107.5 74.7825C107.495 74.7419 107.49 74.7012 107.485 74.6612C107.478 74.6167 107.471 74.5733 107.463 74.5296C107.457 74.4905 107.45 74.4513 107.443 74.4129C107.435 74.3702 107.425 74.3284 107.416 74.2864C107.407 74.2488 107.399 74.2108 107.39 74.1739C107.379 74.1325 107.368 74.0921 107.356 74.0515C107.346 74.0155 107.336 73.9792 107.325 73.9438C107.312 73.9036 107.298 73.8643 107.284 73.8248C107.273 73.791 107.261 73.7567 107.248 73.7235C107.233 73.6841 107.217 73.646 107.2 73.6075C107.187 73.5756 107.174 73.5433 107.16 73.5122C107.143 73.4743 107.124 73.4378 107.105 73.4009C107.09 73.3708 107.075 73.3399 107.059 73.3104C107.039 73.2734 107.017 73.2379 106.996 73.202C106.98 73.1742 106.964 73.1459 106.947 73.1188C106.923 73.0818 106.898 73.0464 106.873 73.0105C106.856 72.9861 106.84 72.961 106.822 72.9371C106.793 72.8981 106.762 72.8608 106.731 72.8233C106.716 72.8042 106.701 72.7843 106.685 72.7656C106.637 72.7102 106.588 72.6564 106.536 72.6045L128.474 94.5194C128.526 94.5714 128.576 94.6252 128.623 94.6806C128.639 94.6993 128.654 94.7193 128.67 94.7383C128.7 94.7758 128.731 94.813 128.76 94.8521C128.778 94.8759 128.794 94.9012 128.811 94.9257C128.836 94.9614 128.861 94.9968 128.885 95.0337C128.902 95.0609 128.918 95.0894 128.934 95.1173C128.956 95.1531 128.978 95.1885 128.998 95.2254C129.014 95.2549 129.028 95.2857 129.043 95.3158C129.062 95.3527 129.081 95.3892 129.098 95.4272C129.112 95.4583 129.125 95.4907 129.139 95.5225C129.155 95.5609 129.172 95.5991 129.187 95.6385C129.199 95.6718 129.211 95.706 129.223 95.7399C129.236 95.7794 129.251 95.8186 129.263 95.859C129.274 95.8942 129.284 95.9305 129.294 95.9663C129.306 96.007 129.318 96.0476 129.328 96.0892C129.337 96.126 129.345 96.1638 129.354 96.2012C129.363 96.2432 129.373 96.2851 129.381 96.328C129.389 96.3665 129.395 96.4059 129.402 96.4451C129.409 96.4885 129.416 96.5318 129.423 96.576C129.428 96.616 129.433 96.6567 129.438 96.6974C129.443 96.7423 129.448 96.7869 129.453 96.8326C129.456 96.874 129.459 96.9161 129.462 96.9581C129.466 97.0044 129.469 97.051 129.471 97.0981C129.473 97.1408 129.474 97.1839 129.476 97.2271C129.477 97.2749 129.478 97.3228 129.478 97.3714C129.479 97.4158 129.478 97.4606 129.477 97.5056C129.477 97.5543 129.476 97.6031 129.474 97.6526C129.473 97.6984 129.47 97.7447 129.468 97.7912C129.465 97.8413 129.463 97.8916 129.459 97.9425C129.456 97.9895 129.452 98.0368 129.447 98.0844C129.443 98.1358 129.438 98.1876 129.433 98.2396C129.427 98.2879 129.422 98.3364 129.416 98.3853C129.409 98.4381 129.403 98.4912 129.395 98.5446C129.388 98.5941 129.381 98.6439 129.373 98.694C129.365 98.748 129.356 98.8022 129.347 98.8569C129.338 98.9074 129.329 98.9583 129.32 99.0094C129.31 99.0648 129.299 99.1205 129.288 99.1765C129.278 99.2283 129.267 99.2803 129.256 99.3326C129.244 99.3891 129.231 99.4458 129.218 99.5028C129.206 99.5556 129.194 99.6086 129.181 99.662C129.167 99.72 129.153 99.7784 129.138 99.8369C129.124 99.8906 129.11 99.9443 129.096 99.9985C129.08 100.058 129.063 100.117 129.047 100.177C129.031 100.232 129.016 100.286 129 100.341C128.982 100.402 128.964 100.462 128.945 100.523C128.928 100.579 128.911 100.635 128.893 100.691C128.874 100.752 128.854 100.814 128.833 100.876C128.815 100.933 128.796 100.989 128.777 101.046C128.756 101.109 128.734 101.172 128.711 101.235C128.691 101.292 128.671 101.35 128.65 101.409C128.627 101.472 128.603 101.535 128.579 101.599C128.557 101.658 128.536 101.717 128.513 101.776C128.488 101.84 128.462 101.905 128.437 101.97C128.413 102.03 128.39 102.089 128.366 102.148C128.339 102.214 128.312 102.281 128.284 102.348C128.259 102.407 128.235 102.466 128.209 102.526C128.181 102.594 128.151 102.662 128.121 102.73C128.095 102.79 128.069 102.849 128.043 102.91C128.012 102.979 127.98 103.049 127.948 103.118C127.921 103.178 127.894 103.238 127.866 103.298C127.833 103.369 127.799 103.441 127.765 103.513C127.737 103.572 127.709 103.631 127.68 103.691C127.645 103.764 127.608 103.839 127.572 103.912C127.546 103.964 127.521 104.016 127.495 104.068C127.493 104.073 127.491 104.077 127.488 104.081C127.346 104.365 127.197 104.652 127.041 104.942C127.033 104.957 127.025 104.972 127.017 104.986C126.867 105.264 126.711 105.544 126.548 105.827C126.541 105.839 126.535 105.851 126.527 105.864C126.515 105.886 126.501 105.909 126.488 105.931C126.365 106.143 126.24 106.355 126.111 106.57C126.102 106.584 126.093 106.598 126.085 106.612C125.957 106.822 125.826 107.034 125.692 107.246C125.68 107.266 125.668 107.286 125.655 107.306C125.648 107.317 125.641 107.328 125.634 107.339C125.519 107.521 125.401 107.704 125.281 107.888C125.253 107.93 125.226 107.972 125.198 108.013C125.097 108.167 124.994 108.321 124.89 108.476C124.871 108.504 124.853 108.532 124.834 108.56C124.827 108.569 124.821 108.579 124.815 108.588C124.571 108.946 124.318 109.308 124.058 109.671C124.049 109.683 124.042 109.695 124.033 109.706C124.022 109.722 124.01 109.737 123.999 109.752C123.761 110.084 123.515 110.417 123.263 110.751C123.254 110.763 123.246 110.775 123.237 110.786C123.232 110.793 123.226 110.8 123.221 110.807C122.972 111.137 122.716 111.467 122.454 111.799C122.448 111.806 122.443 111.813 122.437 111.82C122.426 111.834 122.415 111.847 122.404 111.861C122.166 112.161 121.922 112.463 121.674 112.764C121.661 112.779 121.65 112.794 121.638 112.808C121.623 112.826 121.607 112.844 121.593 112.862C121.353 113.152 121.108 113.442 120.859 113.732C120.844 113.75 120.829 113.768 120.814 113.786C120.801 113.801 120.787 113.816 120.774 113.832C120.523 114.122 120.268 114.413 120.009 114.703C119.994 114.72 119.98 114.737 119.965 114.754C119.955 114.764 119.946 114.774 119.936 114.785C119.667 115.086 119.392 115.387 119.113 115.687C119.104 115.697 119.096 115.706 119.087 115.716C119.083 115.72 119.079 115.724 119.075 115.728C118.782 116.044 118.483 116.358 118.18 116.672C118.177 116.676 118.173 116.68 118.169 116.684C118.159 116.694 118.149 116.705 118.138 116.716C117.874 116.989 117.606 117.262 117.334 117.534C117.292 117.576 117.25 117.618 117.207 117.661C117.191 117.677 117.175 117.692 117.159 117.708C116.849 118.016 116.539 118.319 116.228 118.616C116.211 118.632 116.195 118.649 116.178 118.665C116.166 118.676 116.153 118.688 116.141 118.7C115.773 119.05 115.405 119.394 115.036 119.731C115.028 119.739 115.02 119.747 115.012 119.754C115.002 119.763 114.992 119.771 114.983 119.78C114.512 120.209 114.041 120.626 113.57 121.031C113.558 121.041 113.547 121.052 113.536 121.061C113.519 121.076 113.502 121.089 113.485 121.104C113.202 121.347 112.918 121.586 112.635 121.821C112.603 121.846 112.572 121.872 112.541 121.898C112.251 122.137 111.961 122.372 111.672 122.602C111.649 122.62 111.627 122.638 111.604 122.656C111.3 122.897 110.995 123.133 110.692 123.364C110.687 123.368 110.681 123.372 110.676 123.377C110.367 123.611 110.06 123.839 109.754 124.062C109.738 124.073 109.723 124.084 109.707 124.096C109.416 124.307 109.126 124.513 108.837 124.714C108.811 124.733 108.784 124.751 108.757 124.77C108.479 124.962 108.203 125.15 107.927 125.332C107.895 125.353 107.864 125.374 107.832 125.395C107.561 125.574 107.291 125.748 107.023 125.916C106.991 125.936 106.959 125.957 106.927 125.977C106.658 126.145 106.391 126.308 106.126 126.465C106.11 126.475 106.093 126.486 106.076 126.496C106.058 126.507 106.04 126.517 106.022 126.528C105.885 126.609 105.748 126.688 105.612 126.766C105.591 126.779 105.568 126.792 105.547 126.805C105.389 126.895 105.233 126.982 105.077 127.068C105.033 127.093 104.989 127.117 104.944 127.141C104.832 127.203 104.719 127.263 104.607 127.323C104.555 127.351 104.503 127.378 104.451 127.405C104.343 127.463 104.235 127.519 104.127 127.574C104.095 127.59 104.063 127.607 104.031 127.624C104.02 127.629 104.01 127.634 103.999 127.639C103.765 127.757 103.534 127.871 103.305 127.979C103.277 127.992 103.249 128.006 103.222 128.019C102.994 128.126 102.769 128.228 102.546 128.325C102.529 128.332 102.512 128.34 102.495 128.348C102.483 128.353 102.47 128.358 102.458 128.363C102.272 128.444 102.088 128.52 101.907 128.593C101.872 128.607 101.837 128.62 101.803 128.634C101.618 128.708 101.434 128.778 101.253 128.844C101.249 128.846 101.245 128.847 101.241 128.849C101.227 128.854 101.213 128.858 101.199 128.863C101.051 128.917 100.904 128.968 100.759 129.016C100.722 129.028 100.686 129.04 100.65 129.052C100.493 129.103 100.337 129.152 100.184 129.197C100.176 129.199 100.168 129.202 100.16 129.204C100.14 129.21 100.12 129.215 100.1 129.221C99.9782 129.256 99.8578 129.289 99.7387 129.32C99.702 129.33 99.6653 129.34 99.6288 129.349C99.4876 129.385 99.3476 129.418 99.2098 129.448C99.2063 129.449 99.2028 129.45 99.1993 129.451C99.185 129.454 99.1713 129.456 99.1571 129.459C99.0405 129.484 98.9253 129.507 98.8114 129.528C98.7742 129.535 98.737 129.541 98.6999 129.547C98.5934 129.566 98.4881 129.582 98.384 129.597C98.3657 129.6 98.3467 129.603 98.3285 129.606C98.3226 129.607 98.317 129.607 98.3112 129.608C98.1889 129.624 98.0686 129.638 97.9499 129.649C97.9199 129.652 97.8906 129.653 97.8609 129.656C97.7694 129.663 97.679 129.67 97.5898 129.674C97.5705 129.675 97.5503 129.677 97.5311 129.678C97.5159 129.678 97.5015 129.678 97.4863 129.679C97.3878 129.682 97.2906 129.684 97.1948 129.683C97.1797 129.683 97.164 129.684 97.149 129.684C97.0396 129.682 96.9325 129.678 96.8269 129.671C96.8173 129.671 96.807 129.671 96.7974 129.67C96.7782 129.669 96.7601 129.666 96.741 129.665C96.6616 129.659 96.5833 129.651 96.5062 129.642C96.476 129.638 96.4457 129.634 96.4159 129.63C96.3218 129.617 96.2291 129.603 96.1385 129.585C96.1329 129.584 96.127 129.583 96.1214 129.582C96.1204 129.582 96.1195 129.581 96.1195 129.581C96.021 129.562 95.9263 129.538 95.8332 129.513C95.8069 129.506 95.7812 129.498 95.7552 129.49C95.6845 129.47 95.6151 129.447 95.5471 129.423C95.5315 129.418 95.5148 129.413 95.4994 129.408C95.4916 129.405 95.4844 129.401 95.4766 129.398C95.3869 129.364 95.2994 129.328 95.2146 129.288C95.1997 129.281 95.1856 129.273 95.171 129.266C95.1 129.231 95.0308 129.194 94.9633 129.155C94.9513 129.148 94.9383 129.142 94.9264 129.135C94.917 129.129 94.9086 129.123 94.8992 129.117C94.8166 129.066 94.7361 129.013 94.6592 128.955C94.6521 128.95 94.6454 128.944 94.6384 128.938C94.5678 128.884 94.5003 128.827 94.4348 128.767C94.4252 128.758 94.4145 128.751 94.4049 128.742C94.3826 128.721 94.3605 128.699 94.3388 128.677L72.4006 106.763C72.4316 106.794 72.4641 106.823 72.4964 106.853Z" fill="#6A7DA0"/>
<path d="M84.4577 84.677C91.7667 77.3631 95.6323 69.3748 93.0937 66.834C90.5547 64.2927 82.5727 68.1611 75.2638 75.475C67.9561 82.7877 64.09 90.7755 66.629 93.3168C69.1676 95.8576 77.1501 91.9897 84.4577 84.677Z" fill="#E9F4F6"/>
<path d="M66.7038 93.3861C66.7546 93.4326 66.8069 93.4772 66.8616 93.5191C66.8671 93.5233 66.8722 93.5279 66.8778 93.532C66.9373 93.5767 66.9998 93.618 67.0639 93.6572C67.0803 93.6673 67.097 93.677 67.1136 93.6867C67.1658 93.717 67.2193 93.7458 67.2743 93.7727C67.2859 93.7783 67.297 93.7845 67.3086 93.79C67.3743 93.8209 67.4421 93.8492 67.5116 93.8754C67.5296 93.8822 67.548 93.8883 67.5663 93.8947C67.619 93.9134 67.6728 93.9308 67.7276 93.9469C67.7477 93.9528 67.7677 93.9589 67.788 93.9644C67.8602 93.984 67.9337 94.0021 68.0093 94.0173C68.0142 94.0183 68.0193 94.019 68.0242 94.0199C68.0944 94.0337 68.1665 94.0452 68.2396 94.0553C68.2628 94.0585 68.2865 94.0612 68.3101 94.0641C68.3699 94.0712 68.4306 94.0772 68.4922 94.082C68.5142 94.0837 68.5359 94.0857 68.5581 94.0871C68.64 94.0923 68.7231 94.0957 68.808 94.0967C68.82 94.0967 68.8324 94.0964 68.8444 94.0964C68.9184 94.0967 68.9934 94.0955 69.0696 94.0928C69.0962 94.0918 69.123 94.0905 69.1498 94.0892C69.219 94.0858 69.2891 94.0811 69.36 94.0752C69.3831 94.0733 69.4057 94.0718 69.4289 94.0696C69.521 94.061 69.6144 94.0505 69.7094 94.0379C69.7278 94.0354 69.7466 94.0323 69.7651 94.0297C69.8457 94.0183 69.9273 94.0055 70.0099 93.9913C70.039 93.9863 70.0681 93.9811 70.0975 93.9758C70.1856 93.9596 70.2746 93.942 70.3648 93.9228C70.3786 93.9199 70.392 93.9174 70.4057 93.9143C70.5127 93.8909 70.6213 93.8649 70.7309 93.8371C70.7591 93.83 70.7874 93.8224 70.8158 93.8151C70.9078 93.791 71.0007 93.7656 71.0945 93.7385C71.1168 93.7321 71.1388 93.7261 71.1611 93.7194C71.2801 93.6844 71.4007 93.6467 71.5224 93.6069C71.5502 93.5979 71.5782 93.5884 71.6061 93.5791C71.7188 93.5415 71.8326 93.5023 71.9476 93.4607C71.9619 93.4555 71.9759 93.4508 71.9901 93.4456C72.1301 93.3946 72.2722 93.34 72.4155 93.2832C72.4426 93.2725 72.4697 93.2618 72.4969 93.2508C72.6378 93.1942 72.7801 93.1349 72.9239 93.0728C72.9466 93.0631 72.9694 93.0529 72.9921 93.043C73.1647 92.9677 73.3391 92.8889 73.5155 92.806C73.5375 92.7956 73.5596 92.785 73.5816 92.7746C73.7588 92.6906 73.9379 92.6031 74.1187 92.5116C74.1522 92.4947 74.1859 92.4773 74.2196 92.46C74.3021 92.4178 74.3849 92.3749 74.4682 92.3311C74.5093 92.3095 74.5504 92.2878 74.5917 92.2657C74.6774 92.22 74.7634 92.1735 74.8497 92.1262C74.885 92.1069 74.9201 92.088 74.9555 92.0685C75.0756 92.0021 75.1963 91.9345 75.3177 91.8651C75.3369 91.8542 75.3563 91.8426 75.3755 91.8316C75.4786 91.7723 75.5822 91.712 75.6862 91.6505C75.7138 91.6342 75.7417 91.6175 75.7694 91.6009C75.9743 91.479 76.1807 91.3531 76.3885 91.223C76.4139 91.2072 76.4392 91.1913 76.4646 91.1753C76.6718 91.0448 76.8804 90.9104 77.0902 90.7721C77.115 90.7557 77.1399 90.7394 77.1647 90.7229C77.3781 90.5815 77.5928 90.436 77.8085 90.2865C77.829 90.2723 77.8494 90.2583 77.8699 90.244C78.0939 90.0883 78.319 89.9283 78.545 89.7641C78.5569 89.7554 78.5688 89.7471 78.5806 89.7384C78.8178 89.5657 79.056 89.3887 79.2951 89.207C79.2995 89.2037 79.304 89.2002 79.3083 89.1969C79.5434 89.0182 79.7791 88.8351 80.0155 88.6479C80.0326 88.6343 80.0498 88.6205 80.0669 88.6069C80.2915 88.4285 80.5165 88.2465 80.7419 88.0606C80.7659 88.0409 80.7898 88.0208 80.8139 88.001C81.0335 87.8191 81.2536 87.6338 81.4737 87.4451C81.4955 87.4264 81.5173 87.4077 81.539 87.3888C81.9043 87.0745 82.2699 86.7508 82.6351 86.418C82.6486 86.4057 82.662 86.3936 82.6756 86.3813C82.9616 86.1201 83.2473 85.8531 83.5326 85.581C83.5549 85.5596 83.5773 85.5381 83.5997 85.5166C83.8412 85.2853 84.0822 85.0503 84.3225 84.8114C84.3677 84.7665 84.4128 84.7222 84.4579 84.6771C84.6686 84.4662 84.8763 84.2547 85.0813 84.0428C85.092 84.0316 85.103 84.0205 85.1137 84.0094C85.3489 83.7659 85.5801 83.5219 85.8074 83.2775C85.8172 83.267 85.8268 83.2564 85.8366 83.2459C86.0531 83.0127 86.2659 82.7794 86.4751 82.5459C86.4939 82.5248 86.5126 82.5038 86.5314 82.4827C86.7324 82.2575 86.93 82.0324 87.1239 81.8073C87.1463 81.7813 87.1684 81.7553 87.1908 81.7294C87.3838 81.5045 87.5733 81.2797 87.7591 81.0552C87.7801 81.0299 87.8011 81.0047 87.8219 80.9794C88.0146 80.7457 88.2034 80.5122 88.3881 80.2794C88.4009 80.2633 88.4139 80.2471 88.4266 80.231C88.6302 79.9737 88.8288 79.7171 89.0222 79.4614C89.0326 79.4476 89.0428 79.4339 89.0532 79.42C89.249 79.1607 89.4393 78.9023 89.6244 78.6453C89.6398 78.6238 89.6554 78.6024 89.6707 78.5809C89.8725 78.2996 90.068 78.0198 90.2566 77.7418C90.2766 77.7124 90.2962 77.6831 90.316 77.6537C90.3964 77.5345 90.4756 77.4157 90.5536 77.2973C90.5753 77.2642 90.5973 77.2312 90.6189 77.1982C90.7116 77.0564 90.8026 76.915 90.8917 76.7744C90.9074 76.7496 90.9227 76.7249 90.9383 76.7001C91.0422 76.5352 91.1439 76.3709 91.2427 76.2078C91.2488 76.1977 91.2552 76.1875 91.2613 76.1774C91.3621 76.0107 91.4594 75.8452 91.5547 75.6805C91.57 75.6542 91.5854 75.6278 91.6005 75.6015C91.7268 75.3817 91.8484 75.1637 91.965 74.9481C91.9709 74.9372 91.977 74.9262 91.9828 74.9153C92.104 74.6902 92.2197 74.4676 92.3299 74.2475C92.3518 74.2036 92.3729 74.1603 92.3944 74.1167C92.4227 74.0594 92.4512 74.002 92.4787 73.9451C92.501 73.8989 92.5224 73.8532 92.5442 73.8071C92.5706 73.7515 92.5972 73.6957 92.6229 73.6404C92.6446 73.5936 92.6654 73.5474 92.6866 73.5009C92.7111 73.447 92.7359 73.3929 92.7597 73.3395C92.7804 73.2927 92.8004 73.2464 92.8206 73.1999C92.8435 73.1473 92.8667 73.0945 92.8889 73.0422C92.9087 72.9956 92.9277 72.9495 92.9469 72.9033C92.9682 72.8519 92.9897 72.8004 93.0104 72.7494C93.0293 72.7027 93.0474 72.6565 93.0657 72.6102C93.0854 72.5602 93.1053 72.5102 93.1243 72.4606C93.1419 72.4148 93.1587 72.3694 93.1757 72.3238C93.1943 72.2741 93.2129 72.2244 93.2308 72.1751C93.247 72.1302 93.2626 72.0857 93.2783 72.0412C93.2955 71.9924 93.3126 71.9435 93.329 71.8951C93.344 71.851 93.3584 71.8072 93.3727 71.7634C93.3886 71.715 93.4045 71.6667 93.4196 71.6187C93.4332 71.5757 93.4462 71.533 93.4592 71.4904C93.4737 71.4428 93.4882 71.3952 93.5019 71.348C93.5143 71.3055 93.5263 71.2631 93.5381 71.2208C93.5511 71.1745 93.5639 71.1282 93.5761 71.0824C93.5873 71.0404 93.5981 70.9986 93.6087 70.957C93.6202 70.9117 93.6314 70.8665 93.6423 70.8217C93.6523 70.7803 93.6618 70.7392 93.6711 70.6982C93.6811 70.6539 93.6909 70.6098 93.7003 70.566C93.709 70.5254 93.7172 70.4851 93.7252 70.4449C93.7339 70.4015 93.7422 70.3584 93.7501 70.3155C93.7573 70.276 93.7643 70.2368 93.7709 70.1977C93.7781 70.155 93.785 70.1126 93.7915 70.0704C93.7974 70.0317 93.8031 69.9933 93.8084 69.9551C93.8142 69.9138 93.8194 69.8727 93.8244 69.8319C93.829 69.7938 93.8334 69.7559 93.8374 69.7183C93.8417 69.678 93.8454 69.6381 93.8489 69.5983C93.8522 69.5614 93.8553 69.5246 93.8578 69.4882C93.8606 69.4487 93.8628 69.4097 93.8649 69.3708C93.8668 69.3348 93.8685 69.2989 93.8697 69.2634C93.871 69.225 93.8716 69.1872 93.8722 69.1494C93.8727 69.1145 93.8731 69.0796 93.8729 69.0452C93.8726 69.0078 93.8717 68.9711 93.8707 68.9343C93.8698 68.9004 93.8689 68.8664 93.8673 68.8329C93.8656 68.7968 93.863 68.7613 93.8605 68.7258C93.8582 68.6928 93.8559 68.6598 93.8529 68.6274C93.8496 68.5922 93.8455 68.5575 93.8414 68.5229C93.8377 68.4914 93.8342 68.4598 93.8297 68.4289C93.8249 68.3944 93.819 68.3608 93.8133 68.3269C93.8082 68.2966 93.8033 68.2662 93.7975 68.2364C93.791 68.2033 93.7835 68.1709 93.7763 68.1384C93.7698 68.1092 93.7635 68.0798 93.7563 68.0511C93.7482 68.019 93.7391 67.9877 93.7301 67.9562C93.7222 67.9283 93.7147 67.9002 93.706 67.8727C93.6962 67.8415 93.6852 67.811 93.6745 67.7805C93.6653 67.7543 93.6565 67.7277 93.6467 67.7019C93.635 67.6713 93.6221 67.6418 93.6094 67.6119C93.599 67.5872 93.589 67.5621 93.578 67.538C93.5645 67.5087 93.5498 67.4803 93.5354 67.4517C93.5237 67.4283 93.5124 67.4044 93.5 67.3816C93.4844 67.3529 93.4674 67.3254 93.451 67.2975C93.4382 67.276 93.4262 67.254 93.4128 67.233C93.3945 67.2044 93.3747 67.1769 93.3554 67.149C93.3422 67.1301 93.3298 67.1107 93.3161 67.0921C93.2936 67.0618 93.2696 67.0329 93.2457 67.0039C93.2336 66.9891 93.2223 66.9737 93.2098 66.9591C93.1728 66.9162 93.1342 66.8744 93.094 66.8342L101.966 75.688C102.006 75.7283 102.045 75.77 102.082 75.813C102.094 75.8275 102.105 75.8429 102.117 75.8577C102.141 75.8868 102.165 75.9157 102.188 75.9459C102.202 75.9644 102.214 75.984 102.227 76.0029C102.247 76.0306 102.266 76.058 102.285 76.0867C102.298 76.1078 102.31 76.1299 102.323 76.1515C102.339 76.1793 102.356 76.2067 102.372 76.2353C102.384 76.2582 102.395 76.282 102.407 76.3054C102.422 76.334 102.436 76.3623 102.45 76.3918C102.461 76.4159 102.471 76.441 102.481 76.4657C102.494 76.4955 102.507 76.5251 102.518 76.5556C102.528 76.5814 102.537 76.6079 102.546 76.6342C102.557 76.6648 102.568 76.6952 102.578 76.7265C102.586 76.7538 102.594 76.7819 102.602 76.8097C102.611 76.8413 102.62 76.8727 102.628 76.9049C102.635 76.9334 102.641 76.9627 102.648 76.9918C102.655 77.0244 102.663 77.0569 102.669 77.0901C102.675 77.12 102.68 77.1505 102.685 77.1809C102.691 77.2146 102.697 77.2481 102.701 77.2824C102.706 77.3134 102.709 77.345 102.713 77.3765C102.717 77.4113 102.721 77.4459 102.725 77.4813C102.728 77.5134 102.73 77.546 102.732 77.5786C102.735 77.6146 102.737 77.6506 102.739 77.6871C102.741 77.7202 102.741 77.7536 102.742 77.7871C102.743 77.8242 102.744 77.8613 102.745 77.899C102.745 77.9334 102.744 77.9682 102.744 78.0031C102.743 78.0409 102.743 78.0787 102.741 78.1171C102.74 78.1526 102.738 78.1885 102.737 78.2245C102.735 78.2633 102.732 78.3023 102.73 78.3418C102.727 78.3782 102.724 78.4149 102.721 78.4518C102.717 78.4917 102.713 78.5318 102.709 78.5722C102.705 78.6096 102.701 78.6473 102.696 78.6852C102.691 78.7261 102.686 78.7673 102.68 78.8087C102.675 78.8471 102.669 78.8857 102.663 78.9245C102.657 78.9663 102.65 79.0084 102.643 79.0508C102.636 79.0899 102.629 79.1294 102.622 79.1691C102.614 79.2121 102.606 79.2552 102.597 79.2986C102.589 79.3388 102.581 79.3791 102.572 79.4196C102.563 79.4634 102.553 79.5074 102.543 79.5516C102.534 79.5926 102.524 79.6337 102.514 79.675C102.503 79.7199 102.492 79.7652 102.48 79.8105C102.47 79.8522 102.459 79.8938 102.448 79.9358C102.436 79.9817 102.423 80.0279 102.41 80.0744C102.398 80.1167 102.386 80.1591 102.373 80.2018C102.36 80.2485 102.346 80.2956 102.331 80.3428C102.318 80.386 102.305 80.4292 102.291 80.4728C102.276 80.5204 102.26 80.5684 102.244 80.6163C102.23 80.6603 102.216 80.7041 102.201 80.7483C102.184 80.7967 102.167 80.8454 102.15 80.8942C102.134 80.9391 102.118 80.9838 102.102 81.029C102.084 81.0779 102.066 81.1273 102.048 81.1766C102.031 81.2222 102.014 81.2678 101.996 81.3137C101.977 81.3637 101.957 81.4142 101.937 81.4646C101.919 81.5105 101.901 81.5563 101.882 81.6026C101.861 81.6538 101.84 81.7055 101.818 81.7572C101.799 81.8033 101.78 81.8493 101.761 81.8958C101.738 81.948 101.715 82.0008 101.692 82.0534C101.672 82.1 101.652 82.1462 101.631 82.193C101.607 82.2465 101.583 82.3005 101.558 82.3544C101.537 82.4009 101.516 82.4472 101.495 82.494C101.469 82.5492 101.442 82.605 101.416 82.6606C101.394 82.7066 101.373 82.7524 101.35 82.7986C101.323 82.8554 101.294 82.9129 101.266 82.9702C101.246 83.0105 101.227 83.0505 101.207 83.091C101.207 83.091 101.203 83.0977 101.202 83.101C101.092 83.3209 100.976 83.5434 100.855 83.7682C100.849 83.7796 100.842 83.7912 100.836 83.8026C100.72 84.0177 100.599 84.235 100.473 84.4543C100.467 84.4639 100.462 84.4733 100.457 84.4829C100.447 84.5002 100.436 84.5178 100.426 84.5352C100.331 84.6992 100.234 84.8642 100.133 85.0302C100.127 85.0411 100.12 85.0521 100.113 85.0629C100.015 85.226 99.9131 85.3901 99.8093 85.555C99.7995 85.5705 99.7905 85.5858 99.7807 85.6012C99.7754 85.6098 99.7696 85.6183 99.7642 85.6269C99.6748 85.7681 99.5834 85.91 99.4903 86.0524C99.4691 86.0848 99.4476 86.1173 99.4262 86.1497C99.3478 86.2688 99.2682 86.3883 99.1873 86.5082C99.1725 86.53 99.1586 86.5517 99.1437 86.5735C99.139 86.5805 99.1337 86.5877 99.1289 86.5947C98.9399 86.873 98.7443 87.1532 98.5422 87.435C98.5356 87.4441 98.5297 87.453 98.5231 87.4622C98.5146 87.474 98.5054 87.4861 98.4968 87.4978C98.3118 87.7549 98.1215 88.0131 97.9258 88.2724C97.919 88.2814 97.9127 88.2904 97.9059 88.2994C97.9018 88.3047 97.8976 88.3101 97.8935 88.3154C97.7001 88.5709 97.5017 88.8273 97.2984 89.0845C97.294 89.09 97.2899 89.0955 97.2855 89.1011C97.2772 89.1115 97.2684 89.122 97.2601 89.1324C97.0754 89.3654 96.8865 89.599 96.6936 89.8328C96.6842 89.8443 96.6754 89.8556 96.666 89.867C96.6546 89.8808 96.6424 89.8948 96.6309 89.9086C96.445 90.1333 96.2553 90.3583 96.0622 90.5834C96.0502 90.5973 96.039 90.611 96.0271 90.6249C96.017 90.6367 96.0062 90.6486 95.996 90.6604C95.802 90.8856 95.6043 91.1108 95.4033 91.3361C95.3916 91.3491 95.3806 91.3621 95.3689 91.3752C95.3617 91.3832 95.3541 91.3912 95.3469 91.3993C95.1378 91.6327 94.9251 91.8661 94.7087 92.0991C94.7018 92.1065 94.6953 92.1139 94.6885 92.1213C94.6854 92.1245 94.6823 92.1278 94.6792 92.131C94.4519 92.3753 94.2207 92.6193 93.9856 92.8628C93.9827 92.8658 93.98 92.8688 93.977 92.8718C93.9691 92.8799 93.961 92.8881 93.9531 92.8963C93.7481 93.1081 93.5405 93.3197 93.3297 93.5306C93.2969 93.5635 93.264 93.5963 93.2312 93.629C93.2187 93.6415 93.206 93.6534 93.1934 93.6658C92.9535 93.9043 92.7128 94.139 92.4716 94.3699C92.4589 94.3821 92.4462 94.395 92.4335 94.4072C92.4238 94.4164 92.4141 94.425 92.4044 94.4343C92.1195 94.7062 91.834 94.973 91.5481 95.2339C91.5417 95.2398 91.5353 95.246 91.5289 95.2519C91.5215 95.2588 91.5139 95.265 91.5064 95.2719C91.1414 95.6044 90.7761 95.9279 90.411 96.2421C90.4023 96.2496 90.3935 96.2578 90.3848 96.2654C90.3718 96.2766 90.3587 96.2872 90.3457 96.2983C90.1256 96.487 89.9057 96.6723 89.686 96.8541C89.6619 96.874 89.6379 96.8941 89.6138 96.914C89.3885 97.0996 89.1637 97.2816 88.9394 97.4598C88.9221 97.4736 88.9047 97.4876 88.8874 97.5013C88.6511 97.6885 88.4152 97.8716 88.1803 98.0503C88.176 98.0536 88.1716 98.057 88.1673 98.0603C87.9283 98.2419 87.6901 98.419 87.4528 98.5916C87.4407 98.6005 87.4287 98.609 87.4165 98.6178C87.1907 98.7817 86.9659 98.9416 86.7422 99.0972C86.7215 99.1116 86.7007 99.1258 86.68 99.1402C86.4644 99.2895 86.2499 99.4349 86.0367 99.5763C86.0118 99.5928 85.9872 99.609 85.9624 99.6253C85.7523 99.7639 85.5434 99.8985 85.3358 100.029C85.311 100.045 85.2862 100.06 85.2614 100.076C85.0528 100.206 84.8459 100.333 84.6404 100.455C84.6275 100.463 84.6144 100.471 84.6016 100.479C84.5875 100.487 84.5736 100.495 84.5596 100.503C84.4532 100.566 84.3473 100.628 84.2419 100.688C84.2249 100.698 84.2077 100.708 84.1908 100.718C84.0688 100.788 83.9477 100.856 83.827 100.922C83.7926 100.941 83.7584 100.96 83.7241 100.979C83.6366 101.026 83.5493 101.074 83.4626 101.12C83.4222 101.141 83.3821 101.163 83.3419 101.184C83.2578 101.228 83.1741 101.271 83.0907 101.314C83.0658 101.327 83.0407 101.34 83.016 101.353C83.0076 101.357 82.9997 101.361 82.9914 101.365C82.8101 101.457 82.6306 101.544 82.453 101.629C82.4316 101.639 82.4101 101.649 82.3887 101.659C82.2121 101.742 82.0375 101.821 81.8648 101.896C81.8518 101.902 81.8384 101.909 81.8254 101.914C81.8155 101.919 81.806 101.922 81.7962 101.926C81.6523 101.989 81.51 102.048 81.3691 102.105C81.3422 102.115 81.3155 102.126 81.2888 102.136C81.1453 102.193 81.003 102.248 80.8627 102.299C80.8594 102.3 80.856 102.302 80.8529 102.303C80.8419 102.307 80.8313 102.31 80.8203 102.314C80.7054 102.356 80.5918 102.395 80.4792 102.432C80.451 102.442 80.4229 102.451 80.3949 102.461C80.273 102.5 80.1524 102.538 80.0334 102.573C80.0274 102.575 80.0212 102.577 80.0153 102.579C79.9994 102.583 79.9842 102.587 79.9684 102.592C79.8741 102.619 79.7808 102.644 79.6885 102.669C79.66 102.676 79.6316 102.684 79.6033 102.691C79.4938 102.718 79.3853 102.744 79.2784 102.768C79.2757 102.768 79.2729 102.769 79.2703 102.77C79.2592 102.772 79.2486 102.774 79.2376 102.776C79.1472 102.796 79.0579 102.813 78.9696 102.829C78.9407 102.835 78.9119 102.84 78.8832 102.845C78.8006 102.859 78.7189 102.872 78.6382 102.883C78.624 102.885 78.6093 102.888 78.5951 102.89C78.5906 102.89 78.5862 102.891 78.5817 102.891C78.4869 102.904 78.3936 102.915 78.3016 102.923C78.2783 102.925 78.2556 102.927 78.2326 102.929C78.1617 102.935 78.0916 102.939 78.0224 102.943C78.0075 102.944 77.9918 102.945 77.9769 102.946C77.9651 102.946 77.9539 102.946 77.9422 102.946C77.8658 102.949 77.7904 102.951 77.7162 102.95C77.7045 102.95 77.6923 102.95 77.6807 102.95C77.5959 102.949 77.5128 102.946 77.431 102.941C77.4235 102.94 77.4156 102.94 77.4081 102.94C77.3932 102.939 77.3792 102.937 77.3644 102.936C77.3028 102.931 77.2422 102.925 77.1824 102.918C77.1589 102.915 77.1355 102.912 77.1124 102.909C77.0394 102.899 76.9675 102.887 76.8974 102.874C76.8931 102.873 76.8885 102.872 76.8842 102.871L76.8819 102.871C76.8063 102.856 76.7329 102.838 76.6607 102.818C76.6403 102.813 76.6203 102.806 76.6002 102.801C76.5454 102.785 76.4916 102.767 76.4389 102.748C76.4268 102.744 76.4139 102.741 76.4019 102.736C76.3959 102.734 76.3903 102.731 76.3843 102.729C76.3148 102.703 76.2469 102.675 76.1812 102.644C76.1696 102.638 76.1587 102.632 76.1474 102.627C76.0923 102.6 76.0387 102.571 75.9864 102.54C75.9771 102.535 75.967 102.531 75.9578 102.525C75.9505 102.521 75.944 102.515 75.9367 102.511C75.8727 102.472 75.8102 102.43 75.7506 102.386C75.7451 102.382 75.7399 102.377 75.7345 102.373C75.6798 102.331 75.6274 102.286 75.5767 102.24C75.5693 102.233 75.561 102.227 75.5535 102.22C75.5362 102.204 75.5191 102.187 75.5022 102.17L66.6304 93.3166C66.6544 93.3406 66.6799 93.363 66.7049 93.3859L66.7038 93.3861Z" fill="#6A7DA0"/>
<path d="M80.2059 80.425C87.5149 73.1111 91.3805 65.1228 88.8419 62.582C86.3029 60.0407 78.3209 63.9091 71.012 71.223C63.7043 78.5357 59.8383 86.5235 62.3773 89.0648C64.9159 91.6056 72.8983 87.7377 80.2059 80.425Z" fill="#E9F4F6"/>
<path d="M62.4518 89.134C62.5025 89.1805 62.5549 89.2251 62.6096 89.267C62.6151 89.2712 62.6202 89.2758 62.6257 89.28C62.6853 89.3247 62.7478 89.3659 62.8118 89.4052C62.8281 89.4153 62.8448 89.425 62.8615 89.4347C62.9137 89.4651 62.9672 89.4938 63.0222 89.5207C63.0337 89.5264 63.0449 89.5325 63.0565 89.538C63.1221 89.5689 63.19 89.5972 63.2594 89.6234C63.2774 89.6302 63.2959 89.6364 63.3141 89.6428C63.3668 89.6615 63.4206 89.6789 63.4754 89.6949C63.4955 89.7008 63.5155 89.7069 63.5359 89.7124C63.6081 89.732 63.6816 89.7501 63.7572 89.7653C63.7621 89.7663 63.7672 89.7669 63.7721 89.7679C63.8423 89.7817 63.9143 89.7932 63.9875 89.8033C64.0107 89.8065 64.0344 89.8092 64.0579 89.8121C64.1177 89.8192 64.1785 89.8252 64.2401 89.83C64.2621 89.8317 64.2838 89.8337 64.306 89.8351C64.3879 89.8403 64.471 89.8437 64.5559 89.8447C64.5679 89.8447 64.5803 89.8444 64.5923 89.8444C64.6663 89.8447 64.7413 89.8435 64.8175 89.8408C64.8441 89.8398 64.8709 89.8385 64.8977 89.8372C64.9669 89.8338 65.037 89.829 65.1079 89.8232C65.131 89.8213 65.1536 89.8198 65.1768 89.8176C65.2689 89.809 65.3623 89.7985 65.4573 89.7859C65.4757 89.7834 65.4945 89.7803 65.513 89.7776C65.5936 89.7663 65.6752 89.7534 65.7578 89.7393C65.7869 89.7343 65.816 89.7291 65.8454 89.7238C65.9335 89.7076 66.0225 89.69 66.1127 89.6708C66.1265 89.6678 66.1399 89.6654 66.1536 89.6623C66.2605 89.6389 66.3692 89.6128 66.4788 89.5851C66.5069 89.578 66.5353 89.5704 66.5637 89.5631C66.6557 89.539 66.7486 89.5135 66.8424 89.4864C66.8647 89.48 66.8867 89.474 66.909 89.4674C67.028 89.4324 67.1486 89.3947 67.2703 89.3549C67.2981 89.3459 67.326 89.3364 67.3539 89.3271C67.4666 89.2895 67.5804 89.2502 67.6954 89.2087C67.7096 89.2036 67.7236 89.1988 67.7379 89.1936C67.8779 89.1426 68.02 89.088 68.1633 89.0312C68.1904 89.0205 68.2175 89.0098 68.2446 88.9988C68.3855 88.9421 68.5279 88.8829 68.6716 88.8208C68.6943 88.811 68.7171 88.8009 68.7398 88.7909C68.9123 88.7156 69.0867 88.6368 69.2632 88.5539C69.2852 88.5435 69.3073 88.5329 69.3293 88.5225C69.5065 88.4385 69.6856 88.351 69.8664 88.2595C69.8999 88.2426 69.9336 88.2252 69.9672 88.2079C70.0497 88.1657 70.1326 88.1228 70.2158 88.079C70.2569 88.0574 70.298 88.0357 70.3393 88.0136C70.425 87.968 70.511 87.9214 70.5973 87.8741C70.6325 87.8548 70.6677 87.8359 70.7031 87.8164C70.8232 87.75 70.9439 87.6824 71.0653 87.613C71.0845 87.602 71.1039 87.5905 71.1231 87.5795C71.2262 87.5202 71.3298 87.4599 71.4338 87.3984C71.4614 87.3821 71.4893 87.3653 71.517 87.3488C71.7219 87.2269 71.9283 87.101 72.1361 86.9709C72.1615 86.955 72.1869 86.9392 72.2122 86.9232C72.4194 86.7927 72.628 86.6583 72.8378 86.52C72.8626 86.5036 72.8875 86.4873 72.9123 86.4708C73.1257 86.3294 73.3404 86.1838 73.5561 86.0344C73.5766 86.0202 73.597 86.0062 73.6175 85.9919C73.8415 85.8362 74.0666 85.6762 74.2926 85.512C74.3045 85.5033 74.3164 85.495 74.3282 85.4863C74.5654 85.3136 74.8036 85.1366 75.0427 84.9549C75.0471 84.9516 75.0515 84.9481 75.0559 84.9448C75.291 84.7661 75.5267 84.583 75.7631 84.3958C75.7802 84.3822 75.7974 84.3683 75.8145 84.3548C76.039 84.1764 76.2641 83.9943 76.4895 83.8085C76.5135 83.7887 76.5374 83.7687 76.5615 83.7489C76.7811 83.567 77.0012 83.3817 77.2213 83.193C77.2431 83.1743 77.2649 83.1556 77.2866 83.1368C77.6519 82.8225 78.0175 82.4988 78.3827 82.166C78.3962 82.1537 78.4096 82.1416 78.4231 82.1293C78.7091 81.8681 78.9948 81.6011 79.2801 81.329C79.3025 81.3076 79.3249 81.2861 79.3473 81.2647C79.5888 81.0334 79.8298 80.7984 80.0701 80.5595C80.1152 80.5146 80.1604 80.4703 80.2055 80.4252C80.4162 80.2143 80.6239 80.0027 80.8289 79.7909C80.8396 79.7798 80.8506 79.7687 80.8613 79.7575C81.0965 79.514 81.3277 79.2699 81.555 79.0256C81.5648 79.0151 81.5744 79.0045 81.5843 78.994C81.8008 78.7608 82.0136 78.5275 82.2228 78.2939C82.2417 78.2728 82.2603 78.2518 82.2791 78.2308C82.48 78.0056 82.6777 77.7805 82.8716 77.5554C82.8939 77.5294 82.9161 77.5034 82.9385 77.4775C83.1315 77.2526 83.321 77.0278 83.5068 76.8032C83.5277 76.7779 83.5487 76.7527 83.5696 76.7274C83.7623 76.4937 83.9511 76.2603 84.1358 76.0274C84.1485 76.0113 84.1615 75.9951 84.1743 75.979C84.3778 75.7217 84.5765 75.4651 84.7699 75.2094C84.7803 75.1956 84.7905 75.1819 84.8009 75.168C84.9967 74.9087 85.187 74.6503 85.3721 74.3933C85.3875 74.3718 85.4031 74.3503 85.4184 74.3289C85.6202 74.0476 85.8157 73.7677 86.0043 73.4898C86.0243 73.4605 86.0439 73.4311 86.0636 73.4018C86.1441 73.2826 86.2232 73.1638 86.3012 73.0454C86.3229 73.0123 86.3449 72.9792 86.3665 72.9463C86.4592 72.8044 86.5502 72.6631 86.6393 72.5225C86.6551 72.4977 86.6703 72.473 86.6859 72.4482C86.7898 72.2833 86.8915 72.119 86.9903 71.956C86.9964 71.9459 87.0028 71.9357 87.0088 71.9256C87.1096 71.7589 87.2069 71.5934 87.3022 71.4287C87.3174 71.4024 87.3329 71.376 87.348 71.3497C87.4743 71.1298 87.596 70.9119 87.7125 70.6963C87.7184 70.6854 87.7245 70.6743 87.7303 70.6635C87.8515 70.4385 87.9672 70.2158 88.0774 69.9957C88.0993 69.9519 88.1204 69.9085 88.1419 69.8649C88.1702 69.8076 88.1987 69.7502 88.2262 69.6933C88.2485 69.6471 88.2698 69.6013 88.2917 69.5553C88.3181 69.4997 88.3447 69.4439 88.3704 69.3886C88.3921 69.3418 88.4129 69.2956 88.4341 69.249C88.4586 69.1951 88.4834 69.1411 88.5073 69.0876C88.528 69.0408 88.548 68.9945 88.5682 68.948C88.5912 68.8953 88.6143 68.8426 88.6365 68.7903C88.6563 68.7437 88.6753 68.6976 88.6945 68.6514C88.7158 68.6 88.7373 68.5485 88.758 68.4975C88.7768 68.4508 88.795 68.4046 88.8133 68.3582C88.833 68.3083 88.8528 68.2582 88.8719 68.2086C88.8895 68.1627 88.9063 68.1174 88.9233 68.0718C88.9419 68.0221 88.9605 67.9724 88.9784 67.9231C88.9946 67.8782 89.0102 67.8337 89.0259 67.7892C89.0431 67.7404 89.0602 67.6916 89.0766 67.6432C89.0916 67.5991 89.1059 67.5553 89.1203 67.5114C89.1362 67.463 89.1521 67.4147 89.1672 67.3668C89.1808 67.3238 89.1938 67.2811 89.2068 67.2385C89.2213 67.1909 89.2357 67.1433 89.2495 67.0961C89.262 67.0536 89.2739 67.0112 89.2857 66.9689C89.2987 66.9226 89.3115 66.8763 89.3237 66.8305C89.3349 66.7884 89.3456 66.7467 89.3563 66.7051C89.3678 66.6598 89.3791 66.6146 89.3899 66.5698C89.3999 66.5284 89.4094 66.4873 89.4188 66.4463C89.4288 66.402 89.4386 66.3579 89.448 66.3141C89.4567 66.2735 89.4649 66.2332 89.4729 66.193C89.4816 66.1496 89.4899 66.1065 89.4978 66.0636C89.505 66.0241 89.512 65.9849 89.5186 65.9458C89.5258 65.9032 89.5327 65.8607 89.5392 65.8186C89.5451 65.7799 89.5508 65.7415 89.5561 65.7033C89.5618 65.6619 89.5671 65.6209 89.5721 65.5801C89.5767 65.542 89.5812 65.5041 89.5851 65.4665C89.5894 65.4263 89.5931 65.3863 89.5966 65.3465C89.5999 65.3096 89.6029 65.2728 89.6055 65.2364C89.6083 65.1969 89.6105 65.1579 89.6126 65.119C89.6145 65.083 89.6162 65.0471 89.6174 65.0116C89.6187 64.9732 89.6193 64.9353 89.6198 64.8976C89.6203 64.8627 89.6207 64.8278 89.6205 64.7934C89.6202 64.756 89.6194 64.7192 89.6184 64.6825C89.6175 64.6486 89.6166 64.6146 89.615 64.5811C89.6133 64.545 89.6107 64.5095 89.6082 64.474C89.6059 64.441 89.6036 64.408 89.6006 64.3756C89.5973 64.3404 89.5932 64.3057 89.5891 64.2711C89.5854 64.2396 89.5819 64.2081 89.5775 64.1771C89.5726 64.1426 89.5668 64.109 89.5611 64.0751C89.556 64.0448 89.5511 64.0144 89.5453 63.9847C89.5388 63.9516 89.5313 63.9192 89.5241 63.8866C89.5176 63.8575 89.5114 63.828 89.5041 63.7994C89.496 63.7673 89.4869 63.736 89.4779 63.7045C89.47 63.6766 89.4624 63.6485 89.4538 63.621C89.444 63.5898 89.433 63.5593 89.4223 63.5288C89.4131 63.5026 89.4043 63.4759 89.3945 63.4502C89.3828 63.4196 89.3699 63.3901 89.3573 63.3602C89.3469 63.3355 89.3369 63.3104 89.3259 63.2863C89.3125 63.2569 89.2977 63.2286 89.2833 63.2C89.2716 63.1766 89.2603 63.1527 89.2479 63.1298C89.2323 63.1012 89.2153 63.0736 89.1988 63.0458C89.1861 63.0243 89.174 63.0023 89.1606 62.9813C89.1424 62.9527 89.1226 62.9252 89.1032 62.8973C89.09 62.8784 89.0776 62.8589 89.0639 62.8404C89.0414 62.8101 89.0174 62.7812 88.9935 62.7522C88.9814 62.7374 88.9702 62.722 88.9576 62.7074C88.9206 62.6645 88.882 62.6227 88.8418 62.5825L93.1029 66.8255C93.1431 66.8658 93.1817 66.9075 93.2187 66.9504C93.2312 66.9649 93.2425 66.9804 93.2546 66.9951C93.2784 67.0242 93.3025 67.0531 93.325 67.0834C93.3387 67.1019 93.3512 67.1215 93.3644 67.1404C93.3837 67.1681 93.4034 67.1955 93.4217 67.2242C93.4351 67.2453 93.4472 67.2674 93.46 67.289C93.4765 67.3167 93.4934 67.3442 93.5089 67.3728C93.5213 67.3956 93.5325 67.4195 93.5443 67.4429C93.5587 67.4715 93.5734 67.4998 93.5869 67.5292C93.598 67.5533 93.6079 67.5785 93.6184 67.6031C93.631 67.6329 93.644 67.6625 93.6556 67.693C93.6655 67.7188 93.6742 67.7453 93.6834 67.7716C93.6941 67.8022 93.7051 67.8326 93.715 67.8639C93.7236 67.8912 93.7311 67.9193 93.739 67.9471C93.7479 67.9787 93.7572 68.0101 93.7653 68.0424C93.7725 68.0709 93.7787 68.1002 93.7853 68.1292C93.7926 68.1618 93.8 68.1943 93.8065 68.2275C93.8123 68.2574 93.8172 68.2879 93.8224 68.3183C93.828 68.3519 93.8338 68.3855 93.8387 68.4198C93.8431 68.4508 93.8467 68.4824 93.8504 68.514C93.8545 68.5488 93.8586 68.5834 93.8619 68.6188C93.8649 68.6509 93.8672 68.6835 93.8695 68.7161C93.8721 68.752 93.8746 68.7881 93.8763 68.8246C93.8779 68.8577 93.8788 68.8912 93.8797 68.9247C93.8807 68.9617 93.8817 68.9989 93.8819 69.0365C93.8821 69.0709 93.8816 69.1057 93.8811 69.1406C93.8806 69.1784 93.8799 69.2162 93.8787 69.2546C93.8775 69.2901 93.8757 69.326 93.8739 69.362C93.8719 69.4009 93.8696 69.4399 93.8669 69.4793C93.8643 69.5157 93.8612 69.5525 93.8579 69.5893C93.8544 69.6292 93.8507 69.6693 93.8464 69.7097C93.8425 69.7471 93.8381 69.7848 93.8335 69.8227C93.8285 69.8636 93.8232 69.9048 93.8175 69.9462C93.8122 69.9846 93.8065 70.0232 93.8005 70.062C93.7941 70.1038 93.7873 70.1459 93.7801 70.1883C93.7734 70.2275 93.7664 70.2669 93.7591 70.3066C93.7513 70.3496 93.7429 70.3927 93.7343 70.4361C93.7263 70.4762 93.7181 70.5166 93.7094 70.5571C93.7 70.6009 93.6902 70.6449 93.6802 70.6891C93.6708 70.7301 93.6614 70.7712 93.6514 70.8125C93.6406 70.8574 93.6293 70.9027 93.6177 70.948C93.6071 70.9896 93.5964 71.0313 93.5852 71.0733C93.573 71.1192 93.5601 71.1654 93.5471 71.2119C93.5352 71.2542 93.5233 71.2966 93.5109 71.3393C93.4972 71.386 93.483 71.4332 93.4685 71.4803C93.4554 71.5235 93.4421 71.5667 93.4284 71.6103C93.4134 71.6579 93.3976 71.7058 93.3818 71.7538C93.3674 71.7978 93.3531 71.8416 93.338 71.8858C93.3215 71.9342 93.3044 71.9829 93.2873 72.0317C93.2716 72.0766 93.2559 72.1214 93.2395 72.1666C93.2218 72.2155 93.2033 72.2649 93.185 72.3142C93.168 72.3598 93.1511 72.4054 93.1334 72.4513C93.1142 72.5013 93.0942 72.5518 93.0743 72.6022C93.0561 72.6481 93.0382 72.6939 93.0195 72.7401C92.9988 72.7914 92.9772 72.843 92.9558 72.8947C92.9365 72.9408 92.9177 72.9868 92.898 73.0333C92.8757 73.0855 92.8526 73.1383 92.8297 73.1909C92.8095 73.2374 92.7895 73.2837 92.7687 73.3305C92.7449 73.384 92.7201 73.438 92.6956 73.4919C92.6745 73.5384 92.6537 73.5847 92.632 73.6315C92.6063 73.6868 92.5796 73.7426 92.5532 73.7982C92.5314 73.8442 92.51 73.89 92.4877 73.9362C92.4602 73.9931 92.4318 74.0505 92.4035 74.1078C92.3836 74.1481 92.3645 74.1881 92.3442 74.2287C92.3425 74.232 92.3406 74.2354 92.339 74.2387C92.2289 74.4586 92.1133 74.6811 91.9921 74.9059C91.986 74.9174 91.9796 74.9289 91.9734 74.9403C91.8572 75.1554 91.736 75.3728 91.6099 75.592C91.6043 75.6016 91.5994 75.611 91.5939 75.6206C91.584 75.6379 91.5731 75.6555 91.5631 75.6728C91.4681 75.8368 91.3712 76.0018 91.2708 76.1678C91.2643 76.1787 91.2575 76.1897 91.2508 76.2005C91.1521 76.3636 91.0504 76.5277 90.9465 76.6926C90.9367 76.7081 90.9278 76.7234 90.9179 76.7388C90.9125 76.7474 90.9068 76.7559 90.9014 76.7645C90.812 76.9057 90.7206 77.0476 90.6275 77.19C90.6063 77.2224 90.5848 77.2549 90.5634 77.2873C90.485 77.4064 90.4054 77.5259 90.3246 77.6458C90.3098 77.6676 90.2958 77.6893 90.281 77.7111C90.2763 77.7181 90.271 77.7253 90.2662 77.7323C90.0772 78.0106 89.8815 78.2908 89.6795 78.5726C89.673 78.5817 89.6671 78.5906 89.6605 78.5998C89.652 78.6116 89.6428 78.6237 89.6342 78.6354C89.4492 78.8925 89.2589 79.1506 89.0632 79.41C89.0564 79.419 89.0501 79.4279 89.0433 79.437C89.0392 79.4423 89.0349 79.4477 89.0309 79.453C88.8375 79.7085 88.6391 79.9649 88.4357 80.2221C88.4313 80.2276 88.4272 80.2331 88.4229 80.2387C88.4146 80.2491 88.4058 80.2596 88.3974 80.27C88.2127 80.503 88.0238 80.7365 87.831 80.9704C87.8216 80.9819 87.8128 80.9932 87.8034 81.0046C87.792 81.0184 87.7798 81.0324 87.7683 81.0462C87.5823 81.2709 87.3927 81.4959 87.1996 81.721C87.1876 81.7349 87.1764 81.7486 87.1645 81.7625C87.1544 81.7743 87.1436 81.7862 87.1334 81.798C86.9394 82.0232 86.7418 82.2484 86.5407 82.4737C86.5291 82.4868 86.518 82.4998 86.5063 82.5128C86.4991 82.5208 86.4915 82.5288 86.4843 82.5369C86.2752 82.7703 86.0625 83.0037 85.8461 83.2367C85.8392 83.2441 85.8327 83.2515 85.8259 83.2589C85.8228 83.2621 85.8197 83.2654 85.8166 83.2686C85.5893 83.513 85.3581 83.757 85.1229 84.0005C85.1201 84.0035 85.1173 84.0065 85.1144 84.0095C85.1065 84.0176 85.0984 84.0258 85.0905 84.034C84.8855 84.2458 84.6779 84.4574 84.4671 84.6683C84.4342 84.7011 84.4014 84.734 84.3685 84.7667C84.356 84.7792 84.3433 84.7911 84.3307 84.8035C84.0908 85.0421 83.8501 85.2767 83.6089 85.5077C83.5962 85.5199 83.5835 85.5328 83.5707 85.545C83.561 85.5541 83.5513 85.5628 83.5417 85.5721C83.2568 85.844 82.9712 86.1108 82.6854 86.3717C82.679 86.3776 82.6726 86.3838 82.6661 86.3897C82.6587 86.3966 82.6511 86.4029 82.6436 86.4097C82.2786 86.7422 81.9133 87.0657 81.5482 87.3799C81.5395 87.3874 81.5307 87.3956 81.5219 87.4032C81.5089 87.4144 81.4959 87.4249 81.4828 87.4361C81.2627 87.6248 81.0428 87.8101 80.8231 87.9919C80.799 88.0118 80.775 88.0319 80.7509 88.0518C80.5257 88.2375 80.3008 88.4195 80.0765 88.5976C80.0592 88.6114 80.0418 88.6254 80.0244 88.6391C79.7881 88.8263 79.5523 89.0094 79.3173 89.1881C79.313 89.1914 79.3086 89.1948 79.3043 89.1981C79.0653 89.3797 78.8271 89.5568 78.5898 89.7294C78.5777 89.7383 78.5657 89.7468 78.5535 89.7556C78.3277 89.9195 78.1029 90.0794 77.8791 90.235C77.8584 90.2494 77.8376 90.2636 77.8169 90.278C77.6013 90.4273 77.3868 90.5727 77.1735 90.7141C77.1487 90.7306 77.124 90.7468 77.0992 90.7631C76.889 90.9017 76.6801 91.0363 76.4726 91.1669C76.4478 91.1826 76.423 91.1982 76.3982 91.2137C76.1896 91.3441 75.9827 91.4705 75.7772 91.5927C75.7643 91.6004 75.7512 91.6088 75.7384 91.6164C75.7243 91.6247 75.7104 91.6326 75.6964 91.6409C75.59 91.7037 75.4841 91.7654 75.3787 91.8261C75.3617 91.8358 75.3445 91.846 75.3276 91.8557C75.2056 91.9254 75.0845 91.9934 74.9637 92.0601C74.9293 92.0792 74.8951 92.0975 74.8608 92.1163C74.7733 92.1642 74.686 92.2114 74.5993 92.2577C74.5589 92.2791 74.5188 92.3004 74.4786 92.3215C74.3945 92.3658 74.3108 92.4092 74.2274 92.4519C74.2026 92.4645 74.1774 92.4781 74.1527 92.4907C74.1443 92.4949 74.1364 92.4985 74.1281 92.5027C73.9468 92.5945 73.7674 92.6822 73.5897 92.7664C73.5683 92.7766 73.5468 92.7869 73.5254 92.797C73.3488 92.88 73.1743 92.9589 73.0016 93.0342C72.9886 93.0399 72.9752 93.0464 72.9622 93.052C72.9523 93.0563 72.9428 93.0599 72.933 93.0642C72.7891 93.1263 72.6468 93.1856 72.5059 93.2423C72.479 93.2531 72.4523 93.2636 72.4255 93.2742C72.282 93.331 72.1397 93.3857 71.9994 93.4369C71.9961 93.438 71.9927 93.4395 71.9896 93.4407C71.9786 93.4447 71.968 93.448 71.957 93.452C71.8421 93.4935 71.7285 93.5327 71.6159 93.5703C71.5877 93.5797 71.5596 93.5893 71.5316 93.5984C71.4097 93.6381 71.2892 93.6759 71.1702 93.7108C71.1642 93.7126 71.158 93.7147 71.1521 93.7165C71.1362 93.7211 71.121 93.7248 71.1052 93.7294C71.0109 93.7566 70.9176 93.7823 70.8252 93.8064C70.7968 93.8138 70.7683 93.8213 70.74 93.8285C70.6305 93.8562 70.522 93.8824 70.4152 93.9056C70.4152 93.9056 70.4097 93.907 70.4071 93.9075C70.396 93.9099 70.3855 93.9117 70.3744 93.914C70.284 93.9333 70.1947 93.9509 70.1063 93.9671C70.0774 93.9724 70.0487 93.9775 70.0199 93.9824C69.9373 93.9967 69.8556 94.0095 69.775 94.0209C69.7608 94.0229 69.746 94.0257 69.7319 94.0277C69.7274 94.0283 69.723 94.0286 69.7185 94.0292C69.6237 94.0418 69.5304 94.0524 69.4384 94.061C69.4151 94.0631 69.3924 94.0647 69.3694 94.0666C69.2985 94.0725 69.2284 94.0772 69.1592 94.0806C69.1443 94.0814 69.1286 94.0831 69.1137 94.0837C69.1019 94.0842 69.0907 94.0838 69.079 94.0843C69.0026 94.0871 68.9272 94.0884 68.853 94.088C68.8413 94.088 68.8291 94.0883 68.8175 94.0882C68.7327 94.0872 68.6496 94.0838 68.5678 94.0787C68.5603 94.0782 68.5524 94.0783 68.5449 94.0778C68.53 94.0769 68.5159 94.0747 68.5012 94.0735C68.4396 94.0687 68.3789 94.0628 68.3192 94.0557C68.2957 94.0528 68.2723 94.0501 68.2491 94.0469C68.1762 94.0369 68.1043 94.0253 68.0341 94.0115C68.0297 94.0107 68.0252 94.0102 68.0209 94.0093L68.0186 94.0087C67.943 93.9936 67.8696 93.9754 67.7974 93.9559C67.777 93.9504 67.757 93.9443 67.7369 93.9384C67.6821 93.9224 67.6283 93.905 67.5756 93.8863C67.5635 93.882 67.5506 93.8787 67.5386 93.8743C67.5325 93.8721 67.527 93.8691 67.521 93.8669C67.4515 93.8407 67.3836 93.8124 67.3179 93.7815C67.3063 93.776 67.2954 93.7699 67.2841 93.7644C67.229 93.7375 67.1754 93.7086 67.1231 93.6783C67.1138 93.6729 67.1037 93.6686 67.0945 93.663C67.0872 93.6587 67.0807 93.6533 67.0734 93.6488C67.0094 93.6095 66.9469 93.5683 66.8873 93.5236C66.8818 93.5195 66.8766 93.5148 66.8712 93.5106C66.8165 93.4687 66.7641 93.4241 66.7134 93.3776C66.706 93.3708 66.6977 93.3651 66.6902 93.3581C66.6729 93.3418 66.6558 93.3252 66.6389 93.3083L62.3779 89.0653C62.4019 89.0893 62.4268 89.1111 62.4518 89.134Z" fill="#8699B7"/>
<path d="M69.0029 133.596L21.764 180.834C20.9287 181.67 20.9287 183.024 21.764 183.859L49.2493 211.345C50.0846 212.18 51.439 212.18 52.2744 211.345L99.5133 164.106C100.349 163.271 100.349 161.916 99.5133 161.081L72.028 133.596C71.1926 132.76 69.8382 132.76 69.0029 133.596Z" fill="#258DE2"/>
<path d="M182.184 181.968C202.93 161.221 215.655 140.31 210.606 135.26C205.556 130.211 184.645 142.936 163.899 163.682C143.152 184.428 130.428 205.34 135.477 210.389C140.526 215.439 161.438 202.714 182.184 181.968Z" fill="#404656"/>
<path d="M197.46 197.676C197.75 197.386 197.938 196.993 197.964 196.552C198.019 195.597 197.291 194.778 196.336 194.723L139.97 191.434C139.016 191.379 138.196 192.108 138.14 193.062C138.085 194.017 138.814 194.837 139.768 194.892L196.134 198.18C196.648 198.21 197.122 198.013 197.46 197.676Z" fill="url(#paint0_linear_4056_13393)"/>
<path d="M197.459 197.677C197.797 197.339 197.994 196.864 197.964 196.35L194.654 139.827C194.598 138.872 193.779 138.143 192.824 138.199C191.869 138.255 191.14 139.075 191.196 140.029L194.506 196.553C194.562 197.507 195.381 198.237 196.336 198.181C196.777 198.154 197.17 197.966 197.459 197.677Z" fill="url(#paint1_linear_4056_13393)"/>
<path d="M197.46 197.676C198.136 197 198.136 195.903 197.46 195.227L164.907 162.674C164.23 161.997 163.134 161.997 162.457 162.674C161.781 163.35 161.781 164.447 162.457 165.123L195.01 197.676C195.687 198.353 196.783 198.353 197.46 197.676Z" fill="url(#paint2_linear_4056_13393)"/>
<path d="M198.094 198.299C200.523 195.871 201.662 193.072 200.638 192.049C199.615 191.025 196.816 192.164 194.388 194.593C191.959 197.021 190.82 199.82 191.844 200.843C192.867 201.867 195.666 200.728 198.094 198.299Z" fill="#384344"/>
<path d="M200.275 200.486C198.889 201.873 198.156 203.388 198.637 203.87C199.119 204.352 200.633 203.618 202.019 202.231C203.404 200.845 204.138 199.33 203.656 198.848C203.175 198.366 201.661 199.1 200.275 200.486Z" fill="#86A7B5"/>
<path d="M203.642 198.835C203.632 198.826 203.622 198.817 203.612 198.81C203.612 198.81 203.61 198.808 203.609 198.807C203.598 198.799 203.586 198.791 203.574 198.783C203.571 198.781 203.567 198.78 203.564 198.778C203.554 198.772 203.544 198.767 203.534 198.761C203.534 198.761 203.529 198.759 203.527 198.758C203.515 198.752 203.502 198.747 203.489 198.742C203.485 198.741 203.482 198.74 203.478 198.738C203.468 198.735 203.458 198.731 203.448 198.728C203.444 198.727 203.44 198.726 203.436 198.725C203.423 198.721 203.409 198.718 203.394 198.715C203.394 198.715 203.392 198.715 203.391 198.715C203.378 198.712 203.364 198.71 203.351 198.708C203.346 198.707 203.342 198.707 203.337 198.706C203.326 198.705 203.314 198.704 203.303 198.703C203.299 198.703 203.294 198.702 203.29 198.702C203.275 198.701 203.259 198.7 203.243 198.7C203.243 198.7 203.238 198.7 203.236 198.7C203.222 198.7 203.208 198.7 203.193 198.701C203.188 198.701 203.183 198.701 203.178 198.701C203.165 198.702 203.152 198.703 203.138 198.704C203.134 198.704 203.129 198.705 203.125 198.705C203.108 198.707 203.09 198.709 203.072 198.711C203.068 198.712 203.065 198.712 203.061 198.713C203.046 198.715 203.03 198.717 203.015 198.72C203.009 198.721 203.004 198.722 202.998 198.723C202.981 198.726 202.965 198.729 202.947 198.733C202.945 198.734 202.942 198.734 202.94 198.735C202.919 198.739 202.899 198.744 202.878 198.749C202.873 198.751 202.867 198.752 202.862 198.753C202.844 198.758 202.827 198.763 202.809 198.768C202.805 198.769 202.801 198.77 202.796 198.771C202.774 198.778 202.751 198.785 202.728 198.793C202.723 198.794 202.717 198.796 202.712 198.798C202.691 198.805 202.669 198.813 202.647 198.82C202.644 198.821 202.642 198.822 202.639 198.823C202.613 198.833 202.586 198.843 202.558 198.854C202.553 198.856 202.548 198.858 202.543 198.86C202.516 198.871 202.489 198.882 202.462 198.894C202.458 198.896 202.453 198.898 202.449 198.9C202.416 198.914 202.383 198.929 202.35 198.945C202.346 198.947 202.342 198.949 202.337 198.951C202.304 198.966 202.27 198.983 202.236 199C202.229 199.004 202.223 199.007 202.216 199.01C202.201 199.018 202.185 199.026 202.169 199.035C202.162 199.039 202.154 199.043 202.146 199.047C202.13 199.056 202.113 199.065 202.097 199.074C202.09 199.077 202.084 199.081 202.077 199.085C202.054 199.097 202.031 199.11 202.008 199.123C202.005 199.125 202.001 199.127 201.997 199.129C201.978 199.141 201.958 199.152 201.938 199.164C201.933 199.167 201.928 199.17 201.923 199.173C201.884 199.196 201.845 199.22 201.805 199.245L201.791 199.254C201.751 199.279 201.712 199.304 201.672 199.33C201.667 199.333 201.663 199.337 201.658 199.34C201.618 199.366 201.577 199.394 201.536 199.422C201.532 199.425 201.528 199.428 201.524 199.431C201.482 199.46 201.439 199.49 201.396 199.522L201.39 199.526C201.345 199.559 201.299 199.593 201.254 199.627L201.252 199.629C201.207 199.663 201.162 199.698 201.117 199.733C201.114 199.736 201.111 199.738 201.108 199.741C201.065 199.775 201.022 199.809 200.98 199.845C200.975 199.848 200.971 199.852 200.966 199.856C200.924 199.89 200.883 199.926 200.841 199.961C200.837 199.965 200.833 199.968 200.829 199.972C200.759 200.032 200.69 200.093 200.621 200.156L200.613 200.163C200.559 200.213 200.505 200.263 200.451 200.315C200.446 200.319 200.442 200.323 200.438 200.327C200.392 200.371 200.346 200.416 200.301 200.461C200.292 200.469 200.284 200.478 200.275 200.486C200.235 200.526 200.196 200.566 200.157 200.607C200.155 200.609 200.153 200.611 200.151 200.613C200.106 200.659 200.062 200.705 200.019 200.752C200.017 200.754 200.015 200.756 200.014 200.758C199.973 200.802 199.932 200.846 199.892 200.891C199.889 200.895 199.885 200.899 199.882 200.903C199.844 200.945 199.806 200.988 199.769 201.031L199.757 201.045C199.72 201.088 199.684 201.131 199.649 201.173C199.645 201.178 199.641 201.183 199.637 201.188C199.6 201.232 199.565 201.276 199.53 201.32C199.527 201.323 199.525 201.327 199.522 201.33C199.484 201.378 199.446 201.427 199.409 201.476C199.407 201.478 199.405 201.481 199.403 201.483C199.366 201.533 199.33 201.582 199.295 201.63C199.292 201.634 199.289 201.638 199.286 201.643C199.248 201.696 199.211 201.749 199.175 201.802C199.171 201.807 199.168 201.813 199.164 201.818C199.149 201.841 199.134 201.863 199.119 201.886C199.115 201.892 199.11 201.898 199.106 201.905C199.089 201.932 199.072 201.958 199.055 201.985C199.052 201.99 199.049 201.995 199.046 201.999C199.026 202.031 199.007 202.062 198.988 202.093C198.988 202.093 198.986 202.096 198.985 202.098C198.966 202.13 198.947 202.161 198.929 202.193C198.926 202.198 198.923 202.203 198.92 202.208C198.896 202.249 198.873 202.291 198.851 202.332C198.85 202.334 198.849 202.336 198.848 202.338C198.825 202.38 198.803 202.423 198.782 202.464C198.778 202.473 198.774 202.481 198.77 202.489C198.765 202.5 198.759 202.511 198.754 202.522C198.75 202.531 198.746 202.539 198.741 202.548C198.736 202.559 198.731 202.569 198.727 202.58C198.722 202.588 198.718 202.597 198.714 202.606C198.71 202.616 198.705 202.627 198.701 202.637C198.697 202.646 198.693 202.654 198.689 202.663C198.685 202.673 198.68 202.683 198.676 202.693C198.672 202.702 198.669 202.711 198.665 202.719C198.661 202.729 198.657 202.739 198.653 202.749C198.649 202.757 198.646 202.766 198.642 202.775C198.639 202.784 198.635 202.794 198.631 202.803C198.628 202.812 198.625 202.821 198.621 202.829C198.618 202.839 198.614 202.848 198.611 202.857C198.608 202.866 198.605 202.874 198.602 202.883C198.599 202.892 198.596 202.901 198.592 202.911C198.59 202.919 198.587 202.927 198.584 202.936C198.581 202.945 198.578 202.954 198.575 202.963C198.573 202.971 198.57 202.979 198.568 202.987C198.565 202.996 198.562 203.005 198.56 203.014C198.557 203.022 198.555 203.03 198.553 203.038C198.55 203.047 198.548 203.056 198.546 203.065C198.543 203.073 198.541 203.081 198.539 203.088C198.537 203.097 198.535 203.106 198.533 203.114C198.531 203.122 198.529 203.13 198.527 203.138C198.526 203.146 198.524 203.154 198.522 203.163C198.52 203.17 198.519 203.178 198.517 203.186C198.516 203.194 198.514 203.202 198.513 203.21C198.511 203.218 198.51 203.225 198.509 203.232C198.507 203.241 198.506 203.249 198.505 203.257C198.504 203.264 198.503 203.271 198.502 203.278C198.5 203.286 198.499 203.294 198.499 203.302C198.498 203.309 198.497 203.316 198.496 203.323C198.495 203.331 198.495 203.339 198.494 203.346C198.493 203.353 198.493 203.36 198.492 203.367C198.492 203.374 198.491 203.382 198.491 203.389C198.49 203.396 198.49 203.403 198.49 203.41C198.49 203.417 198.49 203.424 198.489 203.431C198.489 203.438 198.489 203.444 198.489 203.451C198.489 203.458 198.489 203.465 198.49 203.472C198.49 203.478 198.49 203.485 198.49 203.491C198.491 203.498 198.491 203.505 198.492 203.512C198.492 203.518 198.492 203.524 198.493 203.53C198.494 203.537 198.494 203.543 198.495 203.55C198.496 203.556 198.497 203.562 198.497 203.568C198.498 203.574 198.499 203.581 198.501 203.587C198.502 203.593 198.502 203.599 198.504 203.604C198.505 203.611 198.506 203.617 198.508 203.623C198.509 203.628 198.51 203.634 198.511 203.639C198.513 203.646 198.515 203.651 198.516 203.657C198.518 203.663 198.519 203.668 198.521 203.673C198.523 203.679 198.525 203.685 198.527 203.691C198.529 203.696 198.53 203.701 198.532 203.706C198.534 203.712 198.537 203.717 198.539 203.723C198.541 203.727 198.543 203.732 198.545 203.737C198.548 203.742 198.551 203.748 198.553 203.753C198.556 203.757 198.558 203.762 198.56 203.766C198.563 203.772 198.566 203.777 198.569 203.782C198.572 203.786 198.574 203.79 198.577 203.795C198.58 203.8 198.584 203.805 198.588 203.81C198.59 203.814 198.592 203.818 198.595 203.821C198.599 203.827 198.604 203.832 198.608 203.838C198.611 203.841 198.613 203.844 198.615 203.846C198.622 203.855 198.629 203.862 198.637 203.87L194.598 199.834C194.59 199.827 194.583 199.819 194.576 199.811C194.574 199.808 194.571 199.805 194.569 199.802C194.565 199.797 194.56 199.791 194.556 199.785C194.553 199.782 194.551 199.778 194.548 199.775C194.545 199.769 194.541 199.764 194.538 199.759C194.535 199.755 194.533 199.751 194.53 199.746C194.527 199.741 194.524 199.736 194.521 199.731C194.519 199.726 194.516 199.722 194.514 199.717C194.512 199.712 194.509 199.706 194.506 199.701C194.504 199.696 194.502 199.692 194.5 199.687C194.498 199.681 194.495 199.676 194.493 199.67C194.491 199.665 194.49 199.66 194.488 199.655C194.486 199.649 194.484 199.643 194.482 199.638C194.48 199.632 194.479 199.627 194.477 199.622C194.476 199.616 194.474 199.61 194.472 199.604C194.471 199.598 194.47 199.593 194.468 199.587C194.467 199.581 194.466 199.575 194.464 199.568C194.463 199.563 194.462 199.557 194.461 199.551C194.46 199.545 194.459 199.538 194.458 199.532C194.458 199.526 194.457 199.52 194.456 199.514C194.455 199.507 194.455 199.501 194.454 199.494C194.453 199.488 194.453 199.482 194.453 199.476C194.452 199.469 194.452 199.462 194.451 199.455C194.451 199.449 194.451 199.443 194.451 199.436C194.45 199.429 194.45 199.422 194.45 199.415C194.45 199.408 194.45 199.402 194.45 199.395C194.45 199.388 194.45 199.381 194.451 199.374C194.451 199.367 194.451 199.36 194.452 199.353C194.452 199.346 194.452 199.338 194.453 199.331C194.453 199.324 194.454 199.317 194.455 199.31C194.455 199.302 194.456 199.295 194.457 199.287C194.458 199.28 194.458 199.273 194.459 199.266C194.46 199.258 194.461 199.25 194.462 199.242C194.463 199.235 194.464 199.228 194.466 199.22C194.467 199.213 194.468 199.205 194.469 199.196C194.471 199.189 194.472 199.182 194.473 199.174C194.475 199.166 194.476 199.158 194.478 199.149C194.48 199.142 194.481 199.134 194.483 199.126C194.485 199.118 194.486 199.11 194.488 199.101C194.49 199.094 194.492 199.086 194.494 199.078C194.496 199.07 194.498 199.061 194.5 199.052C194.502 199.044 194.504 199.037 194.506 199.029C194.509 199.02 194.511 199.011 194.514 199.002C194.516 198.994 194.518 198.986 194.52 198.978C194.523 198.969 194.526 198.96 194.528 198.951C194.531 198.943 194.533 198.935 194.536 198.927C194.539 198.918 194.542 198.909 194.545 198.9C194.548 198.891 194.55 198.883 194.553 198.875C194.556 198.865 194.559 198.856 194.563 198.847C194.566 198.838 194.569 198.83 194.572 198.821C194.575 198.812 194.579 198.803 194.582 198.793C194.585 198.785 194.589 198.776 194.592 198.767C194.596 198.758 194.599 198.748 194.603 198.739C194.607 198.73 194.61 198.721 194.614 198.713C194.617 198.703 194.622 198.693 194.626 198.683C194.629 198.675 194.633 198.666 194.637 198.657C194.641 198.647 194.645 198.637 194.65 198.627C194.653 198.618 194.657 198.609 194.661 198.601C194.666 198.59 194.67 198.58 194.675 198.57C194.679 198.561 194.683 198.552 194.687 198.543C194.692 198.533 194.697 198.522 194.702 198.512C194.706 198.503 194.71 198.494 194.714 198.486C194.72 198.475 194.725 198.464 194.73 198.453C194.734 198.445 194.738 198.438 194.742 198.43C194.742 198.43 194.742 198.429 194.743 198.428C194.764 198.387 194.785 198.344 194.808 198.302C194.81 198.3 194.811 198.297 194.812 198.295C194.834 198.255 194.857 198.213 194.881 198.172C194.882 198.17 194.883 198.168 194.884 198.166C194.886 198.163 194.888 198.16 194.89 198.156C194.908 198.125 194.926 198.094 194.945 198.063L194.949 198.056C194.968 198.025 194.987 197.994 195.007 197.963C195.008 197.96 195.01 197.957 195.012 197.954C195.013 197.953 195.014 197.951 195.014 197.951C195.032 197.923 195.049 197.896 195.067 197.869C195.071 197.863 195.075 197.856 195.079 197.85C195.094 197.828 195.109 197.805 195.125 197.782C195.127 197.778 195.13 197.774 195.133 197.77L195.136 197.766C195.172 197.713 195.209 197.66 195.247 197.607C195.248 197.605 195.249 197.603 195.251 197.601C195.252 197.599 195.254 197.597 195.256 197.595C195.291 197.546 195.327 197.497 195.364 197.448C195.365 197.446 195.366 197.444 195.368 197.443C195.368 197.443 195.369 197.441 195.37 197.44C195.407 197.391 195.444 197.342 195.483 197.294L195.485 197.29C195.487 197.288 195.489 197.286 195.489 197.286C195.525 197.24 195.561 197.196 195.598 197.152C195.599 197.149 195.601 197.147 195.603 197.145C195.605 197.143 195.607 197.14 195.61 197.137C195.645 197.095 195.681 197.052 195.717 197.009C195.72 197.007 195.722 197.004 195.724 197.001C195.726 196.999 195.728 196.997 195.73 196.995C195.767 196.952 195.804 196.909 195.842 196.866C195.845 196.864 195.847 196.861 195.849 196.859L195.853 196.854C195.893 196.81 195.933 196.766 195.974 196.722C195.974 196.722 195.977 196.719 195.978 196.718C195.978 196.718 195.979 196.716 195.98 196.716C196.023 196.669 196.067 196.623 196.111 196.577C196.112 196.576 196.112 196.576 196.112 196.576C196.114 196.574 196.116 196.572 196.116 196.572C196.156 196.531 196.196 196.49 196.236 196.45C196.242 196.444 196.248 196.438 196.254 196.432C196.257 196.429 196.259 196.427 196.262 196.425C196.307 196.38 196.353 196.335 196.398 196.291C196.401 196.289 196.403 196.286 196.406 196.284L196.411 196.279C196.465 196.227 196.519 196.177 196.574 196.127C196.575 196.126 196.576 196.125 196.576 196.125C196.579 196.123 196.58 196.121 196.58 196.121C196.651 196.057 196.72 195.996 196.789 195.936C196.791 195.935 196.793 195.933 196.794 195.932C196.794 195.932 196.799 195.928 196.802 195.925C196.843 195.89 196.885 195.855 196.927 195.82C196.931 195.816 196.936 195.812 196.94 195.809C196.983 195.773 197.026 195.739 197.068 195.705C197.072 195.703 197.075 195.7 197.078 195.697C197.123 195.662 197.168 195.627 197.212 195.593C197.213 195.593 197.214 195.592 197.214 195.592C197.26 195.557 197.305 195.523 197.35 195.491C197.353 195.489 197.355 195.487 197.355 195.487C197.4 195.455 197.443 195.424 197.485 195.395C197.489 195.392 197.493 195.389 197.497 195.386C197.538 195.358 197.578 195.331 197.619 195.304C197.624 195.301 197.628 195.298 197.633 195.294C197.673 195.268 197.712 195.243 197.752 195.218C197.756 195.215 197.761 195.212 197.766 195.209C197.805 195.184 197.845 195.16 197.884 195.137C197.886 195.136 197.889 195.134 197.889 195.134C197.894 195.131 197.896 195.13 197.899 195.128C197.919 195.116 197.939 195.104 197.959 195.093C197.962 195.091 197.966 195.089 197.969 195.087C197.992 195.074 198.015 195.061 198.038 195.048C198.044 195.045 198.051 195.041 198.057 195.038C198.074 195.029 198.091 195.02 198.107 195.011C198.115 195.007 198.122 195.003 198.13 194.999C198.146 194.99 198.162 194.982 198.178 194.974C198.182 194.972 198.187 194.969 198.192 194.967C198.193 194.966 198.195 194.965 198.196 194.964C198.231 194.947 198.265 194.93 198.298 194.914C198.303 194.913 198.307 194.911 198.311 194.909C198.344 194.893 198.377 194.878 198.41 194.864C198.412 194.863 198.415 194.861 198.415 194.861C198.419 194.859 198.421 194.859 198.423 194.858C198.45 194.846 198.477 194.835 198.504 194.824C198.509 194.822 198.514 194.82 198.519 194.818C198.546 194.807 198.573 194.797 198.6 194.787L198.602 194.786L198.608 194.784C198.63 194.776 198.651 194.769 198.673 194.762C198.678 194.76 198.683 194.758 198.689 194.757C198.712 194.749 198.735 194.742 198.757 194.735C198.757 194.735 198.76 194.735 198.761 194.734C198.764 194.733 198.767 194.733 198.77 194.732C198.787 194.727 198.805 194.722 198.823 194.717C198.828 194.716 198.833 194.714 198.839 194.713C198.86 194.708 198.88 194.703 198.9 194.698L198.902 194.698C198.904 194.698 198.906 194.697 198.906 194.697C198.925 194.693 198.942 194.69 198.959 194.687C198.965 194.686 198.97 194.685 198.975 194.684C198.991 194.681 199.007 194.679 199.022 194.677C199.025 194.676 199.027 194.676 199.027 194.676C199.031 194.675 199.032 194.675 199.032 194.675C199.051 194.673 199.068 194.671 199.086 194.669C199.09 194.669 199.095 194.668 199.099 194.668C199.112 194.667 199.126 194.666 199.139 194.665C199.139 194.665 199.145 194.665 199.147 194.665C199.15 194.665 199.152 194.665 199.154 194.665C199.169 194.664 199.183 194.664 199.197 194.664C199.199 194.664 199.201 194.664 199.201 194.664C199.22 194.664 199.235 194.665 199.251 194.666L199.255 194.666C199.258 194.666 199.261 194.666 199.264 194.667C199.275 194.668 199.287 194.669 199.298 194.67C199.302 194.671 199.307 194.671 199.311 194.672C199.325 194.674 199.339 194.676 199.352 194.678L199.355 194.679C199.369 194.682 199.383 194.685 199.397 194.689C199.401 194.69 199.405 194.691 199.408 194.692C199.419 194.695 199.429 194.699 199.439 194.702C199.441 194.703 199.444 194.704 199.444 194.704C199.447 194.705 199.448 194.705 199.448 194.705C199.463 194.711 199.475 194.716 199.488 194.722C199.49 194.723 199.492 194.724 199.492 194.724C199.505 194.73 199.515 194.736 199.525 194.742C199.527 194.743 199.529 194.743 199.53 194.744C199.53 194.744 199.533 194.746 199.534 194.747C199.547 194.755 199.558 194.762 199.57 194.771L199.573 194.773C199.583 194.781 199.593 194.79 199.603 194.799C199.604 194.8 199.606 194.801 199.607 194.802C199.61 194.805 199.613 194.809 199.617 194.812L203.656 198.848C203.651 198.843 203.647 198.839 203.642 198.835Z" fill="#E9F4F6"/>
<path d="M163.898 163.682C143.152 184.428 130.427 205.34 135.477 210.389C126.987 201.899 135.315 176.591 156.061 155.845C176.808 135.099 202.116 126.77 210.606 135.26C205.556 130.211 184.645 142.936 163.898 163.682Z" fill="#E9F4F6"/>
<path d="M58.1893 172.47L44.1587 158.44L46.608 155.99L60.6386 170.021L84.546 146.114L86.9953 148.563L63.088 172.47L77.1184 186.501L74.6691 188.95L60.6386 174.92L36.7313 198.827L34.282 196.378L58.1893 172.47Z" fill="#0D7ECC"/>
<path d="M74.3401 76.283C74.7832 76.283 75.2267 76.1139 75.5646 75.7756C76.2411 75.0994 76.2411 74.0027 75.5646 73.3265L69.2464 67.0084C68.5706 66.3319 67.4732 66.3319 66.7974 67.0084C66.1209 67.6846 66.1209 68.7813 66.7974 69.4574L73.1156 75.7756C73.4535 76.1138 73.897 76.283 74.3401 76.283Z" fill="#384344"/>
<defs>
<linearGradient id="paint0_linear_4056_13393" x1="138.137" y1="194.807" x2="197.967" y2="194.807" gradientUnits="userSpaceOnUse">
<stop stop-color="#5EBCF1"/>
<stop offset="1" stop-color="#009CDE"/>
</linearGradient>
<linearGradient id="paint1_linear_4056_13393" x1="191.193" y1="168.19" x2="197.967" y2="168.19" gradientUnits="userSpaceOnUse">
<stop stop-color="#5EBCF1"/>
<stop offset="1" stop-color="#009CDE"/>
</linearGradient>
<linearGradient id="paint2_linear_4056_13393" x1="161.95" y1="180.175" x2="197.967" y2="180.175" gradientUnits="userSpaceOnUse">
<stop stop-color="#5EBCF1"/>
<stop offset="1" stop-color="#009CDE"/>
</linearGradient>
</defs>
</svg>
