<svg width="240" height="240" viewBox="0 0 240 240" fill="none" xmlns="http://www.w3.org/2000/svg">
<g clip-path="url(#clip0_4056_13391)">
<path d="M97.2836 201.749H142.716V217.284C142.716 229.821 132.538 240 120 240C107.463 240 97.2837 229.821 97.2837 217.284L97.2836 201.749Z" fill="#494949"/>
<path d="M82.8583 72.1261C90.1674 72.1261 96.0926 66.2009 96.0926 58.8918C96.0926 51.5827 90.1674 45.6575 82.8583 45.6575C75.5492 45.6575 69.624 51.5827 69.624 58.8918C69.624 66.2009 75.5492 72.1261 82.8583 72.1261Z" fill="#F7A800"/>
<path d="M157.142 72.1261C164.451 72.1261 170.376 66.2009 170.376 58.8918C170.376 51.5827 164.451 45.6575 157.142 45.6575C149.833 45.6575 143.907 51.5827 143.907 58.8918C143.907 66.2009 149.833 72.1261 157.142 72.1261Z" fill="#F7A800"/>
<path d="M132.529 89.4268H107.471V98.7808H132.529V89.4268Z" fill="#F7A800"/>
<path d="M185.887 171.744H199.385V140.285H185.887V171.744Z" fill="#FCC107"/>
<path d="M161.256 115.368L186.753 144.088L196.84 135.133L171.344 106.413L161.256 115.368Z" fill="#FCC107"/>
<path d="M164.762 137.042H151.932V100.532H164.762C171.083 100.532 176.215 105.663 176.215 111.984V125.589C176.215 131.91 171.083 137.042 164.762 137.042Z" fill="#F7A800"/>
<path d="M192.636 148.722C197.881 148.722 202.133 144.47 202.133 139.225C202.133 133.98 197.881 129.728 192.636 129.728C187.391 129.728 183.139 133.98 183.139 139.225C183.139 144.47 187.391 148.722 192.636 148.722Z" fill="#F7A800"/>
<path d="M178.837 200.609C176.795 197.797 175.587 194.34 175.587 190.599C175.587 181.183 183.22 173.55 192.636 173.55C202.052 173.55 209.686 181.183 209.686 190.599C209.686 194.34 208.478 197.797 206.435 200.609" stroke="#F7A800" stroke-width="10.6775" stroke-miterlimit="10"/>
<path d="M54.1125 140.285H40.6152V171.744H54.1125V140.285Z" fill="#FCC107"/>
<path d="M68.6564 106.413L43.1599 135.134L53.247 144.088L78.7435 115.368L68.6564 106.413Z" fill="#FCC107"/>
<path d="M75.2379 100.532H88.0681V137.042H75.2379C68.9171 137.042 63.7854 131.91 63.7854 125.589V111.984C63.7854 105.663 68.9171 100.532 75.2379 100.532Z" fill="#F7A800"/>
<path d="M47.3639 148.722C52.6091 148.722 56.8611 144.47 56.8611 139.225C56.8611 133.98 52.6091 129.728 47.3639 129.728C42.1187 129.728 37.8667 133.98 37.8667 139.225C37.8667 144.47 42.1187 148.722 47.3639 148.722Z" fill="#F7A800"/>
<path d="M61.1625 200.609C63.2053 197.797 64.4133 194.34 64.4133 190.599C64.4133 181.183 56.7799 173.55 47.3638 173.55C37.9477 173.55 30.3143 181.183 30.3143 190.599C30.3143 194.34 31.5223 197.797 33.5651 200.609" stroke="#F7A800" stroke-width="10.6775" stroke-miterlimit="10"/>
<path d="M84.0065 175.457H155.994V190.784C155.994 196.835 151.081 201.748 145.029 201.748H94.9711C88.9196 201.748 84.0066 196.835 84.0066 190.784L84.0065 175.457Z" fill="#F7A800"/>
<path d="M120 27.1243C143.85 27.1243 163.213 46.4872 163.213 70.3369V72.3389C163.213 82.4504 155.003 90.6596 144.892 90.6596H95.1081C84.9966 90.6596 76.7874 82.4504 76.7874 72.3389V70.3369C76.7874 46.4872 96.1503 27.1243 120 27.1243Z" fill="#FCC107"/>
<path d="M110.585 43.6614H129.415C140.501 43.6614 149.501 52.6616 149.501 63.7472V65.6069C149.501 70.3069 145.685 74.1226 140.985 74.1226H99.0147C94.3147 74.1226 90.499 70.3068 90.499 65.6069V63.7472C90.499 52.6615 99.4992 43.6614 110.585 43.6614Z" fill="#232323"/>
<path d="M154.934 95.6184H85.0661C77.5672 95.6184 71.488 101.698 71.488 109.197V175.025C71.488 182.523 77.5672 188.603 85.0661 188.603H154.934C162.433 188.603 168.512 182.523 168.512 175.025V109.197C168.512 101.698 162.433 95.6184 154.934 95.6184Z" fill="#FCC107"/>
<path d="M148.523 108.999H91.477C87.5321 108.999 84.3341 112.197 84.3341 116.142V136.857C84.3341 140.802 87.5321 144 91.477 144H148.523C152.468 144 155.666 140.802 155.666 136.857V116.142C155.666 112.197 152.468 108.999 148.523 108.999Z" fill="#232323"/>
<path d="M100.007 63.565C100.007 60.2496 102.694 57.562 106.01 57.562C109.325 57.562 112.013 60.2497 112.013 63.565" stroke="white" stroke-width="3.5592" stroke-miterlimit="10" stroke-linecap="round"/>
<path d="M127.987 63.565C127.987 60.2496 130.675 57.562 133.99 57.562C137.305 57.562 139.993 60.2497 139.993 63.565" stroke="white" stroke-width="3.5592" stroke-miterlimit="10" stroke-linecap="round"/>
<path d="M97.2835 217.009V217.284C97.2835 218.72 97.423 220.124 97.6779 221.486H142.322C142.577 220.124 142.716 218.72 142.716 217.284V217.009H97.2835Z" fill="#3F3F3F"/>
<path d="M142.716 205.384H97.2836V209.861H142.716V205.384Z" fill="#3F3F3F"/>
<path d="M136.288 233.111C137.593 231.768 138.731 230.265 139.675 228.633H100.325C101.268 230.265 102.407 231.768 103.712 233.111H136.288Z" fill="#3F3F3F"/>
</g>
<defs>
<clipPath id="clip0_4056_13391">
<rect width="190.049" height="212.876" fill="white" transform="translate(24.9756 27.1243)"/>
</clipPath>
</defs>
</svg>
