<svg width="240" height="241" viewBox="0 0 240 241" fill="none" xmlns="http://www.w3.org/2000/svg">
<g clip-path="url(#clip0_4073_44571)">
<g clip-path="url(#clip1_4073_44571)">
<path d="M170.72 240.058H69.9487C65.0918 240.058 61.5504 235.46 62.7899 230.764L73.8414 188.898C74.6993 185.648 77.6388 183.384 81.0002 183.384H159.668C163.029 183.384 165.969 185.648 166.827 188.898L177.878 230.764C179.118 235.46 175.577 240.058 170.72 240.058Z" fill="#A57449"/>
<path d="M121.276 216.224H96.6963C95.5938 216.224 94.7001 217.118 94.7001 218.22V223.846C94.7001 224.949 95.5938 225.842 96.6963 225.842H121.276C122.378 225.842 123.272 224.949 123.272 223.846V218.22C123.272 217.118 122.378 216.224 121.276 216.224Z" fill="#9B6842"/>
<path d="M165.592 224.501H146.515C145.412 224.501 144.519 225.395 144.519 226.497V232.123C144.519 233.225 145.412 234.119 146.515 234.119H165.592C166.694 234.119 167.588 233.225 167.588 232.123V226.497C167.588 225.395 166.694 224.501 165.592 224.501Z" fill="#9B6842"/>
<path d="M97.4107 204.21H78.334C77.2315 204.21 76.3378 205.104 76.3378 206.206V211.832C76.3378 212.934 77.2315 213.828 78.334 213.828H97.4107C98.5132 213.828 99.4069 212.934 99.4069 211.832V206.206C99.4069 205.104 98.5132 204.21 97.4107 204.21Z" fill="#9B6842"/>
<path d="M157.741 195.676H145.667C144.565 195.676 143.671 196.57 143.671 197.672V203.298C143.671 204.401 144.565 205.294 145.667 205.294H157.741C158.843 205.294 159.737 204.401 159.737 203.298V197.672C159.737 196.57 158.843 195.676 157.741 195.676Z" fill="#9B6842"/>
<path d="M138.352 182.645H100.986C89.4273 182.645 79.1219 175.364 75.2605 164.469L64.4643 134.008C58.1682 116.244 71.3433 97.5967 90.1898 97.5967H149.149C167.995 97.5967 181.17 116.244 174.874 134.008L164.078 164.469C160.217 175.364 149.911 182.645 138.352 182.645Z" fill="#1E2123"/>
<path d="M62.0107 107.74C62.0107 107.74 71.9992 152.734 98.3464 156.339C119.921 159.291 132.045 153.841 144.447 137.49" stroke="#222628" stroke-width="25.8134" stroke-miterlimit="10" stroke-linecap="round"/>
<path d="M68.5383 91.1322C68.3455 90.9674 68.1744 90.7854 68.017 90.5942H45.2744C43.292 90.5942 41.6849 92.2013 41.6849 94.1837C41.6849 106.163 51.3962 115.874 63.3755 115.874H79.3222C84.2212 115.874 88.7394 114.249 92.3707 111.509L68.5383 91.1322Z" fill="#E09500"/>
<path d="M130.099 151.418C135.184 148.221 139.796 143.622 144.447 137.49" stroke="#222628" stroke-width="25.8134" stroke-miterlimit="10" stroke-linecap="round"/>
<path d="M139.322 143.623C141.042 141.78 142.742 139.738 144.447 137.49" stroke="#222628" stroke-width="25.8134" stroke-miterlimit="10" stroke-linecap="round"/>
<path d="M153.961 176.977H85.3774C83.5075 176.977 81.9916 178.492 81.9916 180.362V186.467C81.9916 188.336 83.5075 189.852 85.3774 189.852H153.961C155.831 189.852 157.347 188.336 157.347 186.467V180.362C157.347 178.492 155.831 176.977 153.961 176.977Z" fill="#333333"/>
<path d="M130.5 174.574H108.838C106.911 174.574 105.349 176.136 105.349 178.063V188.705C105.349 190.632 106.911 192.194 108.838 192.194H130.5C132.427 192.194 133.989 190.632 133.989 188.705V178.063C133.989 176.136 132.427 174.574 130.5 174.574Z" fill="#282828"/>
<path d="M88.7632 122.377L53.1327 131.924C51.6696 132.316 50.8013 133.82 51.1934 135.283L53.936 145.519C54.328 146.982 55.8319 147.85 57.295 147.458L92.9255 137.911C94.3886 137.519 95.2568 136.015 94.8648 134.552L92.1222 124.317C91.7302 122.854 90.2263 121.985 88.7632 122.377Z" fill="#E09500"/>
<path opacity="0.6" d="M58.0388 135.816C57.5496 136.162 57.0795 136.532 56.6266 136.923L56.1919 135.301C56.1096 134.994 55.6319 135.121 55.7143 135.429L56.126 136.965C55.5096 136.746 54.8753 136.603 54.2209 136.528C53.9047 136.492 53.9043 136.986 54.2173 137.022C54.8924 137.099 55.5466 137.266 56.1787 137.509C55.857 138.123 55.5261 138.732 55.1834 139.334C55.0259 139.611 55.4539 139.858 55.6116 139.581C55.9588 138.971 56.294 138.354 56.6197 137.732C57.0977 138.091 57.5755 138.451 58.0534 138.81C58.3075 139.001 58.5521 138.571 58.3007 138.382C57.8359 138.033 57.3712 137.683 56.9065 137.333C57.3493 136.947 57.8087 136.582 58.2893 136.242C58.5469 136.06 58.2995 135.632 58.0388 135.816Z" fill="#945534"/>
<path opacity="0.6" d="M63.0586 141.59L61.0342 134.034C61.0165 133.968 60.9631 133.918 60.8995 133.893C60.8675 133.881 60.8323 133.877 60.7978 133.881C60.6934 133.501 60.3752 133.07 59.964 132.772C59.5832 132.496 59.1956 132.391 58.8726 132.478C58.7586 132.508 58.691 132.625 58.7216 132.739L58.9771 133.693C59.576 134.145 60.149 134.621 60.6151 135.232C60.7204 135.359 60.8172 135.495 60.9005 135.645C60.8111 135.5 60.7152 135.363 60.6151 135.232C60.201 134.734 59.6385 134.4 59.0871 134.104L59.4175 135.337C59.8107 135.514 60.1144 135.82 60.348 136.333C60.1701 136.064 59.8697 135.904 59.5754 135.926L60.6931 140.097C60.634 140.131 60.584 140.181 60.5452 140.243C60.5145 140.293 60.5054 140.353 60.5202 140.41C60.535 140.466 60.5724 140.514 60.6236 140.542C60.8603 140.673 61.1192 140.772 61.3697 140.867C61.7841 141.026 62.1756 141.175 62.464 141.454C62.5402 141.527 62.6027 141.624 62.6554 141.735L63.0054 143.042C63.036 143.156 63.153 143.223 63.267 143.193C63.381 143.162 63.4486 143.045 63.418 142.931C63.3852 142.808 63.3561 142.671 63.3254 142.526C63.2597 142.215 63.1886 141.879 63.0586 141.59Z" fill="#945534"/>
<g opacity="0.6">
<path d="M63.4077 132.742C63.6853 132.542 63.9813 132.699 64.201 132.9C64.4524 133.131 64.8681 133.322 65.2154 133.241C65.6747 133.133 65.7282 132.586 65.6248 132.2C65.5981 132.101 65.5596 132.008 65.5128 131.921L63.0956 132.569C63.0984 132.667 63.1113 132.767 63.1379 132.866C63.1551 132.931 63.1784 132.992 63.2045 133.051C63.229 132.933 63.2946 132.823 63.4077 132.742Z" fill="#945534"/>
<path d="M67.1151 138.732C66.7401 138.833 66.3511 138.608 66.2506 138.233L64.7819 132.752C64.6814 132.377 64.906 131.988 65.281 131.888C65.656 131.787 66.0451 132.012 66.1456 132.387L67.6143 137.868C67.7148 138.243 67.4902 138.632 67.1151 138.732Z" fill="#945534"/>
<path d="M67.4744 139.606C68.3793 139.363 68.8391 138.145 68.5015 136.885C68.1639 135.625 67.1566 134.8 66.2517 135.043C65.3468 135.285 64.887 136.503 65.2246 137.763C65.5622 139.024 66.5695 139.848 67.4744 139.606Z" fill="#945534"/>
<path d="M66.4815 135.951L68.2441 135.479C68.814 135.326 69.4007 135.665 69.5534 136.235L70.2675 138.9L67.4723 139.649C66.9024 139.801 66.3157 139.463 66.163 138.893L65.7256 137.26C65.5728 136.69 65.9116 136.104 66.4815 135.951Z" fill="#945534"/>
<path d="M67.3129 141.039C67.1074 141.094 66.8942 140.97 66.8391 140.765L66.291 138.719C66.2359 138.514 66.359 138.301 66.5646 138.246C66.7701 138.191 66.9833 138.314 67.0384 138.519L67.5865 140.565C67.6416 140.77 67.5185 140.983 67.3129 141.039Z" fill="#945534"/>
<path d="M68.6608 140.719C68.4553 140.774 68.242 140.651 68.187 140.446L67.6389 138.4C67.5838 138.195 67.7069 137.981 67.9125 137.926C68.118 137.871 68.3312 137.994 68.3863 138.2L68.9344 140.245C68.9895 140.451 68.8664 140.664 68.6608 140.719Z" fill="#945534"/>
<path d="M67.9586 142.426C67.9173 142.437 67.8723 142.425 67.8409 142.394C67.8374 142.391 67.4692 142.034 67.0638 142.105C66.7873 142.155 66.5455 142.393 66.3459 142.813C66.3169 142.874 66.244 142.9 66.1831 142.871C66.1221 142.842 66.0962 142.769 66.1251 142.708C66.3611 142.211 66.6625 141.927 67.0231 141.865C67.2933 141.817 67.5401 141.906 67.7199 142.006L67.2398 140.215C67.2224 140.15 67.261 140.083 67.3261 140.065C67.3913 140.048 67.4583 140.086 67.4758 140.152L68.045 142.276C68.0593 142.329 68.0361 142.385 67.9883 142.413C67.9787 142.419 67.9688 142.423 67.9586 142.426Z" fill="#945534"/>
<path d="M69.3565 142.135C69.3152 142.146 69.2701 142.135 69.2387 142.104C69.2353 142.1 68.8671 141.743 68.4617 141.815C68.1846 141.863 67.9434 142.102 67.7437 142.523C67.7147 142.584 67.6419 142.61 67.581 142.581C67.52 142.552 67.494 142.479 67.5229 142.418C67.759 141.921 68.0611 141.637 68.421 141.574C68.6911 141.527 68.938 141.615 69.1177 141.716L68.6376 139.924C68.6202 139.859 68.6589 139.792 68.7241 139.775C68.7892 139.757 68.8563 139.796 68.8737 139.861L69.4429 141.985C69.4572 142.039 69.4339 142.095 69.3862 142.123C69.3766 142.128 69.3667 142.132 69.3565 142.135Z" fill="#945534"/>
<path d="M64.9116 132.577C64.936 132.668 64.8819 132.762 64.7906 132.787C64.6993 132.811 64.6055 132.757 64.5811 132.666C64.5566 132.574 64.6107 132.48 64.702 132.456C64.7933 132.432 64.8871 132.486 64.9116 132.577Z" fill="#CC9933"/>
<path d="M70.6009 141.615C70.3369 141.728 69.942 141.513 69.7234 141.136L68.2654 138.623C68.0467 138.246 68.0838 137.845 68.3477 137.732C68.6117 137.619 69.0065 137.835 69.2252 138.212L70.6831 140.725C70.9019 141.101 70.8648 141.502 70.6009 141.615Z" fill="#945534"/>
</g>
<path opacity="0.6" d="M77.2861 137.777L75.2617 130.222C75.244 130.156 75.1906 130.105 75.127 130.081C75.095 130.068 75.0598 130.065 75.0253 130.069C74.9209 129.688 74.6027 129.257 74.1915 128.959C73.8107 128.683 73.4231 128.579 73.1001 128.665C72.9861 128.696 72.9184 128.813 72.949 128.927L73.2045 129.881C73.8034 130.332 74.3764 130.809 74.8426 131.419C74.9479 131.546 75.0447 131.682 75.128 131.832C75.0386 131.687 74.9427 131.551 74.8426 131.419C74.4285 130.921 73.866 130.587 73.3146 130.291L73.645 131.524C74.0382 131.701 74.3419 132.008 74.5755 132.521C74.3976 132.251 74.0972 132.091 73.8029 132.113L74.9206 136.285C74.8615 136.319 74.8115 136.368 74.7727 136.431C74.7419 136.48 74.7329 136.54 74.7477 136.597C74.7625 136.654 74.7999 136.702 74.8511 136.73C75.0878 136.861 75.3467 136.96 75.5972 137.055C76.0116 137.213 76.4031 137.362 76.6916 137.641C76.7678 137.715 76.8303 137.811 76.8829 137.923L77.233 139.229C77.2636 139.343 77.3806 139.411 77.4946 139.38C77.6086 139.35 77.6761 139.233 77.6456 139.119C77.6127 138.996 77.5837 138.859 77.553 138.713C77.4873 138.403 77.416 138.066 77.2861 137.777Z" fill="#945534"/>
<path opacity="0.6" d="M80.6824 136.867L78.6579 129.312C78.6402 129.246 78.5869 129.195 78.5233 129.171C78.4913 129.158 78.4561 129.155 78.4216 129.159C78.3172 128.778 77.9991 128.347 77.5878 128.049C77.207 127.773 76.8194 127.669 76.4964 127.755C76.3824 127.786 76.3148 127.903 76.3454 128.017L76.6009 128.971C77.1998 129.422 77.7728 129.898 78.2389 130.509C78.3442 130.636 78.441 130.772 78.5243 130.922C78.4349 130.777 78.339 130.641 78.2389 130.509C77.8247 130.011 77.2623 129.677 76.7109 129.381L77.0413 130.614C77.4344 130.791 77.7382 131.097 77.9717 131.611C77.7938 131.341 77.4934 131.181 77.1991 131.203L78.3168 135.374C78.2577 135.409 78.2077 135.458 78.1689 135.52C78.1381 135.57 78.1291 135.63 78.1439 135.687C78.1587 135.744 78.1961 135.792 78.2473 135.82C78.484 135.951 78.7429 136.049 78.9934 136.145C79.4078 136.303 79.7993 136.452 80.0878 136.731C80.164 136.804 80.2265 136.901 80.2792 137.013L80.6293 138.319C80.6598 138.433 80.7769 138.501 80.8909 138.47C81.0049 138.439 81.0724 138.322 81.0419 138.208C81.009 138.086 80.98 137.948 80.9492 137.803C80.8836 137.493 80.8123 137.156 80.6824 136.867Z" fill="#945534"/>
<path opacity="0.6" d="M83.528 136.105L81.5035 128.549C81.4858 128.484 81.4325 128.433 81.3688 128.408C81.3369 128.396 81.3016 128.392 81.2672 128.397C81.1628 128.016 80.8446 127.585 80.4334 127.287C80.0525 127.011 79.6649 126.906 79.3419 126.993C79.2279 127.024 79.1604 127.141 79.1909 127.255L79.4465 128.208C80.0454 128.66 80.6183 129.136 81.0845 129.747C81.1898 129.874 81.2866 130.01 81.3699 130.16C81.2804 130.015 81.1846 129.878 81.0845 129.747C80.6703 129.249 80.1078 128.915 79.5565 128.619L79.8869 129.852C80.2801 130.029 80.5838 130.335 80.8172 130.848C80.6394 130.579 80.3391 130.419 80.0447 130.441L81.1624 134.612C81.1033 134.647 81.0532 134.696 81.0145 134.758C80.9837 134.808 80.9747 134.868 80.9895 134.925C81.0043 134.981 81.0417 135.029 81.0929 135.058C81.3295 135.188 81.5885 135.287 81.839 135.383C82.2535 135.541 82.645 135.69 82.9334 135.969C83.0095 136.042 83.0721 136.139 83.1248 136.25L83.4749 137.557C83.5054 137.671 83.6225 137.738 83.7365 137.708C83.8505 137.677 83.918 137.56 83.8875 137.446C83.8545 137.323 83.8255 137.186 83.7948 137.041C83.7292 136.731 83.6579 136.394 83.528 136.105Z" fill="#945534"/>
<g opacity="0.6">
<path d="M87.4409 129.628L87.167 129.702C86.0774 129.994 85.4308 131.114 85.7227 132.203L86.4569 134.943C86.7489 136.033 87.8688 136.68 88.9584 136.388L89.2324 136.314C90.322 136.022 90.9686 134.902 90.6767 133.813L89.9425 131.073C89.6505 129.983 88.5305 129.336 87.4409 129.628Z" fill="#945534"/>
<path d="M90.8852 132.289L85.0214 133.86C84.8255 133.913 84.6223 133.795 84.5698 133.599C84.5173 133.403 84.6346 133.2 84.8305 133.148L90.6943 131.576C90.8902 131.524 91.0935 131.641 91.146 131.837C91.1985 132.033 91.0811 132.236 90.8852 132.289Z" fill="#945534"/>
<path d="M86.9405 131.946C86.3604 131.993 85.6381 132.065 85.2054 131.585C84.7251 131.053 84.8753 130.305 85.2318 129.757C85.4313 129.451 84.9391 129.168 84.7404 129.474C84.2827 130.177 84.1572 131.08 84.6558 131.801C85.1786 132.557 86.1061 132.58 86.9364 132.514C87.2982 132.485 87.3045 131.917 86.9405 131.946Z" fill="#945534"/>
<path d="M86.7507 133.825C85.9551 133.973 85.3376 134.687 85.3396 135.507C85.3417 136.345 85.9534 137.009 86.7056 137.284C87.0493 137.409 87.1962 136.861 86.8554 136.737C85.7103 136.319 85.554 134.622 86.8975 134.373C87.2566 134.307 87.1079 133.759 86.7507 133.825Z" fill="#945534"/>
<path d="M85.5886 133.72L91.4524 132.149C91.6483 132.096 91.7657 131.893 91.7132 131.697C91.6607 131.501 91.4575 131.384 91.2615 131.436L85.3977 133.008C85.2017 133.06 85.0844 133.263 85.1369 133.459C85.1894 133.655 85.3926 133.772 85.5886 133.72Z" fill="#945534"/>
<path d="M89.1208 131.94C89.8734 131.582 90.6648 131.1 90.7395 130.183C90.8108 129.309 90.2506 128.59 89.5026 128.21C89.178 128.045 88.8926 128.535 89.219 128.701C89.8022 128.998 90.3059 129.567 90.1558 130.271C90.021 130.903 89.3595 131.201 88.8336 131.451C88.5044 131.608 88.7925 132.097 89.1208 131.94Z" fill="#945534"/>
<path d="M90.0842 133.531C91.3721 133.075 92.085 134.622 91.3023 135.557C91.0695 135.835 91.4705 136.237 91.7057 135.956C92.2197 135.342 92.4171 134.46 92.0003 133.734C91.5918 133.022 90.7003 132.713 89.9374 132.983C89.5955 133.104 89.7394 133.653 90.0842 133.531Z" fill="#945534"/>
<path d="M86.7564 127.329C87.2934 127.185 87.8474 127.505 87.9913 128.042C88.1353 128.579 87.8154 129.133 87.2784 129.277C86.7413 129.421 86.1873 129.101 86.0434 128.564C85.8994 128.027 86.2193 127.473 86.7564 127.329ZM86.643 126.906C85.8712 127.112 85.4132 127.906 85.62 128.677C85.8268 129.449 86.6201 129.907 87.3918 129.701C88.1636 129.494 88.6216 128.7 88.4148 127.929C88.208 127.157 87.4148 126.699 86.643 126.906Z" fill="#945534"/>
</g>
<path d="M177.328 107.74C177.328 107.74 167.34 152.734 140.992 156.339C119.418 159.291 107.294 153.841 94.8915 137.49" stroke="#2D3134" stroke-width="25.8134" stroke-miterlimit="10" stroke-linecap="round"/>
<path d="M146.08 23.8792L120.863 16.6023C120.083 16.3774 119.256 16.3774 118.476 16.6023L93.2584 23.8792C91.9657 24.2523 90.9219 25.2084 90.4371 26.4634L67.3208 86.3109C66.6631 88.0136 67.1511 89.9461 68.5386 91.1324L102.868 120.485C103.647 121.151 104.639 121.518 105.664 121.518C108.041 121.518 109.968 119.591 109.968 117.214V98.7594C109.968 96.1967 112.194 94.2018 114.742 94.4815L119.2 94.9711C119.512 95.0054 119.827 95.0054 120.139 94.9711L124.597 94.4815C127.145 94.2017 129.371 96.1966 129.371 98.7594V117.214C129.371 119.591 131.298 121.518 133.675 121.518C134.7 121.518 135.692 121.151 136.471 120.485L170.8 91.1324C172.188 89.9462 172.676 88.0136 172.018 86.3109L148.902 26.4634C148.417 25.2084 147.373 24.2523 146.08 23.8792Z" fill="#FFB81A"/>
<g opacity="0.3">
<path d="M92.4973 111.618H109.968V104.76H84.4768L92.4973 111.618Z" fill="#E09500"/>
<path d="M154.862 104.76H129.371V111.618H146.841L154.862 104.76Z" fill="#E09500"/>
<path d="M90.437 26.4633L87.8386 33.1907H151.5L148.902 26.4633C148.884 26.4185 148.861 26.3771 148.843 26.333H90.4964C90.4776 26.3771 90.4544 26.4185 90.437 26.4633Z" fill="#E09500"/>
<path d="M67.2161 89.0747C67.4462 89.8563 67.8894 90.5774 68.5384 91.1323L74.1524 95.9325H111.031C111.921 94.9139 113.277 94.3206 114.741 94.4815L119.2 94.9712C119.512 95.0055 119.827 95.0055 120.139 94.9712L124.597 94.4815C126.062 94.3206 127.418 94.914 128.308 95.9325H165.186L170.8 91.1323C171.449 90.5774 171.893 89.8564 172.123 89.0747H67.2161Z" fill="#E09500"/>
<path d="M72.3116 73.3892L69.6628 80.2469H169.676L167.027 73.3892H72.3116Z" fill="#E09500"/>
<path d="M84.4287 42.0186L81.7799 48.8763H157.559L154.91 42.0186H84.4287Z" fill="#E09500"/>
<path d="M78.3703 57.7041L75.7213 64.5618H163.617L160.969 57.7041H78.3703Z" fill="#E09500"/>
</g>
<path d="M107.47 61.2983H92.2524L88.1469 49.3916C85.3373 41.2431 85.3615 32.3845 88.2158 24.2515L95.2279 4.27061C96.1135 1.7468 98.4964 0.0576172 101.171 0.0576172C104.65 0.0576172 107.47 2.87765 107.47 6.35631V61.2983Z" fill="#2D3134"/>
<path d="M131.869 61.2983H147.086L151.192 49.3916C154.001 41.2431 153.977 32.3845 151.123 24.2515L144.111 4.27061C143.225 1.7468 140.842 0.0576172 138.167 0.0576172C134.689 0.0576172 131.869 2.87765 131.869 6.35631V61.2983Z" fill="#2D3134"/>
<path d="M119.669 97.5963C137.814 97.5963 152.523 82.6162 152.523 64.1372C152.523 45.6583 137.814 30.6782 119.669 30.6782C101.525 30.6782 86.8159 45.6583 86.8159 64.1372C86.8159 82.6162 101.525 97.5963 119.669 97.5963Z" fill="#2D3134"/>
<path d="M135.263 81.2454C135.263 72.6331 128.282 65.6514 119.669 65.6514C111.057 65.6514 104.075 72.6331 104.075 81.2454V92.1461C104.075 100.758 111.057 107.74 119.669 107.74C128.282 107.74 135.263 100.758 135.263 92.1461V81.2454Z" fill="#2D3134"/>
<path d="M109.685 70.2215C108.657 72.9864 105.582 74.3942 102.817 73.3659C100.052 72.3376 98.644 69.2626 99.6723 66.4977C100.701 63.7328 103.282 63.6514 106.047 64.6797C108.812 65.708 110.713 67.4565 109.685 70.2215Z" fill="#070400"/>
<path d="M128.973 70.2215C130.001 72.9864 133.076 74.3942 135.841 73.3659C138.606 72.3376 140.014 69.2626 138.985 66.4977C137.957 63.7328 135.375 63.6514 132.61 64.6797C129.845 65.708 127.944 67.4565 128.973 70.2215Z" fill="#070400"/>
<path d="M123.937 67.5908C123.937 65.0823 121.903 63.0488 119.395 63.0488C116.886 63.0488 114.853 65.0823 114.853 67.5908V87.7267C114.853 90.2352 116.886 92.2687 119.395 92.2687C121.903 92.2687 123.937 90.2352 123.937 87.7267V67.5908Z" fill="#383C3F"/>
<path d="M125.448 89.6122C125.448 92.9554 122.738 95.6657 119.395 95.6657C116.052 95.6657 113.341 92.9555 113.341 89.6122C113.341 86.2689 116.052 85.522 119.395 85.522C122.738 85.522 125.448 86.2689 125.448 89.6122Z" fill="#070400"/>
<path d="M125.006 29.2777C125.006 26.3303 122.617 23.9409 119.669 23.9409C116.722 23.9409 114.333 26.3303 114.333 29.2777V37.9074C114.333 40.8549 116.722 43.2442 119.669 43.2442C122.617 43.2442 125.006 40.8549 125.006 37.9074V29.2777Z" fill="#E09500"/>
<path d="M124.209 35.688H115.13L109.213 17.3076H130.125L124.209 35.688Z" fill="#E09500"/>
<path d="M131.436 18.2012C131.436 23.5698 126.168 27.9218 119.669 27.9218C113.17 27.9218 107.902 23.5698 107.902 18.2012C107.902 12.8325 113.17 10.7856 119.669 10.7856C126.168 10.7856 131.436 12.8326 131.436 18.2012Z" fill="#E09500"/>
<path d="M119.669 24.877C115.155 24.877 111.138 23.2353 108.333 20.6699C109.662 24.8351 114.21 27.9215 119.669 27.9215C125.128 27.9215 129.677 24.8351 131.006 20.6699C128.201 23.2353 124.183 24.877 119.669 24.877Z" fill="#D38700"/>
<path d="M117.224 11.6263C117.224 10.6631 116.443 9.88232 115.48 9.88232C114.517 9.88232 113.736 10.6631 113.736 11.6263V13.6499C113.736 14.613 114.517 15.3938 115.48 15.3938C116.443 15.3938 117.224 14.613 117.224 13.6499V11.6263Z" fill="#D38700"/>
<path d="M125.603 11.6263C125.603 10.6631 124.822 9.88232 123.859 9.88232C122.896 9.88232 122.115 10.6631 122.115 11.6263V13.6499C122.115 14.613 122.896 15.3938 123.859 15.3938C124.822 15.3938 125.603 14.613 125.603 13.6499V11.6263Z" fill="#D38700"/>
<path d="M87.019 91.1408L79.0467 95.6613C81.162 91.1407 81.1746 85.3064 78.5981 79.9518C74.4223 71.2735 65.0226 67.1014 57.645 70.6514C50.2673 74.2013 47.6624 84.1499 51.8382 92.8282C54.4147 98.1828 58.9817 101.813 63.8342 102.981L55.327 106.39C54.1485 106.863 53.6158 108.234 54.1663 109.378L56.8277 114.909C57.3782 116.053 58.782 116.492 59.8864 115.866L70.3652 109.924L79.865 132.755C80.3483 133.917 81.7077 134.435 82.8415 133.889L91.3387 129.8C92.4725 129.255 92.916 127.87 92.3099 126.767L80.3969 105.097L91.5784 100.616C92.7569 100.144 93.2896 98.773 92.7391 97.6288L90.0777 92.0979C89.5272 90.9539 88.1234 90.5145 87.019 91.1408ZM60.5492 76.6871C64.5986 74.7387 69.988 77.5061 72.5623 82.8562C75.1367 88.2061 73.9358 94.1435 69.8865 96.092C65.8372 98.0405 60.4482 95.274 57.8739 89.924C55.2996 84.574 56.4999 78.6356 60.5492 76.6871Z" fill="#19657F"/>
<path d="M110.221 152.014C104.744 148.802 99.8398 144.014 94.8916 137.49" stroke="#2D3134" stroke-width="25.8134" stroke-miterlimit="10" stroke-linecap="round"/>
<path d="M194.064 90.5942H171.322C171.164 90.7853 170.993 90.9673 170.8 91.1322L146.968 111.51C150.599 114.249 155.117 115.874 160.016 115.874H175.963C187.942 115.874 197.654 106.163 197.654 94.1838C197.654 92.2014 196.046 90.5942 194.064 90.5942Z" fill="#E09500"/>
<path d="M144.701 136.123C142.423 134.747 141.692 131.786 143.068 129.508L149.106 119.509C152.698 113.562 153.318 106.096 150.807 99.0273C148.453 92.3957 149.348 85.2359 153.262 79.3829C159.516 70.0268 172.163 66.903 182.055 72.2732C187.392 75.1675 191.231 80.0065 192.823 85.8707C194.416 91.7372 193.562 97.8317 190.421 103.033C189.045 105.311 186.083 106.042 183.805 104.667C181.527 103.291 180.796 100.329 182.172 98.051C183.939 95.1255 184.418 91.6954 183.522 88.3953C182.627 85.0987 180.485 82.397 177.456 80.7421C171.897 77.7241 164.789 79.4803 161.273 84.739C159.069 88.0375 158.564 92.069 159.889 95.8023C163.371 105.603 162.447 116.061 157.355 124.491L151.317 134.49C149.941 136.767 146.979 137.499 144.701 136.123Z" fill="#19657F"/>
<path d="M174.927 79.7314C175.792 79.9726 176.642 80.3001 177.456 80.7422C178.788 81.4699 179.936 82.4099 180.894 83.504L188.929 78.0779C187.57 76.3397 185.948 74.8102 184.101 73.5361L174.927 79.7314Z" fill="#135A6D"/>
<path d="M165.232 70.6186L163.164 82.5543C165.145 80.7363 167.658 79.6342 170.281 79.3525L171.96 69.6635C169.677 69.6336 167.409 69.9659 165.232 70.6186Z" fill="#135A6D"/>
<path d="M161.722 103.664L150.344 97.5508C150.483 98.045 150.633 98.5378 150.807 99.027C151.616 101.305 152.096 103.625 152.26 105.921L161.792 111.044C162.036 108.614 162.013 106.141 161.722 103.664Z" fill="#135A6D"/>
<path d="M143.671 128.509L143.068 129.507C141.692 131.785 142.423 134.747 144.701 136.123C146.979 137.499 149.941 136.767 151.317 134.489L151.704 133.848L143.671 128.509Z" fill="#135A6D"/>
<path d="M193.551 90.2036L183.881 90.3916C184.114 92.6169 183.751 94.8424 182.795 96.8801L193.016 96.6816C193.517 94.5658 193.7 92.3888 193.551 90.2036Z" fill="#135A6D"/>
<path d="M149.809 88.1062L159.275 93.1923C158.978 90.8803 159.347 88.552 160.343 86.4245L151.833 81.8521C150.836 83.8473 150.161 85.9522 149.809 88.1062Z" fill="#135A6D"/>
<path d="M149.106 119.509L148.202 121.006L156.235 126.345L157.355 124.491C158.106 123.247 158.755 121.955 159.324 120.632L151.108 115.172C150.597 116.682 149.935 118.137 149.106 119.509Z" fill="#135A6D"/>
<path d="M186.206 131.924L150.576 122.377C149.112 121.985 147.609 122.854 147.217 124.317L144.474 134.552C144.082 136.015 144.95 137.519 146.413 137.911L182.044 147.458C183.507 147.85 185.011 146.982 185.403 145.519L188.145 135.283C188.537 133.82 187.669 132.317 186.206 131.924Z" fill="#E09500"/>
<g opacity="0.6">
<path d="M172.653 134.537C171.55 134.242 170.814 133.534 170.977 132.926C171.14 132.319 172.131 132.074 173.234 132.369C174.336 132.665 175.072 133.372 174.91 133.98C174.747 134.588 173.755 134.833 172.653 134.537ZM173.148 132.69C172.369 132.482 171.418 132.563 171.298 133.013C171.178 133.462 171.961 134.008 172.739 134.216C173.517 134.425 174.468 134.344 174.588 133.894C174.709 133.445 173.926 132.899 173.148 132.69Z" fill="#945534"/>
<path d="M173.773 133.477C173.659 133.9 173.225 134.151 172.802 134.038C172.379 133.925 172.128 133.49 172.242 133.067C172.355 132.644 172.789 132.393 173.212 132.507C173.635 132.62 173.886 133.055 173.773 133.477Z" fill="#945534"/>
<path d="M175.433 134.393L174.71 134.2C174.607 134.172 174.545 134.065 174.573 133.962C174.6 133.859 174.707 133.797 174.81 133.825L175.533 134.019C175.636 134.046 175.698 134.153 175.67 134.256C175.642 134.359 175.536 134.421 175.433 134.393Z" fill="#945534"/>
<path d="M176.152 134.385C176.097 134.592 175.884 134.715 175.677 134.659C175.47 134.604 175.347 134.391 175.402 134.184C175.458 133.977 175.671 133.854 175.878 133.91C176.085 133.965 176.208 134.178 176.152 134.385Z" fill="#945534"/>
<path d="M170.239 133.001L170.962 133.195C171.065 133.223 171.172 133.161 171.2 133.058C171.227 132.955 171.166 132.848 171.063 132.82L170.34 132.627C170.237 132.599 170.13 132.661 170.102 132.764C170.075 132.867 170.136 132.974 170.239 133.001Z" fill="#945534"/>
<path d="M169.62 132.635C169.565 132.842 169.688 133.055 169.895 133.11C170.102 133.166 170.314 133.043 170.37 132.836C170.425 132.629 170.303 132.416 170.096 132.36C169.889 132.305 169.676 132.428 169.62 132.635Z" fill="#945534"/>
<path d="M170.269 133.988C170.963 133.875 171.359 134.225 171.795 134.701C172.167 135.106 172.56 135.513 173.038 135.794C173.79 136.236 175.131 136.44 175.449 135.372C175.526 135.115 175.124 135.008 175.048 135.264C174.833 135.984 173.852 135.755 173.365 135.501C172.897 135.257 172.518 134.87 172.162 134.486C171.579 133.856 171.063 133.44 170.16 133.586C169.896 133.629 170.007 134.03 170.269 133.988Z" fill="#945534"/>
<path d="M171.231 131.695C172.127 130.965 173.6 131.322 174.424 131.99C175.127 132.561 175.644 133.471 176.684 133.285C176.947 133.238 176.837 132.837 176.575 132.884C175.854 133.013 175.386 132.325 174.933 131.89C174.568 131.539 174.14 131.269 173.663 131.097C172.78 130.778 171.691 130.786 170.939 131.4C170.731 131.569 171.026 131.863 171.231 131.695Z" fill="#945534"/>
</g>
<path opacity="0.6" d="M161.528 139.194C161.598 139.041 161.657 138.881 161.702 138.714C162.132 137.11 161.18 135.461 159.576 135.031C157.972 134.601 156.323 135.553 155.893 137.157C155.848 137.325 155.819 137.493 155.804 137.66L161.528 139.194Z" fill="#945534"/>
<path opacity="0.6" d="M160.688 131.024L160.37 128.881C160.36 128.808 160.309 128.747 160.239 128.722C160.169 128.698 160.092 128.714 160.038 128.765L158.931 129.797L158.688 128.492C158.675 128.423 158.627 128.366 158.561 128.342C158.495 128.318 158.422 128.33 158.367 128.374L157.21 129.31L156.893 128.001C156.876 127.931 156.823 127.876 156.753 127.856L156.751 127.856C156.683 127.837 156.609 127.857 156.559 127.908L155.38 129.097L154.963 127.515C154.945 127.446 154.892 127.392 154.823 127.373L154.821 127.373C154.751 127.355 154.677 127.376 154.627 127.428L153.698 128.403L153.165 127.014C153.139 126.948 153.081 126.901 153.013 126.889C152.944 126.877 152.873 126.903 152.828 126.956L151.965 127.965L151.522 126.517C151.5 126.447 151.441 126.394 151.369 126.38C151.296 126.366 151.222 126.394 151.176 126.452L149.829 128.149C149.761 128.235 149.776 128.36 149.862 128.428C149.884 128.446 149.908 128.458 149.934 128.465C150.008 128.485 150.09 128.46 150.141 128.396L151.252 126.995L151.69 128.427C151.711 128.496 151.769 128.548 151.84 128.563C151.911 128.578 151.984 128.553 152.031 128.498L152.913 127.468L153.44 128.839C153.465 128.903 153.52 128.95 153.587 128.963C153.654 128.976 153.723 128.954 153.77 128.905L154.669 127.96L155.055 129.424C155.083 129.531 155.191 129.594 155.298 129.566C155.302 129.565 155.306 129.563 155.311 129.561C155.382 129.589 155.467 129.574 155.525 129.516L156.59 128.441L156.897 129.709C156.914 129.775 156.962 129.828 157.027 129.85C157.091 129.872 157.163 129.859 157.216 129.816L158.358 128.893L158.606 130.225C158.62 130.297 158.671 130.355 158.74 130.378C158.808 130.4 158.884 130.384 158.937 130.334L160.032 129.313L160.294 131.082C160.306 131.163 160.365 131.225 160.44 131.245C160.465 131.252 160.492 131.254 160.52 131.25C160.629 131.234 160.704 131.133 160.688 131.024Z" fill="#945534"/>
<path opacity="0.6" d="M159.936 133.759L159.618 131.616C159.607 131.543 159.557 131.482 159.487 131.457C159.417 131.433 159.34 131.449 159.286 131.5L158.179 132.532L157.936 131.227C157.923 131.158 157.875 131.101 157.809 131.076C157.743 131.053 157.67 131.064 157.615 131.108L156.458 132.045L156.141 130.736C156.124 130.666 156.071 130.611 156.001 130.591L155.999 130.591C155.93 130.572 155.857 130.592 155.807 130.643L154.628 131.832L154.211 130.25C154.193 130.181 154.139 130.127 154.071 130.108L154.069 130.108C153.999 130.09 153.925 130.111 153.875 130.163L152.946 131.138L152.412 129.749C152.387 129.683 152.329 129.636 152.261 129.624C152.192 129.612 152.121 129.638 152.076 129.691L151.212 130.699L150.77 129.252C150.748 129.181 150.689 129.129 150.617 129.115C150.544 129.101 150.47 129.129 150.424 129.187L149.077 130.884C149.009 130.97 149.024 131.095 149.11 131.163C149.132 131.181 149.156 131.193 149.182 131.199C149.256 131.219 149.338 131.195 149.389 131.131L150.5 129.73L150.938 131.162C150.959 131.231 151.017 131.283 151.088 131.298C151.159 131.313 151.232 131.288 151.279 131.233L152.161 130.203L152.688 131.574C152.713 131.638 152.768 131.685 152.835 131.698C152.902 131.711 152.971 131.689 153.018 131.64L153.918 130.695L154.303 132.159C154.331 132.265 154.44 132.329 154.546 132.301C154.55 132.3 154.554 132.297 154.559 132.296C154.63 132.324 154.715 132.309 154.773 132.251L155.839 131.176L156.146 132.443C156.162 132.51 156.21 132.563 156.275 132.585C156.339 132.607 156.411 132.594 156.464 132.551L157.606 131.627L157.854 132.96C157.868 133.032 157.919 133.09 157.988 133.113C158.056 133.135 158.132 133.119 158.185 133.069L159.28 132.048L159.542 133.817C159.554 133.898 159.613 133.96 159.688 133.98C159.713 133.987 159.74 133.989 159.768 133.985C159.877 133.969 159.952 133.868 159.936 133.759Z" fill="#945534"/>
<g opacity="0.6">
<path d="M179.725 138.422C180.165 138.383 180.459 138.112 180.601 137.7C180.713 137.376 180.671 137.019 180.782 136.696C180.919 136.298 181.255 135.991 181.645 135.84C182.969 135.326 184.368 136.632 183.831 137.973C183.592 138.57 182.978 138.977 182.334 139.006C181.858 139.027 181.475 138.849 181.25 139.382C180.976 140.03 180.854 140.789 180.666 141.468C180.451 142.246 180.236 143.024 180.021 143.802C179.933 144.122 180.435 144.257 180.523 143.937C180.774 143.029 181.025 142.121 181.276 141.213C181.384 140.824 181.491 140.435 181.599 140.046C181.665 139.809 181.665 139.57 181.946 139.496C182.066 139.464 182.278 139.528 182.411 139.519C183.559 139.439 184.515 138.462 184.457 137.305C184.4 136.143 183.465 135.204 182.279 135.207C181.733 135.209 181.185 135.407 180.784 135.777C180.555 135.989 180.371 136.263 180.279 136.562C180.163 136.944 180.286 137.856 179.72 137.906C179.39 137.935 179.391 138.451 179.725 138.422Z" fill="#945534"/>
</g>
<g opacity="0.6">
<path d="M166.826 141.006C166.615 140.95 166.489 140.731 166.545 140.521L167.865 135.596C167.921 135.385 168.14 135.259 168.35 135.316C168.561 135.372 168.687 135.591 168.631 135.801L167.311 140.726C167.255 140.936 167.036 141.063 166.826 141.006Z" fill="#945534"/>
<path d="M169.89 141.827C169.679 141.771 169.553 141.552 169.609 141.342L170.929 136.417C170.985 136.207 171.204 136.081 171.414 136.137C171.625 136.193 171.751 136.412 171.695 136.623L170.375 141.547C170.319 141.758 170.1 141.884 169.89 141.827Z" fill="#945534"/>
<path d="M171.531 142.267C171.321 142.21 171.194 141.992 171.251 141.781L172.57 136.857C172.627 136.646 172.845 136.52 173.056 136.576C173.267 136.633 173.393 136.851 173.336 137.062L172.017 141.987C171.96 142.197 171.742 142.323 171.531 142.267Z" fill="#945534"/>
<path d="M173.282 142.736C173.071 142.68 172.945 142.461 173.002 142.251L174.321 137.326C174.378 137.115 174.596 136.989 174.807 137.046C175.017 137.102 175.144 137.321 175.087 137.531L173.768 142.456C173.711 142.666 173.493 142.793 173.282 142.736Z" fill="#945534"/>
<path d="M174.924 143.176C174.713 143.12 174.587 142.901 174.643 142.69L175.963 137.766C176.019 137.555 176.238 137.429 176.448 137.486C176.659 137.542 176.785 137.761 176.729 137.971L175.409 142.896C175.353 143.106 175.134 143.232 174.924 143.176Z" fill="#945534"/>
<path d="M168.358 141.417C168.147 141.36 168.021 141.142 168.077 140.931L169.397 136.007C169.453 135.796 169.672 135.67 169.883 135.726C170.093 135.783 170.219 136.001 170.163 136.212L168.843 141.136C168.787 141.347 168.568 141.473 168.358 141.417Z" fill="#945534"/>
</g>
<path opacity="0.6" d="M150.249 134.548C150.107 135.081 149.559 135.397 149.027 135.254C148.495 135.111 148.179 134.564 148.322 134.032C148.464 133.5 149.011 133.184 149.544 133.326C150.076 133.469 150.392 134.016 150.249 134.548Z" fill="#945534"/>
</g>
</g>
<defs>
<clipPath id="clip0_4073_44571">
<rect width="240" height="240" fill="white" transform="translate(0 0.166504)"/>
</clipPath>
<clipPath id="clip1_4073_44571">
<rect width="155.969" height="240" fill="white" transform="translate(41.6849 0.0581055)"/>
</clipPath>
</defs>
</svg>
