<svg width="240" height="241" viewBox="0 0 240 241" fill="none" xmlns="http://www.w3.org/2000/svg">
<g clip-path="url(#clip0_4073_26129)">
<path d="M15.6998 172.061C6.77872 155.597 45.2126 117.505 101.544 86.9816C157.876 56.4578 210.774 45.0599 219.695 61.5237" stroke="#442700" stroke-width="12" stroke-miterlimit="10"/>
<path d="M113.312 44.3513C103.431 45.7831 82.7704 45.7893 69.6205 54.273C56.4706 62.757 42.8964 81.4214 42.048 93.2987C41.1997 105.176 40.7754 130.203 43.7449 136.142C46.7143 142.081 50.9562 160.745 61.1367 170.502C71.3172 180.258 98.4657 197.226 112.888 196.377C127.311 195.529 149.793 185.39 157.004 183.269C164.215 181.148 174.82 170.501 184.576 158.624C194.333 146.747 197.302 127.234 193.909 111.539C190.515 95.8436 188.118 78.4518 182.031 69.5438C175.945 60.6358 156.156 43.927 140.461 41.3818C124.765 38.8367 119.386 43.4714 113.312 44.3513Z" fill="#C97926"/>
<path opacity="0.7" d="M68.772 62.7569C53.9948 70.1456 46.2901 99.6615 47.9867 114.932C49.6835 130.203 58.5915 141.232 63.2576 151.413C67.9239 161.593 75.5592 167.532 82.3463 169.229C89.1334 170.926 102.283 166.26 110.767 166.26C119.251 166.26 125.614 156.503 132.825 149.292C140.036 142.081 152.338 138.263 157.428 131.9C162.519 125.537 171.851 114.932 172.275 107.297C172.699 99.6615 172.275 77.6035 165.488 67.423C158.701 57.2424 139.188 47.486 130.704 47.9101C122.22 48.3344 109.494 55.1214 103.98 55.1214C98.4656 55.1214 77.256 58.515 68.772 62.7569Z" fill="#E6A240"/>
<path opacity="0.7" d="M172.391 129.779C169.393 131.603 147.247 149.716 146.823 153.958C146.399 158.2 148.944 166.26 154.459 164.139C159.973 162.018 162.942 153.958 168.881 149.716C174.82 145.474 178.481 126.074 172.391 129.779Z" fill="#E6A240"/>
<path d="M112.888 196.377C127.311 195.529 149.793 185.39 157.004 183.269C164.215 181.148 174.82 170.501 184.576 158.624C194.333 146.747 197.302 127.234 193.909 111.539C193.455 109.443 193.02 107.316 192.591 105.184C194.668 125.978 190.336 149.124 179.486 155.23C168.636 161.337 157.852 177.713 148.52 179.409C139.188 181.106 131.128 186.197 112.04 188.742C92.9511 191.287 61.1367 170.501 50.382 153.418L50.3792 153.428C53.0064 159.599 56.4382 165.999 61.1367 170.501C71.3172 180.258 98.4655 197.226 112.888 196.377Z" fill="#A86120"/>
<g filter="url(#filter0_d_4073_26129)">
<path d="M114.797 61.007C110.501 60.7001 106.207 66.0973 107.48 68.0061C108.752 69.915 113.683 73.8917 116.069 72.4601C118.455 71.0284 119.251 61.3251 114.797 61.007Z" fill="#6B3310"/>
</g>
<g filter="url(#filter1_d_4073_26129)">
<path d="M110.073 111.751C106.64 110.738 100.958 121.295 102.548 123.522C104.139 125.749 108.213 128.772 110.073 127.022C111.934 125.272 116.007 113.501 110.073 111.751Z" fill="#6B3310"/>
</g>
<g filter="url(#filter2_d_4073_26129)">
<path d="M102.273 154.859C98.4193 155.336 100.408 160.478 102.273 160.532C104.139 160.586 106.134 154.382 102.273 154.859Z" fill="#6B3310"/>
</g>
<g filter="url(#filter3_d_4073_26129)">
<path d="M143.426 122.568C139.761 122.735 139.294 128.135 141.203 128.613C143.111 129.09 146.944 130.135 146.778 127.545C146.611 124.954 146.921 122.409 143.426 122.568Z" fill="#6B3310"/>
</g>
<g filter="url(#filter4_d_4073_26129)">
<path d="M148.997 68.8015C143.572 69.4719 133.408 74.369 132.931 78.9821C132.454 83.5952 135.635 93.4575 138.817 94.8893C141.998 96.321 151.224 96.639 155.201 93.7757C159.178 90.9124 162.836 88.2083 162.359 83.1179C161.882 78.0276 153.597 68.2332 148.997 68.8015Z" fill="#6B3310"/>
<path d="M143.442 74.21C139.841 74.21 135.635 79.0719 136.431 82.3676C137.226 85.6631 140.241 93.4576 143.426 92.026C146.611 90.5943 148.385 74.21 143.442 74.21Z" fill="#93572E"/>
</g>
<g filter="url(#filter5_d_4073_26129)">
<path d="M78.5283 75.9597C73.3593 78.5053 62.4622 88.6855 65.3254 94.5712C68.1887 100.457 77.4149 108.41 82.1871 106.82C86.9591 105.229 95.5491 96.0499 95.39 91.4928C95.2308 86.9357 83.6007 73.4618 78.5283 75.9597Z" fill="#6B3310"/>
<path d="M80.1231 79.9366C76.8222 78.2793 67.7116 88.6856 68.8252 93.1396C69.9386 97.5936 74.3926 102.207 77.415 99.8206C80.4373 97.4345 84.5507 82.1596 80.1231 79.9366Z" fill="#93572E"/>
</g>
<g filter="url(#filter6_d_4073_26129)">
<path d="M66.28 131.158C58.0488 133.216 53.077 142.439 55.4631 146.9C57.8492 151.36 67.8708 163.29 72.961 159.95C78.0513 156.609 81.8768 153.905 80.1232 148.974C78.3695 144.043 73.2793 129.408 66.28 131.158Z" fill="#6B3310"/>
<path d="M66.5981 135.294C62.2576 134.374 58.3264 144.03 59.9171 146.9C61.5079 149.769 70.4158 151.507 71.3703 146.9C72.3247 142.293 72.6184 136.569 66.5981 135.294Z" fill="#93572E"/>
</g>
<g filter="url(#filter7_d_4073_26129)">
<path d="M124.182 150.796C119.249 152.148 113.047 166.949 116.865 170.926C120.682 174.903 134.522 175.221 137.385 172.994C140.248 170.767 145.179 164.722 142.793 158.995C140.407 153.269 134.363 148.005 124.182 150.796Z" fill="#6B3310"/>
<path d="M126.091 154.064C122.572 154.582 117.978 161.868 120.205 164.488C122.432 167.108 130.29 163.971 132.883 162.199C135.476 160.427 136.908 152.473 126.091 154.064Z" fill="#93572E"/>
</g>
<g filter="url(#filter8_d_4073_26129)">
<path d="M174.767 105.184C169.651 103.43 162.125 109.365 162.401 114.933C162.678 120.5 164.611 132.259 169.132 132.185C173.653 132.112 178.585 132.403 180.016 125.895C181.448 119.386 181.13 107.366 174.767 105.184Z" fill="#6B3310"/>
<path d="M168.881 108.749C163.067 111.683 164.109 121.918 166.654 122.561C169.2 123.204 175.085 116.046 174.449 112.387C173.813 108.729 173.953 106.19 168.881 108.749Z" fill="#93572E"/>
</g>
<path style="mix-blend-mode:overlay" opacity="0.5" d="M113.312 44.3513C103.431 45.7831 82.7704 45.7893 69.6205 54.273C56.4706 62.757 42.8964 81.4214 42.048 93.2987C41.1997 105.176 40.7754 130.203 43.7449 136.142C46.7143 142.081 50.9562 160.745 61.1367 170.502C71.3172 180.258 98.4657 197.226 112.888 196.377C127.311 195.529 149.793 185.39 157.004 183.269C164.215 181.148 174.82 170.501 184.576 158.624C194.333 146.747 197.302 127.234 193.909 111.539C190.515 95.8436 188.118 78.4518 182.031 69.5438C175.945 60.6358 156.156 43.927 140.461 41.3818C124.765 38.8367 119.386 43.4714 113.312 44.3513Z" fill="url(#paint0_linear_4073_26129)"/>
<path d="M213.825 194.801C209.664 194.801 212.639 201.004 215.193 199.909C217.747 198.815 217.929 194.801 213.825 194.801Z" fill="#C97926"/>
<path d="M229.925 156.562C225.764 156.562 228.739 162.765 231.293 161.67C233.847 160.576 234.03 156.562 229.925 156.562Z" fill="#C97926"/>
<path d="M183.579 188.517C180.395 191.071 184.773 197.007 186.962 194.222C189.151 191.436 186.763 185.963 183.579 188.517Z" fill="#C97926"/>
<path d="M210.585 153.586C205.685 156.943 200.579 164.531 203.94 167.45C207.301 170.368 218.429 172.922 220.892 167.45C223.355 161.977 215.674 150.098 210.585 153.586Z" fill="#C97926"/>
<path d="M207.413 169.352C212.083 171.123 219.011 171.63 220.892 167.45C222.247 164.438 220.528 159.489 217.862 156.226C221.019 167.957 208.249 169.278 207.413 169.352Z" fill="#A86120"/>
<path d="M22.1469 88.1031C17.2475 91.4603 12.1414 99.0484 15.5025 101.967C18.8634 104.886 29.9911 107.44 32.4539 101.967C34.9166 96.4946 27.2365 84.6158 22.1469 88.1031Z" fill="#C97926"/>
<path d="M18.9753 103.869C23.6446 105.641 30.5727 106.147 32.4537 101.967C33.8091 98.9554 32.0901 94.0067 29.4237 90.7434C32.5808 102.475 19.8106 103.796 18.9753 103.869Z" fill="#A86120"/>
<path d="M219.695 61.5237C228.616 77.9875 190.182 116.079 133.85 146.603C77.5188 177.127 24.6209 188.524 15.6997 172.06" stroke="#442700" stroke-width="12" stroke-miterlimit="10"/>
</g>
<defs>
<filter id="filter0_d_4073_26129" x="107.252" y="60.9944" width="11.7618" height="12.7831" filterUnits="userSpaceOnUse" color-interpolation-filters="sRGB">
<feFlood flood-opacity="0" result="BackgroundImageFix"/>
<feColorMatrix in="SourceAlpha" type="matrix" values="0 0 0 0 0 0 0 0 0 0 0 0 0 0 0 0 0 0 127 0" result="hardAlpha"/>
<feOffset dx="1.0128" dy="1.0128"/>
<feColorMatrix type="matrix" values="0 0 0 0 0.203922 0 0 0 0 0.0666667 0 0 0 0 0.34902 0 0 0 0.3 0"/>
<feBlend mode="normal" in2="BackgroundImageFix" result="effect1_dropShadow_4073_26129"/>
<feBlend mode="normal" in="SourceGraphic" in2="effect1_dropShadow_4073_26129" result="shape"/>
</filter>
<filter id="filter1_d_4073_26129" x="102.273" y="111.683" width="11.9137" height="16.8746" filterUnits="userSpaceOnUse" color-interpolation-filters="sRGB">
<feFlood flood-opacity="0" result="BackgroundImageFix"/>
<feColorMatrix in="SourceAlpha" type="matrix" values="0 0 0 0 0 0 0 0 0 0 0 0 0 0 0 0 0 0 127 0" result="hardAlpha"/>
<feOffset dx="1.0128" dy="1.0128"/>
<feColorMatrix type="matrix" values="0 0 0 0 0.203922 0 0 0 0 0.0666667 0 0 0 0 0.34902 0 0 0 0.3 0"/>
<feBlend mode="normal" in2="BackgroundImageFix" result="effect1_dropShadow_4073_26129"/>
<feBlend mode="normal" in="SourceGraphic" in2="effect1_dropShadow_4073_26129" result="shape"/>
</filter>
<filter id="filter2_d_4073_26129" x="100.067" y="154.833" width="5.42808" height="6.71177" filterUnits="userSpaceOnUse" color-interpolation-filters="sRGB">
<feFlood flood-opacity="0" result="BackgroundImageFix"/>
<feColorMatrix in="SourceAlpha" type="matrix" values="0 0 0 0 0 0 0 0 0 0 0 0 0 0 0 0 0 0 127 0" result="hardAlpha"/>
<feOffset dx="1.0128" dy="1.0128"/>
<feColorMatrix type="matrix" values="0 0 0 0 0.203922 0 0 0 0 0.0666667 0 0 0 0 0.34902 0 0 0 0.3 0"/>
<feBlend mode="normal" in2="BackgroundImageFix" result="effect1_dropShadow_4073_26129"/>
<feBlend mode="normal" in="SourceGraphic" in2="effect1_dropShadow_4073_26129" result="shape"/>
</filter>
<filter id="filter3_d_4073_26129" x="140.101" y="122.561" width="7.69493" height="7.68101" filterUnits="userSpaceOnUse" color-interpolation-filters="sRGB">
<feFlood flood-opacity="0" result="BackgroundImageFix"/>
<feColorMatrix in="SourceAlpha" type="matrix" values="0 0 0 0 0 0 0 0 0 0 0 0 0 0 0 0 0 0 127 0" result="hardAlpha"/>
<feOffset dx="1.0128" dy="1.0128"/>
<feColorMatrix type="matrix" values="0 0 0 0 0.203922 0 0 0 0 0.0666667 0 0 0 0 0.34902 0 0 0 0.3 0"/>
<feBlend mode="normal" in2="BackgroundImageFix" result="effect1_dropShadow_4073_26129"/>
<feBlend mode="normal" in="SourceGraphic" in2="effect1_dropShadow_4073_26129" result="shape"/>
</filter>
<filter id="filter4_d_4073_26129" x="132.883" y="68.7778" width="30.5309" height="28.1922" filterUnits="userSpaceOnUse" color-interpolation-filters="sRGB">
<feFlood flood-opacity="0" result="BackgroundImageFix"/>
<feColorMatrix in="SourceAlpha" type="matrix" values="0 0 0 0 0 0 0 0 0 0 0 0 0 0 0 0 0 0 127 0" result="hardAlpha"/>
<feOffset dx="1.0128" dy="1.0128"/>
<feColorMatrix type="matrix" values="0 0 0 0 0.203922 0 0 0 0 0.0666667 0 0 0 0 0.34902 0 0 0 0.3 0"/>
<feBlend mode="normal" in2="BackgroundImageFix" result="effect1_dropShadow_4073_26129"/>
<feBlend mode="normal" in="SourceGraphic" in2="effect1_dropShadow_4073_26129" result="shape"/>
</filter>
<filter id="filter5_d_4073_26129" x="64.8538" y="75.6536" width="31.5511" height="32.3851" filterUnits="userSpaceOnUse" color-interpolation-filters="sRGB">
<feFlood flood-opacity="0" result="BackgroundImageFix"/>
<feColorMatrix in="SourceAlpha" type="matrix" values="0 0 0 0 0 0 0 0 0 0 0 0 0 0 0 0 0 0 127 0" result="hardAlpha"/>
<feOffset dx="1.0128" dy="1.0128"/>
<feColorMatrix type="matrix" values="0 0 0 0 0.203922 0 0 0 0 0.0666667 0 0 0 0 0.34902 0 0 0 0.3 0"/>
<feBlend mode="normal" in2="BackgroundImageFix" result="effect1_dropShadow_4073_26129"/>
<feBlend mode="normal" in="SourceGraphic" in2="effect1_dropShadow_4073_26129" result="shape"/>
</filter>
<filter id="filter6_d_4073_26129" x="54.864" y="131.013" width="26.704" height="30.5314" filterUnits="userSpaceOnUse" color-interpolation-filters="sRGB">
<feFlood flood-opacity="0" result="BackgroundImageFix"/>
<feColorMatrix in="SourceAlpha" type="matrix" values="0 0 0 0 0 0 0 0 0 0 0 0 0 0 0 0 0 0 127 0" result="hardAlpha"/>
<feOffset dx="1.0128" dy="1.0128"/>
<feColorMatrix type="matrix" values="0 0 0 0 0.203922 0 0 0 0 0.0666667 0 0 0 0 0.34902 0 0 0 0.3 0"/>
<feBlend mode="normal" in2="BackgroundImageFix" result="effect1_dropShadow_4073_26129"/>
<feBlend mode="normal" in="SourceGraphic" in2="effect1_dropShadow_4073_26129" result="shape"/>
</filter>
<filter id="filter7_d_4073_26129" x="115.679" y="150.025" width="28.7591" height="25.3607" filterUnits="userSpaceOnUse" color-interpolation-filters="sRGB">
<feFlood flood-opacity="0" result="BackgroundImageFix"/>
<feColorMatrix in="SourceAlpha" type="matrix" values="0 0 0 0 0 0 0 0 0 0 0 0 0 0 0 0 0 0 127 0" result="hardAlpha"/>
<feOffset dx="1.0128" dy="1.0128"/>
<feColorMatrix type="matrix" values="0 0 0 0 0.203922 0 0 0 0 0.0666667 0 0 0 0 0.34902 0 0 0 0.3 0"/>
<feBlend mode="normal" in2="BackgroundImageFix" result="effect1_dropShadow_4073_26129"/>
<feBlend mode="normal" in="SourceGraphic" in2="effect1_dropShadow_4073_26129" result="shape"/>
</filter>
<filter id="filter8_d_4073_26129" x="162.394" y="104.871" width="19.3351" height="28.328" filterUnits="userSpaceOnUse" color-interpolation-filters="sRGB">
<feFlood flood-opacity="0" result="BackgroundImageFix"/>
<feColorMatrix in="SourceAlpha" type="matrix" values="0 0 0 0 0 0 0 0 0 0 0 0 0 0 0 0 0 0 127 0" result="hardAlpha"/>
<feOffset dx="1.0128" dy="1.0128"/>
<feColorMatrix type="matrix" values="0 0 0 0 0.203922 0 0 0 0 0.0666667 0 0 0 0 0.34902 0 0 0 0.3 0"/>
<feBlend mode="normal" in2="BackgroundImageFix" result="effect1_dropShadow_4073_26129"/>
<feBlend mode="normal" in="SourceGraphic" in2="effect1_dropShadow_4073_26129" result="shape"/>
</filter>
<linearGradient id="paint0_linear_4073_26129" x1="79.5313" y1="48.5036" x2="157.47" y2="183.497" gradientUnits="userSpaceOnUse">
<stop stop-color="#F2A6AC"/>
<stop offset="1" stop-color="#3B688B"/>
</linearGradient>
<clipPath id="clip0_4073_26129">
<rect width="226.252" height="159.412" fill="white" transform="translate(6.87427 40.6272)"/>
</clipPath>
</defs>
</svg>
