<svg width="240" height="241" viewBox="0 0 240 241" fill="none" xmlns="http://www.w3.org/2000/svg">
<g clip-path="url(#clip0_4056_13377)">
<g clip-path="url(#clip1_4056_13377)">
<path d="M227.42 126.39V240.333H12.5801V126.39L119.999 82.1714L227.42 126.39Z" fill="white"/>
<path d="M227.42 126.39V136.741L119.961 92.0146L12.5801 138.303V126.39L119.999 82.1714L227.42 126.39Z" fill="#EDEDED"/>
<path d="M194.38 145.92H45.6211V240.333H194.38V145.92Z" fill="#0E380E"/>
<path d="M196.81 145.92H43.165V170.985H196.81V145.92Z" fill="#E0E0E0"/>
<path d="M196.81 161.156H43.165V162.523H196.81V161.156Z" fill="#C0C0C0"/>
<path d="M196.81 153.994H43.165V155.361H196.81V153.994Z" fill="#C0C0C0"/>
<path d="M200.566 143.478H39.4359V148.363H200.566V143.478Z" fill="#9ECCA6"/>
<path d="M200.566 141.038H39.4359V145.92H200.566V141.038Z" fill="#B0E2BA"/>
<path d="M165.392 118.263H74.6086C73.0915 118.263 71.8617 119.492 71.8617 121.01V133.429C71.8617 134.946 73.0915 136.176 74.6086 136.176H165.392C166.909 136.176 168.138 134.946 168.138 133.429V121.01C168.138 119.492 166.909 118.263 165.392 118.263Z" fill="#BBDBEA"/>
<path d="M99.4195 112.801H95.0278V136.176H99.4195V112.801Z" fill="white"/>
<path d="M144.972 112.801H140.58V136.176H144.972V112.801Z" fill="white"/>
<path d="M4.63903 136.979L0 126.221L119.883 74.5253L240 124.52L235.498 135.338L119.967 87.2506L4.63903 136.979Z" fill="#70C253"/>
<path d="M137.425 198.916H113.887V230.393H112.205V208.442C112.205 207.936 111.792 207.518 111.285 207.518H110.385C110.243 207.518 110.11 207.557 109.987 207.617V193.806C109.987 193.073 109.386 192.478 108.659 192.478H103.593C102.86 192.478 102.26 193.073 102.26 193.806V212.721H101.149L95.2466 189.448C95.1484 188.165 94.0172 187.152 92.6398 187.152H72.6669C71.226 187.152 70.0506 188.263 70.0506 189.63V205.915C70.0063 205.91 69.967 205.89 69.9176 205.89H48.6268C47.9479 205.89 47.3873 206.446 47.3873 207.13V209.436C47.3873 210.115 47.9478 210.676 48.6268 210.676H50.3628C50.2742 211.025 50.2203 211.384 50.2203 211.757V228.676C50.2203 231.189 52.2615 233.231 54.7746 233.231H55.7828C55.7778 233.314 55.7582 233.393 55.7582 233.476C55.7582 237.18 58.7633 240.185 62.4715 240.185C65.0682 240.185 67.2912 238.695 68.4077 236.54C68.4913 237.234 68.9487 237.858 69.6572 238.095C69.8537 238.159 70.0506 238.193 70.2475 238.193C70.8524 238.193 71.4179 237.888 71.7619 237.387C71.9442 237.406 72.116 237.431 72.3033 237.431H89.5662C90.2496 237.431 90.9038 237.278 91.494 236.998C91.7745 237.726 92.4681 238.193 93.2154 238.193C93.4073 238.193 93.6088 238.159 93.8007 238.095C94.5777 237.839 95.0451 237.121 95.0547 236.349C96.1319 238.611 98.4239 240.185 101.095 240.185C104.803 240.185 107.808 237.18 107.808 233.476C107.808 231.902 107.242 230.471 106.332 229.325C106.992 229.567 107.759 229.434 108.285 228.907C108.929 228.263 108.968 227.28 108.472 226.556H108.659C108.964 226.556 109.234 226.434 109.46 226.256V231.79C109.46 232.065 109.588 232.301 109.775 232.468C110.001 232.734 110.326 232.911 110.7 232.911H133.481C134.16 232.911 134.72 232.355 134.72 231.671V231.632C134.72 231.46 134.681 231.298 134.617 231.145H142.668V198.916L137.425 198.916ZM72.667 189.631H92.6398C92.7234 189.631 92.7677 189.66 92.7728 189.64C92.7778 189.739 92.7874 189.837 92.8121 189.935L98.6058 212.776C98.424 212.815 98.2518 212.884 98.0896 212.963L94.9616 206.008C95.3303 205.748 95.4924 205.261 95.301 204.833L95.163 204.533C94.9465 204.046 94.3663 203.829 93.8793 204.046L89.1533 206.17C88.6662 206.392 88.4497 206.972 88.6662 207.459L88.7987 207.754C89.0203 208.241 89.6004 208.462 90.0875 208.241L93.845 206.549L97.1352 213.863C96.9388 214.197 96.8204 214.576 96.8204 214.989V221.117C96.8204 221.491 96.9192 221.835 97.0814 222.15H91.4055C91.8975 221.501 92.1976 220.709 92.1976 219.838V218.874C92.1976 216.868 90.6384 215.23 88.6712 215.063C89.1336 214.615 89.4237 213.986 89.4237 213.292C89.4237 211.925 88.3122 210.818 86.9448 210.818H81.3969C81.0182 210.818 80.6641 210.907 80.3443 211.06L77.251 204.346C76.9116 203.608 76.0262 203.278 75.2884 203.623C74.5506 203.962 74.2262 204.843 74.5657 205.581L77.7229 212.436C77.949 212.923 78.4214 213.208 78.9231 213.263V213.292C78.9231 213.971 79.1935 214.585 79.6362 215.028H75.4999C74.2997 215.028 73.2376 215.599 72.5295 216.47L72.5195 189.68C72.5245 189.67 72.5738 189.631 72.667 189.631Z" fill="#062606"/>
<path d="M194.38 186.166H170.901V240.333H194.38V186.166Z" fill="#062606"/>
<path d="M175.001 199.579H153.794V240.333H175.001V199.579Z" fill="#062606"/>
</g>
</g>
<defs>
<clipPath id="clip0_4056_13377">
<rect width="240" height="240" fill="white" transform="translate(0 0.333374)"/>
</clipPath>
<clipPath id="clip1_4056_13377">
<rect width="240" height="165.808" fill="white" transform="translate(0 74.5253)"/>
</clipPath>
</defs>
</svg>
