<svg width="240" height="240" viewBox="0 0 240 240" fill="none" xmlns="http://www.w3.org/2000/svg">
<g clip-path="url(#clip0_4056_13390)">
<path d="M143.916 129.785H90.8828V123.996C90.8828 120.543 93.6768 117.743 97.1233 117.743H137.675C141.122 117.743 143.916 120.543 143.916 123.996L143.916 129.785Z" fill="#696969"/>
<path d="M197.948 170.04H39.9935V148.785C47.3987 141.365 51.5504 137.205 58.9555 129.785H178.986C186.391 137.205 190.543 141.365 197.948 148.785V170.04Z" fill="white"/>
<path d="M197.948 148.785H39.9935V170.04H197.948V148.785Z" fill="#DEDEDE"/>
<path d="M208.849 170.04H31.1507C28.306 170.04 26 172.351 26 175.201V175.201C26 178.051 28.306 180.362 31.1507 180.362H208.849C211.694 180.362 214 178.051 214 175.201C214 172.351 211.694 170.04 208.849 170.04Z" fill="#1A1A1A"/>
<path d="M97.5326 152.961H54.6104V165.863H97.5326V152.961Z" fill="#B5B5B5"/>
<path d="M173.253 200.661H64.6889L39.9935 180.362H197.948L173.253 200.661Z" fill="#A1A1A1"/>
<path d="M84.6096 214.417L84.6104 208.426L83.3703 208.426C83.2085 206.818 82.8845 205.26 82.4576 203.745L83.6193 203.265L81.3387 197.726L80.2327 198.184C79.4581 196.746 78.5474 195.395 77.5386 194.126L78.3991 193.263L74.1712 189.027L73.3346 189.865C72.0971 188.861 70.7715 187.962 69.3698 187.183L69.8275 186.079L64.3064 183.779L63.8524 184.874C62.312 184.418 60.7188 184.088 59.0786 183.909V182.706H53.0996V183.909C51.4926 184.084 49.9325 184.408 48.4213 184.849L47.9474 183.7L42.4201 185.985L42.8929 187.132C41.4714 187.915 40.1311 188.825 38.8778 189.84L37.9663 188.927L33.7392 193.164L34.6652 194.091C33.6822 195.324 32.7934 196.636 32.0312 198.029L30.7953 197.514L28.4991 203.046L29.7645 203.573C29.3247 205.096 28.9982 206.667 28.827 208.287L27.4282 208.287L27.4293 214.278L28.8474 214.277C29.0222 215.857 29.3392 217.392 29.77 218.879L28.4178 219.438L30.6986 224.977L32.043 224.421C32.8114 225.823 33.7059 227.144 34.6981 228.383L33.6406 229.443L37.8675 233.678L38.9205 232.623C40.1299 233.598 41.4212 234.474 42.7867 235.234L42.2096 236.626L47.731 238.926L48.3014 237.551C49.8058 237.997 51.3623 238.318 52.9623 238.5L52.9625 240L58.9403 240L58.94 238.543C60.516 238.379 62.0429 238.06 63.528 237.641L64.0911 239.007L69.6187 236.722L69.0798 235.414C70.4917 234.652 71.8176 233.756 73.0668 232.766L74.0743 233.775L78.3025 229.54L77.3379 228.574C78.3308 227.355 79.2126 226.044 79.9878 224.665L81.2445 225.188L83.5402 219.656L82.3376 219.155C82.7971 217.628 83.121 216.043 83.3096 214.417L84.6096 214.417Z" fill="#0A0A0A"/>
<path d="M56.0888 229.085C65.9385 229.085 73.9233 221.084 73.9233 211.215C73.9233 201.346 65.9385 193.345 56.0888 193.345C46.2391 193.345 38.2544 201.346 38.2544 211.215C38.2544 221.084 46.2391 229.085 56.0888 229.085Z" fill="#575757"/>
<path d="M64.3877 211.215C64.3877 215.808 60.6721 219.53 56.0888 219.53C51.5055 219.53 47.7902 215.808 47.7902 211.215C47.7902 206.623 51.5058 202.9 56.0888 202.9C60.6718 202.9 64.3877 206.623 64.3877 211.215Z" fill="#B3B3B3"/>
<path d="M213.999 214.417L214 208.426L212.76 208.426C212.598 206.818 212.274 205.26 211.847 203.745L213.009 203.265L210.728 197.726L209.622 198.184C208.847 196.746 207.937 195.395 206.928 194.126L207.789 193.263L203.561 189.027L202.724 189.865C201.487 188.861 200.161 187.962 198.759 187.183L199.217 186.079L193.696 183.779L193.242 184.874C191.702 184.418 190.108 184.088 188.468 183.909V182.706H182.489V183.909C180.882 184.084 179.322 184.408 177.811 184.849L177.337 183.7L171.81 185.985L172.282 187.132C170.861 187.915 169.521 188.825 168.267 189.84L167.356 188.927L163.129 193.164L164.055 194.091C163.072 195.324 162.183 196.636 161.421 198.029L160.185 197.514L157.889 203.046L159.154 203.573C158.714 205.096 158.388 206.667 158.217 208.287L156.818 208.287L156.819 214.278L158.237 214.277C158.412 215.857 158.729 217.392 159.16 218.879L157.807 219.438L160.088 224.977L161.433 224.421C162.201 225.823 163.096 227.144 164.087 228.383L163.03 229.443L167.257 233.678L168.31 232.623C169.52 233.598 170.811 234.474 172.176 235.234L171.599 236.626L177.12 238.926L177.691 237.551C179.195 237.997 180.752 238.318 182.352 238.5L182.352 240L188.33 240L188.33 238.543C189.906 238.379 191.432 238.06 192.918 237.641L193.481 239.007L199.008 236.722L198.469 235.414C199.881 234.652 201.207 233.756 202.456 232.766L203.464 233.775L207.692 229.54L206.727 228.574C207.72 227.355 208.602 226.044 209.377 224.665L210.634 225.188L212.93 219.656L211.727 219.155C212.187 217.628 212.511 216.043 212.699 214.417L213.999 214.417Z" fill="#0A0A0A"/>
<path d="M185.478 229.085C195.328 229.085 203.313 221.085 203.313 211.215C203.313 201.346 195.328 193.345 185.478 193.345C175.629 193.345 167.644 201.346 167.644 211.215C167.644 221.085 175.629 229.085 185.478 229.085Z" fill="#575757"/>
<path d="M185.478 219.53C190.062 219.53 193.777 215.808 193.777 211.215C193.777 206.623 190.062 202.9 185.478 202.9C180.895 202.9 177.18 206.623 177.18 211.215C177.18 215.808 180.895 219.53 185.478 219.53Z" fill="#B3B3B3"/>
<path d="M149.449 214.417L149.45 208.426L148.21 208.426C148.048 206.818 147.723 205.26 147.297 203.745L148.459 203.265L146.178 197.726L145.072 198.184C144.297 196.746 143.386 195.395 142.378 194.126L143.238 193.263L139.01 189.027L138.174 189.865C136.936 188.861 135.611 187.962 134.209 187.183L134.667 186.079L129.146 183.779L128.692 184.874C127.151 184.418 125.558 184.088 123.918 183.909V182.706H117.939V183.909C116.332 184.084 114.772 184.408 113.26 184.849L112.787 183.7L107.259 185.985L107.732 187.132C106.311 187.915 104.97 188.825 103.717 189.84L102.806 188.927L98.5784 193.164L99.5045 194.091C98.5214 195.324 97.6326 196.636 96.8705 198.029L95.6346 197.514L93.3384 203.046L94.6037 203.573C94.1639 205.096 93.8375 206.667 93.6663 208.287L92.2675 208.287L92.2685 214.278L93.6863 214.277C93.8615 215.857 94.1784 217.392 94.6092 218.879L93.257 219.438L95.5379 224.977L96.8822 224.421C97.6506 225.823 98.5452 227.144 99.537 228.383L98.4798 229.443L102.707 233.678L103.76 232.623C104.969 233.598 106.26 234.474 107.626 235.234L107.049 236.626L112.57 238.926L113.141 237.551C114.645 237.997 116.201 238.318 117.801 238.5L117.802 240L123.779 240L123.779 238.543C125.355 238.379 126.882 238.06 128.367 237.641L128.93 239.007L134.458 236.722L133.919 235.414C135.331 234.652 136.656 233.756 137.906 232.766L138.913 233.775L143.142 229.54L142.177 228.574C143.17 227.355 144.052 226.044 144.827 224.665L146.083 225.188L148.379 219.656L147.177 219.155C147.636 217.628 147.96 216.043 148.149 214.417L149.449 214.417Z" fill="#0A0A0A"/>
<path d="M120.928 229.085C130.778 229.085 138.763 221.085 138.763 211.215C138.763 201.346 130.778 193.345 120.928 193.345C111.078 193.345 103.094 201.346 103.094 211.215C103.094 221.085 111.078 229.085 120.928 229.085Z" fill="#575757"/>
<path d="M129.227 211.215C129.227 215.808 125.511 219.53 120.928 219.53C116.345 219.53 112.629 215.808 112.629 211.215C112.629 206.623 116.345 202.9 120.928 202.9C125.511 202.9 129.227 206.623 129.227 211.215Z" fill="#B3B3B3"/>
<path d="M108.133 49L161.981 102.954C149.841 115.119 127.944 112.902 113.075 98.003C98.2051 83.1039 95.9925 61.1645 108.133 49Z" fill="white"/>
<path d="M154.673 56.3225L138.74 79.6673L131.374 72.2868L154.673 56.3225Z" fill="#636363"/>
<path d="M123.832 107.995H110.629V117.743H123.832V107.995Z" fill="white"/>
<path d="M117.297 96.1255H117.165C113.555 96.1255 110.629 99.0572 110.629 102.674V107.995H123.832V102.674C123.832 99.0572 120.906 96.1255 117.297 96.1255Z" fill="#1A1A1A"/>
<path d="M120.192 102.06C120.192 103.7 118.866 105.028 117.231 105.028C115.595 105.028 114.269 103.7 114.269 102.06C114.269 100.421 115.595 99.093 117.231 99.093C118.866 99.093 120.192 100.422 120.192 102.06Z" fill="#696969"/>
<path d="M158.29 52.3821C159.327 53.4218 159.327 55.1073 158.29 56.147C157.252 57.1867 155.57 57.1867 154.532 56.147C153.495 55.1073 153.495 53.4218 154.532 52.3821C155.57 51.3427 157.252 51.3427 158.29 52.3821Z" fill="white"/>
</g>
<defs>
<clipPath id="clip0_4056_13390">
<rect width="240" height="240" fill="white"/>
</clipPath>
</defs>
</svg>
