<svg width="240" height="241" viewBox="0 0 240 241" fill="none" xmlns="http://www.w3.org/2000/svg">
<g clip-path="url(#clip0_4056_13386)">
<path d="M234.029 240.667H0L40.024 120.5H194.005L234.029 240.667Z" fill="url(#paint0_linear_4056_13386)"/>
<path d="M167.69 240.667H66.3381L83.6716 120.5H150.357L167.69 240.667Z" fill="url(#paint1_linear_4056_13386)"/>
<path d="M199.81 77.6845C192.273 40.575 159.407 12.6399 120 12.6399C80.5928 12.6399 47.7269 40.575 40.1898 77.6845H199.81Z" fill="#7DC7F9"/>
<path opacity="0.5" d="M120 12.64C108.455 12.64 97.4803 15.0529 87.5308 19.3762C112.129 25.3489 141.674 40.4647 156.296 77.6845H199.81C192.273 40.575 159.407 12.64 120 12.64Z" fill="#6BB5ED"/>
<path d="M61.7615 17.9148L67.8335 15.1526L72.7656 25.9518C73.5294 27.6241 72.7891 29.6006 71.1134 30.3629C69.4377 31.1251 67.4573 30.3863 66.6936 28.7139L61.7615 17.9148Z" fill="white"/>
<path d="M62.1718 20.9023C67.7708 20.9023 72.3097 16.3724 72.3097 10.7845C72.3097 5.19662 67.7708 0.666748 62.1718 0.666748C56.5728 0.666748 52.0339 5.19662 52.0339 10.7845C52.0339 16.3724 56.5728 20.9023 62.1718 20.9023Z" fill="white"/>
<path d="M168.887 30.3628C167.211 29.6006 166.471 27.6241 167.234 25.9518L172.166 15.1526L178.239 17.9148L173.306 28.7139C172.543 30.3862 170.562 31.1251 168.887 30.3628Z" fill="white"/>
<path d="M177.828 20.9023C183.427 20.9023 187.966 16.3724 187.966 10.7845C187.966 5.19662 183.427 0.666748 177.828 0.666748C172.229 0.666748 167.69 5.19662 167.69 10.7845C167.69 16.3724 172.229 20.9023 177.828 20.9023Z" fill="white"/>
<path d="M199.81 77.6845C192.273 40.575 159.407 12.6399 120 12.6399C80.5928 12.6399 47.7269 40.575 40.1898 77.6845H199.81Z" stroke="white" stroke-width="5.648" stroke-miterlimit="10"/>
<path d="M47.6716 113.141H192.328C192.328 126.676 181.318 137.664 167.756 137.664H72.2436C58.682 137.664 47.6716 126.676 47.6716 113.141Z" fill="#444444"/>
<path d="M195.822 73.2036H44.178C29.4442 73.2036 17.5 85.124 17.5 99.8286V99.8287C17.5 114.533 29.4442 126.454 44.178 126.454H195.822C210.556 126.454 222.5 114.533 222.5 99.8286C222.5 85.124 210.556 73.2036 195.822 73.2036Z" fill="#0F70B7"/>
<path d="M56.8571 111.74C63.4486 111.74 68.792 106.407 68.792 99.8286C68.792 93.2503 63.4486 87.9175 56.8571 87.9175C50.2657 87.9175 44.9222 93.2503 44.9222 99.8286C44.9222 106.407 50.2657 111.74 56.8571 111.74Z" fill="#FFC023"/>
<path d="M56.8571 111.74C63.4486 111.74 68.792 106.407 68.792 99.8286C68.792 93.2503 63.4486 87.9175 56.8571 87.9175C50.2657 87.9175 44.9222 93.2503 44.9222 99.8286C44.9222 106.407 50.2657 111.74 56.8571 111.74Z" stroke="#076199" stroke-width="5.648" stroke-miterlimit="10"/>
<path d="M183.143 111.74C189.734 111.74 195.078 106.407 195.078 99.8286C195.078 93.2503 189.734 87.9175 183.143 87.9175C176.551 87.9175 171.208 93.2503 171.208 99.8286C171.208 106.407 176.551 111.74 183.143 111.74Z" fill="#FFC023"/>
<path d="M183.143 111.74C189.734 111.74 195.078 106.407 195.078 99.8286C195.078 93.2503 189.734 87.9175 183.143 87.9175C176.551 87.9175 171.208 93.2503 171.208 99.8286C171.208 106.407 176.551 111.74 183.143 111.74Z" stroke="#076199" stroke-width="5.648" stroke-miterlimit="10"/>
<g opacity="0.2">
<path d="M77.0983 45.9756C71.9024 50.8335 67.3852 56.4059 63.7041 62.5357" stroke="white" stroke-width="14.6848" stroke-linecap="round" stroke-linejoin="round"/>
<path d="M92.6226 34.7314C92.0973 35.0195 91.5758 35.3135 91.0581 35.6134" stroke="white" stroke-width="14.6848" stroke-linecap="round" stroke-linejoin="round"/>
</g>
</g>
<defs>
<linearGradient id="paint0_linear_4056_13386" x1="117.014" y1="217.917" x2="117.014" y2="14.3773" gradientUnits="userSpaceOnUse">
<stop stop-color="#48B6FF" stop-opacity="0"/>
<stop offset="1" stop-color="#3FB2FF"/>
</linearGradient>
<linearGradient id="paint1_linear_4056_13386" x1="117.014" y1="240.667" x2="117.014" y2="-110.725" gradientUnits="userSpaceOnUse">
<stop stop-color="#48B6FF" stop-opacity="0"/>
<stop offset="1" stop-color="#3FB2FF"/>
</linearGradient>
<clipPath id="clip0_4056_13386">
<rect width="240" height="240" fill="white" transform="translate(0 0.666748)"/>
</clipPath>
</defs>
</svg>
