<svg width="240" height="240" viewBox="0 0 240 240" fill="none" xmlns="http://www.w3.org/2000/svg">
<path d="M138.815 125.908L173.174 151.669L178.103 145.095L143.744 119.334L138.815 125.908Z" fill="#0083CC"/>
<path d="M172.905 178.097C172.905 183.175 182.099 199.594 182.099 199.594C182.099 199.594 191.294 183.175 191.294 178.097C191.294 173.019 187.177 168.903 182.099 168.903C177.022 168.903 172.905 173.019 172.905 178.097Z" fill="#FF8B00"/>
<path d="M182.099 181.265C184.404 181.265 186.271 179.397 186.271 177.093C186.271 174.788 184.404 172.921 182.099 172.921C179.795 172.921 177.927 174.788 177.927 177.093C177.927 179.397 179.795 181.265 182.099 181.265Z" fill="white"/>
<path d="M182.55 134.742C189.959 134.742 195.974 140.757 195.974 148.166V159.346C195.974 163.158 192.88 166.253 189.068 166.253H176.032C172.22 166.253 169.125 163.158 169.125 159.346V148.166C169.125 140.757 175.141 134.742 182.55 134.742Z" fill="#318FFF"/>
<path d="M169.125 157.749V159.346C169.125 163.161 172.218 166.253 176.032 166.253H189.068C192.882 166.253 195.974 163.161 195.974 159.346V157.749H169.125Z" fill="#1088FF"/>
<path opacity="0.1" d="M189.068 166.253C192.882 166.253 195.974 163.161 195.974 159.346V148.166C195.974 142.169 192.04 137.094 186.613 135.371C187.894 139.042 188.496 143.03 188.496 147.543V166.253H189.068Z" fill="#001D35"/>
<path d="M95.5533 119.334L61.1943 145.095L66.1231 151.669L100.482 125.908L95.5533 119.334Z" fill="#0083CC"/>
<path d="M57.1973 134.742C64.6065 134.742 70.6217 140.757 70.6217 148.166V159.346C70.6217 163.158 67.527 166.253 63.7152 166.253H50.6792C46.8674 166.253 43.7727 163.158 43.7727 159.346V148.166C43.7727 140.757 49.7882 134.742 57.1973 134.742Z" fill="#318FFF"/>
<path d="M43.7729 157.749V159.346C43.7729 163.161 46.8651 166.253 50.6795 166.253H63.7154C67.5297 166.253 70.6218 163.161 70.6218 159.346V157.749H43.7729Z" fill="#1088FF"/>
<path d="M66.3916 178.097C66.3916 183.175 57.1974 199.594 57.1974 199.594C57.1974 199.594 48.0032 183.175 48.0032 178.097C48.0032 173.019 52.1196 168.903 57.1974 168.903C62.2752 168.903 66.3916 173.019 66.3916 178.097Z" fill="#FF8B00"/>
<path d="M57.1974 181.265C59.5015 181.265 61.3694 179.397 61.3694 177.093C61.3694 174.788 59.5015 172.921 57.1974 172.921C54.8933 172.921 53.0254 174.788 53.0254 177.093C53.0254 179.397 54.8933 181.265 57.1974 181.265Z" fill="white"/>
<path opacity="0.1" d="M63.7154 166.253C67.5297 166.253 70.6219 163.161 70.6219 159.346V148.166C70.6219 142.169 66.6877 137.094 61.2605 135.371C62.541 139.042 63.1434 143.03 63.1434 147.543V166.253H63.7154Z" fill="#001D35"/>
<path d="M47.1953 43.9137H12.3943C10.8716 43.9137 9.63721 45.1481 9.63721 46.6708V46.6709C9.63721 48.1936 10.8716 49.428 12.3943 49.428H47.1953C48.718 49.428 49.9524 48.1936 49.9524 46.6709V46.6708C49.9524 45.1481 48.718 43.9137 47.1953 43.9137Z" fill="white"/>
<path d="M94.3799 43.9137H59.5789C58.0562 43.9137 56.8218 45.1481 56.8218 46.6708V46.6709C56.8218 48.1936 58.0562 49.428 59.5789 49.428H94.3799C95.9026 49.428 97.137 48.1936 97.137 46.6709V46.6708C97.137 45.1481 95.9026 43.9137 94.3799 43.9137Z" fill="white"/>
<path d="M53.3871 40.4064C55.2827 40.4064 56.8218 41.9454 56.8218 43.8411V63.9449H49.9524V43.8411C49.9524 41.9454 51.4914 40.4064 53.3871 40.4064Z" fill="#669BFF"/>
<path d="M45.1688 71.6053H81.2171V84.6444H45.1688C43.2625 84.6444 41.7148 83.0967 41.7148 81.1904V75.0593C41.7148 73.153 43.2625 71.6053 45.1688 71.6053Z" fill="#318FFF"/>
<path d="M48.2996 62.4132H58.4746C60.0796 62.4132 61.3826 63.7162 61.3826 65.3212V71.6055H45.3916V65.3212C45.3916 63.7162 46.6946 62.4132 48.2996 62.4132Z" fill="#434E6D"/>
<path d="M49.7977 59.4594H56.9767C57.7691 59.4594 58.4125 60.1028 58.4125 60.8952V62.4131H48.3618V60.8952C48.3618 60.1028 49.0053 59.4594 49.7977 59.4594Z" fill="#647BA0"/>
<path d="M192.805 49.428L227.606 49.428C229.129 49.428 230.363 48.1936 230.363 46.6709V46.6708C230.363 45.1481 229.129 43.9137 227.606 43.9137L192.805 43.9137C191.282 43.9137 190.048 45.1481 190.048 46.6708V46.6709C190.048 48.1936 191.282 49.428 192.805 49.428Z" fill="white"/>
<path d="M145.62 49.428L180.421 49.428C181.944 49.428 183.178 48.1936 183.178 46.6709V46.6708C183.178 45.1481 181.944 43.9137 180.421 43.9137L145.62 43.9137C144.098 43.9137 142.863 45.1481 142.863 46.6708V46.6709C142.863 48.1936 144.098 49.428 145.62 49.428Z" fill="white"/>
<path d="M190.048 63.9448H183.178V43.841C183.178 41.9454 184.717 40.4063 186.613 40.4063C188.508 40.4063 190.048 41.9453 190.048 43.841V63.9448Z" fill="#669BFF"/>
<path d="M194.831 84.6445H158.783V71.6054H194.831C196.738 71.6054 198.285 73.1531 198.285 75.0594V81.1905C198.285 83.0968 196.738 84.6445 194.831 84.6445Z" fill="#318FFF"/>
<path d="M194.608 71.6053H178.617V65.321C178.617 63.716 179.92 62.413 181.525 62.413H191.7C193.305 62.413 194.608 63.716 194.608 65.321V71.6053Z" fill="#434E6D"/>
<path d="M191.638 62.4132H181.588V60.8953C181.588 60.1029 182.231 59.4595 183.024 59.4595H190.203C190.995 59.4595 191.638 60.1029 191.638 60.8953L191.638 62.4132Z" fill="#647BA0"/>
<path d="M148.828 60.766H90.9198C84.8189 60.766 79.873 65.7118 79.873 71.8128V129.72C79.873 135.821 84.8189 140.767 90.9198 140.767H148.828C154.929 140.767 159.874 135.821 159.874 129.72V71.8128C159.874 65.7118 154.929 60.766 148.828 60.766Z" fill="#2EABFF"/>
<path d="M92.3846 140.767H147.363V143.132C147.363 145.82 145.181 148.003 142.493 148.003H97.255C94.5669 148.003 92.3845 145.82 92.3845 143.132L92.3846 140.767Z" fill="#0083CC"/>
<path d="M141.673 82.6539H98.0746C93.9312 82.6539 90.5723 86.0128 90.5723 90.1562V105.638C90.5723 109.781 93.9312 113.14 98.0746 113.14H141.673C145.816 113.14 149.175 109.781 149.175 105.638V90.1562C149.175 86.0128 145.816 82.6539 141.673 82.6539Z" fill="#647BA0"/>
<path d="M108.529 130.729H131.219C133.534 130.729 135.413 132.609 135.413 134.924V142.313C135.413 147.839 130.926 152.326 125.4 152.326H114.348C108.821 152.326 104.334 147.839 104.334 142.313V134.924C104.334 132.609 106.214 130.729 108.529 130.729Z" fill="#0083CC"/>
<path d="M138.787 87.822H100.961C97.8812 87.822 95.3848 90.3185 95.3848 93.398V102.396C95.3848 105.476 97.8812 107.972 100.961 107.972H138.787C141.866 107.972 144.363 105.476 144.363 102.396V93.398C144.363 90.3185 141.866 87.822 138.787 87.822Z" fill="#24314F"/>
<path d="M108.305 102.47C110.51 102.47 112.298 100.683 112.298 98.4774C112.298 96.2723 110.51 94.4846 108.305 94.4846C106.1 94.4846 104.312 96.2723 104.312 98.4774C104.312 100.683 106.1 102.47 108.305 102.47Z" fill="white"/>
<path d="M131.442 102.47C133.647 102.47 135.435 100.683 135.435 98.4774C135.435 96.2723 133.647 94.4846 131.442 94.4846C129.237 94.4846 127.449 96.2723 127.449 98.4774C127.449 100.683 129.237 102.47 131.442 102.47Z" fill="white"/>
</svg>
