<svg width="241" height="241" viewBox="0 0 241 241" fill="none" xmlns="http://www.w3.org/2000/svg">
<g clip-path="url(#clip0_5910_4109)">
<path d="M111.284 145.929C110.527 143.6 108.018 142.33 105.692 143.081C101.106 144.566 93.5475 149.546 91.7875 158.822L85.2899 155.306C83.1379 154.141 80.4386 154.939 79.2717 157.09C78.1037 159.241 78.9039 161.93 81.0594 163.096L100.222 173.463C100.894 173.827 101.619 174 102.334 174C103.91 174 105.437 173.16 106.24 171.68C107.408 169.529 106.608 166.84 104.453 165.673L100.311 163.433C100.029 154.68 107.528 151.82 108.459 151.501C110.773 150.735 112.038 148.247 111.284 145.929Z" fill="#F4AA2F"/>
<path d="M91.7146 90.9389L52.3624 77.5824C46.4092 75.5617 39.9414 78.7399 37.917 84.6808C34.2221 95.5219 37.3456 107.033 44.9934 114.576C44.7174 115.403 44.5623 116.284 44.5623 117.204C44.5623 128.901 54.065 138.384 65.7869 138.384H83.3524C90.8576 138.384 97.0419 132.798 97.9932 125.567C100.816 123.264 103.061 120.187 104.322 116.489C107.91 105.959 102.266 94.5201 91.7146 90.9389Z" fill="#16A516"/>
<path d="M95.4291 100.86L67.8111 91.4859C63.633 90.0679 59.0939 92.2983 57.6731 96.4678C55.0799 104.076 57.2721 112.155 62.6394 117.449C62.4458 118.029 62.3369 118.648 62.3369 119.293C62.3369 127.503 69.006 134.158 77.2327 134.158H89.5604C94.8277 134.158 99.168 130.237 99.8356 125.163C101.817 123.546 103.392 121.387 104.277 118.791C106.796 111.401 102.834 103.373 95.4291 100.86Z" fill="#129B12"/>
<path d="M179.955 60.1917C181.283 59.7412 182.727 60.4508 183.178 61.7752C186.299 70.9336 181.383 80.8979 172.205 84.0128C170.878 84.4633 169.434 83.7537 168.983 82.4293C165.861 73.2709 170.778 63.3066 179.955 60.1917Z" fill="#D9262C"/>
<path d="M191.311 93.5105C182.133 96.6254 172.149 91.7188 169.027 82.5604C168.576 81.236 169.287 79.795 170.614 79.3446C179.791 76.2297 189.776 81.1363 192.897 90.2946C193.349 91.6191 192.638 93.0601 191.311 93.5105Z" fill="#D9262C"/>
<path d="M128.898 155.518C156.376 155.518 178.65 133.289 178.65 105.868C178.65 78.4468 156.376 56.2178 128.898 56.2178C101.421 56.2178 79.1458 78.4468 79.1458 105.868C79.1458 133.289 101.421 155.518 128.898 155.518Z" fill="#26BA26"/>
<path d="M175.516 157.091C174.345 154.939 171.648 154.14 169.497 155.307L163 158.822C161.24 149.546 153.681 144.566 149.095 143.082C146.764 142.331 144.259 143.602 143.504 145.93C142.747 148.257 144.024 150.756 146.357 151.511C146.719 151.628 154.77 154.359 154.474 163.435L150.335 165.674C148.179 166.84 147.379 169.529 148.547 171.681C149.352 173.161 150.877 174 152.453 174C153.168 174 153.894 173.828 154.565 173.464L173.728 163.097C175.883 161.931 176.684 159.242 175.516 157.091Z" fill="#F4AA2F"/>
<path d="M99.294 102.6C105.585 102.6 110.684 97.5113 110.684 91.2337C110.684 84.9562 105.585 79.8672 99.294 79.8672C93.0035 79.8672 87.9041 84.9562 87.9041 91.2337C87.9041 97.5113 93.0035 102.6 99.294 102.6Z" fill="#041C42"/>
<path d="M158.935 107.986C158.578 106.739 157.276 106.016 156.026 106.369C154.305 106.858 152.211 107.451 150.166 108.027C145.698 92.2299 150.035 72.8086 150.087 72.5812C150.377 71.3169 149.586 70.0568 148.319 69.7665C147.055 69.4814 145.79 70.2661 145.498 71.5304C145.273 72.5115 140.819 92.3889 145.625 109.302C143.663 109.85 142.206 110.25 141.919 110.315C140.651 110.599 139.851 111.855 140.135 113.12C140.38 114.214 141.35 114.959 142.427 114.959C142.597 114.959 142.768 114.94 142.94 114.902C143.318 114.819 145.028 114.348 147.152 113.755C147.727 115.172 148.371 116.555 149.115 117.882C149.546 118.652 150.346 119.086 151.171 119.086C151.56 119.086 151.954 118.989 152.319 118.786C153.453 118.153 153.859 116.721 153.225 115.589C152.663 114.587 152.16 113.546 151.708 112.476C154.183 111.777 156.44 111.137 157.314 110.889C158.564 110.534 159.29 109.235 158.935 107.986Z" fill="#20A520"/>
<path d="M122.177 97.0518H108.129C103.249 97.0518 99.2939 100.999 99.2939 105.868V105.868C99.2939 110.738 103.249 114.685 108.129 114.685H122.177C127.057 114.685 131.012 110.738 131.012 105.868V105.868C131.012 100.999 127.057 97.0518 122.177 97.0518Z" fill="#F4AA2F"/>
<path d="M145.775 102.6C152.065 102.6 157.165 97.5113 157.165 91.2337C157.165 84.9562 152.065 79.8672 145.775 79.8672C139.484 79.8672 134.385 84.9562 134.385 91.2337C134.385 97.5113 139.484 102.6 145.775 102.6Z" fill="#041C42"/>
<path d="M173.976 82.9712C176.479 83.0751 178.279 80.57 177.356 78.2456C171.073 62.4259 157.229 49.9427 139.297 46.1518C115.259 41.0701 91.5804 53.2283 81.1723 74.2432C80.0601 76.4888 81.6363 79.1396 84.1442 79.2435L173.976 82.9712Z" fill="#FF4948"/>
<path d="M166.041 72.0667C165.163 66.5163 159.942 62.7278 154.38 63.6046C148.818 64.4815 145.022 69.6915 145.901 75.2419C146.474 78.8628 148.9 81.7231 152.058 83.0383L152.124 83.454C152.36 84.9445 153.762 85.9619 155.256 85.7265C156.365 85.5516 157.211 84.7331 157.477 83.7131C157.505 83.7087 157.533 83.7085 157.562 83.704C157.59 83.6996 157.617 83.6911 157.645 83.6865C158.213 84.5751 159.271 85.0935 160.38 84.9186C161.874 84.6832 162.894 83.2838 162.658 81.7934L162.592 81.3776C165.19 79.1549 166.615 75.6876 166.041 72.0667Z" fill="white"/>
<path d="M154.466 74.3195C154.714 75.8896 153.64 77.3636 152.067 77.6116C150.494 77.8595 149.017 76.7878 148.768 75.2177C148.52 73.6476 149.684 72.7453 151.257 72.4973C152.831 72.2493 154.217 72.7494 154.466 74.3195Z" fill="black"/>
<path d="M160.098 71.1033C158.524 71.3513 157.36 72.2536 157.608 73.8237C157.857 75.3938 159.334 76.4655 160.907 76.2175C162.481 75.9696 163.555 74.4956 163.306 72.9255C163.058 71.3554 161.671 70.8552 160.098 71.1033Z" fill="black"/>
<path d="M156.551 77.3175C155.472 77.4876 154.735 78.4985 154.906 79.5753C155.076 80.6521 155.696 78.9075 156.776 78.7374C157.855 78.5673 158.984 80.0361 158.813 78.9592C158.643 77.8823 157.63 77.1472 156.551 77.3175Z" fill="black"/>
<path d="M227.449 86.9544C225.424 81.0133 218.957 77.8352 213.004 79.8558L173.651 93.2123C163.1 96.7936 157.456 108.233 161.044 118.762C161.329 119.599 161.681 120.393 162.061 121.166C162.053 121.366 162.03 121.562 162.03 121.765C162.03 129.912 168.649 136.517 176.813 136.517H194.379C204.077 136.517 212.238 130.018 214.773 121.152C226.343 114.337 231.946 100.149 227.449 86.9544Z" fill="#16A516"/>
<path d="M171.637 98.8706L199.255 89.4967C203.433 88.0786 207.972 90.309 209.393 94.4786C211.986 102.087 209.794 110.166 204.427 115.459C204.62 116.04 204.729 116.658 204.729 117.304C204.729 125.513 198.06 132.169 189.833 132.169H177.505C172.238 132.169 167.898 128.248 167.23 123.173C165.249 121.557 163.674 119.398 162.789 116.802C160.27 109.412 164.232 101.384 171.637 98.8706Z" fill="#129B12"/>
<path d="M22.6407 116.24C26.4736 115.606 28.6028 109.204 27.3963 101.94C26.1899 94.6754 22.1046 89.3006 18.2717 89.9346C14.4388 90.5686 12.3096 96.9713 13.5161 104.235C14.7225 111.5 18.8078 116.874 22.6407 116.24Z" fill="#92C4FF"/>
<path d="M22.0108 117.467C19.9702 117.467 17.9181 116.229 16.1559 113.91C14.3188 111.493 12.9692 108.125 12.3553 104.427C11.7402 100.729 11.9288 97.1072 12.8864 94.2288C13.9291 91.0934 15.773 89.1568 18.0803 88.776C22.6109 88.0246 27.2244 93.7228 28.5579 101.747C29.8902 109.773 27.3761 116.648 22.8328 117.399C22.5604 117.444 22.2855 117.467 22.0108 117.467ZM18.8793 91.0602C18.7391 91.0602 18.6011 91.0711 18.4643 91.0934C17.0826 91.3223 15.8639 92.7346 15.1213 94.9688C14.2821 97.4921 14.1246 100.715 14.6775 104.043C15.2305 107.372 16.4214 110.371 18.0309 112.489C19.4564 114.364 21.0498 115.308 22.4488 115.082C25.2389 114.62 27.4266 109.306 26.2356 102.132C25.1009 95.3065 21.6176 91.0602 18.8793 91.0602Z" fill="#C5E2FF"/>
<path d="M46.204 84.8229L21.2305 88.9536L25.9241 117.214L50.8976 113.083L46.204 84.8229Z" fill="#BC6D2B"/>
<path d="M72.1259 83.6461L52.5039 86.8916L56.1917 109.096L75.8138 105.85L72.1259 83.6461Z" fill="#BC6D2B"/>
<path d="M78.8171 86.6875L87.4524 85.2592C89.5781 84.9076 91.59 86.3444 91.9423 88.4657L93.0123 94.9085C93.3647 97.0299 91.9249 99.0376 89.7992 99.3892L81.1639 100.817L78.8171 86.6875Z" fill="#BC6D2B"/>
<path d="M53.183 82.0135C52.8513 80.0165 50.9602 78.6659 48.9591 78.9969C46.9579 79.3279 45.6046 81.2151 45.9363 83.2122L50.9994 113.697C51.3311 115.694 53.2222 117.045 55.2233 116.714C57.2245 116.383 58.5778 114.496 58.2462 112.499L53.183 82.0135Z" fill="#F4AA2F"/>
<path d="M24.5861 86.7435C24.2544 84.7465 22.3633 83.3959 20.3621 83.7269C18.361 84.0578 17.0077 85.9451 17.3393 87.9421L22.4025 118.427C22.7342 120.424 24.6253 121.775 26.6264 121.444C28.6276 121.113 29.9809 119.226 29.6492 117.229L24.5861 86.7435Z" fill="#F4AA2F"/>
<path d="M78.285 83.4828C77.9534 81.4857 76.0622 80.1351 74.0611 80.4661C72.06 80.7971 70.7066 82.6844 71.0383 84.6814L74.284 104.224C74.6157 106.221 76.5068 107.572 78.508 107.241C80.5091 106.91 81.8625 105.022 81.5308 103.025L78.285 83.4828Z" fill="#F4AA2F"/>
</g>
<defs>
<clipPath id="clip0_5910_4109">
<rect width="217" height="129" fill="white" transform="translate(12 45)"/>
</clipPath>
</defs>
</svg>
