<svg width="240" height="240" viewBox="0 0 240 240" fill="none" xmlns="http://www.w3.org/2000/svg">
<g clip-path="url(#clip0_4081_3109)">
<path d="M79.7306 171.564L69.842 181.526V171.563L79.7306 171.564Z" fill="#1759BA"/>
<path d="M105.945 169.076H69.8422V174.052H105.945V169.076Z" fill="#1759BA"/>
<path d="M73.4693 78.6924H33.8564C32.4766 78.6924 31.358 79.8064 31.358 81.1805C31.358 82.5547 32.4766 83.6687 33.8564 83.6687H36.7813V217.826H41.778V203.178L53.5392 194.623L65.5477 203.358V217.826H70.5444V83.6686H73.4693C74.8491 83.6686 75.9677 82.5546 75.9677 81.1805C75.9677 79.8063 74.8491 78.6924 73.4693 78.6924ZM41.778 125.365L49.3035 130.839L41.778 136.314V125.365ZM41.778 142.476L53.5392 133.921L65.5477 142.656V149.374L53.5392 158.109L41.778 149.554V142.476ZM41.778 155.716L49.3035 161.19L41.778 166.665V155.716ZM41.778 172.827L53.5392 164.272L65.5477 173.007V179.725L53.5392 188.46L41.778 179.905V172.827ZM57.7749 161.19L65.5477 155.536V166.845L57.7749 161.19ZM57.7749 130.839L65.5477 125.185V136.494L57.7749 130.839ZM65.5477 112.305V119.023L53.5392 127.758L41.7781 119.203V112.125L53.5392 103.57L65.5477 112.305ZM57.7749 100.488L65.5477 94.8342V106.143L57.7749 100.488ZM41.778 105.963V95.0141L49.3035 100.488L41.778 105.963ZM41.778 197.016V186.067L49.3035 191.541L41.778 197.016ZM57.7749 191.542L65.5477 185.887V197.196L57.7749 191.542ZM65.5477 88.6718L53.5392 97.4072L41.7781 88.8517V83.6686H65.5477V88.6718Z" fill="#2B69D6"/>
<path d="M53.6628 83.6686H65.5477V88.6718L53.6628 97.3172V103.66L65.5477 112.305V119.023L53.6628 127.668V134.011L65.5477 142.656V149.374L53.6628 158.019V164.361L65.5477 173.007V179.725L53.6628 188.37V194.712L65.5477 203.358V217.825H70.5444V83.6686H73.4692C74.8491 83.6686 75.9677 82.5546 75.9677 81.1805C75.9677 79.8063 74.8491 78.6924 73.4692 78.6924H53.6628V83.6686ZM65.5477 197.196L57.7749 191.541L65.5477 185.887V197.196ZM65.5477 166.845L57.7749 161.19L65.5477 155.536V166.845ZM65.5477 136.494L57.7749 130.839L65.5477 125.185V136.494ZM65.5477 106.143L57.7749 100.488L65.5477 94.8342V106.143Z" fill="#1759BA"/>
<path d="M160.398 86.5181L170.287 96.4808V86.5181H160.398Z" fill="#2B69D6"/>
<path d="M160.398 134.021L170.287 143.984V134.021H160.398Z" fill="#2B69D6"/>
<path d="M206.143 55.7256H166.53C165.15 55.7256 164.032 56.8396 164.032 58.2137C164.032 59.5879 165.15 60.7019 166.53 60.7019H169.455V217.826H174.452V210.562L186.213 202.007L198.221 210.742V217.826H203.218V60.7018H206.143C207.523 60.7018 208.641 59.5878 208.641 58.2137C208.641 56.8396 207.523 55.7256 206.143 55.7256ZM174.452 102.398L181.977 107.873L174.452 113.347V102.398ZM174.452 119.509L186.213 110.954L198.222 119.689V126.407L186.213 135.142L174.452 126.587V119.509ZM174.452 132.749L181.977 138.224L174.452 143.698V132.749ZM174.452 149.86L186.213 141.305L198.222 150.04V156.758L186.213 165.494L174.452 156.938V149.86ZM174.452 163.1L181.977 168.575L174.452 174.049V163.1ZM174.452 180.211L186.213 171.656L198.222 180.391V187.109L186.213 195.844L174.452 187.289V180.211ZM190.449 168.575L198.222 162.921V174.229L190.449 168.575ZM190.449 138.224L198.222 132.57V143.878L190.449 138.224ZM190.449 107.873L198.222 102.218V113.527L190.449 107.873ZM198.222 89.3383V96.056L186.213 104.791L174.452 96.236V89.1583L186.213 80.6029L198.222 89.3383ZM190.449 77.5216L198.222 71.8675V83.1758L190.449 77.5216ZM174.452 82.9959V72.0474L181.977 77.5216L174.452 82.9959ZM174.452 204.4V193.452L181.977 198.926L174.452 204.4ZM190.449 198.926L198.222 193.272V204.58L190.449 198.926ZM198.222 65.705L186.213 74.4404L174.452 65.885V60.7019H198.222V65.705Z" fill="#2B69D6"/>
<path d="M186.337 60.7018H198.221V65.705L186.337 74.3504V80.6928L198.221 89.3382V96.0559L186.337 104.701V111.044L198.221 119.689V126.407L186.337 135.052V141.395L198.221 150.04V156.758L186.337 165.403V171.746L198.221 180.391V187.109L186.337 195.754V202.096L198.221 210.742V217.825H203.218V60.7018H206.143C207.523 60.7018 208.641 59.5878 208.641 58.2137C208.641 56.8396 207.523 55.7256 206.143 55.7256H186.337V60.7018ZM198.221 204.58L190.449 198.926L198.221 193.271V204.58ZM198.221 174.229L190.449 168.575L198.221 162.921V174.229ZM198.221 143.878L190.449 138.224L198.221 132.569V143.878ZM198.221 113.527L190.449 107.873L198.221 102.218V113.527ZM198.221 83.1758L190.449 77.5216L198.221 71.8675V83.1758Z" fill="#1759BA"/>
<path d="M170.287 84.0303H134.184V89.0064H170.287V84.0303Z" fill="#2B69D6"/>
<path d="M170.287 131.533H134.184V136.509H170.287V131.533Z" fill="#2B69D6"/>
<path d="M206.733 219.842H33.2666V236.034H206.733V219.842Z" fill="#322687"/>
<path d="M208.679 215.876H31.3204C29.7627 215.876 28.4999 217.134 28.4999 218.685C28.4999 220.236 29.7627 221.494 31.3204 221.494H208.679C210.237 221.494 211.5 220.236 211.5 218.685C211.5 217.134 210.237 215.876 208.679 215.876Z" fill="#4335A8"/>
<path d="M208.679 234.382H31.3204C29.7627 234.382 28.4999 235.639 28.4999 237.191C28.4999 238.742 29.7627 240 31.3204 240H208.679C210.237 240 211.5 238.742 211.5 237.191C211.5 235.639 210.237 234.382 208.679 234.382Z" fill="#4335A8"/>
<path d="M96.7859 184.738H74.4053V212.583H96.7859V184.738Z" fill="#C8D1D6"/>
<path d="M96.9897 184.738H91.0813V212.583H96.9897V184.738Z" fill="#B4C5CC"/>
<path d="M96.9897 204.99H74.4053V208.044H96.9897V204.99Z" fill="#F6F1FF"/>
<path d="M100.018 219.842H71.3774L74.4053 212.583H96.9898L100.018 219.842Z" fill="#FDD006"/>
<path d="M74.4053 212.583L71.3774 219.842H77.3595L80.3874 212.583H74.4053Z" fill="#FAB905"/>
<path d="M97.0634 212.583L100.091 219.842H94.1092L91.0813 212.583H97.0634Z" fill="#FDD906"/>
<path d="M167.287 184.738H144.906V212.583H167.287V184.738Z" fill="#C8D1D6"/>
<path d="M167.491 184.738H161.582V212.583H167.491V184.738Z" fill="#B4C5CC"/>
<path d="M167.491 204.99H144.906V208.044H167.491V204.99Z" fill="#F6F1FF"/>
<path d="M170.518 219.842H141.878L144.906 212.583H167.491L170.518 219.842Z" fill="#FDD006"/>
<path d="M144.906 212.583L141.878 219.842H147.86L150.888 212.583H144.906Z" fill="#FAB905"/>
<path d="M167.564 212.583L170.592 219.842H164.61L161.582 212.583H167.564Z" fill="#FDD906"/>
<path d="M123.797 34.6899C122.085 33.8469 120.081 33.8469 118.368 34.6899C110.755 38.4371 89.7522 51.8895 89.7522 86.2617V188.455C89.7522 191.837 92.5054 194.579 95.9016 194.579H146.264C149.66 194.579 152.413 191.837 152.413 188.455V86.2617C152.413 51.8895 131.411 38.4371 123.797 34.6899Z" fill="#FFAB28"/>
<path opacity="0.1" d="M99.3732 73.5922C99.3732 72.3367 98.3511 71.3188 97.0904 71.3188C95.8297 71.3188 94.8076 72.3367 94.8076 73.5922V83.9159C94.8076 85.1715 95.8297 86.1893 97.0904 86.1893C98.3511 86.1893 99.3732 85.1715 99.3732 83.9159V73.5922Z" fill="#E7D9FF"/>
<path opacity="0.1" d="M147.661 73.5922C147.661 72.3367 146.639 71.3188 145.378 71.3188C144.117 71.3188 143.095 72.3367 143.095 73.5922V83.9159C143.095 85.1715 144.117 86.1893 145.378 86.1893C146.639 86.1893 147.661 85.1715 147.661 83.9159V73.5922Z" fill="#E7D9FF"/>
<path d="M93.2428 189.155H77.824V87.4706C77.824 83.2304 81.2756 79.793 85.5334 79.793C89.7912 79.793 93.2428 83.2304 93.2428 87.4706V189.155Z" fill="#4780FF"/>
<path d="M87.6427 80.0912C86.9715 79.9012 86.2657 79.793 85.5334 79.793C81.2755 79.793 77.824 83.2303 77.824 87.4706V189.155H82.0427V87.4705C82.0427 83.9596 84.4118 81.0057 87.6427 80.0912Z" fill="#2C78FF"/>
<path opacity="0.1" d="M91.218 88.4633C91.218 87.2078 90.196 86.1899 88.9352 86.1899C87.6745 86.1899 86.6525 87.2078 86.6525 88.4633V98.787C86.6525 100.043 87.6745 101.06 88.9352 101.06C90.196 101.06 91.218 100.043 91.218 98.787V88.4633Z" fill="#F0E6FF"/>
<path d="M149.645 189.155H165.064V87.4706C165.064 83.2304 161.612 79.793 157.354 79.793C153.097 79.793 149.645 83.2304 149.645 87.4706V189.155Z" fill="#4780FF"/>
<path d="M155.245 80.0912C155.916 79.9012 156.622 79.793 157.354 79.793C161.612 79.793 165.064 83.2303 165.064 87.4706V189.155H160.845V87.4705C160.845 83.9596 158.476 81.0057 155.245 80.0912Z" fill="#2C78FF"/>
<path opacity="0.1" d="M156.235 88.4633C156.235 87.2078 155.213 86.1899 153.952 86.1899C152.692 86.1899 151.67 87.2078 151.67 88.4633V98.787C151.67 100.043 152.692 101.06 153.952 101.06C155.213 101.06 156.235 100.043 156.235 98.787V88.4633Z" fill="#F0E6FF"/>
<path d="M133.201 194.579H182.647L179.802 180.629C179.802 180.629 135.086 154.58 135.086 128.186L133.201 194.579Z" fill="#E9EDF0"/>
<path d="M155.286 189.155H164.245C165.315 189.155 166.183 188.291 166.183 187.225V180.826C166.183 179.76 165.315 178.895 164.245 178.895H155.286C154.215 178.895 153.347 179.76 153.347 180.826V187.225C153.347 188.291 154.215 189.155 155.286 189.155Z" fill="#C8D1D6"/>
<path d="M106.798 194.579H57.3522L60.1976 180.629C60.1976 180.629 104.914 154.58 104.914 128.186L106.798 194.579Z" fill="#E9EDF0"/>
<path d="M123.928 79.5099C122.23 78.2721 119.935 78.2721 118.237 79.5099C111.882 84.1421 97.0903 97.6354 97.0903 122.878V194.579H145.075V122.878C145.075 97.6354 130.283 84.1421 123.928 79.5099Z" fill="white"/>
<path d="M97.0905 130.707H145.075V126.393H97.0905V130.707Z" fill="#E9EDF0"/>
<path d="M97.0905 150.39H145.075V146.076H97.0905V150.39Z" fill="#E9EDF0"/>
<path d="M97.0905 171.315H145.075V167.001H97.0905V171.315Z" fill="#E9EDF0"/>
<path opacity="0.5" d="M116.4 105.656C116.975 101.194 115.765 97.363 113.697 97.0986C111.629 96.8341 109.487 100.237 108.911 104.699C108.336 109.16 109.546 112.992 111.614 113.256C113.681 113.521 115.824 110.118 116.4 105.656Z" fill="white"/>
<path d="M84.7142 178.896H75.7552C74.6847 178.896 73.8169 179.76 73.8169 180.826V187.225C73.8169 188.291 74.6847 189.155 75.7552 189.155H84.7142C85.7847 189.155 86.6525 188.291 86.6525 187.225V180.826C86.6525 179.76 85.7847 178.896 84.7142 178.896Z" fill="#C8D1D6"/>
<path d="M112.745 178.896L109.79 184.025H115.773L118.727 178.896H112.745Z" fill="#FAB905"/>
<path d="M132.171 184.025H109.79V203.683H132.171V184.025Z" fill="#E9EDF0"/>
<path d="M115.699 184.025H109.79V203.683H115.699V184.025Z" fill="#C8D1D6"/>
<path d="M132.375 184.025H126.466V203.683H132.375V184.025Z" fill="#C8D1D6"/>
<path d="M132.375 196.089H109.79V199.143H132.375V196.089Z" fill="#8E9EA5"/>
<path d="M135.403 210.941H106.763L109.79 203.683H132.375L135.403 210.941Z" fill="#FDD006"/>
<path d="M109.79 203.683L106.763 210.941H112.745L115.773 203.683H109.79Z" fill="#FAB905"/>
<path d="M132.449 203.683L135.476 210.941H129.494L126.466 203.683H132.449Z" fill="#FDD906"/>
<path d="M129.421 178.896H112.745L109.79 184.025H132.375L129.421 178.896Z" fill="#FDD006"/>
<path d="M129.421 178.896L132.375 184.025H126.393L123.439 178.896H129.421Z" fill="#FDD906"/>
<path opacity="0.4" d="M119.146 56.4372C120.317 49.6022 118.697 43.6252 115.53 43.0873C112.362 42.5494 108.845 47.6542 107.675 54.4893C106.505 61.3243 108.124 67.3013 111.292 67.8392C114.459 68.3771 117.976 63.2723 119.146 56.4372Z" fill="#E7D9FF"/>
</g>
<defs>
<clipPath id="clip0_4081_3109">
<rect width="183" height="212" fill="white" transform="translate(28.5 28)"/>
</clipPath>
</defs>
</svg>
