<svg width="240" height="240" viewBox="0 0 240 240" fill="none" xmlns="http://www.w3.org/2000/svg">
<g clip-path="url(#clip0_6073_28075)">
<path d="M4.83525 69.4908C6.86927 68.5292 9.30139 69.3998 10.263 71.4339L48.1961 151.671L40.8252 155.155L2.89212 74.9185C1.93051 72.8845 2.80116 70.4524 4.83525 69.4908Z" fill="#986837"/>
<path d="M106.253 71.5374H109.902C111.262 71.5374 112.366 72.6419 112.366 74.0023V80.7249H103.788V74.0023C103.788 72.6419 104.892 71.5374 106.253 71.5374Z" fill="#986837"/>
<path d="M113.433 97.0906V84.7052H113.644C114.579 84.7052 115.337 83.9472 115.337 83.0122V78.901C115.337 77.966 114.579 77.208 113.644 77.208H102.511C101.576 77.208 100.818 77.966 100.818 78.901V83.0122C100.818 83.9472 101.576 84.7052 102.511 84.7052H102.722V97.0906C93.3639 99.6581 86.7174 108.782 88.0452 119.219C89.2067 128.349 96.627 135.631 105.775 136.642C117.963 137.989 128.278 128.483 128.278 116.568C128.278 107.267 121.989 99.4382 113.433 97.0906Z" fill="#271F4C"/>
<path d="M110.563 138.845C110.965 137.316 111.181 135.711 111.181 134.056C111.181 123.672 102.762 115.253 92.3779 115.253C89.1246 115.253 86.0648 116.08 83.3958 117.534C79.01 110.397 71.1324 105.636 62.1411 105.636C53.0203 105.636 45.0474 110.536 40.7008 117.845C40.0973 117.772 39.4864 117.724 38.8633 117.724C32.8789 117.724 27.7103 121.166 25.1932 126.172C24.658 126.091 24.1144 126.037 23.5563 126.037C17.4837 126.037 12.5611 130.96 12.5611 137.032C12.5611 137.651 12.6247 138.254 12.7229 138.845L110.563 138.845Z" fill="#FF8214"/>
<path d="M129.569 76.3627H133.218C134.578 76.3627 135.682 77.4672 135.682 78.8276V85.5502H127.104V78.8276C127.104 77.4672 128.208 76.3627 129.569 76.3627Z" fill="#986837"/>
<path d="M136.155 101.506V90.4782C137.09 90.4782 137.848 89.7202 137.848 88.7852V85.5053C137.848 84.5703 137.09 83.8123 136.155 83.8123H126.632C125.697 83.8123 124.939 84.5703 124.939 85.5053V88.7852C124.939 89.7202 125.697 90.4782 126.632 90.4782V101.506C118.985 103.606 113.371 110.617 113.433 118.945C113.503 128.331 121.041 136.246 130.414 136.743C140.778 137.293 149.354 129.052 149.354 118.808C149.354 110.54 143.759 103.595 136.155 101.506Z" fill="#3D357A"/>
<path d="M223.716 182.113L174.438 137.463L165.689 147.12L214.966 191.77L223.716 182.113Z" fill="#774C28"/>
<path d="M207.987 150.336H226.076V232.658C226.076 234.513 224.57 236.019 222.716 236.019H211.348C209.493 236.019 207.987 234.513 207.987 232.658L207.987 150.336Z" fill="#87582E"/>
<path d="M216.243 153.636C216.243 152.566 215.375 151.698 214.304 151.698C213.234 151.698 212.366 152.566 212.366 153.636V179.495C212.366 180.566 213.234 181.434 214.304 181.434C215.375 181.434 216.243 180.566 216.243 179.495V153.636Z" fill="#84542D"/>
<path d="M222.512 146.914C222.512 146.14 221.884 145.512 221.109 145.512C220.335 145.512 219.707 146.14 219.707 146.914V170.763C219.707 171.538 220.335 172.166 221.109 172.166C221.884 172.166 222.512 171.538 222.512 170.763V146.914Z" fill="#84542D"/>
<path d="M168.836 58.6483H168.836C160.902 58.6483 154.47 65.0802 154.47 73.0143V86.9323C154.47 94.8665 160.902 101.298 168.836 101.298H168.836C176.771 101.298 183.203 94.8665 183.203 86.9323V73.0143C183.203 65.0802 176.771 58.6483 168.836 58.6483Z" fill="#FB7D16"/>
<path d="M204.126 58.6483H204.126C196.192 58.6483 189.76 65.0802 189.76 73.0143V86.9323C189.76 94.8665 196.192 101.298 204.126 101.298H204.126C212.06 101.298 218.492 94.8665 218.492 86.9323V73.0143C218.492 65.0802 212.06 58.6483 204.126 58.6483Z" fill="#EE6723"/>
<path d="M187.449 55.2178H187.449C178.239 55.2178 170.772 62.6844 170.772 71.8949V88.0517C170.772 97.2622 178.239 104.729 187.449 104.729H187.449C196.66 104.729 204.126 97.2622 204.126 88.0517V71.8949C204.126 62.6844 196.66 55.2178 187.449 55.2178Z" fill="#FF8214"/>
<path d="M179.013 82.966H195.885C197.465 82.966 198.748 84.2489 198.748 85.8292C198.748 90.2739 195.139 93.8824 190.695 93.8824H184.203C179.759 93.8824 176.15 90.2739 176.15 85.8292C176.15 84.2489 177.433 82.966 179.013 82.966Z" fill="#1A1830"/>
<path d="M181.158 81.7905H184.673V84.1591C184.673 85.129 183.886 85.9164 182.916 85.9164C181.946 85.9164 181.158 85.129 181.158 84.1591L181.158 81.7905Z" fill="#FF8214"/>
<path d="M190.225 81.7905H193.74V84.1591C193.74 85.129 192.952 85.9164 191.983 85.9164C191.013 85.9164 190.225 85.129 190.225 84.1591L190.225 81.7905Z" fill="#FF8214"/>
<path d="M188.783 57.3888C188.783 57.3888 184.821 52.5271 191.85 49.7765" stroke="#FF8214" stroke-width="3.55286" stroke-linecap="round" stroke-linejoin="round"/>
<path opacity="0.2" d="M168.639 71.8832C167.781 73.0161 167.267 74.423 167.267 75.9534C167.267 79.6862 170.293 82.7122 174.026 82.7122C177.758 82.7122 180.784 79.6862 180.784 75.9534C180.784 75.2983 180.686 74.6669 180.512 74.0678L168.639 71.8832Z" fill="#A33200"/>
<path d="M171.041 73.2988C170.267 74.3211 169.871 75.6452 170.084 77.0689C170.416 79.2783 172.246 81.0287 174.467 81.2671C177.471 81.5894 180.011 79.2438 180.011 76.3049C180.011 75.821 179.938 75.3547 179.81 74.9123L171.041 73.2988Z" fill="#1A1830"/>
<path opacity="0.2" d="M193.547 63.4404C196.621 65.1663 198.531 68.4254 198.531 71.9462V73.069L201.944 72.441V71.9462C201.944 67.1929 199.367 62.7931 195.218 60.4642C194.397 60.0032 193.356 60.2954 192.895 61.1169C192.433 61.9388 192.725 62.9789 193.547 63.4404Z" fill="white"/>
<path opacity="0.2" d="M204.561 71.8832C205.419 73.0161 205.933 74.423 205.933 75.9534C205.933 79.6862 202.907 82.7122 199.175 82.7122C195.442 82.7122 192.416 79.6862 192.416 75.9534C192.416 75.2983 192.514 74.6669 192.688 74.0678L204.561 71.8832Z" fill="#A33200"/>
<path d="M202.159 73.2988C202.933 74.3211 203.329 75.6453 203.116 77.069C202.784 79.2784 200.954 81.0287 198.733 81.2671C195.729 81.5893 193.189 79.2437 193.189 76.3049C193.189 75.821 193.262 75.3547 193.39 74.9123L202.159 73.2988Z" fill="#1A1830"/>
<path opacity="0.2" d="M201.32 87.3426C202.343 87.3426 203.173 86.5131 203.173 85.4898C203.173 84.4665 202.343 83.6369 201.32 83.6369C200.297 83.6369 199.467 84.4665 199.467 85.4898C199.467 86.5131 200.297 87.3426 201.32 87.3426Z" fill="white"/>
<path d="M140.693 118.808C141.907 118.808 142.867 119.907 142.626 121.097C141.566 126.33 136.939 130.27 131.393 130.27C125.847 130.27 121.221 126.331 120.16 121.097C119.919 119.907 120.879 118.808 122.093 118.808H140.693Z" fill="#271F4C"/>
<path d="M71.8466 135.579H236.611C237.102 135.579 237.5 135.978 237.5 136.469V149.446C237.5 149.937 237.102 150.336 236.611 150.336H71.8466V135.579Z" fill="#986837"/>
<path d="M160.065 117.661C155.005 117.661 150.888 121.778 150.888 126.838C150.888 131.898 155.005 136.015 160.065 136.015H210.098V117.661H160.065Z" fill="#90C23D"/>
<path d="M193.86 119.458H232.661V134.217H193.86C189.788 134.217 186.481 130.91 186.481 126.838C186.481 122.765 189.788 119.458 193.86 119.458Z" fill="#FAF0B5"/>
<path d="M235.001 134.217H193.86C189.785 134.217 186.481 130.913 186.481 126.838C186.481 122.762 189.785 119.459 193.86 119.459H235.001" stroke="#83B228" stroke-width="3.59573" stroke-miterlimit="10" stroke-linecap="round"/>
<path d="M217.199 99.6567H167.166V118.011H217.199C222.259 118.011 226.376 113.894 226.376 108.834C226.376 103.774 222.259 99.6567 217.199 99.6567Z" fill="#F2B606"/>
<path d="M183.403 116.213H144.602V101.454H183.403C187.476 101.454 190.782 104.761 190.782 108.833C190.782 112.906 187.476 116.213 183.403 116.213Z" fill="#FAF0B5"/>
<path d="M142.246 116.212H183.403C187.478 116.212 190.782 112.909 190.782 108.833C190.782 104.758 187.478 101.454 183.403 101.454H142.246" stroke="#E5A300" stroke-width="3.59573" stroke-miterlimit="10" stroke-linecap="round"/>
<path d="M204.989 150.336H229.074V158.234C229.074 158.93 228.51 159.495 227.814 159.495H206.249C205.553 159.495 204.989 158.93 204.989 158.234L204.989 150.336Z" fill="#4B5159"/>
<path d="M209.216 156.235C209.945 156.235 210.536 155.644 210.536 154.915C210.536 154.186 209.945 153.595 209.216 153.595C208.487 153.595 207.896 154.186 207.896 154.915C207.896 155.644 208.487 156.235 209.216 156.235Z" fill="#60666D"/>
<path d="M224.847 156.235C225.576 156.235 226.167 155.644 226.167 154.915C226.167 154.186 225.576 153.595 224.847 153.595C224.118 153.595 223.527 154.186 223.527 154.915C223.527 155.644 224.118 156.235 224.847 156.235Z" fill="#60666D"/>
<path d="M221.769 218.861C220.995 218.861 220.367 219.489 220.367 220.264V236.018H222.715C222.872 236.018 223.021 235.993 223.172 235.972V220.264C223.172 219.489 222.544 218.861 221.769 218.861Z" fill="#84542D"/>
<path d="M216.408 228.806C215.633 228.806 215.006 229.434 215.006 230.208V236.019H217.354C217.51 236.019 217.659 235.993 217.81 235.973V230.208C217.81 229.434 217.182 228.806 216.408 228.806Z" fill="#84542D"/>
<path d="M213.768 197.241C213.768 196.467 213.14 195.839 212.366 195.839C211.592 195.839 210.964 196.467 210.964 197.241V221.091C210.964 221.865 211.592 222.493 212.366 222.493C213.14 222.493 213.768 221.865 213.768 221.091V197.241Z" fill="#84542D"/>
<path d="M219.836 189.582C219.836 188.808 219.208 188.18 218.434 188.18C217.659 188.18 217.032 188.808 217.032 189.582V202.096C217.032 202.87 217.659 203.498 218.434 203.498C219.208 203.498 219.836 202.87 219.836 202.096V189.582Z" fill="#84542D"/>
<path d="M117.457 142.386C117.457 137.786 113.727 134.056 109.126 134.056H16.3031C11.7025 134.056 7.97269 137.786 7.97269 142.386C7.97269 145.086 9.26247 147.478 11.2526 149C9.20834 151.433 7.97269 154.569 7.97269 157.996V198.068C7.97269 205.8 14.2405 212.067 21.972 212.067H103.457C111.189 212.067 117.457 205.8 117.457 198.068V157.996C117.457 154.569 116.221 151.433 114.177 149C116.167 147.478 117.457 145.086 117.457 142.386Z" fill="#A3A3A3"/>
<path d="M14.637 217.423H26.5374V234.364C26.5374 235.851 25.33 237.058 23.8429 237.058H17.3314C15.8443 237.058 14.6369 235.851 14.6369 234.364L14.637 217.423Z" fill="#5B5B5B"/>
<path d="M98.8918 217.423H110.792V234.364C110.792 235.851 109.585 237.058 108.098 237.058H101.586C100.099 237.058 98.8918 235.851 98.8918 234.364L98.8918 217.423Z" fill="#5B5B5B"/>
<path d="M114.719 212.067H10.71C7.75238 212.067 5.3548 214.465 5.3548 217.422V217.423C5.3548 220.38 7.75238 222.778 10.71 222.778H114.719C117.677 222.778 120.075 220.38 120.075 217.423V217.422C120.075 214.465 117.677 212.067 114.719 212.067Z" fill="#4F4F4F"/>
<path d="M92.3779 134.056H82.9803V149.143C82.9803 151.438 84.8403 153.298 87.1351 153.298H88.2231C89.6985 153.298 90.9861 152.524 91.7236 151.365V175.143C91.7236 178.194 94.1966 180.667 97.2477 180.667H98.6948C101.746 180.667 104.219 178.194 104.219 175.143V134.056L92.3779 134.056Z" fill="#FF8214" fill-opacity="0.5"/>
<path d="M19.1548 134.056C19.1548 137.76 22.1568 140.762 25.86 140.762H50.3343V154.295C50.3343 157.746 53.1315 160.543 56.5822 160.543C60.0328 160.543 62.83 157.746 62.83 154.295V140.516C65.6704 139.737 67.7602 137.144 67.7602 134.056H19.1548Z" fill="#FF8214" fill-opacity="0.5"/>
<path opacity="0.1" d="M64.0919 53.5829C64.0919 58.8805 60.0082 58.8805 60.0082 64.1781C60.0082 69.476 64.0919 69.476 64.0919 74.7738C64.0919 80.0723 60.0082 80.0723 60.0082 85.3709C60.0082 90.6694 64.0919 90.6694 64.0919 95.968" stroke="white" stroke-width="5.96646" stroke-miterlimit="10" stroke-linecap="round"/>
<path opacity="0.1" d="M81.9581 61.9096C81.9581 67.2071 77.8744 67.2071 77.8744 72.5048C77.8744 77.8026 81.9581 77.8026 81.9581 83.1004C81.9581 88.399 77.8744 88.399 77.8744 93.6976C77.8744 98.9961 81.9581 98.9961 81.9581 104.295" stroke="white" stroke-width="5.96646" stroke-miterlimit="10" stroke-linecap="round"/>
<path opacity="0.1" d="M45.5042 61.9096C45.5042 67.2071 41.4205 67.2071 41.4205 72.5048C41.4205 77.8026 45.5042 77.8026 45.5042 83.1004C45.5042 88.399 41.4205 88.399 41.4205 93.6976C41.4205 98.9961 45.5042 98.9961 45.5042 104.295" stroke="white" stroke-width="5.96646" stroke-miterlimit="10" stroke-linecap="round"/>
<path d="M57.9285 115.153C57.4844 115.279 57.087 115.488 56.7476 115.76C55.5197 113.224 52.6192 111.853 49.8139 112.647C46.6679 113.537 44.8391 116.809 45.7294 119.956C46.6197 123.102 49.892 124.931 53.038 124.04C54.7104 123.567 56.0042 122.418 56.7216 120.976C57.5414 121.645 58.6605 121.92 59.7558 121.61C61.5391 121.106 62.5756 119.251 62.071 117.468C61.5664 115.685 59.7118 114.648 57.9285 115.153Z" fill="#FF9240"/>
<path d="M35.5254 121.021C33.7421 121.525 32.7059 123.38 33.2105 125.163C33.715 126.946 35.5693 127.983 37.3526 127.478C39.1359 126.974 40.1721 125.119 39.6675 123.336C39.1629 121.553 37.3086 120.516 35.5254 121.021Z" fill="#FF9240"/>
<path d="M84.4597 208.061C84.4597 208.061 79.0783 215.053 75.8196 221.359C72.6116 212.908 63.2562 200.752 63.2562 200.752C63.2562 200.752 53.954 212.838 50.7198 221.286C47.4578 214.999 42.1172 208.061 42.1172 208.061C42.1172 208.061 31.0466 222.439 31.0466 228.553C31.0466 234.667 36.0029 239.623 42.1172 239.623C46.4048 239.623 50.1151 237.181 51.9542 233.616C54.4047 237.241 58.552 239.623 63.2562 239.623C67.985 239.623 72.1493 237.214 74.5944 233.557C76.4227 237.154 80.1488 239.623 84.4597 239.623C90.5738 239.623 95.5303 234.667 95.5303 228.553C95.5303 222.439 84.4597 208.061 84.4597 208.061Z" fill="#FCA218"/>
<path d="M43.1618 193.798C43.4443 193.247 43.2265 192.571 42.6752 192.289C42.1239 192.006 41.448 192.224 41.1655 192.775L39.4103 196.2C39.1277 196.751 39.3456 197.427 39.8968 197.71C40.4481 197.992 41.124 197.774 41.4066 197.223L43.1618 193.798Z" fill="#FCA218"/>
<path d="M47.3578 199.337C47.3131 198.579 46.6624 198 45.9045 198.045C45.1465 198.09 44.5684 198.741 44.6131 199.498L44.8909 204.207C44.9356 204.965 45.5863 205.543 46.3442 205.498C47.1021 205.454 47.6803 204.803 47.6356 204.045L47.3578 199.337Z" fill="#FCA218"/>
<path d="M79.9226 195.388C79.598 194.702 78.7785 194.409 78.0921 194.733C77.4057 195.058 77.1123 195.877 77.4368 196.564L79.4528 200.828C79.7773 201.514 80.5968 201.808 81.2832 201.483C81.9696 201.159 82.263 200.339 81.9385 199.653L79.9226 195.388Z" fill="#FCA218"/>
<path d="M87.4291 186.477C87.5494 185.869 87.1543 185.279 86.5467 185.159C85.939 185.038 85.3489 185.433 85.2286 186.041L84.4811 189.816C84.3608 190.423 84.7559 191.014 85.3635 191.134C85.9712 191.254 86.5613 190.859 86.6816 190.252L87.4291 186.477Z" fill="#FCA218"/>
<path d="M29.3793 210.327C28.9491 210.017 28.3495 210.115 28.0399 210.545C27.7304 210.975 27.8282 211.575 28.2583 211.884L30.9306 213.807C31.3608 214.117 31.9605 214.019 32.27 213.589C32.5796 213.159 32.4818 212.559 32.0516 212.25L29.3793 210.327Z" fill="#FCA218"/>
<path d="M96.7641 209.649C96.7329 209.12 96.2787 208.717 95.7497 208.748C95.2206 208.779 94.8171 209.233 94.8483 209.762L95.0422 213.049C95.0734 213.578 95.5276 213.981 96.0566 213.95C96.5856 213.919 96.9892 213.465 96.958 212.936L96.7641 209.649Z" fill="#FCA218"/>
<path d="M69.9297 228.974C69.9297 232.66 66.9417 235.648 63.2558 235.648C59.57 235.648 56.582 232.66 56.582 228.974C56.582 225.288 63.2558 216.621 63.2558 216.621C63.2558 216.621 69.9297 225.288 69.9297 228.974Z" fill="#FFD14E"/>
<path d="M89.8786 230.977C89.8786 233.969 87.4525 236.396 84.4596 236.396C81.4668 236.396 79.0406 233.969 79.0406 230.977C79.0406 227.984 84.4596 220.946 84.4596 220.946C84.4596 220.946 89.8786 227.984 89.8786 230.977Z" fill="#FFD14E"/>
<path d="M47.536 230.977C47.536 233.969 45.1099 236.396 42.117 236.396C39.1241 236.396 36.698 233.969 36.698 230.977C36.698 227.984 42.117 220.946 42.117 220.946C42.117 220.946 47.536 227.984 47.536 230.977Z" fill="#FFD14E"/>
</g>
<defs>
<clipPath id="clip0_6073_28075">
<rect width="235" height="191.623" fill="white" transform="translate(2.50009 48.0002)"/>
</clipPath>
</defs>
</svg>
