<svg width="240" height="240" viewBox="0 0 240 240" fill="none" xmlns="http://www.w3.org/2000/svg">
<g clip-path="url(#clip0_6073_28073)">
<path d="M79.4138 106.11L59.3585 95.0349C57.9037 94.2315 56.1427 94.2121 54.6706 94.9832L28.0237 108.941C23.8829 111.11 24.7782 117.286 29.3667 118.178C37.6529 119.79 46.8893 122.093 49.3439 124.687C64.8975 141.125 83.7573 132.171 83.7573 132.171L79.4138 106.11Z" fill="#515153"/>
<path d="M78.069 150.52C70.0509 153.481 56.5358 156.913 51.3668 149.671C46.1978 142.43 52.3635 130.768 60.9425 129.582C69.5215 128.396 74.7687 126.601 76.382 123.157" fill="#EDEAC5"/>
<path d="M159.488 111.722C159.488 111.722 176.138 106.164 185.462 87.809C186.14 86.4739 187.557 85.6938 189.052 85.7832C202.004 86.5578 213.509 89.9532 220.746 92.5973C223.872 93.7395 224.078 98.0768 221.069 99.4994L205.889 106.676C203.67 107.725 202.054 109.734 201.528 112.132C200.624 116.252 198.8 122.593 195.819 124.728C191.268 127.987 170.656 128.317 170.656 128.317L159.488 111.722Z" fill="#515153"/>
<path d="M115.731 57.2403C123.416 56.6581 129.138 57.5295 132.12 58.1823C133.666 58.5209 135.281 58.1463 136.539 57.185L143.291 52.0255C145.829 50.086 149.504 51.0007 150.844 53.9001C154.326 61.4306 160.629 76.4655 166.699 98.1434C175.731 130.401 189.408 151.95 200.505 166.918C206.644 175.198 208.913 182.174 209.715 186.756C210.087 188.883 207.691 190.365 205.952 189.086C201.43 185.76 193.469 181.362 183.602 182.014C167.989 183.047 139.086 194.531 109.666 184.853C80.2469 175.176 68.376 154.789 69.5373 131.305C70.6329 109.15 72.5324 76.773 87.4791 53.6779C88.988 51.3464 92.1054 50.6534 94.4219 52.1852C97.8068 54.4235 100.01 56.2555 101.407 57.5892C102.817 58.9356 104.839 59.4061 106.702 58.8294C108.673 58.219 111.635 57.5507 115.731 57.2403Z" fill="#FAFAF2"/>
<path d="M176.588 126.012C176.09 141.297 172.606 162.665 157.834 170.448C137.029 181.41 116.797 181.697 83.8752 169.982C90.1965 176.161 98.7131 181.25 109.666 184.853C139.086 194.531 167.989 183.047 183.602 182.014C193.469 181.362 201.429 185.76 205.952 189.086C207.691 190.365 210.087 188.883 209.715 186.756C208.913 182.174 206.644 175.198 200.505 166.918C192.968 156.751 184.242 143.544 176.588 126.012Z" fill="#F8F7E5"/>
<path d="M155.191 137.466C151.547 145.198 144.311 157.118 135.549 155.575C126.787 154.033 123.012 141.393 128.3 134.534C133.588 127.676 136.073 122.718 134.811 119.131" fill="#FAFAF2"/>
<path d="M155.191 137.466C151.547 145.198 144.311 157.118 135.549 155.575C126.787 154.033 123.012 141.393 128.3 134.534C133.588 127.676 136.073 122.718 134.811 119.131" stroke="#F2F0DD" stroke-width="3" stroke-miterlimit="10" stroke-linecap="round"/>
<path d="M99.2924 97.7564C100.203 97.7564 100.896 98.6233 100.648 99.4994C99.8892 102.18 97.4247 104.144 94.5014 104.144C91.5781 104.144 89.1136 102.18 88.355 99.4994C88.107 98.6233 88.7999 97.7564 89.7104 97.7564H99.2924Z" fill="#10131A"/>
<path d="M129.873 97.7564C130.784 97.7564 131.477 98.6233 131.229 99.4994C130.47 102.18 128.005 104.144 125.082 104.144C122.159 104.144 119.694 102.18 118.936 99.4994C118.688 98.6233 119.381 97.7564 120.291 97.7564H129.873Z" fill="#10131A"/>
<path d="M35.7727 85.0337L39.068 83.8303L60.3854 142.203C60.7175 143.113 60.2488 144.121 59.3395 144.453C58.4301 144.785 57.4222 144.316 57.0901 143.407L35.7727 85.0337Z" fill="#E8B586"/>
<path d="M31.7747 61.9189L36.9727 66.5992C37.6008 67.1647 38.4547 67.4086 39.2867 67.26L46.1724 66.0306C48.3351 65.6445 50.0494 67.8338 49.1558 69.8408L46.3108 76.2307C45.967 77.0028 45.999 77.8903 46.3974 78.6357L49.6945 84.8045C50.7301 86.742 49.1776 89.049 46.9928 88.8193L40.0365 88.0882C39.196 87.9999 38.3618 88.3045 37.776 88.9137L32.928 93.9557C31.4053 95.5393 28.7315 94.7757 28.2748 92.6268L26.8205 85.785C26.6448 84.9583 26.0973 84.2591 25.3368 83.8902L19.0435 80.8375C17.0669 79.8787 16.9668 77.0998 18.8694 76.0014L24.9269 72.5041C25.6588 72.0815 26.1547 71.3447 26.2705 70.5075L27.229 63.5789C27.5301 61.4027 30.1421 60.4489 31.7747 61.9189Z" fill="#FFD03B"/>
<path d="M136.639 111.866C140.844 111.866 144.252 109.708 144.252 107.047C144.252 104.385 140.844 102.227 136.639 102.227C132.435 102.227 129.026 104.385 129.026 107.047C129.026 109.708 132.435 111.866 136.639 111.866Z" fill="#FFD7D7"/>
<path d="M85.6819 111.866C89.8864 111.866 93.2948 109.708 93.2948 107.047C93.2948 104.385 89.8864 102.227 85.6819 102.227C81.4774 102.227 78.069 104.385 78.069 107.047C78.069 109.708 81.4774 111.866 85.6819 111.866Z" fill="#FFD7D7"/>
<path d="M103.931 107.047C107.257 109.145 111.492 109.145 114.818 107.047" stroke="#10131A" stroke-width="3" stroke-miterlimit="10" stroke-linecap="round"/>
</g>
<defs>
<clipPath id="clip0_6073_28073">
<rect width="205.713" height="138.561" fill="white" transform="translate(17.5 51)"/>
</clipPath>
</defs>
</svg>
