<svg width="240" height="240" viewBox="0 0 240 240" fill="none" xmlns="http://www.w3.org/2000/svg">
<g clip-path="url(#clip0_4056_13347)">
<path d="M193.222 144.807H46.778V222.475H193.222V144.807Z" fill="#BDCBE0"/>
<path d="M107.445 159.699H76.4344C72.3562 159.699 69.0502 163.005 69.0502 167.083V218.517C69.0502 222.595 72.3562 225.902 76.4344 225.902H107.445C111.523 225.902 114.829 222.595 114.829 218.517V167.083C114.829 163.005 111.523 159.699 107.445 159.699Z" fill="#C7D3E5"/>
<path d="M118.918 175.212H89.0791C86.6688 175.212 84.7148 177.166 84.7148 179.576V194.839C84.7148 197.249 86.6688 199.203 89.0791 199.203H118.918C121.329 199.203 123.283 197.249 123.283 194.839V179.576C123.283 177.166 121.329 175.212 118.918 175.212Z" fill="#90A5C4"/>
<g opacity="0.05">
<path d="M118.918 175.212H100.297L84.715 188.005V194.839C84.715 197.249 86.6688 199.203 89.0792 199.203H94.2237L121.949 176.44C121.164 175.681 120.097 175.212 118.918 175.212Z" fill="white"/>
<path d="M123.282 188.067V180.49L100.49 199.203H109.719L123.282 188.067Z" fill="white"/>
</g>
<path d="M118.918 175.212H89.0791C86.6688 175.212 84.7148 177.166 84.7148 179.576V194.839C84.7148 197.249 86.6688 199.203 89.0791 199.203H118.918C121.329 199.203 123.283 197.249 123.283 194.839V179.576C123.283 177.166 121.329 175.212 118.918 175.212Z" stroke="#7C96B5" stroke-width="2.95005" stroke-miterlimit="10"/>
<path d="M180.097 222.694H142.614V192.761C142.614 182.41 151.005 174.019 161.355 174.019C171.706 174.019 180.097 182.41 180.097 192.761L180.097 222.694Z" fill="#A7B8D1"/>
<path d="M161.356 174.019C160.498 174.019 159.655 174.082 158.828 174.194C167.983 175.428 175.042 183.268 175.042 192.761V222.694H180.097V192.761C180.097 182.41 171.706 174.019 161.356 174.019Z" fill="#90A5C4"/>
<path d="M182.668 144.809C182.668 117.996 165.823 95.1265 142.142 86.1776C135.256 83.5757 127.798 82.1404 120 82.1403C112.203 82.1401 104.745 83.5752 97.8582 86.1775C74.1773 95.1252 57.3315 117.994 57.3315 144.808" stroke="#4B5675" stroke-width="24.7804" stroke-miterlimit="10" stroke-linecap="round"/>
<path d="M182.668 144.809C182.668 117.996 165.823 95.1265 142.142 86.1776C135.256 83.5757 127.798 82.1404 120 82.1403C112.203 82.1401 104.745 83.5752 97.8582 86.1775C92.6505 88.1452 87.7733 90.7861 83.3333 93.9942" stroke="#535D80" stroke-width="24.7804" stroke-miterlimit="10" stroke-linecap="round"/>
<path d="M182.668 144.809C182.668 127.64 175.761 112.088 164.576 100.772C158.293 94.4159 150.66 89.3963 142.142 86.1776" stroke="#4B5675" stroke-width="24.7804" stroke-miterlimit="10" stroke-linecap="round"/>
<path d="M195.23 144.807H44.7697C43.1082 144.807 41.7612 146.154 41.7612 147.816V159.326C41.7612 160.988 43.1082 162.335 44.7697 162.335H195.23C196.892 162.335 198.239 160.988 198.239 159.326V147.816C198.239 146.154 196.892 144.807 195.23 144.807Z" fill="#627496"/>
<path d="M40.8283 208.438H36.1825V229.555H40.8283V208.438Z" fill="#41516B"/>
<path d="M67.9932 208.438H63.3474V229.555H67.9932V208.438Z" fill="#41516B"/>
<path d="M95.158 208.438H90.5122V229.555H95.158V208.438Z" fill="#41516B"/>
<path d="M122.323 208.438H117.677V229.555H122.323V208.438Z" fill="#41516B"/>
<path d="M149.488 208.438H144.842V229.555H149.488V208.438Z" fill="#41516B"/>
<path d="M176.653 208.438H172.007V229.555H176.653V208.438Z" fill="#41516B"/>
<path d="M203.818 208.438H199.172V229.555H203.818V208.438Z" fill="#41516B"/>
<path d="M205.558 222.473H34.4422C32.6725 222.473 31.2378 223.907 31.2378 225.677V236.796C31.2378 238.565 32.6725 240 34.4422 240H205.558C207.328 240 208.762 238.565 208.762 236.796V225.677C208.762 223.907 207.328 222.473 205.558 222.473Z" fill="#566586"/>
<path d="M206.834 206.04H33.1659C32.101 206.04 31.2378 206.903 31.2378 207.968V210.457C31.2378 211.522 32.101 212.385 33.1659 212.385H206.834C207.899 212.385 208.762 211.522 208.762 210.457V207.968C208.762 206.903 207.899 206.04 206.834 206.04Z" fill="#566586"/>
<path d="M182.668 144.809C182.668 117.996 165.823 95.1265 142.142 86.1776C135.256 83.5757 127.798 82.1404 120 82.1403C112.203 82.1401 104.745 83.5752 97.8582 86.1775C74.1773 95.1252 57.3315 117.994 57.3315 144.808L182.668 144.809Z" fill="#434E6D"/>
<path d="M157.707 206.04H49.5415C48.4766 206.04 47.6134 206.903 47.6134 207.968V210.457C47.6134 211.522 48.4766 212.385 49.5415 212.385H157.707C158.772 212.385 159.635 211.522 159.635 210.457V207.968C159.635 206.903 158.772 206.04 157.707 206.04Z" fill="#627496"/>
<path d="M113.071 206.04H71.7431C70.4263 206.04 69.3588 207.107 69.3588 208.424V210.001C69.3588 211.318 70.4263 212.385 71.7431 212.385H113.071C114.388 212.385 115.455 211.318 115.455 210.001V208.424C115.455 207.107 114.388 206.04 113.071 206.04Z" fill="#647BA0"/>
<path d="M175.154 222.473H51.0787C49.1649 222.473 47.6134 224.024 47.6134 225.938V236.535C47.6134 238.449 49.1649 240 51.0787 240H175.154C177.067 240 178.619 238.449 178.619 236.535V225.938C178.619 224.024 177.067 222.473 175.154 222.473Z" fill="#627496"/>
<path d="M111.958 222.473H73.4421C71.2536 222.473 69.4795 224.247 69.4795 226.435V236.037C69.4795 238.226 71.2536 240 73.4421 240H111.958C114.147 240 115.921 238.226 115.921 236.037V226.435C115.921 224.247 114.147 222.473 111.958 222.473Z" fill="#647BA0"/>
<path d="M123.612 144.81H103.799L110.829 125.957C111.397 124.432 112.853 123.421 114.48 123.421H119.715C121.868 123.421 123.612 125.166 123.612 127.318V144.81Z" fill="#24314F"/>
<path d="M109.747 113.952C109.055 109.734 112.65 106.139 116.868 106.831C119.422 107.25 121.482 109.31 121.901 111.864C122.593 116.082 118.998 119.677 114.78 118.985C112.226 118.566 110.166 116.506 109.747 113.952Z" fill="#24314F"/>
<path d="M103.029 116.052L127.976 108.562L123.134 91.7467L98.1866 99.2365L103.029 116.052Z" fill="#24314F"/>
<path d="M97.7745 116.186L108.627 112.961L107.428 108.731L96.5752 111.957L97.7745 116.186Z" fill="#24314F"/>
<path d="M160.58 101.437L126.614 111.41L120.457 90.1212L154.423 80.1475L160.58 101.437Z" fill="#293754"/>
<path d="M167.285 105.201L160.449 105.445L152.053 76.698L158.059 73.4661L167.285 105.201Z" fill="#39476D"/>
<path d="M176.723 67.9852L158.059 73.4661L167.285 105.201L185.95 99.7193L176.723 67.9852Z" fill="#293754"/>
<path d="M189.445 100.743L186.504 101.606L176.169 66.0982L179.11 65.2351L189.445 100.743Z" fill="#6A7EA8"/>
<g style="mix-blend-mode:multiply" opacity="0.2">
<path d="M103.029 116.051L125.944 109.172L126.614 111.41L159.355 101.796L160.449 105.445L167.285 105.201L185.944 99.7215L186.504 101.606L189.445 100.743L184.692 84.3833L100.802 108.289L103.029 116.051Z" fill="#39476D"/>
</g>
<path d="M118.849 144.807H66.3558C64.6942 144.807 63.3473 146.154 63.3473 147.816V159.326C63.3473 160.988 64.6942 162.335 66.3558 162.335H118.849C120.51 162.335 121.857 160.988 121.857 159.326V147.816C121.857 146.154 120.51 144.807 118.849 144.807Z" fill="#647BA0"/>
<path d="M69.0775 175.212H47.869C47.2664 175.212 46.778 175.7 46.778 176.303V198.112C46.778 198.714 47.2664 199.203 47.869 199.203H69.0775C71.4878 199.203 73.4417 197.249 73.4417 194.839V179.576C73.4417 177.166 71.4878 175.212 69.0775 175.212Z" fill="#90A5C4"/>
<path opacity="0.05" d="M46.778 198.112C46.778 198.714 47.2665 199.203 47.869 199.203H55.7564L73.4417 184.683V179.576C73.4417 177.166 71.4877 175.212 69.0775 175.212H59.5289L46.778 185.68L46.778 198.112Z" fill="white"/>
<path d="M69.0775 175.212H47.869C47.2664 175.212 46.778 175.7 46.778 176.303V198.112C46.778 198.714 47.2664 199.203 47.869 199.203H69.0775C71.4878 199.203 73.4417 197.249 73.4417 194.839V179.576C73.4417 177.166 71.4878 175.212 69.0775 175.212Z" stroke="#7C96B5" stroke-width="2.95005" stroke-miterlimit="10"/>
</g>
<defs>
<clipPath id="clip0_4056_13347">
<rect width="240" height="240" fill="white"/>
</clipPath>
</defs>
</svg>
