<svg width="240" height="241" viewBox="0 0 240 241" fill="none" xmlns="http://www.w3.org/2000/svg">
<g clip-path="url(#clip0_4056_13378)">
<g clip-path="url(#clip1_4056_13378)">
<path d="M202.689 189.951C202.689 192.439 200.675 194.453 198.194 194.453H41.8063C39.3184 194.453 37.3041 192.439 37.3041 189.951V52.7861C37.3041 50.3016 39.3184 48.2838 41.8063 48.2838H198.194C200.675 48.2838 202.689 50.3017 202.689 52.7861L202.689 189.951Z" fill="#70C253"/>
<path d="M178.245 56.4797H178.143L174.838 38.3225C174.838 34.5603 171.789 31.5151 168.03 31.5151H72.1322C68.3734 31.5151 65.3248 34.5603 65.3248 38.3225L62.0187 56.4797H61.9177C58.152 56.4797 55.1034 59.5324 55.1034 63.2906V135.924C55.1034 139.683 58.152 142.739 61.9177 142.739H178.245C182.01 142.739 185.059 139.683 185.059 135.924V63.2906C185.059 59.5325 182.01 56.4797 178.245 56.4797Z" fill="white"/>
<path d="M173.425 68.9663H66.7378C62.9782 68.9663 59.9304 72.0141 59.9304 75.7737V103.584C59.9304 107.344 62.9782 110.392 66.7378 110.392H173.425C177.185 110.392 180.233 107.344 180.233 103.584V75.7737C180.233 72.0141 177.185 68.9663 173.425 68.9663Z" fill="#333333"/>
<path d="M143.769 36.1967C143.769 37.5251 142.7 38.6064 141.362 38.6064H98.8005C97.4687 38.6064 96.3873 37.5251 96.3873 36.1967C96.3873 34.8649 97.4686 33.783 98.8005 33.783H141.362C142.7 33.783 143.769 34.8649 143.769 36.1967Z" fill="#808080"/>
<path d="M90.9049 63.1488C90.9049 64.6364 89.6948 65.8429 88.2073 65.8429H77.8176C76.3231 65.8429 75.12 64.6364 75.12 63.1488C75.12 61.6619 76.3231 60.4553 77.8176 60.4553H88.2073C89.6949 60.4553 90.9049 61.6619 90.9049 63.1488Z" fill="#FBCB43"/>
<path d="M127.977 63.1488C127.977 64.6364 126.767 65.8429 125.28 65.8429H114.889C113.402 65.8429 112.186 64.6364 112.186 63.1488C112.186 61.6619 113.402 60.4553 114.889 60.4553H125.28C126.767 60.4553 127.977 61.6619 127.977 63.1488Z" fill="#FBCB43"/>
<path d="M165.043 63.1488C165.043 64.6364 163.839 65.8429 162.345 65.8429H151.955C150.468 65.8429 149.265 64.6364 149.265 63.1488C149.265 61.6619 150.468 60.4553 151.955 60.4553H162.345C163.839 60.4553 165.043 61.6619 165.043 63.1488Z" fill="#FBCB43"/>
<path d="M69.8132 106.93C69.8132 109.777 67.5081 112.088 64.6555 112.088C61.8097 112.088 59.4977 109.777 59.4977 106.93V80.9315C59.4977 78.0816 61.8097 75.7737 64.6555 75.7737C67.5082 75.7737 69.8132 78.0816 69.8132 80.9315V106.93Z" fill="#666666"/>
<path d="M179.678 106.93C179.678 109.777 177.366 112.088 174.52 112.088C171.674 112.088 169.362 109.777 169.362 106.93V80.9315C169.362 78.0816 171.674 75.7737 174.52 75.7737C177.366 75.7737 179.678 78.0816 179.678 80.9315V106.93Z" fill="#666666"/>
<path d="M148.669 130.598C138.665 130.598 130.525 122.31 130.525 112.122C130.525 101.934 138.665 93.647 148.669 93.647C158.681 93.647 166.82 101.935 166.82 112.122C166.82 122.309 158.681 130.598 148.669 130.598ZM148.669 97.0508C140.537 97.0508 133.926 103.814 133.926 112.122C133.926 120.43 140.537 127.197 148.669 127.197C156.802 127.197 163.413 120.43 163.413 112.122C163.413 103.814 156.802 97.0508 148.669 97.0508Z" fill="#4D4D4D"/>
<path d="M188.23 141.38C188.142 141.36 188.047 141.346 187.959 141.333C187.871 141.285 187.776 141.245 187.682 141.197C187.831 140.642 187.932 140.068 187.932 139.459V111.52C187.932 107.762 184.884 104.706 181.125 104.706H59.045C55.2862 104.706 52.2376 107.762 52.2376 111.52V139.459C52.2376 139.94 52.2847 140.406 52.3795 140.852C51.987 141.001 51.6152 141.17 51.2705 141.38C45.4164 142.604 40.8531 152 40.8531 163.445C40.8531 165.182 40.9549 166.852 41.1577 168.447C41.2996 169.603 41.4616 170.692 41.7053 171.753C42.7935 174.065 45.1457 175.633 47.8634 175.633H191.63C194.354 175.633 196.7 174.065 197.795 171.753C197.89 171.306 197.971 170.854 198.052 170.394C198.106 170.164 198.133 169.92 198.167 169.684C198.228 169.279 198.289 168.873 198.336 168.447C198.538 166.852 198.64 165.182 198.64 163.445C198.64 152 194.077 142.604 188.23 141.38Z" fill="white"/>
<path d="M62.9927 207.426H51.6491C47.8895 207.426 44.8417 210.473 44.8417 214.233V233.526C44.8417 237.286 47.8895 240.333 51.6491 240.333H62.9927C66.7523 240.333 69.8001 237.286 69.8001 233.526V214.233C69.8001 210.473 66.7523 207.426 62.9927 207.426Z" fill="#1A1A1A"/>
<path d="M187.837 207.426H176.487C172.728 207.426 169.68 210.473 169.68 214.233V233.526C169.68 237.286 172.728 240.333 176.487 240.333H187.837C191.597 240.333 194.645 237.286 194.645 233.526V214.233C194.645 210.473 191.597 207.426 187.837 207.426Z" fill="#1A1A1A"/>
<path d="M139.659 166.283C139.659 167.859 138.388 169.13 136.812 169.13H103.35C101.775 169.13 100.504 167.859 100.504 166.283C100.504 164.716 101.775 163.445 103.35 163.445H136.812C138.388 163.445 139.659 164.716 139.659 166.283Z" fill="#4D4D4D"/>
<path d="M154.26 142.34C154.26 145.294 151.854 147.694 148.892 147.694H91.2697C88.309 147.694 85.9091 145.294 85.9091 142.34L82.502 123.128C82.502 120.166 84.902 117.767 87.8626 117.767H152.3C155.261 117.767 157.66 120.166 157.66 123.128L154.26 142.34Z" fill="#A0A0A0"/>
<path d="M90.5262 166.338C90.0528 167.94 88.525 169.13 86.7474 169.13H52.8391C50.9999 169.13 49.3981 167.805 49.0194 166.061C49.8778 158.097 56.6519 151.865 64.8922 151.865C71.1521 151.865 88.8227 156.833 90.5262 166.338Z" fill="#CCCCCC"/>
<path d="M90.6951 167.805C90.6951 169.975 88.9306 171.753 86.7473 171.753H52.8391C50.6891 171.753 48.9246 169.975 48.9246 167.805C48.9246 167.224 48.9584 166.642 49.0194 166.061C49.8778 158.097 56.6519 151.864 64.8922 151.864C71.1521 151.864 88.8227 156.833 90.5262 166.338C90.5671 166.574 90.6003 166.818 90.6343 167.055C90.6612 167.291 90.6951 167.561 90.6951 167.805Z" fill="#CCCCCC"/>
<path d="M151.231 166.338C151.712 167.94 153.24 169.13 155.01 169.13H188.919C190.765 169.13 192.36 167.805 192.738 166.061C191.894 158.097 185.113 151.864 176.872 151.864C170.612 151.864 152.935 156.833 151.231 166.338Z" fill="#CCCCCC"/>
<path d="M151.069 167.805C151.069 169.975 152.834 171.753 155.01 171.753H188.919C191.069 171.753 192.84 169.975 192.84 167.805C192.84 167.224 192.806 166.642 192.738 166.061C191.894 158.097 185.113 151.864 176.872 151.864C170.612 151.864 152.935 156.833 151.231 166.338C151.198 166.574 151.164 166.818 151.13 167.055C151.097 167.291 151.069 167.561 151.069 167.805Z" fill="#CCCCCC"/>
<path d="M200.661 211.962C200.661 215.727 197.612 218.776 193.854 218.776H46.3155C42.5498 218.776 39.5012 215.727 39.5012 211.962V181.967C39.5012 178.208 42.5498 175.16 46.3155 175.16H193.854C197.612 175.16 200.661 178.208 200.661 181.967V211.962Z" fill="#333333"/>
<path d="M197.815 196.366V198.617C197.815 202.396 194.787 205.424 191.001 205.424H49.1613C45.4164 205.424 42.347 202.396 42.347 198.617V196.366C42.347 192.588 45.4164 189.559 49.1613 189.559H191.001C194.787 189.559 197.815 192.588 197.815 196.366Z" fill="#808080"/>
<path d="M44.8418 103.862C44.8418 107.62 41.7862 110.669 38.0344 110.669H32.9236C29.1585 110.669 26.1162 107.62 26.1162 103.862V98.7543C26.1162 94.9921 29.1585 91.9435 32.9236 91.9435H38.0344C41.7862 91.9435 44.8418 94.9921 44.8418 98.7543V103.862Z" fill="#404040"/>
<path d="M60.6737 124.568C59.9573 124.568 59.2947 124.121 59.058 123.405L53.6364 107.248C53.5756 107.079 53.5486 106.896 53.5486 106.707C53.5486 104.673 51.8858 103.01 49.8444 103.01H38.8795C37.9394 103.01 37.1759 102.246 37.1759 101.306C37.1759 100.367 37.9394 99.6023 38.8795 99.6023H49.8444C53.6635 99.6023 56.7868 102.631 56.9418 106.417L62.2824 122.323C62.5801 123.216 62.1066 124.182 61.2143 124.48C61.0322 124.541 60.8495 124.568 60.6737 124.568Z" fill="#404040"/>
<path d="M195.152 103.862C195.152 107.62 198.201 110.669 201.966 110.669H207.076C210.828 110.669 213.884 107.62 213.884 103.862V98.7543C213.884 94.9921 210.828 91.9435 207.076 91.9435H201.966C198.201 91.9435 195.152 94.9921 195.152 98.7543V103.862Z" fill="#404040"/>
<path d="M179.326 124.568C179.144 124.568 178.961 124.541 178.779 124.48C177.893 124.182 177.414 123.216 177.711 122.323L183.051 106.417C183.207 102.631 186.33 99.6023 190.149 99.6023H201.114C202.06 99.6023 202.818 100.367 202.818 101.306C202.818 102.246 202.06 103.01 201.114 103.01H190.149C188.108 103.01 186.451 104.673 186.451 106.707C186.451 106.896 186.417 107.079 186.363 107.248L180.936 123.405C180.699 124.121 180.036 124.568 179.326 124.568Z" fill="#404040"/>
<path d="M69.8882 196.968C69.8882 199.388 67.9208 201.361 65.4939 201.361C63.0669 201.361 61.0996 199.388 61.0996 196.968C61.0996 194.541 63.0669 192.567 65.4939 192.567C67.9208 192.567 69.8882 194.541 69.8882 196.968Z" fill="#999999"/>
<path d="M65.4939 203.065C62.1337 203.065 59.396 200.327 59.396 196.968C59.396 193.601 62.1337 190.87 65.4939 190.87C68.854 190.87 71.5917 193.601 71.5917 196.968C71.5917 200.327 68.8533 203.065 65.4939 203.065Z" fill="#666666"/>
<path d="M179.063 196.968C179.063 199.388 177.096 201.361 174.669 201.361C172.242 201.361 170.275 199.388 170.275 196.968C170.275 194.541 172.242 192.567 174.669 192.567C177.096 192.567 179.063 194.541 179.063 196.968Z" fill="#999999"/>
<path d="M174.669 203.065C171.309 203.065 168.571 200.327 168.571 196.968C168.571 193.601 171.309 190.87 174.669 190.87C178.029 190.87 180.773 193.601 180.773 196.968C180.773 200.327 178.028 203.065 174.669 203.065Z" fill="#666666"/>
<path d="M163.697 189.559H76.4386C76.3978 189.829 76.3639 190.134 76.3639 190.41C76.3639 194.054 82.7317 196.974 86.3417 196.974H105.595C105.507 197.272 105.439 197.576 105.439 197.894C105.439 199.685 106.886 201.125 108.67 201.125H131.499C133.277 201.125 134.724 199.685 134.724 197.894C134.724 197.576 134.663 197.272 134.575 196.974H153.854C157.464 196.974 163.799 194.054 163.799 190.41C163.799 190.134 163.765 189.829 163.697 189.559Z" fill="#292929"/>
</g>
</g>
<defs>
<clipPath id="clip0_4056_13378">
<rect width="240" height="240" fill="white" transform="translate(0 0.333374)"/>
</clipPath>
<clipPath id="clip1_4056_13378">
<rect width="187.768" height="208.818" fill="white" transform="translate(26.1162 31.5151)"/>
</clipPath>
</defs>
</svg>
