<svg width="240" height="240" viewBox="0 0 240 240" fill="none" xmlns="http://www.w3.org/2000/svg">
<path d="M131.491 20.0122H140.411C154.799 20.0122 166.48 31.6934 166.48 46.0814H105.422C105.422 31.6934 117.103 20.0122 131.491 20.0122Z" fill="#770A1F"/>
<path d="M100.546 111.674L63.3097 137.516C55.196 143.147 44.037 141.132 38.406 133.018L37.1907 131.267C31.5597 123.153 33.5754 111.994 41.6892 106.363L78.9256 80.5209L100.546 111.674Z" fill="#68041C"/>
<path d="M188.466 81.6313L220.516 113.681C227.499 120.665 227.499 132.004 220.516 138.988L219.008 140.495C212.025 147.479 200.685 147.479 193.702 140.495L161.652 108.445L188.466 81.6313Z" fill="#68041C"/>
<path d="M127.006 116.447H93.5789V211.811H127.006V116.447Z" fill="#280F15"/>
<path d="M178.366 116.447H144.938V211.811H178.366V116.447Z" fill="#280F15"/>
<path d="M171.769 98.0811H100.175C94.7305 98.0811 90.3164 102.495 90.3164 107.94V139.554C90.3164 144.999 94.7305 149.413 100.175 149.413H171.769C177.214 149.413 181.628 144.999 181.628 139.554V107.94C181.628 102.495 177.214 98.0811 171.769 98.0811Z" fill="#770A1F"/>
<path d="M92.2805 123.747C107.806 123.747 120.391 111.161 120.391 95.6362C120.391 80.111 107.806 67.5254 92.2805 67.5254C76.7553 67.5254 64.1697 80.111 64.1697 95.6362C64.1697 111.161 76.7553 123.747 92.2805 123.747Z" fill="#770A1F"/>
<path d="M179.664 123.747C195.189 123.747 207.775 111.161 207.775 95.6362C207.775 80.111 195.189 67.5254 179.664 67.5254C164.139 67.5254 151.553 80.111 151.553 95.6362C151.553 111.161 164.139 123.747 179.664 123.747Z" fill="#770A1F"/>
<path d="M171.76 67.1812H100.184C92.0526 67.1812 85.4606 73.7732 85.4606 81.905V115.125C85.4606 123.256 92.0526 129.849 100.184 129.849H171.76C179.892 129.849 186.484 123.256 186.484 115.125V81.905C186.484 73.7732 179.892 67.1812 171.76 67.1812Z" fill="#911729"/>
<path d="M178.182 164.918L137.532 176.818C136.514 177.116 135.431 177.116 134.412 176.818L93.7626 164.918C91.9783 164.395 90.7522 162.759 90.7522 160.9V148.867H181.192V160.9C181.192 162.759 179.966 164.395 178.182 164.918Z" fill="#2F1113"/>
<path d="M179.824 141.383H92.1207C89.7012 141.383 87.7399 143.345 87.7399 145.764V153.062C87.7399 155.481 89.7012 157.443 92.1207 157.443H179.824C182.243 157.443 184.205 155.481 184.205 153.062V145.764C184.205 143.345 182.243 141.383 179.824 141.383Z" fill="#1D090B"/>
<path d="M115.853 140.098H104.522C103.348 140.098 102.397 141.049 102.397 142.222V156.605C102.397 157.778 103.348 158.729 104.522 158.729H115.853C117.027 158.729 117.978 157.778 117.978 156.605V142.222C117.978 141.049 117.027 140.098 115.853 140.098Z" fill="#5C2C1E"/>
<path d="M113.98 140.098H106.396V158.729H113.98V140.098Z" fill="#70482E"/>
<path d="M167.423 140.098H156.091C154.918 140.098 153.967 141.049 153.967 142.222V156.605C153.967 157.778 154.918 158.729 156.091 158.729H167.423C168.596 158.729 169.547 157.778 169.547 156.605V142.222C169.547 141.049 168.596 140.098 167.423 140.098Z" fill="#5C2C1E"/>
<path d="M101.984 206.297H118.601C125.426 206.297 130.967 211.838 130.967 218.663V227.217C130.967 229.788 128.88 231.875 126.309 231.875H94.276C91.7053 231.875 89.6182 229.788 89.6182 227.217V218.663C89.6182 211.838 95.1591 206.297 101.984 206.297Z" fill="#190008"/>
<path d="M153.343 206.297H169.961C176.786 206.297 182.327 211.838 182.327 218.663V227.217C182.327 229.788 180.239 231.875 177.669 231.875H145.635C143.065 231.875 140.978 229.788 140.978 227.217V218.663C140.978 211.838 146.518 206.297 153.343 206.297Z" fill="#190008"/>
<path d="M126.704 184.697H93.8815C92.74 184.697 91.8147 185.622 91.8147 186.764V192.436C91.8147 193.578 92.74 194.503 93.8815 194.503H126.704C127.845 194.503 128.771 193.578 128.771 192.436V186.764C128.771 185.622 127.845 184.697 126.704 184.697Z" fill="#572F27"/>
<path d="M163.92 72.6852C168.683 72.6852 172.544 68.8239 172.544 64.0606C172.544 59.2974 168.683 55.436 163.92 55.436C159.156 55.436 155.295 59.2974 155.295 64.0606C155.295 68.8239 159.156 72.6852 163.92 72.6852Z" fill="#AA2D3F"/>
<path d="M108.025 72.6852C112.788 72.6852 116.649 68.8239 116.649 64.0606C116.649 59.2974 112.788 55.436 108.025 55.436C103.262 55.436 99.4003 59.2974 99.4003 64.0606C99.4003 68.8239 103.262 72.6852 108.025 72.6852Z" fill="#AA2D3F"/>
<path d="M114.79 175.98H105.795C101.982 175.98 98.89 179.072 98.89 182.886V195.634C98.89 199.447 101.982 202.539 105.795 202.539H114.79C118.604 202.539 121.695 199.447 121.695 195.634V182.886C121.695 179.072 118.604 175.98 114.79 175.98Z" fill="#572F27"/>
<path d="M113.504 182.188H107.081C104.358 182.188 102.151 184.395 102.151 187.118V196.221C102.151 198.944 104.358 201.152 107.081 201.152H113.504C116.227 201.152 118.435 198.944 118.435 196.221V187.118C118.435 184.395 116.227 182.188 113.504 182.188Z" fill="#2F1113"/>
<path d="M178.063 184.697H145.241C144.099 184.697 143.174 185.622 143.174 186.764V192.436C143.174 193.578 144.099 194.503 145.241 194.503H178.063C179.205 194.503 180.13 193.578 180.13 192.436V186.764C180.13 185.622 179.205 184.697 178.063 184.697Z" fill="#572F27"/>
<path d="M166.149 175.98H157.154C153.341 175.98 150.249 179.072 150.249 182.886V195.634C150.249 199.447 153.341 202.539 157.154 202.539H166.149C169.963 202.539 173.055 199.447 173.055 195.634V182.886C173.055 179.072 169.963 175.98 166.149 175.98Z" fill="#572F27"/>
<path d="M164.863 182.188H158.441C155.717 182.188 153.51 184.395 153.51 187.118V196.221C153.51 198.944 155.717 201.152 158.441 201.152H164.863C167.587 201.152 169.794 198.944 169.794 196.221V187.118C169.794 184.395 167.587 182.188 164.863 182.188Z" fill="#2F1113"/>
<path d="M157.11 42.3579H114.835C109.66 42.3579 105.464 46.5531 105.464 51.7282V75.0106C105.464 80.1857 109.66 84.3809 114.835 84.3809H157.11C162.285 84.3809 166.48 80.1857 166.48 75.0106V51.7282C166.48 46.5531 162.285 42.3579 157.11 42.3579Z" fill="#BF3847"/>
<path d="M125.538 87.3193C128.824 87.3193 131.488 84.6553 131.488 81.3691C131.488 78.0829 128.824 75.4189 125.538 75.4189C122.252 75.4189 119.588 78.0829 119.588 81.3691C119.588 84.6553 122.252 87.3193 125.538 87.3193Z" fill="#68021B"/>
<path d="M146.407 87.3193C149.693 87.3193 152.357 84.6553 152.357 81.3691C152.357 78.0829 149.693 75.4189 146.407 75.4189C143.121 75.4189 140.457 78.0829 140.457 81.3691C140.457 84.6553 143.121 87.3193 146.407 87.3193Z" fill="#68021B"/>
<path d="M135.972 89.4409C140.43 89.4409 144.044 85.827 144.044 81.3691C144.044 76.9112 140.43 73.2974 135.972 73.2974C131.514 73.2974 127.901 76.9112 127.901 81.3691C127.901 85.827 131.514 89.4409 135.972 89.4409Z" fill="#68021B"/>
<path d="M123.319 82.1763C122.476 82.8199 120.304 83.1687 118.492 83.353C117.142 83.4903 116.128 82.1619 116.615 80.8959C117.27 79.1964 118.179 77.1922 119.022 76.5486C120.576 75.3619 122.798 75.6596 123.984 77.2137C125.171 78.7677 124.873 80.9896 123.319 82.1763Z" fill="#7A0A20"/>
<path d="M125.439 79.8802C127.394 79.8802 128.979 78.2951 128.979 76.3398C128.979 74.3844 127.394 72.7993 125.439 72.7993C123.483 72.7993 121.898 74.3844 121.898 76.3398C121.898 78.2951 123.483 79.8802 125.439 79.8802Z" fill="#72001B"/>
<path d="M130.474 80.7243C134.133 80.7243 137.098 77.7587 137.098 74.1004C137.098 70.4422 134.133 67.4766 130.474 67.4766C126.816 67.4766 123.851 70.4422 123.851 74.1004C123.851 77.7587 126.816 80.7243 130.474 80.7243Z" fill="#7A0A20"/>
<path d="M148.625 82.1763C149.468 82.8199 151.641 83.1687 153.453 83.353C154.802 83.4903 155.817 82.1619 155.329 80.8959C154.674 79.1964 153.766 77.1922 152.923 76.5486C151.369 75.3619 149.147 75.6596 147.96 77.2137C146.773 78.7677 147.071 80.9896 148.625 82.1763Z" fill="#7A0A20"/>
<path d="M146.506 79.8802C148.461 79.8802 150.046 78.2951 150.046 76.3398C150.046 74.3844 148.461 72.7993 146.506 72.7993C144.55 72.7993 142.965 74.3844 142.965 76.3398C142.965 78.2951 144.55 79.8802 146.506 79.8802Z" fill="#72001B"/>
<path d="M141.47 80.7243C145.128 80.7243 148.094 77.7587 148.094 74.1004C148.094 70.4422 145.128 67.4766 141.47 67.4766C137.812 67.4766 134.846 70.4422 134.846 74.1004C134.846 77.7587 137.812 80.7243 141.47 80.7243Z" fill="#7A0A20"/>
<path d="M165.549 140.098H157.965V158.729H165.549V140.098Z" fill="#70482E"/>
<path d="M115.26 86.7115V129.722H81.4329V86.7115C81.4329 83.5932 83.9646 81.0615 87.0829 81.0615H109.61C112.729 81.0615 115.26 83.5932 115.26 86.7115Z" fill="#CCCCCC"/>
<path d="M117.052 127.687H79.6413C78.3463 127.687 77.2964 128.737 77.2964 130.032V133.466C77.2964 134.761 78.3463 135.811 79.6413 135.811H117.052C118.347 135.811 119.397 134.761 119.397 133.466V130.032C119.397 128.737 118.347 127.687 117.052 127.687Z" fill="#B5B5B5"/>
<path d="M167.388 41.7231H104.514C103.345 41.7231 102.397 42.6709 102.397 43.8399V50.7042C102.397 51.8732 103.345 52.821 104.514 52.821H167.388C168.557 52.821 169.505 51.8732 169.505 50.7042V43.8399C169.505 42.6709 168.557 41.7231 167.388 41.7231Z" fill="#911729"/>
<path d="M12.3629 150.417C8.35119 150.417 5.67954 154.553 7.32328 158.213C10.759 165.862 19.6706 176.386 42.7002 176.386H61.7376V150.417H12.3629Z" fill="#A3A3A3"/>
<path d="M131.58 185.635H71.9415C71.9415 185.635 78.3067 213.861 52.6372 227.009H82.8978C82.8978 227.009 83.7892 205.926 101.761 205.926C119.733 205.926 120.624 227.009 120.624 227.009H150.885C125.215 213.861 131.58 185.635 131.58 185.635Z" fill="#A3A3A3"/>
<path d="M46.5847 154.994L67.3521 185.826C68.6554 187.761 70.8356 188.921 73.1685 188.921H135.734C138.397 188.921 140.83 187.413 142.015 185.029L156.937 154.994H46.5847Z" fill="#B5B5B5"/>
<path d="M162.205 157.843H41.317C39.7275 157.843 38.3363 156.776 37.9255 155.24L35.9237 147.758C35.3272 145.529 37.0073 143.34 39.3152 143.34H164.207C166.514 143.34 168.195 145.529 167.598 147.758L165.596 155.24C165.185 156.776 163.794 157.843 162.205 157.843Z" fill="#CCCCCC"/>
<path d="M86.8668 240H47.9763V230.524C47.9763 227.718 50.2509 225.443 53.0568 225.443H81.7863C84.5922 225.443 86.8668 227.718 86.8668 230.524V240Z" fill="#B5B5B5"/>
<path d="M155.545 240H116.655V230.524C116.655 227.718 118.93 225.443 121.735 225.443H150.465C153.271 225.443 155.545 227.718 155.545 230.524V240Z" fill="#B5B5B5"/>
<path d="M128.59 56.6416H118.948C118.436 56.6416 118.022 57.0563 118.022 57.5678V58.7118C118.022 59.2233 118.436 59.6379 118.948 59.6379H128.59C129.102 59.6379 129.517 59.2233 129.517 58.7118V57.5678C129.517 57.0563 129.102 56.6416 128.59 56.6416Z" fill="#AA2D3F"/>
<path d="M153.636 56.6416H143.994C143.482 56.6416 143.067 57.0563 143.067 57.5678V58.7118C143.067 59.2233 143.482 59.6379 143.994 59.6379H153.636C154.148 59.6379 154.562 59.2233 154.562 58.7118V57.5678C154.562 57.0563 154.148 56.6416 153.636 56.6416Z" fill="#AA2D3F"/>
<path d="M135.972 71.2276C138.235 71.2276 140.069 69.9235 140.069 68.3148C140.069 66.706 138.235 65.4019 135.972 65.4019C133.71 65.4019 131.875 66.706 131.875 68.3148C131.875 69.9235 133.71 71.2276 135.972 71.2276Z" fill="#44151D"/>
<path d="M124.27 68.2729C126.211 68.2729 127.784 66.6996 127.784 64.759C127.784 62.8183 126.211 61.2451 124.27 61.2451C122.33 61.2451 120.756 62.8183 120.756 64.759C120.756 66.6996 122.33 68.2729 124.27 68.2729Z" fill="#420914"/>
<path d="M147.674 68.2729C149.615 68.2729 151.188 66.6996 151.188 64.759C151.188 62.8183 149.615 61.2451 147.674 61.2451C145.734 61.2451 144.161 62.8183 144.161 64.759C144.161 66.6996 145.734 68.2729 147.674 68.2729Z" fill="#420914"/>
<path d="M72.2556 108.134H61.7668C58.6605 108.134 56.1425 110.652 56.1425 113.758V118.24C56.1425 121.346 58.6605 123.864 61.7668 123.864H72.2556C75.3618 123.864 77.8799 121.346 77.8799 118.24V113.758C77.8799 110.652 75.3618 108.134 72.2556 108.134Z" fill="#AD1A3E"/>
<path d="M19.9956 99.6358H88.8253V111.148H19.9956C18.0473 111.148 16.4656 109.566 16.4656 107.618V103.166C16.4656 101.217 18.0473 99.6358 19.9956 99.6358Z" fill="#CCCCCC"/>
<path d="M181.186 138.696H170.697C167.591 138.696 165.073 141.214 165.073 144.321V148.803C165.073 151.909 167.591 154.427 170.697 154.427H181.186C184.292 154.427 186.81 151.909 186.81 148.803V144.321C186.81 141.214 184.292 138.696 181.186 138.696Z" fill="#AD1A3E"/>
<path d="M191.468 135.785H80.7321V143.166H191.468V135.785Z" fill="url(#paint0_linear_4073_42598)"/>
<path d="M69.9375 90.168H36.6933C33.6167 90.168 31.1227 92.662 31.1227 95.7386V115.045C31.1227 118.121 33.6167 120.615 36.6933 120.615H69.9375C73.0141 120.615 75.5081 118.121 75.5081 115.045V95.7386C75.5081 92.662 73.0141 90.168 69.9375 90.168Z" fill="#BC2442"/>
<path d="M65.4099 106.053C65.0037 106.053 64.6746 106.383 64.6746 106.789V120.616H66.1454V106.789C66.1454 106.383 65.8162 106.053 65.4099 106.053Z" fill="#AD1A3E"/>
<path d="M53.3153 106.053C52.9091 106.053 52.5797 106.383 52.5797 106.789V120.616H54.0509V106.789C54.0509 106.383 53.7214 106.053 53.3153 106.053Z" fill="#AD1A3E"/>
<path d="M41.2205 106.053C40.8144 106.053 40.4852 106.383 40.4852 106.789V120.616H41.9561V106.789C41.9561 106.383 41.6269 106.053 41.2205 106.053Z" fill="#AD1A3E"/>
<path d="M208.442 121.24H174.494C171.3 121.24 168.712 123.829 168.712 127.022V147.45C168.712 150.643 171.3 153.232 174.494 153.232H208.442C211.636 153.232 214.225 150.643 214.225 147.45V127.022C214.225 123.829 211.636 121.24 208.442 121.24Z" fill="#BC2442"/>
<path d="M203.563 138.669C203.157 138.669 202.827 138.999 202.827 139.405V153.232H204.298V139.405C204.298 138.999 203.969 138.669 203.563 138.669Z" fill="#AD1A3E"/>
<path d="M191.468 138.669C191.062 138.669 190.732 138.999 190.732 139.405V153.232H192.204V139.405C192.204 138.999 191.874 138.669 191.468 138.669Z" fill="#AD1A3E"/>
<path d="M179.373 138.669C178.967 138.669 178.638 138.999 178.638 139.405V153.232H180.109V139.405C180.109 138.999 179.78 138.669 179.373 138.669Z" fill="#AD1A3E"/>
<defs>
<linearGradient id="paint0_linear_4073_42598" x1="193.312" y1="139.476" x2="64.1975" y2="139.476" gradientUnits="userSpaceOnUse">
<stop stop-color="#6F5062"/>
<stop offset="0.4743" stop-color="#DA4C48"/>
<stop offset="0.6441" stop-color="#E9CD79"/>
<stop offset="0.7648" stop-color="#C74044"/>
<stop offset="1" stop-color="#634A50"/>
</linearGradient>
</defs>
</svg>
