<svg width="241" height="241" viewBox="0 0 241 241" fill="none" xmlns="http://www.w3.org/2000/svg">
<path d="M181.106 70.976C181.293 59.8126 178.251 48.582 172.386 39.0722C166.514 29.5512 157.624 21.0705 146.564 18.1808C135.423 15.27 123.26 18.5179 116.553 28.2146C113.573 32.5213 112.159 37.9675 113.102 43.1478C113.557 45.6443 114.736 48.1089 116.542 49.9119C118.781 52.1474 121.76 53.0905 124.833 53.413C130.789 54.0376 138.371 52.5342 140.445 46.0661C141.472 42.8647 140.707 39.2478 138.481 36.741C136.124 34.0862 132.722 33.2811 129.329 33.755C127.399 34.0247 126.343 36.4873 126.811 38.1898C127.382 40.2674 129.31 40.9783 131.246 40.7078C130.812 40.7683 131.844 40.7981 131.409 40.7239C131.87 40.8026 132.128 40.8897 132.32 40.9827C132.905 41.2661 133.332 41.6603 133.522 42.151C133.917 43.1714 133.67 44.3327 132.779 45.0506C131.681 45.9354 129.916 46.2115 128.422 46.2874C126.701 46.3749 124.752 46.4242 123.125 45.7817C120.258 44.6501 119.631 40.9882 120.101 38.2321C120.716 34.6228 122.569 31.5673 125.262 29.087C131.398 23.4365 140.861 23.217 148.356 26.3638C156.053 29.5959 162.173 36.1012 166.421 43.1399C171.483 51.5256 174.06 61.1891 173.896 70.9761C173.818 75.6176 181.028 75.6184 181.106 70.976Z" fill="#2F2A2E"/>
<path d="M97.2644 63.223L141.576 107.535C150.178 116.136 150.178 130.103 141.576 138.705C132.974 147.306 119.008 147.306 110.406 138.705L79.7556 108.054C67.384 95.6828 67.384 75.5945 79.7556 63.2229C84.5873 58.3912 92.4327 58.3914 97.2644 63.223Z" fill="#844534"/>
<path d="M171.762 100.385H211.893C215.391 100.385 218.231 103.225 218.231 106.723C218.231 117.532 209.456 126.307 198.648 126.307H171.762L171.762 100.385Z" fill="#B0A788"/>
<path d="M193.698 86.0438C193.698 86.0438 173.571 36.292 114.385 73.374C59.3345 107.865 27.97 103.51 27.97 103.51" stroke="#8E5544" stroke-width="7" stroke-miterlimit="10" stroke-linecap="round"/>
<path d="M196.38 93.4771C196.38 93.4771 181.859 39.97 121.586 64.2047C61.3127 88.4393 28.2434 89.3103 28.2434 89.3103" stroke="#8E5544" stroke-width="7" stroke-miterlimit="10" stroke-linecap="round"/>
<path d="M117.77 75.1731L65.1641 127.779L44.0995 122.135C34.7414 119.627 26.178 128.191 28.6856 137.549C32.3833 151.348 39.6481 163.932 49.7502 174.034L67.0688 191.352C85.15 209.434 114.465 209.434 132.546 191.352L183.248 140.651C201.329 122.57 201.329 93.2544 183.248 75.1732C165.167 57.092 135.851 57.0919 117.77 75.1731Z" fill="#9F5B44"/>
<path d="M74.0528 180.68L51.7256 207.137" stroke="#F4AA2F" stroke-width="12.1581" stroke-miterlimit="10" stroke-linecap="round"/>
<path d="M183.248 75.1731C182.834 74.7583 182.407 74.3636 181.981 73.968C176.855 72.0066 171.211 71.0954 165.301 71.5336C146.193 72.9503 130.819 88.5848 129.723 107.714C129.511 111.422 129.824 115.025 130.595 118.454C132.442 126.672 129.077 135.192 121.809 139.45C100.645 151.85 86.4312 174.825 86.4312 201.125C86.4312 201.739 86.4619 202.345 86.4774 202.954C102.264 207.685 120.076 203.823 132.547 191.352L183.248 140.651C183.249 140.65 183.25 140.649 183.251 140.648C201.33 122.567 201.329 93.2534 183.248 75.1731Z" fill="white"/>
<path d="M96.534 147.599C111.066 147.599 122.846 135.819 122.846 121.287C122.846 106.755 111.066 94.9751 96.534 94.9751C82.0024 94.9751 70.2222 106.755 70.2222 121.287C70.2222 135.819 82.0024 147.599 96.534 147.599Z" fill="#AFA379"/>
<path d="M112.923 137.899C112.923 137.899 146.416 165.701 178.978 154.74" stroke="#6D817F" stroke-width="5" stroke-miterlimit="10" stroke-linecap="round"/>
<path d="M51.4115 67.2307L103.709 101.756C113.861 108.458 116.662 122.141 109.96 132.293C103.258 142.445 89.5751 145.246 79.4232 138.544L43.2488 114.663C28.6476 105.023 24.6191 85.3431 34.2584 70.7419C38.023 65.0394 45.7091 63.4662 51.4115 67.2307Z" fill="#5B3F2C"/>
<path d="M64.1424 58.8963L108.454 103.208C117.056 111.81 117.056 125.776 108.454 134.378C99.8525 142.98 85.8857 142.98 77.2841 134.378L46.6338 103.728C34.2622 91.3562 34.2622 71.2679 46.6338 58.8963C51.4655 54.0646 59.3108 54.0647 64.1424 58.8963Z" fill="#6B4B34"/>
<path d="M88.6843 92.3992H79.0259C77.6033 92.3992 76.45 93.5525 76.45 94.9752V94.9753C76.45 96.398 77.6033 97.5513 79.0259 97.5513H88.6843C90.107 97.5513 91.2603 96.398 91.2603 94.9753V94.9752C91.2603 93.5525 90.107 92.3992 88.6843 92.3992Z" fill="#603E26"/>
<path d="M86.4312 99.8044V90.1461C86.4312 88.7234 85.2778 87.5701 83.8552 87.5701H83.855C82.4324 87.5701 81.2791 88.7234 81.2791 90.1461V99.8044C81.2791 101.227 82.4324 102.38 83.855 102.38H83.8552C85.2778 102.38 86.4312 101.227 86.4312 99.8044Z" fill="#603E26"/>
<path d="M34.4832 198.584L68.4874 217.889" stroke="#F4AA2F" stroke-width="12.1581" stroke-miterlimit="10" stroke-linecap="round"/>
<path d="M103.495 105.941H93.8362C92.4136 105.941 91.2603 107.094 91.2603 108.517V108.517C91.2603 109.939 92.4136 111.093 93.8362 111.093H103.495C104.917 111.093 106.071 109.939 106.071 108.517V108.517C106.071 107.094 104.917 105.941 103.495 105.941Z" fill="#603E26"/>
<path d="M101.242 113.346V103.688C101.242 102.265 100.088 101.112 98.6657 101.112H98.6656C97.2429 101.112 96.0896 102.265 96.0896 103.688V113.346C96.0896 114.769 97.2429 115.922 98.6656 115.922H98.6657C100.088 115.922 101.242 114.769 101.242 113.346Z" fill="#603E26"/>
<path d="M169.185 157.059C140.818 157.059 116.586 137.268 115.367 136.256C112.813 134.136 112.461 130.348 114.58 127.795C116.699 125.243 120.484 124.889 123.038 127.007C123.476 127.365 154.468 152.502 183.343 142.78C186.482 141.72 189.896 143.412 190.953 146.557C192.013 149.702 190.321 153.11 187.176 154.169C181.114 156.209 175.06 157.059 169.185 157.059Z" fill="#AFA379"/>
<path d="M151.306 142.03C146.903 140.636 142.807 138.889 139.169 137.08L141.415 150.237L151.306 142.03Z" fill="#A59974"/>
<path d="M125.278 143.175C125.592 143.368 125.918 143.563 126.244 143.759L136.166 135.525C128.293 131.265 123.213 127.15 123.038 127.006C122.852 126.852 122.648 126.739 122.451 126.611L125.278 143.175Z" fill="#A59974"/>
<path d="M155.722 143.268L161.186 155.18L168.418 144.988C164.066 144.91 159.798 144.272 155.722 143.268Z" fill="#A59974"/>
<path d="M183.343 142.779C180.527 143.727 177.692 144.335 174.866 144.676L183.438 154.241L187.184 142.806C185.978 142.395 184.641 142.341 183.343 142.779Z" fill="#A59974"/>
<path d="M166.651 90.5916C166.651 90.5916 146.416 92.4523 137.5 116.021C137.5 116.021 159.363 106.563 170.605 113.928L166.651 90.5916Z" fill="#A59974"/>
<path d="M178.979 109.977L166.302 110.791L169.321 119.29C169.791 120.614 170.97 121.287 172.152 121.287C173.267 121.287 174.383 120.687 174.906 119.469L178.979 109.977Z" fill="#2F2A2E"/>
<path d="M172.402 112.439C165.868 112.439 160.552 107.123 160.552 100.588C160.552 94.0542 165.868 88.738 172.402 88.738C178.936 88.738 184.253 94.0542 184.253 100.588C184.253 107.123 178.936 112.439 172.402 112.439Z" fill="white"/>
<path d="M172.403 91.742C177.281 91.742 181.249 95.7104 181.249 100.588C181.249 105.466 177.281 109.435 172.403 109.435C167.525 109.435 163.556 105.466 163.556 100.588C163.556 95.7104 167.525 91.742 172.403 91.742ZM172.403 85.7334C164.199 85.7334 157.548 92.3842 157.548 100.588C157.548 108.792 164.199 115.443 172.403 115.443C180.607 115.443 187.258 108.792 187.258 100.588C187.258 92.3842 180.607 85.7334 172.403 85.7334Z" fill="#2F2A2E"/>
</svg>
