<svg width="240" height="240" viewBox="0 0 240 240" fill="none" xmlns="http://www.w3.org/2000/svg">
<g clip-path="url(#clip0_4073_42372)">
<g clip-path="url(#clip1_4073_42372)">
<path d="M227.283 179.245C218.578 178.427 219.811 182.052 213.173 180.398C210.146 179.644 207.26 176.552 206.25 175.375C204.93 175.621 203.631 175.969 202.403 176.49C200.214 179.646 197.721 182.642 194.921 185.437C193.326 187.024 191.639 188.512 189.875 189.898C190.738 190.001 191.594 190.144 192.44 190.325C197.953 186.3 205.321 186.55 209.238 192.232C211.815 195.97 212.129 201.261 212.129 201.261C203.617 197.943 203.817 201.939 197.621 198.374C194.796 196.748 192.783 192.814 192.105 191.342C190.712 191.212 189.312 191.188 187.934 191.359C182.81 195.05 177.101 197.917 171.093 199.879C171.831 200.201 172.554 200.551 173.263 200.927C180.181 198.381 187.756 200.824 190.14 207.884C191.709 212.53 190.466 218.117 190.466 218.117C182.612 212.15 181.635 216.358 176.258 210.821C173.806 208.295 172.881 203.614 172.613 201.884C171.25 201.353 169.852 200.924 168.419 200.688C165.32 201.55 162.155 202.175 158.962 202.552C157.655 202.699 156.09 202.861 154.82 202.947L154.289 199.478C158.864 199.651 162.628 199.083 165.221 198.523C165.84 198.392 166.455 198.25 167.069 198.1C167.412 197.601 167.725 197.079 168.013 196.547C168.438 195.747 168.82 194.923 169.169 194.083C168.093 192.695 165.334 188.812 165.184 185.299C164.856 177.588 168.585 179.77 169.647 169.963C169.647 169.963 174.559 172.899 176.857 177.231C180.347 183.811 176.92 190.99 170.324 194.269C170.017 195.39 169.649 196.49 169.208 197.532C175.236 195.804 180.98 193.102 186.148 189.552C186.353 188.968 186.518 188.364 186.652 187.758C186.826 186.938 186.958 186.107 187.055 185.27C185.745 184.308 182.3 181.551 181.275 178.46C179.023 171.676 182.898 172.672 181.351 163.669C181.351 163.669 186.473 165.036 189.62 168.31C194.4 173.283 193.173 180.546 188.131 185.142C188.142 186.189 188.097 187.231 187.977 188.243C189.835 186.857 191.61 185.357 193.285 183.751C195.853 181.311 198.177 178.646 200.254 175.804C200.334 175.047 200.336 174.273 200.29 173.508C200.235 172.707 200.139 171.908 200.008 171.113C198.55 170.572 194.655 168.939 192.9 166.364C189.046 160.712 192.874 160.61 189.086 152.731C189.086 152.731 194.158 152.644 197.914 154.83C203.619 158.152 204.397 165.159 200.965 170.713C201.268 171.733 201.511 172.767 201.666 173.79C204.697 169.272 207.131 164.357 208.944 159.212C208.816 158.464 208.607 157.722 208.354 157.001C208.087 156.262 207.781 155.536 207.445 154.823C205.927 154.706 201.826 154.214 199.484 152.263C194.341 147.981 197.915 146.859 192.236 140.462C192.236 140.462 196.985 139.02 201.105 140.068C207.363 141.662 209.976 148.044 208.237 154.19C208.795 155.065 209.298 155.967 209.717 156.884C211.41 151.463 212.426 145.825 212.741 140.161C212.444 139.55 212.081 138.963 211.686 138.405C211.265 137.82 210.813 137.257 210.336 136.713C208.969 136.991 205.227 137.59 202.669 136.459C197.055 133.975 199.924 132.086 193.305 127.872C193.305 127.872 197.131 125.405 201.029 125.293C206.95 125.123 210.862 130.094 210.876 135.952C211.574 136.572 212.233 137.229 212.828 137.922C212.85 136.977 212.853 136.032 212.835 135.088C212.781 131.212 212.364 127.355 211.61 123.566C211.193 123.048 210.708 122.575 210.197 122.141C209.709 121.734 209.201 121.353 208.676 120.992C207.569 121.528 204.509 122.857 202.081 122.451C196.749 121.56 198.784 119.321 192.218 117.174C192.218 117.174 194.941 114.233 198.242 113.285C203.255 111.847 207.677 115.233 208.97 120.226C209.743 120.624 210.488 121.066 211.179 121.56C210.241 117.512 208.918 113.553 207.241 109.75C206.393 109.106 205.393 108.628 204.385 108.24C203.592 108.886 201.367 110.55 199.322 110.688C194.829 110.989 196.048 108.783 190.315 108.304C190.315 108.304 191.958 105.397 194.451 103.996C198.238 101.868 202.473 103.764 204.479 107.564C205.189 107.74 205.886 107.959 206.55 108.234C204.978 104.892 203.13 101.679 201.029 98.6399C200.3 98.2951 199.491 98.0853 198.688 97.9391C198.167 98.5603 196.682 100.185 195.11 100.595C191.658 101.497 192.28 99.599 187.746 100.076C187.746 100.076 188.594 97.5705 190.327 96.1101C192.959 93.8911 196.535 94.7389 198.66 97.3991C199.212 97.4294 199.76 97.4922 200.293 97.5976C198.577 95.2142 196.703 92.9434 194.682 90.8087C193.922 91.4316 192.878 91.722 191.732 91.382C190.87 91.1263 190.019 90.6742 189.263 89.9296C185.635 86.3601 185.812 82.9825 185.812 82.9825C190.51 82.596 193.352 84.1925 195.054 86.0553C196.279 87.3964 196.1 89.1652 195.162 90.324C197.289 92.4817 199.24 94.7626 201.014 97.1468C201.09 96.5628 201.222 95.9901 201.382 95.4234C199.556 92.5459 199.92 88.8856 202.877 87.1201C204.823 85.9581 207.468 85.9739 207.468 85.9739C205.538 90.1044 207.535 90.1353 205.558 93.1039C204.657 94.4576 202.635 95.3313 201.879 95.6213C201.742 96.4883 201.687 97.3663 201.8 98.2248C203.969 101.266 205.857 104.465 207.465 107.782C207.695 107.085 207.991 106.415 208.319 105.757C206.736 101.759 208.052 97.3061 212.135 95.8158C214.822 94.8347 218.097 95.4797 218.097 95.4797C214.73 100.145 217.198 100.654 214.045 103.868C212.609 105.333 209.895 105.939 208.888 106.12C208.517 107.153 208.245 108.219 208.178 109.301C209.949 113.202 211.34 117.252 212.346 121.389C212.818 120.607 213.371 119.881 213.957 119.179C213.214 114.071 215.984 109.232 221.167 108.621C224.578 108.219 228.225 109.878 228.225 109.878C223 114.396 225.742 115.675 221.17 118.558C219.085 119.872 215.745 119.829 214.52 119.762C213.788 120.88 213.166 122.066 212.792 123.346C213.826 128.206 214.334 133.169 214.315 138.132C215.043 137.427 215.836 136.799 216.659 136.207C217.281 130.376 221.693 125.834 227.568 126.622C231.433 127.141 234.98 129.995 234.98 129.995C227.957 133.493 230.614 135.673 224.77 137.556C222.105 138.415 218.441 137.425 217.113 137.006C216.027 137.999 215.036 139.089 214.273 140.341C214.071 146.076 213.161 151.789 211.539 157.321C211.62 157.28 211.7 157.24 211.781 157.2C212.58 156.818 213.396 156.481 214.224 156.182C216.62 150.258 222.603 146.816 228.525 149.4C232.422 151.1 235.285 155.153 235.285 155.153C226.877 156.719 229.011 159.798 222.322 160.024C219.272 160.127 215.729 157.994 214.461 157.157C213.18 157.797 211.956 158.541 210.872 159.465C209.126 164.767 206.712 169.88 203.627 174.663C204.512 174.513 205.401 174.412 206.291 174.351C210.309 169.199 217.155 167.494 222.251 171.695C225.605 174.459 227.283 179.245 227.283 179.245Z" fill="#4EA554"/>
<path d="M12.5823 179.246C21.2871 178.427 20.0539 182.052 26.6919 180.398C29.7193 179.644 32.605 176.552 33.6158 175.375C34.9356 175.622 36.2341 175.969 37.462 176.49C39.6514 179.646 42.1449 182.642 44.9443 185.437C46.5391 187.024 48.2259 188.512 49.9904 189.898C49.1272 190.001 48.2718 190.144 47.4257 190.325C41.9121 186.3 34.5447 186.55 30.6277 192.232C28.0507 195.97 27.7369 201.262 27.7369 201.262C36.2481 197.943 36.0483 201.94 42.2443 198.374C45.0698 196.749 47.0824 192.814 47.7602 191.342C49.1538 191.212 50.553 191.188 51.9318 191.359C57.0553 195.05 62.764 197.917 68.7721 199.879C68.0343 200.201 67.3109 200.551 66.6025 200.927C59.6847 198.381 52.1089 200.824 49.7256 207.884C48.1567 212.53 49.399 218.117 49.399 218.117C57.2534 212.15 58.2301 216.358 63.6076 210.821C66.0597 208.296 66.9847 203.614 67.2524 201.884C68.6149 201.354 70.013 200.925 71.4463 200.688C74.545 201.55 77.71 202.175 80.9037 202.552C82.2105 202.7 83.775 202.861 85.0453 202.947L85.5764 199.478C81.0013 199.651 77.2378 199.083 74.6446 198.523C74.0258 198.392 73.4103 198.251 72.7966 198.1C72.4538 197.601 72.1399 197.08 71.8523 196.547C71.4276 195.747 71.045 194.923 70.6963 194.083C71.7723 192.696 74.5318 188.813 74.6809 185.299C75.0093 177.588 71.2806 179.77 70.2187 169.963C70.2187 169.963 65.3064 172.9 63.0082 177.232C59.518 183.811 62.9449 190.99 69.5414 194.269C69.8482 195.391 70.2164 196.49 70.6576 197.532C64.6289 195.804 58.8852 193.102 53.7175 189.552C53.512 188.968 53.3475 188.364 53.2135 187.758C53.0391 186.938 52.9069 186.107 52.8099 185.27C54.1204 184.308 57.565 181.551 58.5903 178.46C60.8422 171.676 56.9676 172.672 58.514 163.669C58.514 163.669 53.3924 165.036 50.2456 168.31C45.4653 173.283 46.6926 180.547 51.7341 185.142C51.723 186.189 51.7679 187.231 51.888 188.243C50.0306 186.857 48.2558 185.357 46.5802 183.751C44.0121 181.311 41.688 178.646 39.611 175.804C39.5314 175.047 39.5294 174.273 39.5752 173.509C39.6301 172.707 39.7266 171.909 39.8573 171.113C41.3158 170.572 45.2101 168.939 46.9652 166.364C50.8195 160.712 46.9915 160.61 50.7792 152.731C50.7792 152.731 45.7071 152.644 41.9514 154.83C36.246 158.152 35.4679 165.159 38.9005 170.713C38.597 171.734 38.3543 172.767 38.1998 173.79C35.1685 169.272 32.7341 164.357 30.9216 159.212C31.0494 158.465 31.2584 157.722 31.5115 157.001C31.7784 156.262 32.0846 155.536 32.4207 154.823C33.9379 154.706 38.0389 154.214 40.3811 152.263C45.5243 147.981 41.9506 146.859 47.629 140.463C47.629 140.463 42.8807 139.02 38.7602 140.069C32.502 141.662 29.8893 148.044 31.628 154.19C31.0709 155.065 30.5672 155.967 30.1482 156.884C28.4558 151.463 27.439 145.825 27.1247 140.162C27.4214 139.55 27.7841 138.963 28.179 138.405C28.6002 137.821 29.0527 137.258 29.529 136.713C30.8966 136.991 34.6383 137.59 37.1961 136.459C42.8109 133.975 39.9411 132.086 46.56 127.873C46.56 127.873 42.7345 125.405 38.8362 125.293C32.9149 125.123 29.0034 130.095 28.9892 135.952C28.2913 136.572 27.632 137.229 27.0373 137.922C27.0157 136.977 27.0126 136.032 27.0303 135.088C27.0843 131.213 27.5016 127.355 28.2557 123.566C28.6728 123.048 29.1578 122.575 29.6685 122.141C30.1561 121.734 30.6645 121.353 31.1897 120.992C32.2961 121.528 35.3566 122.857 37.7846 122.452C43.1165 121.56 41.0813 119.321 47.6477 117.174C47.6477 117.174 44.924 114.233 41.6231 113.286C36.6102 111.847 32.1883 115.233 30.8958 120.226C30.1227 120.624 29.377 121.066 28.6864 121.56C29.6242 117.512 30.9477 113.554 32.6242 109.75C33.4729 109.106 34.4722 108.628 35.4802 108.24C36.2732 108.887 38.4981 110.551 40.5437 110.688C45.0362 110.989 43.8169 108.783 49.5502 108.304C49.5502 108.304 47.9077 105.397 45.4147 103.996C41.6269 101.868 37.3925 103.764 35.3868 107.564C34.6766 107.74 33.9798 107.96 33.3154 108.234C34.8878 104.892 36.7354 101.679 38.8364 98.64C39.5651 98.2952 40.3743 98.0854 41.1774 97.9392C41.6988 98.5604 43.1837 100.185 44.7556 100.596C48.2074 101.497 47.5856 99.5991 52.1189 100.076C52.1189 100.076 51.2716 97.5706 49.5387 96.1102C46.9069 93.8912 43.33 94.7391 41.2052 97.3992C40.6536 97.4295 40.1055 97.4923 39.5723 97.5977C41.2883 95.2143 43.1623 92.9435 45.1837 90.8088C45.943 91.4317 46.9873 91.7221 48.1335 91.3822C48.9949 91.1264 49.8467 90.6743 50.6024 89.9297C54.231 86.3601 54.0538 82.9825 54.0538 82.9825C49.3554 82.596 46.5138 84.1925 44.8114 86.0553C43.586 87.3964 43.7656 89.1652 44.7034 90.324C42.5761 92.4817 40.626 94.7626 38.8511 97.1468C38.7759 96.5628 38.6439 95.9901 38.4837 95.4234C40.3094 92.5459 39.9456 88.8856 36.9887 87.1201C35.0429 85.9581 32.3974 85.9739 32.3974 85.9739C34.3271 90.1044 32.3304 90.1353 34.3075 93.1039C35.2088 94.4576 37.2309 95.3313 37.9871 95.6213C38.124 96.4883 38.1781 97.3663 38.0656 98.2248C35.8966 101.266 34.0081 104.465 32.4002 107.782C32.1708 107.085 31.875 106.415 31.5464 105.757C33.13 101.759 31.8137 97.3061 27.7304 95.8158C25.0436 94.8347 21.7681 95.4797 21.7681 95.4797C25.136 100.145 22.668 100.654 25.8207 103.868C27.2568 105.333 29.9702 105.939 30.9772 106.12C31.3482 107.153 31.6209 108.219 31.6872 109.301C29.9162 113.202 28.5258 117.252 27.52 121.389C27.0472 120.607 26.495 119.881 25.9086 119.179C26.6519 114.071 23.8819 109.232 18.6988 108.621C15.288 108.219 11.6401 109.878 11.6401 109.878C16.8653 114.396 14.1237 115.675 18.6957 118.558C20.7803 119.872 24.121 119.829 25.346 119.762C26.0777 120.88 26.6994 122.066 27.0737 123.346C26.0396 128.206 25.5316 133.169 25.5501 138.132C24.8229 137.427 24.03 136.799 23.2066 136.207C22.5845 130.376 18.173 125.834 12.2979 126.622C8.43258 127.141 4.8858 129.995 4.8858 129.995C11.9088 133.493 9.2519 135.673 15.0956 137.556C17.761 138.415 21.4248 137.425 22.7522 137.006C23.8382 137.999 24.8291 139.089 25.5921 140.341C25.7947 146.076 26.7048 151.789 28.3261 157.321C28.2456 157.28 28.1652 157.24 28.0841 157.2C27.2853 156.818 26.4693 156.481 25.6415 156.182C23.2453 150.258 17.2627 146.816 11.3408 149.4C7.44375 151.1 4.58008 155.153 4.58008 155.153C12.9884 156.719 10.855 159.798 17.5438 160.024C20.5934 160.127 24.137 157.994 25.4041 157.157C26.6858 157.797 27.9094 158.541 28.9932 159.465C30.7397 164.767 33.1534 169.88 36.2386 174.663C35.3538 174.513 34.4646 174.412 33.5746 174.351C29.5565 169.199 22.7109 167.494 17.6145 171.695C14.2604 174.459 12.5823 179.246 12.5823 179.246Z" fill="#4EA554"/>
<path d="M197.208 150.521H49.9958V231.158H197.208V150.521Z" fill="#B9B9B9"/>
<path d="M170.711 165.034H76.4926V216.643H170.711V165.034Z" fill="#898989"/>
<path d="M175.354 211.103H71.8495V231.158H175.354V211.103Z" fill="#CCCCCC"/>
<path d="M197.208 137.613H49.9958V153.824H197.208V137.613Z" fill="#BEBEBE"/>
<path d="M60.5234 159.914L59.5084 218.06H73.2745L72.2586 159.914H60.5234Z" fill="#E9E9EC"/>
<path d="M61.9359 159.914L61.1656 218.06H71.6165L70.8463 159.914H61.9359Z" fill="#CCCCCC"/>
<path d="M63.3375 159.914L62.8097 218.06H69.9731L69.4454 159.914H63.3375Z" fill="#E9E9EC"/>
<path d="M64.6528 159.914L64.3525 218.06H68.4307L68.1293 159.914H64.6528Z" fill="#CCCCCC"/>
<path d="M65.7009 159.914L65.5812 218.06H67.2018L67.0824 159.914H65.7009Z" fill="#E9E9EC"/>
<g style="mix-blend-mode:multiply" opacity="0.65">
<path d="M60.5235 159.914L60.3696 163.431H72.4125L72.2586 159.914H60.5235Z" fill="#B3B3BD"/>
</g>
<path d="M73.3227 157.027H59.4606V160.455H73.3227V157.027Z" fill="#E9E9EC"/>
<path d="M72.7063 153.824H60.0758V155.982H72.7063V153.824Z" fill="#E9E9EC"/>
<path d="M74.3985 155.405H58.3846V157.121H74.3985V155.405Z" fill="#CCCCCC"/>
<path d="M76.0022 156.805H56.6088C54.1239 156.805 52.1089 158.82 52.1089 161.305C52.1089 163.788 54.1239 165.803 56.6088 165.803C59.0938 165.803 61.1079 163.788 61.1079 161.305C61.1079 160.936 61.0587 160.577 60.9745 160.233H71.6368C71.5524 160.577 71.5034 160.936 71.5034 161.305C71.5034 163.788 73.5172 165.803 76.0022 165.803C78.4872 165.803 80.5013 163.788 80.5013 161.305C80.5013 158.82 78.4874 156.805 76.0022 156.805Z" fill="#E9E9EC"/>
<path d="M75.7854 157.681H56.8449C54.8995 157.681 53.3171 159.262 53.3171 161.241C53.3171 162.63 54.1462 163.876 55.4295 164.41C56.252 164.752 57.1869 164.726 57.9967 164.339C58.7083 163.997 59.5566 163.28 59.5566 161.765C59.5566 160.376 58.4262 159.245 57.0373 159.245H56.6144C55.5459 159.245 54.6762 160.115 54.6762 161.213C54.6762 162.175 55.4593 162.957 56.4487 162.957C57.3622 162.957 58.0256 162.224 58.0256 161.213C58.0256 160.985 57.8418 160.801 57.6154 160.801C57.3878 160.801 57.204 160.985 57.204 161.213C57.204 161.639 57.0064 162.136 56.422 162.136C55.9124 162.136 55.4978 161.722 55.4978 161.183C55.4978 160.568 55.9977 160.068 56.6143 160.068H57.0372C57.9733 160.068 58.735 160.829 58.735 161.788C58.735 162.643 58.3673 163.252 57.642 163.598C57.0438 163.884 56.3524 163.903 55.7456 163.651C54.7691 163.245 54.1376 162.299 54.1376 161.209C54.1376 159.715 55.3524 158.502 56.8449 158.502H75.7853C77.2778 158.502 78.4915 159.715 78.4915 161.241C78.4915 162.299 77.8611 163.245 76.8846 163.651C76.2778 163.903 75.5877 163.884 74.9882 163.598C74.2628 163.252 73.8952 162.643 73.8952 161.765C73.8952 160.829 74.6571 160.068 75.5929 160.068H76.0161C76.6325 160.068 77.1325 160.568 77.1325 161.213C77.1325 161.722 76.7181 162.136 76.1807 162.136C75.624 162.136 75.4262 161.639 75.4262 161.213C75.4262 160.985 75.2424 160.801 75.0149 160.801C74.7884 160.801 74.6046 160.985 74.6046 161.213C74.6046 162.224 75.2672 162.957 76.2085 162.957C77.171 162.957 77.9541 162.175 77.9541 161.183C77.9541 160.115 77.0844 159.245 76.0161 159.245H75.5929C74.204 159.245 73.0736 160.376 73.0736 161.788C73.0736 163.28 73.9219 163.997 74.6335 164.339C75.0652 164.544 75.5322 164.649 75.9991 164.649C76.4083 164.649 76.8163 164.57 77.201 164.41C78.4841 163.876 79.3131 162.63 79.3131 161.209C79.3131 159.262 77.731 157.681 75.7854 157.681Z" fill="#CCCCCC"/>
<path d="M75.5171 216.882H57.266V223.538H75.5171V216.882Z" fill="#E9E9EC"/>
<path d="M96.1648 159.914L95.1498 218.06H108.916L107.901 159.914H96.1648Z" fill="#E9E9EC"/>
<path d="M97.5772 159.914L96.8068 218.06H107.258L106.487 159.914H97.5772Z" fill="#CCCCCC"/>
<path d="M98.9788 159.914L98.451 218.06H105.614L105.087 159.914H98.9788Z" fill="#E9E9EC"/>
<path d="M100.294 159.914L99.9939 218.06H104.072L103.772 159.914H100.294Z" fill="#CCCCCC"/>
<path d="M101.342 159.914L101.223 218.06H102.843L102.724 159.914H101.342Z" fill="#E9E9EC"/>
<g style="mix-blend-mode:multiply" opacity="0.65">
<path d="M96.1647 159.914L96.0107 163.431H108.055L107.901 159.914H96.1647Z" fill="#B3B3BD"/>
</g>
<path d="M108.964 157.027H95.1017V160.455H108.964V157.027Z" fill="#E9E9EC"/>
<path d="M108.347 153.824H95.7172V155.982H108.347V153.824Z" fill="#E9E9EC"/>
<path d="M110.039 155.405H94.0258V157.121H110.039V155.405Z" fill="#CCCCCC"/>
<path d="M111.643 156.805H92.2501C89.7651 156.805 87.7502 158.82 87.7502 161.305C87.7502 163.788 89.7652 165.803 92.2501 165.803C94.7351 165.803 96.7492 163.788 96.7492 161.305C96.7492 160.936 96.7 160.577 96.6155 160.233H107.278C107.194 160.577 107.144 160.936 107.144 161.305C107.144 163.788 109.158 165.803 111.643 165.803C114.129 165.803 116.143 163.788 116.143 161.305C116.143 158.82 114.128 156.805 111.643 156.805Z" fill="#E9E9EC"/>
<path d="M111.427 157.681H92.4862C90.5405 157.681 88.9584 159.262 88.9584 161.241C88.9584 162.63 89.7874 163.876 91.0705 164.41C91.8932 164.752 92.8281 164.726 93.6379 164.339C94.3495 163.997 95.1978 163.28 95.1978 161.765C95.1978 160.376 94.0674 159.245 92.6785 159.245H92.2553C91.186 159.245 90.3173 160.115 90.3173 161.213C90.3173 162.175 91.1005 162.957 92.0899 162.957C93.0043 162.957 93.6668 162.224 93.6668 161.213C93.6668 160.985 93.483 160.801 93.2565 160.801C93.029 160.801 92.8452 160.985 92.8452 161.213C92.8452 161.639 92.6474 162.136 92.0629 162.136C91.5533 162.136 91.1389 161.722 91.1389 161.183C91.1389 160.568 91.6389 160.068 92.2553 160.068H92.6785C93.6143 160.068 94.3762 160.829 94.3762 161.788C94.3762 162.643 94.0086 163.252 93.2832 163.598C92.6848 163.884 91.9936 163.903 91.3869 163.651C90.4103 163.245 89.7789 162.299 89.7789 161.209C89.7789 159.715 90.9937 158.502 92.4861 158.502H111.427C112.919 158.502 114.133 159.715 114.133 161.241C114.133 162.299 113.502 163.245 112.526 163.651C111.919 163.903 111.229 163.884 110.629 163.598C109.904 163.252 109.536 162.643 109.536 161.765C109.536 160.829 110.298 160.068 111.234 160.068H111.657C112.273 160.068 112.774 160.568 112.774 161.213C112.774 161.722 112.359 162.136 111.823 162.136C111.265 162.136 111.067 161.639 111.067 161.213C111.067 160.985 110.884 160.801 110.656 160.801C110.43 160.801 110.246 160.985 110.246 161.213C110.246 162.224 110.908 162.957 111.849 162.957C112.811 162.957 113.595 162.175 113.595 161.183C113.595 160.115 112.726 159.245 111.657 159.245H111.234C109.845 159.245 108.715 160.376 108.715 161.788C108.715 163.28 109.563 163.997 110.275 164.339C110.706 164.544 111.173 164.649 111.64 164.649C112.049 164.649 112.458 164.57 112.842 164.41C114.125 163.876 114.954 162.63 114.954 161.209C114.954 159.262 113.372 157.681 111.427 157.681Z" fill="#CCCCCC"/>
<path d="M111.158 216.882H92.9072V223.538H111.158V216.882Z" fill="#E9E9EC"/>
<path d="M131.806 159.914L130.791 218.06H144.556L143.542 159.914H131.806Z" fill="#E9E9EC"/>
<path d="M133.218 159.914L132.448 218.06H142.899L142.129 159.914H133.218Z" fill="#CCCCCC"/>
<path d="M134.62 159.914L134.092 218.06H141.256L140.727 159.914H134.62Z" fill="#E9E9EC"/>
<path d="M135.935 159.914L135.635 218.06H139.713L139.412 159.914H135.935Z" fill="#CCCCCC"/>
<path d="M136.983 159.914L136.864 218.06H138.483L138.365 159.914H136.983Z" fill="#E9E9EC"/>
<g style="mix-blend-mode:multiply" opacity="0.65">
<path d="M131.806 159.914L131.652 163.431H143.696L143.541 159.914H131.806Z" fill="#B3B3BD"/>
</g>
<path d="M144.605 157.027H130.743V160.455H144.605V157.027Z" fill="#E9E9EC"/>
<path d="M143.989 153.824H131.358V155.982H143.989V153.824Z" fill="#E9E9EC"/>
<path d="M145.681 155.405H129.667V157.121H145.681V155.405Z" fill="#CCCCCC"/>
<path d="M147.284 156.805H127.891C125.406 156.805 123.391 158.82 123.391 161.305C123.391 163.788 125.406 165.803 127.891 165.803C130.377 165.803 132.39 163.788 132.39 161.305C132.39 160.936 132.34 160.577 132.257 160.233H142.919C142.835 160.577 142.786 160.936 142.786 161.305C142.786 163.788 144.8 165.803 147.285 165.803C149.77 165.803 151.785 163.788 151.785 161.305C151.785 158.82 149.77 156.805 147.284 156.805Z" fill="#E9E9EC"/>
<path d="M147.068 157.681H128.127C126.182 157.681 124.6 159.262 124.6 161.241C124.6 162.63 125.429 163.876 126.712 164.41C127.534 164.752 128.47 164.726 129.279 164.339C129.991 163.997 130.839 163.28 130.839 161.765C130.839 160.376 129.708 159.245 128.32 159.245H127.897C126.828 159.245 125.959 160.115 125.959 161.213C125.959 162.175 126.742 162.957 127.731 162.957C128.644 162.957 129.308 162.224 129.308 161.213C129.308 160.985 129.124 160.801 128.898 160.801C128.67 160.801 128.486 160.985 128.486 161.213C128.486 161.639 128.289 162.136 127.704 162.136C127.195 162.136 126.78 161.722 126.78 161.183C126.78 160.568 127.28 160.068 127.897 160.068H128.32C129.256 160.068 130.017 160.829 130.017 161.788C130.017 162.643 129.65 163.252 128.924 163.598C128.326 163.884 127.634 163.903 127.028 163.651C126.051 163.245 125.42 162.299 125.42 161.209C125.42 159.715 126.635 158.502 128.127 158.502H147.068C148.56 158.502 149.775 159.715 149.775 161.241C149.775 162.299 149.144 163.245 148.167 163.651C147.56 163.903 146.869 163.884 146.271 163.598C145.545 163.252 145.178 162.643 145.178 161.765C145.178 160.829 145.939 160.068 146.875 160.068H147.298C147.914 160.068 148.415 160.568 148.415 161.213C148.415 161.722 148 162.136 147.463 162.136C146.906 162.136 146.709 161.639 146.709 161.213C146.709 160.985 146.525 160.801 146.297 160.801C146.071 160.801 145.887 160.985 145.887 161.213C145.887 162.224 146.549 162.957 147.491 162.957C148.453 162.957 149.236 162.175 149.236 161.183C149.236 160.115 148.367 159.245 147.298 159.245H146.875C145.486 159.245 144.356 160.376 144.356 161.788C144.356 163.28 145.204 163.997 145.916 164.339C146.347 164.544 146.814 164.649 147.281 164.649C147.691 164.649 148.1 164.57 148.483 164.41C149.766 163.876 150.595 162.63 150.595 161.209C150.595 159.262 149.012 157.681 147.068 157.681Z" fill="#CCCCCC"/>
<path d="M146.8 216.882H128.548V223.538H146.8V216.882Z" fill="#E9E9EC"/>
<path d="M167.447 159.914L166.432 218.06H180.198L179.182 159.914H167.447Z" fill="#E9E9EC"/>
<path d="M168.859 159.914L168.089 218.06H178.54L177.77 159.914H168.859Z" fill="#CCCCCC"/>
<path d="M170.261 159.914L169.733 218.06H176.897L176.369 159.914H170.261Z" fill="#E9E9EC"/>
<path d="M171.576 159.914L171.276 218.06H175.354L175.053 159.914H171.576Z" fill="#CCCCCC"/>
<path d="M172.625 159.914L172.505 218.06H174.126L174.006 159.914H172.625Z" fill="#E9E9EC"/>
<g style="mix-blend-mode:multiply" opacity="0.65">
<path d="M167.447 159.914L167.293 163.431H179.336L179.182 159.914H167.447Z" fill="#B3B3BD"/>
</g>
<path d="M180.246 157.027H166.384V160.455H180.246V157.027Z" fill="#E9E9EC"/>
<path d="M179.63 153.824H167V155.982H179.63V153.824Z" fill="#E9E9EC"/>
<path d="M181.322 155.405H165.308V157.121H181.322V155.405Z" fill="#CCCCCC"/>
<path d="M182.926 156.805H163.533C161.048 156.805 159.033 158.82 159.033 161.305C159.033 163.788 161.048 165.803 163.533 165.803C166.018 165.803 168.032 163.788 168.032 161.305C168.032 160.936 167.982 160.577 167.898 160.233H178.56C178.476 160.577 178.427 160.936 178.427 161.305C178.427 163.788 180.441 165.803 182.926 165.803C185.411 165.803 187.425 163.788 187.425 161.305C187.425 158.82 185.411 156.805 182.926 156.805Z" fill="#E9E9EC"/>
<path d="M182.708 157.681H163.769C161.823 157.681 160.241 159.262 160.241 161.241C160.241 162.63 161.07 163.876 162.353 164.41C163.176 164.752 164.111 164.726 164.92 164.339C165.632 163.997 166.48 163.28 166.48 161.765C166.48 160.376 165.35 159.245 163.961 159.245H163.538C162.47 159.245 161.6 160.115 161.6 161.213C161.6 162.175 162.383 162.957 163.372 162.957C164.286 162.957 164.949 162.224 164.949 161.213C164.949 160.985 164.766 160.801 164.539 160.801C164.312 160.801 164.128 160.985 164.128 161.213C164.128 161.639 163.93 162.136 163.346 162.136C162.836 162.136 162.421 161.722 162.421 161.183C162.421 160.568 162.921 160.068 163.538 160.068H163.961C164.897 160.068 165.659 160.829 165.659 161.788C165.659 162.643 165.291 163.252 164.566 163.598C163.968 163.884 163.275 163.903 162.669 163.651C161.693 163.245 161.061 162.299 161.061 161.209C161.061 159.715 162.276 158.502 163.769 158.502H182.708C184.201 158.502 185.415 159.715 185.415 161.241C185.415 162.299 184.785 163.245 183.808 163.651C183.202 163.903 182.511 163.884 181.912 163.598C181.187 163.252 180.819 162.643 180.819 161.765C180.819 160.829 181.581 160.068 182.517 160.068H182.94C183.555 160.068 184.056 160.568 184.056 161.213C184.056 161.722 183.642 162.136 183.104 162.136C182.548 162.136 182.35 161.639 182.35 161.213C182.35 160.985 182.166 160.801 181.939 160.801C181.712 160.801 181.528 160.985 181.528 161.213C181.528 162.224 182.191 162.957 183.132 162.957C184.095 162.957 184.878 162.175 184.878 161.183C184.878 160.115 184.008 159.245 182.94 159.245H182.517C181.128 159.245 179.997 160.376 179.997 161.788C179.997 163.28 180.846 163.997 181.557 164.339C181.989 164.544 182.456 164.649 182.923 164.649C183.332 164.649 183.74 164.57 184.125 164.41C185.408 163.876 186.237 162.63 186.237 161.209C186.237 159.262 184.654 157.681 182.708 157.681Z" fill="#CCCCCC"/>
<path d="M182.441 216.882H164.19V223.538H182.441V216.882Z" fill="#E9E9EC"/>
<path d="M198.071 138.899H189.225V230.195H198.071V138.899Z" fill="#E9E9EC"/>
<path d="M50.8985 138.899H42.0522V230.195H50.8985V138.899Z" fill="#E9E9EC"/>
<path d="M193.648 223.539H46.4755V236.853H193.648V223.539Z" fill="#E2E2E6"/>
<path d="M203.631 230.195H36.4924V239.742H203.631V230.195Z" fill="#CCCCCC"/>
<path d="M203.206 132.908L120.067 86.4844L36.6592 133.057C35.6805 133.602 35.0737 134.637 35.0737 135.758V135.807C35.0737 137.515 36.4583 138.899 38.1665 138.899H201.698C203.407 138.899 204.792 137.515 204.792 135.807V135.607C204.792 134.487 204.185 133.453 203.206 132.908Z" fill="white"/>
<path d="M64.6359 129.098H175.498L120.067 99.2153L64.6359 129.098Z" fill="#EFEFEF"/>
<path d="M198.071 142.125H42.0522V146.664H198.071V142.125Z" fill="#E9E9EC"/>
<path d="M198.071 150.521H42.0522V153.925H198.071V150.521Z" fill="#E9E9EC"/>
<path d="M42.611 190.469L44.7789 240H15.3727L17.5407 190.469H42.611Z" fill="#E9E9EC"/>
<path d="M39.592 190.469L41.2384 240H18.9132L20.5597 190.469H39.592Z" fill="#CCCCCC"/>
<path d="M36.5992 190.469L37.7274 240H22.4243L23.5526 190.469H36.5992Z" fill="#E9E9EC"/>
<path d="M33.7896 190.469L34.4323 240H25.7205L26.3619 190.469H33.7896Z" fill="#CCCCCC"/>
<path d="M31.5512 190.469L31.8061 240H28.3456L28.6005 190.469H31.5512Z" fill="#E9E9EC"/>
<g style="mix-blend-mode:multiply" opacity="0.65">
<path d="M42.611 190.469L42.9396 197.982H17.2119L17.5406 190.469H42.611Z" fill="#B3B3BD"/>
</g>
<path d="M44.8822 184.3H15.2694V191.622H44.8822V184.3Z" fill="#E9E9EC"/>
<path d="M43.5665 177.459H16.5852V182.068H43.5665V177.459Z" fill="#E9E9EC"/>
<path d="M47.1797 180.839H12.9719V184.501H47.1797V180.839Z" fill="#CCCCCC"/>
<path d="M9.54415 183.827H10.8556H49.6626H50.9741C56.2823 183.827 60.5856 188.13 60.5856 193.438C60.5856 198.746 56.2823 203.049 50.9741 203.049C45.6659 203.049 41.3627 198.746 41.3627 193.438C41.3627 192.648 41.468 191.884 41.6481 191.15H18.87C19.0502 191.884 19.1554 192.648 19.1554 193.438C19.1554 198.746 14.8523 203.049 9.54409 203.049C4.23588 203.049 -0.0673828 198.746 -0.0673828 193.438C-0.0673828 188.13 4.23594 183.827 9.54415 183.827Z" fill="#E9E9EC"/>
<path d="M10.0086 185.696H50.4685C54.6242 185.696 58.0058 189.078 58.0058 193.302C58.0058 196.272 56.2339 198.93 53.4929 200.072C51.7358 200.804 49.7375 200.749 48.0088 199.921C46.4887 199.194 44.6768 197.657 44.6768 194.422C44.6768 191.456 47.0913 189.042 50.0577 189.042H50.9626C53.2454 189.042 55.1015 190.898 55.1015 193.241C55.1015 195.298 53.4286 196.971 51.3144 196.971C49.3635 196.971 47.9467 195.402 47.9467 193.241C47.9467 192.757 48.3396 192.364 48.8241 192.364C49.3087 192.364 49.7016 192.757 49.7016 193.241C49.7016 194.153 50.124 195.216 51.3724 195.216C52.4605 195.216 53.3465 194.33 53.3465 193.18C53.3465 191.866 52.2773 190.796 50.9627 190.796H50.0578C48.0584 190.796 46.4308 192.423 46.4308 194.471C46.4308 196.297 47.2166 197.597 48.7662 198.339C50.0451 198.951 51.5219 198.992 52.8177 198.453C54.9034 197.584 56.2507 195.561 56.2507 193.234C56.2507 190.045 53.6572 187.451 50.4686 187.451H10.0086C6.81996 187.451 4.22647 190.045 4.22647 193.302C4.22647 195.561 5.57378 197.584 7.65953 198.453C8.95526 198.992 10.4322 198.951 11.7121 198.339C13.2606 197.597 14.0465 196.297 14.0465 194.422C14.0465 192.423 12.4189 190.796 10.4195 190.796H9.51458C8.19995 190.796 7.13078 191.866 7.13078 193.241C7.13078 194.33 8.01673 195.216 9.16284 195.216C10.3543 195.216 10.7756 194.153 10.7756 193.241C10.7756 192.757 11.1684 192.364 11.6531 192.364C12.1387 192.364 12.5305 192.757 12.5305 193.241C12.5305 195.402 11.1147 196.971 9.10487 196.971C7.04962 196.971 5.37568 195.298 5.37568 193.18C5.37568 190.898 7.2329 189.042 9.51458 189.042H10.4195C13.387 189.042 15.8004 191.456 15.8004 194.471C15.8004 197.657 13.9885 199.194 12.4694 199.921C11.5466 200.363 10.549 200.585 9.55141 200.584C8.67823 200.584 7.80487 200.414 6.98526 200.072C4.24321 198.93 2.47131 196.272 2.47131 193.234C2.47131 189.078 5.85291 185.696 10.0086 185.696Z" fill="#CCCCCC"/>
<path d="M221.958 190.469L224.126 240H194.72L196.888 190.469H221.958Z" fill="#E9E9EC"/>
<path d="M218.939 190.469L220.586 240H198.26L199.907 190.469H218.939Z" fill="#CCCCCC"/>
<path d="M215.946 190.469L217.074 240H201.771L202.9 190.469H215.946Z" fill="#E9E9EC"/>
<path d="M213.137 190.469L213.779 240H205.068L205.709 190.469H213.137Z" fill="#CCCCCC"/>
<path d="M210.898 190.469L211.153 240H207.693L207.948 190.469H210.898Z" fill="#E9E9EC"/>
<g style="mix-blend-mode:multiply" opacity="0.65">
<path d="M221.958 190.469L222.287 197.982H196.559L196.888 190.469H221.958Z" fill="#B3B3BD"/>
</g>
<path d="M224.229 184.3H194.617V191.622H224.229V184.3Z" fill="#E9E9EC"/>
<path d="M222.914 177.459H195.932V182.068H222.914V177.459Z" fill="#E9E9EC"/>
<path d="M226.527 180.839H192.319V184.501H226.527V180.839Z" fill="#CCCCCC"/>
<path d="M188.891 183.827H190.203H229.01H230.321C235.629 183.827 239.933 188.13 239.933 193.438C239.933 198.746 235.629 203.049 230.321 203.049C225.013 203.049 220.71 198.746 220.71 193.438C220.71 192.648 220.815 191.884 220.995 191.15H198.217C198.397 191.884 198.503 192.648 198.503 193.438C198.503 198.746 194.199 203.049 188.891 203.049C183.583 203.049 179.28 198.746 179.28 193.438C179.28 188.13 183.583 183.827 188.891 183.827Z" fill="#E9E9EC"/>
<path d="M189.356 185.696H229.816C233.971 185.696 237.353 189.078 237.353 193.302C237.353 196.272 235.581 198.93 232.84 200.072C231.083 200.804 229.085 200.749 227.356 199.921C225.836 199.194 224.024 197.657 224.024 194.422C224.024 191.456 226.438 189.042 229.405 189.042H230.31C232.592 189.042 234.449 190.898 234.449 193.241C234.449 195.298 232.776 196.971 230.662 196.971C228.711 196.971 227.294 195.402 227.294 193.241C227.294 192.757 227.687 192.364 228.171 192.364C228.656 192.364 229.049 192.757 229.049 193.241C229.049 194.153 229.471 195.216 230.72 195.216C231.808 195.216 232.694 194.33 232.694 193.18C232.694 191.866 231.624 190.796 230.31 190.796H229.405C227.405 190.796 225.778 192.423 225.778 194.471C225.778 196.297 226.564 197.597 228.113 198.339C229.392 198.951 230.869 198.992 232.165 198.453C234.251 197.584 235.598 195.561 235.598 193.234C235.598 190.045 233.004 187.451 229.816 187.451H189.356C186.167 187.451 183.574 190.045 183.574 193.302C183.574 195.561 184.921 197.584 187.007 198.453C188.302 198.992 189.779 198.951 191.059 198.339C192.608 197.597 193.394 196.297 193.394 194.422C193.394 192.423 191.766 190.796 189.767 190.796H188.862C187.547 190.796 186.478 191.866 186.478 193.241C186.478 194.33 187.364 195.216 188.51 195.216C189.701 195.216 190.123 194.153 190.123 193.241C190.123 192.757 190.516 192.364 191 192.364C191.486 192.364 191.878 192.757 191.878 193.241C191.878 195.402 190.462 196.971 188.452 196.971C186.397 196.971 184.723 195.298 184.723 193.18C184.723 190.898 186.58 189.042 188.862 189.042H189.767C192.734 189.042 195.148 191.456 195.148 194.471C195.148 197.657 193.336 199.194 191.817 199.921C190.894 200.363 189.896 200.585 188.899 200.584C188.025 200.584 187.152 200.414 186.332 200.072C183.59 198.93 181.818 196.272 181.818 193.234C181.818 189.078 185.2 185.696 189.356 185.696Z" fill="#CCCCCC"/>
</g>
</g>
<defs>
<clipPath id="clip0_4073_42372">
<rect width="240" height="240" fill="white"/>
</clipPath>
<clipPath id="clip1_4073_42372">
<rect width="240" height="157.075" fill="white" transform="translate(-0.0673828 82.9248)"/>
</clipPath>
</defs>
</svg>
