<svg width="240" height="240" viewBox="0 0 240 240" fill="none" xmlns="http://www.w3.org/2000/svg">
<path d="M144.811 70.7778L140.83 74.4926L166.834 102.354L170.815 98.6396L144.811 70.7778Z" fill="#172437"/>
<path d="M73.1659 137.645L69.1855 141.36L95.1889 169.223L99.1692 165.508L73.1659 137.645Z" fill="#0F1723"/>
<path d="M90.5458 154.938L81.5239 155.911L83.1161 146.977L170.682 65.2496L178.112 73.2104L90.5458 154.938Z" fill="#669BFF"/>
<path d="M83.1162 146.977L61.8879 166.79L69.3176 174.75L90.5459 154.938L83.1162 146.977Z" fill="#74A9FF"/>
<path d="M163.386 53.4414L159.405 57.1561L185.409 85.0188L189.389 81.3041L163.386 53.4414Z" fill="#0F1723"/>
<path d="M54.5914 154.981L50.6111 158.696L76.6144 186.559L80.5948 182.844L54.5914 154.981Z" fill="#172437"/>
<path d="M112.393 117.17L95.0574 98.5948L108.148 91.342L123.007 107.263L112.393 117.17Z" fill="#74A9FF"/>
<path d="M107.086 122.123L92.2266 106.202L97.7105 96.1184L115.047 114.693L107.086 122.123Z" fill="#A3C6FF"/>
<path d="M100.187 98.7718L87.6274 90.6343L98.0646 85.8582L108.148 91.342L100.187 98.7718Z" fill="#669BFF"/>
<path d="M92.2267 106.202L87.4504 95.7646L90.2809 88.158L100.187 98.7719L92.2267 106.202Z" fill="#74A9FF"/>
<path d="M127.784 117.7L117.169 127.607L136.982 148.835L147.596 138.929L127.784 117.7Z" fill="#A3C6FF"/>
<path d="M148.658 108.148L140.697 115.578L125.838 99.6565L133.798 92.2268C135.988 90.1836 139.45 90.303 141.493 92.4922L148.923 100.453C150.966 102.642 150.847 106.105 148.658 108.148Z" fill="#A3C6FF"/>
<path d="M104.999 74.6694L102.275 71.7504C100.975 70.3582 98.7935 70.2829 97.4013 71.5823L92.8018 75.8751C92.2564 76.3842 91.8908 77.0564 91.7599 77.7909L91.1761 81.0666C90.7728 83.3297 92.6549 85.3463 94.9404 85.0999L98.2485 84.7431C98.9903 84.6631 99.6861 84.3447 100.231 83.8356L104.831 79.5428C106.223 78.2434 106.298 76.0616 104.999 74.6694Z" fill="#172437"/>
<path d="M159.484 133.047L156.76 130.128C155.46 128.735 153.278 128.66 151.886 129.96L147.287 134.252C146.741 134.761 146.376 135.434 146.245 136.168L145.661 139.444C145.258 141.707 147.14 143.724 149.425 143.477L152.733 143.121C153.475 143.041 154.171 142.722 154.717 142.213L159.316 137.92C160.708 136.621 160.783 134.439 159.484 133.047Z" fill="#172437"/>
<path d="M89.4407 79.0121L73.2544 94.1197C71.8622 95.4191 71.787 97.601 73.0864 98.9931L75.8108 101.912C77.1102 103.304 79.2921 103.38 80.6843 102.08L96.8706 86.9725C98.2628 85.6732 98.338 83.4912 97.0386 82.0991L94.3142 79.1801C93.0148 77.7879 90.8329 77.7127 89.4407 79.0121Z" fill="#175EC4"/>
<path d="M143.926 137.389L127.739 152.497C126.347 153.796 126.272 155.978 127.571 157.37L130.295 160.289C131.595 161.681 133.777 161.756 135.169 160.457L151.355 145.35C152.748 144.05 152.823 141.869 151.524 140.476L148.799 137.557C147.5 136.165 145.318 136.09 143.926 137.389Z" fill="#175EC4"/>
<path d="M80.6851 179.036L72.8099 186.386C72.0535 187.092 72.0127 188.277 72.7185 189.033L107.311 226.097C108.017 226.854 109.202 226.895 109.958 226.189L117.834 218.839C118.59 218.133 118.631 216.947 117.925 216.191L83.3326 179.127C82.6267 178.371 81.4414 178.33 80.6851 179.036Z" fill="#175EC4"/>
<path d="M21.2471 115.351L13.3719 122.701C12.6156 123.407 12.5747 124.593 13.2805 125.349L47.873 162.413C48.5788 163.169 49.7642 163.21 50.5205 162.504L58.3957 155.154C59.152 154.448 59.1929 153.263 58.487 152.507L23.8946 115.443C23.1887 114.686 22.0034 114.645 21.2471 115.351Z" fill="#175EC4"/>
<path d="M111.467 31.1475L103.592 38.4975C102.835 39.2034 102.794 40.3887 103.5 41.1451L138.093 78.2091C138.799 78.9654 139.984 79.0063 140.74 78.3004L148.615 70.9504C149.372 70.2445 149.413 69.0591 148.707 68.3028L114.114 31.2388C113.408 30.4825 112.223 30.4416 111.467 31.1475Z" fill="#175EC4"/>
<path d="M170.905 94.832L163.03 102.182C162.273 102.888 162.232 104.073 162.938 104.83L197.531 141.894C198.237 142.65 199.422 142.691 200.178 141.985L208.053 134.635C208.81 133.929 208.851 132.744 208.145 131.987L173.552 94.9234C172.846 94.1671 171.661 94.1262 170.905 94.832Z" fill="#175EC4"/>
<path d="M39.8218 98.0153L31.9466 105.365C31.1903 106.071 31.1494 107.257 31.8553 108.013L66.4477 145.077C67.1535 145.833 68.3389 145.874 69.0952 145.168L76.9704 137.818C77.7267 137.112 77.7676 135.927 77.0617 135.171L42.4693 98.1066C41.7634 97.3503 40.5781 97.3094 39.8218 98.0153Z" fill="#172437"/>
<path d="M99.2598 161.7L91.3846 169.05C90.6282 169.756 90.5874 170.941 91.2932 171.697L125.886 208.761C126.592 209.518 127.777 209.559 128.533 208.853L136.408 201.503C137.165 200.797 137.206 199.611 136.5 198.855L101.907 161.791C101.201 161.035 100.016 160.994 99.2598 161.7Z" fill="#172437"/>
<path d="M130.041 13.8113L122.166 21.1613C121.41 21.8672 121.369 23.0526 122.075 23.8089L156.667 60.8729C157.373 61.6292 158.558 61.67 159.315 60.9642L167.19 53.6141C167.946 52.9082 167.987 51.7229 167.281 50.9666L132.689 13.9026C131.983 13.1463 130.798 13.1054 130.041 13.8113Z" fill="#172437"/>
<path d="M189.48 77.4959L181.604 84.8459C180.848 85.5518 180.807 86.7371 181.513 87.4934L216.105 124.557C216.811 125.314 217.997 125.355 218.753 124.649L226.628 117.299C227.384 116.593 227.425 115.408 226.719 114.651L192.127 77.5872C191.421 76.8309 190.236 76.79 189.48 77.4959Z" fill="#172437"/>
<path d="M91.3421 131.852L125.838 99.6566C128.035 97.6063 131.483 97.7252 133.533 99.922L140.963 107.883C143.013 110.079 142.894 113.527 140.697 115.578L106.202 147.773C104.005 149.824 100.557 149.705 98.5064 147.508L91.0767 139.547C89.0264 137.351 89.1453 133.902 91.3421 131.852Z" fill="#D7DFEE"/>
<path d="M139.238 102.045C138.212 100.945 136.489 100.886 135.39 101.912C134.291 102.938 134.232 104.66 135.258 105.759C136.283 106.859 138.006 106.918 139.105 105.892C140.204 104.866 140.264 103.144 139.238 102.045Z" fill="#0F1723"/>
</svg>
