<svg width="240" height="240" viewBox="0 0 240 240" fill="none" xmlns="http://www.w3.org/2000/svg">
<path d="M80.1508 66.7172L74.4373 56.1699L35.8499 77.0731L41.5635 87.6204L80.1508 66.7172Z" fill="url(#paint0_linear_4056_13392)"/>
<path d="M69.2127 112.99L53.1547 121.698C51.2757 122.708 48.9332 122.004 47.9317 120.117L45.6472 115.796L44.7283 114.058L30.0444 86.3037C27.437 81.4864 29.2249 75.4687 34.0423 72.8614L40.358 69.4429L66.3323 102.122L67.5739 103.686L70.3881 107.229C71.878 109.1 71.3152 111.856 69.2127 112.99Z" fill="url(#paint1_linear_4056_13392)"/>
<path d="M67.9281 113.534C67.9281 113.534 75.1799 115.061 78.887 120.694C79.5671 121.728 79.3984 123.106 78.5122 123.969C77.4625 124.992 75.7793 124.941 74.7867 123.863C73.7764 122.766 72.1367 122.199 71.4011 123.656C70.0119 126.409 73.3751 127.358 78.6849 126.763C81.3991 126.459 78.7306 138.572 66.8295 135.414C56.0205 132.546 54.9467 120.804 54.9467 120.804L67.9281 113.534Z" fill="url(#paint2_linear_4056_13392)"/>
<path d="M30.0465 86.3065L41.6266 108.194C51.2141 98.3184 39.4422 80.2132 33.9583 72.9099C29.2077 75.5454 27.4529 81.5186 30.0465 86.3065Z" fill="url(#paint3_linear_4056_13392)"/>
<path d="M67.5739 103.687L45.6472 115.796L44.7284 114.058L66.3323 102.122L67.5739 103.687Z" fill="url(#paint4_linear_4056_13392)"/>
<path d="M198.437 87.6203L204.15 77.073L165.563 56.1698L159.849 66.7171L198.437 87.6203Z" fill="url(#paint5_linear_4056_13392)"/>
<path d="M170.787 112.99L186.845 121.698C188.724 122.708 191.067 122.004 192.068 120.117L194.353 115.796L195.272 114.058L209.956 86.3037C212.563 81.4864 210.775 75.4687 205.958 72.8614L199.642 69.4429L173.668 102.122L172.426 103.686L169.612 107.229C168.122 109.1 168.685 111.856 170.787 112.99Z" fill="url(#paint6_linear_4056_13392)"/>
<path d="M172.072 113.534C172.072 113.534 164.82 115.061 161.113 120.694C160.433 121.728 160.601 123.106 161.488 123.969C162.537 124.992 164.221 124.941 165.213 123.863C166.224 122.766 167.863 122.199 168.599 123.656C169.988 126.409 166.625 127.358 161.315 126.763C158.601 126.459 161.269 138.572 173.17 135.414C183.979 132.546 185.053 120.804 185.053 120.804L172.072 113.534Z" fill="url(#paint7_linear_4056_13392)"/>
<path d="M209.954 86.3065L198.374 108.194C188.786 98.3184 200.558 80.2132 206.042 72.9099C210.792 75.5454 212.547 81.5186 209.954 86.3065Z" fill="url(#paint8_linear_4056_13392)"/>
<path d="M172.426 103.687L194.353 115.796L195.272 114.058L173.668 102.122L172.426 103.687Z" fill="url(#paint9_linear_4056_13392)"/>
<path d="M172.056 59.0484C172.056 65.9352 169.44 79.9321 164.383 92.7455C161.444 100.195 156.42 106.403 150.146 110.815C143.466 115.525 135.354 118.198 126.82 118.198H113.187C104.654 118.198 96.5417 115.525 89.8619 110.815C83.5794 106.403 78.5551 100.203 75.6166 92.7455C70.5591 79.9321 67.9435 65.9352 67.9435 59.0484C67.9435 40.7472 91.2524 38.7441 120 38.7441C148.747 38.7441 172.056 40.7472 172.056 59.0484Z" fill="url(#paint10_linear_4056_13392)"/>
<path d="M172.056 56.9141C172.056 79.4517 148.75 80.9816 120.001 80.9816C91.2514 80.9816 67.9456 79.4517 67.9456 56.9141H172.056Z" fill="url(#paint11_linear_4056_13392)"/>
<path d="M172.056 52.3087C172.056 70.6082 148.751 72.6098 120.001 72.6098C91.2516 72.6098 67.9457 70.6082 67.9457 52.3087C67.9457 39.3673 77.1787 23.4307 94.4702 15.2105C95.6017 14.6685 96.7761 14.1597 97.9789 13.6939C104.369 11.1931 111.724 9.71924 120.001 9.71924C128.278 9.71924 135.633 11.1931 142.023 13.6939C143.226 14.1597 144.4 14.6685 145.532 15.2105C162.824 23.4307 172.056 39.3673 172.056 52.3087Z" fill="url(#paint12_linear_4056_13392)"/>
<path d="M120.002 64.8783C109.251 64.8783 98.247 64.6439 90.591 62.9437C81.4547 60.915 80.2832 57.4667 80.2832 54.689C80.2832 49.886 84.5284 44.5109 91.639 40.3105C99.5481 35.6386 109.621 33.0657 120.002 33.0657C130.383 33.0657 140.456 35.6386 148.365 40.3105C155.475 44.5109 159.721 49.886 159.721 54.689C159.721 57.4667 158.549 60.915 149.413 62.9437C141.757 64.6439 130.753 64.8783 120.002 64.8783Z" fill="url(#paint13_linear_4056_13392)"/>
<path d="M145.532 15.2105C141.899 22.6177 131.839 27.9427 120.001 27.9427C108.162 27.9427 98.1023 22.6177 94.47 15.2105C95.6015 14.6685 96.7759 14.1597 97.9787 13.6939C104.369 11.1931 111.724 9.71924 120.001 9.71924C128.278 9.71924 135.633 11.1931 142.023 13.6939C143.226 14.1597 144.4 14.6685 145.532 15.2105Z" fill="url(#paint14_linear_4056_13392)"/>
<path d="M142.023 13.6939C138.957 19.6796 130.109 24.1392 120.001 24.1392C109.893 24.1392 101.046 19.6796 97.979 13.6939C104.369 11.1931 111.724 9.71924 120.001 9.71924C128.278 9.71924 135.633 11.1931 142.023 13.6939Z" fill="url(#paint15_linear_4056_13392)"/>
<path d="M103.938 51.3647C103.938 47.4442 101.502 44.2661 98.496 44.2661C95.4904 44.2661 93.0537 47.4442 93.0537 51.3647C93.0537 55.2852 95.4903 58.4633 98.496 58.4633C101.502 58.4633 103.938 55.2852 103.938 51.3647Z" fill="url(#paint16_linear_4056_13392)"/>
<path d="M148.107 51.3647C148.107 47.4442 145.671 44.2661 142.665 44.2661C139.66 44.2661 137.223 47.4442 137.223 51.3647C137.223 55.2852 139.66 58.4633 142.665 58.4633C145.671 58.4633 148.107 55.2852 148.107 51.3647Z" fill="url(#paint17_linear_4056_13392)"/>
<path d="M150.146 110.815C143.466 115.524 135.354 118.198 126.82 118.198H113.187C104.653 118.198 96.5417 115.524 89.8618 110.815L93.3466 102.206C94.8448 98.4813 98.462 96.0479 102.477 96.0479H137.531C141.546 96.0479 145.154 98.4813 146.661 102.206L150.146 110.815Z" fill="url(#paint18_linear_4056_13392)"/>
<defs>
<linearGradient id="paint0_linear_4056_13392" x1="35.85" y1="71.8951" x2="80.1509" y2="71.8951" gradientUnits="userSpaceOnUse">
<stop stop-color="#102A5C"/>
<stop offset="1" stop-color="#011B43"/>
</linearGradient>
<linearGradient id="paint1_linear_4056_13392" x1="28.8459" y1="95.8008" x2="71.2255" y2="95.8008" gradientUnits="userSpaceOnUse">
<stop stop-color="#E9E9E9"/>
<stop offset="1" stop-color="white"/>
</linearGradient>
<linearGradient id="paint2_linear_4056_13392" x1="54.9467" y1="124.737" x2="79.6568" y2="124.737" gradientUnits="userSpaceOnUse">
<stop stop-color="#102A5C"/>
<stop offset="1" stop-color="#011B43"/>
</linearGradient>
<linearGradient id="paint3_linear_4056_13392" x1="43.8314" y1="99.6818" x2="21.5592" y2="65.305" gradientUnits="userSpaceOnUse">
<stop stop-color="#DDDADA"/>
<stop offset="0.8013" stop-color="#E7E5E5"/>
<stop offset="1" stop-color="#EBE9E9"/>
</linearGradient>
<linearGradient id="paint4_linear_4056_13392" x1="52.9085" y1="105.878" x2="59.1456" y2="112.115" gradientUnits="userSpaceOnUse">
<stop stop-color="#DDDADA"/>
<stop offset="0.8013" stop-color="#E7E5E5"/>
<stop offset="1" stop-color="#EBE9E9"/>
</linearGradient>
<linearGradient id="paint5_linear_4056_13392" x1="159.849" y1="9.71898" x2="204.15" y2="9.719" gradientUnits="userSpaceOnUse">
<stop stop-color="#102A5C"/>
<stop offset="1" stop-color="#011B43"/>
</linearGradient>
<linearGradient id="paint6_linear_4056_13392" x1="168.774" y1="9.71892" x2="211.154" y2="9.71892" gradientUnits="userSpaceOnUse">
<stop stop-color="#E9E9E9"/>
<stop offset="1" stop-color="white"/>
</linearGradient>
<linearGradient id="paint7_linear_4056_13392" x1="160.343" y1="124.737" x2="185.053" y2="124.737" gradientUnits="userSpaceOnUse">
<stop stop-color="#102A5C"/>
<stop offset="1" stop-color="#011B43"/>
</linearGradient>
<linearGradient id="paint8_linear_4056_13392" x1="197.085" y1="103.316" x2="210.804" y2="69.2626" gradientUnits="userSpaceOnUse">
<stop stop-color="#DDDADA"/>
<stop offset="0.8013" stop-color="#E7E5E5"/>
<stop offset="1" stop-color="#EBE9E9"/>
</linearGradient>
<linearGradient id="paint9_linear_4056_13392" x1="175.383" y1="100.407" x2="192.563" y2="117.586" gradientUnits="userSpaceOnUse">
<stop stop-color="#DDDADA"/>
<stop offset="0.8013" stop-color="#E7E5E5"/>
<stop offset="1" stop-color="#EBE9E9"/>
</linearGradient>
<linearGradient id="paint10_linear_4056_13392" x1="67.9435" y1="78.4713" x2="172.056" y2="78.4713" gradientUnits="userSpaceOnUse">
<stop stop-color="#E9E9E9"/>
<stop offset="1" stop-color="white"/>
</linearGradient>
<linearGradient id="paint11_linear_4056_13392" x1="67.9456" y1="68.9478" x2="172.056" y2="68.9478" gradientUnits="userSpaceOnUse">
<stop stop-color="#102A5C"/>
<stop offset="1" stop-color="#011B43"/>
</linearGradient>
<linearGradient id="paint12_linear_4056_13392" x1="67.9457" y1="41.1645" x2="172.056" y2="41.1645" gradientUnits="userSpaceOnUse">
<stop stop-color="#E9E9E9"/>
<stop offset="1" stop-color="white"/>
</linearGradient>
<linearGradient id="paint13_linear_4056_13392" x1="80.2832" y1="48.972" x2="159.721" y2="48.972" gradientUnits="userSpaceOnUse">
<stop stop-color="#102A5C"/>
<stop offset="1" stop-color="#011B43"/>
</linearGradient>
<linearGradient id="paint14_linear_4056_13392" x1="120.001" y1="34.6117" x2="120.001" y2="-9.79098" gradientUnits="userSpaceOnUse">
<stop stop-color="#DDDADA"/>
<stop offset="0.8013" stop-color="#E7E5E5"/>
<stop offset="1" stop-color="#EBE9E9"/>
</linearGradient>
<linearGradient id="paint15_linear_4056_13392" x1="97.979" y1="16.9292" x2="142.023" y2="16.9292" gradientUnits="userSpaceOnUse">
<stop stop-color="#E9E9E9"/>
<stop offset="1" stop-color="white"/>
</linearGradient>
<linearGradient id="paint16_linear_4056_13392" x1="94.5128" y1="47.3816" x2="104.451" y2="57.3199" gradientUnits="userSpaceOnUse">
<stop stop-color="#5EBCF1"/>
<stop offset="1" stop-color="#009CDE"/>
</linearGradient>
<linearGradient id="paint17_linear_4056_13392" x1="138.682" y1="47.3816" x2="148.62" y2="57.3198" gradientUnits="userSpaceOnUse">
<stop stop-color="#5EBCF1"/>
<stop offset="1" stop-color="#009CDE"/>
</linearGradient>
<linearGradient id="paint18_linear_4056_13392" x1="120.004" y1="84.9661" x2="120.004" y2="125.304" gradientUnits="userSpaceOnUse">
<stop stop-color="#DDDADA"/>
<stop offset="0.8013" stop-color="#E7E5E5"/>
<stop offset="1" stop-color="#EBE9E9"/>
</linearGradient>
</defs>
</svg>
