<svg width="240" height="241" viewBox="0 0 240 241" fill="none" xmlns="http://www.w3.org/2000/svg">
<g clip-path="url(#clip0_4056_13379)">
<g clip-path="url(#clip1_4056_13379)">
<path d="M55.6954 68.5274V86.7465C55.6954 94.1632 49.6739 100.185 42.2571 100.185V68.5274C42.2571 64.819 45.2678 61.8082 48.9762 61.8082C52.6847 61.8082 55.6954 64.819 55.6954 68.5274Z" fill="#E25F3F"/>
<path d="M28.8663 68.5274L28.8663 100.185C21.4494 100.185 15.428 94.1633 15.428 86.7465L15.428 68.5274C15.428 64.819 18.4387 61.8082 22.1471 61.8082C25.8556 61.8082 28.8663 64.819 28.8663 68.5274Z" fill="#E25F3F"/>
<path d="M28.8665 100.185V68.5274C28.8665 64.8165 25.8582 61.8082 22.1473 61.8082L22.1472 98.3723C24.1254 99.5183 26.4157 100.185 28.8665 100.185Z" fill="#D3462A"/>
<path d="M69.0861 135.807H37.1024V150.199H69.0861V135.807Z" fill="#607C7F"/>
<path d="M42.7917 143.768V96.2648H28.4003L28.4003 143.768H42.7917Z" fill="#607C7F"/>
<path d="M64.8522 125.988H76.1807V160.017H64.8522C61.9659 160.017 59.6227 157.674 59.6227 154.788V131.217C59.6227 128.331 61.9659 125.988 64.8522 125.988Z" fill="#01343E"/>
<path d="M15.428 86.7463H55.764C55.764 94.1632 49.7425 100.185 42.3256 100.185H28.8664C21.4495 100.185 15.428 94.1632 15.428 86.7463Z" fill="#E25F3F"/>
<path d="M55.6953 86.7465V68.5274C55.6953 64.8165 52.687 61.8082 48.9762 61.8082V98.3724C52.9889 96.0478 55.6953 91.7176 55.6953 86.7465Z" fill="#D3462A"/>
<path d="M35.5959 154.612C42.0074 154.612 47.2049 149.414 47.2049 143.003C47.2049 136.591 42.0074 131.394 35.5959 131.394C29.1845 131.394 23.9869 136.591 23.9869 143.003C23.9869 149.414 29.1845 154.612 35.5959 154.612Z" fill="#01343E"/>
<path d="M45.9422 137.756C44.0254 133.984 40.1173 131.394 35.5959 131.394C29.1844 131.394 23.9869 136.591 23.9869 143.003C23.9869 147.336 26.3654 151.108 29.8839 153.102C38.1082 152.208 44.6764 145.863 45.9422 137.756Z" fill="#0D3C42"/>
<path d="M35.596 146.872C37.7329 146.872 39.4651 145.14 39.4651 143.003C39.4651 140.866 37.7329 139.134 35.596 139.134C33.4592 139.134 31.7269 140.866 31.7269 143.003C31.7269 145.14 33.4592 146.872 35.596 146.872Z" fill="#5BAF5B"/>
<path d="M197.743 68.5274V100.185C190.326 100.185 184.304 94.1633 184.304 86.7465V68.5274C184.304 64.819 187.315 61.8082 191.024 61.8082C194.732 61.8082 197.743 64.819 197.743 68.5274Z" fill="#E25F3F"/>
<path d="M224.572 68.5274V86.7464C224.572 94.1632 218.55 100.185 211.134 100.185V68.5274C211.134 64.819 214.144 61.8082 217.853 61.8082C221.561 61.8082 224.572 64.819 224.572 68.5274Z" fill="#E25F3F"/>
<path d="M211.133 100.185V68.5274C211.133 64.8165 214.142 61.8082 217.853 61.8082L217.853 98.3723C215.874 99.5183 213.584 100.185 211.133 100.185Z" fill="#D3462A"/>
<path d="M170.914 150.198H202.897V135.807H170.914V150.198Z" fill="#607C7F"/>
<path d="M211.6 143.768V96.2649H197.208V143.768H211.6Z" fill="#607C7F"/>
<path d="M175.148 160.018H163.819V125.988H175.148C178.034 125.988 180.377 128.331 180.377 131.218V154.788C180.377 157.674 178.034 160.018 175.148 160.018Z" fill="#01343E"/>
<path d="M211.134 100.185H197.674C190.257 100.185 184.236 94.1633 184.236 86.7464H224.572C224.572 94.1632 218.55 100.185 211.134 100.185Z" fill="#E25F3F"/>
<path d="M184.304 86.7465V68.5274C184.304 64.8165 187.313 61.8082 191.024 61.8082V98.3724C187.011 96.0478 184.304 91.7176 184.304 86.7465Z" fill="#D3462A"/>
<path d="M204.404 154.612C210.815 154.612 216.013 149.414 216.013 143.003C216.013 136.591 210.815 131.394 204.404 131.394C197.992 131.394 192.795 136.591 192.795 143.003C192.795 149.414 197.992 154.612 204.404 154.612Z" fill="#01343E"/>
<path d="M194.058 137.756C195.975 133.984 199.883 131.394 204.404 131.394C210.816 131.394 216.013 136.591 216.013 143.003C216.013 147.336 213.635 151.108 210.116 153.102C201.892 152.208 195.324 145.863 194.058 137.756Z" fill="#0D3C42"/>
<path d="M204.404 146.872C206.541 146.872 208.273 145.14 208.273 143.003C208.273 140.866 206.541 139.134 204.404 139.134C202.267 139.134 200.535 140.866 200.535 143.003C200.535 145.14 202.267 146.872 204.404 146.872Z" fill="#5BAF5B"/>
<path d="M138.538 107.745H101.462V124.982H138.538V107.745Z" fill="#01343E"/>
<path d="M158.908 119.924H81.092C75.2384 119.924 70.4932 124.669 70.4932 130.523V215.416C70.4932 221.27 75.2384 226.015 81.092 226.015H158.908C164.761 226.015 169.506 221.27 169.506 215.416V130.523C169.506 124.669 164.761 119.924 158.908 119.924Z" fill="#56D856"/>
<path d="M158.908 119.924H158.068V199.818C158.068 206.3 152.814 211.555 146.332 211.555H70.4933V215.416C70.4933 221.27 75.2385 226.015 81.0921 226.015H158.908C164.761 226.015 169.507 221.27 169.507 215.416V130.523C169.507 124.669 164.761 119.924 158.908 119.924Z" fill="#4ECE4E"/>
<path d="M70.4933 197.433H65.2294V215.352H70.4933V197.433Z" fill="#001011"/>
<path d="M60.29 172.451H36.559C33.831 172.451 31.6195 174.663 31.6195 177.391V235.394C31.6195 238.122 33.831 240.333 36.559 240.333H60.29C63.018 240.333 65.2295 238.122 65.2295 235.394V177.391C65.2295 174.663 63.018 172.451 60.29 172.451Z" fill="#01343E"/>
<path d="M65.2294 222.291H31.6194V231.889H65.2294V222.291Z" fill="#002328"/>
<path d="M65.2294 201.593H31.6194V211.192H65.2294V201.593Z" fill="#002328"/>
<path d="M65.2294 180.895H31.6194V190.494H65.2294V180.895Z" fill="#002328"/>
<path d="M169.506 215.352H174.77V197.433H169.506V215.352Z" fill="#001011"/>
<path d="M179.71 240.334H203.441C206.169 240.334 208.38 238.122 208.38 235.394V177.391C208.38 174.663 206.169 172.451 203.441 172.451H179.71C176.982 172.451 174.77 174.663 174.77 177.391V235.394C174.77 238.122 176.982 240.334 179.71 240.334Z" fill="#01343E"/>
<path d="M208.38 222.291H174.77V231.89H208.38V222.291Z" fill="#002328"/>
<path d="M208.38 201.593H174.77V211.192H208.38V201.593Z" fill="#002328"/>
<path d="M208.38 180.895H174.77V190.494H208.38V180.895Z" fill="#002328"/>
<path d="M120 54.0262C147.323 54.0262 169.507 76.2095 169.507 103.533V105.723C169.507 110.109 165.946 113.67 161.56 113.67H78.4401C74.0541 113.67 70.4932 110.109 70.4932 105.723V103.533C70.4933 76.2095 92.6765 54.0262 120 54.0262Z" fill="#56D856"/>
<path d="M111.741 103.683C113.636 106.178 116.625 107.796 120 107.796C123.375 107.796 126.364 106.178 128.259 103.683" stroke="#193519" stroke-width="4.27559" stroke-miterlimit="10" stroke-linecap="round"/>
<path d="M145.275 135.457H94.7249C91.9185 135.457 89.6436 137.732 89.6436 140.538V174.134C89.6436 176.94 91.9185 179.215 94.7249 179.215H145.275C148.081 179.215 150.356 176.94 150.356 174.134V140.538C150.356 137.732 148.081 135.457 145.275 135.457Z" fill="#52A852"/>
<path d="M141.259 138.933H98.7403C96.3798 138.933 94.4663 140.846 94.4663 143.207V171.465C94.4663 173.826 96.3798 175.739 98.7403 175.739H141.259C143.62 175.739 145.533 173.826 145.533 171.465V143.207C145.533 140.846 143.62 138.933 141.259 138.933Z" fill="#061606"/>
<path d="M101.942 102.112C107.605 102.112 112.195 97.5218 112.195 91.8594C112.195 86.1971 107.605 81.6069 101.942 81.6069C96.2799 81.6069 91.6897 86.1971 91.6897 91.8594C91.6897 97.5218 96.2799 102.112 101.942 102.112Z" fill="white"/>
<path d="M104.48 97.1063C107.378 97.1063 109.727 94.7572 109.727 91.8594C109.727 88.9617 107.378 86.6125 104.48 86.6125C101.582 86.6125 99.233 88.9617 99.233 91.8594C99.233 94.7572 101.582 97.1063 104.48 97.1063Z" fill="#001600"/>
<path d="M138.058 102.112C143.72 102.112 148.31 97.5218 148.31 91.8594C148.31 86.1971 143.72 81.6069 138.058 81.6069C132.396 81.6069 127.805 86.1971 127.805 91.8594C127.805 97.5218 132.396 102.112 138.058 102.112Z" fill="white"/>
<path d="M135.52 97.1063C138.418 97.1063 140.767 94.7572 140.767 91.8594C140.767 88.9617 138.418 86.6125 135.52 86.6125C132.622 86.6125 130.273 88.9617 130.273 91.8594C130.273 94.7572 132.622 97.1063 135.52 97.1063Z" fill="#001600"/>
<path d="M107.053 74.9879H132.947C135.825 74.9879 138.158 72.6549 138.158 69.777V57.4781C132.534 55.2588 126.413 54.0262 120 54.0262C113.587 54.0262 107.466 55.2588 101.842 57.4781V69.777C101.842 72.6549 104.175 74.9879 107.053 74.9879Z" fill="#4ECE4E"/>
<path d="M112.481 171.709C113.773 171.709 114.82 170.661 114.82 169.369C114.82 168.077 113.773 167.029 112.481 167.029C111.189 167.029 110.141 168.077 110.141 169.369C110.141 170.661 111.189 171.709 112.481 171.709Z" fill="#E25F3F"/>
<path d="M120 171.709C121.292 171.709 122.34 170.661 122.34 169.369C122.34 168.077 121.292 167.029 120 167.029C118.708 167.029 117.66 168.077 117.66 169.369C117.66 170.661 118.708 171.709 120 171.709Z" fill="#E25F3F"/>
<path d="M127.519 171.709C128.811 171.709 129.859 170.661 129.859 169.369C129.859 168.077 128.811 167.029 127.519 167.029C126.227 167.029 125.179 168.077 125.179 169.369C125.179 170.661 126.227 171.709 127.519 171.709Z" fill="#E25F3F"/>
<path d="M113.777 142.752H98.1393V145.272H113.777V142.752Z" fill="#41D8E0"/>
<path d="M106.818 146.901H98.1393V149.421H106.818V146.901Z" fill="#41D8E0"/>
<path d="M123.016 151.051H98.1393V153.57H123.016V151.051Z" fill="#41D8E0"/>
</g>
</g>
<defs>
<clipPath id="clip0_4056_13379">
<rect width="240" height="240" fill="white" transform="translate(0 0.333374)"/>
</clipPath>
<clipPath id="clip1_4056_13379">
<rect width="209.144" height="186.307" fill="white" transform="translate(15.428 54.0262)"/>
</clipPath>
</defs>
</svg>
