<svg width="240" height="240" viewBox="0 0 240 240" fill="none" xmlns="http://www.w3.org/2000/svg">
<g clip-path="url(#clip0_4081_3297)">
<path d="M50.2136 178.45C62.3661 178.45 72.2175 168.599 72.2175 156.446C72.2175 144.294 62.3661 134.442 50.2136 134.442C38.0612 134.442 28.2097 144.294 28.2097 156.446C28.2097 168.599 38.0612 178.45 50.2136 178.45Z" fill="#08224F"/>
<path d="M190.253 178.45C202.406 178.45 212.257 168.599 212.257 156.446C212.257 144.294 202.406 134.442 190.253 134.442C178.101 134.442 168.25 144.294 168.25 156.446C168.25 168.599 178.101 178.45 190.253 178.45Z" fill="#08224F"/>
<path d="M85.4312 57.3169C80.6751 60.1556 76.3085 63.5636 72.4211 67.4507C60.3698 79.5095 52.9172 96.1521 52.9172 114.547V59.8187C52.9172 51.9767 60.9466 46.7038 68.1444 49.8271L85.4312 57.3169Z" fill="#08224F"/>
<path d="M186.119 59.8187V114.548C186.119 90.2203 173.078 68.9414 153.597 57.317L170.892 49.8271C178.082 46.7038 186.119 51.9768 186.119 59.8187Z" fill="#08224F"/>
<path d="M186.117 150.084V114.546C186.117 77.7634 156.299 47.9448 119.516 47.9448C82.7329 47.9448 52.9141 77.7634 52.9141 114.546V150.084H186.117Z" fill="#A678FF"/>
<path d="M174.373 104.744C174.373 79.7796 149.813 59.542 119.516 59.542C89.219 59.542 64.6587 79.7796 64.6587 104.744C64.6587 129.709 89.2192 131.445 119.516 131.445C149.813 131.445 174.373 129.709 174.373 104.744Z" fill="#08224F"/>
<path d="M186.118 150.084C186.118 173.233 156.299 192 119.516 192C82.7332 192 52.9146 173.233 52.9146 150.084H186.118Z" fill="#8E67EF"/>
<path d="M185.22 156.96C185.807 154.722 186.117 152.426 186.117 150.084H52.9141C52.9141 152.426 53.2243 154.722 53.8111 156.96H185.22Z" fill="#7958E0"/>
<path d="M91.6919 188.165C100.161 190.62 109.58 192 119.516 192C129.452 192 138.871 190.62 147.341 188.165C142.962 178.375 132.159 171.445 119.516 171.445C106.873 171.445 96.0702 178.375 91.6919 188.165Z" fill="#7958E0"/>
<path d="M95.7549 101.769C99.9261 101.769 103.308 98.3875 103.308 94.2163C103.308 90.045 99.9261 86.6636 95.7549 86.6636C91.5836 86.6636 88.2021 90.045 88.2021 94.2163C88.2021 98.3875 91.5836 101.769 95.7549 101.769Z" fill="#2EACE7"/>
<path d="M143.277 101.769C147.448 101.769 150.83 98.3875 150.83 94.2163C150.83 90.045 147.448 86.6636 143.277 86.6636C139.106 86.6636 135.724 90.045 135.724 94.2163C135.724 98.3875 139.106 101.769 143.277 101.769Z" fill="#2EACE7"/>
<path d="M108.914 104.962C111.859 107.846 116.569 107.846 119.513 104.962L119.518 104.967C122.462 107.849 127.169 107.849 130.113 104.967L130.118 104.962" stroke="#2EACE7" stroke-width="6.55128" stroke-linecap="round" stroke-linejoin="round"/>
</g>
<defs>
<clipPath id="clip0_4081_3297">
<rect width="184.048" height="144.055" fill="white" transform="translate(28.2097 47.9448)"/>
</clipPath>
</defs>
</svg>
