<svg width="240" height="240" viewBox="0 0 240 240" fill="none" xmlns="http://www.w3.org/2000/svg">
<g clip-path="url(#clip0_4073_42552)">
<path d="M155.518 94.9275C155.527 94.8429 155.534 94.7594 155.546 94.671C155.546 94.6704 155.546 94.6698 155.546 94.6698C155.562 94.5575 155.58 94.4422 155.601 94.3242C155.605 94.3016 155.61 94.2791 155.614 94.2559C155.635 94.143 155.658 94.027 155.685 93.9085C155.69 93.8859 155.696 93.862 155.702 93.8388C155.751 93.6293 155.808 93.4105 155.875 93.1841C155.891 93.1295 155.905 93.0775 155.922 93.0223C155.948 92.9364 155.978 92.8466 156.007 92.7583C156.038 92.6643 156.069 92.5689 156.103 92.4698C156.13 92.3915 156.159 92.3105 156.19 92.2297C156.233 92.1086 156.279 91.9864 156.327 91.8609C156.353 91.7931 156.379 91.7273 156.406 91.6584C156.485 91.4614 156.567 91.2601 156.657 91.0532C163.004 76.3752 174.05 76.2711 186.745 68.6958C187.038 68.5215 187.328 68.3414 187.615 68.1614C187.67 68.1275 187.725 68.0917 187.781 68.0579C188.056 67.8817 188.329 67.7055 188.599 67.5267C188.65 67.4928 188.701 67.4577 188.753 67.4232C189.014 67.2483 189.274 67.0714 189.531 66.8928C189.55 66.8795 189.571 66.8664 189.59 66.852C189.858 66.6652 190.123 66.4763 190.386 66.2857C190.441 66.245 190.497 66.2048 190.553 66.1634C190.807 65.9791 191.059 65.7915 191.309 65.6021C191.355 65.5671 191.402 65.5312 191.448 65.4962C191.679 65.3212 191.906 65.1456 192.131 64.9694C192.169 64.9399 192.207 64.9112 192.244 64.8811C192.485 64.6916 192.724 64.5016 192.96 64.3105C193.022 64.2609 193.084 64.2114 193.145 64.1618C193.374 63.9763 193.602 63.79 193.827 63.6019C193.881 63.558 193.934 63.5135 193.987 63.4683C194.176 63.3109 194.363 63.1542 194.549 62.9967C194.611 62.9434 194.675 62.8901 194.738 62.8367C194.943 62.6606 195.147 62.4849 195.349 62.31C195.434 62.2374 195.519 62.164 195.603 62.0905C195.759 61.9538 195.914 61.819 196.068 61.6835C196.208 61.5601 196.347 61.4383 196.484 61.3167C196.576 61.2358 196.668 61.1531 196.759 61.0728C201.84 56.5557 205.907 52.4457 210.076 51.8543H210.077C210.176 51.8412 210.276 51.8343 210.375 51.8242C211.202 51.9107 212.04 52.1516 212.897 52.5768C219.474 55.8396 220.833 64.2182 215.887 70.3338C214.935 71.5121 213.882 72.5807 212.759 73.5508C213.316 73.6619 213.846 73.8299 214.346 74.0632C214.322 74.0839 214.299 74.1058 214.275 74.1265C214.399 74.1522 214.52 74.1817 214.641 74.2105C215.568 74.7022 216.392 75.4365 217.101 76.5101C220.518 81.6787 218.789 87.9591 213.509 89.8699C211.193 90.7071 208.71 90.9297 206.239 90.7647C206.609 91.511 206.881 92.345 207.033 93.3019C208.065 99.7705 204.102 104.388 198.68 103.173C196.811 102.754 194.998 101.942 193.274 100.883C193.226 101.095 193.172 101.301 193.113 101.503C192.51 107.769 187.783 110.788 182.928 107.992C177.879 105.085 174.04 99.0311 171.461 93.6989C171.403 93.5985 171.346 93.4963 171.29 93.3959C170.69 93.7088 156.286 101.13 155.518 94.9275Z" fill="white"/>
<path d="M84.4814 94.9275C84.4729 94.8429 84.4655 94.7594 84.4538 94.671C84.4535 94.6704 84.4535 94.6698 84.4535 94.6698C84.4382 94.5575 84.4196 94.4422 84.3983 94.3242C84.3945 94.3016 84.3898 94.2791 84.3858 94.2559C84.3645 94.143 84.3419 94.027 84.3146 93.9085C84.3096 93.8859 84.3033 93.862 84.2979 93.8388C84.2491 93.6293 84.1913 93.4105 84.1249 93.1841C84.1089 93.1295 84.0947 93.0775 84.0779 93.0223C84.0518 92.9364 84.0218 92.8466 83.9932 92.7583C83.9622 92.6643 83.9305 92.5689 83.8966 92.4698C83.8694 92.3915 83.8405 92.3105 83.8101 92.2297C83.7669 92.1086 83.7207 91.9864 83.6728 91.8609C83.6465 91.7931 83.621 91.7273 83.5935 91.6584C83.5147 91.4614 83.4323 91.2601 83.3423 91.0532C76.9954 76.3752 65.9499 76.2711 53.2552 68.6958C52.9617 68.5215 52.6719 68.3414 52.3848 68.1614C52.3299 68.1275 52.2744 68.0917 52.2189 68.0579C51.9433 67.8817 51.6705 67.7055 51.4005 67.5267C51.3494 67.4928 51.2986 67.4577 51.2472 67.4232C50.9854 67.2483 50.7257 67.0714 50.4686 66.8928C50.4495 66.8795 50.4288 66.8664 50.4093 66.852C50.1413 66.6652 49.8766 66.4763 49.6141 66.2857C49.5583 66.245 49.5026 66.2048 49.4471 66.1634C49.1925 65.9791 48.9407 65.7915 48.6911 65.6021C48.6444 65.5671 48.5977 65.5312 48.5513 65.4962C48.3211 65.3212 48.0938 65.1456 47.8687 64.9694C47.831 64.9399 47.7932 64.9112 47.7555 64.8811C47.5143 64.6916 47.2758 64.5016 47.0394 64.3105C46.9776 64.2609 46.9161 64.2114 46.855 64.1618C46.6258 63.9763 46.3978 63.79 46.1724 63.6019C46.1188 63.558 46.0657 63.5135 46.0124 63.4683C45.8238 63.3109 45.6368 63.1542 45.4503 62.9967C45.3885 62.9434 45.3249 62.8901 45.2622 62.8367C45.057 62.6606 44.853 62.4849 44.6504 62.31C44.5657 62.2374 44.4812 62.164 44.397 62.0905C44.2406 61.9538 44.0854 61.819 43.9314 61.6835C43.7918 61.5601 43.6529 61.4383 43.5159 61.3167C43.4241 61.2358 43.3322 61.1531 43.2403 61.0728C38.1602 56.5557 34.0931 52.4457 29.9236 51.8543H29.9223C29.8233 51.8412 29.7241 51.8343 29.6251 51.8242C28.7973 51.9107 27.9598 52.1516 27.1032 52.5768C20.5262 55.8396 19.1663 64.2183 24.1125 70.3338C25.0651 71.5121 26.1177 72.5807 27.2411 73.5508C26.6833 73.6619 26.1537 73.8299 25.6533 74.0632C25.6777 74.0839 25.7006 74.1058 25.7248 74.1265C25.6012 74.1522 25.4796 74.1817 25.3586 74.2105C24.4318 74.7022 23.6074 75.4365 22.8988 76.5101C19.4818 81.6787 21.2106 87.9591 26.4906 89.8699C28.8068 90.7071 31.2898 90.9297 33.7605 90.7647C33.3905 91.511 33.1189 92.345 32.9663 93.3019C31.9347 99.7705 35.898 104.388 41.3198 103.173C43.1886 102.754 45.0022 101.942 46.7258 100.883C46.7741 101.095 46.828 101.301 46.8872 101.503C47.4899 107.769 52.2163 110.788 57.072 107.992C62.1205 105.085 65.9599 99.0311 68.5389 93.6989C68.5967 93.5985 68.654 93.4963 68.7101 93.3959C69.3096 93.7088 83.7136 101.13 84.4814 94.9275Z" fill="white"/>
<path d="M120 177.81C138.369 177.81 153.26 162.919 153.26 144.55C153.26 126.181 138.369 111.291 120 111.291C101.631 111.291 86.7405 126.181 86.7405 144.55C86.7405 162.919 101.631 177.81 120 177.81Z" fill="#FF80A1"/>
<path d="M120 69.2749C147.339 69.2749 169.534 91.4706 169.534 118.809V143.533C169.534 153.836 161.17 162.201 150.867 162.201H89.133C78.83 162.201 70.4653 153.836 70.4653 143.533V118.809C70.4653 91.4706 92.6612 69.2749 120 69.2749Z" fill="#FF80A1"/>
<path d="M78.3479 132.65H67.3413C63.6606 132.65 60.6768 129.666 60.6768 125.985V109.719C60.6768 106.038 63.6606 103.054 67.3413 103.054H78.3479V132.65Z" fill="#FF80A1"/>
<path d="M161.652 132.65H172.659C176.34 132.65 179.324 129.666 179.324 125.985V109.719C179.324 106.038 176.34 103.054 172.659 103.054H161.652V132.65Z" fill="#FF80A1"/>
<path d="M120 62.5767C147.339 62.5767 169.534 84.7723 169.534 112.111V136.835C169.534 147.138 161.17 155.503 150.867 155.503H89.133C78.83 155.503 70.4653 147.138 70.4653 136.835V112.111C70.4653 84.7723 92.6612 62.5767 120 62.5767Z" fill="#FE94AB"/>
<path d="M151.42 99.9624H89.6225C86.8428 99.9624 84.5894 102.216 84.5894 104.996V139.517C84.5894 142.297 86.8428 144.551 89.6225 144.551H151.42C154.2 144.551 156.453 142.297 156.453 139.517V104.996C156.453 102.216 154.2 99.9624 151.42 99.9624Z" fill="white"/>
<path d="M114.96 127.085C117.968 130.294 123.06 130.295 126.069 127.087L126.072 127.085L126.082 127.096" stroke="#334D51" stroke-width="5.175" stroke-linecap="round" stroke-linejoin="round"/>
<path d="M146.062 132.649C149.796 132.649 152.823 130.697 152.823 128.288C152.823 125.88 149.796 123.928 146.062 123.928C142.328 123.928 139.301 125.88 139.301 128.288C139.301 130.697 142.328 132.649 146.062 132.649Z" fill="#FFDEDE"/>
<path d="M94.9799 132.649C98.7139 132.649 101.741 130.697 101.741 128.288C101.741 125.88 98.7139 123.928 94.9799 123.928C91.246 123.928 88.219 125.88 88.219 128.288C88.219 130.697 91.246 132.649 94.9799 132.649Z" fill="#FFDEDE"/>
<path d="M102.652 126.438C106 126.438 108.715 123.723 108.715 120.375C108.715 117.026 106 114.312 102.652 114.312C99.3033 114.312 96.5889 117.026 96.5889 120.375C96.5889 123.723 99.3033 126.438 102.652 126.438Z" fill="#334D51"/>
<path d="M138.391 126.438C141.739 126.438 144.453 123.723 144.453 120.375C144.453 117.026 141.739 114.312 138.391 114.312C135.042 114.312 132.328 117.026 132.328 120.375C132.328 123.723 135.042 126.438 138.391 126.438Z" fill="#334D51"/>
<path d="M120 71.4475C134.839 71.4475 146.868 66.126 146.868 59.5616C146.868 52.9973 134.839 47.6758 120 47.6758C105.161 47.6758 93.1321 52.9973 93.1321 59.5616C93.1321 66.126 105.161 71.4475 120 71.4475Z" stroke="#FFB600" stroke-width="6.21" stroke-miterlimit="10"/>
<path d="M141.129 180.379C140.695 180.145 140.412 179.674 140.443 179.15C141.265 165.629 144.941 152.709 151.367 140.75C157.793 128.791 166.538 118.595 177.359 110.448C177.934 110.016 178.752 110.129 179.186 110.705C179.62 111.281 179.505 112.098 178.929 112.532C168.411 120.451 159.911 130.361 153.665 141.985C147.419 153.609 143.846 166.167 143.048 179.308C143.004 180.027 142.386 180.575 141.666 180.531C141.471 180.519 141.29 180.465 141.129 180.379Z" fill="#EED0B4"/>
<path d="M188.409 139.798C190.875 130.604 185.837 122.048 182.825 116.936C182.314 116.068 181.654 114.947 181.321 114.265C181.661 114.224 182.08 114.243 182.327 114.327C184.004 115.536 186.372 115.22 187.674 113.574C189.015 111.88 188.73 109.419 187.034 108.077C184.513 106.088 180.142 105.844 177.082 107.538C174.424 109.011 173.043 111.763 173.39 114.899C173.585 116.669 174.633 118.447 176.081 120.907C178.624 125.223 182.466 131.746 180.85 137.77C179.787 141.731 176.405 145.347 170.797 148.517C170.044 148.942 169.497 149.583 169.167 150.315C168.739 150.994 168.507 151.804 168.567 152.666C169.019 159.093 167.87 163.909 165.154 166.981C161.022 171.654 153.462 172.05 148.46 172.311C145.609 172.461 143.549 172.569 141.965 173.383C139.157 174.824 137.625 177.495 137.865 180.526C138.108 183.591 140.156 186.678 142.724 188.058C143.077 188.248 143.439 188.405 143.808 188.526C145.862 189.198 148.072 188.079 148.744 186.024C149.396 184.03 148.366 181.894 146.419 181.151C146.214 180.991 145.967 180.652 145.813 180.346C146.566 180.247 147.863 180.179 148.869 180.127C154.794 179.816 164.709 179.297 171.017 172.165C174.827 167.857 176.633 161.817 176.45 154.228C182.88 150.193 186.919 145.353 188.409 139.798Z" fill="#F1BCDA"/>
<path d="M76.6362 173.774L82.5624 183.564L77.6812 194.28C77.0269 195.716 75.0312 195.833 74.2138 194.483L70.7507 188.762C70.4146 188.207 70.3744 187.522 70.6434 186.931L76.6362 173.774Z" fill="#F1BCDA"/>
<path d="M96.9381 180.725L93.475 175.005C93.1389 174.45 92.5502 174.096 91.9021 174.061L77.4666 173.271L83.3928 183.061L95.1507 183.704C96.7268 183.79 97.7556 182.076 96.9381 180.725Z" fill="#F1BCDA"/>
<path d="M81.8801 185.917L46.1747 126.938L49.2588 125.071L84.9641 184.05C85.1988 184.438 85.0747 184.943 84.687 185.178L83.0076 186.194C82.6199 186.429 82.1148 186.305 81.8801 185.917Z" fill="#EED0B4"/>
<path d="M39.2124 136.74C43.7703 137.553 48.1282 134.461 49.2334 129.965L49.4879 128.93L50.5234 129.184C55.0194 130.289 59.7789 127.861 61.1723 123.446C62.699 118.608 59.8101 113.564 54.9621 112.372L42.0488 109.198C39.125 108.479 36.1722 110.267 35.4535 113.191L32.2794 126.104C31.0878 130.952 34.2177 135.85 39.2124 136.74Z" fill="#DD4379"/>
<path d="M65.1837 172.634C74.6455 172.634 82.3158 164.964 82.3158 155.502C82.3158 146.04 74.6455 138.37 65.1837 138.37C55.7218 138.37 48.0515 146.04 48.0515 155.502C48.0515 164.964 55.7218 172.634 65.1837 172.634Z" fill="#FF4D84"/>
<path d="M174.816 172.634C184.278 172.634 191.948 164.964 191.948 155.502C191.948 146.04 184.278 138.37 174.816 138.37C165.354 138.37 157.684 146.04 157.684 155.502C157.684 164.964 165.354 172.634 174.816 172.634Z" fill="#FF4D84"/>
</g>
<defs>
<clipPath id="clip0_4073_42552">
<rect width="197.733" height="150.859" fill="white" transform="translate(21.1338 44.5708)"/>
</clipPath>
</defs>
</svg>
