<svg width="240" height="241" viewBox="0 0 240 241" fill="none" xmlns="http://www.w3.org/2000/svg">
<g clip-path="url(#clip0_4056_13385)">
<path d="M194.25 115.994H167.981C163.02 115.994 158.999 120.015 158.999 124.975V230.937C158.999 235.897 163.02 239.919 167.981 239.919H194.25C199.21 239.919 203.231 235.897 203.231 230.937V124.975C203.231 120.015 199.21 115.994 194.25 115.994Z" fill="#262632"/>
<path d="M146.683 110.882H188.653L191.866 146.816C192.086 149.276 190.148 151.396 187.677 151.396H147.851L146.888 115.994L146.683 110.882Z" fill="#C52E1F"/>
<path d="M146.206 99.0178H174.741C176.955 99.0178 179.062 99.9711 180.524 101.634L188.653 110.882H146.683L146.206 99.0178Z" fill="#E14B3B"/>
<path d="M72.0194 115.994H45.7503C40.79 115.994 36.7688 120.015 36.7688 124.975V230.937C36.7688 235.897 40.79 239.919 45.7503 239.919H72.0194C76.9797 239.919 81.0009 235.897 81.0009 230.937V124.975C81.0009 120.015 76.9797 115.994 72.0194 115.994Z" fill="#262632"/>
<path d="M93.2187 110.882H51.2491L48.0358 146.816C47.8158 149.276 49.7541 151.396 52.2246 151.396H92.0507L93.0135 115.994L93.2187 110.882Z" fill="#C52E1F"/>
<path d="M193.459 204.806H47.1367V213.177H193.459V204.806Z" fill="#70615F"/>
<path d="M146.903 115.994H93.0135L96.3524 32.8857H143.647L146.903 115.994Z" fill="#78BAB3"/>
<path d="M140.916 97.9383H99.0011L101.598 42.1199H138.383L140.916 97.9383Z" fill="#A9D3CF"/>
<path d="M149.576 37.9303H90.4238L95.4013 30.0217H145.947L149.576 37.9303Z" fill="#DE3D2C"/>
<path d="M164.804 151.395C171.569 151.395 177.052 145.912 177.052 139.147C177.052 132.383 171.569 126.9 164.804 126.9C158.04 126.9 152.557 132.383 152.557 139.147C152.557 145.912 158.04 151.395 164.804 151.395Z" fill="#E14B3B"/>
<path d="M174.521 139.164C174.521 144.507 170.146 148.833 164.802 148.833C159.458 148.833 155.083 144.507 155.083 139.164C155.083 133.821 159.459 129.444 164.802 129.444C170.144 129.444 174.521 133.821 174.521 139.164Z" fill="#A7BAB3"/>
<path d="M174.521 139.164C174.521 144.507 170.146 148.833 164.802 148.833C159.458 148.833 155.083 144.507 155.083 139.164H174.521Z" fill="#BEC5FF"/>
<path d="M164.805 142.143C161.809 142.143 159.372 139.148 159.372 139.148C159.372 139.148 161.809 136.153 164.805 136.153C167.801 136.153 170.239 139.148 170.239 139.148C170.239 139.148 167.8 142.143 164.805 142.143Z" fill="#E0E3FF"/>
<path d="M75.1956 151.395C81.9598 151.395 87.4433 145.912 87.4433 139.147C87.4433 132.383 81.9598 126.9 75.1956 126.9C68.4313 126.9 62.9478 132.383 62.9478 139.147C62.9478 145.912 68.4313 151.395 75.1956 151.395Z" fill="#E14B3B"/>
<path d="M75.1966 148.851C69.8466 148.851 65.4932 144.498 65.4932 139.148C65.4932 133.798 69.8466 129.445 75.1966 129.445C80.5465 129.445 84.8994 133.798 84.8994 139.148C84.8994 144.498 80.546 148.851 75.1966 148.851Z" fill="#A7BAB3"/>
<path d="M84.8995 139.164C84.8995 144.507 80.523 148.833 75.1798 148.833C69.8366 148.833 65.4607 144.507 65.4607 139.164H84.8995Z" fill="#BEC5FF"/>
<path d="M75.1828 142.143C72.1875 142.143 69.7495 139.148 69.7495 139.148C69.7495 139.148 72.1876 136.153 75.1828 136.153C78.1781 136.153 80.6161 139.148 80.6161 139.148C80.6161 139.148 78.1786 142.143 75.1828 142.143Z" fill="#E0E3FF"/>
<path d="M65.3442 169.864H52.4256C49.1755 169.864 46.5409 172.498 46.5409 175.748V234.782C46.5409 238.032 49.1755 240.667 52.4256 240.667H65.3442C68.5942 240.667 71.2288 238.032 71.2288 234.782V175.748C71.2288 172.498 68.5942 169.864 65.3442 169.864Z" fill="#42424C"/>
<path d="M187.574 169.864H174.656C171.406 169.864 168.771 172.498 168.771 175.748V234.782C168.771 238.032 171.406 240.667 174.656 240.667H187.574C190.824 240.667 193.459 238.032 193.459 234.782V175.748C193.459 172.498 190.824 169.864 187.574 169.864Z" fill="#42424C"/>
<path d="M108.933 106.177H130.989C142.198 106.177 151.299 115.277 151.299 126.487V193.954H88.6229V126.487C88.6229 115.277 97.7236 106.177 108.933 106.177Z" fill="#DE3D2C"/>
<path d="M151.299 142.501H88.6229V175.254H151.299V142.501Z" fill="#42424C"/>
<path d="M119.958 142.501H88.6229V175.254H119.958V142.501Z" fill="#34343F"/>
<path d="M97.7824 183.386H71.3204V206.642H97.7824V183.386Z" fill="#C93625"/>
<path d="M169.28 183.386H97.7822V206.642H169.28V183.386Z" fill="#E45B4C"/>
<path d="M142.818 183.386H97.7822V206.642H142.818V183.386Z" fill="#E14B3B"/>
<path d="M153.36 139.148H87.4435V145.855H153.36V139.148Z" fill="#E14B3B"/>
<path d="M153.36 150.065H87.4435V156.772H153.36V150.065Z" fill="#E14B3B"/>
<path d="M153.36 160.983H87.4435V167.69H153.36V160.983Z" fill="#E14B3B"/>
<path d="M153.36 171.9H87.4435V178.608H153.36V171.9Z" fill="#E14B3B"/>
<path d="M93.6955 99.0178H65.1603C62.9458 99.0178 60.8387 99.9712 59.3768 101.635L51.249 110.882H93.2187L93.6955 99.0178Z" fill="#E14B3B"/>
<path d="M148.751 132.605H143.662V125.368C143.662 117.464 136.009 113.913 134.034 113.913V108.824C139.028 108.824 148.751 114.663 148.751 125.368V132.605Z" fill="#E14B3B"/>
<path d="M131.795 108.337H125.446V113.426H131.795V108.337Z" fill="#E25344"/>
</g>
<defs>
<clipPath id="clip0_4056_13385">
<rect width="240" height="240" fill="white" transform="translate(0 0.666748)"/>
</clipPath>
</defs>
</svg>
