<svg width="241" height="241" viewBox="0 0 241 241" fill="none" xmlns="http://www.w3.org/2000/svg">
<g clip-path="url(#clip0_5910_4258)">
<g clip-path="url(#clip1_5910_4258)">
<path d="M193.009 198.393L196.111 164.27L148.247 159.919L144.75 198.393H193.009Z" fill="#A9572A"/>
<path d="M130.972 198.393L134.582 158.677L35.8538 149.702L31.4272 198.393H130.972Z" fill="#A9572A"/>
<path d="M172.702 100.65L139.625 97.643L139.85 95.1729C139.927 94.3225 139.3 93.5705 138.45 93.4932L116.074 91.4591C115.224 91.3818 114.472 92.0084 114.394 92.8588L114.17 95.3289L95.0098 93.5871C93.3694 93.4379 91.9188 94.6469 91.7696 96.2872L91.6448 97.6601C91.4956 99.3005 92.7045 100.751 94.345 100.9L172.038 107.963C173.678 108.112 175.129 106.903 175.278 105.263L175.403 103.89C175.552 102.25 174.343 100.799 172.702 100.65Z" fill="#F49600"/>
<path d="M205.966 106.414L66.4189 93.728L60.0818 163.438L199.629 176.124L205.966 106.414Z" fill="#844221"/>
<path d="M70.0708 95.0059L77.97 95.724C97.4657 97.4962 111.855 114.763 110.083 134.259C108.31 153.755 91.0434 168.144 71.5477 166.371L63.6485 165.653L70.0708 95.0059Z" fill="#7C391C"/>
<path d="M172.916 103.409L208.24 106.62C227.735 108.393 242.125 125.66 240.352 145.155C238.58 164.651 221.313 179.04 201.817 177.268L166.494 174.057L172.916 103.409Z" fill="#844221"/>
<path d="M75.2912 104.375L195.319 115.286L190.757 165.477L70.729 154.565L75.2912 104.375ZM66.4188 93.728L60.0818 163.438L199.629 176.124L205.966 106.414L66.4188 93.728Z" fill="#A9572A"/>
<g opacity="0.6">
<path d="M116.572 142.904L116.815 140.227L118.557 140.385L145.31 142.817L147.066 142.977L146.802 145.888C146.489 149.327 139.461 151.498 131.103 150.739C122.746 149.979 116.224 146.575 116.536 143.137C116.544 143.058 116.558 142.981 116.572 142.904Z" fill="#C88C36"/>
<path d="M147.053 143.121C147.366 139.683 140.844 136.28 132.487 135.52C124.129 134.76 117.1 136.932 116.788 140.37C116.475 143.809 122.997 147.212 131.355 147.972C139.712 148.732 146.741 146.56 147.053 143.121Z" fill="#E8AB42"/>
<path d="M143.971 142.841C144.22 140.103 139.026 137.393 132.371 136.788C125.716 136.183 120.12 137.912 119.871 140.65C119.622 143.388 124.815 146.098 131.47 146.703C138.125 147.308 143.722 145.579 143.971 142.841Z" fill="#D9A01B"/>
<path d="M132.265 137.956C126.09 137.394 120.83 138.843 119.903 141.242C119.866 141.045 119.852 140.848 119.87 140.65C120.119 137.912 125.716 136.183 132.371 136.788C139.026 137.393 144.22 140.103 143.971 142.841C143.953 143.039 143.904 143.231 143.832 143.417C143.353 140.89 138.44 138.517 132.265 137.956Z" fill="#C88C36"/>
<path d="M145.172 153.438L145.416 150.761L147.157 150.92L173.91 153.352L175.666 153.511L175.402 156.422C175.089 159.861 168.061 162.033 159.703 161.273C151.346 160.513 144.824 157.11 145.137 153.671C145.144 153.592 145.158 153.515 145.172 153.438Z" fill="#C88C36"/>
<path d="M175.654 153.655C175.966 150.217 169.445 146.813 161.087 146.053C152.73 145.294 145.701 147.465 145.389 150.904C145.076 154.342 151.598 157.746 159.955 158.506C168.313 159.265 175.341 157.094 175.654 153.655Z" fill="#E8AB42"/>
<path d="M172.571 153.375C172.82 150.637 167.627 147.927 160.971 147.322C154.316 146.717 148.72 148.446 148.471 151.184C148.222 153.922 153.415 156.632 160.07 157.237C166.725 157.842 172.322 156.113 172.571 153.375Z" fill="#D9A01B"/>
<path d="M160.866 148.489C154.691 147.928 149.43 149.377 148.504 151.776C148.467 151.579 148.453 151.382 148.471 151.184C148.72 148.446 154.317 146.717 160.972 147.322C167.627 147.927 172.82 150.637 172.571 153.375C172.553 153.573 172.504 153.764 172.432 153.951C171.954 151.424 167.04 149.051 160.866 148.489Z" fill="#C88C36"/>
<path d="M123.326 158.317L123.569 155.641L125.311 155.799L152.064 158.231L153.82 158.391L153.555 161.302C153.243 164.74 146.214 166.912 137.857 166.152C129.499 165.392 122.977 161.989 123.29 158.551C123.297 158.472 123.312 158.395 123.326 158.317Z" fill="#C88C36"/>
<path d="M153.807 158.535C154.119 155.097 147.598 151.693 139.24 150.933C130.883 150.174 123.854 152.345 123.542 155.784C123.229 159.222 129.751 162.626 138.108 163.385C146.466 164.145 153.494 161.974 153.807 158.535Z" fill="#E8AB42"/>
<path d="M150.724 158.255C150.973 155.517 145.78 152.807 139.125 152.202C132.47 151.597 126.873 153.326 126.624 156.064C126.375 158.802 131.569 161.512 138.224 162.117C144.879 162.722 150.476 160.993 150.724 158.255Z" fill="#D9A01B"/>
<path d="M139.019 153.369C132.844 152.808 127.583 154.257 126.657 156.656C126.62 156.459 126.606 156.262 126.624 156.064C126.873 153.326 132.47 151.597 139.125 152.202C145.78 152.807 150.973 155.517 150.724 158.255C150.706 158.452 150.657 158.644 150.585 158.831C150.107 156.304 145.193 153.93 139.019 153.369Z" fill="#C88C36"/>
<path d="M93.0707 155.451L93.314 152.774L95.0557 152.933L121.809 155.365L123.565 155.524L123.3 158.436C122.988 161.874 115.959 164.046 107.602 163.286C99.2441 162.526 92.7223 159.123 93.035 155.684C93.0421 155.606 93.0566 155.528 93.0707 155.451Z" fill="#C88C36"/>
<path d="M123.552 155.668C123.865 152.23 117.343 148.826 108.985 148.067C100.628 147.307 93.5993 149.478 93.2867 152.917C92.9741 156.356 99.4958 159.759 107.853 160.519C116.211 161.278 123.239 159.107 123.552 155.668Z" fill="#E8AB42"/>
<path d="M120.469 155.388C120.718 152.65 115.525 149.94 108.87 149.335C102.215 148.73 96.6181 150.459 96.3691 153.197C96.1202 155.935 101.313 158.645 107.969 159.25C114.624 159.855 120.22 158.126 120.469 155.388Z" fill="#D9A01B"/>
<path d="M108.764 150.502C102.589 149.941 97.3285 151.39 96.402 153.789C96.3648 153.592 96.3512 153.395 96.3692 153.197C96.6182 150.459 102.215 148.73 108.87 149.335C115.525 149.94 120.718 152.65 120.469 155.388C120.451 155.586 120.402 155.777 120.33 155.964C119.852 153.437 114.939 151.064 108.764 150.502Z" fill="#C88C36"/>
<path d="M104.969 149.787L105.213 147.11L106.954 147.269L133.707 149.701L135.464 149.86L135.199 152.772C134.886 156.21 127.858 158.382 119.5 157.622C111.143 156.862 104.621 153.459 104.934 150.02C104.941 149.941 104.955 149.864 104.969 149.787Z" fill="#C88C36"/>
<path d="M135.451 150.004C135.763 146.566 129.242 143.162 120.884 142.403C112.526 141.643 105.498 143.814 105.185 147.253C104.873 150.692 111.394 154.095 119.752 154.855C128.11 155.614 135.138 153.443 135.451 150.004Z" fill="#E8AB42"/>
<path d="M132.368 149.724C132.617 146.986 127.424 144.276 120.769 143.671C114.114 143.066 108.517 144.795 108.268 147.533C108.019 150.271 113.212 152.981 119.867 153.586C126.522 154.191 132.119 152.462 132.368 149.724Z" fill="#D9A01B"/>
<path d="M120.662 144.838C114.488 144.277 109.227 145.725 108.3 148.124C108.263 147.928 108.25 147.73 108.268 147.533C108.517 144.795 114.113 143.065 120.768 143.67C127.424 144.275 132.617 146.986 132.368 149.724C132.35 149.921 132.301 150.113 132.229 150.299C131.75 147.773 126.837 145.399 120.662 144.838Z" fill="#C88C36"/>
<path d="M133.359 155.968L133.602 153.291L135.344 153.449L162.097 155.881L163.853 156.041L163.589 158.952C163.276 162.391 156.248 164.562 147.89 163.803C139.532 163.043 133.011 159.639 133.323 156.201C133.33 156.122 133.345 156.045 133.359 155.968Z" fill="#C88C36"/>
<path d="M163.84 156.185C164.153 152.747 157.631 149.343 149.273 148.583C140.916 147.824 133.887 149.995 133.575 153.434C133.262 156.872 139.784 160.276 148.141 161.035C156.499 161.795 163.527 159.624 163.84 156.185Z" fill="#E8AB42"/>
<path d="M160.758 155.905C161.007 153.166 155.813 150.456 149.158 149.851C142.503 149.246 136.906 150.976 136.657 153.714C136.409 156.452 141.602 159.162 148.257 159.767C154.912 160.372 160.509 158.643 160.758 155.905Z" fill="#D9A01B"/>
<path d="M149.052 151.019C142.877 150.458 137.617 151.906 136.69 154.305C136.653 154.109 136.639 153.912 136.657 153.714C136.906 150.976 142.503 149.247 149.158 149.852C155.813 150.457 161.006 153.167 160.758 155.905C160.74 156.102 160.691 156.294 160.618 156.481C160.14 153.954 155.227 151.58 149.052 151.019Z" fill="#C88C36"/>
<path d="M128.03 145.486L128.273 142.809L130.015 142.967L156.768 145.399L158.524 145.559L158.259 148.47C157.947 151.909 150.918 154.08 142.561 153.321C134.203 152.561 127.682 149.157 127.994 145.719C128.001 145.64 128.016 145.563 128.03 145.486Z" fill="#FEA600"/>
<path d="M158.511 145.703C158.824 142.265 152.302 138.861 143.944 138.101C135.587 137.342 128.558 139.513 128.246 142.952C127.933 146.39 134.455 149.794 142.812 150.553C151.17 151.313 158.198 149.142 158.511 145.703Z" fill="#FFD300"/>
<path d="M155.429 145.423C155.677 142.685 150.484 139.974 143.829 139.369C137.174 138.764 131.577 140.494 131.328 143.232C131.079 145.97 136.273 148.68 142.928 149.285C149.583 149.89 155.18 148.161 155.429 145.423Z" fill="#F7B000"/>
<path d="M143.723 140.537C137.548 139.976 132.288 141.425 131.361 143.824C131.324 143.627 131.31 143.43 131.328 143.232C131.577 140.494 137.174 138.765 143.829 139.37C150.484 139.975 155.678 142.685 155.429 145.423C155.411 145.62 155.362 145.812 155.29 145.999C154.811 143.472 149.898 141.098 143.723 140.537Z" fill="#C88C36"/>
<path d="M144.056 137.027L145.299 134.644L146.85 135.453L170.666 147.881L172.229 148.696L170.877 151.288C169.28 154.349 161.953 153.683 154.513 149.801C147.073 145.919 142.337 140.29 143.934 137.229C143.971 137.159 144.014 137.093 144.056 137.027Z" fill="#C88C36"/>
<path d="M145.22 134.766C143.622 137.827 148.359 143.456 155.799 147.338C163.239 151.22 170.565 151.886 172.162 148.825C173.76 145.764 169.023 140.135 161.583 136.253C154.143 132.371 146.817 131.705 145.22 134.766Z" fill="#E8AB42"/>
<path d="M169.418 147.393C170.69 144.956 166.919 140.473 160.994 137.382C155.07 134.29 149.236 133.76 147.964 136.198C146.692 138.635 150.464 143.117 156.388 146.209C162.312 149.3 168.146 149.831 169.418 147.393Z" fill="#D9A01B"/>
<path d="M160.452 138.421C154.955 135.552 149.539 134.891 147.769 136.757C147.81 136.561 147.872 136.373 147.964 136.197C149.236 133.76 155.07 134.29 160.994 137.382C166.919 140.473 170.69 144.955 169.418 147.393C169.326 147.569 169.208 147.727 169.071 147.872C169.589 145.354 165.949 141.289 160.452 138.421Z" fill="#C88C36"/>
</g>
<path d="M172.291 144.913L173.396 151.471L165.282 155.323L163.971 145.337C163.979 145.331 163.987 145.325 163.995 145.319C164.011 145.308 164.027 145.298 164.043 145.288C164.056 145.279 164.07 145.272 164.083 145.264C164.1 145.254 164.117 145.244 164.134 145.235C164.147 145.228 164.16 145.222 164.174 145.215C164.192 145.207 164.21 145.198 164.228 145.19C164.241 145.184 164.255 145.179 164.269 145.174C164.288 145.166 164.306 145.159 164.325 145.152C164.339 145.147 164.354 145.143 164.368 145.139C164.387 145.133 164.406 145.127 164.425 145.122C164.441 145.118 164.457 145.114 164.473 145.111C164.491 145.107 164.509 145.102 164.528 145.099C164.547 145.095 164.568 145.093 164.588 145.09C164.603 145.088 164.617 145.086 164.632 145.084C164.667 145.081 164.703 145.078 164.739 145.077L172.119 144.892C172.177 144.891 172.235 144.899 172.291 144.913Z" fill="#4CD3F7"/>
<path d="M174.82 169.067L181.383 162.98L187.459 166.858L183.998 173.824C183.983 173.853 183.967 173.881 183.951 173.909L174.82 169.067Z" fill="#57D9F7"/>
<path d="M174.82 169.067L165.282 155.323L173.396 151.471L181.383 162.98L174.82 169.067Z" fill="#34C0F0"/>
<path d="M186.076 159.219L187.471 166.871L181.383 162.979L173.396 151.47L172.271 144.916L178.458 148.262C178.545 148.31 178.622 148.378 178.679 148.46L185.973 158.97C186.024 159.045 186.06 159.131 186.076 159.219Z" fill="#46CFF5"/>
<path d="M156.826 171.538L174.82 169.067L183.977 173.892C183.73 174.038 183.437 174.105 183.133 174.074L157.669 171.779C157.373 171.748 157.089 171.665 156.826 171.538Z" fill="#1EB6E0"/>
<path d="M156.572 171.225C156.496 171.115 156.429 171.001 156.371 170.883L165.271 155.308L174.827 169.077L156.826 171.537C156.735 171.44 156.65 171.336 156.572 171.225Z" fill="#28A8CC"/>
<path d="M163.971 145.336L165.282 155.323L156.371 170.883C156.338 170.558 156.368 170.227 156.463 169.907L163.971 145.336Z" fill="#57D9F7"/>
<g opacity="0.7">
<path d="M172.241 147.07C172.049 149.172 171.955 150.881 172.03 150.888C172.104 150.894 172.32 149.196 172.511 147.095C172.702 144.993 172.796 143.284 172.722 143.277C172.647 143.27 172.432 144.968 172.241 147.07Z" fill="white"/>
<path d="M172.388 146.947C170.286 146.756 168.577 146.662 168.57 146.736C168.564 146.811 170.262 147.026 172.363 147.218C174.465 147.409 176.174 147.503 176.181 147.428C176.188 147.354 174.49 147.138 172.388 146.947Z" fill="white"/>
<path d="M172.319 147.014C171.254 147.901 170.417 148.65 170.448 148.688C170.48 148.726 171.368 148.038 172.433 147.151C173.497 146.264 174.334 145.514 174.303 145.476C174.271 145.438 173.383 146.127 172.319 147.014Z" fill="white"/>
<path d="M172.444 147.025C171.557 145.961 170.807 145.124 170.77 145.155C170.732 145.187 171.42 146.075 172.307 147.139C173.194 148.204 173.944 149.041 173.982 149.01C174.02 148.978 173.331 148.09 172.444 147.025Z" fill="white"/>
</g>
<path opacity="0.4" d="M159.518 162.132C159.547 162.036 159.577 161.939 159.606 161.843C159.688 161.575 159.769 161.307 159.851 161.039C159.975 160.632 160.1 160.225 160.224 159.817C160.381 159.302 160.538 158.787 160.695 158.271C160.876 157.68 161.056 157.088 161.237 156.497C161.43 155.861 161.624 155.225 161.818 154.589C162.016 153.94 163.603 147.326 163.72 146.944C163.792 146.707 163.864 146.47 163.936 146.234C163.948 146.195 163.958 146.155 163.972 146.117C164.086 145.811 165.172 145.226 165.441 145.217C165.582 145.212 165.722 145.21 165.863 145.207C166.387 145.193 166.912 145.18 167.437 145.167C168.111 145.15 168.786 145.133 169.461 145.116C170.076 145.101 170.691 145.086 171.307 145.07C171.653 145.062 171.999 145.053 172.346 145.044C172.366 145.044 172.386 145.043 172.407 145.043C172.462 145.041 172.517 145.049 172.57 145.063L172.573 145.078L178.468 148.266C178.552 148.311 178.625 148.376 178.679 148.455L185.654 158.506C185.704 158.577 185.738 158.66 185.754 158.744L185.819 159.103L178.932 149.18C178.878 149.101 178.805 149.036 178.722 148.991L172.826 145.802L172.823 145.788C172.77 145.773 172.715 145.766 172.66 145.767C172.443 145.773 172.226 145.778 172.009 145.784C171.482 145.797 170.954 145.81 170.427 145.823C169.776 145.84 169.125 145.856 168.474 145.872C167.885 145.887 167.295 145.902 166.706 145.917C166.365 145.925 166.023 145.934 165.682 145.942C165.437 145.949 164.598 146.561 164.38 146.68C164.195 146.781 164.147 147.056 164.08 147.247C163.99 147.503 162.63 152.535 162.43 153.104L161.79 154.928C161.569 155.56 161.347 156.192 161.126 156.823C160.902 157.463 160.677 158.102 160.453 158.742C160.231 159.373 160.01 160.005 159.788 160.637C159.575 161.245 159.362 161.854 159.148 162.462C158.949 163.031 158.749 163.601 158.549 164.17C158.369 164.685 158.188 165.199 158.008 165.714C157.852 166.158 157.696 166.603 157.54 167.047C157.415 167.405 157.289 167.764 157.163 168.122C157.073 168.379 156.983 168.636 156.893 168.892C156.844 169.032 156.795 169.171 156.746 169.311L156.724 169.374L159.518 162.132Z" fill="white"/>
<path d="M92.5533 119.64L101.46 121.504C101.503 121.513 101.546 121.524 101.588 121.536C101.606 121.541 101.623 121.548 101.64 121.554C101.664 121.561 101.688 121.569 101.711 121.578C101.733 121.586 101.754 121.595 101.775 121.604C101.793 121.612 101.812 121.619 101.83 121.628C101.852 121.638 101.874 121.65 101.896 121.661C101.912 121.669 101.929 121.678 101.945 121.687C101.966 121.699 101.987 121.712 102.008 121.725C102.024 121.735 102.039 121.744 102.054 121.754C102.075 121.768 102.094 121.782 102.114 121.797C102.129 121.808 102.144 121.819 102.159 121.83C102.178 121.845 102.196 121.86 102.214 121.876C102.228 121.888 102.243 121.901 102.257 121.914C102.274 121.93 102.291 121.946 102.308 121.963C102.316 121.971 102.325 121.98 102.333 121.989L98.5243 133.805L89.5435 127.331L92.3412 119.627C92.4122 119.621 92.4836 119.625 92.5533 119.64Z" fill="#2BB09C"/>
<path d="M71.7602 152.189C71.7465 152.151 71.7337 152.113 71.7225 152.074L69.0747 142.86L77.3022 139.509L83.9067 148.348L71.7602 152.189Z" fill="#148271"/>
<path d="M77.302 139.509L89.5435 127.331L98.5243 133.805L83.9065 148.348L77.302 139.509Z" fill="#199E8C"/>
<path d="M72.6295 133.628L83.8085 122.507C83.8957 122.421 84.0032 122.355 84.1194 122.317L92.3649 119.635L89.5436 127.331L77.3022 139.509L69.0576 142.874L72.4485 133.908C72.4877 133.804 72.5502 133.707 72.6295 133.628Z" fill="#41C2AB"/>
<path d="M104.096 155.447L72.7154 152.57C72.34 152.541 71.9999 152.393 71.7327 152.162L83.9063 148.348L105.172 155.342C104.825 155.438 104.462 155.475 104.096 155.447Z" fill="#119783"/>
<path d="M105.172 155.342L83.8958 148.358L98.5406 133.789L105.869 154.65C105.772 154.78 105.666 154.904 105.549 155.02C105.431 155.138 105.304 155.245 105.172 155.342Z" fill="#148F7E"/>
<path d="M105.975 153.446C106.019 153.856 105.981 154.264 105.869 154.65L98.5244 133.805L102.334 121.989L105.975 153.446Z" fill="#41C2AB"/>
<g opacity="0.7">
<path d="M91.9227 122.253C91.6872 124.843 91.4218 126.936 91.3298 126.928C91.2379 126.92 91.3542 124.813 91.5897 122.223C91.8252 119.632 92.0907 117.539 92.1826 117.547C92.2745 117.556 92.1582 119.662 91.9227 122.253Z" fill="white"/>
<path d="M96.4466 122.664C96.455 122.572 94.3618 122.307 91.7714 122.071C89.181 121.836 87.0743 121.719 87.0659 121.811C87.0576 121.903 89.1507 122.169 91.7411 122.404C94.3315 122.64 96.4382 122.756 96.4466 122.664Z" fill="white"/>
<path d="M91.8406 122.168C92.9339 123.48 93.7824 124.575 93.7359 124.613C93.6893 124.652 92.7653 123.62 91.6719 122.308C90.5786 120.996 89.7301 119.901 89.7767 119.862C89.8233 119.824 90.7473 120.856 91.8406 122.168Z" fill="white"/>
<path d="M91.6861 122.153C92.998 121.06 94.093 120.212 94.1319 120.258C94.1707 120.305 93.1386 121.229 91.8266 122.322C90.5147 123.416 89.4197 124.264 89.3809 124.217C89.3421 124.171 90.3741 123.247 91.6861 122.153Z" fill="white"/>
</g>
<path opacity="0.4" d="M103.999 143.341C103.985 143.218 103.971 143.094 103.956 142.971C103.917 142.628 103.878 142.285 103.838 141.943C103.778 141.421 103.718 140.899 103.658 140.378C103.582 139.718 103.506 139.059 103.43 138.399C103.343 137.642 103.255 136.885 103.168 136.128C103.074 135.313 102.98 134.499 102.887 133.685C102.791 132.855 102.337 124.484 102.281 123.994C102.246 123.691 102.211 123.388 102.176 123.085C102.17 123.035 102.168 122.985 102.159 122.936C102.088 122.539 100.902 121.589 100.577 121.518C100.408 121.481 100.238 121.447 100.069 121.412C99.4356 121.279 98.8025 121.147 98.1695 121.014C97.3553 120.844 96.5411 120.673 95.7269 120.503C94.9844 120.347 94.2419 120.192 93.4994 120.036C93.0813 119.949 92.6632 119.861 92.2452 119.774C92.2207 119.769 92.1963 119.764 92.1718 119.758C92.1052 119.745 92.0369 119.741 91.9689 119.747L91.9626 119.764L84.1063 122.319C83.9952 122.355 83.8923 122.418 83.809 122.501L73.1186 133.136C73.0428 133.212 72.983 133.304 72.9454 133.403L72.7864 133.824L83.3411 123.324C83.4244 123.241 83.5273 123.178 83.6384 123.142L91.4948 120.586L91.501 120.569C91.569 120.564 91.6373 120.567 91.7039 120.581L92.4897 120.746C93.1258 120.879 93.7619 121.012 94.398 121.145C95.1838 121.31 95.9696 121.474 96.7554 121.639L98.8887 122.085C99.3007 122.171 99.7128 122.258 100.125 122.344C100.421 122.406 101.302 123.334 101.539 123.527C101.741 123.691 101.738 124.035 101.777 124.282C101.829 124.612 102.36 131.015 102.475 131.749C102.599 132.533 102.722 133.318 102.845 134.103C102.974 134.918 103.102 135.733 103.23 136.548C103.36 137.373 103.489 138.198 103.619 139.023C103.747 139.838 103.876 140.653 104.004 141.469C104.127 142.254 104.251 143.039 104.374 143.823C104.489 144.558 104.605 145.293 104.72 146.027C104.825 146.691 104.929 147.355 105.034 148.019C105.124 148.593 105.214 149.166 105.304 149.739C105.377 150.202 105.45 150.664 105.522 151.127C105.574 151.458 105.626 151.789 105.679 152.121C105.707 152.301 105.735 152.481 105.764 152.661C105.768 152.688 105.772 152.715 105.776 152.743L103.999 143.341Z" fill="white"/>
<path d="M75.8265 155.468L75.7692 153.143L74.2559 153.18L51.0131 153.754L49.4873 153.791L49.5497 156.32C49.6234 159.308 55.5694 161.584 62.8304 161.405C70.0914 161.226 75.9177 158.659 75.844 155.672C75.8423 155.603 75.8342 155.536 75.8265 155.468Z" fill="#C88C36"/>
<path d="M62.7709 159.001C70.0319 158.822 75.8583 156.255 75.7846 153.268C75.7109 150.28 69.7649 148.004 62.5039 148.183C55.2429 148.362 49.4165 150.929 49.4902 153.916C49.5639 156.904 55.5099 159.18 62.7709 159.001Z" fill="#E8AB42"/>
<path d="M62.7437 157.899C68.5256 157.756 73.1651 155.712 73.1064 153.333C73.0477 150.955 68.313 149.142 62.5311 149.285C56.7492 149.427 52.1096 151.471 52.1683 153.85C52.227 156.229 56.9618 158.042 62.7437 157.899Z" fill="#D9A01B"/>
<path d="M62.5561 150.299C67.9207 150.167 72.3811 151.718 73.0443 153.843C73.0877 153.675 73.1107 153.505 73.1064 153.334C73.0477 150.955 68.3129 149.142 62.5311 149.285C56.7492 149.427 52.1096 151.472 52.1683 153.85C52.1725 154.022 52.2039 154.19 52.2554 154.356C52.8129 152.201 57.1915 150.431 62.5561 150.299Z" fill="#C88C36"/>
<path d="M131.738 147.763L131.681 145.438L130.167 145.475L106.924 146.048L105.399 146.086L105.461 148.615C105.535 151.603 111.481 153.879 118.742 153.7C126.003 153.521 131.829 150.954 131.755 147.966C131.754 147.898 131.746 147.831 131.738 147.763Z" fill="#C88C36"/>
<path d="M118.683 151.296C125.944 151.117 131.77 148.55 131.696 145.562C131.623 142.575 125.677 140.299 118.416 140.478C111.155 140.657 105.328 143.224 105.402 146.211C105.476 149.199 111.421 151.475 118.683 151.296Z" fill="#E8AB42"/>
<path d="M118.655 150.194C124.437 150.051 129.077 148.007 129.018 145.628C128.959 143.25 124.225 141.437 118.443 141.58C112.661 141.722 108.021 143.766 108.08 146.145C108.139 148.524 112.873 150.337 118.655 150.194Z" fill="#D9A01B"/>
<path d="M118.468 142.594C123.832 142.462 128.293 144.013 128.956 146.138C128.999 145.97 129.022 145.8 129.018 145.629C128.959 143.25 124.225 141.437 118.443 141.58C112.661 141.722 108.021 143.766 108.08 146.145C108.084 146.317 108.115 146.485 108.167 146.651C108.725 144.496 113.103 142.726 118.468 142.594Z" fill="#C88C36"/>
<path d="M120.745 157.389L120.687 155.063L119.174 155.1L95.9313 155.674L94.4055 155.712L94.4679 158.241C94.5417 161.228 100.488 163.505 107.749 163.326C115.01 163.146 120.836 160.579 120.762 157.592C120.761 157.524 120.753 157.456 120.745 157.389Z" fill="#C88C36"/>
<path d="M107.689 160.921C114.95 160.742 120.777 158.175 120.703 155.188C120.629 152.201 114.683 149.924 107.422 150.103C100.161 150.282 94.3347 152.849 94.4084 155.837C94.4821 158.824 100.428 161.101 107.689 160.921Z" fill="#E8AB42"/>
<path d="M107.662 159.82C113.444 159.677 118.083 157.633 118.025 155.254C117.966 152.875 113.231 151.062 107.449 151.205C101.667 151.348 97.0278 153.392 97.0865 155.771C97.1452 158.149 101.88 159.962 107.662 159.82Z" fill="#D9A01B"/>
<path d="M107.474 152.219C112.839 152.087 117.299 153.638 117.963 155.763C118.006 155.595 118.029 155.426 118.025 155.254C117.966 152.875 113.231 151.062 107.449 151.205C101.667 151.348 97.0278 153.392 97.0865 155.771C97.0907 155.943 97.1221 156.111 97.1737 156.276C97.7312 154.121 102.11 152.352 107.474 152.219Z" fill="#C88C36"/>
<path d="M99.4724 156.087L99.4151 153.761L97.9019 153.799L74.6591 154.372L73.1333 154.41L73.1957 156.939C73.2694 159.926 79.2154 162.203 86.4764 162.024C93.7374 161.845 99.5637 159.278 99.49 156.29C99.4883 156.222 99.4802 156.154 99.4724 156.087Z" fill="#C88C36"/>
<path d="M86.4168 159.62C93.6778 159.441 99.5042 156.874 99.4304 153.886C99.3567 150.899 93.4108 148.622 86.1498 148.802C78.8889 148.981 73.0625 151.548 73.1362 154.535C73.2099 157.522 79.1558 159.799 86.4168 159.62Z" fill="#E8AB42"/>
<path d="M86.3897 158.518C92.1716 158.376 96.8111 156.331 96.7524 153.953C96.6937 151.574 91.959 149.761 86.1771 149.904C80.3952 150.046 75.7556 152.091 75.8143 154.469C75.873 156.848 80.6078 158.661 86.3897 158.518Z" fill="#D9A01B"/>
<path d="M86.2022 150.918C91.5669 150.785 96.0272 152.337 96.6904 154.461C96.7337 154.294 96.7568 154.124 96.7525 153.952C96.6938 151.573 91.959 149.761 86.177 149.903C80.3952 150.046 75.7555 152.09 75.8143 154.469C75.8185 154.641 75.8498 154.809 75.9015 154.974C76.459 152.82 80.8375 151.05 86.2022 150.918Z" fill="#C88C36"/>
<path d="M112.451 148.934L112.393 146.608L110.88 146.646L87.6373 147.219L86.1116 147.257L86.174 149.786C86.2477 152.774 92.1937 155.05 99.4546 154.871C106.716 154.692 112.542 152.125 112.468 149.137C112.467 149.069 112.459 149.001 112.451 148.934Z" fill="#FEA600"/>
<path d="M99.3953 152.467C106.656 152.288 112.483 149.721 112.409 146.733C112.335 143.746 106.389 141.469 99.1283 141.649C91.8674 141.828 86.041 144.395 86.1147 147.382C86.1884 150.37 92.1344 152.646 99.3953 152.467Z" fill="#FFD300"/>
<path d="M99.3682 151.365C105.15 151.223 109.79 149.179 109.731 146.8C109.672 144.421 104.937 142.608 99.1556 142.751C93.3737 142.894 88.7341 144.938 88.7928 147.317C88.8515 149.695 93.5863 151.508 99.3682 151.365Z" fill="#F7B000"/>
<path d="M99.1808 143.765C104.545 143.633 109.006 145.184 109.669 147.309C109.712 147.141 109.735 146.972 109.731 146.8C109.672 144.421 104.938 142.608 99.1558 142.751C93.3739 142.894 88.7343 144.938 88.793 147.317C88.7972 147.488 88.8286 147.657 88.8802 147.822C89.4377 145.667 93.8162 143.898 99.1808 143.765Z" fill="#E8A000"/>
<path d="M84.8172 152.142L84.7599 149.817L83.2466 149.854L60.0038 150.428L58.478 150.466L58.5404 152.995C58.6142 155.982 64.5601 158.259 71.8211 158.079C79.0821 157.9 84.9085 155.333 84.8348 152.346C84.8331 152.278 84.825 152.21 84.8172 152.142Z" fill="#FEA600"/>
<path d="M71.7619 155.675C79.0229 155.496 84.8493 152.929 84.7756 149.941C84.7019 146.954 78.7559 144.677 71.4949 144.857C64.2339 145.036 58.4074 147.603 58.4812 150.59C58.5549 153.578 64.5009 155.854 71.7619 155.675Z" fill="#FFD300"/>
<path d="M71.7346 154.573C77.5166 154.431 82.1561 152.387 82.0974 150.008C82.0387 147.629 77.3039 145.816 71.522 145.959C65.7401 146.102 61.1006 148.146 61.1593 150.525C61.218 152.903 65.9527 154.716 71.7346 154.573Z" fill="#F7B000"/>
<path d="M71.5468 146.973C76.9114 146.841 81.3718 148.392 82.035 150.517C82.0784 150.349 82.1014 150.18 82.0972 150.008C82.0384 147.629 77.3036 145.816 71.5218 145.959C65.7398 146.102 61.1003 148.146 61.159 150.525C61.1632 150.696 61.1946 150.865 61.2462 151.03C61.8038 148.875 66.1823 147.106 71.5468 146.973Z" fill="#E8A000"/>
<path d="M130.902 158.343L39.5337 150.037L38.4086 162.413L129.777 170.719L130.902 158.343Z" fill="#FFBC01"/>
<path d="M192.314 163.925L152.044 160.264L150.919 172.64L191.189 176.301L192.314 163.925Z" fill="#FFBC01"/>
<path d="M125.819 177.598L38.7637 169.685L38.4976 172.612L125.553 180.526L125.819 177.598Z" fill="#944A21"/>
<path d="M124.288 194.439L37.2329 186.525L36.9668 189.452L124.022 197.366L124.288 194.439Z" fill="#944A21"/>
<path d="M191.39 183.56L149.413 179.744L149.146 182.671L191.124 186.487L191.39 183.56Z" fill="#944A21"/>
<path d="M136.643 198.393L140.51 155.86L128.392 154.758C126.23 154.562 124.318 156.155 124.121 158.317L120.478 198.393H136.643Z" fill="#FFD300"/>
<path d="M41.9204 198.394L46.2076 151.234C46.4039 149.072 44.8108 147.16 42.6492 146.964L34.4453 146.218C32.2832 146.022 30.3715 147.615 30.1749 149.777L25.7554 198.394L41.9204 198.394Z" fill="#FFD300"/>
<path d="M63.2781 152.195L91.9684 154.803L90.1991 174.265C89.809 178.557 86.0084 181.724 81.7172 181.334L68.5771 180.139C64.2859 179.749 61.1188 175.948 61.5089 171.657L63.2781 152.195Z" fill="#FFBC01"/>
<path d="M37.81 157.29C39.2399 157.29 40.399 156.131 40.399 154.701C40.399 153.271 39.2399 152.112 37.81 152.112C36.3801 152.112 35.2209 153.271 35.2209 154.701C35.2209 156.131 36.3801 157.29 37.81 157.29Z" fill="#FEA600"/>
<path d="M202.203 198.394L205.176 165.685C205.373 163.523 203.78 161.612 201.617 161.415L193.414 160.669C191.252 160.473 189.34 162.066 189.143 164.228L186.038 198.394H202.203Z" fill="#FFB200"/>
<path d="M131.756 165.83C133.186 165.83 134.345 164.671 134.345 163.241C134.345 161.812 133.186 160.652 131.756 160.652C130.326 160.652 129.167 161.812 129.167 163.241C129.167 164.671 130.326 165.83 131.756 165.83Z" fill="#FEA600"/>
<path d="M196.778 171.741C198.208 171.741 199.367 170.582 199.367 169.152C199.367 167.722 198.208 166.563 196.778 166.563C195.348 166.563 194.189 167.722 194.189 169.152C194.189 170.582 195.348 171.741 196.778 171.741Z" fill="#F49600"/>
<path d="M79.6708 168.634C81.0179 167.716 81.9383 166.196 82.0125 164.418C82.1264 161.692 80.0935 159.259 77.3899 158.886C74.3357 158.465 71.5821 160.68 71.3062 163.716C71.1547 165.382 71.7832 166.937 72.8892 168.025C73.2753 168.405 73.3389 169.003 73.0268 169.446L71.4167 171.729C70.6358 172.836 71.3464 174.373 72.6958 174.496L78.6838 175.04C80.0332 175.163 81.0093 173.779 80.4409 172.549L79.2696 170.015C79.0404 169.519 79.2193 168.941 79.6708 168.634Z" fill="#F49600"/>
<path d="M167.792 198.394L147.882 196.583L147.717 198.394H167.792Z" fill="#944A21"/>
<path d="M151.721 198.393L155.109 161.134C155.305 158.972 153.712 157.06 151.55 156.863L139.432 155.762L135.556 198.393H151.721Z" fill="#FFB200"/>
<path d="M146.711 167.19C148.141 167.19 149.3 166.031 149.3 164.601C149.3 163.171 148.141 162.012 146.711 162.012C145.281 162.012 144.122 163.171 144.122 164.601C144.122 166.031 145.281 167.19 146.711 167.19Z" fill="#F49600"/>
<path d="M81.8467 200.476C86.0361 195.407 91.9615 199.601 97.4007 198.083C103.436 196.401 105.857 189.84 113.314 190.068C116.555 190.17 119.74 191.416 122.812 192.318C126.833 193.496 130.209 192.364 133.977 190.914C140.058 188.575 145.902 185.004 152.493 184.283C158.713 183.605 163.879 185.738 168.354 189.729C176.028 184.111 184.275 182.383 193.581 185.777C203.814 189.51 212.508 196.468 223.757 197.104C225.158 197.104 225.83 198.224 225.787 199.31C225.789 199.727 225.684 200.134 225.474 200.476L81.8467 200.476Z" fill="#FFF5EE"/>
<path d="M99.9963 200.476C97.1005 196.972 93.0047 199.871 89.245 198.822C85.0732 197.659 83.3999 193.124 78.245 193.282C76.0053 193.352 73.8033 194.214 71.68 194.837C68.9007 195.651 66.567 194.869 63.9628 193.867C59.759 192.25 55.7195 189.781 51.1638 189.283C46.8644 188.814 43.2933 190.289 40.2006 193.047C34.8958 189.164 29.1956 187.969 22.7629 190.316C15.6894 192.896 9.67984 197.706 1.90413 198.145C0.936272 198.145 0.471203 198.919 0.501379 199.67C0.499664 199.958 0.572618 200.24 0.717497 200.476L99.9963 200.476Z" fill="#FFE4D2"/>
</g>
</g>
<defs>
<clipPath id="clip0_5910_4258">
<rect width="240" height="240" fill="white" transform="translate(0.5 0.476074)"/>
</clipPath>
<clipPath id="clip1_5910_4258">
<rect width="240" height="109.024" fill="white" transform="translate(0.5 91.4521)"/>
</clipPath>
</defs>
</svg>
