<svg width="240" height="241" viewBox="0 0 240 241" fill="none" xmlns="http://www.w3.org/2000/svg">
<g clip-path="url(#clip0_4056_13382)">
<path d="M119.778 42.5752C150.393 42.5752 175.21 37.82 175.21 31.9543C175.21 26.0885 150.393 21.3334 119.778 21.3334C89.164 21.3334 64.3462 26.0885 64.3462 31.9543C64.3462 37.82 89.164 42.5752 119.778 42.5752Z" fill="#006299"/>
<path opacity="0.3" d="M81.9331 24.1973C71.1162 26.1356 64.3462 28.8927 64.3462 31.9542C64.3462 35.0368 71.2068 37.8113 82.1541 39.7514L119.778 32.0761L157.403 39.7514C168.35 37.8112 175.211 35.0367 175.211 31.9542C175.211 28.8927 168.441 26.1355 157.624 24.1973L119.778 31.9177L81.9331 24.1973Z" fill="#999999"/>
<path d="M162.454 155.641H177.402V116.21H162.454V155.641Z" fill="#155A89"/>
<path d="M166.761 178.416H173.094C178.315 178.416 182.546 174.184 182.546 168.964V150.252C182.546 145.032 178.315 140.8 173.094 140.8H166.761C161.541 140.8 157.309 145.032 157.309 150.252V168.964C157.309 174.184 161.541 178.416 166.761 178.416Z" fill="#2771AD"/>
<path d="M77.1027 116.21H62.1545V155.641H77.1027V116.21Z" fill="#155A89"/>
<path d="M72.7952 140.8H66.4619C61.2418 140.8 57.01 145.032 57.01 150.252V168.964C57.01 174.184 61.2418 178.416 66.4619 178.416H72.7952C78.0154 178.416 82.2471 174.184 82.2471 168.964V150.252C82.2471 145.032 78.0154 140.8 72.7952 140.8Z" fill="#2771AD"/>
<path d="M118.835 31.9968H120.722C123.449 31.9968 125.664 34.2112 125.664 36.9387V53.1077H113.893V36.9387C113.893 34.2112 116.107 31.9968 118.835 31.9968Z" fill="#0E4983"/>
<path d="M71.4257 82.8762H65.7961C62.581 82.8762 59.9746 85.4826 59.9746 88.6977V109.041C59.9746 112.256 62.581 114.862 65.7961 114.862H71.4257C74.6408 114.862 77.2472 112.256 77.2472 109.041V88.6977C77.2472 85.4826 74.6408 82.8762 71.4257 82.8762Z" fill="#D2EEFF" stroke="white" stroke-width="5.9494" stroke-miterlimit="10"/>
<path d="M174.667 82.8762H169.037C165.822 82.8762 163.216 85.4826 163.216 88.6977V109.041C163.216 112.256 165.822 114.862 169.037 114.862H174.667C177.882 114.862 180.488 112.256 180.488 109.041V88.6977C180.488 85.4826 177.882 82.8762 174.667 82.8762Z" fill="#D2EEFF" stroke="white" stroke-width="5.9494" stroke-miterlimit="10"/>
<path d="M150.367 58.7719H89.1897C77.8244 58.7719 68.6111 67.9852 68.6111 79.3505V118.122C68.6111 129.487 77.8244 138.7 89.1897 138.7H150.367C161.732 138.7 170.946 129.487 170.946 118.122V79.3505C170.946 67.9852 161.732 58.7719 150.367 58.7719Z" fill="white"/>
<path d="M145.092 68.6211H134.534V73.611C134.534 76.6966 132.033 79.1979 128.947 79.1979H110.609C107.523 79.1979 105.022 76.6966 105.022 73.611V68.6211H94.4637C86.7277 68.6211 80.4563 74.8924 80.4563 82.6286V115.818C80.4563 123.554 86.7277 129.825 94.4637 129.825H145.092C152.828 129.825 159.1 123.554 159.1 115.818V82.6286C159.1 74.8924 152.828 68.6211 145.092 68.6211Z" fill="#D2EEFF"/>
<path d="M108.093 97.8779C108.093 95.1927 105.916 93.016 103.231 93.016C100.546 93.016 98.3689 95.1927 98.3689 97.8779V105.555C98.3689 108.24 100.546 110.416 103.231 110.416C105.916 110.416 108.093 108.24 108.093 105.555V97.8779Z" fill="#0E4983"/>
<path d="M141.188 97.8779C141.188 95.1927 139.011 93.016 136.326 93.016C133.641 93.016 131.464 95.1927 131.464 97.8779V105.555C131.464 108.24 133.641 110.416 136.326 110.416C139.011 110.416 141.188 108.24 141.188 105.555V97.8779Z" fill="#0E4983"/>
<path d="M119.779 116.063C116.853 116.063 114.055 115.199 111.641 113.557C111.286 113.315 111.219 112.817 111.479 112.475L112.557 111.055C112.806 110.727 113.263 110.667 113.607 110.895C115.447 112.116 117.566 112.758 119.779 112.758C121.992 112.758 124.11 112.116 125.95 110.895C126.294 110.667 126.751 110.727 127 111.055L128.078 112.475C128.338 112.817 128.271 113.315 127.916 113.557C125.502 115.199 122.705 116.063 119.779 116.063Z" fill="#0E4983"/>
<path d="M98.6674 46.9664H140.889C145.903 46.9664 149.973 51.0368 149.973 56.0505V63.5992H89.5833V56.0505C89.5833 51.0369 93.6537 46.9664 98.6674 46.9664Z" fill="white"/>
<path d="M156.976 143.169H82.5807C79.414 143.169 76.8469 145.736 76.8469 148.903V213.758C76.8469 216.924 79.414 219.491 82.5807 219.491H156.976C160.143 219.491 162.71 216.924 162.71 213.758V148.903C162.71 145.736 160.143 143.169 156.976 143.169Z" fill="#D3882D"/>
<path d="M149.875 154.755H89.6818C89.1628 154.755 88.7419 155.176 88.7419 155.695V206.965C88.7419 207.484 89.1628 207.905 89.6818 207.905H149.875C150.394 207.905 150.815 207.484 150.815 206.965V155.695C150.815 155.176 150.394 154.755 149.875 154.755Z" fill="#C37632"/>
<path d="M96.5673 154.755H89.6818C89.1627 154.755 88.7419 155.176 88.7419 155.695V165.477L142.989 207.905H149.875C150.394 207.905 150.815 207.484 150.815 206.965V197.183L96.5673 154.755Z" fill="#BA6D1F"/>
<path d="M149.875 154.755H142.989L88.7419 197.183V206.965C88.7419 207.484 89.1627 207.905 89.6818 207.905H96.5673L150.815 165.477V155.695C150.815 155.176 150.394 154.755 149.875 154.755Z" fill="#B6691B"/>
<path opacity="0.05" d="M149.875 154.755H89.6818C89.1628 154.755 88.7419 155.176 88.7419 155.695V158.292H146.961V207.905H149.875C150.394 207.905 150.815 207.484 150.815 206.965V155.695C150.815 155.176 150.394 154.755 149.875 154.755Z" fill="black"/>
<path d="M83.2648 150.984C84.0938 150.984 84.7659 150.312 84.7659 149.483C84.7659 148.654 84.0938 147.981 83.2648 147.981C82.4357 147.981 81.7637 148.654 81.7637 149.483C81.7637 150.312 82.4357 150.984 83.2648 150.984Z" fill="#B6691B"/>
<path d="M156.292 150.984C157.121 150.984 157.793 150.312 157.793 149.483C157.793 148.654 157.121 147.981 156.292 147.981C155.463 147.981 154.791 148.654 154.791 149.483C154.791 150.312 155.463 150.984 156.292 150.984Z" fill="#B6691B"/>
<path d="M83.2648 214.679C84.0938 214.679 84.7659 214.007 84.7659 213.178C84.7659 212.349 84.0938 211.677 83.2648 211.677C82.4357 211.677 81.7637 212.349 81.7637 213.178C81.7637 214.007 82.4357 214.679 83.2648 214.679Z" fill="#B6691B"/>
<path d="M156.292 214.679C157.121 214.679 157.793 214.007 157.793 213.178C157.793 212.349 157.121 211.677 156.292 211.677C155.463 211.677 154.791 212.349 154.791 213.178C154.791 214.007 155.463 214.679 156.292 214.679Z" fill="#B6691B"/>
<path d="M106.766 211.987H91.106V213.448H106.766V211.987Z" fill="#CC7E29"/>
<path d="M112.02 214.908H103.348V216.369H112.02V214.908Z" fill="#CC7E29"/>
<path d="M159.172 178.663V163.002H157.712V178.663H159.172Z" fill="#CC7E29"/>
<path d="M156.251 183.917V175.245H154.79V183.917H156.251Z" fill="#CC7E29"/>
<path d="M68.1875 165.854H68.1874C65.286 165.854 62.9338 168.207 62.9338 171.108V184.883C62.9338 187.785 65.286 190.137 68.1874 190.137H68.1875C71.089 190.137 73.4411 187.785 73.4411 184.883V171.108C73.4411 168.207 71.089 165.854 68.1875 165.854Z" fill="#0E4983"/>
<path d="M64.159 182.31L64.1589 182.31C62.2886 184.529 62.5707 187.843 64.7889 189.713L75.3202 198.593C77.5385 200.463 80.8529 200.181 82.7232 197.963L82.7233 197.963C84.5935 195.744 84.3115 192.43 82.0932 190.56L71.5619 181.68C69.3437 179.81 66.0293 180.092 64.159 182.31Z" fill="#0E4983"/>
<path d="M171.369 190.137H171.369C174.271 190.137 176.623 187.785 176.623 184.883V171.108C176.623 168.207 174.271 165.855 171.369 165.855H171.369C168.468 165.855 166.116 168.207 166.116 171.108V184.883C166.116 187.785 168.468 190.137 171.369 190.137Z" fill="#0E4983"/>
<path d="M156.833 197.963L156.834 197.963C158.704 200.181 162.018 200.463 164.236 198.593L174.768 189.714C176.986 187.843 177.268 184.529 175.398 182.311L175.398 182.311C173.527 180.092 170.213 179.81 167.995 181.681L157.463 190.56C155.245 192.43 154.963 195.745 156.833 197.963Z" fill="#0E4983"/>
</g>
<defs>
<clipPath id="clip0_4056_13382">
<rect width="126.463" height="198.158" fill="white" transform="translate(57 21.3334)"/>
</clipPath>
</defs>
</svg>
