<svg width="240" height="240" viewBox="0 0 240 240" fill="none" xmlns="http://www.w3.org/2000/svg">
<g clip-path="url(#clip0_6073_28072)">
<g clip-path="url(#clip1_6073_28072)">
<path d="M206.433 214.031C216.122 198.547 221.728 180.246 221.728 160.634C221.728 104.953 176.589 59.8148 120.908 59.8148C65.2273 59.8148 20.0892 104.953 20.0892 160.634C20.0892 180.246 25.6954 198.547 35.3835 214.031H206.433Z" fill="#FFCD5C"/>
<path d="M147.437 120.437C160.451 120.437 171.002 110.785 171.002 98.8788C171.002 86.9727 160.451 77.321 147.437 77.321C134.423 77.321 123.872 86.9727 123.872 98.8788C123.872 110.785 134.423 120.437 147.437 120.437Z" fill="#FFC145"/>
<path d="M175.778 133.358C181.731 133.358 186.557 128.943 186.557 123.497C186.557 118.05 181.731 113.636 175.778 113.636C169.825 113.636 164.999 118.05 164.999 123.497C164.999 128.943 169.825 133.358 175.778 133.358Z" fill="#FFC145"/>
<path d="M74.2333 131.117C82.8151 127.06 86.7631 117.407 83.0514 109.556C79.3398 101.705 69.374 98.6293 60.7922 102.686C52.2105 106.744 48.2624 116.397 51.9741 124.248C55.6857 132.099 65.6515 135.174 74.2333 131.117Z" fill="#FFC145"/>
<path d="M95.2855 108.967C98.5768 107.411 100.091 103.709 98.6674 100.698C97.2439 97.6871 93.422 96.5076 90.1307 98.0636C86.8395 99.6195 85.3254 103.322 86.7489 106.333C88.1723 109.344 91.9943 110.523 95.2855 108.967Z" fill="#FFC145"/>
<path d="M82.916 69.5788H79.7214L71.6409 55.583C70.2747 53.2163 66.8587 53.2163 65.4922 55.583L57.4117 69.5788H54.2171C53.4809 69.5788 52.8839 70.1758 52.8839 70.9122V74.6727C52.8839 75.4092 53.4809 76.0062 54.2171 76.0062H55.969V105.604H81.1642V76.0062H82.9161C83.6526 76.0062 84.2496 75.4092 84.2496 74.6727V70.9122C84.2496 70.1758 83.6525 69.5788 82.916 69.5788Z" fill="#7F4799"/>
<path d="M114.78 168.908H35.7223L53.2078 121.66C53.5924 120.621 54.5833 119.931 55.6913 119.931H114.78L114.78 168.908Z" fill="#6E3A89"/>
<path opacity="0.3" d="M84.7315 127.649L90.9881 130.061L97.2427 127.649L103.502 130.061L109.761 127.649" stroke="#7F4799" stroke-width="4.22025" stroke-linecap="round" stroke-linejoin="round"/>
<path opacity="0.3" d="M66.7395 140.532L72.9962 142.944L79.2508 140.532L85.5098 142.944L91.7687 140.532" stroke="#7F4799" stroke-width="4.22025" stroke-linecap="round" stroke-linejoin="round"/>
<path d="M144.873 85.0998L133.098 34.246V27.9404C133.098 26.8686 132.23 25.9997 131.158 25.9997C130.086 25.9997 129.217 26.8686 129.217 27.9404V32.9938H111.783V27.9404C111.783 26.8686 110.914 25.9997 109.842 25.9997C108.77 25.9997 107.902 26.8686 107.902 27.9404V34.246L96.1267 85.0998H144.873Z" fill="#704084"/>
<path d="M96.9114 164.57H54.4902V147.826H32.8942V164.57L28.8087 168.871C27.9654 169.759 27.4952 170.937 27.4952 172.162V188.585L19.4362 193.001C17.9057 193.84 16.9543 195.446 16.9543 197.191V211.088L96.9114 211.072V164.57Z" fill="#C386DD"/>
<path d="M78.4084 92.844V95.7284C78.4084 96.2131 78.0154 96.6061 77.5307 96.6061H74.8514C74.3667 96.6061 73.9737 96.2131 73.9737 95.7284V92.844C73.9737 92.3593 73.5807 91.9664 73.096 91.9664H64.0371C63.5524 91.9664 63.1594 92.3593 63.1594 92.844V95.7284C63.1594 96.2131 62.7664 96.6061 62.2817 96.6061H59.6024C59.1177 96.6061 58.7247 96.2131 58.7247 95.7284V92.844C58.7247 92.3593 58.3317 91.9664 57.847 91.9664H54.0043C53.2079 91.9664 52.5624 92.6119 52.5624 93.4083V104.963C52.5624 105.523 52.9557 106.01 53.5058 106.114C55.8504 106.556 57.6239 108.615 57.6239 111.088V129.693C57.6239 130.928 58.6247 131.929 59.8594 131.929H77.2739C78.5085 131.929 79.5093 130.928 79.5093 129.693V111.088C79.5093 108.615 81.2829 106.556 83.6274 106.114C84.1775 106.01 84.5709 105.523 84.5709 104.963V93.4083C84.5709 92.6119 83.9253 91.9664 83.1289 91.9664H79.2862C78.8015 91.9664 78.4084 92.3593 78.4084 92.844Z" fill="#5C2E7A"/>
<path d="M190.539 127.403V92.0846H175.37V127.403H137.083V218.142H203.864V127.403H190.539ZM173.439 174.832H162.622C161.234 174.832 160.109 173.707 160.109 172.319V145.484C160.109 141.219 163.387 137.549 167.648 137.348C172.197 137.134 175.953 140.759 175.953 145.261V172.319C175.953 173.707 174.827 174.832 173.439 174.832Z" fill="#C386DD"/>
<path d="M95.0476 83.0701V108.594C95.0476 110.101 95.8971 111.519 97.2825 112.112C99.3129 112.98 100.736 114.996 100.736 117.344V218.142H140.265V117.344C140.265 114.996 141.687 112.98 143.718 112.112C145.103 111.519 145.953 110.101 145.953 108.594V83.0701L119.882 57.5772L95.0476 83.0701Z" fill="#C386DD"/>
<path d="M196.823 92.8699L175.37 168.683H222.877L201.424 92.8699C200.767 90.5504 197.48 90.5504 196.823 92.8699Z" fill="#6E3A89"/>
<path d="M102.712 161.742H87.3828V208.533H102.712V161.742Z" fill="#B36CD0"/>
<path d="M87.8691 202.235H102.226C104.578 202.235 106.488 204.145 106.488 206.497V211.088H83.6067V206.497C83.6067 204.145 85.5166 202.235 87.8691 202.235Z" fill="#B36CD0"/>
<path d="M104.225 157.395H85.8703C85.2414 157.395 84.7315 157.905 84.7315 158.534V160.964C84.7315 161.593 85.2414 162.103 85.8703 162.103H104.225C104.854 162.103 105.363 161.593 105.363 160.964V158.534C105.363 157.905 104.854 157.395 104.225 157.395Z" fill="#7F4799"/>
<path d="M93.7078 132.494L87.7983 157.893H102.297L96.3872 132.494C96.0572 131.076 94.0378 131.076 93.7078 132.494Z" fill="#7F4799"/>
<path d="M191.545 89.2324H174.364C173.411 89.2324 172.638 90.0049 172.638 90.9579V92.2149C172.638 93.1679 173.411 93.9405 174.364 93.9405H191.545C192.498 93.9405 193.27 93.1679 193.27 92.2149V90.9579C193.27 90.0049 192.498 89.2324 191.545 89.2324Z" fill="#704084"/>
<path d="M180.626 68.5809L175.705 89.7305H190.203L185.283 68.5809C184.709 66.1157 181.199 66.1157 180.626 68.5809Z" fill="#704084"/>
<path d="M153.617 161.742H138.288V208.533H153.617V161.742Z" fill="#B36CD0"/>
<path d="M138.774 202.235H153.131C155.484 202.235 157.393 204.145 157.393 206.497V211.088H134.512V206.497C134.512 204.145 136.422 202.235 138.774 202.235Z" fill="#B36CD0"/>
<path d="M155.13 157.395H136.775C136.146 157.395 135.637 157.905 135.637 158.534V160.964C135.637 161.593 136.146 162.103 136.775 162.103H155.13C155.759 162.103 156.269 161.593 156.269 160.964V158.534C156.269 157.905 155.759 157.395 155.13 157.395Z" fill="#7F4799"/>
<path d="M144.613 132.494L138.703 157.893H153.202L147.292 132.494C146.962 131.076 144.943 131.076 144.613 132.494Z" fill="#7F4799"/>
<path d="M223.917 213.386H174.33V164.57L199.123 143.199L223.917 164.57V213.386Z" fill="#C386DD"/>
<path d="M233.5 211.088H7.50003C3.63404 211.088 0.500031 214.222 0.500031 218.088V239.541H240.5V218.088C240.5 214.222 237.366 211.088 233.5 211.088Z" fill="#5C3D69"/>
<path d="M227.265 170.118L201.623 148.915C200.173 147.716 198.075 147.716 196.624 148.915L170.982 170.118C170.343 170.647 169.395 170.558 168.866 169.918L167.197 167.899C166.667 167.259 166.757 166.312 167.397 165.783L196.624 141.615C198.075 140.415 200.173 140.415 201.623 141.615L230.85 165.783C231.49 166.312 231.58 167.259 231.051 167.899L229.381 169.918C228.852 170.558 227.905 170.647 227.265 170.118Z" fill="#6E3A89"/>
<path d="M130.665 116.676H112.745C111.245 116.676 110.03 117.891 110.03 119.391V152.151C110.03 153.65 111.245 154.866 112.745 154.866H130.665C132.165 154.866 133.38 153.65 133.38 152.151V119.391C133.38 117.891 132.165 116.676 130.665 116.676Z" fill="#FFBF31"/>
<path d="M130.628 116.676H112.783C111.262 116.676 110.03 117.908 110.03 119.429V152.113C110.03 153.634 111.262 154.866 112.783 154.866H130.628C132.148 154.866 133.38 153.634 133.38 152.113V119.429C133.38 117.908 132.148 116.676 130.628 116.676Z" stroke="#603A6B" stroke-width="1.87289" stroke-miterlimit="10"/>
<path d="M121.705 116.676V154.866" stroke="#603A6B" stroke-width="1.87289" stroke-miterlimit="10"/>
<path d="M99.9487 204.576H141.051C142.018 204.576 142.803 205.361 142.803 206.328V213.317H98.1968V206.328C98.1968 205.361 98.9817 204.576 99.9487 204.576Z" fill="#8E6899"/>
<path d="M95.0317 213.317H145.968C146.935 213.317 147.72 214.102 147.72 215.069V222.059H93.2799V215.069C93.2799 214.102 94.0648 213.317 95.0317 213.317Z" fill="#815D8D"/>
<path d="M90.5968 222.058H150.403C151.37 222.058 152.155 222.843 152.155 223.81V230.8H88.845V223.81C88.845 222.843 89.6299 222.058 90.5968 222.058Z" fill="#8E6899"/>
<path d="M85.9691 230.8H155.031C155.998 230.8 156.783 231.585 156.783 232.552V239.541H84.2173V232.552C84.2173 231.585 85.0022 230.8 85.9691 230.8Z" fill="#815D8D"/>
<path d="M79.2125 170.254H66.276C64.3018 170.254 62.7014 171.854 62.7014 173.829V186.765C62.7014 188.739 64.3018 190.34 66.276 190.34H79.2125C81.1867 190.34 82.7871 188.739 82.7871 186.765V173.829C82.7871 171.854 81.1867 170.254 79.2125 170.254Z" fill="#FFBF31"/>
<path d="M79.2125 170.254H66.276C64.3018 170.254 62.7014 171.854 62.7014 173.829V186.765C62.7014 188.739 64.3018 190.34 66.276 190.34H79.2125C81.1867 190.34 82.7871 188.739 82.7871 186.765V173.829C82.7871 171.854 81.1867 170.254 79.2125 170.254Z" stroke="#603A6B" stroke-width="1.87289" stroke-miterlimit="10"/>
<path d="M55.9551 144.42H31.4295C30.7476 144.42 30.1947 144.973 30.1947 145.655V148.359C30.1947 149.041 30.7476 149.594 31.4295 149.594H55.9551C56.6371 149.594 57.1899 149.041 57.1899 148.359V145.655C57.1899 144.973 56.6371 144.42 55.9551 144.42Z" fill="#7F4799"/>
<path d="M131.234 204.974H109.766V183.244C109.766 175.202 114.572 168.683 120.5 168.683C126.428 168.683 131.234 175.202 131.234 183.244V204.974Z" fill="#4A3350"/>
<path d="M42.4068 155.829C44.819 155.829 46.7775 157.787 46.7775 160.199V172.185C46.7775 173.161 45.985 173.954 45.009 173.954H39.8047C38.8286 173.954 38.0362 173.161 38.0362 172.185V160.199C38.0362 157.787 39.9946 155.829 42.4068 155.829Z" fill="#FFBF31"/>
<path d="M110.827 90.5261C113.239 90.5261 115.197 92.4845 115.197 94.8967V106.883C115.197 107.859 114.405 108.651 113.429 108.651H108.225C107.249 108.651 106.456 107.859 106.456 106.883V94.8967C106.456 92.4845 108.414 90.5261 110.827 90.5261Z" fill="#FFBF31"/>
<path d="M130.173 90.5261C132.585 90.5261 134.544 92.4845 134.544 94.8967V106.883C134.544 107.859 133.751 108.651 132.775 108.651H127.571C126.595 108.651 125.803 107.859 125.803 106.883V94.8967C125.803 92.4845 127.761 90.5261 130.173 90.5261Z" fill="#FFBF31"/>
<path d="M214.23 186.829H184.017C182.492 186.829 181.255 185.592 181.255 184.067V172.203C181.255 171.371 181.63 170.584 182.275 170.06L197.381 157.779C198.396 156.954 199.851 156.954 200.866 157.779L215.972 170.06C216.617 170.584 216.992 171.371 216.992 172.203V184.067C216.992 185.592 215.755 186.829 214.23 186.829Z" fill="#FFBF31"/>
<path d="M214.23 186.829H184.017C182.492 186.829 181.255 185.592 181.255 184.067V172.203C181.255 171.371 181.63 170.584 182.275 170.06L197.381 157.779C198.396 156.954 199.851 156.954 200.866 157.779L215.972 170.06C216.617 170.584 216.992 171.371 216.992 172.203V184.067C216.992 185.592 215.755 186.829 214.23 186.829Z" stroke="#603A6B" stroke-width="1.87289" stroke-miterlimit="10"/>
<path d="M49.882 198.892H30.9467C30.5314 198.892 30.1947 199.229 30.1947 199.644V204.825C30.1947 205.24 30.5314 205.577 30.9467 205.577H49.882C50.2973 205.577 50.634 205.24 50.634 204.825V199.644C50.634 199.229 50.2973 198.892 49.882 198.892Z" fill="#B36CD0"/>
<path d="M56.438 192.348H49.0238C48.6085 192.348 48.2719 192.685 48.2719 193.1V196.096C48.2719 196.511 48.6085 196.848 49.0238 196.848H56.438C56.8533 196.848 57.1899 196.511 57.1899 196.096V193.1C57.1899 192.685 56.8533 192.348 56.438 192.348Z" fill="#B36CD0"/>
<path d="M183.232 215.196H172.062C171.099 215.196 170.318 215.977 170.318 216.941V222.817C170.318 223.781 171.099 224.562 172.062 224.562H183.232C184.196 224.562 184.977 223.781 184.977 222.817V216.941C184.977 215.977 184.196 215.196 183.232 215.196Z" fill="#543863"/>
<path d="M200.47 215.196H189.3C188.337 215.196 187.556 215.977 187.556 216.941V222.817C187.556 223.781 188.337 224.562 189.3 224.562H200.47C201.433 224.562 202.214 223.781 202.214 222.817V216.941C202.214 215.977 201.433 215.196 200.47 215.196Z" fill="#543863"/>
<path d="M232.671 215.196H221.501C220.538 215.196 219.757 215.977 219.757 216.941V222.817C219.757 223.781 220.538 224.562 221.501 224.562H232.671C233.635 224.562 234.416 223.781 234.416 222.817V216.941C234.416 215.977 233.635 215.196 232.671 215.196Z" fill="#543863"/>
<path d="M210.405 226.272H199.235C198.272 226.272 197.491 227.053 197.491 228.016V233.893C197.491 234.856 198.272 235.637 199.235 235.637H210.405C211.369 235.637 212.15 234.856 212.15 233.893V228.016C212.15 227.053 211.369 226.272 210.405 226.272Z" fill="#543863"/>
<path d="M38.776 215.196H27.606C26.6427 215.196 25.8617 215.977 25.8617 216.941V222.817C25.8617 223.781 26.6427 224.562 27.606 224.562H38.776C39.7394 224.562 40.5204 223.781 40.5204 222.817V216.941C40.5204 215.977 39.7394 215.196 38.776 215.196Z" fill="#543863"/>
<path d="M56.0136 215.196H44.8437C43.8803 215.196 43.0993 215.977 43.0993 216.941V222.817C43.0993 223.781 43.8803 224.562 44.8437 224.562H56.0136C56.977 224.562 57.758 223.781 57.758 222.817V216.941C57.758 215.977 56.977 215.196 56.0136 215.196Z" fill="#543863"/>
<path d="M84.0357 215.196H72.8657C71.9023 215.196 71.1213 215.977 71.1213 216.941V222.817C71.1213 223.781 71.9023 224.562 72.8657 224.562H84.0357C84.999 224.562 85.78 223.781 85.78 222.817V216.941C85.78 215.977 84.999 215.196 84.0357 215.196Z" fill="#543863"/>
<path d="M65.9489 226.272H54.779C53.8156 226.272 53.0346 227.053 53.0346 228.016V233.893C53.0346 234.856 53.8156 235.637 54.779 235.637H65.9489C66.9123 235.637 67.6933 234.856 67.6933 233.893V228.016C67.6933 227.053 66.9123 226.272 65.9489 226.272Z" fill="#543863"/>
<path d="M169.255 180.297H160.861C160.446 180.297 160.109 180.634 160.109 181.049V183.787C160.109 184.202 160.446 184.539 160.861 184.539H169.255C169.671 184.539 170.007 184.202 170.007 183.787V181.049C170.007 180.634 169.671 180.297 169.255 180.297Z" fill="#B36CD0"/>
<path d="M175.953 186.829H166.054V191.071H175.953V186.829Z" fill="#B36CD0"/>
<path d="M217.987 192.505H209.592C209.177 192.505 208.84 192.842 208.84 193.257V195.995C208.84 196.411 209.177 196.747 209.592 196.747H217.987C218.402 196.747 218.739 196.411 218.739 195.995V193.257C218.739 192.842 218.402 192.505 217.987 192.505Z" fill="#B36CD0"/>
<path d="M171.473 201.335H163.078C162.663 201.335 162.326 201.671 162.326 202.087V204.825C162.326 205.24 162.663 205.577 163.078 205.577H171.473C171.888 205.577 172.225 205.24 172.225 204.825V202.087C172.225 201.671 171.888 201.335 171.473 201.335Z" fill="#B36CD0"/>
<path d="M75.3727 118.608H68.5195C68.0646 118.608 67.6959 118.977 67.6959 119.432V122.412C67.6959 122.867 68.0646 123.236 68.5195 123.236H75.3727C75.8276 123.236 76.1963 122.867 76.1963 122.412V119.432C76.1963 118.977 75.8276 118.608 75.3727 118.608Z" fill="#492368"/>
<path d="M67.0159 105.575H60.1627C59.7079 105.575 59.3391 105.944 59.3391 106.399V109.379C59.3391 109.834 59.7079 110.203 60.1627 110.203H67.0159C67.4708 110.203 67.8396 109.834 67.8396 109.379V106.399C67.8396 105.944 67.4708 105.575 67.0159 105.575Z" fill="#492368"/>
<path d="M78.9182 100.646H72.065C71.6101 100.646 71.2414 101.014 71.2414 101.469V104.45C71.2414 104.905 71.6101 105.273 72.065 105.273H78.9182C79.3731 105.273 79.7418 104.905 79.7418 104.45V101.469C79.7418 101.014 79.3731 100.646 78.9182 100.646Z" fill="#492368"/>
<path d="M130.173 90.5261V108.651" stroke="#FFAA00" stroke-width="1.87289" stroke-miterlimit="10"/>
<path d="M110.827 90.5261V108.651" stroke="#FFAA00" stroke-width="1.87289" stroke-miterlimit="10"/>
<path d="M72.7443 170.254V190.34" stroke="#603A6B" stroke-width="1.87289" stroke-miterlimit="10"/>
<path d="M42.4068 155.829V173.954" stroke="#FFAA00" stroke-width="1.87289" stroke-miterlimit="10"/>
<path d="M199.123 157.16V186.829" stroke="#603A6B" stroke-width="1.87289" stroke-miterlimit="10"/>
<path d="M189.984 163.793L199.123 169.442" stroke="#603A6B" stroke-width="1.87289" stroke-miterlimit="10"/>
<path d="M208.263 163.793L199.123 169.442" stroke="#603A6B" stroke-width="1.87289" stroke-miterlimit="10"/>
<path d="M110.827 90.5261C113.239 90.5261 115.197 92.4845 115.197 94.8967V106.883C115.197 107.859 114.405 108.651 113.429 108.651H108.225C107.249 108.651 106.456 107.859 106.456 106.883V94.8967C106.456 92.4845 108.414 90.5261 110.827 90.5261Z" stroke="#603A6B" stroke-width="1.87289" stroke-miterlimit="10"/>
<path d="M130.173 90.5261C132.585 90.5261 134.544 92.4845 134.544 94.8967V106.883C134.544 107.859 133.751 108.651 132.775 108.651H127.571C126.595 108.651 125.803 107.859 125.803 106.883V94.8967C125.803 92.4845 127.761 90.5261 130.173 90.5261Z" stroke="#603A6B" stroke-width="1.87289" stroke-miterlimit="10"/>
<path d="M42.4068 155.829C44.819 155.829 46.7775 157.787 46.7775 160.199V172.185C46.7775 173.161 45.985 173.954 45.009 173.954H39.8047C38.8286 173.954 38.0362 173.161 38.0362 172.185V160.199C38.0362 157.787 39.9946 155.829 42.4068 155.829Z" stroke="#603A6B" stroke-width="1.87289" stroke-miterlimit="10"/>
<path d="M151.552 86.5848L140.688 81.7853L125.005 58.7242H115.995L100.312 81.7853L89.4479 86.5848" stroke="#7C4496" stroke-width="6.02893" stroke-linecap="round" stroke-linejoin="round"/>
<path d="M117.29 123.015C117.29 121.859 116.353 120.922 115.197 120.922C114.041 120.922 113.104 121.859 113.104 123.015V144.518C113.104 145.674 114.041 146.611 115.197 146.611C116.353 146.611 117.29 145.674 117.29 144.518V123.015Z" fill="white"/>
<path d="M68.6271 174.702C68.6271 173.913 67.9875 173.273 67.1986 173.273C66.4096 173.273 65.77 173.913 65.77 174.702V182.367C65.77 183.156 66.4096 183.796 67.1986 183.796C67.9875 183.796 68.6271 183.156 68.6271 182.367V174.702Z" fill="white"/>
<path d="M187.577 172.153C187.577 171.365 186.938 170.725 186.149 170.725C185.36 170.725 184.72 171.365 184.72 172.153V179.819C184.72 180.608 185.36 181.247 186.149 181.247C186.938 181.247 187.577 180.608 187.577 179.819V172.153Z" fill="white"/>
<path d="M110.03 130.061H133.38" stroke="#603A6B" stroke-width="1.87289" stroke-miterlimit="10"/>
<path d="M110.03 143.053H133.38" stroke="#603A6B" stroke-width="1.87289" stroke-miterlimit="10"/>
<path d="M62.7014 180.297H82.4234" stroke="#603A6B" stroke-width="1.87289" stroke-miterlimit="10"/>
<path d="M181.255 177.669H216.992" stroke="#603A6B" stroke-width="1.87289" stroke-miterlimit="10"/>
<path d="M68.5666 71.6249C71.0784 71.6249 73.1175 73.664 73.1175 76.1757V87.2612C73.1175 88.3346 72.2461 89.206 71.1727 89.206H65.9606C64.8872 89.206 64.0158 88.3346 64.0158 87.2612V76.1757C64.0158 73.664 66.0549 71.6249 68.5666 71.6249Z" fill="#723C8E"/>
</g>
</g>
<defs>
<clipPath id="clip0_6073_28072">
<rect width="240" height="240" fill="white"/>
</clipPath>
<clipPath id="clip1_6073_28072">
<rect width="240" height="213.541" fill="white" transform="translate(0.500015 25.9999)"/>
</clipPath>
</defs>
</svg>
