<svg width="240" height="240" viewBox="0 0 240 240" fill="none" xmlns="http://www.w3.org/2000/svg">
<g clip-path="url(#clip0_4073_42454)">
<g opacity="0.3">
<path fill-rule="evenodd" clip-rule="evenodd" d="M143.126 205.007L140.203 205.007C139.31 205.007 138.58 205.737 138.58 206.63C138.58 207.523 139.131 208.254 140.203 208.254L148.135 208.254C148.018 213.902 143.402 218.445 137.726 218.445C134.443 218.445 131.517 216.925 129.608 214.552C128.187 215.28 126.577 215.69 124.871 215.69C124.299 215.69 123.738 215.643 123.191 215.554C123.192 215.6 123.193 215.645 123.193 215.69C123.193 221.44 118.531 226.102 112.782 226.102C110.651 226.102 108.671 225.462 107.022 224.364C104.742 229.555 99.5564 233.181 93.5235 233.181C86.4399 233.181 80.5238 228.181 79.1101 221.519C77.7261 222.199 76.1695 222.582 74.5235 222.582C69.6221 222.582 65.5122 219.195 64.4058 214.634C63.0253 215.31 61.4733 215.69 59.8325 215.69C55.1163 215.69 51.1325 212.554 49.8524 208.254L92.3425 208.254C93.2355 208.254 93.9663 207.524 93.9663 206.63C93.9663 205.737 93.212 205.007 92.3425 205.007L79.2276 205.007C77.5265 205.007 76.1351 203.615 76.1351 201.914C76.1351 200.213 77.5265 198.821 79.2276 198.821L143.126 198.821C144.827 198.821 146.218 200.213 146.218 201.914C146.218 203.615 144.827 205.007 143.126 205.007ZM70.1704 205.007C71.8715 205.007 73.2634 203.615 73.2634 201.914C73.2634 200.213 71.8714 198.821 70.1704 198.821L70.0872 198.821C68.3861 198.821 66.9948 200.213 66.9948 201.914C66.9948 203.614 68.3861 205.007 70.0872 205.007L70.1704 205.007Z" fill="white"/>
<path fill-rule="evenodd" clip-rule="evenodd" d="M96.8546 205.243C95.1536 205.243 93.7622 203.851 93.7622 202.15C93.7622 200.45 95.1536 199.058 96.8546 199.058L160.753 199.058C162.454 199.058 163.845 200.449 163.845 202.15C163.845 203.851 162.454 205.243 160.753 205.243L147.638 205.243C146.769 205.243 146.014 205.974 146.014 206.867C146.014 207.76 146.745 208.49 147.638 208.49L190.128 208.49C188.848 212.791 184.864 215.926 180.148 215.926C178.507 215.926 176.955 215.546 175.575 214.87C174.468 219.431 170.358 222.818 165.457 222.818C163.811 222.818 162.254 222.436 160.87 221.755C159.457 228.418 153.541 233.417 146.457 233.417C140.424 233.417 135.239 229.791 132.959 224.6C131.309 225.698 129.329 226.338 127.199 226.338C121.449 226.338 116.788 221.676 116.788 215.926C116.788 215.881 116.789 215.836 116.789 215.791C116.242 215.88 115.682 215.926 115.109 215.926C113.404 215.926 111.793 215.516 110.373 214.788C108.464 217.162 105.537 218.681 102.255 218.681C96.5786 218.681 91.9629 214.138 91.8453 208.49L99.7773 208.49C100.85 208.49 101.401 207.76 101.401 206.866C101.401 205.973 100.67 205.243 99.7773 205.243L96.8546 205.243ZM169.893 205.243C171.595 205.243 172.986 203.851 172.986 202.15C172.986 200.45 171.595 199.058 169.893 199.058L169.81 199.058C168.109 199.058 166.717 200.449 166.717 202.15C166.717 203.851 168.109 205.243 169.81 205.243L169.893 205.243Z" fill="white"/>
</g>
<path opacity="0.5" fill-rule="evenodd" clip-rule="evenodd" d="M87.4615 130.211H85.4574C84.8451 130.211 84.344 129.71 84.344 129.098C84.344 128.485 84.722 127.985 85.4574 127.985H87.1426C87.272 127.578 87.3419 127.145 87.3419 126.695C87.3419 124.814 86.1185 123.219 84.4239 122.661C84.0873 118.767 80.8195 115.71 76.8377 115.71C73.7603 115.71 71.1097 117.536 69.9086 120.163C69.4698 119.519 68.8102 119.038 68.0394 118.827C68.0402 118.802 68.0402 118.777 68.0402 118.753C68.0402 116.952 66.5808 115.492 64.7804 115.492C63.8995 115.492 63.1004 115.842 62.5137 116.41C61.0845 114.698 58.9353 113.609 56.5312 113.609C52.2288 113.609 48.7409 117.097 48.7409 121.4C48.7409 121.726 48.7613 122.047 48.8002 122.363C48.3307 122.193 47.8241 122.101 47.2964 122.101C44.8554 122.101 42.8764 124.079 42.8764 126.52C42.8764 127.034 42.9637 127.526 43.1246 127.985H52.6394C53.2516 127.985 53.7527 128.485 53.7527 129.098C53.7527 129.71 53.2355 130.211 52.6394 130.211H49.5553C48.3889 130.211 47.4344 131.165 47.4344 132.332C47.4344 133.498 48.3889 134.452 49.5553 134.452H87.4617C88.6281 134.452 89.5822 133.498 89.5822 132.332C89.5822 131.165 88.6279 130.211 87.4615 130.211ZM42.7013 130.211C43.8673 130.211 44.8218 131.165 44.8218 132.332C44.8218 133.498 43.8673 134.452 42.7013 134.452H42.6438C41.4774 134.452 40.5233 133.498 40.5233 132.332C40.5233 131.165 41.4773 130.211 42.6438 130.211H42.7013Z" fill="#ACBCCC"/>
<path opacity="0.5" fill-rule="evenodd" clip-rule="evenodd" d="M138.127 100.208C136.96 100.208 136.006 101.162 136.006 102.329C136.006 103.495 136.96 104.449 138.127 104.449H176.033C177.2 104.449 178.154 103.495 178.154 102.329C178.154 101.162 177.2 100.208 176.033 100.208H172.949C172.353 100.208 171.836 99.7069 171.836 99.0946C171.836 98.4822 172.337 97.9817 172.949 97.9817H182.464C182.625 97.5235 182.712 97.0308 182.712 96.5176C182.712 94.0765 180.733 92.0976 178.292 92.0976C177.764 92.0976 177.258 92.1904 176.788 92.3602C176.827 92.0444 176.848 91.7231 176.848 91.3968C176.848 87.0944 173.36 83.6064 169.057 83.6064C166.653 83.6064 164.504 84.6954 163.075 86.4069C162.488 85.839 161.689 85.4894 160.808 85.4894C159.008 85.4894 157.548 86.9488 157.548 88.7495C157.548 88.7739 157.548 88.7991 157.549 88.8235C156.778 89.0347 156.119 89.516 155.68 90.1594C154.479 87.5327 151.828 85.7071 148.751 85.7071C144.769 85.7071 141.501 88.7636 141.165 92.6582C139.47 93.2155 138.247 94.8106 138.247 96.692C138.247 97.1415 138.317 97.5749 138.446 97.9816H140.131C140.867 97.9816 141.244 98.4822 141.244 99.095C141.244 99.7069 140.744 100.208 140.131 100.208L138.127 100.208ZM182.945 100.208C184.111 100.208 185.065 101.162 185.065 102.329C185.065 103.495 184.111 104.449 182.945 104.449H182.887C181.721 104.449 180.767 103.495 180.767 102.329C180.767 101.162 181.721 100.208 182.887 100.208L182.945 100.208Z" fill="#ACBCCC"/>
<path opacity="0.5" fill-rule="evenodd" clip-rule="evenodd" d="M43.01 171.778H52.9679C52.8089 171.143 52.7242 170.402 52.7242 169.535C52.7242 162.217 58.6573 156.284 65.9756 156.284C68.937 156.284 71.6714 157.256 73.8781 158.897C73.8745 158.774 73.873 158.651 73.873 158.527C73.873 151.209 79.8052 145.276 87.1238 145.276C91.3012 145.276 95.0262 147.21 97.4547 150.23C99.2636 149.304 101.313 148.782 103.484 148.782C104.213 148.782 104.926 148.841 105.622 148.955C105.621 148.897 105.62 148.84 105.62 148.782C105.62 141.463 111.553 135.531 118.871 135.531C121.582 135.531 124.102 136.345 126.202 137.743C129.103 131.136 135.703 126.521 143.381 126.521C152.396 126.521 159.926 132.884 161.725 141.363C163.487 140.497 165.468 140.01 167.563 140.01C173.801 140.01 179.031 144.321 180.44 150.126C182.197 149.266 184.172 148.782 186.26 148.782C192.531 148.782 197.784 153.137 199.159 158.988C201.043 155.97 204.392 153.96 208.212 153.96C214.1 153.96 218.874 158.734 218.874 164.622C218.874 167.376 217.83 169.886 216.115 171.778H227.658C229.443 171.778 230.903 173.238 230.903 175.023C230.903 176.807 229.443 178.267 227.658 178.267H43.01C41.2253 178.267 39.7654 176.807 39.7654 175.023C39.7654 173.238 41.2253 171.778 43.01 171.778ZM236.658 171.778H236.745C238.53 171.778 239.99 173.238 239.99 175.023C239.99 176.808 238.53 178.267 236.745 178.267H236.658C234.873 178.267 233.413 176.808 233.413 175.023C233.413 173.238 234.873 171.778 236.658 171.778Z" fill="#ACBCCC"/>
<path opacity="0.5" fill-rule="evenodd" clip-rule="evenodd" d="M196.971 171.778C198.755 171.778 200.215 173.238 200.215 175.023C200.215 176.807 198.755 178.267 196.971 178.267H12.3229C10.5382 178.267 9.07817 176.807 9.07817 175.023C9.07817 173.238 10.5382 171.778 12.3229 171.778H23.8655C22.1509 169.886 21.107 167.376 21.107 164.622C21.107 158.734 25.8802 153.96 31.7687 153.96C35.5885 153.96 38.9382 155.97 40.8214 158.988C42.1967 153.137 47.4501 148.782 53.7204 148.782C55.8088 148.782 57.784 149.266 59.5411 150.126C60.9498 144.321 66.1799 140.01 72.4181 140.01C74.513 140.01 76.494 140.497 78.2555 141.363C80.0548 132.884 87.5842 126.521 96.5999 126.521C104.278 126.521 110.878 131.136 113.779 137.743C115.879 136.345 118.399 135.531 121.11 135.531C128.428 135.531 134.361 141.463 134.361 148.782C134.361 148.84 134.359 148.897 134.359 148.955C135.055 148.841 135.768 148.782 136.497 148.782C138.667 148.782 140.717 149.304 142.526 150.23C144.955 147.21 148.679 145.276 152.857 145.276C160.175 145.276 166.108 151.209 166.108 158.527C166.108 158.651 166.106 158.775 166.103 158.897C168.309 157.256 171.044 156.284 174.005 156.284C181.324 156.284 187.257 162.217 187.257 169.535C187.257 170.402 187.172 171.143 187.013 171.778L196.971 171.778ZM6.56727 175.023C6.56727 176.807 5.10728 178.267 3.32263 178.267H3.23572C1.45034 178.267 -0.00964355 176.807 -0.00964355 175.023C-0.00964355 173.238 1.45034 171.778 3.23572 171.778H3.32263C5.10728 171.778 6.56727 173.238 6.56727 175.023Z" fill="#ACBCCC"/>
<path d="M185.503 38.125L173.864 74.8106L180.411 70.7575L173.864 101.519C173.864 101.519 195.065 63.1709 194.649 63.1709C194.233 63.1709 183.529 65.4573 183.529 65.4573L206.392 32.9287L185.503 38.125Z" fill="#FFCB03"/>
<path d="M54.4773 38.125L66.1169 74.8105L59.5696 70.7574L66.1169 101.519C66.1169 101.519 44.9161 63.1708 45.3318 63.1708C45.7475 63.1708 56.4518 65.4572 56.4518 65.4572L33.5883 32.9287L54.4773 38.125Z" fill="#FFCB03"/>
<path d="M114.681 98.0112H126.957C164.778 98.0112 195.483 128.717 195.483 166.537V175.343H46.1552V166.537C46.1552 128.717 76.8607 98.0112 114.681 98.0112Z" fill="#EFB993"/>
<path d="M45.7109 155.732C45.7109 155.732 45.7182 150.218 47.1255 146.754C47.1255 146.754 150.293 127.051 161.552 115.035L130.699 147.403L45.7109 155.732Z" fill="#A08A7C"/>
<path d="M44.5167 153.823C44.5167 153.823 159.804 125.481 166.949 109.026L173.877 113.573C173.877 113.573 167.815 149.514 174.743 163.371C181.672 177.227 46.1552 175.342 46.1552 175.342L44.5167 153.823Z" fill="#C6A187"/>
<path d="M167.846 123.692C173.059 123.692 177.286 119.466 177.286 114.252C177.286 109.038 173.059 104.812 167.846 104.812C162.632 104.812 158.406 109.038 158.406 114.252C158.406 119.466 162.632 123.692 167.846 123.692Z" fill="#FFB803"/>
<path d="M167.846 118.781C170.347 118.781 172.375 116.754 172.375 114.252C172.375 111.751 170.347 109.724 167.846 109.724C165.345 109.724 163.317 111.751 163.317 114.252C163.317 116.754 165.345 118.781 167.846 118.781Z" fill="#FFCB03"/>
<path d="M135.086 55.7287C149.111 55.7287 160.48 44.3598 160.48 30.3356C160.48 16.3113 149.111 4.94238 135.086 4.94238C121.062 4.94238 109.693 16.3113 109.693 30.3356C109.693 44.3598 121.062 55.7287 135.086 55.7287Z" fill="white"/>
<path d="M144.888 81.1223C158.912 81.1223 170.281 69.7534 170.281 55.7291C170.281 41.7049 158.912 30.3359 144.888 30.3359C130.864 30.3359 119.495 41.7049 119.495 55.7291C119.495 69.7534 130.864 81.1223 144.888 81.1223Z" fill="white"/>
<path d="M98.2028 72.5705C112.227 72.5705 123.596 61.2016 123.596 47.1774C123.596 33.1531 112.227 21.7842 98.2028 21.7842C84.1785 21.7842 72.8096 33.1531 72.8096 47.1774C72.8096 61.2016 84.1785 72.5705 98.2028 72.5705Z" fill="white"/>
<path d="M115.558 59.3371C129.582 59.3371 140.951 47.9682 140.951 33.944C140.951 19.9197 129.582 8.55078 115.558 8.55078C101.534 8.55078 90.1647 19.9197 90.1647 33.944C90.1647 47.9682 101.534 59.3371 115.558 59.3371Z" fill="white"/>
<path d="M120.819 17.6035C142.708 17.6035 160.479 35.3746 160.479 57.2635V71.591H81.1589V57.2635C81.1589 35.3746 98.9302 17.6035 120.819 17.6035Z" fill="white"/>
<path d="M90.0408 85.1814C97.5468 85.1814 103.632 79.0967 103.632 71.5907C103.632 64.0848 97.5468 58 90.0408 58C82.5349 58 76.4501 64.0848 76.4501 71.5907C76.4501 79.0967 82.5349 85.1814 90.0408 85.1814Z" fill="#D6A98A"/>
<path d="M151.598 85.1814C159.104 85.1814 165.188 79.0967 165.188 71.5907C165.188 64.0848 159.104 58 151.598 58C144.092 58 138.007 64.0848 138.007 71.5907C138.007 79.0967 144.092 85.1814 151.598 85.1814Z" fill="#D6A98A"/>
<path d="M110.063 53.7355H131.576C145.822 53.7355 157.388 65.3017 157.388 79.5479V83.2711C157.388 96.3794 146.746 107.022 133.638 107.022H111.724C96.5608 107.022 84.2501 94.7111 84.2501 79.5479C84.2501 65.3015 95.8164 53.7355 110.063 53.7355Z" fill="#F7C19C"/>
<path fill-rule="evenodd" clip-rule="evenodd" d="M152.298 66.1499H89.3401V50.3408C89.3401 45.6179 94.3302 42.5626 98.5368 44.7098L99.6426 45.2743C113.29 52.2408 129.477 52.1152 143.014 44.9374C147.225 42.7049 152.298 45.7571 152.298 50.523V66.1499Z" fill="#F7C19C"/>
<path d="M83.1547 56.0674H89.34V95.1864C85.9262 95.1864 83.1547 92.4149 83.1547 89.0011V56.0674Z" fill="white"/>
<path d="M152.298 56.0674H158.483V89.0011C158.483 92.4149 155.712 95.1864 152.298 95.1864V56.0674Z" fill="white"/>
<path fill-rule="evenodd" clip-rule="evenodd" d="M158.389 88.6682C158.163 84.3478 153.655 85.2494 153.091 86.7146C152.528 88.1798 150.161 93.5522 146.742 96.5578C143.323 99.5633 139.191 93.8529 136.711 92.7632C134.232 91.6738 132.316 93.214 131.602 94.4539C130.888 95.6936 132.165 99.1876 129.347 100.052C126.53 100.916 126.192 98.4363 125.215 97.3469C124.336 96.3663 123.609 96.6841 121.555 96.5657C121.064 96.5374 120.574 96.5374 120.083 96.5657C118.029 96.6841 117.303 96.3662 116.424 97.3469C115.447 98.4363 115.108 100.916 112.291 100.052C109.473 99.1876 110.75 95.6937 110.037 94.4539C109.323 93.2141 107.407 91.6738 104.927 92.7632C102.448 93.8528 98.3149 99.5632 94.896 96.5578C91.4771 93.5523 89.1107 88.1798 88.5469 86.7146C87.9831 85.2494 83.4751 84.3478 83.2495 88.6682C83.0243 92.9887 84.9779 98.5115 92.2664 103.997C99.5546 109.482 102.185 110.834 101.771 109.256C101.358 107.678 101.02 105.687 102.222 106.852C103.424 108.016 113.268 114.253 120.819 114.253C128.37 114.253 138.214 108.016 139.416 106.852C140.618 105.687 140.28 107.678 139.867 109.256C139.454 110.834 142.083 109.482 149.372 103.997C156.661 98.5115 158.614 92.9887 158.389 88.6682Z" fill="white"/>
<path fill-rule="evenodd" clip-rule="evenodd" d="M141.383 73.3744C141.383 76.7389 138.656 79.4664 135.291 79.4664C131.927 79.4664 129.199 76.7389 129.199 73.3744C129.199 70.0098 131.927 70.0905 135.291 70.0905C138.656 70.0905 141.383 70.0098 141.383 73.3744Z" fill="black"/>
<path d="M120.819 74.5327C122.87 74.5327 124.536 76.1981 124.536 78.2495V86.2243H117.102V78.2495C117.102 76.1981 118.768 74.5327 120.819 74.5327Z" fill="#E59B6A"/>
<path fill-rule="evenodd" clip-rule="evenodd" d="M144.989 89.509C141.838 89.3148 135.947 88.683 132.174 86.6313C127.506 84.0934 124.34 82.7048 121.848 83.7671C121.181 84.0514 120.457 84.0514 119.79 83.7671C117.298 82.7048 114.132 84.0935 109.465 86.6313C105.688 88.6846 99.7907 89.3158 96.6421 89.5094C95.6736 89.569 95.1118 90.6683 95.6755 91.4581C103.459 102.364 115.828 95.8344 118.2 93.8584C119.239 92.9924 120.191 91.4599 120.819 89.8616C121.448 91.4599 122.399 92.9925 123.439 93.8584C125.807 95.8325 138.155 102.351 145.94 91.49C146.511 90.6926 145.968 89.5693 144.989 89.509Z" fill="#EFEFEF"/>
<path d="M101.262 65.3148C101.262 65.3148 107.827 62.1844 111.903 67.3561" stroke="white" stroke-width="2.41626" stroke-miterlimit="10" stroke-linecap="round"/>
<path d="M140.376 65.3148C140.376 65.3148 133.811 62.1844 129.735 67.3561" stroke="white" stroke-width="2.41626" stroke-miterlimit="10" stroke-linecap="round"/>
<path fill-rule="evenodd" clip-rule="evenodd" d="M112.439 73.3744C112.439 76.7389 109.712 79.4664 106.347 79.4664C102.982 79.4664 100.255 76.7389 100.255 73.3744C100.255 70.0098 102.982 70.0905 106.347 70.0905C109.712 70.0905 112.439 70.0098 112.439 73.3744Z" fill="black"/>
<path fill-rule="evenodd" clip-rule="evenodd" d="M90.5448 182.701H94.2647C95.4012 182.701 96.3312 181.771 96.3312 180.635C96.3312 179.498 95.6297 178.568 94.2647 178.568H84.1694C84.3191 171.38 90.1937 165.598 97.4181 165.598C101.596 165.598 105.32 167.532 107.75 170.552C109.558 169.626 111.607 169.104 113.778 169.104C114.507 169.104 115.22 169.164 115.916 169.277C115.916 169.219 115.914 169.162 115.914 169.104C115.914 161.786 121.847 155.853 129.165 155.853C131.876 155.853 134.396 156.668 136.496 158.065C139.397 151.458 145.997 146.843 153.675 146.843C162.691 146.843 170.22 153.206 172.02 161.685C173.781 160.819 175.762 160.333 177.857 160.333C184.095 160.333 189.326 164.643 190.734 170.449C192.491 169.588 194.466 169.104 196.555 169.104C202.557 169.104 207.627 173.095 209.256 178.568H155.178C154.042 178.568 153.112 179.498 153.112 180.635C153.112 181.772 154.072 182.701 155.178 182.701H171.87C174.035 182.701 175.806 184.472 175.806 186.637C175.806 188.802 174.035 190.573 171.87 190.573H90.5449C88.3799 190.573 86.6091 188.802 86.6091 186.637C86.6091 184.473 88.3799 182.701 90.5448 182.701ZM183.397 182.701C181.232 182.701 179.461 184.472 179.461 186.637C179.461 188.802 181.232 190.573 183.397 190.573H183.503C185.668 190.573 187.439 188.802 187.439 186.638C187.439 184.473 185.668 182.701 183.503 182.701H183.397Z" fill="white"/>
<path fill-rule="evenodd" clip-rule="evenodd" d="M149.436 182.4C151.601 182.4 153.372 184.172 153.372 186.336C153.372 188.501 151.601 190.272 149.436 190.272H68.1108C65.9457 190.272 64.1749 188.501 64.1749 186.337C64.1749 184.172 65.9457 182.4 68.1108 182.4H84.8025C85.9092 182.4 86.8691 181.47 86.8691 180.334C86.8691 179.197 85.939 178.267 84.8025 178.267H30.7242C32.3535 172.794 37.4237 168.803 43.4261 168.803C45.5145 168.803 47.4897 169.287 49.2468 170.148C50.6549 164.342 55.8856 160.032 62.1238 160.032C64.2187 160.032 66.1998 160.519 67.9612 161.384C69.7605 152.905 77.29 146.542 86.3056 146.542C93.9838 146.542 100.583 151.157 103.485 157.764C105.584 156.367 108.105 155.552 110.816 155.552C118.134 155.552 124.066 161.485 124.066 168.803C124.066 168.861 124.065 168.918 124.064 168.976C124.761 168.863 125.474 168.803 126.202 168.803C128.373 168.803 130.423 169.326 132.231 170.252C134.66 167.231 138.385 165.297 142.563 165.297C149.787 165.297 155.662 171.079 155.811 178.267H145.716C144.351 178.267 143.65 179.197 143.65 180.334C143.65 181.471 144.58 182.4 145.716 182.4L149.436 182.4ZM56.4775 182.4C54.3125 182.4 52.5417 184.172 52.5417 186.336C52.5417 188.501 54.3125 190.272 56.4775 190.272H56.5834C58.7484 190.272 60.5199 188.501 60.5199 186.337C60.5199 184.172 58.7483 182.4 56.5834 182.4H56.4775Z" fill="white"/>
</g>
<defs>
<clipPath id="clip0_4073_42454">
<rect width="240" height="240" fill="white"/>
</clipPath>
</defs>
</svg>
