<svg width="240" height="241" viewBox="0 0 240 241" fill="none" xmlns="http://www.w3.org/2000/svg">
<path d="M151.659 85.916H183.229V147.691C183.229 152.36 179.439 156.15 174.771 156.15H151.659V85.916Z" fill="#50523A"/>
<path d="M36.5095 136.948H163.115V161.797H61.3583C47.6439 161.797 36.5095 150.663 36.5095 136.948Z" fill="#50523A"/>
<path d="M85.9487 75.0518H167.444V146.523H42.584V118.416C42.584 94.4828 62.0151 75.0518 85.9487 75.0518Z" fill="#70C253"/>
<path d="M38.9899 107.71H132.943V146.524H38.9899C28.2791 146.524 19.5833 137.828 19.5833 127.117C19.5833 116.406 28.2791 107.71 38.9899 107.71Z" fill="#70C253"/>
<path d="M139.47 63.968H182.399V90.2544H139.47C132.216 90.2544 126.327 84.3651 126.327 77.1112C126.327 69.8573 132.216 63.968 139.47 63.968Z" fill="#7DA356"/>
<path d="M160.843 63.968H139.814C132.447 63.968 126.191 69.9966 126.329 77.3622C126.463 84.5052 132.295 90.2542 139.47 90.2542H146.379L160.843 63.968Z" fill="#709347"/>
<path d="M187.423 94.0536H177.008C175.562 94.0536 174.39 92.8813 174.39 91.4352V62.7872C174.39 61.3411 175.562 60.1688 177.008 60.1688H193.895C196.368 60.1688 198.186 62.4886 197.594 64.89L191.122 91.1553C190.703 92.8574 189.176 94.0536 187.423 94.0536Z" fill="#FFCD37"/>
<path d="M128.847 131.802H155.479C157.335 131.802 159.065 132.743 160.072 134.302L184.474 172.059C186.827 175.699 184.214 180.498 179.88 180.498H166.9C163.606 180.498 160.459 179.131 158.211 176.724L124.85 141.005C121.585 137.509 124.064 131.802 128.847 131.802Z" fill="#FFCD37"/>
<path d="M104.469 102.048H46.0742C44.2777 102.048 43.0775 100.197 43.8108 98.557L48.1229 88.9121C48.522 88.0194 49.4085 87.4447 50.3863 87.4447H104.47C105.839 87.4447 106.949 88.5548 106.949 89.9241V99.569C106.949 100.938 105.839 102.048 104.469 102.048Z" fill="#50523A"/>
<path d="M44.3667 97.3136H95.7389V92.1796H46.662L44.3667 97.3136Z" fill="#FFCD37"/>
<path d="M114.614 87.7385H111.805C111.363 87.7385 111.005 88.0968 111.005 88.5388V100.954C111.005 101.396 111.363 101.754 111.805 101.754H114.614C115.056 101.754 115.414 101.396 115.414 100.954V88.5388C115.414 88.0968 115.056 87.7385 114.614 87.7385Z" fill="#559942"/>
<path d="M121.549 87.7386H118.74C118.298 87.7386 117.939 88.097 117.939 88.539V100.954C117.939 101.396 118.298 101.755 118.74 101.755H121.549C121.991 101.755 122.349 101.396 122.349 100.954V88.539C122.349 88.097 121.991 87.7386 121.549 87.7386Z" fill="#559942"/>
<path d="M170.701 119.762H76.2088C74.8549 119.762 73.7573 120.86 73.7573 122.214C73.7573 123.568 74.8549 124.665 76.2088 124.665H170.701C172.055 124.665 173.152 123.568 173.152 122.214C173.152 120.86 172.055 119.762 170.701 119.762Z" fill="#FFCD37"/>
<path d="M40.3236 125.397H19.0431C16.8102 125.397 15 127.207 15 129.44V134.163C15 136.396 16.8102 138.206 19.0431 138.206H40.3236C42.5565 138.206 44.3667 136.396 44.3667 134.163V129.44C44.3667 127.207 42.5565 125.397 40.3236 125.397Z" fill="#255634"/>
<path d="M25.7549 125.397H19.0431C16.8102 125.397 15 127.207 15 129.44V134.163C15 136.396 16.8102 138.206 19.0431 138.206H25.7549V125.397Z" fill="#FF8724"/>
<path opacity="0.3" d="M207.78 99.825C207.78 95.8554 204.562 92.6373 200.592 92.6373C196.623 92.6373 193.405 95.8554 193.405 99.825V134.737C193.405 138.706 196.623 141.924 200.592 141.924C204.562 141.924 207.78 138.706 207.78 134.737V99.825Z" fill="white"/>
<path opacity="0.3" d="M225 103.39C225 100.231 222.439 97.6702 219.28 97.6702C216.121 97.6702 213.561 100.231 213.561 103.39V131.172C213.561 134.331 216.121 136.891 219.28 136.891C222.439 136.891 225 134.331 225 131.172V103.39Z" fill="white"/>
</svg>
