<svg width="240" height="240" viewBox="0 0 240 240" fill="none" xmlns="http://www.w3.org/2000/svg">
<g clip-path="url(#clip0_4073_42689)">
<path d="M113.478 180.186C131.846 180.186 146.737 165.295 146.737 146.927C146.737 128.558 131.846 113.667 113.478 113.667C95.1088 113.667 80.218 128.558 80.218 146.927C80.218 165.295 95.1088 180.186 113.478 180.186Z" fill="#FDB709"/>
<path d="M144.344 71.6509H82.6105C72.3007 71.6509 63.9429 80.0087 63.9429 90.3186V145.909C63.9429 156.219 72.3007 164.577 82.6105 164.577H144.344C154.654 164.577 163.012 156.219 163.012 145.909V90.3186C163.012 80.0087 154.654 71.6509 144.344 71.6509Z" fill="#FDB709"/>
<path d="M60.8186 105.43H71.8252V135.025H60.8186C57.1403 135.025 54.1541 132.039 54.1541 128.361V112.094C54.1541 108.416 57.1403 105.43 60.8186 105.43Z" fill="#FFC200"/>
<path d="M166.136 135.025H155.13V105.429H166.136C169.814 105.429 172.801 108.416 172.801 112.094V128.36C172.801 132.039 169.814 135.025 166.136 135.025Z" fill="#FFC200"/>
<path d="M144.344 64.9526H82.6105C72.3007 64.9526 63.9429 73.3104 63.9429 83.6203V139.211C63.9429 149.521 72.3007 157.879 82.6105 157.879H144.344C154.654 157.879 163.012 149.521 163.012 139.211V83.6203C163.012 73.3104 154.654 64.9526 144.344 64.9526Z" fill="#FFCB03"/>
<path d="M144.897 102.338H83.1C80.3203 102.338 78.0669 104.591 78.0669 107.371V141.893C78.0669 144.673 80.3203 146.926 83.1 146.926H144.897C147.677 146.926 149.93 144.673 149.93 141.893V107.371C149.93 104.591 147.677 102.338 144.897 102.338Z" fill="white"/>
<path d="M108.438 129.46C111.445 132.669 116.538 132.67 119.547 129.463L119.549 129.46L119.559 129.471" stroke="#334D51" stroke-width="5.175" stroke-linecap="round" stroke-linejoin="round"/>
<path d="M140.748 78.576C140.754 78.511 140.76 78.447 140.769 78.3791C140.769 78.3786 140.769 78.378 140.769 78.378C140.781 78.2918 140.795 78.2032 140.811 78.1128C140.814 78.0955 140.818 78.0781 140.821 78.0603C140.837 77.9737 140.855 77.8845 140.876 77.7936C140.879 77.7762 140.884 77.758 140.888 77.7402C140.926 77.5793 140.97 77.4113 141.021 77.2375C141.034 77.1957 141.044 77.1556 141.057 77.1133C141.077 77.0473 141.1 76.9784 141.122 76.9105C141.146 76.8384 141.17 76.7651 141.196 76.689C141.217 76.6289 141.239 76.5668 141.263 76.5046C141.296 76.4116 141.332 76.3178 141.368 76.2215C141.389 76.1694 141.408 76.1189 141.429 76.0661C141.49 75.9148 141.553 75.7603 141.622 75.6014C146.495 64.3322 154.975 64.2521 164.722 58.436C164.948 58.3021 165.17 58.1639 165.39 58.0257C165.433 57.9997 165.475 57.9723 165.518 57.9463C165.729 57.811 165.939 57.6758 166.146 57.5385C166.185 57.5124 166.224 57.4855 166.264 57.459C166.465 57.3247 166.664 57.189 166.862 57.0518C166.876 57.0416 166.892 57.0315 166.907 57.0205C167.113 56.877 167.316 56.732 167.518 56.5857C167.561 56.5544 167.603 56.5236 167.646 56.4918C167.841 56.3502 168.035 56.2063 168.226 56.061C168.262 56.0339 168.298 56.0065 168.334 55.9796C168.51 55.8453 168.685 55.7105 168.858 55.5751C168.887 55.5525 168.916 55.5303 168.945 55.5072C169.13 55.3618 169.313 55.216 169.495 55.0691C169.542 55.031 169.589 54.993 169.636 54.9549C169.812 54.8124 169.987 54.6694 170.16 54.525C170.201 54.4913 170.242 54.4571 170.283 54.4224C170.428 54.3016 170.572 54.1813 170.715 54.0604C170.762 54.0195 170.811 53.9785 170.859 53.9375C171.017 53.8023 171.173 53.6675 171.329 53.5331C171.394 53.4773 171.459 53.4209 171.523 53.3646C171.643 53.2596 171.763 53.1561 171.881 53.0521C171.988 52.9573 172.095 52.8638 172.2 52.7705C172.27 52.7084 172.341 52.6448 172.412 52.5831C176.312 49.1151 179.435 45.9596 182.636 45.5055C182.712 45.4954 182.789 45.4901 182.865 45.4824C183.501 45.5489 184.144 45.7337 184.801 46.0602C189.851 48.5653 190.895 54.9982 187.097 59.6936C186.366 60.5983 185.558 61.4187 184.695 62.1635C185.123 62.2488 185.53 62.3778 185.914 62.5569C185.895 62.5728 185.878 62.5896 185.859 62.6056C185.954 62.6253 186.048 62.6479 186.141 62.6701C186.852 63.0476 187.485 63.6114 188.029 64.4357C190.653 68.4039 189.325 73.2259 185.272 74.6929C183.493 75.3357 181.587 75.5066 179.69 75.38C179.974 75.9529 180.182 76.5933 180.3 77.3279C181.092 82.2944 178.049 85.8395 173.886 84.9068C172.451 84.5852 171.059 83.9617 169.735 83.1485C169.698 83.3112 169.657 83.4691 169.611 83.6241C169.149 88.4355 165.52 90.7533 161.792 88.6069C157.916 86.3748 154.968 81.7267 152.988 77.6327C152.943 77.5556 152.899 77.4773 152.856 77.4002C152.396 77.6404 141.337 83.3383 140.748 78.576Z" fill="white"/>
<path d="M86.2074 78.5764C86.2009 78.5114 86.1951 78.4474 86.1862 78.3795C86.1859 78.3789 86.186 78.3784 86.186 78.3784C86.1742 78.2922 86.16 78.2036 86.1436 78.1132C86.1407 78.0959 86.1371 78.0785 86.134 78.0607C86.1176 77.974 86.1003 77.8849 86.0793 77.794C86.0755 77.7766 86.0706 77.7584 86.0666 77.7406C86.029 77.5797 85.9847 77.4117 85.9337 77.2379C85.9214 77.196 85.9106 77.156 85.8976 77.1137C85.8776 77.0477 85.8545 76.9788 85.8326 76.9109C85.8088 76.8388 85.7845 76.7655 85.7585 76.6894C85.7376 76.6293 85.7154 76.5672 85.692 76.505C85.6588 76.412 85.6234 76.3181 85.5866 76.2219C85.5664 76.1698 85.5468 76.1193 85.5257 76.0664C85.4653 75.9152 85.4019 75.7607 85.3329 75.6018C80.4599 64.3325 71.9795 64.2525 62.2327 58.4364C62.0074 58.3025 61.785 58.1642 61.5644 58.0261C61.5223 58.0001 61.4797 57.9727 61.4371 57.9467C61.2255 57.8114 61.0161 57.6761 60.8088 57.5389C60.7696 57.5128 60.7305 57.4859 60.691 57.4594C60.49 57.3251 60.2907 57.1894 60.0933 57.0521C60.0786 57.042 60.0628 57.0319 60.0478 57.0209C59.8419 56.8774 59.6387 56.7324 59.4372 56.5861C59.3944 56.5548 59.3515 56.524 59.309 56.4922C59.1135 56.3506 58.9201 56.2066 58.7285 56.0613C58.6927 56.0343 58.6568 56.0069 58.6212 55.98C58.4445 55.8456 58.2699 55.7109 58.0971 55.5755C58.0682 55.5528 58.039 55.5307 58.0101 55.5076C57.825 55.3622 57.6418 55.2164 57.4604 55.0695C57.413 55.0314 57.3658 54.9934 57.3188 54.9553C57.1427 54.8128 56.9677 54.6698 56.7946 54.5254C56.7535 54.4917 56.7128 54.4575 56.6718 54.4228C56.5269 54.3019 56.3834 54.1817 56.2402 54.0608C56.1928 54.0199 56.1438 53.9789 56.0957 53.9379C55.9383 53.8027 55.7816 53.6679 55.626 53.5335C55.561 53.4777 55.496 53.4213 55.4315 53.365C55.3115 53.26 55.1923 53.1565 55.0741 53.0525C54.9669 52.9577 54.8603 52.8642 54.7551 52.7709C54.6846 52.7088 54.614 52.6452 54.5434 52.5835C50.6432 49.1157 47.5206 45.96 44.3194 45.506C44.2433 45.4958 44.1662 45.4906 44.0901 45.4829C43.4545 45.5494 42.8116 45.7342 42.1539 46.0606C37.1042 48.5659 36.0602 54.9987 39.8577 59.6941C40.589 60.5988 41.3973 61.4192 42.2598 62.164C41.8315 62.2493 41.4249 62.3783 41.0408 62.5574C41.0595 62.5732 41.0771 62.5901 41.0957 62.6061C41.0008 62.6258 40.9074 62.6484 40.8145 62.6706C40.1028 63.0481 39.4699 63.6119 38.9259 64.4361C36.3023 68.4043 37.6298 73.2263 41.6835 74.6934C43.4619 75.3361 45.3682 75.5071 47.2653 75.3804C46.9812 75.9534 46.7727 76.5938 46.6555 77.3284C45.8635 82.2949 48.9064 85.8399 53.0692 84.9073C54.504 84.5857 55.8964 83.9621 57.2197 83.1489C57.2568 83.3116 57.2982 83.4696 57.3437 83.6246C57.8065 88.436 61.4353 90.7538 65.1633 88.6074C69.0394 86.3752 71.9872 81.7272 73.9673 77.6332C74.0116 77.5561 74.0556 77.4778 74.0987 77.4007C74.559 77.6409 85.6178 83.3387 86.2074 78.5764Z" fill="white"/>
<path d="M98.4813 53.3887H129.515C149.673 53.3887 166.039 69.7543 166.039 89.9122H61.9578C61.9578 69.7543 78.3234 53.3887 98.4813 53.3887Z" fill="#FFB806"/>
<path d="M107.604 50.5278H119.351C122.718 50.5278 125.451 53.2611 125.451 56.6276V87.8044H101.504V56.6276C101.504 53.2611 104.237 50.5278 107.604 50.5278Z" fill="#FFA008"/>
<path d="M62.0935 86.8741H165.903C165.514 82.1553 164.232 77.6921 162.22 73.6528H65.7774C63.7652 77.6921 62.4827 82.1554 62.0935 86.8741Z" fill="#C67D0F"/>
<path d="M169.28 83.8125H58.7165C55.3477 83.8125 52.6167 86.5435 52.6167 89.9123V89.9124C52.6167 93.2812 55.3477 96.0121 58.7165 96.0121H169.28C172.649 96.0121 175.38 93.2812 175.38 89.9124V89.9123C175.38 86.5435 172.649 83.8125 169.28 83.8125Z" fill="#FFB806"/>
<path d="M139.539 135.025C143.273 135.025 146.3 133.073 146.3 130.664C146.3 128.256 143.273 126.304 139.539 126.304C135.806 126.304 132.779 128.256 132.779 130.664C132.779 133.073 135.806 135.025 139.539 135.025Z" fill="#FFDEDE"/>
<path d="M88.4572 135.025C92.1912 135.025 95.2181 133.073 95.2181 130.664C95.2181 128.256 92.1912 126.304 88.4572 126.304C84.7233 126.304 81.6963 128.256 81.6963 130.664C81.6963 133.073 84.7233 135.025 88.4572 135.025Z" fill="#FFDEDE"/>
<path d="M96.1291 128.814C99.4775 128.814 102.192 126.099 102.192 122.751C102.192 119.402 99.4775 116.688 96.1291 116.688C92.7806 116.688 90.0662 119.402 90.0662 122.751C90.0662 126.099 92.7806 128.814 96.1291 128.814Z" fill="#334D51"/>
<path d="M131.868 128.814C135.216 128.814 137.931 126.099 137.931 122.751C137.931 119.402 135.216 116.688 131.868 116.688C128.519 116.688 125.805 119.402 125.805 122.751C125.805 126.099 128.519 128.814 131.868 128.814Z" fill="#334D51"/>
<path d="M196.727 78.5689C196.681 78.531 196.637 78.4933 196.587 78.4551C196.525 78.4068 196.458 78.3581 196.39 78.31C196.377 78.3007 196.363 78.2918 196.35 78.2822C196.284 78.2366 196.216 78.1901 196.144 78.1447C196.13 78.1359 196.116 78.1272 196.102 78.1183C195.974 78.0383 195.838 77.9579 195.694 77.8781C195.66 77.8588 195.627 77.8399 195.592 77.8208C195.537 77.7909 195.478 77.7611 195.42 77.7313C195.358 77.6998 195.296 77.668 195.231 77.6355C195.179 77.6099 195.125 77.5839 195.07 77.5587C194.989 77.5198 194.906 77.4817 194.821 77.443C194.774 77.4223 194.729 77.402 194.682 77.3813C194.546 77.3221 194.406 77.2626 194.26 77.204C183.906 73.0287 178.369 78.3968 168.347 80.8637C168.116 80.9212 167.884 80.974 167.653 81.0254C167.609 81.0355 167.564 81.045 167.52 81.0554C167.296 81.1031 167.075 81.1495 166.853 81.1932C166.811 81.2015 166.768 81.2089 166.726 81.217C166.51 81.2586 166.294 81.2981 166.079 81.3356C166.063 81.3384 166.046 81.342 166.029 81.3444C165.804 81.3831 165.58 81.4192 165.357 81.4533C165.309 81.4604 165.261 81.4679 165.214 81.4745C164.997 81.5078 164.78 81.5382 164.563 81.5667C164.522 81.5722 164.482 81.5774 164.441 81.5826C164.241 81.6087 164.042 81.633 163.844 81.656C163.811 81.6599 163.778 81.6642 163.744 81.6676C163.532 81.6918 163.32 81.7146 163.109 81.7356C163.054 81.7413 162.999 81.7469 162.944 81.7523C162.739 81.7726 162.535 81.7919 162.33 81.8091C162.282 81.8136 162.234 81.8175 162.185 81.8212C162.014 81.8357 161.845 81.8495 161.675 81.8628C161.618 81.8666 161.56 81.8714 161.503 81.8756C161.315 81.8888 161.127 81.9017 160.941 81.9143C160.863 81.9196 160.785 81.9247 160.707 81.9296C160.562 81.9385 160.419 81.9477 160.276 81.956C160.146 81.9631 160.018 81.9709 159.89 81.9777C159.804 81.9826 159.718 81.9866 159.633 81.9918C154.894 82.2412 150.857 82.1957 148.496 83.9479C148.441 83.9901 148.387 84.0358 148.333 84.0795C147.965 84.5287 147.667 85.0592 147.45 85.6907C145.785 90.5384 149.221 95.3668 154.678 95.9769C155.729 96.0947 156.776 96.1089 157.81 96.0394C157.588 96.3682 157.407 96.7116 157.273 97.073C157.295 97.0713 157.317 97.0709 157.34 97.0693C157.291 97.1427 157.245 97.217 157.199 97.2908C156.98 97.9898 156.931 98.759 157.106 99.6399C157.945 103.883 161.885 106.154 165.445 104.512C167.006 103.792 168.348 102.684 169.495 101.39C169.677 101.942 169.951 102.489 170.345 103.039C173.007 106.758 177.241 107.107 179.337 103.843C180.06 102.718 180.562 101.425 180.898 100.053C181.027 100.135 181.154 100.21 181.283 100.281C184.657 103.098 188.486 102.278 189.525 98.507C190.606 94.5859 189.542 89.6953 188.207 85.7816C188.186 85.7035 188.164 85.6246 188.143 85.5472C188.594 85.4084 199.389 82.0262 196.727 78.5689Z" fill="#46B1FF"/>
<path d="M220.364 91.502C220.419 91.5225 220.475 91.5421 220.532 91.5654C220.605 91.5953 220.681 91.6285 220.757 91.6634C220.772 91.67 220.786 91.677 220.801 91.6838C220.874 91.7179 220.948 91.7535 221.024 91.7926C221.038 91.8 221.053 91.8083 221.068 91.816C221.201 91.8855 221.339 91.9628 221.48 92.0472C221.514 92.0675 221.547 92.0861 221.581 92.1072C221.635 92.1398 221.69 92.1759 221.745 92.2105C221.803 92.2479 221.862 92.2859 221.923 92.3261C221.971 92.3582 222.021 92.3919 222.07 92.4265C222.145 92.4769 222.219 92.5294 222.296 92.5838C222.337 92.6134 222.377 92.642 222.419 92.6727C222.538 92.7602 222.66 92.8511 222.784 92.948C231.599 99.7987 229.743 107.284 232.65 117.187C232.717 117.416 232.788 117.643 232.86 117.868C232.873 117.912 232.887 117.955 232.901 117.999C232.972 118.216 233.043 118.431 233.117 118.645C233.131 118.685 233.146 118.725 233.16 118.766C233.233 118.974 233.307 119.18 233.383 119.385C233.389 119.4 233.394 119.417 233.4 119.432C233.48 119.646 233.561 119.858 233.644 120.069C233.662 120.113 233.68 120.158 233.698 120.203C233.778 120.407 233.861 120.61 233.945 120.812C233.961 120.85 233.977 120.887 233.993 120.925C234.071 121.111 234.15 121.295 234.23 121.478C234.243 121.509 234.256 121.539 234.27 121.57C234.356 121.766 234.443 121.961 234.531 122.154C234.553 122.204 234.576 122.254 234.599 122.304C234.684 122.492 234.77 122.678 234.858 122.863C234.879 122.907 234.9 122.951 234.921 122.995C234.994 123.15 235.068 123.304 235.141 123.457C235.167 123.508 235.192 123.56 235.217 123.612C235.3 123.782 235.383 123.95 235.466 124.118C235.501 124.187 235.535 124.258 235.57 124.327C235.636 124.457 235.7 124.585 235.764 124.713C235.824 124.829 235.882 124.944 235.94 125.058C235.979 125.134 236.019 125.21 236.057 125.287C238.224 129.509 240.293 132.975 239.966 135.897C239.957 135.966 239.945 136.035 239.934 136.104C239.731 136.648 239.422 137.172 238.986 137.677C235.633 141.554 229.731 141.012 226.46 136.602C225.83 135.752 225.291 134.854 224.831 133.926C224.659 134.283 224.453 134.612 224.208 134.91C224.198 134.89 224.187 134.87 224.177 134.85C224.138 134.929 224.097 135.006 224.057 135.083C223.563 135.624 222.923 136.053 222.073 136.345C217.983 137.753 214.039 135.489 213.668 131.587C213.506 129.875 213.789 128.157 214.331 126.516C213.762 126.636 213.151 126.674 212.478 126.61C207.925 126.179 205.495 122.695 207.262 119.241C207.871 118.051 208.736 116.967 209.753 115.986C209.618 115.917 209.488 115.844 209.362 115.769C205.231 114.269 204.014 110.547 206.751 107.752C209.597 104.846 214.359 103.307 218.414 102.493C218.492 102.472 218.571 102.451 218.649 102.431C218.542 101.971 216.037 90.9392 220.364 91.502Z" fill="#46B1FF"/>
<path d="M203.028 108.703C210.657 108.703 216.842 102.519 216.842 94.8892C216.842 87.26 210.657 81.0752 203.028 81.0752C195.399 81.0752 189.214 87.26 189.214 94.8892C189.214 102.519 195.399 108.703 203.028 108.703Z" fill="#46B1FF"/>
<path d="M198.097 91.8701L207.959 97.908L150.58 191.624C148.913 194.345 145.351 195.202 142.63 193.536C139.909 191.869 139.052 188.307 140.718 185.586L198.097 91.8701Z" fill="#46B1FF"/>
<path d="M58.6612 175.01C68.123 175.01 75.7934 167.34 75.7934 157.878C75.7934 148.416 68.123 140.746 58.6612 140.746C49.1994 140.746 41.5291 148.416 41.5291 157.878C41.5291 167.34 49.1994 175.01 58.6612 175.01Z" fill="#FF9700"/>
<path d="M168.294 175.01C177.756 175.01 185.426 167.34 185.426 157.878C185.426 148.416 177.756 140.746 168.294 140.746C158.832 140.746 151.162 148.416 151.162 157.878C151.162 167.34 158.832 175.01 168.294 175.01Z" fill="#FF9700"/>
</g>
<defs>
<clipPath id="clip0_4073_42689">
<rect width="202.43" height="148.905" fill="white" transform="translate(37.5706 45.4824)"/>
</clipPath>
</defs>
</svg>
