<svg width="240" height="241" viewBox="0 0 240 241" fill="none" xmlns="http://www.w3.org/2000/svg">
<g clip-path="url(#clip0_4073_26103)">
<path d="M213.441 175.913C210.285 171.729 197.828 154.009 193.002 147.133C192.262 146.079 191.056 145.452 189.768 145.452H31.7267V216.083C31.7267 218.252 33.4755 220.016 35.6449 220.035L231.937 221.711V186.694C231.937 185.086 230.963 183.639 229.474 183.033L215.101 177.187C214.443 176.919 213.869 176.48 213.441 175.913Z" fill="#F98CC2"/>
<path d="M72.6842 73.8726C54.0462 73.8726 38.9391 88.9807 38.9391 107.618C38.9391 126.255 54.0462 141.361 72.6842 141.361C91.3222 141.361 106.428 126.254 106.428 107.618C106.428 88.9817 91.3201 73.8726 72.6842 73.8726ZM72.6842 118.407C66.7238 118.407 61.8924 113.576 61.8924 107.617C61.8924 101.657 66.7239 96.826 72.6842 96.826C78.6445 96.826 83.474 101.657 83.474 107.617C83.474 113.576 78.6425 118.407 72.6842 118.407Z" fill="#EDA13B"/>
<path d="M132.879 73.8726C114.243 73.8726 99.1349 88.9807 99.1349 107.618C99.1349 126.255 114.243 141.361 132.879 141.361C151.515 141.361 166.623 126.254 166.623 107.618C166.623 88.9817 151.515 73.8726 132.879 73.8726ZM132.879 118.407C126.92 118.407 122.088 113.576 122.088 107.617C122.088 101.657 126.92 96.826 132.879 96.826C138.838 96.826 143.67 101.657 143.67 107.617C143.67 113.576 138.839 118.407 132.879 118.407Z" fill="#FBB040"/>
<path opacity="0.4" d="M132.879 73.8726C119.733 73.8726 108.352 81.3941 102.781 92.3645C97.2112 81.3941 85.8287 73.8726 72.6842 73.8726C54.0462 73.8726 38.9391 88.9808 38.9391 107.618C38.9391 108.848 39.0095 110.061 39.1378 111.257C43.3269 111.223 48.687 105.606 51.6672 102.493C56.1422 97.8183 59.3243 103.189 62.1447 105.295C62.1469 105.295 62.1478 105.296 62.1489 105.297C63.2117 100.454 67.5205 96.826 72.6842 96.826C77.6102 96.826 81.7562 100.131 83.0491 104.642C86.5729 107.786 90.5275 110.521 95.1235 107.617C102.284 103.095 106.858 98.7139 111.83 103.388C115.855 107.17 120.399 102.812 124.359 101.012C126.334 98.4689 129.411 96.826 132.879 96.826C136.527 96.826 139.745 98.6403 141.698 101.411C142.176 101.24 142.659 101.047 143.156 100.802C149.817 97.5208 152.602 100.305 156.182 105.974C158.693 109.949 163.793 108.855 166.618 107.847C166.619 107.77 166.623 107.694 166.623 107.618C166.623 88.9807 151.515 73.8726 132.879 73.8726Z" fill="#8B5E3C"/>
<path d="M166.045 98.3303C166.005 98.5711 165.95 98.8096 165.879 99.0441C165.305 100.916 163.375 102.709 161.339 102.631C159.41 102.556 158.249 100.684 157.013 99.4436C155.095 97.524 152.711 95.0138 149.854 94.6984C146.339 94.3095 144.831 97.5283 141.926 98.6615C138.728 99.9115 135.654 97.8311 134.054 95.0873C131.958 91.4922 127.459 93.3875 124.814 95.1231C121.698 97.1698 120.468 101.557 116.823 102.936C113.667 104.13 110.739 101.939 109.111 99.409C106.523 95.3902 103.062 96.6874 100.153 99.5446C98.394 101.271 96.8056 103.821 94.4698 104.822C91.6693 106.022 89.0224 104.354 86.8568 102.682C84.1952 100.628 83.3668 96.5571 79.7022 95.8254C76.7241 95.2303 72.5182 96.187 71.0592 99.1619C69.4465 102.452 65.4961 104.344 62.9091 101.05C61.3774 99.0989 59.5462 96.5906 56.9214 96.209C53.856 95.7643 51.5454 97.9972 50.2388 100.539C48.9205 103.102 46.0739 107.021 42.8213 107.005C39.6078 106.99 38.9761 103.201 38.9014 100.634C38.707 93.9637 42.5438 86.8353 46.8664 82.066C51.7315 76.6973 58.0283 73.0958 65.3069 72.4778C69.2542 72.1436 73.6661 72.1982 77.5777 72.871C81.8237 73.6026 86.0148 74.7379 89.8949 76.6385C93.387 78.3499 96.6143 80.2978 100.66 79.9751C104.742 79.6492 108.581 77.9588 112.374 76.5459C123.633 72.3506 137.433 69.8466 148.841 75.07C151.76 76.4072 154.736 78.4045 157.03 80.6666C160.295 83.8855 162.96 87.7645 164.775 91.9757C165.592 93.8742 166.397 96.2099 166.045 98.3303Z" fill="#F98CC2"/>
<path opacity="0.2" d="M146.877 81.0366C146.877 84.0705 140.61 81.0366 132.879 81.0366C125.148 81.0366 118.882 84.0705 118.882 81.0366C118.882 78.0028 125.148 75.543 132.879 75.543C140.61 75.543 146.877 78.0028 146.877 81.0366Z" fill="white"/>
<path opacity="0.2" d="M84.1278 81.0366C84.1278 84.0705 77.8604 81.0366 70.1308 81.0366C62.4012 81.0366 56.1339 84.0705 56.1339 81.0366C56.1339 78.0028 62.4003 75.543 70.1308 75.543C77.8614 75.543 84.1278 78.0028 84.1278 81.0366Z" fill="white"/>
<path opacity="0.2" d="M116.814 82.4307C117.09 83.6354 114.924 85.1575 111.981 85.8292C109.035 86.5031 106.426 86.0711 106.15 84.8663C105.875 83.6606 108.039 82.1395 110.984 81.4668C113.929 80.794 116.539 81.226 116.814 82.4307Z" fill="white"/>
<path opacity="0.2" d="M54.2606 81.8714C54.8198 82.6461 54.1555 84.0779 52.7763 85.0712C51.3992 86.0636 49.8307 86.2403 49.2715 85.4665C48.7133 84.6907 49.3787 83.258 50.7558 82.2656C52.1329 81.2733 53.7034 81.0956 54.2606 81.8714Z" fill="white"/>
<path d="M169.408 147.441H31.7267V140.853C31.7267 138.67 33.496 136.901 35.6786 136.901H165.456C167.638 136.901 169.408 138.67 169.408 140.853L169.408 147.441Z" fill="#FBB040"/>
<path d="M177.747 210.837C174.303 208.943 170.553 207.477 166.765 206.449C156.228 203.59 144.991 202.328 134.17 204.233C127.166 205.465 120.835 208.545 114.184 210.901C99.8455 215.979 84.0667 214.945 69.9762 209.553C55.6124 204.057 41.503 205.634 31.7267 208.152V216.083C31.7267 218.252 33.4755 220.016 35.6449 220.035L187.326 221.33C185.954 217.535 183.108 213.782 177.747 210.837Z" fill="#FF9FCB"/>
<path d="M189.768 145.452H169.408V221.177L231.937 221.711V186.694C231.937 185.086 230.964 183.639 229.474 183.033L215.102 177.187C214.443 176.919 213.869 176.48 213.441 175.913C210.285 171.729 197.828 154.009 193.002 147.133C192.262 146.079 191.056 145.452 189.768 145.452Z" fill="#FF9FCB"/>
<path d="M197.365 153.341H186.932C184.749 153.341 182.98 155.111 182.98 157.293V169.791C182.98 171.974 184.749 173.743 186.932 173.743H211.844C208.484 169.113 202.156 160.151 197.365 153.341Z" fill="#ACE5F9"/>
<path opacity="0.5" d="M197.365 153.341H188.006L182.98 158.366V169.791C182.98 171.974 184.749 173.743 186.932 173.743H194.457L204.601 163.599C202.159 160.149 199.596 156.512 197.365 153.341Z" fill="white"/>
<path d="M231.166 212.874H209.359C207.176 212.874 205.407 214.643 205.407 216.826V220.258C205.407 222.441 207.176 224.21 209.359 224.21H231.166C233.349 224.21 235.118 222.441 235.118 220.258V216.826C235.118 214.643 233.349 212.874 231.166 212.874Z" fill="white"/>
<path d="M159.529 194.146H43.3805V153.581C43.3805 151.398 45.1498 149.629 47.3324 149.629H155.578C157.76 149.629 159.529 151.398 159.529 153.581V194.146Z" fill="white"/>
<path d="M159.529 153.342H43.3805V194.146H159.529V153.342Z" fill="#ACE5F9"/>
<path opacity="0.5" d="M104.984 153.342L64.1798 194.146H43.3805V170.76L60.7991 153.342H104.984ZM158.012 153.342H126.159L85.3535 194.146H117.205L158.012 153.342Z" fill="white"/>
<path d="M102.781 153.342H100.129V189.407H102.781V153.342Z" fill="white"/>
<path d="M161.403 187.779H41.5079C39.6131 187.779 38.0771 189.315 38.0771 191.209C38.0771 193.104 39.6131 194.64 41.5079 194.64H161.403C163.298 194.64 164.834 193.104 164.834 191.209C164.834 189.315 163.298 187.779 161.403 187.779Z" fill="white"/>
<path d="M192.127 176.147H184.339C183.589 176.147 182.98 176.755 182.98 177.506C182.98 178.257 183.589 178.865 184.339 178.865H192.127C192.877 178.865 193.486 178.257 193.486 177.506C193.486 176.755 192.877 176.147 192.127 176.147Z" fill="white"/>
<path d="M80.7681 220.296C80.7681 231.363 71.798 240.333 60.7319 240.333C49.6658 240.333 40.6946 231.363 40.6946 220.296C40.6946 209.228 49.6647 200.26 60.7319 200.26C71.7991 200.26 80.7681 209.23 80.7681 220.296Z" fill="#414042"/>
<path d="M60.7319 231.039C54.8084 231.039 49.9884 226.22 49.9884 220.296C49.9884 214.371 54.8083 209.553 60.7319 209.553C66.6555 209.553 71.4743 214.373 71.4743 220.296C71.4743 226.218 66.6545 231.039 60.7319 231.039Z" fill="#A7A9AC"/>
<path d="M60.7319 225.994C57.5899 225.994 55.0333 223.439 55.0333 220.296C55.0333 217.155 57.5899 214.598 60.7319 214.598C63.8739 214.598 66.4295 217.155 66.4295 220.296C66.4295 223.439 63.8729 225.994 60.7319 225.994Z" fill="white"/>
<path opacity="0.2" d="M69.1395 206.055C69.1395 207.877 65.3751 206.055 60.7319 206.055C56.0886 206.055 52.3221 207.877 52.3221 206.055C52.3221 204.232 56.0875 202.755 60.7319 202.755C65.3763 202.755 69.1395 204.232 69.1395 206.055Z" fill="white"/>
<path d="M189.376 220.296C189.376 231.363 180.405 240.333 169.339 240.333C158.273 240.333 149.303 231.363 149.303 220.296C149.303 209.228 158.273 200.26 169.339 200.26C180.405 200.26 189.376 209.23 189.376 220.296Z" fill="#414042"/>
<path d="M169.339 231.039C163.416 231.039 158.596 226.22 158.596 220.296C158.596 214.371 163.416 209.553 169.339 209.553C175.263 209.553 180.083 214.373 180.083 220.296C180.083 226.218 175.264 231.039 169.339 231.039Z" fill="#A7A9AC"/>
<path d="M169.339 225.994C166.198 225.994 163.642 223.439 163.642 220.296C163.642 217.155 166.198 214.598 169.339 214.598C172.483 214.598 175.037 217.155 175.037 220.296C175.037 223.439 172.483 225.994 169.339 225.994Z" fill="white"/>
<path opacity="0.2" d="M177.747 206.055C177.747 207.877 173.984 206.055 169.339 206.055C164.695 206.055 160.932 207.877 160.932 206.055C160.932 204.232 164.695 202.755 169.339 202.755C173.984 202.755 177.747 204.232 177.747 206.055Z" fill="white"/>
<path d="M127.532 117.543L50.6992 120.814C47.8621 120.935 45.6602 123.333 45.781 126.17L46.2437 137.038C46.3644 139.875 48.7622 142.077 51.5993 141.956L128.432 138.685C131.269 138.564 133.471 136.166 133.351 133.329L132.888 122.461C132.767 119.624 130.369 117.422 127.532 117.543Z" fill="white"/>
<path d="M58.4877 137.518C57.8325 137.546 57.3008 137.383 56.8928 137.031C56.4873 136.679 56.2699 136.195 56.2434 135.584L55.8599 126.739C55.8334 126.128 55.9905 125.638 56.3365 125.274C56.68 124.91 57.1469 124.714 57.7402 124.688L60.624 124.563C62.0194 124.503 63.213 124.733 64.2097 125.25C65.2064 125.768 65.9848 126.497 66.545 127.436C67.1026 128.376 67.4105 129.458 67.4636 130.684C67.5185 131.95 67.3014 133.081 66.8147 134.076C66.3307 135.072 65.6438 135.859 64.7592 136.437C63.8746 137.016 62.87 137.328 61.7506 137.376L58.4877 137.518ZM59.8661 134.918L61.1016 134.864C62.3062 134.812 63.2122 134.429 63.8144 133.715C64.4191 132.999 64.6846 132.031 64.6108 130.807C64.5326 129.539 64.1659 128.591 63.503 127.963C62.8401 127.338 61.9179 127.048 60.734 127.099L59.5294 127.151C59.0007 127.174 58.7491 127.451 58.772 127.98L59.0399 134.16C59.0628 134.689 59.3373 134.941 59.8661 134.918Z" fill="#FF9FCB"/>
<path d="M76.1213 137.071C74.8755 137.125 73.7378 136.872 72.7083 136.314C71.6787 135.754 70.8488 134.971 70.2235 133.959C69.5983 132.95 69.2575 131.823 69.2033 130.574C69.1475 129.287 69.3892 128.127 69.926 127.098C70.4629 126.07 71.2153 125.244 72.1857 124.617C73.1536 123.994 74.2707 123.654 75.5372 123.599C76.8063 123.544 77.9436 123.786 78.9515 124.324C79.9595 124.864 80.765 125.623 81.3683 126.602C81.9715 127.581 82.3024 128.717 82.3582 130.004C82.4132 131.273 82.1766 132.431 81.6509 133.479C81.1254 134.531 80.3842 135.377 79.4276 136.023C78.4709 136.667 77.3698 137.017 76.1213 137.071ZM76.0114 134.535C77.0896 134.489 77.9543 134.048 78.6057 133.216C79.2596 132.384 79.5586 131.353 79.5055 130.128C79.4524 128.902 79.0658 127.914 78.3432 127.162C77.6233 126.41 76.7241 126.057 75.6459 126.103C74.5471 126.151 73.6613 126.582 72.9884 127.394C72.3129 128.207 72.003 129.225 72.0562 130.451C72.1093 131.676 72.5067 132.677 73.2508 133.448C73.9923 134.22 74.9126 134.583 76.0114 134.535Z" fill="#FF9FCB"/>
<path d="M86.2971 136.63C85.8741 136.648 85.5258 136.542 85.2522 136.311C84.9759 136.077 84.8304 135.761 84.813 135.361L84.3665 125.059C84.3427 124.509 84.4922 124.084 84.8204 123.786C85.1458 123.485 85.5189 123.326 85.9419 123.308C86.2385 123.295 86.5252 123.352 86.8072 123.477C87.0866 123.602 87.3281 123.809 87.5318 124.097L92.3955 130.776C92.4845 130.922 92.6141 130.989 92.7843 130.981C92.9958 130.972 93.096 130.841 93.0851 130.588L92.5926 124.353C92.5536 123.931 92.6658 123.598 92.9292 123.354C93.1951 123.11 93.5383 122.979 93.9613 122.96C94.3843 122.942 94.7324 123.043 95.0056 123.264C95.2788 123.485 95.4271 123.806 95.4454 124.23L95.8905 134.498C95.9134 135.027 95.7611 135.447 95.436 135.758C95.1109 136.067 94.7382 136.233 94.3152 136.251C94.0392 136.263 93.7628 136.206 93.4808 136.081C93.2015 135.956 92.9599 135.749 92.7562 135.461L87.9163 128.556C87.8249 128.413 87.6952 128.344 87.525 128.351C87.2928 128.361 87.1828 128.505 87.1946 128.779L87.6658 135.237C87.7038 135.636 87.5914 135.964 87.326 136.221C87.0632 136.475 86.7201 136.612 86.2971 136.63Z" fill="#FF9FCB"/>
<path d="M106.541 123.779C106.524 123.4 106.647 123.072 106.912 122.797C107.173 122.519 107.506 122.373 107.908 122.356C108.308 122.338 108.651 122.45 108.938 122.691C109.223 122.934 109.376 123.256 109.393 123.656L109.692 130.535C109.759 132.078 109.304 133.33 108.33 134.292C107.356 135.257 106.022 135.775 104.332 135.848C102.663 135.92 101.307 135.519 100.264 134.642C99.2182 133.767 98.6645 132.559 98.5976 131.016L98.2994 124.137C98.2821 123.737 98.3996 123.409 98.6548 123.155C98.9073 122.898 99.2451 122.762 99.6681 122.744C100.091 122.726 100.439 122.832 100.713 123.066C100.989 123.297 101.135 123.613 101.152 124.013L101.45 130.892C101.483 131.633 101.751 132.218 102.258 132.651C102.763 133.084 103.417 133.283 104.22 133.248C105.045 133.212 105.693 132.957 106.171 132.481C106.647 132.006 106.871 131.399 106.839 130.659L106.541 123.779Z" fill="#FF9FCB"/>
<path d="M116.881 135.304C116.481 135.321 116.138 135.215 115.852 134.984C115.568 134.751 115.414 134.435 115.397 134.035L115.038 125.763C115.011 125.128 114.682 124.825 114.048 124.852L112.495 124.919C112.113 124.936 111.796 124.828 111.543 124.596C111.29 124.364 111.155 124.058 111.139 123.676C111.122 123.297 111.23 122.979 111.462 122.726C111.694 122.473 112.001 122.336 112.382 122.319L120.211 121.98C120.611 121.963 120.938 122.073 121.194 122.304C121.447 122.536 121.582 122.843 121.598 123.222C121.615 123.604 121.507 123.921 121.275 124.174C121.041 124.428 120.723 124.563 120.324 124.58L118.802 124.646C118.167 124.674 117.864 125.005 117.891 125.639L118.25 133.911C118.267 134.311 118.15 134.639 117.897 134.896C117.642 135.15 117.304 135.286 116.881 135.304Z" fill="#FF9FCB"/>
<path d="M123.738 134.624C123.738 137.033 125.692 138.989 128.103 138.989H156.071C158.482 138.989 160.434 137.033 160.434 134.624C160.434 132.214 158.482 130.26 156.071 130.26H128.103C125.692 130.26 123.738 132.214 123.738 134.624Z" fill="#FFEED5"/>
<path d="M159.059 123.428C159.059 124.187 159.674 124.804 160.433 124.804C161.193 124.804 161.81 124.187 161.81 123.428C161.81 122.667 161.193 122.051 160.433 122.051C159.674 122.051 159.059 122.667 159.059 123.428Z" fill="#FFEED5"/>
<path d="M157.263 116.647C157.263 117.4 156.653 118.01 155.899 118.01C155.146 118.01 154.536 117.4 154.536 116.647C154.536 115.893 155.147 115.283 155.899 115.283C156.653 115.283 157.263 115.893 157.263 116.647Z" fill="#FFEED5"/>
<path d="M165.087 116.647C165.087 117.044 164.764 117.365 164.368 117.365C163.971 117.365 163.65 117.044 163.65 116.647C163.65 116.25 163.971 115.928 164.368 115.928C164.764 115.928 165.087 116.25 165.087 116.647Z" fill="#FFEED5"/>
<path d="M128.196 130.26C128.196 132.669 130.149 134.624 132.56 134.624H140.944C143.355 134.624 145.308 132.669 145.308 130.26C145.308 127.85 143.355 125.896 140.944 125.896H132.56C130.149 125.896 128.196 127.85 128.196 130.26Z" fill="#FFEED5"/>
<path fill-rule="evenodd" clip-rule="evenodd" d="M142.709 129.684C142.756 129.677 142.796 129.697 142.84 129.712C143.507 129.966 144.199 130.114 144.912 130.174C146.277 130.289 147.585 130.068 148.838 129.514C149.284 129.316 149.686 129.048 150.051 128.723C150.7 128.145 151.177 127.447 151.53 126.657C151.543 126.628 151.56 126.6 151.576 126.572C151.52 126.949 151.398 127.31 151.253 127.661C150.851 128.633 150.24 129.438 149.35 130.017C148.814 130.366 148.22 130.566 147.598 130.689C147.063 130.796 146.522 130.82 145.981 130.785C144.809 130.707 143.721 130.359 142.737 129.708C142.726 129.702 142.717 129.694 142.709 129.684Z" fill="#E14343"/>
<path fill-rule="evenodd" clip-rule="evenodd" d="M142.709 129.684C141.9 129.148 141.262 128.459 140.838 127.581C140.766 127.552 140.724 127.5 140.692 127.428C140.522 127.029 140.391 126.618 140.327 126.187C140.319 126.143 140.319 126.098 140.312 126.053C140.308 126.035 140.302 126.016 140.3 125.996C140.295 125.93 140.298 125.865 140.287 125.798C140.284 125.77 140.277 125.742 140.274 125.713C140.263 125.597 140.306 125.488 140.314 125.374C140.322 125.234 140.274 125.101 140.274 124.962C140.275 124.932 140.284 124.905 140.287 124.875C140.296 124.817 140.295 124.757 140.3 124.698C140.302 124.68 140.308 124.662 140.312 124.643C140.319 124.601 140.319 124.558 140.325 124.515C140.411 123.937 140.589 123.388 140.853 122.87C141.06 122.458 141.314 122.076 141.617 121.726C142.022 121.254 142.484 120.854 143.015 120.533C143.488 120.246 143.987 120.017 144.53 119.898C144.549 119.894 144.569 119.886 144.588 119.878C145.246 119.715 145.909 119.675 146.582 119.773C146.622 119.777 146.663 119.78 146.697 119.808C146.956 120.222 147.492 120.429 147.966 120.298C148.012 120.286 148.055 120.286 148.1 120.277C148.444 120.402 148.764 120.575 149.075 120.764C149.932 121.283 150.653 121.942 151.142 122.829C151.449 123.386 151.607 123.987 151.678 124.616C151.75 125.268 151.71 125.91 151.589 126.551C151.588 126.557 151.581 126.565 151.576 126.571C151.433 127.101 151.145 127.551 150.819 127.981C150.161 128.854 149.31 129.453 148.275 129.804C147.677 130.007 147.069 130.16 146.442 130.224C145.933 130.275 145.425 130.27 144.915 130.234C144.339 130.195 143.778 130.077 143.224 129.912C143.043 129.859 142.884 129.752 142.709 129.684Z" fill="#FF5F5E"/>
<path fill-rule="evenodd" clip-rule="evenodd" d="M135.026 125.729C134.235 124.892 133.774 123.901 133.66 122.753C133.389 120.046 135.165 117.667 137.545 116.901C138.429 116.617 139.326 116.574 140.235 116.757C140.26 116.761 140.282 116.77 140.306 116.778C140.35 116.801 140.383 116.839 140.409 116.88C140.584 117.164 140.863 117.275 141.173 117.333C141.364 117.369 141.543 117.333 141.72 117.261C141.777 117.233 141.825 117.263 141.871 117.286C142.372 117.53 142.838 117.826 143.261 118.188C143.591 118.468 143.889 118.779 144.146 119.126C144.189 119.184 144.246 119.238 144.236 119.322C144.228 119.405 144.162 119.426 144.098 119.438C143.754 119.51 143.428 119.64 143.116 119.793C142.693 120.001 142.304 120.26 141.94 120.559C141.675 120.779 141.414 121.004 141.172 121.251C140.737 121.699 140.388 122.209 140.081 122.75C139.756 123.316 139.468 123.902 139.125 124.46C138.821 124.957 138.472 125.416 137.994 125.762C137.578 126.064 137.108 126.218 136.592 126.234C136.257 126.245 135.929 126.224 135.609 126.112C135.38 126.032 135.197 125.892 135.026 125.729Z" fill="#FF5F5E"/>
<path fill-rule="evenodd" clip-rule="evenodd" d="M141.733 117.289C141.655 117.377 141.55 117.392 141.445 117.399C141.08 117.421 140.748 117.333 140.479 117.069C140.396 116.988 140.333 116.893 140.306 116.778C140.391 116.769 140.492 116.851 140.552 116.798C140.616 116.741 140.632 116.633 140.669 116.546C141.982 113.369 144.09 110.86 146.998 109.028C149.018 107.756 151.213 106.928 153.545 106.445C153.785 106.394 154.03 106.355 154.271 106.313C154.507 106.275 154.697 106.146 154.89 106.022C155.072 105.904 155.249 105.772 155.471 105.737C155.513 105.731 155.553 105.725 155.593 105.719H155.844C156.235 105.764 156.573 105.912 156.813 106.237C157.075 106.589 157.033 106.972 156.7 107.256C156.388 107.524 156.022 107.645 155.614 107.575C155.368 107.533 155.172 107.586 154.975 107.741C153.917 108.576 152.997 109.546 152.183 110.617C150.502 112.83 149.343 115.305 148.515 117.945C148.299 118.634 148.111 119.331 147.94 120.033C147.91 120.153 147.925 120.218 148.047 120.248C148.064 120.252 148.082 120.267 148.1 120.277C147.994 120.38 147.862 120.405 147.723 120.404C147.411 120.4 147.125 120.311 146.879 120.112C146.795 120.046 146.721 119.966 146.687 119.861C146.697 119.829 146.723 119.808 146.752 119.812C146.884 119.827 146.904 119.736 146.927 119.64C147.167 118.644 147.455 117.662 147.791 116.695C148.064 115.912 148.373 115.142 148.716 114.385C149.128 113.47 149.593 112.583 150.12 111.729C150.629 110.903 151.184 110.109 151.808 109.363C152.203 108.886 152.622 108.428 153.06 107.99C153.208 107.842 153.378 107.718 153.513 107.557C152.29 107.82 151.1 108.202 149.947 108.697C148.912 109.141 147.931 109.68 147.004 110.315C146.464 110.684 145.954 111.091 145.467 111.526C145.122 111.833 144.796 112.158 144.484 112.496C143.806 113.226 143.218 114.026 142.706 114.883C142.307 115.55 141.961 116.244 141.66 116.961C141.62 117.06 141.587 117.148 141.709 117.213C141.734 117.227 141.744 117.258 141.733 117.289Z" fill="#6BAE08"/>
<path fill-rule="evenodd" clip-rule="evenodd" d="M135.026 125.729C135.289 125.929 135.58 126.073 135.905 126.128C136.794 126.28 137.592 126.097 138.263 125.462C138.721 125.029 139.045 124.5 139.347 123.959C139.672 123.378 139.968 122.78 140.33 122.221C140.65 121.725 141.03 121.281 141.472 120.886C141.854 120.547 142.246 120.224 142.685 119.962C143.118 119.703 143.573 119.496 144.066 119.384C144.117 119.372 144.176 119.373 144.199 119.312C144.255 119.292 144.284 119.324 144.313 119.362C144.416 119.504 144.5 119.658 144.574 119.818C144.591 119.858 144.595 119.896 144.564 119.931C144.239 120.044 143.909 120.141 143.594 120.289C143.142 120.503 142.726 120.767 142.342 121.088C141.832 121.515 141.408 122.017 141.073 122.595C140.745 123.157 140.52 123.757 140.405 124.398C140.398 124.437 140.399 124.479 140.396 124.521C140.369 124.558 140.402 124.607 140.374 124.644C140.374 124.661 140.372 124.677 140.372 124.695C140.341 124.749 140.38 124.812 140.349 124.867V124.942C140.328 125.205 140.328 125.469 140.348 125.732C140.349 125.757 140.349 125.781 140.349 125.807C140.38 125.869 140.341 125.941 140.372 126.002C140.372 126.018 140.374 126.035 140.374 126.052C140.402 126.089 140.369 126.139 140.398 126.176C140.422 126.53 140.544 126.86 140.662 127.191C140.71 127.325 140.763 127.459 140.838 127.581C140.656 127.573 140.481 127.622 140.301 127.635C138.483 127.772 136.855 127.294 135.441 126.131C135.291 126.01 135.147 125.882 135.026 125.729Z" fill="#FF2A25"/>
<path fill-rule="evenodd" clip-rule="evenodd" d="M142.78 123.426C142.781 122.73 143.348 122.162 144.043 122.162C144.742 122.161 145.31 122.733 145.307 123.435C145.304 124.129 144.736 124.696 144.04 124.693C143.345 124.692 142.778 124.123 142.78 123.426Z" fill="#FFB9B7"/>
<path fill-rule="evenodd" clip-rule="evenodd" d="M137.386 121.295C136.686 121.296 136.125 120.737 136.124 120.037C136.118 119.338 136.679 118.773 137.378 118.77C138.083 118.768 138.649 119.329 138.647 120.034C138.647 120.733 138.087 121.294 137.386 121.295Z" fill="#FFB9B7"/>
<path d="M146.405 130.26C146.405 132.882 148.53 135.007 151.152 135.007C153.775 135.007 155.9 132.882 155.9 130.26C155.9 127.637 153.775 125.513 151.152 125.513C148.53 125.513 146.405 127.639 146.405 130.26Z" fill="#FFEED5"/>
<path d="M20.6794 240.333C19.7163 240.333 18.9283 239.545 18.9283 238.582V205.127C18.9283 204.164 19.7162 203.376 20.6793 203.376C21.6424 203.376 22.4303 204.164 22.4303 205.128V238.582C22.4303 239.545 21.6423 240.333 20.6794 240.333Z" fill="#CD9486"/>
<path d="M21.3856 240.333C20.4225 240.333 19.6346 239.545 19.6346 238.582V205.127C19.6346 204.164 20.4225 203.376 21.3856 203.376C22.3486 203.376 23.1366 204.164 23.1366 205.127V238.582C23.1366 239.545 22.3486 240.333 21.3856 240.333Z" fill="#EFB39D"/>
<path d="M35.557 196.764C38.7799 188.937 35.0478 179.98 27.2211 176.757C19.3944 173.534 10.437 177.266 7.21408 185.093C3.9912 192.92 7.72333 201.877 15.55 205.1C23.3767 208.323 32.3342 204.591 35.557 196.764Z" fill="#FF5F5E"/>
<path opacity="0.3" d="M9.25108 185.828C9.9651 184.278 10.988 182.834 12.2829 181.663C13.5575 180.469 15.0895 179.539 16.7374 178.905C18.3888 178.275 20.1684 177.978 21.9354 177.986C23.6976 178.027 25.4869 178.494 26.9141 179.54C27.2141 179.76 27.2791 180.182 27.0591 180.482C26.9164 180.676 26.6889 180.772 26.4649 180.755L26.4481 180.754L24.133 180.574C23.3822 180.53 22.6451 180.495 21.9052 180.493C20.4238 180.465 18.9534 180.719 17.5399 181.159C16.1386 181.637 14.7902 182.313 13.587 183.222C12.3709 184.117 11.3107 185.229 10.3783 186.475L10.3662 186.492C10.1504 186.78 9.74154 186.839 9.45285 186.623C9.20176 186.436 9.12483 186.101 9.25108 185.828Z" fill="white"/>
<path d="M36.8684 189.98C36.9614 193.254 35.8282 196.584 33.6752 199.147C31.5436 201.714 28.4263 203.534 25.0344 204.008C23.3598 204.255 21.5739 204.227 19.8814 203.752C18.1933 203.275 16.6115 202.403 15.2831 201.23C12.5903 198.896 11.085 195.259 11.3254 191.578C11.4124 190.647 11.6188 189.724 11.9504 188.841C12.3042 187.969 12.7504 187.127 13.3292 186.374C14.4793 184.869 16.0621 183.676 17.874 183.012C18.7775 182.684 19.7305 182.458 20.6963 182.406C21.6588 182.327 22.7125 182.407 23.6871 182.685C25.6546 183.235 27.4156 184.505 28.57 186.224C29.1466 187.082 29.5863 188.047 29.823 189.066C29.9353 189.576 30.026 190.094 30.049 190.616C30.0922 191.129 30.0632 191.712 29.9808 192.255C29.6655 194.475 28.2707 196.502 26.3172 197.658C25.3441 198.245 24.2211 198.595 23.0834 198.697C22.5334 198.754 21.8891 198.74 21.2831 198.637C20.6757 198.524 20.0698 198.352 19.5122 198.073C18.3896 197.537 17.4128 196.686 16.7376 195.625C16.0455 194.574 15.6761 193.304 15.6428 192.042L15.6396 191.918C15.6031 190.529 16.6997 189.373 18.089 189.337C19.4783 189.3 20.6341 190.397 20.6706 191.786C20.6728 191.871 20.6703 191.959 20.6643 192.042C20.6117 192.737 20.983 193.469 21.6371 193.85C21.973 194.042 22.2934 194.138 22.7676 194.128C23.2402 194.119 23.7135 194.017 24.1424 193.795C25.0017 193.362 25.7003 192.526 25.9041 191.54C26.0128 191.073 26.0112 190.477 25.9214 189.91C25.8325 189.344 25.6215 188.798 25.3302 188.295C24.745 187.287 23.7817 186.48 22.6535 186.082C22.0816 185.881 21.5009 185.794 20.8522 185.805C20.1999 185.794 19.5539 185.912 18.9267 186.093C16.4028 186.817 14.3399 189.143 13.9772 191.866C13.6281 194.621 14.5999 197.674 16.7049 199.713C17.7386 200.744 19.0089 201.556 20.4083 202.046C21.8142 202.533 23.3232 202.656 24.8544 202.528C27.9076 202.292 30.8605 200.825 32.9994 198.549C35.1538 196.28 36.4493 193.182 36.5543 189.98C36.5569 189.893 36.629 189.825 36.7157 189.827C36.799 189.83 36.8656 189.898 36.8684 189.98Z" fill="#FF2A25"/>
<path d="M21.3855 207.196C12.4158 207.196 5.11829 199.898 5.11829 190.928C5.11829 181.958 12.4158 174.661 21.3855 174.661C30.3551 174.661 37.6532 181.958 37.6532 190.928C37.6532 199.898 30.3557 207.196 21.3855 207.196ZM21.3855 176.544C13.4542 176.544 7.00127 182.997 7.00127 190.928C7.00127 198.86 13.4542 205.313 21.3855 205.313C29.3168 205.313 35.7702 198.86 35.7702 190.928C35.7702 182.997 29.3173 176.544 21.3855 176.544Z" fill="#FF2A25"/>
<path opacity="0.3" d="M14.0717 188.083C14.4007 187.158 14.872 186.295 15.4686 185.596C16.0559 184.883 16.7618 184.327 17.5211 183.948C18.282 183.572 19.1019 183.395 19.9162 183.4C20.7281 183.424 21.5525 183.703 22.2102 184.328C22.3483 184.459 22.3783 184.711 22.2769 184.89C22.2112 185.007 22.1064 185.064 22.0031 185.054L21.9954 185.053L20.9286 184.945C20.5827 184.919 20.2431 184.898 19.9021 184.897C19.2196 184.88 18.5422 185.032 17.8908 185.295C17.2452 185.581 16.624 185.984 16.0695 186.527C15.5092 187.062 15.0207 187.726 14.5911 188.47L14.5857 188.48C14.4861 188.652 14.2977 188.687 14.1648 188.559C14.0492 188.446 14.0136 188.247 14.0717 188.083Z" fill="white"/>
</g>
<defs>
<clipPath id="clip0_4073_26103">
<rect width="240" height="240" fill="white" transform="translate(0 0.333008)"/>
</clipPath>
</defs>
</svg>
