<svg width="240" height="241" viewBox="0 0 240 241" fill="none" xmlns="http://www.w3.org/2000/svg">
<g clip-path="url(#clip0_4056_13380)">
<g clip-path="url(#clip1_4056_13380)">
<path d="M93.1533 60.5742L113.564 80.9849" stroke="#9AC1C1" stroke-width="13.2043" stroke-miterlimit="10"/>
<path d="M37.307 31.2329L79.4526 73.3785C81.7732 75.6992 85.5358 75.6992 87.8565 73.3785L105.957 55.2777C108.278 52.957 108.278 49.1945 105.957 46.8738L63.8117 4.72822C61.491 2.40753 57.7284 2.40753 55.4077 4.72822L37.307 22.829C34.9863 25.1496 34.9863 28.9122 37.307 31.2329Z" fill="#69C4D2" stroke="white" stroke-width="5.3085" stroke-miterlimit="10"/>
<path d="M95.2915 62.7128L48.536 15.9573" stroke="white" stroke-width="5.3085" stroke-miterlimit="10"/>
<path d="M93.8449 34.7615L67.3402 61.2662" stroke="white" stroke-width="5.3085" stroke-miterlimit="10"/>
<path d="M76.416 17.3325L49.9114 43.8372" stroke="white" stroke-width="5.3085" stroke-miterlimit="10"/>
<path d="M146.847 114.268L126.436 93.8573" stroke="#9AC1C1" stroke-width="13.2043" stroke-miterlimit="10"/>
<path d="M141.966 54.6127L182.136 21.912L185.87 25.6464L153.17 65.8169L141.966 54.6127Z" fill="#9ECC8B"/>
<path d="M133.013 31.2975C121.432 43.3386 121.567 62.4836 133.433 74.3496C145.299 86.2156 164.444 86.3499 176.485 74.769L133.013 31.2975Z" fill="#4BAD21"/>
<path d="M41.8787 143.862C36.0068 149.968 36.0749 159.675 42.0914 165.691C48.1079 171.708 57.8151 171.776 63.9204 165.904L41.8787 143.862Z" fill="#4BAD21"/>
<path d="M202.693 143.61L160.547 101.464C158.226 99.1432 154.464 99.1432 152.143 101.464L134.042 119.565C131.722 121.885 131.722 125.648 134.042 127.968L176.188 170.114C178.509 172.435 182.271 172.435 184.592 170.114L202.693 152.013C205.013 149.693 205.013 145.93 202.693 143.61Z" fill="#69C4D2" stroke="white" stroke-width="5.3085" stroke-miterlimit="10"/>
<path d="M142.504 85.8202L121.962 65.2791L46.4185 140.823L66.9596 161.364L142.504 85.8202Z" fill="white"/>
<path d="M121.962 65.2791L142.503 85.8202" stroke="#70C253" stroke-width="11.4437" stroke-miterlimit="10" stroke-linecap="round"/>
<path d="M45.3999 141.841L65.941 162.383" stroke="#70C253" stroke-width="11.4437" stroke-miterlimit="10" stroke-linecap="round"/>
<path d="M70.9208 116.321L91.4619 136.862" stroke="#70C253" stroke-width="11.4437" stroke-miterlimit="10" stroke-linecap="round"/>
<path d="M96.4414 90.7999L116.983 111.341" stroke="#70C253" stroke-width="11.4437" stroke-miterlimit="10" stroke-linecap="round"/>
<path d="M190.4 26.5904C187.857 29.133 183.735 29.133 181.192 26.5904C178.649 24.0478 178.649 19.9254 181.192 17.3828C183.735 14.8402 187.857 14.8402 190.4 17.3828C192.942 19.9254 192.942 24.0478 190.4 26.5904Z" fill="#E25F3F"/>
<path d="M144.708 112.13L191.464 158.885" stroke="white" stroke-width="5.3085" stroke-miterlimit="10"/>
<path d="M172.66 113.576L146.155 140.081" stroke="white" stroke-width="5.3085" stroke-miterlimit="10"/>
<path d="M190.088 131.005L163.584 157.51" stroke="white" stroke-width="5.3085" stroke-miterlimit="10"/>
</g>
</g>
<defs>
<clipPath id="clip0_4056_13380">
<rect width="240" height="240" fill="white" transform="translate(0 0.333374)"/>
</clipPath>
<clipPath id="clip1_4056_13380">
<rect width="174.176" height="174.176" fill="white" transform="translate(32.9121 0.333374)"/>
</clipPath>
</defs>
</svg>
