<svg width="240" height="241" viewBox="0 0 240 241" fill="none" xmlns="http://www.w3.org/2000/svg">
<g clip-path="url(#clip0_4073_44475)">
<g clip-path="url(#clip1_4073_44475)">
<path d="M47.4257 226.964C47.2621 231.934 43.858 238.079 43.858 238.079C43.858 238.079 50.5546 240.578 57.4388 240.108C64.4332 239.63 69.7851 236.117 69.7851 236.117C69.7851 236.117 64.8568 230.255 64.8785 226.153C64.8995 222.182 47.5565 222.993 47.4257 226.964Z" fill="#967D70"/>
<path d="M47.0667 216.833C47.8362 221.671 44.6647 226.674 44.6647 226.674C44.6647 226.674 49.7872 229.341 56.6714 228.871C63.6659 228.393 66.8404 225.055 66.8404 225.055C66.8404 225.055 62.1255 218.392 63.2317 215.299C64.5798 211.53 46.4426 212.91 47.0667 216.833Z" fill="#5D4440"/>
<path d="M47.079 207.152C47.7843 211.586 44.8776 216.171 44.8776 216.171C44.8776 216.171 49.5612 218.376 55.8822 218.185C63.4133 217.957 66.0973 214.531 66.0973 214.531C66.0973 214.531 61.9991 207.563 63.0129 204.728C64.2486 201.274 46.5071 203.556 47.079 207.152Z" fill="#967D70"/>
<path d="M46.2752 195.382C46.9805 199.816 44.1385 205.35 44.1385 205.35C44.1385 205.35 48.8335 207.795 55.1432 207.364C61.5539 206.926 64.4634 203.867 64.4634 203.867C64.4634 203.867 60.6657 196.878 61.6795 194.044C62.9152 190.589 45.7033 191.786 46.2752 195.382Z" fill="#5D4440"/>
<path d="M45.6011 185.51C46.3064 189.944 43.3997 194.529 43.3997 194.529C43.3997 194.529 48.0946 196.974 54.4043 196.543C60.815 196.106 63.7245 193.046 63.7245 193.046C63.7245 193.046 59.9109 187.299 60.9247 184.464C62.1604 181.009 45.0292 181.915 45.6011 185.51Z" fill="#967D70"/>
<path d="M45.0011 175.251C45.7064 179.685 42.7997 184.271 42.7997 184.271C42.7997 184.271 47.4946 186.716 53.8043 186.285C60.2149 185.847 63.1245 182.787 63.1245 182.787C63.1245 182.787 59.3109 177.04 60.3248 174.205C61.5604 170.75 44.4293 171.656 45.0011 175.251Z" fill="#5D4440"/>
<path d="M45.1111 160.654C45.1111 160.654 40.5802 151.646 26.8691 154.204C19.7139 155.538 15.1131 161.939 15.1131 161.939C15.1131 161.939 25.3127 158.961 23.3092 159.663C14.858 162.624 12.2725 173.386 12.2725 173.386C12.2725 173.386 20.1926 165.509 18.4743 166.955C9.7203 174.324 16.9411 188.707 16.9411 188.707L23.8544 170.593L41.2281 162.731L45.1111 160.654Z" fill="#167F39"/>
<path d="M47.1919 151.07C47.1919 151.07 35.1193 138.39 38.8306 136.192C41.9253 134.36 45.0457 142.157 44.4693 140.671C42.2711 135.004 46.6183 127.936 46.6183 127.936C46.6183 127.936 47.2823 135.752 47.3466 134.18C47.7611 124.044 59.3778 117.338 59.3778 117.338C59.3778 117.338 58.3664 121.987 58.936 121.182C62.0561 116.773 72.8079 115.085 72.8079 115.085C72.8079 115.085 69.9739 117.865 70.7666 117.609C80.1193 114.586 86.4396 118.732 86.4396 118.732C86.4396 118.732 73.7209 123.764 75.6849 121.851C78.4208 119.184 84.0337 123.283 84.0337 123.283C84.0337 123.283 68.4002 127.784 71.6281 127.277C77.004 126.433 78.9466 129.829 78.9466 129.829C78.9466 129.829 65.5079 130.761 65.6526 134.075C65.6982 135.12 69.9434 135.021 69.9434 135.021C69.9434 135.021 62.8172 148.346 55.5154 147.509C53.0932 147.232 64.9904 142.638 66.1912 144.909C68.61 149.485 53.3393 161.522 53.3393 161.522L48.0859 161.213L47.1919 151.07Z" fill="#469962"/>
<path d="M52.3244 160.249C52.3244 160.249 52.2833 134.871 33.6248 127.298C25.5348 124.015 14.9312 127.621 14.9312 127.621C14.9312 127.621 24.0611 130.131 22.1171 129.705C10.1657 127.088 1.71344 140.349 1.71344 140.349C1.71344 140.349 10.9777 136.086 10.788 136.2C-0.22772 142.865 0.000360627 152.1 0.000360627 152.1C0.000360627 152.1 11.8537 144.441 11.5934 140.628C11.5869 140.533 8.80039 148.352 12.5061 148.099C23.752 147.331 21.4601 144.665 24.6177 144.22C30.8401 143.344 52.3244 160.249 52.3244 160.249Z" fill="#167F39"/>
<path d="M58.6389 160.016C58.6389 160.016 61.9453 150.976 75.8769 151.646C83.1471 151.996 88.5333 157.211 88.5333 157.211C88.5333 157.211 78.0234 155.647 80.1038 156.07C88.8791 157.855 92.9037 168.166 92.9037 168.166C92.9037 168.166 83.9862 161.438 85.8852 162.637C95.5597 168.747 90.3613 183.979 90.3613 183.979L81.0496 166.973L62.7683 161.546L58.6389 160.016Z" fill="#167F39"/>
<path d="M64.401 169.064C64.6158 172.209 62.0995 174.943 58.7806 175.169L47.363 175.949C44.0443 176.175 41.1797 173.809 40.9649 170.664L40.6407 165.918C40.4259 162.773 42.9422 160.039 46.261 159.812L57.6786 159.033C60.9974 158.806 63.8621 161.172 64.0768 164.318L64.401 169.064Z" fill="#9C8578"/>
<path d="M50.849 160.643C50.849 160.643 51.6979 156.866 48.1941 149.762C48.0742 149.519 46.519 151.755 46.482 151.214C46.1774 146.753 39.9118 141.936 39.9118 141.936C39.9118 141.936 41.076 146.982 40.4974 146.092C36.2248 139.517 28.7969 138.308 28.7969 138.308C28.7969 138.308 32.3161 142.273 31.3467 141.758C24.6646 138.209 20.3132 140.795 20.3132 140.795C20.3132 140.795 23.8907 143.172 22.6916 143.207C8.13031 143.629 4.24563 153.049 4.24563 153.049C4.24563 153.049 12.3404 150.133 10.8458 150.978C0.479304 156.835 2.18516 171.5 2.18516 171.5C2.18516 171.5 14.6565 158.156 14.6394 153.484C14.6361 152.628 13.8589 159.736 13.8589 159.736C13.8589 159.736 19.0951 155.373 18.513 152.743C18.2763 151.673 18.711 157.116 18.711 157.116C18.711 157.116 24.5353 152.522 31.265 152.349C31.3653 152.346 29.7244 154.838 29.7244 154.838C29.7244 154.838 38.267 156.162 39.0518 154.392C39.7021 152.925 33.1174 157.372 33.1174 157.372C33.1174 157.372 44.3059 157.657 43.5442 161.237C43.245 162.643 50.849 160.643 50.849 160.643Z" fill="#6BCC78"/>
<path d="M53.2766 160.477C53.2766 160.477 51.9221 156.85 54.4276 149.336C54.5133 149.079 56.358 151.083 56.3211 150.542C56.0165 146.081 61.5691 140.457 61.5691 140.457C61.5691 140.457 61.1016 145.614 61.5538 144.654C64.893 137.559 72.0876 135.352 72.0876 135.352C72.0876 135.352 69.14 139.758 70.0303 139.116C76.168 134.691 80.8305 136.662 80.8305 136.662C80.8305 136.662 77.6094 139.504 78.8021 139.375C93.2856 137.814 98.4149 146.619 98.4149 146.619C98.4149 146.619 89.9988 144.83 91.5943 145.463C102.661 149.857 102.965 164.618 102.965 164.618C102.965 164.618 88.7948 153.093 88.1768 148.462C88.0635 147.613 89.8 154.55 89.8 154.55C89.8 154.55 84.0192 150.939 84.2384 148.254C84.3274 147.162 84.6366 152.614 84.6366 152.614C84.6366 152.614 78.242 148.854 71.5511 149.597C71.4514 149.608 73.4157 151.854 73.4157 151.854C73.4157 151.854 65.1325 154.327 64.1143 152.68C63.2706 151.315 70.3989 154.826 70.3989 154.826C70.3989 154.826 59.353 156.629 60.5944 160.073C61.0819 161.425 53.2766 160.477 53.2766 160.477Z" fill="#6BCC78"/>
<path d="M42.5596 164.547C40.9678 169.233 36.5551 172.395 36.5551 172.395C36.5551 172.395 35.2414 168.539 35.2525 169.528C35.3316 176.58 28.0222 185.948 28.0222 185.948L26.3572 180.721L20.8389 195.689C20.8389 195.689 18.7973 182 21.9728 179.876C23.2237 179.039 17.2986 183.628 17.2986 183.628C17.2986 183.628 17.5228 175.126 23.0502 172.078C23.9216 171.598 19.057 172.541 19.057 172.541C19.057 172.541 20.5033 167.198 28.1958 166.386C28.8335 166.319 25.9081 165.303 25.9081 165.303C25.9081 165.303 31.8389 160.797 42.2945 163.612C42.5402 163.678 42.6382 164.316 42.5596 164.547Z" fill="#469962"/>
<path d="M62.1333 163.21C64.3473 167.637 69.1489 170.17 69.1489 170.17C69.1489 170.17 69.9262 166.17 70.0497 167.152C70.93 174.149 79.4451 182.436 79.4451 182.436L80.3842 177.031L87.886 191.11C87.886 191.11 88.0477 177.271 84.613 175.598C83.26 174.939 89.7539 178.68 89.7539 178.68C89.7539 178.68 88.3758 170.287 82.4855 168.019C81.5568 167.661 86.5046 167.935 86.5046 167.935C86.5046 167.935 84.3453 162.838 76.614 163.08C75.9729 163.1 78.7332 161.695 78.7332 161.695C78.7332 161.695 72.2448 158.038 62.269 162.247C62.0345 162.346 62.0239 162.992 62.1333 163.21Z" fill="#469962"/>
<path d="M43.1468 168.09C45.904 167.901 47.9945 165.63 47.8161 163.017C47.6376 160.404 45.2578 158.439 42.5006 158.627C39.7433 158.815 37.6528 161.086 37.8313 163.699C38.0097 166.312 40.3896 168.278 43.1468 168.09Z" fill="#5F4E4A"/>
<path d="M62.3786 166.776C65.1358 166.588 67.2263 164.317 67.0479 161.704C66.8694 159.091 64.4896 157.125 61.7324 157.313C58.9752 157.502 56.8847 159.773 57.0631 162.386C57.2416 164.999 59.6214 166.965 62.3786 166.776Z" fill="#5F4E4A"/>
<path d="M52.9852 169.47C56.3375 169.241 58.8792 166.479 58.6622 163.302C58.4451 160.125 55.5515 157.735 52.1991 157.964C48.8468 158.193 46.3051 160.955 46.5222 164.132C46.7392 167.309 49.6328 169.699 52.9852 169.47Z" fill="#432F2A"/>
<path d="M192.574 226.964C192.738 231.934 196.142 238.079 196.142 238.079C196.142 238.079 189.446 240.578 182.561 240.108C175.567 239.63 170.215 236.117 170.215 236.117C170.215 236.117 175.143 230.255 175.122 226.153C175.101 222.182 192.444 222.993 192.574 226.964Z" fill="#967D70"/>
<path d="M192.933 216.833C192.164 221.671 195.335 226.674 195.335 226.674C195.335 226.674 190.213 229.341 183.329 228.871C176.334 228.393 173.16 225.055 173.16 225.055C173.16 225.055 177.875 218.392 176.768 215.299C175.42 211.53 193.557 212.91 192.933 216.833Z" fill="#5D4440"/>
<path d="M192.921 207.152C192.216 211.586 195.122 216.171 195.122 216.171C195.122 216.171 190.439 218.376 184.118 218.185C176.587 217.957 173.903 214.531 173.903 214.531C173.903 214.531 178.001 207.563 176.987 204.728C175.751 201.274 193.493 203.556 192.921 207.152Z" fill="#967D70"/>
<path d="M193.725 195.382C193.019 199.816 195.861 205.35 195.861 205.35C195.861 205.35 191.167 207.795 184.857 207.364C178.446 206.926 175.537 203.867 175.537 203.867C175.537 203.867 179.334 196.878 178.321 194.044C177.085 190.589 194.297 191.786 193.725 195.382Z" fill="#5D4440"/>
<path d="M194.399 185.51C193.694 189.944 196.6 194.529 196.6 194.529C196.6 194.529 191.905 196.974 185.596 196.543C179.185 196.106 176.276 193.046 176.276 193.046C176.276 193.046 180.089 187.299 179.075 184.464C177.84 181.009 194.971 181.915 194.399 185.51Z" fill="#967D70"/>
<path d="M194.999 175.251C194.294 179.685 197.2 184.271 197.2 184.271C197.2 184.271 192.505 186.716 186.196 186.285C179.785 185.847 176.875 182.787 176.875 182.787C176.875 182.787 180.689 177.04 179.675 174.205C178.44 170.75 195.571 171.656 194.999 175.251Z" fill="#5D4440"/>
<path d="M194.889 160.654C194.889 160.654 199.42 151.646 213.131 154.204C220.286 155.538 224.887 161.939 224.887 161.939C224.887 161.939 214.687 158.961 216.691 159.663C225.142 162.624 227.727 173.386 227.727 173.386C227.727 173.386 219.807 165.509 221.526 166.955C230.28 174.324 223.059 188.707 223.059 188.707L216.146 170.593L198.772 162.731L194.889 160.654Z" fill="#167F39"/>
<path d="M192.808 151.07C192.808 151.07 204.881 138.39 201.169 136.192C198.075 134.36 194.954 142.157 195.531 140.671C197.729 135.004 193.382 127.936 193.382 127.936C193.382 127.936 192.718 135.752 192.653 134.18C192.239 124.044 180.622 117.338 180.622 117.338C180.622 117.338 181.634 121.987 181.064 121.182C177.944 116.773 167.192 115.085 167.192 115.085C167.192 115.085 170.026 117.865 169.233 117.609C159.881 114.586 153.56 118.732 153.56 118.732C153.56 118.732 166.279 123.764 164.315 121.851C161.579 119.184 155.966 123.283 155.966 123.283C155.966 123.283 171.6 127.784 168.372 127.277C162.996 126.433 161.053 129.829 161.053 129.829C161.053 129.829 174.492 130.761 174.347 134.075C174.302 135.12 170.057 135.021 170.057 135.021C170.057 135.021 177.183 148.346 184.485 147.509C186.907 147.232 175.01 142.638 173.809 144.909C171.39 149.485 186.661 161.522 186.661 161.522L191.914 161.213L192.808 151.07Z" fill="#469962"/>
<path d="M187.676 160.249C187.676 160.249 187.717 134.871 206.375 127.298C214.465 124.015 225.069 127.621 225.069 127.621C225.069 127.621 215.939 130.131 217.883 129.705C229.834 127.088 238.287 140.349 238.287 140.349C238.287 140.349 229.022 136.086 229.212 136.2C240.228 142.865 240 152.1 240 152.1C240 152.1 228.146 144.441 228.407 140.628C228.413 140.533 231.2 148.352 227.494 148.099C216.248 147.331 218.54 144.665 215.382 144.22C209.16 143.343 187.676 160.249 187.676 160.249Z" fill="#167F39"/>
<path d="M181.361 160.016C181.361 160.016 178.055 150.976 164.123 151.646C156.853 151.996 151.467 157.211 151.467 157.211C151.467 157.211 161.977 155.647 159.896 156.07C151.121 157.855 147.096 168.166 147.096 168.166C147.096 168.166 156.014 161.438 154.115 162.637C144.44 168.747 149.639 183.979 149.639 183.979L158.95 166.973L177.232 161.546L181.361 160.016Z" fill="#167F39"/>
<path d="M175.599 169.064C175.384 172.209 177.901 174.943 181.219 175.169L192.637 175.949C195.956 176.175 198.82 173.809 199.035 170.664L199.359 165.918C199.574 162.773 197.058 160.039 193.739 159.812L182.321 159.033C179.003 158.806 176.138 161.172 175.923 164.318L175.599 169.064Z" fill="#9C8578"/>
<path d="M189.151 160.643C189.151 160.643 188.302 156.866 191.806 149.762C191.926 149.519 193.481 151.755 193.518 151.214C193.823 146.753 200.088 141.936 200.088 141.936C200.088 141.936 198.924 146.982 199.503 146.092C203.775 139.517 211.203 138.308 211.203 138.308C211.203 138.308 207.684 142.273 208.653 141.758C215.335 138.209 219.687 140.795 219.687 140.795C219.687 140.795 216.109 143.172 217.309 143.207C231.87 143.629 235.754 153.049 235.754 153.049C235.754 153.049 227.66 150.133 229.154 150.978C239.521 156.835 237.815 171.5 237.815 171.5C237.815 171.5 225.344 158.156 225.361 153.484C225.364 152.628 226.141 159.736 226.141 159.736C226.141 159.736 220.905 155.373 221.487 152.743C221.724 151.673 221.289 157.116 221.289 157.116C221.289 157.116 215.465 152.522 208.735 152.349C208.635 152.346 210.276 154.838 210.276 154.838C210.276 154.838 201.733 156.162 200.948 154.392C200.298 152.925 206.883 157.372 206.883 157.372C206.883 157.372 195.694 157.657 196.456 161.237C196.755 162.643 189.151 160.643 189.151 160.643Z" fill="#6BCC78"/>
<path d="M186.723 160.477C186.723 160.477 188.078 156.85 185.572 149.336C185.487 149.079 183.642 151.083 183.679 150.542C183.984 146.081 178.431 140.457 178.431 140.457C178.431 140.457 178.898 145.614 178.446 144.654C175.107 137.559 167.912 135.352 167.912 135.352C167.912 135.352 170.86 139.758 169.97 139.116C163.832 134.691 159.17 136.662 159.17 136.662C159.17 136.662 162.391 139.504 161.198 139.375C146.714 137.814 141.585 146.619 141.585 146.619C141.585 146.619 150.001 144.83 148.406 145.463C137.339 149.857 137.036 164.618 137.036 164.618C137.036 164.618 151.205 153.093 151.823 148.462C151.937 147.613 150.2 154.55 150.2 154.55C150.2 154.55 155.981 150.939 155.762 148.254C155.673 147.162 155.363 152.614 155.363 152.614C155.363 152.614 161.758 148.854 168.449 149.597C168.549 149.608 166.584 151.854 166.584 151.854C166.584 151.854 174.868 154.327 175.886 152.68C176.729 151.315 169.601 154.826 169.601 154.826C169.601 154.826 180.647 156.629 179.406 160.073C178.918 161.425 186.723 160.477 186.723 160.477Z" fill="#6BCC78"/>
<path d="M197.441 164.547C199.032 169.233 203.445 172.395 203.445 172.395C203.445 172.395 204.759 168.539 204.748 169.528C204.669 176.58 211.978 185.948 211.978 185.948L213.643 180.721L219.161 195.689C219.161 195.689 221.203 182 218.027 179.876C216.776 179.039 222.702 183.628 222.702 183.628C222.702 183.628 222.477 175.126 216.95 172.078C216.078 171.598 220.943 172.541 220.943 172.541C220.943 172.541 219.497 167.198 211.804 166.386C211.167 166.319 214.092 165.303 214.092 165.303C214.092 165.303 208.161 160.797 197.706 163.612C197.46 163.678 197.362 164.316 197.441 164.547Z" fill="#469962"/>
<path d="M177.867 163.21C175.653 167.637 170.851 170.17 170.851 170.17C170.851 170.17 170.074 166.17 169.95 167.152C169.07 174.149 160.555 182.436 160.555 182.436L159.616 177.031L152.114 191.11C152.114 191.11 151.952 177.271 155.387 175.598C156.74 174.939 150.246 178.68 150.246 178.68C150.246 178.68 151.624 170.287 157.515 168.019C158.443 167.661 153.496 167.935 153.496 167.935C153.496 167.935 155.655 162.838 163.386 163.08C164.027 163.1 161.267 161.695 161.267 161.695C161.267 161.695 167.755 158.038 177.731 162.247C177.966 162.346 177.976 162.992 177.867 163.21Z" fill="#469962"/>
<path d="M202.169 163.699C202.347 161.086 200.257 158.815 197.5 158.627C194.742 158.438 192.363 160.404 192.184 163.017C192.006 165.63 194.096 167.901 196.853 168.089C199.611 168.278 201.99 166.312 202.169 163.699Z" fill="#5F4E4A"/>
<path d="M182.937 162.386C183.115 159.773 181.025 157.502 178.268 157.314C175.511 157.125 173.131 159.091 172.952 161.704C172.774 164.317 174.864 166.588 177.622 166.776C180.379 166.965 182.759 164.999 182.937 162.386Z" fill="#5F4E4A"/>
<path d="M193.478 164.131C193.695 160.954 191.153 158.193 187.801 157.964C184.448 157.735 181.555 160.125 181.338 163.302C181.121 166.479 183.662 169.24 187.015 169.469C190.367 169.698 193.261 167.308 193.478 164.131Z" fill="#432F2A"/>
<path d="M175.134 98.822C156.846 74.7635 151.688 73.3887 128.008 72.9307H118.512C94.832 73.3887 89.674 74.7636 71.3865 98.822C53.0991 122.881 46.0656 144.647 55.9127 150.605C65.7596 156.562 72.5589 163.665 72.5589 168.477C72.5589 173.288 61.3051 183.828 79.3579 184.516C97.4109 185.203 121.091 184.516 121.091 184.516L123.26 115.69L125.429 184.516C125.429 184.516 149.109 185.203 167.162 184.516C185.215 183.828 173.961 173.289 173.961 168.477C173.961 163.665 180.76 156.562 190.607 150.605C200.454 144.647 193.421 122.881 175.134 98.822Z" fill="#B2804F"/>
<path d="M124.069 141.36H195.033C195.072 139.219 194.769 136.817 194.137 134.188H123.843L124.069 141.36Z" fill="#AE7D4D"/>
<path d="M124.608 158.459L124.834 165.631H174.624C175.561 163.431 177.471 160.969 180.105 158.459H124.608Z" fill="#AE7D4D"/>
<path d="M59.4105 117.089H123.216L123.26 115.69L123.304 117.089H187.11C185.837 114.759 184.41 112.363 182.856 109.917H63.6638C62.11 112.363 60.6833 114.759 59.4105 117.089Z" fill="#AE7D4D"/>
<path d="M121.912 158.459H66.4153C69.0495 160.969 70.9591 163.431 71.8964 165.631H121.686L121.912 158.459Z" fill="#AE7D4D"/>
<path d="M122.677 134.188H52.3836C51.7509 136.817 51.4486 139.219 51.4873 141.36H122.451L122.677 134.188Z" fill="#AE7D4D"/>
<path d="M162.062 83.3712C160.357 81.7187 158.718 80.3364 157.083 79.1753V105.032H162.062V83.3712Z" fill="#AE7D4D"/>
<path d="M140.261 73.4951V98.5809H145.241V74.1968C143.684 73.8941 142.034 73.6671 140.261 73.4951Z" fill="#AE7D4D"/>
<path d="M106.061 73.5146C104.29 73.6915 102.638 73.9236 101.082 74.2339V98.5811H106.061V73.5146Z" fill="#AE7D4D"/>
<path d="M84.2603 83.5659V105.032H89.24V79.314C87.6071 80.491 85.9682 81.8957 84.2603 83.5659Z" fill="#AE7D4D"/>
<path d="M171.769 114.445C171.294 110.117 168.769 106.215 164.936 104.028L162.635 102.718C137.184 88.2198 105.894 88.772 80.9736 104.156C77.3519 106.39 74.9692 110.25 74.5423 114.45C66.7653 117.782 61.3036 125.512 61.3036 134.495C61.3036 143.449 66.7334 151.16 74.473 154.509V156.834C74.473 164.949 79.1917 172.481 86.4951 176.021C98.1466 181.666 110.653 184.488 123.16 184.488C135.667 184.488 148.176 181.666 159.827 176.021C167.131 172.481 171.85 164.949 171.85 156.834V154.509C179.589 151.16 185.019 143.449 185.019 134.495C185.019 125.508 179.552 117.774 171.769 114.445Z" fill="#A57449"/>
<path d="M182.145 240.043H64.178L80.8473 177.695C82.3269 172.162 87.3403 168.312 93.0685 168.312H153.254C158.982 168.312 163.996 172.162 165.475 177.695L182.145 240.043Z" fill="#CE9251"/>
<path d="M157.507 169.06C156.168 168.581 154.738 168.312 153.254 168.312H93.0685C91.5849 168.312 90.154 168.581 88.8153 169.06C94.1942 178.467 104.305 184.821 115.917 184.821H130.406C142.018 184.821 152.129 178.467 157.507 169.06Z" fill="#C68A4F"/>
<path d="M83.0972 147.664C90.3704 147.664 96.2665 141.768 96.2665 134.494C96.2665 127.221 90.3704 121.325 83.0972 121.325C75.8241 121.325 69.928 127.221 69.928 134.494C69.928 141.768 75.8241 147.664 83.0972 147.664Z" fill="#F9BA75"/>
<path d="M156.066 168.258C135.285 178.328 111.038 178.328 90.257 168.258C85.8782 166.137 83.0973 161.699 83.0973 156.833V115.81C83.0973 114.053 84.0079 112.42 85.5036 111.497C107.728 97.7759 135.671 97.2838 158.366 110.213L160.666 111.524C162.248 112.426 163.225 114.107 163.225 115.929V156.833C163.225 161.699 160.445 166.137 156.066 168.258Z" fill="#F9BA75"/>
<path d="M163.226 147.664C170.499 147.664 176.395 141.768 176.395 134.494C176.395 127.221 170.499 121.325 163.226 121.325C155.952 121.325 150.056 127.221 150.056 134.494C150.056 141.768 155.952 147.664 163.226 147.664Z" fill="#F9BA75"/>
<path d="M128.076 139.279C128.076 141.993 125.876 144.194 123.161 144.194C120.447 144.194 118.246 141.993 118.246 139.279C118.246 136.564 120.447 135.801 123.161 135.801C125.876 135.801 128.076 136.564 128.076 139.279Z" fill="#A05C12"/>
<path d="M106.398 139.997C109.437 139.997 111.901 137.533 111.901 134.494C111.901 131.455 109.437 128.992 106.398 128.992C103.359 128.992 100.896 131.455 100.896 134.494C100.896 137.533 103.359 139.997 106.398 139.997Z" fill="#4F2900"/>
<path d="M139.924 139.997C142.963 139.997 145.427 137.533 145.427 134.494C145.427 131.455 142.963 128.992 139.924 128.992C136.885 128.992 134.422 131.455 134.422 134.494C134.422 137.533 136.885 139.997 139.924 139.997Z" fill="#4F2900"/>
<path d="M114.093 149.674C116.392 152.625 120.854 152.625 123.153 149.674L123.165 149.688C125.464 152.634 129.919 152.634 132.219 149.688L132.23 149.674" stroke="#C07E30" stroke-width="3.8333" stroke-linecap="round" stroke-linejoin="round"/>
<path d="M72.6774 208.253L71.2888 213.447H175.034L173.645 208.253H72.6774Z" fill="#C68A4F"/>
<path d="M78.2068 187.572L76.8184 192.766H169.504L168.116 187.572H78.2068Z" fill="#C68A4F"/>
<path d="M180.563 234.129L179.175 228.935H67.1481L65.7593 234.129H180.563Z" fill="#C68A4F"/>
<path d="M56.8225 204.178H80.587C88.281 204.178 94.5275 210.424 94.5275 218.118V236.127C94.5275 238.288 92.7728 240.043 90.6114 240.043H46.7981C44.6367 240.043 42.882 238.288 42.882 236.127V218.118C42.882 210.424 49.1284 204.178 56.8225 204.178Z" fill="#A57449"/>
<path d="M56.7757 220.832C57.5245 220.832 58.1323 221.44 58.1323 222.189V240.043H55.4191V222.189C55.4191 221.44 56.0269 220.832 56.7757 220.832Z" fill="#9B6842"/>
<path d="M68.1901 220.832C68.9389 220.832 69.5468 221.44 69.5468 222.189V240.043H66.8335V222.189C66.8335 221.44 67.4414 220.832 68.1901 220.832Z" fill="#9B6842"/>
<path d="M79.6044 220.832C80.3532 220.832 80.9611 221.44 80.9611 222.189V240.043H78.2478V222.189C78.2478 221.44 78.8557 220.832 79.6044 220.832Z" fill="#9B6842"/>
<path d="M165.736 204.178H189.5C197.194 204.178 203.441 210.424 203.441 218.118V236.127C203.441 238.288 201.686 240.043 199.525 240.043H155.711C153.55 240.043 151.795 238.288 151.795 236.127V218.118C151.795 210.424 158.042 204.178 165.736 204.178Z" fill="#A57449"/>
<path d="M165.689 220.832C166.438 220.832 167.046 221.44 167.046 222.189V240.043H164.332V222.189C164.332 221.44 164.94 220.832 165.689 220.832Z" fill="#9B6842"/>
<path d="M177.103 220.832C177.852 220.832 178.46 221.44 178.46 222.189V240.043H175.747V222.189C175.747 221.44 176.354 220.832 177.103 220.832Z" fill="#9B6842"/>
<path d="M188.518 220.832C189.266 220.832 189.874 221.44 189.874 222.189V240.043H187.161V222.189C187.161 221.44 187.769 220.832 188.518 220.832Z" fill="#9B6842"/>
<path d="M114.566 204.492H131.757C137.421 204.492 142.019 209.09 142.019 214.754V240.043H104.304V214.754C104.304 209.09 108.902 204.492 114.566 204.492Z" fill="#C48749"/>
<path opacity="0.1" d="M163.226 147.528C154.974 148.074 146.801 150.033 139.094 153.447V174.09C144.906 172.835 150.607 170.903 156.066 168.258C160.445 166.137 163.226 161.699 163.226 156.833V147.528Z" fill="#C07E30"/>
<path opacity="0.1" d="M107.229 153.62C99.5146 150.159 91.3421 148.154 83.0972 147.559V156.833C83.0972 161.699 85.8781 166.136 90.257 168.258C95.7159 170.903 101.417 172.835 107.229 174.09V153.62Z" fill="#C07E30"/>
<path d="M128.247 66.5913H118.076C115.148 66.5913 112.774 68.965 112.774 71.8932V104.816C112.774 107.744 115.148 110.118 118.076 110.118H128.247C131.175 110.118 133.548 107.744 133.548 104.816V71.8932C133.548 68.965 131.175 66.5913 128.247 66.5913Z" fill="#C68A4F"/>
</g>
</g>
<defs>
<clipPath id="clip0_4073_44475">
<rect width="240" height="240" fill="white" transform="translate(0 0.166504)"/>
</clipPath>
<clipPath id="clip1_4073_44475">
<rect width="240" height="173.575" fill="white" transform="translate(0 66.5913)"/>
</clipPath>
</defs>
</svg>
