<svg width="240" height="241" viewBox="0 0 240 241" fill="none" xmlns="http://www.w3.org/2000/svg">
<g clip-path="url(#clip0_4073_26161)">
<path d="M111.694 148.472H128.306L149.217 227.441H160.645L130.196 112.456H109.803L79.3549 227.441H90.7826L111.694 148.472Z" fill="#C94B75"/>
<path d="M120 156.461C141.176 156.461 158.342 139.294 158.342 118.118C158.342 96.9423 141.176 79.7759 120 79.7759C98.824 79.7759 81.6576 96.9423 81.6576 118.118C81.6576 139.294 98.824 156.461 120 156.461Z" stroke="#FF3B61" stroke-width="4.8689" stroke-miterlimit="10"/>
<path d="M120 189.013C159.154 189.013 190.895 157.272 190.895 118.118C190.895 78.9639 159.154 47.2231 120 47.2231C80.8457 47.2231 49.105 78.9639 49.105 118.118C49.105 157.272 80.8457 189.013 120 189.013Z" stroke="#FF3B61" stroke-width="4.8689" stroke-miterlimit="10"/>
<path d="M122.523 42.5991H117.477V193.637H122.523V42.5991Z" fill="#FF7B8E"/>
<path d="M195.519 120.641V115.596L44.4812 115.596V120.641L195.519 120.641Z" fill="#FF7B8E"/>
<path d="M171.616 173.301L175.183 169.734L68.3838 62.9343L64.8163 66.5018L171.616 173.301Z" fill="#FF7B8E"/>
<path d="M175.183 66.502L171.616 62.9346L64.8164 169.734L68.3839 173.302L175.183 66.502Z" fill="#FF7B8E"/>
<path d="M120 34.3385C121.488 34.3385 122.694 33.1324 122.694 31.6446C122.694 30.1568 121.488 28.9507 120 28.9507C118.512 28.9507 117.306 30.1568 117.306 31.6446C117.306 33.1324 118.512 34.3385 120 34.3385Z" fill="#97BC0F"/>
<path d="M136.432 47.2232C136.432 56.2986 129.075 61.2746 120 61.2746C110.925 61.2746 103.568 56.2986 103.568 47.2232C103.568 38.1478 110.925 30.7908 120 30.7908C129.075 30.7908 136.432 38.1478 136.432 47.2232Z" fill="#A3CB36"/>
<path d="M109.438 52.9994C110.224 52.9994 110.861 52.3621 110.861 51.576C110.861 50.7899 110.224 50.1526 109.438 50.1526C108.652 50.1526 108.014 50.7899 108.014 51.576C108.014 52.3621 108.652 52.9994 109.438 52.9994Z" fill="#97BC0F"/>
<path d="M130.562 52.9994C131.348 52.9994 131.986 52.3621 131.986 51.576C131.986 50.7899 131.348 50.1526 130.562 50.1526C129.776 50.1526 129.139 50.7899 129.139 51.576C129.139 52.3621 129.776 52.9994 130.562 52.9994Z" fill="#97BC0F"/>
<path d="M108.697 47.8187C107.617 47.8187 106.775 46.8581 106.939 45.791C107.915 39.455 113.391 34.6035 120 34.6035C126.609 34.6035 132.085 39.455 133.061 45.791C133.225 46.8581 132.383 47.8187 131.303 47.8187H108.697Z" fill="#90D5F2" stroke="white" stroke-width="1.21723" stroke-miterlimit="10"/>
<g opacity="0.1">
<path d="M128.563 37.7578C126.256 35.7928 123.268 34.6035 120 34.6035C119.645 34.6035 119.296 34.6243 118.948 34.6516L107.332 44.0901C107.169 44.6446 107.029 45.2089 106.939 45.791C106.775 46.8581 107.617 47.8187 108.697 47.8187H116.18L128.563 37.7578Z" fill="white"/>
<path d="M132.095 42.4959C131.711 41.6238 131.229 40.8065 130.674 40.0454L121.106 47.8189H125.544L132.095 42.4959Z" fill="white"/>
</g>
<path d="M65.1078 57.0759C66.5956 57.0759 67.8017 55.8697 67.8017 54.3819C67.8017 52.8941 66.5956 51.688 65.1078 51.688C63.6199 51.688 62.4138 52.8941 62.4138 54.3819C62.4138 55.8697 63.6199 57.0759 65.1078 57.0759Z" fill="#FF7F00"/>
<path d="M81.5401 69.9602C81.5401 79.0356 74.1831 84.0116 65.1077 84.0116C56.0323 84.0116 48.6753 79.0356 48.6753 69.9602C48.6753 60.8849 56.0323 53.5278 65.1077 53.5278C74.1831 53.5278 81.5401 60.8849 81.5401 69.9602Z" fill="#FF9A2C"/>
<path d="M54.5455 75.7364C55.3316 75.7364 55.9689 75.0992 55.9689 74.313C55.9689 73.5269 55.3316 72.8896 54.5455 72.8896C53.7593 72.8896 53.1221 73.5269 53.1221 74.313C53.1221 75.0992 53.7593 75.7364 54.5455 75.7364Z" fill="#FF7F00"/>
<path d="M75.6701 75.7364C76.4562 75.7364 77.0935 75.0992 77.0935 74.313C77.0935 73.5269 76.4562 72.8896 75.6701 72.8896C74.884 72.8896 74.2467 73.5269 74.2467 74.313C74.2467 75.0992 74.884 75.7364 75.6701 75.7364Z" fill="#FF7F00"/>
<path d="M53.8049 70.556C52.7252 70.556 51.8829 69.5954 52.0472 68.5283C53.0229 62.1923 58.4987 57.3408 65.1078 57.3408C71.7168 57.3408 77.1927 62.1923 78.1684 68.5283C78.3327 69.5954 77.4904 70.556 76.4106 70.556H53.8049Z" fill="#90D5F2" stroke="white" stroke-width="1.21723" stroke-miterlimit="10"/>
<g opacity="0.1">
<path d="M73.6706 60.4951C71.3639 58.5301 68.3756 57.3408 65.1079 57.3408C64.7531 57.3408 64.4036 57.3616 64.0562 57.3889L52.4397 66.8274C52.2766 67.3819 52.1369 67.9462 52.0472 68.5283C51.8828 69.5954 52.7253 70.556 53.8049 70.556H61.288L73.6706 60.4951Z" fill="white"/>
<path d="M77.2028 65.233C76.8186 64.3609 76.3369 63.5436 75.7817 62.7825L66.2142 70.556H70.6516L77.2028 65.233Z" fill="white"/>
</g>
<path d="M42.3707 111.968C43.8585 111.968 45.0646 110.762 45.0646 109.274C45.0646 107.786 43.8585 106.58 42.3707 106.58C40.8829 106.58 39.6768 107.786 39.6768 109.274C39.6768 110.762 40.8829 111.968 42.3707 111.968Z" fill="#FF50BC"/>
<path d="M58.8032 124.852C58.8032 133.928 51.4462 138.904 42.3708 138.904C33.2954 138.904 25.9384 133.928 25.9384 124.852C25.9384 115.777 33.2954 108.42 42.3708 108.42C51.4462 108.42 58.8032 115.777 58.8032 124.852Z" fill="#FF76C4"/>
<path d="M31.8084 130.629C32.5945 130.629 33.2318 129.992 33.2318 129.205C33.2318 128.419 32.5945 127.782 31.8084 127.782C31.0223 127.782 30.385 128.419 30.385 129.205C30.385 129.992 31.0223 130.629 31.8084 130.629Z" fill="#FF50BC"/>
<path d="M52.933 130.629C53.7192 130.629 54.3564 129.992 54.3564 129.205C54.3564 128.419 53.7192 127.782 52.933 127.782C52.1469 127.782 51.5096 128.419 51.5096 129.205C51.5096 129.992 52.1469 130.629 52.933 130.629Z" fill="#FF50BC"/>
<path d="M31.0679 125.448C29.9882 125.448 29.1458 124.488 29.3101 123.42C30.2858 117.084 35.7616 112.233 42.3707 112.233C48.9798 112.233 54.4556 117.084 55.4313 123.42C55.5956 124.488 54.7533 125.448 53.6735 125.448H31.0679Z" fill="#90D5F2" stroke="white" stroke-width="1.21723" stroke-miterlimit="10"/>
<g opacity="0.1">
<path d="M50.9334 115.387C48.6268 113.422 45.6384 112.233 42.3707 112.233C42.0159 112.233 41.6664 112.254 41.319 112.281L29.7025 121.72C29.5394 122.274 29.3997 122.838 29.31 123.42C29.1457 124.488 29.9881 125.448 31.0678 125.448H38.5508L50.9334 115.387Z" fill="white"/>
<path d="M54.4658 120.125C54.0815 119.253 53.5998 118.436 53.0447 117.675L43.4772 125.448H47.9145L54.4658 120.125Z" fill="white"/>
</g>
<path d="M65.1078 166.86C66.5956 166.86 67.8017 165.654 67.8017 164.166C67.8017 162.678 66.5956 161.472 65.1078 161.472C63.6199 161.472 62.4138 162.678 62.4138 164.166C62.4138 165.654 63.6199 166.86 65.1078 166.86Z" fill="#B84AFF"/>
<path d="M81.5401 179.744C81.5401 188.82 74.1831 193.796 65.1077 193.796C56.0323 193.796 48.6753 188.82 48.6753 179.744C48.6753 170.669 56.0323 163.312 65.1077 163.312C74.1831 163.312 81.5401 170.669 81.5401 179.744Z" fill="#CF73FF"/>
<path d="M54.5455 185.521C55.3316 185.521 55.9689 184.884 55.9689 184.097C55.9689 183.311 55.3316 182.674 54.5455 182.674C53.7593 182.674 53.1221 183.311 53.1221 184.097C53.1221 184.884 53.7593 185.521 54.5455 185.521Z" fill="#B84AFF"/>
<path d="M75.6701 185.521C76.4562 185.521 77.0935 184.884 77.0935 184.097C77.0935 183.311 76.4562 182.674 75.6701 182.674C74.884 182.674 74.2467 183.311 74.2467 184.097C74.2467 184.884 74.884 185.521 75.6701 185.521Z" fill="#B84AFF"/>
<path d="M53.8049 180.34C52.7252 180.34 51.8829 179.38 52.0472 178.312C53.0229 171.976 58.4987 167.125 65.1078 167.125C71.7168 167.125 77.1927 171.976 78.1684 178.312C78.3327 179.38 77.4904 180.34 76.4106 180.34H53.8049Z" fill="#90D5F2" stroke="white" stroke-width="1.21723" stroke-miterlimit="10"/>
<g opacity="0.1">
<path d="M73.6705 170.279C71.3638 168.314 68.3755 167.125 65.1078 167.125C64.753 167.125 64.4035 167.146 64.0561 167.173L52.4396 176.612C52.2765 177.166 52.1368 177.731 52.047 178.313C51.8827 179.38 52.7252 180.34 53.8048 180.34H61.2879L73.6705 170.279Z" fill="white"/>
<path d="M77.2028 175.017C76.8186 174.145 76.3369 173.328 75.7817 172.567L66.2142 180.34H70.6516L77.2028 175.017Z" fill="white"/>
</g>
<path d="M120 189.597C121.488 189.597 122.694 188.391 122.694 186.903C122.694 185.415 121.488 184.209 120 184.209C118.512 184.209 117.306 185.415 117.306 186.903C117.306 188.391 118.512 189.597 120 189.597Z" fill="#97BC0F"/>
<path d="M136.432 202.481C136.432 211.557 129.075 216.533 120 216.533C110.925 216.533 103.568 211.557 103.568 202.482C103.568 193.406 110.925 186.049 120 186.049C129.075 186.049 136.432 193.406 136.432 202.481Z" fill="#A3CB36"/>
<path d="M109.438 208.258C110.224 208.258 110.861 207.62 110.861 206.834C110.861 206.048 110.224 205.411 109.438 205.411C108.652 205.411 108.014 206.048 108.014 206.834C108.014 207.62 108.652 208.258 109.438 208.258Z" fill="#97BC0F"/>
<path d="M130.562 208.258C131.348 208.258 131.986 207.62 131.986 206.834C131.986 206.048 131.348 205.411 130.562 205.411C129.776 205.411 129.139 206.048 129.139 206.834C129.139 207.62 129.776 208.258 130.562 208.258Z" fill="#97BC0F"/>
<path d="M108.697 203.077C107.617 203.077 106.775 202.117 106.939 201.05C107.915 194.714 113.391 189.862 120 189.862C126.609 189.862 132.085 194.714 133.06 201.05C133.225 202.117 132.382 203.077 131.303 203.077H108.697Z" fill="#90D5F2" stroke="white" stroke-width="1.21723" stroke-miterlimit="10"/>
<g opacity="0.1">
<path d="M128.563 193.017C126.256 191.051 123.268 189.862 120 189.862C119.645 189.862 119.296 189.883 118.948 189.91L107.332 199.349C107.169 199.903 107.029 200.468 106.939 201.05C106.775 202.117 107.617 203.078 108.697 203.078H116.18L128.563 193.017Z" fill="white"/>
<path d="M132.095 197.755C131.711 196.883 131.229 196.065 130.674 195.304L121.106 203.078H125.544L132.095 197.755Z" fill="white"/>
</g>
<path d="M174.892 166.86C176.38 166.86 177.586 165.654 177.586 164.166C177.586 162.678 176.38 161.472 174.892 161.472C173.404 161.472 172.198 162.678 172.198 164.166C172.198 165.654 173.404 166.86 174.892 166.86Z" fill="#FF7F00"/>
<path d="M191.324 179.744C191.324 188.82 183.967 193.796 174.892 193.796C165.817 193.796 158.46 188.82 158.46 179.744C158.46 170.669 165.817 163.312 174.892 163.312C183.967 163.312 191.324 170.669 191.324 179.744Z" fill="#FF9A2C"/>
<path d="M164.33 185.521C165.116 185.521 165.753 184.884 165.753 184.097C165.753 183.311 165.116 182.674 164.33 182.674C163.544 182.674 162.906 183.311 162.906 184.097C162.906 184.884 163.544 185.521 164.33 185.521Z" fill="#FF7F00"/>
<path d="M185.454 185.521C186.241 185.521 186.878 184.884 186.878 184.097C186.878 183.311 186.241 182.674 185.454 182.674C184.668 182.674 184.031 183.311 184.031 184.097C184.031 184.884 184.668 185.521 185.454 185.521Z" fill="#FF7F00"/>
<path d="M163.589 180.34C162.509 180.34 161.667 179.38 161.831 178.312C162.807 171.976 168.283 167.125 174.892 167.125C181.501 167.125 186.977 171.976 187.953 178.312C188.117 179.38 187.275 180.34 186.195 180.34H163.589Z" fill="#90D5F2" stroke="white" stroke-width="1.21723" stroke-miterlimit="10"/>
<g opacity="0.1">
<path d="M183.455 170.279C181.148 168.314 178.16 167.125 174.892 167.125C174.537 167.125 174.188 167.146 173.84 167.173L162.224 176.612C162.061 177.166 161.921 177.731 161.831 178.313C161.667 179.38 162.509 180.34 163.589 180.34H171.072L183.455 170.279Z" fill="white"/>
<path d="M186.987 175.017C186.603 174.145 186.121 173.328 185.566 172.567L175.998 180.34H180.436L186.987 175.017Z" fill="white"/>
</g>
<path d="M197.629 111.968C199.117 111.968 200.323 110.762 200.323 109.274C200.323 107.786 199.117 106.58 197.629 106.58C196.141 106.58 194.935 107.786 194.935 109.274C194.935 110.762 196.141 111.968 197.629 111.968Z" fill="#FF50BC"/>
<path d="M214.061 124.852C214.061 133.928 206.704 138.904 197.629 138.904C188.554 138.904 181.197 133.928 181.197 124.852C181.197 115.777 188.554 108.42 197.629 108.42C206.704 108.42 214.061 115.777 214.061 124.852Z" fill="#FF76C4"/>
<path d="M187.067 130.629C187.853 130.629 188.49 129.992 188.49 129.205C188.49 128.419 187.853 127.782 187.067 127.782C186.281 127.782 185.643 128.419 185.643 129.205C185.643 129.992 186.281 130.629 187.067 130.629Z" fill="#FF50BC"/>
<path d="M208.191 130.629C208.978 130.629 209.615 129.992 209.615 129.205C209.615 128.419 208.978 127.782 208.191 127.782C207.405 127.782 206.768 128.419 206.768 129.205C206.768 129.992 207.405 130.629 208.191 130.629Z" fill="#FF50BC"/>
<path d="M186.326 125.448C185.246 125.448 184.404 124.488 184.568 123.42C185.544 117.084 191.02 112.233 197.629 112.233C204.238 112.233 209.714 117.084 210.69 123.42C210.854 124.488 210.012 125.448 208.932 125.448H186.326Z" fill="#90D5F2" stroke="white" stroke-width="1.21723" stroke-miterlimit="10"/>
<g opacity="0.1">
<path d="M206.192 115.387C203.885 113.422 200.897 112.233 197.629 112.233C197.274 112.233 196.925 112.254 196.577 112.281L184.961 121.72C184.798 122.274 184.658 122.838 184.568 123.42C184.404 124.488 185.246 125.448 186.326 125.448H193.809L206.192 115.387Z" fill="white"/>
<path d="M209.724 120.125C209.34 119.253 208.858 118.436 208.303 117.675L198.735 125.448H203.173L209.724 120.125Z" fill="white"/>
</g>
<path d="M174.892 57.0759C176.38 57.0759 177.586 55.8697 177.586 54.3819C177.586 52.8941 176.38 51.688 174.892 51.688C173.404 51.688 172.198 52.8941 172.198 54.3819C172.198 55.8697 173.404 57.0759 174.892 57.0759Z" fill="#B84AFF"/>
<path d="M191.324 69.9602C191.324 79.0356 183.967 84.0116 174.892 84.0116C165.817 84.0116 158.46 79.0357 158.46 69.9603C158.46 60.8849 165.817 53.5279 174.892 53.5278C183.967 53.5278 191.324 60.8848 191.324 69.9602Z" fill="#CF73FF"/>
<path d="M164.33 75.7364C165.116 75.7364 165.753 75.0992 165.753 74.313C165.753 73.5269 165.116 72.8896 164.33 72.8896C163.544 72.8896 162.906 73.5269 162.906 74.313C162.906 75.0992 163.544 75.7364 164.33 75.7364Z" fill="#B84AFF"/>
<path d="M185.454 75.7364C186.241 75.7364 186.878 75.0992 186.878 74.313C186.878 73.5269 186.241 72.8896 185.454 72.8896C184.668 72.8896 184.031 73.5269 184.031 74.313C184.031 75.0992 184.668 75.7364 185.454 75.7364Z" fill="#B84AFF"/>
<path d="M163.589 70.556C162.509 70.556 161.667 69.5954 161.831 68.5283C162.807 62.1923 168.283 57.3408 174.892 57.3408C181.501 57.3408 186.977 62.1923 187.953 68.5283C188.117 69.5954 187.275 70.556 186.195 70.556H163.589Z" fill="#90D5F2" stroke="white" stroke-width="1.21723" stroke-miterlimit="10"/>
<g opacity="0.1">
<path d="M183.455 60.495C181.148 58.53 178.16 57.3408 174.892 57.3408C174.537 57.3408 174.188 57.3616 173.84 57.3889L162.224 66.8274C162.061 67.3819 161.921 67.9462 161.831 68.5283C161.667 69.5955 162.509 70.5561 163.589 70.5561H171.072L183.455 60.495Z" fill="white"/>
<path d="M186.987 65.233C186.603 64.3609 186.121 63.5436 185.566 62.7825L175.998 70.556H180.436L186.987 65.233Z" fill="white"/>
</g>
<path d="M122.674 98.4296L127.547 107.423C127.984 108.231 128.765 108.798 129.669 108.964L139.727 110.82C142.102 111.258 143.043 114.155 141.38 115.905L134.333 123.319C133.699 123.985 133.401 124.902 133.522 125.813L134.866 135.953C135.183 138.347 132.718 140.137 130.54 139.096L121.311 134.685C120.482 134.288 119.518 134.288 118.688 134.685L109.46 139.096C107.282 140.137 104.817 138.347 105.134 135.953L106.478 125.813C106.599 124.902 106.301 123.985 105.667 123.319L98.6202 115.905C96.9567 114.155 97.8982 111.258 100.273 110.82L110.331 108.964C111.235 108.798 112.015 108.231 112.453 107.423L117.326 98.4296C118.477 96.3067 121.523 96.3067 122.674 98.4296Z" fill="#FFE000"/>
<path d="M74.437 223.135H165.563C171.362 223.135 176.07 227.843 176.07 233.643V240.333H63.9293V233.643C63.9293 227.843 68.6377 223.135 74.437 223.135Z" fill="#AF3564"/>
</g>
<defs>
<clipPath id="clip0_4073_26161">
<rect width="240" height="240" fill="white" transform="translate(0 0.333008)"/>
</clipPath>
</defs>
</svg>
