<svg width="240" height="240" viewBox="0 0 240 240" fill="none" xmlns="http://www.w3.org/2000/svg">
<g clip-path="url(#clip0_6073_28074)">
<path d="M74.0935 167.717H69.162V225.666H74.0935V167.717Z" fill="#795778"/>
<path d="M100.602 199.158V194.226H42.6531V199.158H100.602Z" fill="#795778"/>
<path d="M93.8593 177.947L90.3722 174.46L49.396 215.436L52.8831 218.923L93.8593 177.947Z" fill="#795778"/>
<path d="M90.3722 218.923L93.8593 215.436L52.883 174.46L49.3959 177.947L90.3722 218.923Z" fill="#795778"/>
<path d="M71.6279 228.444C54.1195 228.444 39.8755 214.2 39.8755 196.692C39.8755 179.184 54.1195 164.939 71.6279 164.939C89.1362 164.939 103.38 179.184 103.38 196.692C103.38 214.2 89.1362 228.444 71.6279 228.444ZM71.6279 172.017C58.0218 172.017 46.9529 183.086 46.9529 196.692C46.9529 210.298 58.0218 221.367 71.6279 221.367C85.234 221.367 96.3028 210.298 96.3028 196.692C96.3028 183.086 85.234 172.017 71.6279 172.017Z" fill="#72547C"/>
<path d="M71.6278 203.478C75.3753 203.478 78.4133 200.44 78.4133 196.692C78.4133 192.945 75.3753 189.907 71.6278 189.907C67.8803 189.907 64.8423 192.945 64.8423 196.692C64.8423 200.44 67.8803 203.478 71.6278 203.478Z" fill="#795778"/>
<path d="M170.597 167.717H165.666V225.666H170.597V167.717Z" fill="#795778"/>
<path d="M197.106 199.158V194.226H139.157V199.158H197.106Z" fill="#795778"/>
<path d="M190.363 177.947L186.876 174.46L145.9 215.436L149.387 218.923L190.363 177.947Z" fill="#795778"/>
<path d="M186.876 218.923L190.363 215.436L149.387 174.46L145.9 177.947L186.876 218.923Z" fill="#795778"/>
<path d="M168.132 228.444C150.623 228.444 136.379 214.2 136.379 196.692C136.379 179.183 150.623 164.939 168.132 164.939C185.64 164.939 199.884 179.183 199.884 196.692C199.884 214.2 185.64 228.444 168.132 228.444ZM168.132 172.017C154.526 172.017 143.457 183.086 143.457 196.692C143.457 210.298 154.526 221.367 168.132 221.367C181.738 221.367 192.807 210.298 192.807 196.692C192.807 183.086 181.738 172.017 168.132 172.017Z" fill="#72547C"/>
<path d="M168.132 203.477C171.879 203.477 174.917 200.44 174.917 196.692C174.917 192.944 171.879 189.906 168.132 189.906C164.384 189.906 161.346 192.944 161.346 196.692C161.346 200.44 164.384 203.477 168.132 203.477Z" fill="#795778"/>
<path d="M89.4708 87.4897C89.4708 79.0925 96.2781 72.2853 104.675 72.2853C113.072 72.2853 119.88 79.0926 119.88 87.4897V127.125" stroke="#487111" stroke-width="8.56976" stroke-miterlimit="10" stroke-linecap="round"/>
<path d="M168.596 112.093H168.596C151.539 112.093 137.712 125.921 137.712 142.977V172.898C137.712 189.954 151.539 203.782 168.596 203.782H168.596C185.652 203.782 199.48 189.954 199.48 172.898V142.977C199.48 125.921 185.652 112.093 168.596 112.093Z" fill="#EE6723"/>
<path d="M71.1642 112.093H71.1641C54.1074 112.093 40.2802 125.921 40.2802 142.977V172.898C40.2802 189.954 54.1074 203.782 71.1641 203.782H71.1642C88.2208 203.782 102.048 189.954 102.048 172.898V142.977C102.048 125.921 88.2208 112.093 71.1642 112.093Z" fill="#EE6723"/>
<path d="M86.3496 106.499H86.3495C67.2117 106.499 51.6974 122.014 51.6974 141.151V174.723C51.6974 193.86 67.2117 209.375 86.3495 209.375H86.3496C105.487 209.375 121.002 193.86 121.002 174.723V141.151C121.002 122.014 105.487 106.499 86.3496 106.499Z" fill="#FB7D16"/>
<path d="M153.41 106.499H153.41C134.272 106.499 118.758 122.014 118.758 141.152V174.723C118.758 193.861 134.272 209.375 153.41 209.375H153.41C172.548 209.375 188.062 193.861 188.062 174.723V141.152C188.062 122.014 172.548 106.499 153.41 106.499Z" fill="#FB7D16"/>
<path d="M119.88 98.2253H119.88C97.6634 98.2253 79.6534 116.235 79.6534 138.452V177.423C79.6534 199.64 97.6634 217.65 119.88 217.65H119.88C142.096 217.65 160.106 199.64 160.106 177.423V138.452C160.106 116.235 142.096 98.2253 119.88 98.2253Z" fill="#FF8214"/>
<path opacity="0.21" d="M88.6765 155.516V133.668C88.6765 130.818 89.1096 128.07 89.9137 125.484" stroke="white" stroke-width="8.17378" stroke-miterlimit="10" stroke-linecap="round"/>
<path opacity="0.21" d="M95.9161 115.482C96.538 114.647 97.206 113.849 97.9165 113.09" stroke="white" stroke-width="8.17378" stroke-miterlimit="10" stroke-linecap="round"/>
<path opacity="0.21" d="M64.8301 122.185C65.452 121.35 66.12 120.552 66.8306 119.794" stroke="white" stroke-width="8.17378" stroke-miterlimit="10" stroke-linecap="round"/>
<path d="M185.793 200.551C185.793 200.551 175.275 210.209 157.679 206.097C140.084 201.985 133.295 203.707 129.853 209.444C126.41 215.182 133.486 226.37 141.806 221.684C150.125 216.998 144.77 209.731 141.997 209.253" stroke="#542F1B" stroke-width="3.70551" stroke-miterlimit="10" stroke-linecap="round"/>
<path d="M53.9661 200.551C53.9661 200.551 64.4849 210.209 82.08 206.097C99.675 201.985 106.464 203.707 109.907 209.444C113.349 215.182 106.273 226.37 97.9538 221.684C89.6344 216.998 94.9894 209.731 97.7625 209.253" stroke="#542F1B" stroke-width="3.70551" stroke-miterlimit="10" stroke-linecap="round"/>
<path d="M191.551 163.676H185.37V236.31H191.551V163.676Z" fill="#6D4427"/>
<path d="M224.778 203.083V196.902H152.144V203.083H224.778Z" fill="#6D4427"/>
<path d="M216.326 176.498L211.955 172.127L160.595 223.487L164.966 227.858L216.326 176.498Z" fill="#6D4427"/>
<path d="M211.955 227.858L216.326 223.487L164.966 172.128L160.595 176.498L211.955 227.858Z" fill="#6D4427"/>
<path d="M185.37 171.606C186.386 171.496 187.416 171.436 188.461 171.436C189.505 171.436 190.536 171.496 191.551 171.606V163.676H185.37V171.606Z" fill="#634028"/>
<path d="M191.551 228.38C190.536 228.49 189.505 228.55 188.461 228.55C187.416 228.55 186.386 228.49 185.37 228.38V236.31H191.551V228.38Z" fill="#634028"/>
<path d="M216.848 196.902C216.958 197.917 217.018 198.948 217.018 199.992C217.018 201.036 216.958 202.067 216.848 203.083H224.778V196.902H216.848Z" fill="#634028"/>
<path d="M160.074 203.083C159.964 202.067 159.904 201.037 159.904 199.992C159.904 198.948 159.964 197.918 160.074 196.902H152.144V203.083H160.074Z" fill="#634028"/>
<path d="M206.348 177.735C207.144 178.375 207.915 179.061 208.654 179.8C209.392 180.538 210.078 181.309 210.719 182.105L216.326 176.498L211.956 172.127L206.348 177.735Z" fill="#634028"/>
<path d="M170.573 222.251C169.778 221.61 169.006 220.924 168.268 220.185C167.529 219.447 166.843 218.676 166.203 217.88L160.596 223.487L164.966 227.858L170.573 222.251Z" fill="#634028"/>
<path d="M210.719 217.88C210.078 218.676 209.392 219.447 208.654 220.185C207.915 220.924 207.144 221.61 206.348 222.251L211.956 227.858L216.326 223.487L210.719 217.88Z" fill="#634028"/>
<path d="M166.203 182.105C166.843 181.309 167.529 180.538 168.268 179.8C169.006 179.061 169.777 178.375 170.573 177.735L164.966 172.127L160.596 176.498L166.203 182.105Z" fill="#634028"/>
<path d="M188.461 239.791C166.516 239.791 148.662 221.937 148.662 199.992C148.662 178.047 166.516 160.194 188.461 160.194C210.406 160.194 228.26 178.047 228.26 199.992C228.26 221.937 210.406 239.791 188.461 239.791ZM188.461 169.065C171.407 169.065 157.533 182.939 157.533 199.992C157.533 217.046 171.407 230.92 188.461 230.92C205.515 230.92 219.389 217.046 219.389 199.992C219.389 182.939 205.515 169.065 188.461 169.065Z" fill="#563A33"/>
<path d="M188.461 208.497C193.158 208.497 196.966 204.69 196.966 199.992C196.966 195.295 193.158 191.488 188.461 191.488C183.764 191.488 179.956 195.295 179.956 199.992C179.956 204.69 183.764 208.497 188.461 208.497Z" fill="#4F3229"/>
<path d="M188.461 205.159C191.314 205.159 193.627 202.846 193.627 199.992C193.627 197.139 191.314 194.826 188.461 194.826C185.607 194.826 183.294 197.139 183.294 199.992C183.294 202.846 185.607 205.159 188.461 205.159Z" fill="#6D4427"/>
<path d="M188.461 203.553C190.427 203.553 192.022 201.959 192.022 199.993C192.022 198.026 190.427 196.432 188.461 196.432C186.494 196.432 184.9 198.026 184.9 199.993C184.9 201.959 186.494 203.553 188.461 203.553Z" fill="#4F3229"/>
<path d="M54.3892 163.676H48.2079V236.31H54.3892V163.676Z" fill="#6D4427"/>
<path d="M87.6154 203.083V196.902H14.9816V203.083H87.6154Z" fill="#6D4427"/>
<path d="M79.1638 176.498L74.7931 172.128L23.4332 223.487L27.804 227.858L79.1638 176.498Z" fill="#6D4427"/>
<path d="M74.793 227.858L79.1638 223.487L27.804 172.127L23.4332 176.498L74.793 227.858Z" fill="#6D4427"/>
<path d="M48.2081 171.606C49.2238 171.496 50.2541 171.436 51.2985 171.436C52.3428 171.436 53.3734 171.496 54.3891 171.606V163.676H48.2081V171.606Z" fill="#634028"/>
<path d="M54.3891 228.38C53.3734 228.49 52.343 228.55 51.2984 228.55C50.2538 228.55 49.2237 228.49 48.208 228.38V236.31H54.3891V228.38Z" fill="#634028"/>
<path d="M79.6856 196.902C79.7954 197.917 79.8556 198.948 79.8556 199.992C79.8556 201.036 79.7954 202.067 79.6856 203.083H87.6154V196.902H79.6856Z" fill="#634028"/>
<path d="M22.9112 203.083C22.8013 202.067 22.7412 201.037 22.7412 199.992C22.7412 198.948 22.8013 197.918 22.9112 196.902H14.9816V203.083H22.9112Z" fill="#634028"/>
<path d="M69.1859 177.735C69.9818 178.375 70.7529 179.061 71.4914 179.8C72.2298 180.538 72.916 181.309 73.5566 182.105L79.1639 176.498L74.7932 172.127L69.1859 177.735Z" fill="#634028"/>
<path d="M33.411 222.251C32.6152 221.61 31.8441 220.924 31.1054 220.185C30.3669 219.447 29.6809 218.676 29.0403 217.88L23.4332 223.487L27.8039 227.858L33.411 222.251Z" fill="#634028"/>
<path d="M73.5566 217.88C72.9161 218.676 72.23 219.447 71.4915 220.185C70.753 220.924 69.9818 221.61 69.1859 222.251L74.7932 227.858L79.1639 223.487L73.5566 217.88Z" fill="#634028"/>
<path d="M29.0403 182.105C29.6808 181.309 30.3669 180.538 31.1055 179.8C31.844 179.061 32.6151 178.375 33.411 177.735L27.8039 172.128L23.4332 176.498L29.0403 182.105Z" fill="#634028"/>
<path d="M51.2987 239.791C29.3536 239.791 11.5001 221.938 11.5001 199.992C11.5001 178.047 29.3537 160.194 51.2987 160.194C73.2437 160.194 91.0973 178.047 91.0973 199.992C91.0973 221.938 73.2437 239.791 51.2987 239.791ZM51.2987 169.065C34.2448 169.065 20.371 182.939 20.371 199.992C20.371 217.046 34.2448 230.92 51.2987 230.92C68.3527 230.92 82.2264 217.046 82.2264 199.992C82.2264 182.939 68.3527 169.065 51.2987 169.065Z" fill="#563A33"/>
<path d="M51.2985 208.497C55.9957 208.497 59.8035 204.69 59.8035 199.993C59.8035 195.295 55.9957 191.488 51.2985 191.488C46.6013 191.488 42.7935 195.295 42.7935 199.993C42.7935 204.69 46.6013 208.497 51.2985 208.497Z" fill="#4F3229"/>
<path d="M51.2985 205.159C54.1519 205.159 56.4651 202.846 56.4651 199.992C56.4651 197.139 54.1519 194.826 51.2985 194.826C48.4451 194.826 46.132 197.139 46.132 199.992C46.132 202.846 48.4451 205.159 51.2985 205.159Z" fill="#6D4427"/>
<path d="M51.2985 203.554C53.2652 203.554 54.8595 201.959 54.8595 199.993C54.8595 198.026 53.2652 196.432 51.2985 196.432C49.3318 196.432 47.7375 198.026 47.7375 199.993C47.7375 201.959 49.3318 203.554 51.2985 203.554Z" fill="#4F3229"/>
<path d="M119.88 116.728C129.743 116.728 137.75 124.736 137.75 134.599V163.889C137.75 168.147 134.293 171.605 130.034 171.605H109.726C105.467 171.605 102.009 168.147 102.009 163.889V134.599C102.009 124.736 110.017 116.728 119.88 116.728Z" fill="#520D00" stroke="#CB743F" stroke-width="4.76101" stroke-miterlimit="10"/>
</g>
<defs>
<clipPath id="clip0_6073_28074">
<rect width="216.759" height="171.79" fill="white" transform="translate(11.5001 68.0001)"/>
</clipPath>
</defs>
</svg>
