<svg width="240" height="240" viewBox="0 0 240 240" fill="none" xmlns="http://www.w3.org/2000/svg">
<g clip-path="url(#clip0_4081_3220)">
<path d="M231.034 68.7645H143.793C141.603 68.7645 139.827 66.9996 139.827 64.8238C139.827 62.6466 141.603 60.8823 143.793 60.8823H231.034C233.224 60.8823 235 62.6466 235 64.8238C235 67.0004 233.224 68.7645 231.034 68.7645Z" fill="white"/>
<path d="M96.2068 68.7645H8.96578C6.77589 68.7645 5 66.9996 5 64.8238C5 62.6466 6.77589 60.8823 8.96578 60.8823H96.2068C98.3968 60.8823 100.173 62.6466 100.173 64.8238C100.173 67.0004 98.3968 68.7645 96.2068 68.7645Z" fill="white"/>
<path d="M52.5863 53C50.3964 53 48.6205 54.765 48.6205 56.9414V76.6472H56.5506V56.9414C56.552 54.765 54.7763 53 52.5863 53Z" fill="#959CB3"/>
<path d="M187.414 53C185.224 53 183.448 54.765 183.448 56.9414V76.6472H191.378V56.9414C191.38 54.765 189.604 53 187.414 53Z" fill="#959CB3"/>
<path d="M106.121 131.824C102.836 131.824 100.173 129.176 100.173 125.912V114.089C100.173 110.823 102.836 108.177 106.121 108.177C109.406 108.177 112.068 110.824 112.068 114.089V125.912C112.068 129.176 109.406 131.824 106.121 131.824Z" fill="#464655"/>
<path d="M133.88 131.824C130.595 131.824 127.932 129.176 127.932 125.912V114.089C127.932 110.823 130.595 108.177 133.88 108.177C137.164 108.177 139.828 110.824 139.828 114.089V125.912C139.828 129.176 137.164 131.824 133.88 131.824Z" fill="#464655"/>
<path d="M127.93 116.059H112.068V155.471H127.93V116.059Z" fill="#5B5D6E"/>
<path d="M72.4138 187C70.2237 187 68.448 185.235 68.448 183.059C68.448 147.952 74.9252 131.581 78.7842 124.95C79.8048 123.197 80.3453 121.176 80.3453 119.107V108.177C80.3453 106 82.1196 104.235 84.3111 104.235C86.4996 104.235 88.2754 106 88.2754 108.177V119.107C88.2754 122.562 87.3671 125.947 85.6488 128.897C82.8622 133.684 76.3795 148.551 76.3795 183.059C76.3795 185.235 74.6037 187 72.4138 187Z" fill="white"/>
<path d="M167.586 187C165.396 187 163.621 185.235 163.621 183.059C163.621 148.551 157.138 133.684 154.35 128.895C152.632 125.947 151.723 122.562 151.723 119.107V108.177C151.723 106 153.499 104.235 155.689 104.235C157.879 104.235 159.655 106 159.655 108.177V119.107C159.655 121.176 160.195 123.197 161.213 124.948C165.075 131.581 171.551 147.952 171.551 183.058C171.552 185.235 169.776 187 167.586 187Z" fill="white"/>
<path d="M84.311 104.236H80.3452V108.177C80.3452 110.353 82.1195 112.119 84.311 112.119H96.2067V104.236H84.311Z" fill="#AFB9D2"/>
<path d="M155.689 104.236H143.793V112.118H155.689C157.879 112.118 159.655 110.353 159.655 108.177V104.235L155.689 104.236Z" fill="#AFB9D2"/>
<path d="M64.4822 80.5877H40.689L43.5584 74.8842C44.2308 73.5489 45.6038 72.7056 47.1058 72.7056H58.0653C59.5675 72.7056 60.9403 73.5489 61.6128 74.8842L64.4822 80.5877Z" fill="#82889D"/>
<path d="M64.4822 80.5879H40.689V88.4708H64.4822V80.5879Z" fill="#5B5D6E"/>
<path d="M199.31 80.5877H175.516L178.386 74.8842C179.058 73.5489 180.431 72.7056 181.933 72.7056H192.893C194.395 72.7056 195.768 73.5489 196.44 74.8842L199.31 80.5877Z" fill="#82889D"/>
<path d="M199.31 80.5879H175.516V88.4708H199.31V80.5879Z" fill="#5B5D6E"/>
<path d="M203.275 96.3531H36.7246C34.5347 96.3531 32.7588 94.5881 32.7588 92.4117C32.7588 90.2351 34.5347 88.4702 36.7246 88.4702H203.275C205.465 88.4702 207.241 90.2351 207.241 92.4117C207.241 94.5888 205.465 96.3531 203.275 96.3531Z" fill="#E4EAF6"/>
<path d="M155.429 80.1686L139.729 78.6082C126.609 77.3044 113.389 77.3044 100.271 78.6082L84.5692 80.1686C81.8374 80.4401 79.2825 81.6435 77.341 83.573L72.4137 88.4708H167.586L162.657 83.573C160.716 81.6427 158.161 80.4401 155.429 80.1686Z" fill="#D7DEED"/>
<path d="M60.5164 96.353L64.9637 100.772C67.1943 102.99 70.2209 104.235 73.3767 104.235H82.3274C86.0714 104.235 89.5977 105.987 91.8452 108.965L95.4137 113.694C98.4094 117.664 103.111 119.999 108.103 119.999H131.896C136.889 119.999 141.59 117.663 144.586 113.694L148.155 108.965C150.402 105.987 153.927 104.235 157.673 104.235H166.623C169.779 104.235 172.804 102.989 175.036 100.772L179.482 96.353H60.5164Z" fill="#D7DEED"/>
<path d="M106.616 161.382H93.2322V173.206H106.616V161.382Z" fill="#5B5D6E"/>
<path d="M147.759 183.059H108.103C105.913 183.059 104.137 181.294 104.137 179.117V155.47C104.137 153.294 105.913 151.529 108.103 151.529H147.759C149.949 151.529 151.723 153.294 151.723 155.47V179.117C151.723 181.295 149.949 183.059 147.759 183.059Z" fill="#959CB3"/>
<path d="M92.2411 175.177H88.2753C86.0853 175.177 84.3096 173.412 84.3096 171.235V163.353C84.3096 161.176 86.0853 159.412 88.2753 159.412H92.2411C94.431 159.412 96.2067 161.176 96.2067 163.353V171.235C96.2067 173.412 94.431 175.177 92.2411 175.177Z" fill="#C5D0E4"/>
<path d="M136.192 179.114C142.76 178.932 147.936 173.494 147.754 166.966C147.572 160.438 142.099 155.293 135.531 155.475C128.963 155.656 123.787 161.095 123.969 167.622C124.151 174.15 129.624 179.295 136.192 179.114Z" fill="#464655"/>
<path d="M135.862 171.236C138.052 171.236 139.827 169.471 139.827 167.294C139.827 165.118 138.052 163.353 135.862 163.353C133.671 163.353 131.896 165.118 131.896 167.294C131.896 169.471 133.671 171.236 135.862 171.236Z" fill="#E4EAF6"/>
<path d="M114.052 177.148C116.242 177.148 118.018 175.383 118.018 173.206C118.018 171.029 116.242 169.265 114.052 169.265C111.862 169.265 110.086 171.029 110.086 173.206C110.086 175.383 111.862 177.148 114.052 177.148Z" fill="#E4EAF6"/>
<path d="M116.034 165.324H112.068C110.973 165.324 110.086 164.441 110.086 163.353V159.412C110.086 158.323 110.973 157.441 112.068 157.441H116.034C117.129 157.441 118.016 158.323 118.016 159.412V163.353C118.016 164.441 117.129 165.324 116.034 165.324Z" fill="#789178"/>
<path d="M72.4137 96.3531H68.448C66.2581 96.3531 64.4822 94.5881 64.4822 92.4117V88.4702H76.3795V92.4117C76.3795 94.5888 74.6036 96.3531 72.4137 96.3531Z" fill="#FF6464"/>
<path d="M175.517 96.3531H171.551C169.361 96.3531 167.585 94.5881 167.585 92.4117V88.4702H179.482V92.4117C179.482 94.5888 177.707 96.3531 175.517 96.3531Z" fill="#FF6464"/>
<path d="M108.19 80.1679L113.423 78.6074C114.501 78.2858 120.897 78.0443 129.97 77.8819C120.07 77.3866 110.142 77.6265 100.271 78.6074L84.5706 80.1679C81.8374 80.4392 79.2839 81.6426 77.341 83.5722L72.4137 88.4707H104.137L105.781 83.5735C106.428 81.6426 107.279 80.4399 108.19 80.1679Z" fill="#C7CFE2"/>
<path d="M111.805 113.694L110.616 108.965C109.866 105.988 108.691 104.236 107.443 104.236H104.458C103.407 104.236 102.399 102.989 101.655 100.772L100.173 96.353H60.5178L64.9637 100.772C67.1957 102.99 70.2209 104.236 73.3767 104.236H82.3274C86.0727 104.236 89.5977 105.988 91.8453 108.965L95.4137 113.694C98.4095 117.664 103.111 120 108.104 120H116.034C114.371 120 112.803 117.664 111.805 113.694Z" fill="#C7CFE2"/>
</g>
<defs>
<clipPath id="clip0_4081_3220">
<rect width="230" height="134" fill="white" transform="translate(5 53)"/>
</clipPath>
</defs>
</svg>
