<svg width="240" height="241" viewBox="0 0 240 241" fill="none" xmlns="http://www.w3.org/2000/svg">
<path d="M131.861 47.0346C129.625 52.4137 132.173 58.5872 137.552 60.8234C141.177 62.3306 152.486 61.8429 159.474 61.3646C161.899 61.1986 163.088 58.3398 161.495 56.5032C156.905 51.2118 149.276 42.8511 145.65 41.3439C140.271 39.1076 134.098 41.6555 131.861 47.0346Z" fill="#6CD823"/>
<path d="M131.862 47.0346C129.625 52.4137 123.452 54.9615 118.073 52.7252C114.447 51.218 106.818 42.8572 102.228 37.5659C100.635 35.7294 101.824 32.8705 104.249 32.7045C111.237 32.2263 122.546 31.7386 126.171 33.2457C131.55 35.482 134.098 41.6555 131.862 47.0346Z" fill="#6CD823"/>
<path d="M124.916 74.1607C118.846 62.9018 131.862 47.0346 131.862 47.0346C131.862 47.0346 129.9 40.276 121.006 39.1643" stroke="#5DC91C" stroke-width="3.8331" stroke-miterlimit="10" stroke-linecap="round"/>
<path d="M131.862 47.0346C131.862 47.0346 140.721 44.9341 146.636 51.1859" stroke="#5DC91C" stroke-width="3.8331" stroke-miterlimit="10" stroke-linecap="round"/>
<path d="M65.4879 141.531C72.9683 141.531 79.0324 135.467 79.0324 127.987C79.0324 120.506 72.9683 114.442 65.4879 114.442C58.0074 114.442 51.9434 120.506 51.9434 127.987C51.9434 135.467 58.0074 141.531 65.4879 141.531Z" fill="#2D9900"/>
<path d="M122.876 175.082C154.308 175.082 179.789 149.601 179.789 118.169C179.789 86.7377 154.308 61.2573 122.876 61.2573C91.4448 61.2573 65.9644 86.7377 65.9644 118.169C65.9644 149.601 91.4448 175.082 122.876 175.082Z" fill="#43C114"/>
<path d="M178.343 143.632C186.984 143.632 193.988 136.627 193.988 127.987C193.988 119.346 186.984 112.342 178.343 112.342C169.703 112.342 162.698 119.346 162.698 127.987C162.698 136.627 169.703 143.632 178.343 143.632Z" fill="#2D9900"/>
<path d="M126.845 126.852C133.722 126.852 139.297 121.277 139.297 114.4C139.297 107.522 133.722 101.947 126.845 101.947C119.968 101.947 114.393 107.522 114.393 114.4C114.393 121.277 119.968 126.852 126.845 126.852Z" fill="white"/>
<path d="M124.116 123.436C128.394 123.436 131.861 119.968 131.861 115.69C131.861 111.412 128.394 107.945 124.116 107.945C119.838 107.945 116.37 111.412 116.37 115.69C116.37 119.968 119.838 123.436 124.116 123.436Z" fill="#0D3342"/>
<path d="M131.861 115.69C131.861 116.035 131.831 116.372 131.787 116.704C130.453 118.395 128.39 119.485 126.069 119.485C122.046 119.485 118.785 116.223 118.785 112.2C118.785 111.309 118.952 110.46 119.245 109.671C120.576 108.593 122.269 107.944 124.116 107.944C128.394 107.944 131.861 111.412 131.861 115.69Z" fill="#113844"/>
<path d="M121.088 121.609C121.85 121.609 122.467 120.991 122.467 120.23C122.467 119.468 121.85 118.851 121.088 118.851C120.326 118.851 119.709 119.468 119.709 120.23C119.709 120.991 120.326 121.609 121.088 121.609Z" fill="#113844"/>
<path d="M86.5324 126.852C93.4096 126.852 98.9847 121.277 98.9847 114.4C98.9847 107.522 93.4096 101.947 86.5324 101.947C79.6552 101.947 74.0801 107.522 74.0801 114.4C74.0801 121.277 79.6552 126.852 86.5324 126.852Z" fill="white"/>
<path d="M83.8034 123.436C88.0811 123.436 91.5489 119.968 91.5489 115.69C91.5489 111.412 88.0811 107.945 83.8034 107.945C79.5256 107.945 76.0579 111.412 76.0579 115.69C76.0579 119.968 79.5256 123.436 83.8034 123.436Z" fill="#0D3342"/>
<path d="M91.5489 115.69C91.5489 116.035 91.5186 116.372 91.475 116.704C90.141 118.395 88.078 119.485 85.7569 119.485C81.7336 119.485 78.4722 116.223 78.4722 112.2C78.4722 111.309 78.6399 110.46 78.9323 109.671C80.2632 108.593 81.9569 107.944 83.8034 107.944C88.0812 107.944 91.5489 111.412 91.5489 115.69Z" fill="#113844"/>
<path d="M80.7755 121.609C81.5371 121.609 82.1545 120.991 82.1545 120.23C82.1545 119.468 81.5371 118.851 80.7755 118.851C80.0139 118.851 79.3965 119.468 79.3965 120.23C79.3965 120.991 80.0139 121.609 80.7755 121.609Z" fill="#113844"/>
<path d="M111.06 127.987C108.295 132.117 102.223 132.118 99.4555 127.989L99.4539 127.987L99.4446 128.001" stroke="#0D3342" stroke-width="5" stroke-linecap="round" stroke-linejoin="round"/>
<path d="M52.6564 67.0056L61.4735 95.1152C62.7614 99.2213 60.4769 103.594 56.3708 104.882L30.3074 113.057C26.2013 114.345 21.8286 112.061 20.5406 107.954L11.7236 79.8449C11.0266 77.6227 12.0291 75.1287 14.1752 74.2242C16.6369 73.1867 19.395 74.5062 20.1751 76.9933L28.7126 104.212L52.6278 96.7102L44.0903 69.4919C43.3102 67.0048 44.8205 64.3464 47.4338 63.7921C49.7121 63.3089 51.9594 64.7834 52.6564 67.0056Z" fill="#438ECA"/>
<path d="M36.561 71.8535L46.0498 102.105C46.7868 104.454 45.4798 106.956 43.1299 107.694C40.78 108.431 38.278 107.123 37.541 104.774L28.0522 74.5225C27.3153 72.1731 28.6223 69.6707 30.9721 68.9336C33.3219 68.1965 35.824 69.5041 36.561 71.8535Z" fill="#438ECA"/>
<path d="M21.619 96.4953L25.4092 108.579L57.8336 98.4084L54.0434 86.3249L21.619 96.4953Z" fill="#438ECA"/>
<path d="M38.1385 108.003L57.0139 168.179L66.2794 165.273L47.404 105.096L38.1385 108.003Z" fill="#6B4630"/>
<path d="M42.1492 120.789L35.6017 99.9151C34.9431 97.8153 36.1131 95.5758 38.213 94.9171L39.8692 94.3976C41.969 93.739 44.2086 94.909 44.8672 97.0089L51.4147 117.883L42.1492 120.789Z" fill="#3672C1"/>
<path d="M56.0119 171.373L50.7591 154.627L63.6735 150.576L68.9263 167.323C69.8444 170.249 68.2135 173.371 65.2867 174.289L62.9783 175.013C60.0515 175.931 56.93 174.3 56.0119 171.373Z" fill="#F9B050"/>
<path d="M53.3767 117.749L53.1018 116.873C52.8284 116.001 51.8999 115.516 51.0281 115.789L41.2709 118.85C40.399 119.123 39.914 120.052 40.1874 120.923L40.4623 121.8C40.7357 122.671 41.6642 123.156 42.536 122.883L52.2933 119.822C53.1651 119.549 53.6501 118.621 53.3767 117.749Z" fill="#6BB3EA"/>
<path d="M65.9414 150.346L65.6666 149.47C65.3931 148.598 64.4646 148.113 63.5927 148.386L49.5746 152.783C48.7028 153.057 48.2177 153.985 48.4912 154.857L48.766 155.733C49.0394 156.605 49.9679 157.09 50.8398 156.816L64.8579 152.419C65.7297 152.146 66.2148 151.218 65.9414 150.346Z" fill="#E06C36"/>
<path d="M191.316 90.8362L175.259 162.321L185.274 164.571L201.331 93.0858L191.316 90.8362Z" fill="#6B4630"/>
<path d="M210.82 61.5406C213.813 66.4062 215.815 71.3871 216.81 76.3348C217.456 79.5234 217.67 82.7017 217.461 85.8238C217.347 87.5372 217.102 89.2309 216.726 90.9046L213.135 106.89L174.846 98.2895L178.458 82.2122C178.825 80.5753 179.322 78.9671 179.925 77.402C182.816 69.9937 188.362 63.4526 196.185 58.3019L196.208 58.2876C201.129 55.0454 207.744 56.5215 210.82 61.5406Z" fill="#438ECA"/>
<path d="M186.765 111.096L191.626 89.4525C192.136 87.1828 194.393 85.7539 196.663 86.2637L198.453 86.6659C200.723 87.1757 202.152 89.4324 201.642 91.7022L196.78 113.346L186.765 111.096Z" fill="#3672C1"/>
<path d="M172.65 164.712L176.716 146.61L190.676 149.745L186.61 167.847C185.899 171.011 182.754 173.002 179.59 172.292L177.095 171.731C173.931 171.021 171.939 167.875 172.65 164.712Z" fill="#F9B050"/>
<path d="M198.646 114.262L198.859 113.315C199.07 112.373 198.478 111.437 197.536 111.225L186.989 108.856C186.046 108.645 185.111 109.237 184.899 110.179L184.686 111.127C184.475 112.069 185.067 113.004 186.009 113.216L196.556 115.585C197.499 115.797 198.434 115.204 198.646 114.262Z" fill="#6BB3EA"/>
<path d="M192.872 150.736L193.085 149.789C193.297 148.847 192.704 147.911 191.762 147.7L176.609 144.296C175.667 144.084 174.731 144.677 174.52 145.619L174.307 146.566C174.095 147.509 174.688 148.444 175.63 148.656L190.783 152.06C191.725 152.271 192.661 151.679 192.872 150.736Z" fill="#E06C36"/>
<path d="M202.913 62.8467L217.461 85.8239C217.347 87.5373 217.102 89.231 216.726 90.9047L214.924 98.9248L200.076 75.4746L176.637 90.3153L178.458 82.2123C178.825 80.5754 179.322 78.9672 179.925 77.4021L202.913 62.8467Z" fill="#6BB3EA"/>
</svg>
