<svg width="240" height="240" viewBox="0 0 240 240" fill="none" xmlns="http://www.w3.org/2000/svg">
<g clip-path="url(#clip0_4073_42481)">
<path d="M151 225.363C151 218.62 146.446 212.958 140.259 211.26V210.743H136.717C136.612 210.741 136.51 210.727 136.404 210.727C128.342 210.727 121.807 217.28 121.807 225.363C121.807 233.447 128.342 240 136.404 240C136.51 240 136.612 239.986 136.718 239.984H140.259V239.467C146.446 237.769 151 232.106 151 225.363Z" fill="#6A737A"/>
<path d="M140.195 240C148.257 240 154.792 233.447 154.792 225.363C154.792 217.28 148.257 210.727 140.195 210.727C132.134 210.727 125.599 217.28 125.599 225.363C125.599 233.447 132.134 240 140.195 240Z" fill="#737A7F"/>
<path d="M140.195 219.627L134.475 225.363L140.195 231.099L145.915 225.363L140.195 219.627Z" fill="#7C8389"/>
<path d="M75.9672 225.363C75.9672 218.62 71.4136 212.958 65.2263 211.26V210.743H61.6844C61.5791 210.741 61.4767 210.727 61.3707 210.727C53.3093 210.727 46.7742 217.28 46.7742 225.363C46.7742 233.447 53.3093 240 61.3707 240C61.4768 240 61.5795 239.986 61.6851 239.984H65.2262V239.467C71.4136 237.769 75.9672 232.106 75.9672 225.363Z" fill="#6A737A"/>
<path d="M65.1621 240C73.2235 240 79.7586 233.447 79.7586 225.363C79.7586 217.28 73.2235 210.727 65.1621 210.727C57.1007 210.727 50.5657 217.28 50.5657 225.363C50.5657 233.447 57.1007 240 65.1621 240Z" fill="#737A7F"/>
<path d="M65.1622 219.627L59.442 225.363L65.1622 231.099L70.8823 225.363L65.1622 219.627Z" fill="#7C8389"/>
<path d="M171.615 102.735C171.615 102.735 178.037 121.909 178.426 122.104C178.815 122.299 187.671 122.445 188.157 122.104C188.644 121.762 194.531 99.2954 194.872 98.5636C195.212 97.8318 199.688 89.7818 199.494 88.6108C199.299 87.4399 180.518 71.3886 179.399 71.0471C178.28 70.7056 157.602 72.3156 155.704 72.8035C153.807 73.2913 139.162 86.708 138.529 87.5374C137.897 88.3668 134.247 107.443 133.761 108.224C133.274 109.004 125.733 115.444 125.344 115.591C124.954 115.737 101.454 115.981 99.2159 115.639C96.9778 115.298 83.7404 111.498 80.8211 111.206C77.9018 110.913 75.0344 111.023 71.9692 114.389C68.9039 117.756 59.7932 126.324 61.3989 130.861C63.0045 135.398 82.3327 150.425 100.578 153.499C118.824 156.572 132.447 151.742 146.071 148.718C159.694 145.693 167.674 133.252 165.873 122.86L171.615 102.735Z" fill="#9298A0"/>
<path d="M188.157 122.104C188.644 121.762 194.531 99.2954 194.872 98.5635C195.212 97.8317 199.688 89.7816 199.494 88.6108C199.456 88.3821 198.703 87.5813 197.517 86.4458C193.296 88.6395 186.665 92.0259 186.665 92.0259L178.012 94.7337C178.012 94.7337 172.806 97.5634 171.614 102.735C171.614 102.735 178.037 121.909 178.426 122.104C178.815 122.299 187.671 122.445 188.157 122.104Z" fill="#889099"/>
<path d="M150.474 174.429H141.059V190.676H150.474V174.429Z" fill="#9298A0"/>
<path d="M150.474 190.675H141.059L137.508 197.718C136.894 198.935 137.776 200.373 139.137 200.373H162.703C164.591 200.373 165.177 197.811 163.477 196.986L150.474 190.675Z" fill="#8C9199"/>
<path d="M146.019 177.958C150.634 177.958 154.375 174.207 154.375 169.579C154.375 164.951 150.634 161.2 146.019 161.2C141.404 161.2 137.662 164.951 137.662 169.579C137.662 174.207 141.404 177.958 146.019 177.958Z" fill="#8C9199"/>
<path d="M74.5843 112.742C70.546 110.016 68.6485 106.26 58.9661 106.943C49.2838 107.626 43.9317 117.676 43.7857 128.702C43.6397 139.728 43.7857 164.415 43.7857 164.415H61.7394V131.142L74.5843 112.742Z" fill="#7C8389"/>
<path d="M85.2763 174.429H75.8616V190.676H85.2763V174.429Z" fill="#9298A0"/>
<path d="M85.2762 190.675H75.8615L72.3105 197.718C71.6968 198.935 72.5789 200.373 73.9389 200.373H97.5054C99.3936 200.373 99.9794 197.811 98.2798 196.986L85.2762 190.675Z" fill="#8C9199"/>
<path d="M80.8211 177.958C85.4363 177.958 89.1776 174.207 89.1776 169.579C89.1776 164.951 85.4363 161.2 80.8211 161.2C76.2059 161.2 72.4646 164.951 72.4646 169.579C72.4646 174.207 76.2059 177.958 80.8211 177.958Z" fill="#8C9199"/>
<path d="M70.6797 150.352L73.818 164.623H87.9766L92.3555 147.937L70.6797 150.352Z" fill="#9298A0"/>
<path d="M80.2397 109.624C76.379 109.876 75.146 110.191 71.5627 112.964C67.9794 115.737 58.9296 123.787 60.6082 131.983C62.2869 140.18 69.95 149.986 70.6798 150.352C71.4096 150.718 91.5528 150.352 91.5528 150.352C91.5528 150.352 97.6833 144.424 100.311 138.13C102.938 131.837 99.2294 116.532 98.5294 115.476C97.8293 114.419 82.416 109.482 80.2397 109.624Z" fill="#8C9199"/>
<path d="M195.073 98.1708C196.004 96.3952 199.671 89.6742 199.494 88.6108C199.299 87.44 180.518 71.3887 179.399 71.0471C178.28 70.7057 157.602 72.3156 155.704 72.8035C153.807 73.2914 139.162 86.7081 138.529 87.5375C137.897 88.3668 134.248 107.443 133.761 108.223C133.669 108.371 133.326 108.719 132.829 109.188C138.61 112.637 144.879 116.469 144.879 116.469L150.279 93.7824L159.986 84.1955L175.677 82.5855L195.073 98.1708Z" fill="#868D93"/>
<path d="M175.69 82.5961L195.073 98.171C196.004 96.3953 199.67 89.6744 199.494 88.611C199.302 87.4577 181.093 71.8807 179.474 71.0845C178.275 74.6365 176.8 79.1614 175.69 82.5961Z" fill="#8F969B"/>
<path d="M197.639 93.2422L177.628 76.6431L158.244 78.8011L145.166 90.9548L139.682 113.31C142.675 115.122 144.878 116.469 144.878 116.469L150.279 93.7822L159.986 84.1954L175.677 82.5854L195.073 98.1708C195.529 97.3001 196.643 95.2407 197.639 93.2422Z" fill="#7C8389"/>
<path d="M160.398 84.153L155.821 72.7788C155.782 72.787 155.734 72.7957 155.704 72.8034C153.932 73.2591 141.041 84.9916 138.835 87.2111L150.238 93.9542L150.279 93.7822L159.986 84.1953L160.398 84.153Z" fill="#8F969B"/>
<path d="M150.238 93.9544L150.279 93.7824L159.986 84.1954L160.398 84.1532L158.244 78.8013L145.166 90.9549L150.238 93.9544Z" fill="#868D93"/>
<path d="M175.69 82.5957L195.073 98.1706C195.529 97.3 196.643 95.2407 197.639 93.2421L177.628 76.6431C176.944 78.7289 176.268 80.8095 175.69 82.5957Z" fill="#868D93"/>
<path d="M184.8 115.151C184.28 115.036 180.281 100.556 178.641 94.5371L178.013 94.7338C178.013 94.7338 172.806 97.5635 171.615 102.735C171.615 102.735 178.037 121.909 178.426 122.104C178.815 122.299 187.671 122.445 188.157 122.104C188.329 121.984 189.17 119.117 190.203 115.425C187.554 115.325 185.092 115.216 184.8 115.151Z" fill="#7C8389"/>
<path d="M135.877 150.352L139.016 164.623H153.174L157.553 147.937L135.877 150.352Z" fill="#9298A0"/>
<path d="M135.877 150.352C135.877 150.352 155.607 150.828 160.667 146.339C165.727 141.851 168.84 125.974 166.019 122.35C163.197 118.725 133.86 107.958 133.86 107.958L126.051 114.957C125.62 115.343 125.451 115.946 125.619 116.501L135.877 150.352Z" fill="#8C9199"/>
<path opacity="0.05" d="M80.5871 109.635C80.4524 109.624 80.3308 109.618 80.2399 109.624C76.3789 109.876 75.1461 110.191 71.5627 112.964C67.9794 115.737 58.9296 123.787 60.6084 131.984C62.2868 140.18 69.9502 149.986 70.6801 150.352L73.8182 164.623H74.0944C73.0743 166.012 72.4645 167.722 72.4645 169.579C72.4645 172.342 73.8046 174.785 75.8615 176.312V190.676L72.3106 197.718C71.6971 198.935 72.579 200.373 73.939 200.373H77.9929C78.5975 192.844 79.2736 183.943 79.3528 180.857C79.4987 175.149 75.7036 157.292 75.2654 152.608C74.8279 147.925 66.2156 134.02 67.6631 129.162C68.8278 125.252 72.0123 117.699 80.5871 109.635Z" fill="#161616"/>
<path opacity="0.1" d="M186.266 104.512C184.693 103.767 184.021 101.885 184.764 100.308C185.507 98.7317 187.384 98.0574 188.956 98.8024C190.529 99.5474 189.434 100.592 188.691 102.169C187.948 103.746 187.838 105.257 186.266 104.512Z" fill="black"/>
<path d="M188.68 200.373H64.4761V222.691H188.68V200.373Z" fill="#7C8389"/>
<path d="M64.4761 200.373H40.5V222.691H64.4761V200.373Z" fill="#6A737A"/>
<path opacity="0.05" d="M75.505 205.427H62.5527C61.8583 205.427 61.2954 205.992 61.2954 206.688C61.2954 207.384 61.8583 207.949 62.5527 207.949H75.505C76.1994 207.949 76.7623 207.384 76.7623 206.688C76.7623 205.992 76.1994 205.427 75.505 205.427Z" fill="black"/>
<path opacity="0.05" d="M141.743 217.149H114.012C113.318 217.149 112.755 217.714 112.755 218.41C112.755 219.106 113.318 219.671 114.012 219.671H141.743C142.437 219.671 143 219.106 143 218.41C143 217.714 142.437 217.149 141.743 217.149Z" fill="black"/>
<path opacity="0.05" d="M67.7716 211.492H54.8193C54.1249 211.492 53.562 212.057 53.562 212.753C53.562 213.449 54.1249 214.013 54.8193 214.013H67.7716C68.466 214.013 69.0289 213.449 69.0289 212.753C69.0289 212.057 68.466 211.492 67.7716 211.492Z" fill="black"/>
<path opacity="0.05" d="M151.016 212.102H138.063C137.369 212.102 136.806 212.666 136.806 213.363C136.806 214.059 137.369 214.623 138.063 214.623H151.016C151.71 214.623 152.273 214.059 152.273 213.363C152.273 212.666 151.71 212.102 151.016 212.102Z" fill="black"/>
<path opacity="0.05" d="M184.623 215.975H171.67C170.976 215.975 170.413 216.539 170.413 217.235C170.413 217.931 170.976 218.496 171.67 218.496H184.623C185.317 218.496 185.88 217.931 185.88 217.235C185.88 216.539 185.317 215.975 184.623 215.975Z" fill="black"/>
<path opacity="0.05" d="M113.772 207.199H100.82C100.125 207.199 99.5624 207.764 99.5624 208.46C99.5624 209.156 100.125 209.721 100.82 209.721H113.772C114.466 209.721 115.029 209.156 115.029 208.46C115.029 207.764 114.466 207.199 113.772 207.199Z" fill="black"/>
<path opacity="0.05" d="M178.693 203.656H148.925C148.23 203.656 147.667 204.22 147.667 204.916C147.667 205.613 148.23 206.177 148.925 206.177H178.693C179.387 206.177 179.95 205.613 179.95 204.916C179.95 204.22 179.387 203.656 178.693 203.656Z" fill="black"/>
<path d="M105.056 225.363C105.056 218.62 100.503 212.958 94.3154 211.26V210.743H90.7735C90.6682 210.741 90.5658 210.727 90.4598 210.727C82.3984 210.727 75.8633 217.28 75.8633 225.363C75.8633 233.447 82.3984 240 90.4598 240C90.566 240 90.6686 239.986 90.7742 239.984H94.3154V239.467C100.503 237.769 105.056 232.106 105.056 225.363Z" fill="#6A737A"/>
<path d="M94.2512 240C102.313 240 108.848 233.447 108.848 225.363C108.848 217.28 102.313 210.727 94.2512 210.727C86.1898 210.727 79.6548 217.28 79.6548 225.363C79.6548 233.447 86.1898 240 94.2512 240Z" fill="#737A7F"/>
<path d="M94.2513 219.627L88.5311 225.363L94.2513 231.099L99.9715 225.363L94.2513 219.627Z" fill="#7C8389"/>
<path d="M180.089 225.363C180.089 218.62 175.536 212.958 169.348 211.26V210.743H165.806C165.701 210.741 165.599 210.727 165.493 210.727C157.431 210.727 150.896 217.28 150.896 225.363C150.896 233.447 157.431 240 165.493 240C165.599 240 165.702 239.986 165.807 239.984H169.348V239.467C175.536 237.769 180.089 232.106 180.089 225.363Z" fill="#6A737A"/>
<path d="M169.284 240C177.346 240 183.881 233.447 183.881 225.363C183.881 217.28 177.346 210.727 169.284 210.727C161.223 210.727 154.688 217.28 154.688 225.363C154.688 233.447 161.223 240 169.284 240Z" fill="#737A7F"/>
<path d="M169.284 219.627L163.564 225.363L169.284 231.099L175.005 225.363L169.284 219.627Z" fill="#7C8389"/>
</g>
<defs>
<clipPath id="clip0_4073_42481">
<rect width="159" height="169" fill="white" transform="translate(40.5 71)"/>
</clipPath>
</defs>
</svg>
