<svg width="240" height="240" viewBox="0 0 240 240" fill="none" xmlns="http://www.w3.org/2000/svg">
<g clip-path="url(#clip0_4081_3411)">
<path d="M127.056 63.4473H112.941V102.186H127.056V63.4473Z" fill="#AFB6C7"/>
<path d="M120 35.6436C112.163 35.6436 105.81 41.9746 105.81 49.7839V63.4461H134.191V49.7839C134.191 41.9746 127.837 35.6436 120 35.6436Z" fill="#707287"/>
<path d="M51.9295 41.3785C51.9295 44.9012 40.5551 47.7571 26.5236 47.7571C12.4921 47.7571 12.4922 35 26.5236 35C40.555 35 51.9295 37.8559 51.9295 41.3785Z" fill="#C7CFE2"/>
<path d="M51.9297 41.3785C51.9297 44.9012 63.304 47.7571 77.3356 47.7571C91.3671 47.7571 91.3663 35 77.3356 35C63.3048 35 51.9297 37.8559 51.9297 41.3785Z" fill="#C7CFE2"/>
<path d="M188.07 41.3785C188.07 44.9012 199.445 47.7571 213.476 47.7571C227.508 47.7571 227.508 35 213.476 35C199.445 35 188.07 37.8559 188.07 41.3785Z" fill="#C7CFE2"/>
<path d="M188.07 41.3785C188.07 44.9012 176.696 47.7571 162.664 47.7571C148.632 47.7571 148.633 35 162.664 35C176.695 35 188.07 37.8559 188.07 41.3785Z" fill="#C7CFE2"/>
<path opacity="0.1" d="M33.1411 47.5369C43.9627 46.8057 51.929 44.3261 51.929 41.3784C51.929 38.6447 45.0793 36.3138 35.4555 35.4067C33.7944 39.0995 33.1107 43.3165 33.1411 47.5369Z" fill="black"/>
<path opacity="0.1" d="M68.4024 35.4062C58.7787 36.314 51.929 38.6448 51.929 41.3786C51.929 44.3262 59.8959 46.8058 70.7167 47.5371C70.7479 43.3167 70.0642 39.0997 68.4024 35.4062Z" fill="black"/>
<path opacity="0.1" d="M206.858 47.5369C196.037 46.8057 188.07 44.3261 188.07 41.3784C188.07 38.6447 194.92 36.3138 204.544 35.4067C206.206 39.0995 206.889 43.3165 206.858 47.5369Z" fill="black"/>
<path opacity="0.1" d="M171.597 35.4062C181.221 36.314 188.071 38.6448 188.071 41.3786C188.071 44.3262 180.104 46.8058 169.283 47.5371C169.252 43.3167 169.936 39.0997 171.597 35.4062Z" fill="black"/>
<path d="M57.89 57.7031C61.5184 48.3024 60.3777 35.2866 51.929 35.2866C43.4803 35.2866 42.3402 48.303 45.9685 57.7031H57.89Z" fill="#707287"/>
<path d="M182.11 57.7031C178.481 48.3024 179.622 35.2866 188.071 35.2866C196.519 35.2866 197.66 48.303 194.031 57.7031H182.11Z" fill="#707287"/>
<path d="M77.1513 65.7883L62.5625 135.912L77.5042 138.999L92.093 68.8751L77.1513 65.7883Z" fill="#AFB6C7"/>
<path d="M162.854 65.7912L147.912 68.8779L162.501 139.002L177.442 135.915L162.854 65.7912Z" fill="#AFB6C7"/>
<path opacity="0.1" d="M162.849 65.7881L147.909 68.8742L151.347 85.4018H166.93L162.849 65.7881Z" fill="black"/>
<path opacity="0.1" d="M127.056 63.4473H112.941V85.4039H127.056V63.4473Z" fill="black"/>
<path opacity="0.1" d="M73.0698 85.4018H88.6533L92.0912 68.8742L77.1501 65.7881L73.0698 85.4018Z" fill="black"/>
<path opacity="0.1" d="M134.191 49.7835C134.191 46.6842 133.187 43.82 131.491 41.4897H108.51C106.813 43.82 105.81 46.6847 105.81 49.7835V63.4457H134.191V49.7835Z" fill="black"/>
<path d="M174.839 61.7847H174.772C165.796 61.7847 158.039 58.8237 154.348 54.5275C153.135 53.1151 151.327 52.3511 149.462 52.3511H90.5379C88.6729 52.3511 86.8645 53.1151 85.6514 54.5275C81.961 58.8244 74.2047 61.7847 65.2279 61.7847H65.1606C61.632 61.779 58.7495 64.5805 58.7495 68.0967V68.1625C58.7495 71.6852 61.6148 74.5405 65.1498 74.5405H174.849C178.384 74.5405 181.25 71.6852 181.25 68.1625V68.0967C181.25 64.5805 178.368 61.779 174.839 61.7847Z" fill="#C7CFE2"/>
<path d="M53.5503 50.7856H50.3085C44.5886 50.7856 40.2005 55.8434 41.027 61.4837L42.6475 72.5443C43.3204 77.1365 47.2725 80.5414 51.9291 80.5414C56.5857 80.5414 60.5378 77.1372 61.2106 72.5443L62.8311 61.4837C63.6583 55.8428 59.2695 50.7856 53.5503 50.7856Z" fill="#AFB6C7"/>
<path d="M139.618 92.6719H100.381V131.771H139.618V92.6719Z" fill="#5B5D6E"/>
<path d="M120 102.186C125.562 102.186 130.071 106.679 130.071 112.221C130.071 117.763 125.562 122.257 120 122.257C114.438 122.257 109.929 117.764 109.929 112.221C109.929 106.678 114.437 102.186 120 102.186Z" fill="#2A2A33"/>
<path d="M120 109.22C121.663 109.22 123.011 110.564 123.011 112.221C123.011 113.878 121.663 115.222 120 115.222C118.337 115.222 116.988 113.879 116.988 112.221C116.988 110.563 118.337 109.22 120 109.22Z" fill="#FF6465"/>
<path d="M60.9731 129.565L60.5834 131.438C59.4091 137.084 63.0502 142.61 68.7161 143.781C74.3826 144.951 79.9279 141.323 81.1022 135.677L81.4919 133.804L60.9731 129.565Z" fill="#C7CFE2"/>
<path d="M186.45 50.7856H189.691C195.411 50.7856 199.799 55.8434 198.973 61.4837L197.352 72.5443C196.68 77.1365 192.727 80.5414 188.071 80.5414C183.414 80.5414 179.462 77.1372 178.789 72.5443L177.169 61.4837C176.342 55.8428 180.73 50.7856 186.45 50.7856Z" fill="#AFB6C7"/>
<path d="M179.027 129.565L179.416 131.438C180.591 137.084 176.95 142.61 171.284 143.781C165.618 144.951 160.073 141.323 158.898 135.677L158.509 133.804L179.027 129.565Z" fill="#C7CFE2"/>
</g>
<defs>
<clipPath id="clip0_4081_3411">
<rect width="208" height="109" fill="white" transform="translate(16 35)"/>
</clipPath>
</defs>
</svg>
