<svg width="240" height="241" viewBox="0 0 240 241" fill="none" xmlns="http://www.w3.org/2000/svg">
<g clip-path="url(#clip0_4073_44337)">
<g clip-path="url(#clip1_4073_44337)">
<path d="M120 78.0488L0 240.167H240L120 78.0488Z" fill="#F3D670"/>
<path d="M156.136 126.868L120 78.0483L83.8638 126.868H156.136Z" fill="#FCF0B3"/>
<path d="M120 78.0483L154.838 240.166H240L120 78.0483Z" fill="#DE9D33"/>
<path d="M145.191 157.104H120.895V168H145.191V157.104Z" fill="#EEC553"/>
<path d="M157.902 199.619H122.557V210.516H157.902V199.619Z" fill="#EEC553"/>
<path d="M120 78.0483L130.491 126.868H156.136L120 78.0483Z" fill="#F2DC93"/>
<path opacity="0.74" d="M196.184 216.418H163.815V227.315H196.184V216.418Z" fill="#D3851A"/>
<path opacity="0.74" d="M204.23 191.842H181.19V202.738H212.296L204.23 191.842Z" fill="#D3851A"/>
<path opacity="0.74" d="M181.507 175.182H163.305V186.079H181.507V175.182Z" fill="#D3851A"/>
<path opacity="0.74" d="M164.34 137.952H155.201V148.848H172.406L164.34 137.952Z" fill="#D3851A"/>
<path d="M98.9658 143.4H79.6316V154.296H98.9658V143.4Z" fill="#EEC553"/>
<path opacity="0.74" d="M139.33 168H145.191V157.103H136.989L139.33 168Z" fill="#D3851A"/>
<path opacity="0.74" d="M157.902 199.619H146.125L148.467 210.516H157.902V199.619Z" fill="#D3851A"/>
<path d="M120.235 171.534H124.217V162.438H93.8594V171.534H97.8407L94.0907 191.042H66.9838L63.2336 171.534H67.2153V162.438H36.8575V171.534H40.839L27.6453 240.166H50.6179H76.4274H84.647H110.457H133.429L120.235 171.534Z" fill="#D89E3C"/>
<path d="M110.287 171.534H114.268V162.438H83.9105V171.534H87.8919L84.1418 191.042H57.035L53.2847 171.534H57.2664V162.438H26.9087V171.534H30.8902L17.6964 240.166H40.6691H66.4785H74.6981H100.508H123.48L110.287 171.534Z" fill="#F7E8AF"/>
<path d="M55.0336 180.63L53.2848 171.534H30.8903L29.1415 180.63H55.0336Z" fill="#E7C35D"/>
<path d="M112.035 180.63L110.287 171.534H87.8919L86.1433 180.63H112.035Z" fill="#E7C35D"/>
<path d="M95.6854 201.302H45.4912V240.166H95.6854V201.302Z" fill="#CD582C"/>
<path d="M55.8234 201.302H45.4912V240.166H55.8234V201.302Z" fill="#AD300F"/>
<path d="M33.6783 210.104C35.9768 210.104 37.8429 211.97 37.8429 214.268V240.166H29.5137V214.268C29.5137 211.97 31.3798 210.104 33.6783 210.104Z" fill="#E8C35A"/>
<path d="M107.498 210.104C109.797 210.104 111.663 211.97 111.663 214.268V240.166H103.334V214.268C103.334 211.97 105.2 210.104 107.498 210.104Z" fill="#E8C35A"/>
<path d="M51.878 196.331H45.4912V199.619H51.878V196.331Z" fill="#E8C35A"/>
<path d="M60.6394 197.29H54.2527V198.66H60.6394V197.29Z" fill="#E8C35A"/>
<path d="M69.401 197.29H63.0143V198.66H69.401V197.29Z" fill="#E8C35A"/>
<path d="M78.1625 197.29H71.7758V198.66H78.1625V197.29Z" fill="#E8C35A"/>
<path d="M86.924 197.29H80.5372V198.66H86.924V197.29Z" fill="#E8C35A"/>
<path d="M95.6855 196.331H89.2987V199.619H95.6855V196.331Z" fill="#E8C35A"/>
</g>
</g>
<defs>
<clipPath id="clip0_4073_44337">
<rect width="240" height="240" fill="white" transform="translate(0 0.166504)"/>
</clipPath>
<clipPath id="clip1_4073_44337">
<rect width="240" height="162.118" fill="white" transform="translate(0 78.0483)"/>
</clipPath>
</defs>
</svg>
