<svg width="240" height="241" viewBox="0 0 240 241" fill="none" xmlns="http://www.w3.org/2000/svg">
<g clip-path="url(#clip0_4073_25859)">
<path d="M148.051 55.7781C154.681 49.1457 155.769 39.0763 151.324 31.3127C143.559 26.8648 133.489 27.9529 126.862 34.5827C120.233 41.2153 119.147 51.2847 123.589 59.0482C131.351 63.4947 141.42 62.4081 148.051 55.7781Z" fill="#6BAE08"/>
<path d="M141.157 61.0138C141.157 72.7023 131.684 82.176 120.003 82.176C108.323 82.176 98.8436 72.7023 98.8436 61.0138C98.8436 49.3252 108.318 39.854 120.003 39.854C131.688 39.854 141.157 49.3279 141.157 61.0138Z" fill="#FF2A25"/>
<path d="M134.785 55.4266C134.785 61.084 130.2 65.674 124.545 65.674C118.891 65.674 114.302 61.084 114.302 55.4266C114.302 49.7692 118.889 45.1804 124.545 45.1804C130.201 45.1804 134.785 49.7692 134.785 55.4266Z" fill="#FF5F5E"/>
<path d="M164.847 83.2863C164.847 89.1754 160.071 93.953 154.179 93.953H85.8205C79.9286 93.953 75.1531 89.1754 75.1531 83.2863C75.1531 77.393 79.9285 72.6184 85.8205 72.6184H154.179C160.071 72.6184 164.847 77.393 164.847 83.2863Z" fill="white"/>
<path d="M158.369 72.6185C158.369 78.5091 153.594 83.2864 147.702 83.2864H127.211C121.322 83.2864 116.55 78.5091 116.55 72.6185C116.55 66.725 121.322 61.9504 127.211 61.9504H147.702C153.594 61.9504 158.369 66.725 158.369 72.6185Z" fill="white"/>
<path d="M113.867 72.6184C113.867 79.0275 108.673 84.2216 102.264 84.2216C95.8547 84.2216 90.6598 79.0275 90.6598 72.6184C90.6598 66.2093 95.854 61.0139 102.264 61.0139C108.674 61.0139 113.867 66.2092 113.867 72.6184Z" fill="white"/>
<path d="M189.618 87.7288H50.3821C43.8611 87.7288 38.5747 93.0151 38.5747 99.5362V153.23C38.5747 159.751 43.8611 165.037 50.3821 165.037H189.618C196.139 165.037 201.425 159.751 201.425 153.23V99.5362C201.425 93.0151 196.139 87.7288 189.618 87.7288Z" fill="#FFBF80"/>
<path d="M200.852 113.83C201.05 113.785 201.241 113.724 201.425 113.651V99.5363C201.425 96.8043 200.495 94.2909 198.937 92.2903H41.0629C39.505 94.2909 38.5747 96.8043 38.5747 99.5363V113.651C38.7591 113.724 38.9498 113.785 39.1482 113.83C50.2833 116.34 47.1613 132.951 60.8345 132.951C75.6247 132.951 75.6247 113.514 90.4147 113.514C105.205 113.514 105.206 132.951 119.997 132.951C134.787 132.951 134.788 113.514 149.579 113.514C164.37 113.514 164.371 132.951 179.163 132.951C192.837 132.951 189.715 116.34 200.852 113.83Z" fill="#FDAF66"/>
<path d="M203.885 103.465C203.885 105.284 202.626 106.863 200.852 107.262C189.715 109.772 192.837 126.383 179.163 126.383C164.371 126.383 164.371 106.946 149.579 106.946C134.787 106.946 134.788 126.383 119.996 126.383C105.205 126.383 105.206 106.946 90.4147 106.946C75.6239 106.946 75.6246 126.383 60.8344 126.383C47.1612 126.383 50.2833 109.773 39.148 107.263C37.374 106.863 36.1151 105.284 36.1151 103.465V89.6201C36.1151 87.4676 37.86 85.7227 40.0126 85.7227H199.987C202.14 85.7227 203.885 87.4676 203.885 89.6201V103.465Z" fill="#793D18"/>
<path d="M63.9422 82.5432L54.5026 87.3368C52.9623 88.1191 52.3477 90.0018 53.1299 91.5421C53.9122 93.0825 55.7949 93.697 57.3353 92.9148L66.7749 88.1211C68.3152 87.3389 68.9297 85.4561 68.1475 83.9158C67.3653 82.3755 65.4825 81.7609 63.9422 82.5432Z" fill="#00B6F4"/>
<path d="M96.4288 84.1274L86.0136 82.2274C84.3141 81.9173 82.6851 83.0437 82.375 84.7432C82.065 86.4427 83.1914 88.0718 84.8909 88.3818L95.3061 90.2818C97.0056 90.5918 98.6346 89.4654 98.9447 87.7659C99.2547 86.0664 98.1283 84.4374 96.4288 84.1274Z" fill="#55B200"/>
<path d="M186.81 82.8585L176.98 86.7902C175.376 87.4318 174.595 89.2522 175.237 90.8562C175.879 92.4602 177.699 93.2404 179.303 92.5988L189.133 88.6671C190.737 88.0256 191.517 86.2052 190.876 84.6012C190.234 82.9972 188.414 82.217 186.81 82.8585Z" fill="#DD77FF"/>
<path d="M209.055 147.66H30.9448C22.603 147.66 15.8407 154.422 15.8407 162.764V225.229C15.8407 233.571 22.603 240.333 30.9448 240.333H209.055C217.397 240.333 224.159 233.571 224.159 225.229V162.764C224.159 154.422 217.397 147.66 209.055 147.66Z" fill="#FFBF80"/>
<path d="M159.252 187.943C168.566 187.943 176.127 195.504 176.127 204.818V240.333H142.377V204.818C142.377 195.504 149.939 187.943 159.252 187.943Z" fill="#FF8422"/>
<path d="M170.179 220.346C171.807 220.346 173.126 219.026 173.126 217.398C173.126 215.77 171.807 214.451 170.179 214.451C168.551 214.451 167.231 215.77 167.231 217.398C167.231 219.026 168.551 220.346 170.179 220.346Z" fill="#CC5200"/>
<path d="M223.425 181.049C223.679 180.991 223.923 180.913 224.159 180.819V162.764C224.159 159.269 222.969 156.054 220.976 153.495H19.0236C17.0307 156.054 15.8407 159.269 15.8407 162.764V180.82C16.0765 180.913 16.3206 180.991 16.5743 181.049C30.8183 184.259 26.8247 205.508 44.3155 205.508C63.2351 205.508 63.2351 180.644 82.1544 180.644C101.074 180.644 101.075 205.508 119.995 205.508C138.916 205.508 138.916 180.644 157.837 180.644C176.759 180.644 176.759 205.508 195.681 205.508C213.173 205.508 209.18 184.259 223.425 181.049Z" fill="#FDAF66"/>
<path d="M227.305 167.789C227.305 170.116 225.695 172.136 223.426 172.647C209.18 175.858 213.174 197.106 195.681 197.106C176.759 197.106 176.759 172.243 157.838 172.243C138.916 172.243 138.917 197.106 119.996 197.106C101.075 197.106 101.075 172.243 82.1547 172.243C63.2342 172.243 63.2351 197.106 44.3155 197.106C26.8247 197.106 30.8185 175.858 16.5742 172.647C14.3049 172.136 12.6946 170.116 12.6946 167.79V150.079C12.6946 147.326 14.9267 145.094 17.6802 145.094H222.32C225.073 145.094 227.305 147.326 227.305 150.079V167.789Z" fill="#793D18"/>
<path d="M28.8921 119.736H36.3709C39.1764 119.736 41.4541 122.014 41.4541 124.819V147.664H23.809V124.819C23.809 122.014 26.0866 119.736 28.8921 119.736Z" fill="#A8581D"/>
<path d="M31.699 114.544H33.5637V120.366C33.5637 120.88 33.146 121.298 32.6314 121.298C32.1167 121.298 31.699 120.88 31.699 120.366V114.544Z" fill="#CCCCCC"/>
<path d="M38.9323 110.411C38.9323 113.857 36.1383 116.651 32.6916 116.651C29.245 116.651 26.4509 113.857 26.4509 110.411C26.4509 107.96 29.6061 103.078 31.4295 100.462C32.0428 99.5817 33.3404 99.5817 33.9538 100.462C35.7772 103.078 38.9323 107.96 38.9323 110.411Z" fill="#FFAD00"/>
<path d="M35.0424 112.222C35.0424 113.521 33.9899 114.573 32.6917 114.573C31.3934 114.573 30.3409 113.521 30.3409 112.222C30.3409 111.299 31.5294 109.461 32.2163 108.475C32.4473 108.143 32.9361 108.143 33.1671 108.475C33.854 109.461 35.0424 111.299 35.0424 112.222Z" fill="#FF9100"/>
<path d="M41.4543 147.665V144.055L31.3282 147.665H41.4543Z" fill="#994A16"/>
<path d="M38.75 120.329L23.8091 125.655V131.701L41.4543 125.411V124.82C41.4543 122.873 40.358 121.183 38.75 120.329Z" fill="#994A16"/>
<path d="M23.8091 137.8V143.845L41.4543 137.555V131.51L23.8091 137.8Z" fill="#994A16"/>
<path d="M87.1379 119.736H94.6166C97.4221 119.736 99.6998 122.014 99.6998 124.819V147.664H82.0547V124.819C82.0547 122.014 84.3324 119.736 87.1379 119.736Z" fill="#A8581D"/>
<path d="M89.9447 114.544H91.8095V120.366C91.8095 120.88 91.3917 121.298 90.8771 121.298C90.3625 121.298 89.9447 120.88 89.9447 120.366V114.544Z" fill="#CCCCCC"/>
<path d="M97.1779 110.411C97.1779 113.857 94.3839 116.651 90.9372 116.651C87.4906 116.651 84.6965 113.857 84.6965 110.411C84.6965 107.96 87.8517 103.078 89.6751 100.462C90.2884 99.5817 91.586 99.5817 92.1994 100.462C94.0228 103.078 97.1779 107.96 97.1779 110.411Z" fill="#FFAD00"/>
<path d="M93.2881 112.222C93.2881 113.521 92.2356 114.573 90.9374 114.573C89.6391 114.573 88.5867 113.521 88.5867 112.222C88.5867 111.299 89.7751 109.461 90.462 108.475C90.693 108.143 91.1818 108.143 91.4128 108.475C92.0997 109.461 93.2881 111.299 93.2881 112.222Z" fill="#FF9100"/>
<path d="M99.7 147.665V144.055L89.574 147.665H99.7Z" fill="#994A16"/>
<path d="M96.9957 120.329L82.0548 125.655V131.701L99.7 125.411V124.82C99.7 122.873 98.6037 121.183 96.9957 120.329Z" fill="#994A16"/>
<path d="M82.0548 137.8V143.845L99.7 137.555V131.51L82.0548 137.8Z" fill="#994A16"/>
<path d="M145.383 119.736H152.862C155.668 119.736 157.945 122.014 157.945 124.819V147.664H140.3V124.819C140.3 122.014 142.578 119.736 145.383 119.736Z" fill="#A8581D"/>
<path d="M148.19 114.544H150.055V120.366C150.055 120.88 149.637 121.298 149.123 121.298C148.608 121.298 148.19 120.88 148.19 120.366V114.544Z" fill="#CCCCCC"/>
<path d="M155.424 110.411C155.424 113.857 152.629 116.651 149.183 116.651C145.736 116.651 142.942 113.857 142.942 110.411C142.942 107.96 146.097 103.078 147.921 100.462C148.534 99.5817 149.832 99.5817 150.445 100.462C152.268 103.078 155.424 107.96 155.424 110.411Z" fill="#FFAD00"/>
<path d="M151.534 112.222C151.534 113.521 150.481 114.573 149.183 114.573C147.885 114.573 146.832 113.521 146.832 112.222C146.832 111.299 148.021 109.461 148.707 108.475C148.939 108.143 149.427 108.143 149.658 108.475C150.345 109.461 151.534 111.299 151.534 112.222Z" fill="#FF9100"/>
<path d="M157.945 147.665V144.055L147.819 147.665H157.945Z" fill="#994A16"/>
<path d="M155.241 120.329L140.3 125.655V131.701L157.945 125.411V124.82C157.945 122.873 156.849 121.183 155.241 120.329Z" fill="#994A16"/>
<path d="M140.3 137.8V143.845L157.945 137.555V131.51L140.3 137.8Z" fill="#994A16"/>
<path d="M203.629 119.736H211.108C213.913 119.736 216.191 122.014 216.191 124.819V147.664H198.546V124.819C198.546 122.014 200.823 119.736 203.629 119.736Z" fill="#A8581D"/>
<path d="M206.436 114.544H208.301V120.366C208.301 120.88 207.883 121.298 207.368 121.298C206.854 121.298 206.436 120.88 206.436 120.366V114.544Z" fill="#CCCCCC"/>
<path d="M213.669 110.411C213.669 113.857 210.875 116.651 207.428 116.651C203.982 116.651 201.188 113.857 201.188 110.411C201.188 107.96 204.343 103.078 206.166 100.462C206.78 99.5817 208.077 99.5817 208.691 100.462C210.514 103.078 213.669 107.96 213.669 110.411Z" fill="#FFAD00"/>
<path d="M209.779 112.222C209.779 113.521 208.727 114.573 207.428 114.573C206.13 114.573 205.078 113.521 205.078 112.222C205.078 111.299 206.266 109.461 206.953 108.475C207.184 108.143 207.673 108.143 207.904 108.475C208.591 109.461 209.779 111.299 209.779 112.222Z" fill="#FF9100"/>
<path d="M216.191 147.665V144.055L206.065 147.665H216.191Z" fill="#994A16"/>
<path d="M213.487 120.329L198.546 125.655V131.701L216.191 125.411V124.82C216.191 122.873 215.095 121.183 213.487 120.329Z" fill="#994A16"/>
<path d="M198.546 137.8V143.845L216.191 137.555V131.51L198.546 137.8Z" fill="#994A16"/>
<path d="M59.4795 142.611L49.0643 140.712C47.3648 140.401 45.7357 141.528 45.4257 143.227C45.1157 144.927 46.2421 146.556 47.9416 146.866L58.3567 148.766C60.0562 149.076 61.6853 147.95 61.9953 146.25C62.3054 144.551 61.179 142.922 59.4795 142.611Z" fill="#DD77FF"/>
<path d="M198.041 142.611L187.626 140.712C185.926 140.401 184.297 141.528 183.987 143.227C183.677 144.927 184.804 146.556 186.503 146.866L196.918 148.766C198.618 149.076 200.247 147.95 200.557 146.25C200.867 144.551 199.741 142.922 198.041 142.611Z" fill="#55B200"/>
<path d="M149.86 141.343L140.03 145.274C138.426 145.916 137.646 147.736 138.287 149.34C138.929 150.944 140.749 151.725 142.353 151.083L152.183 147.151C153.787 146.51 154.568 144.689 153.926 143.085C153.284 141.481 151.464 140.701 149.86 141.343Z" fill="#FFE41F"/>
<path d="M218.78 141.343L208.95 145.274C207.346 145.916 206.566 147.736 207.208 149.34C207.849 150.944 209.669 151.725 211.273 151.083L221.103 147.151C222.707 146.51 223.488 144.689 222.846 143.085C222.205 141.481 220.384 140.701 218.78 141.343Z" fill="#FF508A"/>
<path d="M26.9926 141.027L17.553 145.821C16.0127 146.603 15.3981 148.486 16.1804 150.026C16.9626 151.566 18.8454 152.181 20.3857 151.399L29.8253 146.605C31.3656 145.823 31.9802 143.94 31.198 142.4C30.4157 140.859 28.533 140.245 26.9926 141.027Z" fill="#FF7E3E"/>
<circle cx="28.7676" cy="218.869" r="5.48571" fill="#FDAF66"/>
<circle cx="91.592" cy="227.879" r="4.36295" fill="#FDAF66"/>
<circle cx="197.61" cy="233.615" r="4.36295" fill="#FDAF66"/>
<circle cx="78.4781" cy="201.134" r="3.58884" fill="#FDAF66"/>
<circle cx="109.825" cy="132.172" r="3.58884" fill="#FDAF66"/>
<circle cx="203.521" cy="210.641" r="3.58884" fill="#FDAF66"/>
<circle cx="43.6956" cy="213.384" r="2.74292" fill="#FDAF66"/>
<circle cx="131.972" cy="218.447" r="2.74292" fill="#FDAF66"/>
<circle cx="175.326" cy="131.326" r="2.74292" fill="#FDAF66"/>
</g>
<defs>
<clipPath id="clip0_4073_25859">
<rect width="240" height="240" fill="white" transform="translate(0 0.333008)"/>
</clipPath>
</defs>
</svg>
