<svg width="240" height="241" viewBox="0 0 240 241" fill="none" xmlns="http://www.w3.org/2000/svg">
<g clip-path="url(#clip0_4073_26076)">
<path d="M196.428 156.234C196.428 199.59 161.281 215.99 117.925 215.99C74.5694 215.99 39.4226 199.59 39.4226 156.234C39.4226 112.878 74.5694 77.7317 117.925 77.7317C161.281 77.7317 196.428 112.879 196.428 156.234Z" fill="white"/>
<path d="M144.034 48.7102H87.9097V91.3881H144.034V48.7102Z" fill="white"/>
<path d="M87.6886 69.9333C97.5716 69.9333 105.583 61.9215 105.583 52.0384C105.583 42.1554 97.5716 34.1436 87.6886 34.1436C77.8055 34.1436 69.7937 42.1554 69.7937 52.0384C69.7937 61.9215 77.8055 69.9333 87.6886 69.9333Z" fill="white"/>
<path d="M144.255 69.9333C154.138 69.9333 162.15 61.9215 162.15 52.0384C162.15 42.1554 154.138 34.1436 144.255 34.1436C134.372 34.1436 126.36 42.1554 126.36 52.0384C126.36 61.9215 134.372 69.9333 144.255 69.9333Z" fill="white"/>
<path d="M115.972 60.4653C125.855 60.4653 133.867 52.4535 133.867 42.5704C133.867 32.6873 125.855 24.6755 115.972 24.6755C106.089 24.6755 98.077 32.6873 98.077 42.5704C98.077 52.4535 106.089 60.4653 115.972 60.4653Z" fill="white"/>
<path opacity="0.22" d="M73.0417 147.398C79.051 147.398 83.9224 144.316 83.9224 140.515C83.9224 136.714 79.051 133.632 73.0417 133.632C67.0324 133.632 62.1609 136.714 62.1609 140.515C62.1609 144.316 67.0324 147.398 73.0417 147.398Z" fill="#FF8D8D"/>
<path opacity="0.22" d="M162.809 147.398C168.818 147.398 173.69 144.316 173.69 140.515C173.69 136.714 168.818 133.632 162.809 133.632C156.8 133.632 151.928 136.714 151.928 140.515C151.928 144.316 156.8 147.398 162.809 147.398Z" fill="#FF8D8D"/>
<path d="M118.29 56.2483C118.29 54.9679 117.252 53.9299 115.972 53.9299C114.691 53.9299 113.653 54.9679 113.653 56.2483V68.3629C113.653 69.6434 114.691 70.6813 115.972 70.6813C117.252 70.6813 118.29 69.6434 118.29 68.3629V56.2483Z" fill="#DBE6E2"/>
<path d="M105.848 62.075C105.848 60.7946 104.81 59.7566 103.529 59.7566C102.249 59.7566 101.211 60.7946 101.211 62.075V74.1896C101.211 75.47 102.249 76.508 103.529 76.508C104.81 76.508 105.848 75.47 105.848 74.1896V62.075Z" fill="#DBE6E2"/>
<path d="M130.732 62.075C130.732 60.7946 129.694 59.7566 128.414 59.7566C127.134 59.7566 126.096 60.7946 126.096 62.075V74.1896C126.096 75.47 127.134 76.508 128.414 76.508C129.694 76.508 130.732 75.47 130.732 74.1896V62.075Z" fill="#DBE6E2"/>
<path d="M84.6281 139.277C90.263 139.277 94.8311 134.709 94.8311 129.074C94.8311 123.439 90.263 118.871 84.6281 118.871C78.9931 118.871 74.425 123.439 74.425 129.074C74.425 134.709 78.9931 139.277 84.6281 139.277Z" fill="#242C38"/>
<path d="M151.676 139.277C157.311 139.277 161.879 134.709 161.879 129.074C161.879 123.439 157.311 118.871 151.676 118.871C146.041 118.871 141.473 123.439 141.473 129.074C141.473 134.709 146.041 139.277 151.676 139.277Z" fill="#242C38"/>
<path d="M105.312 143.314C109.028 146.552 114.562 146.553 118.28 143.317L118.283 143.314L118.296 143.326C122.012 146.558 127.54 146.558 131.256 143.326L131.269 143.314" stroke="#FF6C9A" stroke-width="7.06012" stroke-linecap="round" stroke-linejoin="round"/>
<path d="M40.8917 170.608C47.9394 203.259 79.7417 215.99 117.925 215.99C156.108 215.99 187.911 203.259 194.959 170.608H40.8917Z" fill="#242C38"/>
<path d="M80.1417 182.775L70.2576 182.663C70.5378 158.021 44.5514 149.01 37.918 147.114C37.0885 146.877 36.5977 146.03 36.792 145.19L38.2909 138.704C38.4991 137.803 39.4096 137.261 40.3031 137.5C55.1123 141.457 80.4539 155.306 80.1417 182.775Z" fill="#242C38"/>
<path d="M155.709 182.775L165.593 182.663C165.313 158.021 191.299 149.01 197.933 147.114C198.762 146.877 199.253 146.03 199.059 145.19L197.56 138.704C197.351 137.803 196.441 137.261 195.547 137.5C180.738 141.457 155.397 155.306 155.709 182.775Z" fill="#242C38"/>
<path d="M79.0741 177.125H69.6456C68.5387 177.125 67.6414 178.022 67.6414 179.129V182.363C67.6414 183.469 68.5387 184.367 69.6456 184.367H79.0741C80.181 184.367 81.0783 183.469 81.0783 182.363V179.129C81.0783 178.022 80.181 177.125 79.0741 177.125Z" fill="#3E4854"/>
<path d="M166.205 177.125H156.777C155.67 177.125 154.772 178.022 154.772 179.129V182.363C154.772 183.469 155.67 184.367 156.777 184.367H166.205C167.312 184.367 168.209 183.469 168.209 182.363V179.129C168.209 178.022 167.312 177.125 166.205 177.125Z" fill="#3E4854"/>
<path d="M189.147 199.357C200.049 199.357 208.886 190.52 208.886 179.618C208.886 168.717 200.049 159.879 189.147 159.879C178.246 159.879 169.408 168.717 169.408 179.618C169.408 190.52 178.246 199.357 189.147 199.357Z" fill="white" stroke="#98BBED" stroke-width="8.01522" stroke-miterlimit="10"/>
<path d="M50.8527 199.357C61.7542 199.357 70.5916 190.52 70.5916 179.618C70.5916 168.717 61.7542 159.879 50.8527 159.879C39.9513 159.879 31.1139 168.717 31.1139 179.618C31.1139 190.52 39.9513 199.357 50.8527 199.357Z" fill="white" stroke="#98BBED" stroke-width="8.01522" stroke-miterlimit="10"/>
<path d="M86.9749 212.645C96.4723 214.927 106.931 215.99 117.925 215.99C128.918 215.99 139.378 214.927 148.876 212.644V196.744C148.876 193.855 146.533 191.513 143.644 191.513H92.2063C89.317 191.513 86.9747 193.855 86.9747 196.744L86.9749 212.645Z" fill="#3E4854"/>
<path d="M92.5771 200.996C93.8727 200.996 94.9229 199.946 94.9229 198.65C94.9229 197.355 93.8727 196.305 92.5771 196.305C91.2816 196.305 90.2313 197.355 90.2313 198.65C90.2313 199.946 91.2816 200.996 92.5771 200.996Z" fill="#725E36"/>
<path d="M143.274 200.996C144.569 200.996 145.619 199.946 145.619 198.65C145.619 197.355 144.569 196.305 143.274 196.305C141.978 196.305 140.928 197.355 140.928 198.65C140.928 199.946 141.978 200.996 143.274 200.996Z" fill="#725E36"/>
</g>
<defs>
<clipPath id="clip0_4073_26076">
<rect width="185.788" height="191.315" fill="white" transform="translate(27.1062 24.6755)"/>
</clipPath>
</defs>
</svg>
