<svg width="240" height="240" viewBox="0 0 240 240" fill="none" xmlns="http://www.w3.org/2000/svg">
<g clip-path="url(#clip0_4081_3247)">
<path d="M68.3397 209.596C54.3634 209.596 42.9926 198.225 42.9926 184.249V163.34C42.9926 149.364 54.3634 137.993 68.3397 137.993V152.507C62.3663 152.507 57.5065 157.366 57.5065 163.34V184.249C57.5065 190.222 62.3663 195.082 68.3397 195.082V209.596Z" fill="#FFAB28"/>
<path d="M62.9731 148.78C61.8126 148.78 60.7372 148.032 60.3749 146.865C59.9293 145.429 60.7319 143.904 62.167 143.459C64.1575 142.841 66.2344 142.528 68.3396 142.528C69.8424 142.528 71.0609 143.746 71.0609 145.249C71.0609 146.752 69.8424 147.97 68.3396 147.97C66.7818 147.97 65.2479 148.202 63.7809 148.657C63.5121 148.74 63.2402 148.78 62.9731 148.78Z" fill="#FFC200"/>
<path d="M54.9973 199.187C54.2603 199.187 53.5263 198.889 52.9895 198.303C50.498 195.583 48.7714 192.248 47.9968 188.659C47.6796 187.19 48.6137 185.742 50.083 185.425C51.5487 185.108 52.9997 186.041 53.3173 187.511C53.8882 190.157 55.1629 192.618 57.0034 194.627C58.0186 195.736 57.9428 197.457 56.8342 198.473C56.3119 198.95 55.6537 199.187 54.9973 199.187ZM50.2495 181.285C48.7467 181.285 47.5282 180.067 47.5282 178.564V169.015C47.5282 167.512 48.7467 166.294 50.2495 166.294C51.7524 166.294 52.9709 167.512 52.9709 169.015V178.564C52.9709 180.067 51.7524 181.285 50.2495 181.285ZM50.661 162.218C50.4701 162.218 50.2766 162.197 50.0825 162.155C48.6137 161.837 47.6805 160.388 47.9986 158.92C48.7755 155.332 50.5029 151.999 52.9953 149.279C54.0105 148.172 55.7321 148.097 56.8399 149.111C57.9481 150.128 58.0229 151.849 57.0073 152.957C55.1664 154.965 53.8908 157.425 53.3181 160.071C53.0421 161.346 51.9145 162.218 50.661 162.218Z" fill="#FFC200"/>
<path d="M68.3396 205.06C66.2344 205.06 64.1575 204.746 62.167 204.129C60.7319 203.683 59.9293 202.159 60.3749 200.723C60.8209 199.287 62.3468 198.487 63.7811 198.931C65.248 199.386 66.7819 199.617 68.3397 199.617C69.8426 199.617 71.061 200.835 71.061 202.338C71.061 203.842 69.8425 205.06 68.3396 205.06Z" fill="#FFC200"/>
<path d="M188.724 81.6592H71.1699V213.538H188.724V81.6592Z" fill="#444444"/>
<path d="M187.688 111.418C187.688 111.418 160.435 94.9725 131.773 109.539C103.111 124.105 79.1469 114.003 79.1469 114.003V213.538H184.869L187.688 111.418Z" fill="#16D6FD"/>
<path d="M73.0918 111.418C73.0918 111.418 100.345 94.9725 129.007 109.539C157.669 124.105 181.633 114.003 181.633 114.003V213.538H75.9111L73.0918 111.418Z" fill="#11B5FD"/>
<path d="M70.922 55.1968H183.803C189.996 55.1968 195.025 60.2251 195.025 66.4185V78.2401C195.025 80.1272 193.492 81.6593 191.605 81.6593H63.1193C61.2323 81.6593 59.7002 80.1272 59.7002 78.2401V66.4185C59.7002 60.2251 64.7286 55.1968 70.922 55.1968Z" fill="#4780FF"/>
<path d="M63.1194 213.538H191.605C193.492 213.538 195.025 215.07 195.025 216.957V228.778C195.025 234.972 189.996 240 183.803 240H70.9221C64.7286 240 59.7003 234.972 59.7003 228.778V216.957C59.7003 215.07 61.2323 213.538 63.1194 213.538Z" fill="#4780FF"/>
<path d="M162.498 46.1053H152.827V44.356C152.827 40.6062 149.777 37.5562 146.028 37.5562H108.697C104.948 37.5562 101.898 40.6062 101.898 44.356V46.1053H92.2268C89.444 46.1053 87.1881 48.3612 87.1881 51.1439V55.1968H167.537V51.1439C167.537 48.3612 165.281 46.1053 162.498 46.1053ZM105.526 44.3561C105.526 42.6074 106.949 41.1848 108.697 41.1848H146.028C147.776 41.1848 149.198 42.6075 149.198 44.3561V46.1053H105.526L105.526 44.3561Z" fill="#1759BA"/>
<path d="M188.724 94.1895H192.074C194.797 94.1895 197.007 96.4001 197.007 99.1232V111.027C197.007 113.75 194.797 115.96 192.074 115.96H188.724V94.1895Z" fill="#1759BA"/>
<path d="M188.724 120.815H192.074C194.797 120.815 197.007 123.026 197.007 125.749V137.653C197.007 140.376 194.797 142.586 192.074 142.586H188.724V120.815Z" fill="#1759BA"/>
<path d="M188.724 167.96H190.351C194.025 167.96 197.007 170.943 197.007 174.616V200.93C197.007 204.604 194.025 207.586 190.351 207.586H188.724V167.96Z" fill="#1759BA"/>
<path opacity="0.05" d="M80.5566 62.437H71.1591C68.8235 62.437 66.9302 64.3304 66.9302 66.6659V70.1899C66.9302 72.5255 68.8235 74.4188 71.1591 74.4188H80.5566C82.8921 74.4188 84.7855 72.5255 84.7855 70.1899V66.6659C84.7855 64.3304 82.8921 62.437 80.5566 62.437Z" fill="white"/>
<path opacity="0.05" d="M80.5566 220.778H71.1591C68.8235 220.778 66.9302 222.671 66.9302 225.007V228.531C66.9302 230.866 68.8235 232.76 71.1591 232.76H80.5566C82.8921 232.76 84.7855 230.866 84.7855 228.531V225.007C84.7855 222.671 82.8921 220.778 80.5566 220.778Z" fill="white"/>
<g opacity="0.3">
<path d="M157.496 196.407C160.902 196.407 163.664 193.646 163.664 190.24C163.664 186.834 160.902 184.073 157.496 184.073C154.09 184.073 151.329 186.834 151.329 190.24C151.329 193.646 154.09 196.407 157.496 196.407Z" fill="white"/>
<path d="M127.873 203.882C129.321 203.882 130.495 202.708 130.495 201.26C130.495 199.812 129.321 198.639 127.873 198.639C126.425 198.639 125.251 199.812 125.251 201.26C125.251 202.708 126.425 203.882 127.873 203.882Z" fill="white"/>
<path d="M100.38 139.412C101.828 139.412 103.002 138.238 103.002 136.79C103.002 135.342 101.828 134.168 100.38 134.168C98.9324 134.168 97.7585 135.342 97.7585 136.79C97.7585 138.238 98.9324 139.412 100.38 139.412Z" fill="white"/>
<path d="M156.178 130.719C157.626 130.719 158.8 129.545 158.8 128.097C158.8 126.649 157.626 125.475 156.178 125.475C154.73 125.475 153.556 126.649 153.556 128.097C153.556 129.545 154.73 130.719 156.178 130.719Z" fill="white"/>
<g opacity="0.5">
<path d="M156.881 112.782C157.766 112.782 158.484 112.065 158.484 111.18C158.484 110.295 157.766 109.578 156.881 109.578C155.997 109.578 155.279 110.295 155.279 111.18C155.279 112.065 155.997 112.782 156.881 112.782Z" fill="white"/>
</g>
<path d="M121.084 168.562C123.385 168.562 125.251 166.696 125.251 164.394C125.251 162.092 123.385 160.227 121.084 160.227C118.782 160.227 116.916 162.092 116.916 164.394C116.916 166.696 118.782 168.562 121.084 168.562Z" fill="white"/>
<path d="M111.654 188.531C113.956 188.531 115.822 186.665 115.822 184.363C115.822 182.062 113.956 180.196 111.654 180.196C109.353 180.196 107.487 182.062 107.487 184.363C107.487 186.665 109.353 188.531 111.654 188.531Z" fill="white"/>
</g>
<path d="M97.6396 171.875C93.6605 171.875 90.4349 168.65 90.4349 164.671V130.526C90.4349 126.547 93.6606 123.321 97.6396 123.321H99.8323V81.6592H66.0012V213.538H99.8322V171.875H97.6396Z" fill="#2C78FF"/>
<path opacity="0.05" d="M99.8322 81.6592H66.0012V93.1189H99.8322V81.6592Z" fill="black"/>
<path d="M171.808 81.6592V123.321H170.868C166.889 123.321 163.664 126.547 163.664 130.526V164.671C163.664 168.65 166.889 171.875 170.868 171.875H171.808V213.538H188.724V81.6592H171.808Z" fill="#2C78FF"/>
<path opacity="0.05" d="M188.724 81.6592H171.808V93.1189H188.724V81.6592Z" fill="black"/>
<path opacity="0.05" d="M99.8322 206.377H66.0012V213.538H99.8322V206.377Z" fill="black"/>
<path opacity="0.05" d="M188.724 206.377H171.808V213.538H188.724V206.377Z" fill="black"/>
</g>
<defs>
<clipPath id="clip0_4081_3247">
<rect width="154.015" height="202.444" fill="white" transform="translate(42.9926 37.5562)"/>
</clipPath>
</defs>
</svg>
