<svg width="240" height="241" viewBox="0 0 240 241" fill="none" xmlns="http://www.w3.org/2000/svg">
<g clip-path="url(#clip0_4073_26190)">
<path d="M107.292 206.779C153.072 214.114 193.447 199.696 197.472 174.576C201.496 149.456 167.647 123.146 121.867 115.811C76.0875 108.477 35.7129 122.894 31.6882 148.014C27.6635 173.134 61.5127 199.444 107.292 206.779Z" fill="#FFB574"/>
<path d="M191.903 168.36C180.155 166.478 171.951 155.935 172.757 144.291C169.318 138.996 151.211 126.472 119.674 121.42C88.1365 116.367 67.0227 122.606 62.1019 126.561C59.2299 137.875 48.1426 145.326 36.3944 143.444C23.958 141.452 15.4916 129.755 17.4841 117.318C19.2152 106.514 27.1515 87.058 60.8518 78.1451C79.5923 73.1892 103.045 72.5635 126.889 76.3838C150.733 80.2041 172.817 88.1257 189.071 98.6884C218.3 117.684 219.76 138.645 218.029 149.45C216.037 161.886 204.34 170.352 191.903 168.36Z" fill="#793D18"/>
<path d="M129.723 58.6974C159.359 63.4455 179.564 91.3607 174.816 120.996L171.021 144.681C168.339 161.422 152.569 172.836 135.828 170.154L89.1031 162.668C72.3617 159.986 60.9474 144.216 63.6297 127.474L67.4245 103.79C72.1727 74.1545 100.088 53.9492 129.723 58.6974Z" fill="#FFE792"/>
<path opacity="0.91" d="M129.723 58.697C126.419 58.1676 123.14 57.9645 119.909 58.0329C131.938 72.8973 147.052 97.8825 142.575 125.83L135.482 170.098L135.828 170.154C152.581 172.838 168.337 161.433 171.021 144.68L174.816 120.996C179.567 91.3405 159.379 63.4484 129.723 58.697Z" fill="#FFDF6D"/>
<path d="M129.169 62.1551C156.866 66.5927 175.789 92.7363 171.352 120.434L167.37 145.286C165.098 159.466 151.713 169.154 137.534 166.882L88.5046 159.027C74.325 156.755 64.637 143.37 66.9089 129.19L70.8908 104.338C75.3285 76.6405 101.472 57.7175 129.169 62.1551ZM130.149 56.0418C99.0309 51.0561 69.7632 72.2403 64.7775 103.358L60.7956 128.211C57.9792 145.79 69.9464 162.323 87.5251 165.14L136.554 172.995C154.133 175.812 170.667 163.844 173.483 146.266L177.465 121.413C182.451 90.2951 161.267 61.0275 130.149 56.0418Z" fill="white"/>
<path d="M95.0456 45.1424L81.6553 50.3843L88.9516 69.0226L102.342 63.7807L95.0456 45.1424Z" fill="white"/>
<path d="M83.8848 57.9552C92.3489 59.3113 100.31 53.5491 101.666 45.0851C103.022 36.621 97.2598 28.6602 88.7957 27.3041C80.3317 25.948 72.3709 31.7101 71.0148 40.1742C69.6586 48.6382 75.4208 56.599 83.8848 57.9552Z" fill="#00B6F4"/>
<path d="M166.9 56.655L154.146 72.0808L165.229 81.2437L177.983 65.8179L166.9 56.655Z" fill="white"/>
<path d="M173.499 72.3128C181.963 73.6689 189.924 67.9068 191.28 59.4427C192.636 50.9787 186.874 43.0179 178.41 41.6618C169.946 40.3056 161.985 46.0678 160.629 54.5318C159.273 62.9959 165.035 70.9567 173.499 72.3128Z" fill="#DD77FF"/>
<path d="M209.721 168.07L192.876 154.868L144.439 147.107C136.295 147.488 126.684 147.086 115.84 145.348C104.996 143.611 95.74 140.99 88.122 138.084L48.8605 131.793L18.7551 135.194C21.7767 145.217 29.3667 156.982 46.4426 168.079C62.6967 178.642 84.7799 186.564 108.624 190.384C132.468 194.204 155.921 193.579 174.662 188.623C192.793 183.827 203.46 175.98 209.721 168.07Z" fill="#FDC980"/>
<path d="M209.721 168.07L192.875 154.868L165.273 150.445C155.689 153.572 138.068 156.018 114.729 152.279C91.3909 148.539 75.4156 140.711 67.2887 134.746L48.8605 131.793L18.7551 135.194C21.7573 145.152 29.2737 156.83 46.1184 167.864C61.1989 169.056 64.1324 155.27 80.3538 157.869C97.3035 160.585 94.8708 175.769 111.821 178.484C128.771 181.2 131.203 166.016 148.152 168.732C163.619 171.21 162.956 184.063 175.597 188.359C193.151 183.543 203.57 175.84 209.721 168.07Z" fill="#FFC278"/>
<path d="M218.029 149.45C220.022 137.013 211.555 125.317 199.119 123.324C187.371 121.442 176.284 128.893 173.412 140.206C168.491 144.162 147.377 150.402 115.84 145.349C84.3027 140.296 66.1951 127.772 62.7563 122.478C63.5628 110.833 55.3583 100.291 43.6101 98.4084C31.1738 96.4158 19.4768 104.882 17.4843 117.318C17.0681 119.916 16.8419 123.104 17.1367 126.708L15.5907 136.357C15.1389 139.177 17.0583 141.829 19.8779 142.281L18.8818 148.501C18.4301 151.32 20.3495 153.972 23.169 154.424C25.9886 154.876 28.6405 152.956 29.0923 150.136L29.1085 150.035C32.8389 154.624 36.4357 159.298 45.1332 160.692C62.0825 163.407 64.5153 148.224 81.4641 150.939C98.413 153.655 95.9812 168.839 112.931 171.554C129.882 174.27 132.313 159.086 149.263 161.802C166.212 164.518 163.781 179.702 180.733 182.418C184.935 183.091 188.238 182.655 191.098 181.674L190.556 185.06C190.104 187.879 192.023 190.531 194.843 190.983C197.662 191.435 200.315 189.515 200.766 186.696L201.316 183.267C201.633 183.386 201.966 183.475 202.314 183.531C205.133 183.983 207.785 182.063 208.237 179.244L210.11 167.554C215.192 160.933 217.25 154.315 218.029 149.45Z" fill="#793D18"/>
<path d="M37.0779 106.8L27.8939 107.281C26.6219 107.348 25.6448 108.433 25.7115 109.705C25.7781 110.977 26.8633 111.954 28.1352 111.887L37.3192 111.406C38.5912 111.339 39.5683 110.254 39.5017 108.982C39.435 107.71 38.3499 106.733 37.0779 106.8Z" fill="#DD77FF"/>
<path d="M61.8453 94.2463L54.4557 88.7718C53.4322 88.0136 51.9879 88.2286 51.2297 89.252C50.4715 90.2754 50.6865 91.7197 51.71 92.4779L59.0996 97.9525C60.1231 98.7107 61.5674 98.4957 62.3256 97.4723C63.0838 96.4489 62.8687 95.0046 61.8453 94.2463Z" fill="#00B6F4"/>
<path d="M194.932 134.288C193.909 133.529 192.465 133.744 191.706 134.768C190.948 135.791 191.163 137.236 192.187 137.994L199.576 143.468C200.6 144.226 202.044 144.011 202.802 142.988C203.56 141.965 203.345 140.52 202.322 139.762L194.932 134.288Z" fill="#5DD0FD"/>
<path d="M166.043 153.464L157.091 151.356C155.851 151.064 154.61 151.832 154.318 153.072C154.026 154.312 154.794 155.553 156.034 155.845L164.985 157.954C166.225 158.246 167.467 157.477 167.759 156.237C168.051 154.998 167.283 153.756 166.043 153.464Z" fill="#FF5E55"/>
<path d="M193.84 163.512C193.288 162.364 191.911 161.88 190.763 162.432C189.614 162.983 189.131 164.361 189.682 165.509L193.663 173.799C194.215 174.947 195.592 175.431 196.74 174.88C197.889 174.328 198.372 172.951 197.821 171.802L193.84 163.512Z" fill="#FDDB24"/>
<path d="M195.168 107.794L185.984 108.275C184.712 108.342 183.735 109.427 183.801 110.699C183.868 111.971 184.953 112.948 186.225 112.881L195.409 112.4C196.681 112.333 197.658 111.248 197.592 109.976C197.525 108.704 196.44 107.727 195.168 107.794Z" fill="white"/>
<path d="M51.9468 143.943L42.9951 141.835C41.7553 141.543 40.5136 142.311 40.2216 143.551C39.9296 144.791 40.698 146.032 41.9378 146.324L50.8895 148.433C52.1293 148.725 53.371 147.956 53.663 146.716C53.9549 145.477 53.1866 144.235 51.9468 143.943Z" fill="#55B200"/>
<path d="M63.1969 119.727C63.1969 119.727 76.2705 136.185 117.064 142.721C157.858 149.257 175.042 136.534 175.042 136.534" stroke="#662E10" stroke-width="8.84468" stroke-miterlimit="10" stroke-linecap="round"/>
</g>
<defs>
<clipPath id="clip0_4073_26190">
<rect width="203.103" height="174.29" fill="white" transform="translate(33.3306 18.415) rotate(9.10257)"/>
</clipPath>
</defs>
</svg>
