<svg width="240" height="240" viewBox="0 0 240 240" fill="none" xmlns="http://www.w3.org/2000/svg">
<g clip-path="url(#clip0_4081_3343)">
<path d="M127.246 98.0464H107.731V108.856H127.246V98.0464Z" fill="#5C29E0"/>
<path d="M194.509 165.779C194.509 141.605 175.015 122.008 150.969 122.008" stroke="#322687" stroke-width="22.1519" stroke-miterlimit="10"/>
<path d="M193.707 181.152C202.153 181.152 209 174.269 209 165.779C209 157.288 202.153 150.405 193.707 150.405C185.262 150.405 178.415 157.288 178.415 165.779C178.415 174.269 185.262 181.152 193.707 181.152Z" fill="#1665D8"/>
<path d="M45.4915 165.779C45.4915 141.605 64.9849 122.008 89.0314 122.008" stroke="#322687" stroke-width="22.1519" stroke-miterlimit="10"/>
<path d="M46.2926 181.152C54.7385 181.152 61.5852 174.269 61.5852 165.779C61.5852 157.288 54.7385 150.405 46.2926 150.405C37.8467 150.405 31 157.288 31 165.779C31 174.269 37.8467 181.152 46.2926 181.152Z" fill="#1665D8"/>
<path d="M102.705 183.409H87.9993V211.307H102.705V183.409Z" fill="#322687"/>
<path d="M91.5763 205.097H99.1276C104.421 205.097 108.719 209.418 108.719 214.739V232.103C108.719 236.462 105.199 240 100.864 240H89.8404C85.505 240 81.9854 236.462 81.9854 232.103V214.739C81.9854 209.418 86.2828 205.097 91.5763 205.097Z" fill="#322687"/>
<path d="M75.4468 222.956H89.8258C92.8757 222.956 95.352 225.445 95.352 228.511V236.291C95.352 238.338 93.699 240 91.6631 240H73.6095C71.5736 240 69.9207 238.338 69.9207 236.291V228.511C69.9207 225.445 72.3969 222.956 75.4468 222.956Z" fill="#322687"/>
<path d="M132.272 211.307H146.978V183.409H132.272V211.307Z" fill="#322687"/>
<path d="M145.136 240H134.113C129.778 240 126.258 236.462 126.258 232.103V214.739C126.258 209.417 130.556 205.097 135.849 205.097H143.401C148.694 205.097 152.992 209.417 152.992 214.739V232.103C152.992 236.462 149.472 240 145.136 240Z" fill="#322687"/>
<path d="M161.367 240H143.314C141.278 240 139.625 238.338 139.625 236.292V228.511C139.625 225.445 142.101 222.956 145.151 222.956H159.53C162.58 222.956 165.056 225.445 165.056 228.511V236.292C165.056 238.338 163.403 240 161.367 240Z" fill="#322687"/>
<path d="M74.9782 81.3816C82.7396 81.3816 89.0314 75.0563 89.0314 67.2538C89.0314 59.4512 82.7396 53.126 74.9782 53.126C67.2169 53.126 60.925 59.4512 60.925 67.2538C60.925 75.0563 67.2169 81.3816 74.9782 81.3816Z" fill="#4780FF"/>
<path d="M159.999 81.3816C167.76 81.3816 174.052 75.0563 174.052 67.2538C174.052 59.4512 167.76 53.126 159.999 53.126C152.237 53.126 145.946 59.4512 145.946 67.2538C145.946 75.0563 152.237 81.3816 159.999 81.3816Z" fill="#4780FF"/>
<path d="M149.614 33.6738H85.363C78.4233 33.6738 72.7976 39.3294 72.7976 46.3059V88.2017C72.7976 95.1782 78.4233 100.834 85.363 100.834H149.614C156.554 100.834 162.179 95.1782 162.179 88.2017V46.3059C162.179 39.3294 156.554 33.6738 149.614 33.6738Z" fill="#2C78FF"/>
<path d="M145.68 44.999H89.2968C86.376 44.999 84.0083 47.3793 84.0083 50.3156V84.1921C84.0083 87.1284 86.376 89.5087 89.2968 89.5087H145.68C148.601 89.5087 150.969 87.1284 150.969 84.1921V50.3156C150.969 47.3793 148.601 44.999 145.68 44.999Z" fill="#130F49"/>
<path d="M156.766 106.13H78.2106C72.2886 106.13 67.4879 110.956 67.4879 116.91V174.188C67.4879 180.141 72.2886 184.967 78.2106 184.967H156.766C162.688 184.967 167.489 180.141 167.489 174.188V116.91C167.489 110.956 162.688 106.13 156.766 106.13Z" fill="#1665D8"/>
<path d="M162.694 106.338H72.2834C67.7573 106.338 64.0883 110.027 64.0883 114.577V141.219C64.0883 145.769 67.7573 149.457 72.2834 149.457H162.694C167.22 149.457 170.889 145.769 170.889 141.219V114.577C170.889 110.027 167.22 106.338 162.694 106.338Z" fill="#2C78FF"/>
<path d="M121.091 112.766H113.886C112.741 112.766 111.812 113.699 111.812 114.851V122.093C111.812 123.245 112.741 124.179 113.886 124.179H121.091C122.236 124.179 123.165 123.245 123.165 122.093V114.851C123.165 113.699 122.236 112.766 121.091 112.766Z" fill="#FFC200"/>
<path d="M167.489 24.8034C167.489 23.8074 166.686 23 165.695 23C164.705 23 163.901 23.8074 163.901 24.8034V58.9503C163.901 59.9463 164.705 60.7537 165.695 60.7537C166.686 60.7537 167.489 59.9463 167.489 58.9503V24.8034Z" fill="#9F90F9"/>
<path d="M104.563 70.6183C107.479 70.6183 109.842 68.2423 109.842 65.3114C109.842 62.3804 107.479 60.0044 104.563 60.0044C101.648 60.0044 99.2845 62.3804 99.2845 65.3114C99.2845 68.2423 101.648 70.6183 104.563 70.6183Z" fill="#2EACE7"/>
<path d="M130.413 70.6183C133.329 70.6183 135.692 68.2423 135.692 65.3114C135.692 62.3804 133.329 60.0044 130.413 60.0044C127.498 60.0044 125.135 62.3804 125.135 65.3114C125.135 68.2423 127.498 70.6183 130.413 70.6183Z" fill="#2EACE7"/>
<path d="M109.658 76.9092C111.503 79.2058 114.323 80.6776 117.488 80.6776C120.653 80.6776 123.474 79.2059 125.318 76.9092" stroke="#2EACE7" stroke-width="3.8573" stroke-miterlimit="10" stroke-linecap="round"/>
</g>
<defs>
<clipPath id="clip0_4081_3343">
<rect width="178" height="217" fill="white" transform="translate(31 23)"/>
</clipPath>
</defs>
</svg>
