<svg width="240" height="241" viewBox="0 0 240 241" fill="none" xmlns="http://www.w3.org/2000/svg">
<g clip-path="url(#clip0_4056_13384)">
<path d="M80.6425 165.456H147.868C150.671 165.456 152.594 163.183 152.163 160.38L145.439 116.64C145.008 113.837 142.386 111.564 139.583 111.564H72.3575C69.5543 111.564 67.6312 113.837 68.0622 116.64L74.7866 160.38C75.2176 163.183 77.8394 165.456 80.6425 165.456Z" fill="#CAE8E3"/>
<path d="M84.4169 165.456H151.643C154.446 165.456 156.369 163.183 155.938 160.38L149.213 116.64C148.782 113.837 146.161 111.564 143.358 111.564H76.1319C73.3287 111.564 71.4057 113.837 71.8366 116.64L78.5611 160.38C78.992 163.183 81.6138 165.456 84.4169 165.456Z" fill="#EDF9F6"/>
<path d="M105.613 184.415C106.725 182.416 108.843 181.203 110.937 180.281C113.465 179.168 116.122 178.363 118.83 177.82C126.218 179.6 131.486 183.896 131.486 186.846V188.298C131.486 189.184 130.767 189.903 129.881 189.903H104.969C104.597 188.048 104.698 186.06 105.613 184.415Z" fill="#00B27F"/>
<path d="M112 176.992C114.407 176.992 116.702 177.307 118.83 177.82C116.122 178.364 113.465 179.168 110.937 180.281C108.843 181.203 106.725 182.416 105.613 184.415C104.698 186.061 104.597 188.048 104.969 189.903H94.1193C93.2328 189.903 92.5142 189.184 92.5142 188.298V186.846C92.5142 183.046 101.238 176.992 112 176.992Z" fill="#00A874"/>
<path d="M105.497 165.456H118.503V166.937C114.107 168.437 109.772 170.114 105.497 171.931V165.456Z" fill="#00CC96"/>
<path d="M118.503 166.937V179.378C118.503 181.131 115.592 182.553 112 182.553C108.409 182.553 105.497 181.131 105.497 179.378V171.931C109.773 170.114 114.107 168.437 118.503 166.937Z" fill="#00B787"/>
<path d="M129.048 129.712L127.239 117.951C127.154 117.396 127.535 116.947 128.089 116.947H140.865C141.42 116.947 141.938 117.396 142.024 117.951L143.832 129.712C143.917 130.267 143.537 130.716 142.982 130.716H130.206C129.652 130.716 129.133 130.267 129.048 129.712ZM114.27 130.716H127.045C127.6 130.716 127.98 130.267 127.895 129.712L126.087 117.951C126.002 117.396 125.483 116.947 124.928 116.947H112.153C111.598 116.947 111.217 117.396 111.303 117.951L113.111 129.712C113.196 130.267 113.715 130.716 114.27 130.716ZM98.3329 130.716H111.109C111.663 130.716 112.044 130.267 111.958 129.712L110.15 117.951C110.065 117.396 109.546 116.947 108.992 116.947H96.216C95.6613 116.947 95.2808 117.396 95.3661 117.951L97.1743 129.712C97.2595 130.267 97.7783 130.716 98.3329 130.716ZM82.3962 130.716H95.1718C95.7265 130.716 96.107 130.267 96.0217 129.712L94.2135 117.951C94.1283 117.396 93.6095 116.947 93.0549 116.947H80.2793C79.7246 116.947 79.3442 117.396 79.4294 117.951L81.2376 129.712C81.3229 130.267 81.8416 130.716 82.3962 130.716ZM132.463 145.395H145.239C145.793 145.395 146.174 144.945 146.088 144.391L144.28 132.629C144.195 132.075 143.676 131.625 143.122 131.625H130.346C129.791 131.625 129.411 132.075 129.496 132.629L131.304 144.391C131.39 144.945 131.908 145.395 132.463 145.395ZM116.526 145.395H129.302C129.856 145.395 130.237 144.945 130.152 144.391L128.344 132.629C128.258 132.075 127.739 131.625 127.185 131.625H114.409C113.855 131.625 113.474 132.075 113.559 132.629L115.368 144.391C115.453 144.945 115.972 145.395 116.526 145.395ZM100.59 145.395H113.365C113.92 145.395 114.3 144.945 114.215 144.391L112.407 132.629C112.322 132.075 111.803 131.625 111.248 131.625H98.4726C97.9179 131.625 97.5375 132.075 97.6227 132.629L99.4309 144.391C99.5162 144.945 100.035 145.395 100.59 145.395ZM84.6529 145.395H97.4285C97.9831 145.395 98.3636 144.945 98.2783 144.391L96.4702 132.629C96.3849 132.075 95.8661 131.625 95.3116 131.625H82.5359C81.9813 131.625 81.6008 132.075 81.6861 132.629L83.4942 144.391C83.5795 144.945 84.0983 145.395 84.6529 145.395ZM134.72 160.073H147.495C148.05 160.073 148.43 159.624 148.345 159.069L146.537 147.308C146.452 146.753 145.933 146.304 145.378 146.304H132.603C132.048 146.304 131.668 146.753 131.753 147.308L133.561 159.069C133.646 159.624 134.165 160.073 134.72 160.073ZM118.783 160.073H131.558C132.113 160.073 132.494 159.624 132.408 159.069L130.6 147.308C130.515 146.753 129.996 146.304 129.442 146.304H116.666C116.111 146.304 115.731 146.753 115.816 147.308L117.624 159.069C117.709 159.624 118.228 160.073 118.783 160.073ZM102.846 160.073H115.622C116.176 160.073 116.557 159.624 116.472 159.069L114.663 147.308C114.578 146.753 114.059 146.304 113.505 146.304H100.729C100.175 146.304 99.7941 146.753 99.8794 147.308L101.688 159.069C101.773 159.624 102.292 160.073 102.846 160.073ZM86.9095 160.073H99.6851C100.24 160.073 100.62 159.624 100.535 159.069L98.7268 147.308C98.6415 146.753 98.1228 146.304 97.5682 146.304H84.7926C84.2379 146.304 83.8574 146.753 83.9427 147.308L85.7509 159.069C85.8361 159.624 86.3549 160.073 86.9095 160.073Z" fill="#CCEDE7"/>
<g opacity="0.2">
<path d="M111.96 129.745C112.025 130.284 111.652 130.717 111.108 130.717H98.3328C97.7782 130.717 97.2595 130.267 97.1742 129.712L95.8235 120.926L111.96 129.745Z" fill="white"/>
<path d="M140.599 145.395H132.463C131.908 145.395 131.389 144.946 131.304 144.391L130.62 139.942L140.599 145.395Z" fill="white"/>
<path d="M129.302 145.395H123.829L114.76 140.439L113.559 132.629C113.474 132.075 113.855 131.625 114.409 131.625H115.401L129.362 139.255L130.152 144.391C130.237 144.946 129.856 145.395 129.302 145.395Z" fill="white"/>
<path d="M112.153 116.947H124.928C125.483 116.947 126.002 117.396 126.087 117.951L127.895 129.712C127.98 130.267 127.6 130.716 127.045 130.716H121.347L112.524 125.895L111.303 117.951C111.217 117.396 111.598 116.947 112.153 116.947Z" fill="white"/>
<path d="M99.431 144.391L99.0339 141.808L105.597 145.395H100.59C100.035 145.395 99.5162 144.945 99.431 144.391Z" fill="white"/>
<path d="M96.0217 129.712C96.0474 129.879 96.0266 130.035 95.9755 130.173L79.9632 121.423L79.4294 117.951C79.3442 117.396 79.7246 116.947 80.2793 116.947H88.5412L94.5653 120.239L96.0217 129.712Z" fill="white"/>
<path d="M98.2783 144.391C98.3636 144.945 97.9831 145.395 97.4285 145.395H84.6529C84.0983 145.395 83.5795 144.945 83.4942 144.391L81.6861 132.629C81.67 132.525 81.6753 132.425 81.6904 132.331L97.7757 141.121L98.2783 144.391Z" fill="white"/>
<path d="M112.407 132.629L113.502 139.751L98.632 131.625H111.248C111.803 131.625 112.322 132.075 112.407 132.629Z" fill="white"/>
<path d="M128.343 132.629L128.664 134.715L123.01 131.625H127.185C127.739 131.625 128.258 132.075 128.343 132.629Z" fill="white"/>
<path d="M132.158 149.947L131.753 147.308C131.667 146.753 132.048 146.304 132.603 146.304H142.261L146.76 148.762L148.298 158.767L132.158 149.947Z" fill="white"/>
<path d="M142.024 117.951L143.832 129.712C143.917 130.267 143.537 130.716 142.982 130.716H130.206C129.652 130.716 129.133 130.267 129.048 129.712L127.239 117.951C127.154 117.396 127.535 116.947 128.089 116.947H140.404L141.988 117.812C142.002 117.858 142.016 117.903 142.024 117.951Z" fill="white"/>
<path d="M129.922 135.403L129.496 132.629C129.411 132.075 129.791 131.625 130.346 131.625H143.122C143.676 131.625 144.195 132.075 144.28 132.629L146.063 144.223L129.922 135.403Z" fill="white"/>
<path d="M118.783 160.074C118.228 160.074 117.71 159.624 117.624 159.069L116.432 151.316L132.112 159.885C131.965 160.003 131.776 160.074 131.559 160.074H118.783Z" fill="white"/>
<path d="M115.622 160.073H102.846C102.292 160.073 101.773 159.624 101.688 159.069L99.8794 147.308C99.7941 146.753 100.175 146.303 100.729 146.303H107.26L115.174 150.629L116.472 159.069C116.557 159.624 116.176 160.073 115.622 160.073Z" fill="white"/>
<path d="M108.992 116.947C109.546 116.947 110.065 117.396 110.15 117.951L111.266 125.207L96.1602 116.952C96.1792 116.951 96.1966 116.947 96.216 116.947H108.992Z" fill="white"/>
<path d="M129.442 146.304C129.996 146.304 130.515 146.753 130.6 147.308L130.9 149.259L125.492 146.304L129.442 146.304Z" fill="white"/>
<path d="M99.6851 160.073H86.9095C86.3549 160.073 85.8362 159.624 85.7509 159.069L83.9427 147.308C83.8575 146.753 84.2379 146.303 84.7926 146.303H97.5682C98.1228 146.303 98.6416 146.753 98.7268 147.308L100.535 159.069C100.62 159.624 100.24 160.073 99.6851 160.073Z" fill="white"/>
</g>
<path d="M30.2926 173.023H116.94C120.553 173.023 123.031 170.095 122.476 166.482L113.809 110.105C113.253 106.492 109.874 103.563 106.261 103.563H19.614C16.001 103.563 13.5223 106.492 14.0778 110.105L22.745 166.481C23.3004 170.094 26.6796 173.023 30.2926 173.023Z" fill="#CAE8E3"/>
<path d="M35.1576 173.024H121.805C125.418 173.024 127.896 170.095 127.341 166.482L118.674 110.105C118.118 106.492 114.739 103.563 111.126 103.563H24.4789C20.8659 103.563 18.3873 106.492 18.9428 110.105L27.61 166.482C28.1654 170.095 31.5446 173.024 35.1576 173.024Z" fill="white"/>
<path d="M62.4771 197.46C63.9109 194.883 66.6398 193.32 69.3387 192.131C72.5975 190.696 76.0217 189.66 79.513 188.959C89.0347 191.253 95.8246 196.791 95.8246 200.592V202.464C95.8246 203.607 94.8983 204.533 93.7557 204.533H61.6474C61.1672 202.142 61.2975 199.581 62.4771 197.46Z" fill="#00CC96"/>
<path d="M70.7094 187.892C73.8117 187.892 76.7698 188.298 79.513 188.959C76.0217 189.66 72.5976 190.696 69.3387 192.131C66.6398 193.32 63.9109 194.883 62.4771 197.46C61.2975 199.58 61.1672 202.142 61.6474 204.533H47.6631C46.5205 204.533 45.5942 203.607 45.5942 202.464V200.592C45.5942 195.695 56.8385 187.892 70.7094 187.892Z" fill="#00C68D"/>
<path d="M62.3278 173.024H79.0908V174.933C73.4243 176.866 67.838 179.028 62.3278 181.37V173.024Z" fill="#00CC96"/>
<path d="M79.0908 174.933V190.968C79.0908 193.228 75.3386 195.061 70.7092 195.061C66.0799 195.061 62.3278 193.228 62.3278 190.968V181.37C67.838 179.028 73.4244 176.866 79.0908 174.933Z" fill="#0BD3A2"/>
<path d="M92.6819 126.954L90.3514 111.795C90.2415 111.08 90.732 110.5 91.4468 110.5H107.913C108.628 110.5 109.297 111.08 109.407 111.795L111.737 126.954C111.847 127.669 111.357 128.248 110.642 128.248H94.1753C93.4605 128.248 92.7919 127.669 92.6819 126.954ZM73.6345 128.248H90.101C90.8159 128.248 91.3063 127.669 91.1964 126.954L88.8659 111.795C88.756 111.08 88.0874 110.5 87.3725 110.5H70.906C70.1912 110.5 69.7008 111.08 69.8106 111.795L72.1411 126.954C72.251 127.669 72.9196 128.248 73.6345 128.248ZM53.0938 128.248H69.5603C70.2752 128.248 70.7656 127.669 70.6557 126.954L68.3252 111.795C68.2153 111.08 67.5467 110.5 66.8318 110.5H50.3653C49.6505 110.5 49.16 111.08 49.2699 111.795L51.6004 126.954C51.7103 127.669 52.3789 128.248 53.0938 128.248ZM32.553 128.248H49.0195C49.7344 128.248 50.2248 127.669 50.1149 126.954L47.7844 111.795C47.6745 111.08 47.006 110.5 46.291 110.5H29.8245C29.1097 110.5 28.6193 111.08 28.7291 111.795L31.0596 126.954C31.1695 127.669 31.8381 128.248 32.553 128.248ZM97.0839 147.167H113.55C114.265 147.167 114.756 146.588 114.646 145.873L112.315 130.714C112.205 129.999 111.537 129.42 110.822 129.42H94.3554C93.6406 129.42 93.1501 129.999 93.26 130.714L95.5905 145.873C95.7004 146.588 96.369 147.167 97.0839 147.167ZM76.5431 147.167H93.0096C93.7245 147.167 94.2149 146.588 94.105 145.873L91.7745 130.714C91.6646 129.999 90.996 129.42 90.2811 129.42H73.8146C73.0998 129.42 72.6093 129.999 72.7192 130.714L75.0497 145.873C75.1596 146.588 75.8282 147.167 76.5431 147.167ZM56.0023 147.167H72.4688C73.1837 147.167 73.6741 146.588 73.5642 145.873L71.2337 130.714C71.1238 129.999 70.4553 129.42 69.7403 129.42H53.2738C52.559 129.42 52.0686 129.999 52.1784 130.714L54.5089 145.873C54.6188 146.588 55.2874 147.167 56.0023 147.167ZM35.4616 147.167H51.9281C52.643 147.167 53.1334 146.588 53.0235 145.873L50.693 130.714C50.5831 129.999 49.9145 129.42 49.1996 129.42H32.7331C32.0183 129.42 31.5279 129.999 31.6377 130.714L33.9682 145.873C34.0781 146.588 34.7467 147.167 35.4616 147.167ZM99.9925 166.087H116.459C117.174 166.087 117.664 165.507 117.554 164.792L115.224 149.633C115.114 148.918 114.445 148.339 113.73 148.339H97.264C96.5491 148.339 96.0587 148.918 96.1686 149.633L98.4991 164.792C98.609 165.507 99.2776 166.087 99.9925 166.087ZM79.4517 166.087H95.9182C96.6331 166.087 97.1235 165.507 97.0136 164.792L94.6831 149.633C94.5732 148.918 93.9046 148.339 93.1897 148.339H76.7232C76.0084 148.339 75.5179 148.918 75.6278 149.633L77.9583 164.792C78.0682 165.507 78.7368 166.087 79.4517 166.087ZM58.9109 166.087H75.3774C76.0923 166.087 76.5827 165.507 76.4728 164.792L74.1423 149.633C74.0324 148.918 73.3638 148.339 72.6489 148.339H56.1824C55.4676 148.339 54.9772 148.918 55.087 149.633L57.4175 164.792C57.5274 165.507 58.196 166.087 58.9109 166.087ZM38.3702 166.087H54.8367C55.5516 166.087 56.042 165.507 55.9321 164.792L53.6016 149.633C53.4917 148.918 52.8231 148.339 52.1082 148.339H35.6417C34.9269 148.339 34.4364 148.918 34.5463 149.633L36.8768 164.792C36.9867 165.507 37.6553 166.087 38.3702 166.087Z" fill="#A6EDE1"/>
<g opacity="0.2">
<path d="M70.6578 126.996C70.7422 127.691 70.2608 128.249 69.5602 128.249H53.0937C52.3789 128.249 51.7103 127.669 51.6004 126.954L49.8594 115.63L70.6578 126.996Z" fill="white"/>
<path d="M107.57 147.168H97.0837C96.3689 147.168 95.7003 146.588 95.5903 145.873L94.7089 140.139L107.57 147.168Z" fill="white"/>
<path d="M93.0094 147.168H85.9559L74.2666 140.78L72.7191 130.714C72.6093 129.999 73.0997 129.42 73.8145 129.42H75.0933L93.0871 139.253L94.1049 145.874C94.2148 146.588 93.7243 147.168 93.0094 147.168Z" fill="white"/>
<path d="M70.9059 110.501H87.3724C88.0873 110.501 88.7559 111.08 88.8658 111.795L91.1963 126.954C91.3062 127.669 90.8159 128.248 90.101 128.248H82.7567L71.3848 122.034L69.8107 111.795C69.7007 111.08 70.1911 110.501 70.9059 110.501Z" fill="white"/>
<path d="M54.509 145.873L53.9973 142.545L62.4562 147.168H56.0023C55.2874 147.168 54.6189 146.588 54.509 145.873Z" fill="white"/>
<path d="M50.1148 126.954C50.1479 127.169 50.121 127.37 50.0553 127.548L29.417 116.27L28.729 111.795C28.6191 111.08 29.1095 110.5 29.8244 110.5H40.4732L48.2375 114.743L50.1148 126.954Z" fill="white"/>
<path d="M53.0234 145.873C53.1333 146.588 52.6429 147.168 51.928 147.168H35.4615C34.7467 147.168 34.0781 146.588 33.9682 145.873L31.6376 130.714C31.6169 130.579 31.6238 130.451 31.6433 130.329L52.3755 141.659L53.0234 145.873Z" fill="white"/>
<path d="M71.2335 130.714L72.6448 139.893L53.4791 129.419H69.7402C70.4551 129.419 71.1236 129.999 71.2335 130.714Z" fill="white"/>
<path d="M91.7744 130.714L92.1877 133.402L84.8998 129.419H90.281C90.9959 129.419 91.6644 129.999 91.7744 130.714Z" fill="white"/>
<path d="M96.6915 153.034L96.1686 149.633C96.0587 148.918 96.5491 148.339 97.2639 148.339H109.713L115.512 151.508L117.494 164.403L96.6915 153.034Z" fill="white"/>
<path d="M109.407 111.795L111.737 126.954C111.847 127.669 111.357 128.248 110.642 128.248H94.1752C93.4604 128.248 92.7918 127.669 92.6818 126.954L90.3513 111.795C90.2415 111.08 90.7318 110.5 91.4466 110.5H107.319L109.361 111.616C109.378 111.675 109.397 111.733 109.407 111.795Z" fill="white"/>
<path d="M93.8095 134.288L93.2599 130.714C93.15 129.999 93.6404 129.419 94.3552 129.419H110.822C111.537 129.419 112.205 129.999 112.315 130.714L114.612 145.657L93.8095 134.288Z" fill="white"/>
<path d="M79.4517 166.087C78.7368 166.087 78.0682 165.507 77.9583 164.792L76.422 154.8L96.6312 165.844C96.4425 165.995 96.1987 166.087 95.9181 166.087H79.4517Z" fill="white"/>
<path d="M75.3774 166.087H58.9109C58.1961 166.087 57.5275 165.507 57.4176 164.792L55.087 149.633C54.9772 148.918 55.4675 148.339 56.1824 148.339H64.5994L74.8002 153.913L76.4728 164.792C76.5826 165.507 76.0924 166.087 75.3774 166.087Z" fill="white"/>
<path d="M66.8317 110.501C67.5466 110.501 68.2152 111.08 68.3251 111.795L69.763 121.148L50.2933 110.508C50.3179 110.506 50.3403 110.5 50.3653 110.5L66.8317 110.501Z" fill="white"/>
<path d="M93.1896 148.339C93.9045 148.339 94.5731 148.918 94.683 149.633L95.0696 152.148L88.0992 148.339H93.1896Z" fill="white"/>
<path d="M54.8365 166.087H38.3701C37.6552 166.087 36.9866 165.507 36.8767 164.792L34.5461 149.633C34.4363 148.918 34.9266 148.339 35.6415 148.339H52.108C52.8228 148.339 53.4914 148.918 53.6013 149.633L55.9319 164.792C56.0417 165.507 55.5514 166.087 54.8365 166.087Z" fill="white"/>
</g>
<path d="M112.507 116.796C115.616 118.809 117.605 121.996 118.862 124.968C120.583 129.041 117.56 133.538 113.139 133.614C109.943 133.669 106.278 133.147 103.209 131.16C96.0065 126.498 94.8167 115.537 94.8167 115.537C94.8167 115.537 105.304 112.134 112.507 116.796Z" fill="#5DC91C"/>
<path d="M116.162 128.419C116.162 128.419 118.676 130.527 119.91 137.214C119.91 137.214 120.67 131.871 124.121 130.102" stroke="#5DC91C" stroke-width="2.96544" stroke-linecap="round" stroke-linejoin="round"/>
<path d="M94.8242 115.6C94.9282 116.454 96.3092 126.694 103.209 131.16C106.278 133.146 109.943 133.669 113.139 133.614C114.402 133.592 115.544 133.201 116.501 132.571C110.97 119.986 100.866 116.518 94.8242 115.6Z" fill="#6CD823"/>
<path d="M130.993 133.166C130.801 133.254 130.607 133.336 130.413 133.412C123.254 136.218 118.404 125.649 125.198 122.051C125.383 121.953 125.571 121.86 125.763 121.772C131.908 118.952 139.504 122.363 139.504 122.363C139.504 122.363 137.137 130.346 130.993 133.166Z" fill="#5DC91C"/>
<path d="M128.921 125.173C124.194 127.024 123.395 129.772 123.945 132.115C125.489 133.672 127.795 134.439 130.413 133.413C130.607 133.336 130.801 133.254 130.993 133.166C136.597 130.594 139.057 123.731 139.447 122.542C135.957 123.078 132.17 123.902 128.921 125.173Z" fill="#6CD823"/>
<path d="M171.318 116.796C174.427 118.809 176.416 121.996 177.672 124.968C179.394 129.041 176.37 133.538 171.95 133.614C168.754 133.669 165.088 133.147 162.02 131.16C154.817 126.498 153.627 115.537 153.627 115.537C153.627 115.537 164.115 112.134 171.318 116.796Z" fill="#5DC91C"/>
<path d="M174.973 128.419C174.973 128.419 177.486 130.527 178.72 137.214C178.72 137.214 179.481 131.871 182.931 130.102" stroke="#5DC91C" stroke-width="2.96544" stroke-linecap="round" stroke-linejoin="round"/>
<path d="M153.635 115.6C153.739 116.454 155.12 126.694 162.02 131.16C165.088 133.146 168.753 133.669 171.95 133.614C173.213 133.592 174.355 133.201 175.311 132.571C169.781 119.986 159.677 116.518 153.635 115.6Z" fill="#6CD823"/>
<path d="M189.804 133.166C189.612 133.254 189.418 133.336 189.223 133.412C182.065 136.218 177.215 125.649 184.009 122.051C184.194 121.953 184.382 121.86 184.574 121.772C190.719 118.952 198.315 122.363 198.315 122.363C198.315 122.363 195.948 130.346 189.804 133.166Z" fill="#5DC91C"/>
<path d="M187.732 125.173C183.005 127.024 182.206 129.772 182.756 132.115C184.3 133.672 186.606 134.439 189.224 133.413C189.418 133.336 189.612 133.254 189.804 133.166C195.408 130.594 197.868 123.731 198.258 122.542C194.767 123.078 190.98 123.902 187.732 125.173Z" fill="#6CD823"/>
<path d="M152.668 157.662C152.668 153.65 149.416 150.397 145.403 150.397C145.152 150.397 144.905 150.409 144.66 150.434C144.66 150.422 144.662 150.409 144.662 150.397C144.662 145.729 140.878 141.945 136.211 141.945C135.377 141.945 134.574 142.071 133.813 142.295C132.33 138.779 128.85 136.311 124.794 136.311C119.389 136.311 115.008 140.692 115.008 146.097C115.008 146.104 115.009 146.112 115.009 146.119C114.861 146.109 114.714 146.097 114.563 146.097C111.042 146.097 108.187 148.951 108.187 152.472C108.187 152.88 108.229 153.278 108.302 153.665C108.264 153.664 108.226 153.659 108.187 153.659C105.321 153.659 102.998 155.982 102.998 158.848H152.563C152.627 158.461 152.668 158.067 152.668 157.662Z" fill="#D7873E"/>
<path d="M128.529 158.525C130 157.223 130.931 155.327 130.931 153.207C130.931 149.271 127.74 146.08 123.803 146.08C123.383 146.08 122.973 146.123 122.573 146.193C122.612 145.834 122.633 145.468 122.633 145.099C122.633 139.517 118.108 134.993 112.527 134.993C106.946 134.993 102.421 139.517 102.421 145.099C102.421 145.464 102.442 145.824 102.48 146.179C102.129 146.118 101.771 146.08 101.403 146.08C98.7181 146.08 96.4373 147.784 95.565 150.166C94.4562 149.31 93.0703 148.795 91.5608 148.795C87.937 148.795 84.9991 151.732 84.9991 155.356C84.9991 156.507 85.2975 157.586 85.8184 158.525L128.529 158.525Z" fill="#B44C05"/>
<path d="M112.665 153.951C112.907 153.119 113.042 152.242 113.042 151.332C113.042 146.151 108.842 141.951 103.661 141.951C103.271 141.951 102.887 141.982 102.509 142.028C100.915 139.122 97.8275 137.15 94.2789 137.15C90.8426 137.15 87.8471 139.003 86.2126 141.758C85.1307 141.323 83.9527 141.078 82.7156 141.078C77.5336 141.078 73.3329 145.278 73.3329 150.46C73.3329 151.695 73.5779 152.871 74.0117 153.951H112.665Z" fill="#A94402"/>
<g opacity="0.05">
<path d="M81.8812 149.284C82.5786 149.284 83.1439 148.719 83.1439 148.021C83.1439 147.324 82.5786 146.759 81.8812 146.759C81.1839 146.759 80.6185 147.324 80.6185 148.021C80.6185 148.719 81.1839 149.284 81.8812 149.284Z" fill="black"/>
<path d="M132.312 149.009C133.009 149.009 133.575 148.444 133.575 147.747C133.575 147.049 133.009 146.484 132.312 146.484C131.615 146.484 131.049 147.049 131.049 147.747C131.049 148.444 131.615 149.009 132.312 149.009Z" fill="black"/>
<path d="M104.573 148.735C105.118 148.735 105.561 148.293 105.561 147.747C105.561 147.201 105.118 146.759 104.573 146.759C104.027 146.759 103.584 147.201 103.584 147.747C103.584 148.293 104.027 148.735 104.573 148.735Z" fill="black"/>
<path d="M108.953 139.826C109.499 139.826 109.941 139.384 109.941 138.838C109.941 138.292 109.499 137.85 108.953 137.85C108.407 137.85 107.965 138.292 107.965 138.838C107.965 139.384 108.407 139.826 108.953 139.826Z" fill="black"/>
<path d="M92.8116 145.55C93.7206 145.55 94.4575 144.813 94.4575 143.904C94.4575 142.995 93.7206 142.259 92.8116 142.259C91.9026 142.259 91.1656 142.995 91.1656 143.904C91.1656 144.813 91.9026 145.55 92.8116 145.55Z" fill="black"/>
</g>
<path d="M216.951 157.662C216.951 153.65 213.698 150.397 209.685 150.397C209.435 150.397 209.187 150.409 208.942 150.434C208.942 150.422 208.944 150.409 208.944 150.397C208.944 145.729 205.16 141.945 200.493 141.945C199.659 141.945 198.856 142.071 198.096 142.295C196.612 138.779 193.132 136.311 189.076 136.311C183.671 136.311 179.29 140.692 179.29 146.097C179.29 146.104 179.291 146.112 179.291 146.119C179.143 146.109 178.996 146.097 178.845 146.097C175.324 146.097 172.469 148.951 172.469 152.472C172.469 152.88 172.511 153.278 172.584 153.665C172.546 153.664 172.509 153.659 172.469 153.659C169.603 153.659 167.28 155.982 167.28 158.848H216.845C216.909 158.461 216.951 158.067 216.951 157.662Z" fill="#D7873E"/>
<path d="M192.811 158.525C194.282 157.223 195.213 155.327 195.213 153.207C195.213 149.271 192.022 146.08 188.086 146.08C187.665 146.08 187.256 146.123 186.855 146.193C186.894 145.834 186.915 145.468 186.915 145.099C186.915 139.517 182.391 134.993 176.809 134.993C171.228 134.993 166.704 139.517 166.704 145.099C166.704 145.464 166.724 145.824 166.762 146.179C166.412 146.118 166.053 146.08 165.685 146.08C163 146.08 160.72 147.784 159.847 150.166C158.738 149.31 157.353 148.795 155.843 148.795C152.219 148.795 149.281 151.732 149.281 155.356C149.281 156.507 149.58 157.586 150.101 158.525L192.811 158.525Z" fill="#B44C05"/>
<path d="M176.948 153.951C177.189 153.119 177.325 152.242 177.325 151.332C177.325 146.151 173.125 141.951 167.943 141.951C167.553 141.951 167.169 141.982 166.791 142.028C165.197 139.122 162.11 137.15 158.561 137.15C155.125 137.15 152.129 139.003 150.495 141.758C149.413 141.323 148.235 141.078 146.998 141.078C141.816 141.078 137.615 145.278 137.615 150.46C137.615 151.695 137.86 152.871 138.294 153.951H176.948Z" fill="#A94402"/>
<g opacity="0.05">
<path d="M146.163 149.284C146.861 149.284 147.426 148.719 147.426 148.021C147.426 147.324 146.861 146.759 146.163 146.759C145.466 146.759 144.901 147.324 144.901 148.021C144.901 148.719 145.466 149.284 146.163 149.284Z" fill="black"/>
<path d="M196.594 149.009C197.292 149.009 197.857 148.444 197.857 147.747C197.857 147.049 197.292 146.484 196.594 146.484C195.897 146.484 195.332 147.049 195.332 147.747C195.332 148.444 195.897 149.009 196.594 149.009Z" fill="black"/>
<path d="M168.855 148.735C169.401 148.735 169.843 148.293 169.843 147.747C169.843 147.201 169.401 146.759 168.855 146.759C168.309 146.759 167.866 147.201 167.866 147.747C167.866 148.293 168.309 148.735 168.855 148.735Z" fill="black"/>
<path d="M173.235 139.826C173.781 139.826 174.224 139.384 174.224 138.838C174.224 138.292 173.781 137.85 173.235 137.85C172.69 137.85 172.247 138.292 172.247 138.838C172.247 139.384 172.69 139.826 173.235 139.826Z" fill="black"/>
<path d="M157.094 145.55C158.003 145.55 158.74 144.813 158.74 143.904C158.74 142.995 158.003 142.259 157.094 142.259C156.185 142.259 155.448 142.995 155.448 143.904C155.448 144.813 156.185 145.55 157.094 145.55Z" fill="black"/>
</g>
<path d="M73.8656 154.105H219.266V207.249C219.266 215.696 212.408 222.554 203.96 222.554H89.1709C80.7236 222.554 73.8656 215.696 73.8656 207.249V154.105Z" fill="white"/>
<path d="M218.194 151.197H74.937C70.6261 151.197 67.1313 154.692 67.1313 159.003C67.1313 163.314 70.6261 166.809 74.937 166.809H218.194C222.505 166.809 226 163.314 226 159.003C226 154.692 222.505 151.197 218.194 151.197Z" fill="#0BD3A2"/>
<path d="M197.845 208.881H95.2868C86.5235 208.881 79.3938 216.011 79.3938 224.774C79.3938 233.536 86.5235 240.667 95.2868 240.667H197.845C206.608 240.667 213.738 233.537 213.738 224.774C213.738 216.01 206.608 208.881 197.845 208.881Z" fill="#161616"/>
<path d="M197.845 212.143H95.2867C88.3108 212.143 82.6556 217.798 82.6556 224.774C82.6556 231.75 88.3108 237.405 95.2867 237.405H197.845C204.821 237.405 210.476 231.75 210.476 224.774C210.476 217.798 204.821 212.143 197.845 212.143Z" stroke="#232323" stroke-width="4.74463" stroke-miterlimit="10"/>
<path d="M95.2867 237.405C102.263 237.405 107.918 231.75 107.918 224.774C107.918 217.798 102.263 212.143 95.2867 212.143C88.3108 212.143 82.6556 217.798 82.6556 224.774C82.6556 231.75 88.3108 237.405 95.2867 237.405Z" fill="#565050"/>
<path d="M95.2865 229.524C97.9098 229.524 100.036 227.397 100.036 224.774C100.036 222.151 97.9098 220.024 95.2865 220.024C92.6632 220.024 90.5366 222.151 90.5366 224.774C90.5366 227.397 92.6632 229.524 95.2865 229.524Z" fill="#837A71"/>
<path d="M129.473 237.405C136.449 237.405 142.104 231.75 142.104 224.774C142.104 217.798 136.449 212.143 129.473 212.143C122.497 212.143 116.842 217.798 116.842 224.774C116.842 231.75 122.497 237.405 129.473 237.405Z" fill="#565050"/>
<path d="M129.473 229.524C132.096 229.524 134.223 227.397 134.223 224.774C134.223 222.151 132.096 220.024 129.473 220.024C126.849 220.024 124.723 222.151 124.723 224.774C124.723 227.397 126.849 229.524 129.473 229.524Z" fill="#837A71"/>
<path d="M163.659 237.405C170.635 237.405 176.29 231.75 176.29 224.774C176.29 217.798 170.635 212.143 163.659 212.143C156.683 212.143 151.028 217.798 151.028 224.774C151.028 231.75 156.683 237.405 163.659 237.405Z" fill="#565050"/>
<path d="M163.659 229.524C166.282 229.524 168.409 227.397 168.409 224.774C168.409 222.151 166.282 220.024 163.659 220.024C161.035 220.024 158.909 222.151 158.909 224.774C158.909 227.397 161.035 229.524 163.659 229.524Z" fill="#837A71"/>
<path d="M197.845 237.405C204.821 237.405 210.476 231.75 210.476 224.774C210.476 217.798 204.821 212.143 197.845 212.143C190.869 212.143 185.214 217.798 185.214 224.774C185.214 231.75 190.869 237.405 197.845 237.405Z" fill="#565050"/>
<path d="M197.845 229.524C200.468 229.524 202.595 227.397 202.595 224.774C202.595 222.151 200.468 220.024 197.845 220.024C195.222 220.024 193.095 222.151 193.095 224.774C193.095 227.397 195.222 229.524 197.845 229.524Z" fill="#837A71"/>
<path d="M143.359 184.893C146.501 187.254 146.566 192.472 146.566 192.472C146.566 192.472 141.535 193.863 138.393 191.502C135.25 189.141 135.186 183.922 135.186 183.922C135.186 183.922 140.216 182.532 143.359 184.893Z" fill="#EDEDED"/>
<path d="M149.773 184.893C146.63 187.254 146.566 192.472 146.566 192.472C146.566 192.472 151.596 193.863 154.739 191.502C157.881 189.141 157.946 183.922 157.946 183.922C157.946 183.922 152.915 182.532 149.773 184.893Z" fill="#EDEDED"/>
</g>
<defs>
<clipPath id="clip0_4056_13384">
<rect width="240" height="240" fill="white" transform="translate(0 0.666748)"/>
</clipPath>
</defs>
</svg>
