<svg width="240" height="240" viewBox="0 0 240 240" fill="none" xmlns="http://www.w3.org/2000/svg">
<g clip-path="url(#clip0_4056_13394)">
<path d="M91.3734 184.438L150.761 181.173L127.865 111.568L58.592 134.573L91.3734 184.438Z" fill="#B8B8B8"/>
<path d="M99.9171 167.015C44.308 138.9 6.47583 101.635 15.4164 83.7819C24.357 65.9286 76.6848 74.2476 132.294 102.363C187.903 130.478 225.735 167.743 216.795 185.596C207.854 203.449 155.526 195.13 99.9171 167.015Z" fill="#EFEFEF"/>
<path d="M24.3925 66.5822L225.481 168.25L216.795 185.596L15.7059 83.9282L24.3925 66.5822Z" fill="#EFEFEF"/>
<path d="M108.814 149.249C53.2053 121.134 15.3732 83.8688 24.3138 66.0154C33.2545 48.1621 85.5823 56.481 141.191 84.5961C196.8 112.711 234.633 149.976 225.692 167.829C216.751 185.683 164.423 177.364 108.814 149.249Z" fill="white"/>
<path d="M80.4383 76.929C66.1147 105.531 169.199 157.649 183.523 129.047C197.846 100.445 186.382 65.5914 157.916 51.1992C129.45 36.8073 94.7617 48.3268 80.4383 76.929Z" fill="#39A0FF"/>
<path d="M183.523 129.047C197.846 100.445 186.382 65.5913 157.916 51.1991C129.45 36.8071 169.199 157.649 183.523 129.047Z" fill="#51ABFF"/>
<path d="M221.412 175.253C218.521 173.791 213.253 184.31 216.144 185.772C219.035 187.234 222.558 186.064 224.013 183.159C225.468 180.254 224.303 176.714 221.412 175.253Z" fill="#FF9E06"/>
<path d="M186.481 180.272C183.59 178.81 178.322 189.329 181.213 190.791C184.104 192.253 187.627 191.083 189.082 188.178C190.537 185.273 189.372 181.733 186.481 180.272Z" fill="#EDA637"/>
<path d="M149.399 170.792C147.893 170.031 144.897 171.68 143.59 174.447C142.388 176.992 142.746 180.612 144.131 181.312C147.022 182.774 150.545 181.604 152 178.699C153.455 175.794 152.29 172.254 149.399 170.792Z" fill="#FF9E06"/>
<path d="M21.4951 74.2913C24.3861 75.7528 19.1182 86.2724 16.227 84.8107C13.336 83.349 12.1717 79.8093 13.6265 76.9043C15.081 73.9994 18.6041 72.8296 21.4951 74.2913Z" fill="#FF9E06"/>
<path d="M38.3003 105.467C41.1913 106.929 35.9232 117.448 33.0322 115.987C30.1412 114.525 28.9767 110.985 30.4315 108.08C31.8862 105.176 35.4093 104.006 38.3003 105.467Z" fill="#EDA637"/>
<path d="M67.9743 129.739C69.4801 130.5 69.9475 133.901 68.515 136.604C67.1974 139.09 64.0914 140.959 62.7062 140.258C59.8152 138.797 58.6509 135.257 60.1057 132.352C61.5602 129.447 65.0832 128.277 67.9743 129.739Z" fill="#FF9E06"/>
<path d="M99.2129 155.723C97.8027 158.538 98.9313 161.97 101.734 163.387C104.536 164.804 107.951 163.669 109.362 160.854C110.772 158.038 109.643 154.606 106.841 153.189C104.038 151.773 100.623 152.907 99.2129 155.723Z" fill="#EDA637"/>
</g>
<defs>
<clipPath id="clip0_4056_13394">
<rect width="214" height="150" fill="white" transform="matrix(-1 0 0 1 227 45)"/>
</clipPath>
</defs>
</svg>
