<svg width="240" height="240" viewBox="0 0 240 240" fill="none" xmlns="http://www.w3.org/2000/svg">
<g clip-path="url(#clip0_4056_13348)">
<path d="M115.05 81.1866L105.393 86.7625L138.936 144.861L148.593 139.285L115.05 81.1866Z" fill="#D1DEE5"/>
<path d="M138.936 144.861L127.893 147.043L98.4357 96.0208L105.393 86.7625L138.936 144.861Z" fill="#D1DEE5"/>
<path d="M80.5796 115.993L102.62 103.268L123.255 139.009L101.215 151.734C91.3517 157.428 78.721 154.044 73.0266 144.181C67.3322 134.318 70.7166 121.687 80.5796 115.993Z" fill="#9EB0C6"/>
<path d="M60.3069 190.127H126.286C132.44 190.127 137.435 195.123 137.435 201.276V224.665H49.1581V201.276C49.1581 195.123 54.1536 190.127 60.3069 190.127Z" fill="#597C99"/>
<path d="M150.138 224.665H36.4558C34.3539 224.665 32.65 226.369 32.65 228.471V236.194C32.65 238.296 34.3539 240 36.4558 240H150.138C152.239 240 153.943 238.296 153.943 236.194V228.471C153.943 226.369 152.239 224.665 150.138 224.665Z" fill="#517791"/>
<path d="M82.4085 171.395H104.185C108.329 171.395 111.693 174.759 111.693 178.902V190.127H74.9008V178.902C74.9008 174.759 78.2649 171.395 82.4085 171.395Z" fill="#65839B"/>
<path d="M101.215 151.734L123.255 139.009L108.616 113.654L84.1226 127.795C78.3029 131.155 74.1658 136.309 72.0027 142.154C72.3046 142.84 72.6435 143.517 73.0267 144.181C78.725 154.051 91.345 157.432 101.215 151.734Z" fill="#91A7BC"/>
<path d="M186.064 154.534L150.49 142.569L113.154 77.9017L120.579 41.1116L186.064 154.534Z" fill="white"/>
<path d="M138.27 30.8979L120.579 41.1116L186.064 154.534L203.754 144.32L138.27 30.8979Z" fill="white"/>
<path d="M93.2967 118.801C100.178 118.801 105.766 124.388 105.766 131.27V171.395H80.8279V131.27C80.8279 124.388 86.415 118.801 93.2967 118.801Z" fill="#718BA5"/>
<path d="M135.757 40.0985L129.803 43.5356L188.577 145.334L194.53 141.897L135.757 40.0985Z" fill="#F0F5F7"/>
<path d="M93.2967 137.912C96.1973 137.912 98.5487 135.56 98.5487 132.66C98.5487 129.759 96.1973 127.408 93.2967 127.408C90.3961 127.408 88.0447 129.759 88.0447 132.66C88.0447 135.56 90.3961 137.912 93.2967 137.912Z" fill="white"/>
<path d="M140.359 44.1938L131.049 49.5693L133.003 52.9551L142.314 47.5795L140.359 44.1938Z" fill="#D1DEE5"/>
<path d="M147.641 56.8057L138.33 62.1813L140.285 65.567L149.596 60.1914L147.641 56.8057Z" fill="#D1DEE5"/>
<path d="M154.922 69.4175L145.612 74.7931L147.566 78.1788L156.877 72.8032L154.922 69.4175Z" fill="#D1DEE5"/>
<path d="M162.204 82.0296L152.893 87.4052L154.848 90.7909L164.159 85.4153L162.204 82.0296Z" fill="#D1DEE5"/>
<path d="M169.485 94.6415L160.175 100.017L162.129 103.403L171.44 98.0272L169.485 94.6415Z" fill="#D1DEE5"/>
<path d="M176.767 107.253L167.456 112.629L169.411 116.015L178.722 110.639L176.767 107.253Z" fill="#D1DEE5"/>
<path d="M184.048 119.865L174.738 125.241L176.692 128.627L186.003 123.251L184.048 119.865Z" fill="#D1DEE5"/>
<path d="M191.33 132.477L182.019 137.853L183.974 141.238L193.285 135.863L191.33 132.477Z" fill="#D1DEE5"/>
<path d="M193.878 70.0058L169.106 84.3081L172.625 90.4025L197.397 76.1001L193.878 70.0058Z" fill="#B7C7CE"/>
<path d="M195.638 84.7653C202.106 84.7653 207.35 79.5215 207.35 73.053C207.35 66.5845 202.106 61.3407 195.638 61.3407C189.169 61.3407 183.925 66.5845 183.925 73.053C183.925 79.5215 189.169 84.7653 195.638 84.7653Z" fill="#52607D"/>
<path d="M127.893 147.043L138.936 144.86L122.294 116.036L113.067 121.364L127.893 147.043Z" fill="#BFD3DD"/>
<path d="M131.952 110.46L122.294 116.036L138.936 144.86L148.593 139.285L131.952 110.46Z" fill="#BFD3DD"/>
</g>
<defs>
<clipPath id="clip0_4056_13348">
<rect width="240" height="240" fill="white"/>
</clipPath>
</defs>
</svg>
