<svg width="240" height="240" viewBox="0 0 240 240" fill="none" xmlns="http://www.w3.org/2000/svg">
<g clip-path="url(#clip0_4056_13389)">
<path d="M224.597 161.981H152.563L155.124 153.395C155.649 151.636 157.266 150.43 159.102 150.43H218.058C219.894 150.43 221.511 151.636 222.036 153.395L224.597 161.981Z" fill="#EFEFEF"/>
<path d="M235.684 216.737H141.476L147.702 163.101C148.081 159.842 150.841 157.383 154.123 157.383H223.037C226.319 157.383 229.08 159.842 229.458 163.101L235.684 216.737Z" fill="white"/>
<g opacity="0.05">
<mask id="mask0_4056_13389" style="mask-type:luminance" maskUnits="userSpaceOnUse" x="141" y="157" width="95" height="60">
<path d="M235.684 216.737H141.476L147.702 163.101C148.081 159.842 150.841 157.383 154.123 157.383H223.037C226.319 157.383 229.08 159.842 229.458 163.101L235.684 216.737Z" fill="white"/>
</mask>
<g mask="url(#mask0_4056_13389)">
<path d="M170.546 151.402V218.983" stroke="#414246" stroke-width="1.70787" stroke-miterlimit="10"/>
<path d="M137.16 207.248H170.546" stroke="#414246" stroke-width="1.70787" stroke-miterlimit="10"/>
<path d="M206.797 152.357V222.949" stroke="#414246" stroke-width="1.70787" stroke-miterlimit="10"/>
<path d="M206.797 199.223H240" stroke="#414246" stroke-width="1.70787" stroke-miterlimit="10"/>
<path d="M148.656 205.219C149.113 205.219 149.483 204.849 149.483 204.392C149.483 203.936 149.113 203.566 148.656 203.566C148.2 203.566 147.83 203.936 147.83 204.392C147.83 204.849 148.2 205.219 148.656 205.219Z" fill="#414246"/>
<path d="M153.853 205.219C154.31 205.219 154.68 204.849 154.68 204.392C154.68 203.936 154.31 203.566 153.853 203.566C153.397 203.566 153.027 203.936 153.027 204.392C153.027 204.849 153.397 205.219 153.853 205.219Z" fill="#414246"/>
<path d="M159.05 205.219C159.507 205.219 159.877 204.849 159.877 204.392C159.877 203.936 159.507 203.566 159.05 203.566C158.594 203.566 158.224 203.936 158.224 204.392C158.224 204.849 158.594 205.219 159.05 205.219Z" fill="#414246"/>
<path d="M164.247 205.219C164.704 205.219 165.074 204.849 165.074 204.392C165.074 203.936 164.704 203.566 164.247 203.566C163.791 203.566 163.421 203.936 163.421 204.392C163.421 204.849 163.791 205.219 164.247 205.219Z" fill="#414246"/>
<path d="M210.011 197.258C210.468 197.258 210.837 196.888 210.837 196.431C210.837 195.975 210.468 195.605 210.011 195.605C209.555 195.605 209.185 195.975 209.185 196.431C209.185 196.888 209.555 197.258 210.011 197.258Z" fill="#414246"/>
<path d="M215.208 197.258C215.665 197.258 216.035 196.888 216.035 196.431C216.035 195.975 215.665 195.605 215.208 195.605C214.752 195.605 214.382 195.975 214.382 196.431C214.382 196.888 214.752 197.258 215.208 197.258Z" fill="#414246"/>
<path d="M220.405 197.258C220.862 197.258 221.232 196.888 221.232 196.431C221.232 195.975 220.862 195.605 220.405 195.605C219.949 195.605 219.579 195.975 219.579 196.431C219.579 196.888 219.949 197.258 220.405 197.258Z" fill="#414246"/>
<path d="M225.602 197.258C226.059 197.258 226.429 196.888 226.429 196.431C226.429 195.975 226.059 195.605 225.602 195.605C225.146 195.605 224.776 195.975 224.776 196.431C224.776 196.888 225.146 197.258 225.602 197.258Z" fill="#414246"/>
<path d="M203.776 158.032C204.233 158.032 204.603 157.662 204.603 157.205C204.603 156.749 204.233 156.379 203.776 156.379C203.32 156.379 202.95 156.749 202.95 157.205C202.95 157.662 203.32 158.032 203.776 158.032Z" fill="#414246"/>
<path d="M203.776 163.229C204.233 163.229 204.603 162.859 204.603 162.402C204.603 161.946 204.233 161.576 203.776 161.576C203.32 161.576 202.95 161.946 202.95 162.402C202.95 162.859 203.32 163.229 203.776 163.229Z" fill="#414246"/>
<path d="M203.776 168.426C204.233 168.426 204.603 168.056 204.603 167.6C204.603 167.143 204.233 166.773 203.776 166.773C203.32 166.773 202.95 167.143 202.95 167.6C202.95 168.056 203.32 168.426 203.776 168.426Z" fill="#414246"/>
<path d="M203.776 173.623C204.233 173.623 204.603 173.253 204.603 172.797C204.603 172.34 204.233 171.97 203.776 171.97C203.32 171.97 202.95 172.34 202.95 172.797C202.95 173.253 203.32 173.623 203.776 173.623Z" fill="#414246"/>
</g>
</g>
<path d="M174.197 240H153.576V235.538C153.576 229.039 157.726 227.753 163.887 225.683C170.047 227.753 174.197 229.039 174.197 235.538L174.197 240Z" fill="#303135"/>
<path d="M223.584 240H202.963V235.538C202.963 229.039 207.113 227.753 213.274 225.683C219.434 227.753 223.584 229.039 223.584 235.538L223.584 240Z" fill="#303135"/>
<path d="M141.476 216.737H235.684L229.29 226.228C228.104 227.988 226.121 229.043 223.999 229.043H153.161C151.04 229.043 149.056 227.988 147.871 226.228L141.476 216.737Z" fill="#3B3B3D"/>
<path d="M178.498 214.465V240" stroke="#A5A5A5" stroke-width="2.56183" stroke-miterlimit="10"/>
<path d="M198.662 214.465V240" stroke="#A5A5A5" stroke-width="2.56183" stroke-miterlimit="10"/>
<path d="M178.498 236.888H198.662" stroke="#A5A5A5" stroke-width="2.56183" stroke-miterlimit="10"/>
<path d="M178.498 228.734H198.662" stroke="#A5A5A5" stroke-width="2.56183" stroke-miterlimit="10"/>
<path d="M178.498 220.581H198.662" stroke="#A5A5A5" stroke-width="2.56183" stroke-miterlimit="10"/>
<path d="M226.016 169.157H207.084C205.232 169.157 203.731 170.658 203.731 172.509V186.343C203.731 188.194 205.232 189.695 207.084 189.695H228.026C228.99 189.695 229.739 188.854 229.628 187.896L227.618 170.584C227.524 169.771 226.835 169.157 226.016 169.157Z" fill="#404656"/>
<g opacity="0.1">
<path d="M203.993 177.406V187.644C204.501 188.849 205.694 189.695 207.084 189.695H207.154L227.939 173.346L227.618 170.584C227.524 169.771 226.835 169.157 226.016 169.157H214.48L203.993 177.406Z" fill="white"/>
<path d="M228.447 177.724L213.228 189.695H218.423L228.882 181.468L228.447 177.724Z" fill="white"/>
</g>
<path d="M226.016 169.157H207.084C205.232 169.157 203.731 170.658 203.731 172.509V186.343C203.731 188.194 205.232 189.695 207.084 189.695H228.026C228.99 189.695 229.739 188.854 229.628 187.896L227.618 170.584C227.524 169.771 226.835 169.157 226.016 169.157Z" stroke="#9DA3A1" stroke-width="1.83109" stroke-miterlimit="10"/>
<path d="M151.144 169.157H170.077C171.928 169.157 173.429 170.658 173.429 172.509V186.343C173.429 188.194 171.928 189.695 170.077 189.695H149.135C148.17 189.695 147.421 188.854 147.532 187.896L149.542 170.584C149.636 169.771 150.325 169.157 151.144 169.157Z" fill="#404656"/>
<g opacity="0.1">
<path d="M173.167 177.406V187.644C172.659 188.849 171.467 189.695 170.077 189.695H170.006L149.221 173.346L149.542 170.584C149.636 169.771 150.325 169.157 151.145 169.157H162.68L173.167 177.406Z" fill="white"/>
<path d="M148.713 177.724L163.932 189.695H158.738L148.278 181.468L148.713 177.724Z" fill="white"/>
</g>
<path d="M151.144 169.157H170.077C171.928 169.157 173.429 170.658 173.429 172.509V186.343C173.429 188.194 171.928 189.695 170.077 189.695H149.135C148.17 189.695 147.421 188.854 147.532 187.896L149.542 170.584C149.636 169.771 150.325 169.157 151.144 169.157Z" stroke="#9DA3A1" stroke-width="1.83109" stroke-miterlimit="10"/>
<path d="M187.232 177.821H189.929C194.785 177.821 198.727 181.764 198.727 186.62V210.363C198.727 211.431 197.86 212.298 196.792 212.298H180.368C179.3 212.298 178.433 211.431 178.433 210.363V186.62C178.433 181.764 182.376 177.821 187.232 177.821Z" fill="#EFEFEF"/>
<path d="M195.941 199.076C196.701 199.076 197.318 198.46 197.318 197.699C197.318 196.938 196.701 196.322 195.941 196.322C195.18 196.322 194.563 196.938 194.563 197.699C194.563 198.46 195.18 199.076 195.941 199.076Z" fill="#C1C1C1"/>
<path d="M87.4369 161.981H15.4032L17.9642 153.395C18.4888 151.636 20.1064 150.43 21.9419 150.43H80.8983C82.7338 150.43 84.3513 151.636 84.876 153.395L87.4369 161.981Z" fill="#EFEFEF"/>
<path d="M98.5244 216.737H4.3158L10.5422 163.101C10.9206 159.842 13.6814 157.383 16.9629 157.383H85.8773C89.1588 157.383 91.9196 159.842 92.298 163.101L98.5244 216.737Z" fill="white"/>
<g opacity="0.05">
<mask id="mask1_4056_13389" style="mask-type:luminance" maskUnits="userSpaceOnUse" x="4" y="157" width="95" height="60">
<path d="M98.5244 216.737H4.3158L10.5422 163.101C10.9206 159.842 13.6814 157.383 16.9629 157.383H85.8773C89.1588 157.383 91.9196 159.842 92.298 163.101L98.5244 216.737Z" fill="white"/>
</mask>
<g mask="url(#mask1_4056_13389)">
<path d="M33.3864 151.402V218.983" stroke="#414246" stroke-width="1.70787" stroke-miterlimit="10"/>
<path d="M0.00012207 207.248H33.3864" stroke="#414246" stroke-width="1.70787" stroke-miterlimit="10"/>
<path d="M69.6375 152.357V222.949" stroke="#414246" stroke-width="1.70787" stroke-miterlimit="10"/>
<path d="M69.6375 199.223H102.84" stroke="#414246" stroke-width="1.70787" stroke-miterlimit="10"/>
<path d="M11.4961 205.219C11.9525 205.219 12.3225 204.849 12.3225 204.392C12.3225 203.936 11.9525 203.566 11.4961 203.566C11.0397 203.566 10.6697 203.936 10.6697 204.392C10.6697 204.849 11.0397 205.219 11.4961 205.219Z" fill="#414246"/>
<path d="M16.6932 205.219C17.1496 205.219 17.5196 204.849 17.5196 204.392C17.5196 203.936 17.1496 203.566 16.6932 203.566C16.2368 203.566 15.8668 203.936 15.8668 204.392C15.8668 204.849 16.2368 205.219 16.6932 205.219Z" fill="#414246"/>
<path d="M21.8902 205.219C22.3467 205.219 22.7167 204.849 22.7167 204.392C22.7167 203.936 22.3467 203.566 21.8902 203.566C21.4338 203.566 21.0638 203.936 21.0638 204.392C21.0638 204.849 21.4338 205.219 21.8902 205.219Z" fill="#414246"/>
<path d="M27.0874 205.219C27.5438 205.219 27.9138 204.849 27.9138 204.392C27.9138 203.936 27.5438 203.566 27.0874 203.566C26.631 203.566 26.261 203.936 26.261 204.392C26.261 204.849 26.631 205.219 27.0874 205.219Z" fill="#414246"/>
<path d="M72.8512 197.258C73.3076 197.258 73.6776 196.888 73.6776 196.431C73.6776 195.975 73.3076 195.605 72.8512 195.605C72.3948 195.605 72.0248 195.975 72.0248 196.431C72.0248 196.888 72.3948 197.258 72.8512 197.258Z" fill="#414246"/>
<path d="M78.0483 197.258C78.5047 197.258 78.8747 196.888 78.8747 196.431C78.8747 195.975 78.5047 195.605 78.0483 195.605C77.5919 195.605 77.2219 195.975 77.2219 196.431C77.2219 196.888 77.5919 197.258 78.0483 197.258Z" fill="#414246"/>
<path d="M83.2453 197.258C83.7018 197.258 84.0718 196.888 84.0718 196.431C84.0718 195.975 83.7018 195.605 83.2453 195.605C82.7889 195.605 82.4189 195.975 82.4189 196.431C82.4189 196.888 82.7889 197.258 83.2453 197.258Z" fill="#414246"/>
<path d="M88.4424 197.258C88.8988 197.258 89.2688 196.888 89.2688 196.431C89.2688 195.975 88.8988 195.605 88.4424 195.605C87.986 195.605 87.616 195.975 87.616 196.431C87.616 196.888 87.986 197.258 88.4424 197.258Z" fill="#414246"/>
<path d="M66.6166 158.032C67.073 158.032 67.443 157.662 67.443 157.205C67.443 156.749 67.073 156.379 66.6166 156.379C66.1602 156.379 65.7902 156.749 65.7902 157.205C65.7902 157.662 66.1602 158.032 66.6166 158.032Z" fill="#414246"/>
<path d="M66.6166 163.229C67.073 163.229 67.443 162.859 67.443 162.402C67.443 161.946 67.073 161.576 66.6166 161.576C66.1602 161.576 65.7902 161.946 65.7902 162.402C65.7902 162.859 66.1602 163.229 66.6166 163.229Z" fill="#414246"/>
<path d="M66.6166 168.426C67.073 168.426 67.443 168.056 67.443 167.6C67.443 167.143 67.073 166.773 66.6166 166.773C66.1602 166.773 65.7902 167.143 65.7902 167.6C65.7902 168.056 66.1602 168.426 66.6166 168.426Z" fill="#414246"/>
<path d="M66.6166 173.623C67.073 173.623 67.443 173.253 67.443 172.797C67.443 172.34 67.073 171.97 66.6166 171.97C66.1602 171.97 65.7902 172.34 65.7902 172.797C65.7902 173.253 66.1602 173.623 66.6166 173.623Z" fill="#414246"/>
</g>
</g>
<path d="M37.0374 240H16.416V235.538C16.416 229.039 20.5662 227.753 26.7267 225.683C32.8871 227.753 37.0373 229.039 37.0373 235.538L37.0374 240Z" fill="#303135"/>
<path d="M86.4242 240H65.8029V235.538C65.8029 229.039 69.9531 227.753 76.1135 225.683C82.2739 227.753 86.4241 229.039 86.4241 235.538L86.4242 240Z" fill="#303135"/>
<path d="M4.3158 216.737H98.5244L92.1295 226.228C90.9438 227.988 88.9607 229.043 86.8387 229.043H16.0015C13.8795 229.043 11.8964 227.988 10.7107 226.228L4.3158 216.737Z" fill="#3B3B3D"/>
<path d="M41.338 214.465V240" stroke="#A5A5A5" stroke-width="2.56183" stroke-miterlimit="10"/>
<path d="M61.502 214.465V240" stroke="#A5A5A5" stroke-width="2.56183" stroke-miterlimit="10"/>
<path d="M41.338 236.888H61.502" stroke="#A5A5A5" stroke-width="2.56183" stroke-miterlimit="10"/>
<path d="M41.338 228.734H61.502" stroke="#A5A5A5" stroke-width="2.56183" stroke-miterlimit="10"/>
<path d="M41.338 220.581H61.502" stroke="#A5A5A5" stroke-width="2.56183" stroke-miterlimit="10"/>
<path d="M88.8557 169.157H69.9236C68.0721 169.157 66.5712 170.658 66.5712 172.509V186.343C66.5712 188.194 68.0721 189.695 69.9236 189.695H90.8654C91.8301 189.695 92.5792 188.854 92.468 187.896L90.4583 170.584C90.3639 169.771 89.6748 169.157 88.8557 169.157Z" fill="#404656"/>
<g opacity="0.1">
<path d="M66.8331 177.406V187.644C67.3411 188.849 68.5335 189.695 69.9236 189.695H69.994L90.7789 173.346L90.4583 170.584C90.3638 169.771 89.6748 169.157 88.8557 169.157H77.3201L66.8331 177.406Z" fill="white"/>
<path d="M91.2872 177.724L76.0682 189.695H81.2627L91.7218 181.468L91.2872 177.724Z" fill="white"/>
</g>
<path d="M88.8557 169.157H69.9236C68.0721 169.157 66.5712 170.658 66.5712 172.509V186.343C66.5712 188.194 68.0721 189.695 69.9236 189.695H90.8654C91.8301 189.695 92.5792 188.854 92.468 187.896L90.4583 170.584C90.3639 169.771 89.6748 169.157 88.8557 169.157Z" stroke="#9DA3A1" stroke-width="1.83109" stroke-miterlimit="10"/>
<path d="M13.9844 169.157H32.9165C34.768 169.157 36.269 170.658 36.269 172.509V186.343C36.269 188.194 34.768 189.695 32.9165 189.695H11.9748C11.0101 189.695 10.2609 188.854 10.3722 187.896L12.3818 170.584C12.4763 169.771 13.1654 169.157 13.9844 169.157Z" fill="#404656"/>
<g opacity="0.1">
<path d="M36.0069 177.406V187.644C35.499 188.849 34.3066 189.695 32.9165 189.695H32.8461L12.0612 173.346L12.3818 170.584C12.4763 169.771 13.1653 169.157 13.9844 169.157H25.52L36.0069 177.406Z" fill="white"/>
<path d="M11.5529 177.724L26.772 189.695H21.5775L11.1183 181.468L11.5529 177.724Z" fill="white"/>
</g>
<path d="M13.9844 169.157H32.9165C34.768 169.157 36.269 170.658 36.269 172.509V186.343C36.269 188.194 34.768 189.695 32.9165 189.695H11.9748C11.0101 189.695 10.2609 188.854 10.3722 187.896L12.3818 170.584C12.4763 169.771 13.1654 169.157 13.9844 169.157Z" stroke="#9DA3A1" stroke-width="1.83109" stroke-miterlimit="10"/>
<path d="M50.0716 177.821H52.7685C57.6247 177.821 61.5672 181.764 61.5672 186.62V210.363C61.5672 211.431 60.7001 212.298 59.632 212.298H43.208C42.14 212.298 41.2728 211.431 41.2728 210.363V186.62C41.2728 181.764 45.2155 177.821 50.0716 177.821Z" fill="#EFEFEF"/>
<path d="M58.7805 199.076C59.5412 199.076 60.1578 198.46 60.1578 197.699C60.1578 196.938 59.5412 196.322 58.7805 196.322C58.0198 196.322 57.4032 196.938 57.4032 197.699C57.4032 198.46 58.0198 199.076 58.7805 199.076Z" fill="#C1C1C1"/>
<path d="M133.186 236.474H106.815V230.768C106.815 222.457 112.122 215.075 120 212.427C127.878 215.075 133.186 222.457 133.186 230.768L133.186 236.474Z" fill="#3E3F42"/>
<path d="M108.779 240H82.4083V234.294C82.4083 225.983 87.7157 218.6 95.5938 215.953C103.472 218.6 108.779 225.983 108.779 234.294L108.779 240Z" fill="#58595D"/>
<g opacity="0.5">
<path d="M108.779 234.712H82.4083V236.475H108.779V234.712Z" fill="#494C51"/>
<path d="M84.9024 224.795C84.5803 225.366 84.2887 225.955 84.0254 226.558H107.162C106.899 225.955 106.607 225.366 106.285 224.795H84.9024Z" fill="#494C51"/>
<path d="M82.9477 229.753C82.808 230.332 82.6977 230.921 82.6116 231.516H108.576C108.49 230.921 108.38 230.332 108.24 229.753H82.9477Z" fill="#494C51"/>
</g>
<path d="M120 28.27C113.24 28.27 106.487 32.6126 100.507 38.3665C87.309 51.0639 80.0027 79.5749 80.0027 97.8889V167.508H159.997V97.889C159.997 79.5749 152.691 51.064 139.493 38.3666C133.513 32.6126 126.76 28.27 120 28.27Z" fill="#E8F1F7"/>
<path d="M80.0027 97.8889V167.508H159.997V97.8889C159.997 90.0269 158.65 80.286 156.069 70.7234H83.9314C81.3504 80.2859 80.0027 90.0269 80.0027 97.8889Z" fill="white"/>
<path d="M168.542 209.158H71.4581L80.0026 167.508H159.997L168.542 209.158Z" fill="#EFEFEF"/>
<path d="M120 86.4351H120C112.357 86.4351 106.162 92.6307 106.162 100.273V133.657C106.162 141.299 112.357 147.495 120 147.495H120C127.643 147.495 133.839 141.299 133.839 133.657V100.273C133.839 92.6307 127.643 86.4351 120 86.4351Z" fill="#404656"/>
<path d="M120 94.0024H120C116.411 94.0024 113.501 96.9122 113.501 100.502V116.18C113.501 119.769 116.411 122.679 120 122.679H120C123.59 122.679 126.499 119.769 126.499 116.18V100.502C126.499 96.9122 123.59 94.0024 120 94.0024Z" fill="#808694"/>
<g opacity="0.1">
<path d="M126.088 87.845L106.162 103.519V119.629L133.651 98.0067C132.913 93.5303 130.028 89.7788 126.088 87.845Z" fill="white"/>
<path d="M133.838 107.523V103.068L106.162 124.839V129.293L133.838 107.523Z" fill="white"/>
<path d="M109.98 143.195C112.018 145.336 114.734 146.825 117.785 147.316L133.793 134.724C133.82 134.371 133.838 134.016 133.838 133.656V124.428L109.98 143.195Z" fill="white"/>
</g>
<path d="M120 86.4351H120C112.357 86.4351 106.162 92.6307 106.162 100.273V133.657C106.162 141.299 112.357 147.495 120 147.495H120C127.643 147.495 133.839 141.299 133.839 133.657V100.273C133.839 92.6307 127.643 86.4351 120 86.4351Z" stroke="#9DA3A1" stroke-width="3.08376" stroke-miterlimit="10"/>
<g opacity="0.05">
<mask id="mask2_4056_13389" style="mask-type:luminance" maskUnits="userSpaceOnUse" x="71" y="167" width="98" height="43">
<path d="M168.542 209.158H71.4581L80.0026 167.508H159.997L168.542 209.158Z" fill="white"/>
</mask>
<g mask="url(#mask2_4056_13389)">
<path d="M102.738 164.441V216.981" stroke="#414246" stroke-width="1.70787" stroke-miterlimit="10"/>
<path d="M69.3513 182.273H102.738" stroke="#414246" stroke-width="1.70787" stroke-miterlimit="10"/>
<path d="M138.989 165.396V213.143" stroke="#414246" stroke-width="1.70787" stroke-miterlimit="10"/>
<path d="M138.989 199.627H172.191" stroke="#414246" stroke-width="1.70787" stroke-miterlimit="10"/>
<path d="M80.8474 180.243C81.3038 180.243 81.6738 179.873 81.6738 179.417C81.6738 178.961 81.3038 178.591 80.8474 178.591C80.391 178.591 80.021 178.961 80.021 179.417C80.021 179.873 80.391 180.243 80.8474 180.243Z" fill="#414246"/>
<path d="M86.0446 180.243C86.501 180.243 86.871 179.873 86.871 179.417C86.871 178.961 86.501 178.591 86.0446 178.591C85.5881 178.591 85.2181 178.961 85.2181 179.417C85.2181 179.873 85.5881 180.243 86.0446 180.243Z" fill="#414246"/>
<path d="M91.2416 180.243C91.698 180.243 92.068 179.873 92.068 179.417C92.068 178.961 91.698 178.591 91.2416 178.591C90.7852 178.591 90.4152 178.961 90.4152 179.417C90.4152 179.873 90.7852 180.243 91.2416 180.243Z" fill="#414246"/>
<path d="M96.4387 180.243C96.8951 180.243 97.2651 179.873 97.2651 179.417C97.2651 178.961 96.8951 178.591 96.4387 178.591C95.9823 178.591 95.6123 178.961 95.6123 179.417C95.6123 179.873 95.9823 180.243 96.4387 180.243Z" fill="#414246"/>
<path d="M142.202 197.662C142.659 197.662 143.029 197.292 143.029 196.835C143.029 196.379 142.659 196.009 142.202 196.009C141.746 196.009 141.376 196.379 141.376 196.835C141.376 197.292 141.746 197.662 142.202 197.662Z" fill="#414246"/>
<path d="M147.4 197.662C147.856 197.662 148.226 197.292 148.226 196.835C148.226 196.379 147.856 196.009 147.4 196.009C146.943 196.009 146.573 196.379 146.573 196.835C146.573 197.292 146.943 197.662 147.4 197.662Z" fill="#414246"/>
<path d="M152.597 197.662C153.053 197.662 153.423 197.292 153.423 196.835C153.423 196.379 153.053 196.009 152.597 196.009C152.14 196.009 151.77 196.379 151.77 196.835C151.77 197.292 152.14 197.662 152.597 197.662Z" fill="#414246"/>
<path d="M157.794 197.662C158.25 197.662 158.62 197.292 158.62 196.835C158.62 196.379 158.25 196.009 157.794 196.009C157.337 196.009 156.967 196.379 156.967 196.835C156.967 197.292 157.337 197.662 157.794 197.662Z" fill="#414246"/>
<path d="M135.968 171.071C136.424 171.071 136.794 170.701 136.794 170.244C136.794 169.788 136.424 169.418 135.968 169.418C135.511 169.418 135.141 169.788 135.141 170.244C135.141 170.701 135.511 171.071 135.968 171.071Z" fill="#414246"/>
<path d="M135.968 176.268C136.424 176.268 136.794 175.898 136.794 175.441C136.794 174.985 136.424 174.615 135.968 174.615C135.511 174.615 135.141 174.985 135.141 175.441C135.141 175.898 135.511 176.268 135.968 176.268Z" fill="#414246"/>
<path d="M135.968 181.465C136.424 181.465 136.794 181.095 136.794 180.638C136.794 180.182 136.424 179.812 135.968 179.812C135.511 179.812 135.141 180.182 135.141 180.638C135.141 181.095 135.511 181.465 135.968 181.465Z" fill="#414246"/>
<path d="M135.968 186.662C136.424 186.662 136.794 186.292 136.794 185.835C136.794 185.379 136.424 185.009 135.968 185.009C135.511 185.009 135.141 185.379 135.141 185.835C135.141 186.292 135.511 186.662 135.968 186.662Z" fill="#414246"/>
</g>
</g>
<path d="M71.4581 209.158H168.542L159.997 221.976H80.0026L71.4581 209.158Z" fill="#4C4E51"/>
<path d="M157.592 240H131.221V234.294C131.221 225.983 136.528 218.6 144.406 215.953C152.284 218.6 157.592 225.983 157.592 234.294L157.592 240Z" fill="#58595D"/>
<g opacity="0.5">
<path d="M157.592 234.712H131.221V236.475H157.592V234.712Z" fill="#494C51"/>
<path d="M133.715 224.795C133.393 225.366 133.101 225.955 132.838 226.558H155.975C155.711 225.955 155.42 225.366 155.098 224.795H133.715Z" fill="#494C51"/>
<path d="M131.76 229.753C131.62 230.332 131.51 230.921 131.424 231.516H157.389C157.302 230.921 157.192 230.332 157.052 229.753H131.76Z" fill="#494C51"/>
</g>
<path d="M75.9874 215.953L80.0026 221.976H159.997L164.013 215.953H75.9874Z" fill="#414246"/>
<path d="M98.5117 103.767H92.6926C91.7732 103.767 91.028 104.512 91.028 105.431V111.25C91.028 112.17 91.7732 112.915 92.6926 112.915H98.5117C99.431 112.915 100.176 112.17 100.176 111.25V105.431C100.176 104.512 99.431 103.767 98.5117 103.767Z" fill="#F4EC59"/>
<path d="M98.5118 103.767H96.6308L91.0281 109.369V111.25C91.0281 111.401 91.0499 111.547 91.0875 111.686L98.9473 103.826C98.8082 103.788 98.6627 103.767 98.5118 103.767Z" fill="#303135"/>
<path d="M100.176 105.431C100.176 105.28 100.154 105.135 100.117 104.996L92.257 112.855C92.396 112.893 92.5415 112.915 92.6925 112.915H94.5735L100.176 107.312V105.431Z" fill="#303135"/>
<path d="M94.2916 103.767H92.6925C91.7732 103.767 91.028 104.512 91.028 105.431V107.03L94.2916 103.767Z" fill="#303135"/>
<path d="M100.176 111.25V109.651L96.9126 112.915H98.5116C99.4309 112.915 100.176 112.17 100.176 111.25Z" fill="#303135"/>
<path d="M98.5117 103.767H92.6926C91.7732 103.767 91.028 104.512 91.028 105.431V111.25C91.028 112.17 91.7732 112.915 92.6926 112.915H98.5117C99.431 112.915 100.176 112.17 100.176 111.25V105.431C100.176 104.512 99.431 103.767 98.5117 103.767Z" stroke="#F4EC59" stroke-width="0.63006" stroke-miterlimit="10"/>
<path d="M63.4785 153.109H15.7539C13.7639 153.109 12.3986 151.496 12.7046 149.506L17.4784 118.454C17.7844 116.464 19.6456 114.851 21.6356 114.851H69.3602C71.3502 114.851 72.7155 116.464 72.4095 118.454L67.6357 149.506C67.3298 151.496 65.4686 153.109 63.4785 153.109Z" fill="#E5E5E5"/>
<path d="M60.799 153.109H13.0743C11.0843 153.109 9.71906 151.496 10.025 149.506L14.7988 118.454C15.1048 116.464 16.966 114.851 18.9561 114.851H66.6807C68.6707 114.851 70.0359 116.464 69.73 118.454L64.9562 149.506C64.6502 151.496 62.7891 153.109 60.799 153.109Z" fill="white"/>
<path d="M28.2924 128.447H19.2228C18.829 128.447 18.5589 128.128 18.6195 127.734L19.9031 119.385C19.9636 118.991 20.3319 118.672 20.7257 118.672H29.7953C30.189 118.672 30.4591 118.991 30.3986 119.385L29.115 127.734C29.0544 128.128 28.6861 128.447 28.2924 128.447ZM40.4287 127.734L41.7123 119.385C41.7728 118.991 41.5027 118.672 41.109 118.672H32.0394C31.6456 118.672 31.2774 118.991 31.2168 119.385L29.9332 127.734C29.8726 128.128 30.1427 128.447 30.5365 128.447H39.6061C39.9999 128.447 40.3681 128.128 40.4287 127.734ZM51.7424 127.734L53.026 119.385C53.0865 118.991 52.8165 118.672 52.4227 118.672H43.3531C42.9593 118.672 42.5911 118.991 42.5305 119.385L41.2469 127.734C41.1864 128.128 41.4564 128.447 41.8502 128.447H50.9198C51.3136 128.447 51.6818 128.128 51.7424 127.734ZM63.0561 127.734L64.3397 119.385C64.4003 118.991 64.1302 118.672 63.7364 118.672H54.6668C54.273 118.672 53.9048 118.991 53.8442 119.385L52.5606 127.734C52.5001 128.128 52.7701 128.447 53.1639 128.447H62.2335C62.6273 128.447 62.9955 128.128 63.0561 127.734ZM27.5129 138.155L28.7965 129.805C28.857 129.412 28.5869 129.092 28.1932 129.092H19.1236C18.7298 129.092 18.3616 129.412 18.301 129.805L17.0174 138.155C16.9568 138.549 17.2269 138.868 17.6207 138.868H26.6903C27.0841 138.868 27.4523 138.549 27.5129 138.155ZM38.8266 138.155L40.1103 129.805C40.1708 129.412 39.9007 129.092 39.507 129.092H30.4373C30.0436 129.092 29.6754 129.412 29.6148 129.805L28.3311 138.155C28.2706 138.549 28.5407 138.868 28.9344 138.868H38.0041C38.3978 138.868 38.7661 138.549 38.8266 138.155ZM50.1403 138.155L51.424 129.805C51.4845 129.412 51.2144 129.092 50.8207 129.092H41.751C41.3573 129.092 40.9891 129.412 40.9285 129.805L39.6448 138.155C39.5843 138.549 39.8544 138.868 40.2482 138.868H49.3178C49.7115 138.868 50.0798 138.549 50.1403 138.155ZM61.4541 138.155L62.7377 129.805C62.7982 129.412 62.5281 129.092 62.1344 129.092H53.0648C52.671 129.092 52.3028 129.412 52.2422 129.805L50.9586 138.155C50.898 138.549 51.1681 138.868 51.5619 138.868H60.6315C61.0252 138.868 61.3935 138.549 61.4541 138.155ZM25.9108 148.576L27.1945 140.226C27.255 139.832 26.9849 139.513 26.5912 139.513H17.5215C17.1278 139.513 16.7596 139.832 16.699 140.226L15.4153 148.576C15.3548 148.969 15.6249 149.288 16.0186 149.288H25.0883C25.482 149.288 25.8503 148.969 25.9108 148.576ZM37.2246 148.576L38.5083 140.226C38.5688 139.832 38.2987 139.513 37.9049 139.513H28.8353C28.4416 139.513 28.0733 139.832 28.0128 140.226L26.7291 148.576C26.6686 148.969 26.9387 149.288 27.3324 149.288H36.4021C36.7958 149.288 37.164 148.969 37.2246 148.576ZM48.5383 148.576L49.822 140.226C49.8825 139.832 49.6124 139.513 49.2187 139.513H40.149C39.7553 139.513 39.387 139.832 39.3265 140.226L38.0428 148.576C37.9823 148.969 38.2524 149.288 38.6461 149.288H47.7158C48.1095 149.288 48.4777 148.969 48.5383 148.576ZM59.852 148.576L61.1357 140.226C61.1962 139.832 60.9261 139.513 60.5324 139.513H51.4627C51.069 139.513 50.7008 139.832 50.6402 140.226L49.3565 148.576C49.296 148.969 49.5661 149.288 49.9598 149.288H59.0295C59.4232 149.288 59.7914 148.969 59.852 148.576Z" fill="#C2E9FF"/>
<g opacity="0.2">
<path d="M41.2456 127.757C41.1992 128.14 41.4643 128.447 41.8502 128.447H50.9198C51.3136 128.447 51.6818 128.128 51.7424 127.734L52.7013 121.497L41.2456 127.757Z" fill="white"/>
<path d="M20.9146 138.868H26.6903C27.084 138.868 27.4523 138.549 27.5129 138.155L27.9984 134.997L20.9146 138.868Z" fill="white"/>
<path d="M28.9344 138.868H32.8194L39.2578 135.349L40.1102 129.805C40.1707 129.412 39.9006 129.093 39.5069 129.093H38.8026L28.8917 134.509L28.3311 138.155C28.2706 138.549 28.5406 138.868 28.9344 138.868Z" fill="white"/>
<path d="M41.1089 118.672H32.0392C31.6455 118.672 31.2773 118.991 31.2167 119.385L29.933 127.734C29.8725 128.128 30.1426 128.447 30.5363 128.447H34.5816L40.8452 125.024L41.7122 119.385C41.7727 118.991 41.5026 118.672 41.1089 118.672Z" fill="white"/>
<path d="M50.1403 138.155L50.4221 136.322L45.7629 138.868H49.3177C49.7115 138.868 50.0797 138.549 50.1403 138.155Z" fill="white"/>
<path d="M52.5606 127.734C52.5423 127.853 52.5571 127.963 52.5933 128.062L63.9607 121.85L64.3397 119.385C64.4002 118.991 64.1301 118.672 63.7364 118.672H57.8711L53.5945 121.009L52.5606 127.734Z" fill="white"/>
<path d="M50.9585 138.155C50.898 138.549 51.1682 138.868 51.5618 138.868H60.6315C61.0252 138.868 61.3935 138.549 61.454 138.155L62.7377 129.805C62.7491 129.731 62.7453 129.661 62.7346 129.593L51.3154 135.834L50.9585 138.155Z" fill="white"/>
<path d="M40.9284 129.805L40.1511 134.861L50.7075 129.093H41.7509C41.3572 129.093 40.989 129.412 40.9284 129.805Z" fill="white"/>
<path d="M29.6147 129.805L29.3871 131.286L33.4012 129.093H30.4373C30.0435 129.093 29.6753 129.412 29.6147 129.805Z" fill="white"/>
<path d="M26.9065 142.099L27.1945 140.226C27.255 139.832 26.9849 139.513 26.5912 139.513H19.7341L16.5403 141.258L15.4484 148.361L26.9065 142.099Z" fill="white"/>
<path d="M19.9031 119.385L18.6194 127.734C18.5589 128.128 18.829 128.447 19.2227 128.447H28.2924C28.6861 128.447 29.0544 128.128 29.1149 127.734L30.3986 119.385C30.4591 118.991 30.189 118.672 29.7953 118.672H21.0529L19.9281 119.287C19.9186 119.319 19.9083 119.351 19.9031 119.385Z" fill="white"/>
<path d="M28.4938 131.774L28.7965 129.805C28.857 129.412 28.5869 129.093 28.1932 129.093H19.1235C18.7298 129.093 18.3616 129.412 18.301 129.805L17.0356 138.036L28.4938 131.774Z" fill="white"/>
<path d="M36.402 149.288C36.7957 149.288 37.1639 148.969 37.2245 148.575L38.0707 143.072L26.9396 149.154C27.0435 149.238 27.1778 149.288 27.3323 149.288H36.402Z" fill="white"/>
<path d="M38.6461 149.288H47.7158C48.1095 149.288 48.4778 148.969 48.5383 148.575L49.822 140.226C49.8825 139.832 49.6124 139.513 49.2187 139.513H44.5827L38.9641 142.583L38.0429 148.575C37.9824 148.969 38.2524 149.288 38.6461 149.288Z" fill="white"/>
<path d="M43.353 118.672C42.9593 118.672 42.5911 118.991 42.5305 119.385L41.7385 124.536L52.4623 118.676C52.4489 118.675 52.4365 118.672 52.4227 118.672L43.353 118.672Z" fill="white"/>
<path d="M28.8352 139.513C28.4415 139.513 28.0732 139.832 28.0127 140.226L27.7997 141.611L31.639 139.513H28.8352Z" fill="white"/>
<path d="M49.9598 149.288H59.0294C59.4232 149.288 59.7914 148.969 59.852 148.575L61.1356 140.226C61.1962 139.832 60.9261 139.513 60.5323 139.513H51.4627C51.069 139.513 50.7007 139.832 50.6401 140.226L49.3565 148.575C49.296 148.969 49.5661 149.288 49.9598 149.288Z" fill="white"/>
</g>
<path d="M176.521 153.109H224.246C226.236 153.109 227.601 151.496 227.295 149.506L222.522 118.454C222.216 116.464 220.354 114.851 218.364 114.851H170.64C168.65 114.851 167.284 116.464 167.59 118.454L172.364 149.506C172.67 151.496 174.531 153.109 176.521 153.109Z" fill="#E5E5E5"/>
<path d="M179.201 153.109H226.926C228.916 153.109 230.281 151.496 229.975 149.506L225.201 118.454C224.895 116.464 223.034 114.851 221.044 114.851H173.319C171.329 114.851 169.964 116.464 170.27 118.454L175.044 149.506C175.35 151.496 177.211 153.109 179.201 153.109Z" fill="white"/>
<path d="M210.885 127.734L209.602 119.385C209.541 118.991 209.811 118.672 210.205 118.672H219.274C219.668 118.672 220.036 118.991 220.097 119.385L221.381 127.734C221.441 128.128 221.171 128.447 220.777 128.447H211.708C211.314 128.447 210.946 128.128 210.885 127.734ZM200.394 128.447H209.464C209.857 128.447 210.127 128.128 210.067 127.734L208.783 119.385C208.723 118.991 208.355 118.672 207.961 118.672H198.891C198.497 118.672 198.227 118.991 198.288 119.385L199.571 127.734C199.632 128.128 200 128.447 200.394 128.447ZM189.08 128.447H198.15C198.544 128.447 198.814 128.128 198.753 127.734L197.47 119.385C197.409 118.991 197.041 118.672 196.647 118.672H187.577C187.184 118.672 186.914 118.991 186.974 119.385L188.258 127.734C188.318 128.128 188.686 128.447 189.08 128.447ZM177.767 128.447H186.836C187.23 128.447 187.5 128.128 187.439 127.734L186.156 119.385C186.095 118.991 185.727 118.672 185.333 118.672H176.264C175.87 118.672 175.6 118.991 175.66 119.385L176.944 127.734C177.005 128.128 177.373 128.447 177.767 128.447ZM213.31 138.868H222.379C222.773 138.868 223.043 138.549 222.983 138.155L221.699 129.805C221.639 129.412 221.27 129.092 220.877 129.092H211.807C211.413 129.092 211.143 129.412 211.204 129.805L212.487 138.155C212.548 138.549 212.916 138.868 213.31 138.868ZM201.996 138.868H211.066C211.459 138.868 211.73 138.549 211.669 138.155L210.385 129.805C210.325 129.412 209.957 129.092 209.563 129.092H200.493C200.099 129.092 199.829 129.412 199.89 129.805L201.173 138.155C201.234 138.549 201.602 138.868 201.996 138.868ZM190.682 138.868H199.752C200.146 138.868 200.416 138.549 200.355 138.155L199.072 129.805C199.011 129.412 198.643 129.092 198.249 129.092H189.179C188.786 129.092 188.516 129.412 188.576 129.805L189.86 138.155C189.92 138.549 190.289 138.868 190.682 138.868ZM179.369 138.868H188.438C188.832 138.868 189.102 138.549 189.041 138.155L187.758 129.805C187.697 129.412 187.329 129.092 186.935 129.092H177.866C177.472 129.092 177.202 129.412 177.262 129.805L178.546 138.155C178.607 138.549 178.975 138.868 179.369 138.868ZM214.912 149.288H223.981C224.375 149.288 224.645 148.969 224.585 148.576L223.301 140.226C223.241 139.832 222.872 139.513 222.479 139.513H213.409C213.015 139.513 212.745 139.832 212.806 140.226L214.089 148.576C214.15 148.969 214.518 149.288 214.912 149.288ZM203.598 149.288H212.668C213.061 149.288 213.332 148.969 213.271 148.576L211.987 140.226C211.927 139.832 211.559 139.513 211.165 139.513H202.095C201.701 139.513 201.431 139.832 201.492 140.226L202.776 148.576C202.836 148.969 203.204 149.288 203.598 149.288ZM192.284 149.288H201.354C201.748 149.288 202.018 148.969 201.957 148.576L200.674 140.226C200.613 139.832 200.245 139.513 199.851 139.513H190.781C190.388 139.513 190.118 139.832 190.178 140.226L191.462 148.576C191.522 148.969 191.891 149.288 192.284 149.288ZM180.971 149.288H190.04C190.434 149.288 190.704 148.969 190.644 148.576L189.36 140.226C189.299 139.832 188.931 139.513 188.537 139.513H179.468C179.074 139.513 178.804 139.832 178.864 140.226L180.148 148.576C180.209 148.969 180.577 149.288 180.971 149.288Z" fill="#C2E9FF"/>
<g opacity="0.2">
<path d="M198.754 127.757C198.801 128.14 198.536 128.447 198.15 128.447H189.08C188.686 128.447 188.318 128.128 188.258 127.734L187.299 121.497L198.754 127.757Z" fill="white"/>
<path d="M219.086 138.868H213.31C212.916 138.868 212.548 138.549 212.487 138.155L212.002 134.997L219.086 138.868Z" fill="white"/>
<path d="M211.066 138.868H207.181L200.742 135.349L199.89 129.805C199.829 129.412 200.099 129.093 200.493 129.093H201.197L211.108 134.509L211.669 138.155C211.729 138.549 211.459 138.868 211.066 138.868Z" fill="white"/>
<path d="M198.891 118.672H207.961C208.354 118.672 208.723 118.991 208.783 119.385L210.067 127.734C210.127 128.128 209.857 128.447 209.464 128.447H205.418L199.155 125.024L198.288 119.385C198.227 118.991 198.497 118.672 198.891 118.672Z" fill="white"/>
<path d="M189.86 138.155L189.578 136.322L194.237 138.868H190.682C190.289 138.868 189.92 138.549 189.86 138.155Z" fill="white"/>
<path d="M187.439 127.734C187.458 127.853 187.443 127.963 187.407 128.062L176.039 121.85L175.66 119.385C175.6 118.991 175.87 118.672 176.264 118.672H182.129L186.405 121.009L187.439 127.734Z" fill="white"/>
<path d="M189.041 138.155C189.102 138.549 188.832 138.868 188.438 138.868H179.369C178.975 138.868 178.607 138.549 178.546 138.155L177.262 129.805C177.251 129.731 177.255 129.661 177.265 129.593L188.685 135.834L189.041 138.155Z" fill="white"/>
<path d="M199.072 129.805L199.849 134.861L189.292 129.093H198.249C198.643 129.093 199.011 129.412 199.072 129.805Z" fill="white"/>
<path d="M210.385 129.805L210.613 131.286L206.599 129.093H209.563C209.957 129.093 210.325 129.412 210.385 129.805Z" fill="white"/>
<path d="M213.094 142.099L212.806 140.226C212.745 139.832 213.015 139.513 213.409 139.513H220.266L223.46 141.258L224.552 148.361L213.094 142.099Z" fill="white"/>
<path d="M220.097 119.385L221.381 127.734C221.441 128.128 221.171 128.447 220.777 128.447H211.708C211.314 128.447 210.946 128.128 210.885 127.734L209.601 119.385C209.541 118.991 209.811 118.672 210.205 118.672H218.947L220.072 119.287C220.081 119.319 220.092 119.351 220.097 119.385Z" fill="white"/>
<path d="M211.506 131.774L211.204 129.805C211.143 129.412 211.413 129.093 211.807 129.093H220.877C221.27 129.093 221.639 129.412 221.699 129.805L222.964 138.036L211.506 131.774Z" fill="white"/>
<path d="M203.598 149.288C203.204 149.288 202.836 148.969 202.775 148.575L201.929 143.072L213.06 149.154C212.956 149.238 212.822 149.288 212.668 149.288H203.598Z" fill="white"/>
<path d="M201.354 149.288H192.284C191.891 149.288 191.522 148.969 191.462 148.575L190.178 140.226C190.118 139.832 190.388 139.513 190.781 139.513H195.417L201.036 142.583L201.957 148.575C202.018 148.969 201.748 149.288 201.354 149.288Z" fill="white"/>
<path d="M196.647 118.672C197.041 118.672 197.409 118.991 197.47 119.385L198.262 124.536L187.538 118.676C187.551 118.675 187.564 118.672 187.577 118.672L196.647 118.672Z" fill="white"/>
<path d="M211.165 139.513C211.559 139.513 211.927 139.832 211.987 140.226L212.2 141.611L208.361 139.513H211.165Z" fill="white"/>
<path d="M190.04 149.288H180.971C180.577 149.288 180.209 148.969 180.148 148.575L178.864 140.226C178.804 139.832 179.074 139.513 179.468 139.513H188.537C188.931 139.513 189.299 139.832 189.36 140.226L190.644 148.575C190.704 148.969 190.434 149.288 190.04 149.288Z" fill="white"/>
</g>
</g>
<defs>
<clipPath id="clip0_4056_13389">
<rect width="240" height="240" fill="white"/>
</clipPath>
</defs>
</svg>
