<svg width="240" height="241" viewBox="0 0 240 241" fill="none" xmlns="http://www.w3.org/2000/svg">
<g clip-path="url(#clip0_4056_13383)">
<path d="M120 71.2505L16.9138 129.216V235.97H223.086V129.216L120 71.2505Z" fill="#43A9E8"/>
<path d="M95.5436 199.061C95.5436 199.061 92.1676 199.498 87.748 201.184C89.1567 198.967 89.8311 197.387 89.8311 197.387C87.8291 198.021 85.9972 198.873 84.3304 199.858C86.7681 194.804 87.4947 190.644 87.4947 190.644C85.3456 191.925 83.4685 193.424 81.8238 195.03C82.683 191.711 83.1542 188.085 82.932 184.245C82.932 184.245 78.8968 188.148 75.5326 194.48C75.2091 184.531 71.8735 176.931 71.8735 176.931C68.8198 183.306 67.8658 189.869 67.8966 195.684C65.221 190.406 62.1039 187.127 62.1039 187.127C61.5903 192.248 62.4837 197.001 63.8903 201.054C59.7275 196.872 55.5051 194.803 55.5051 194.803C56.4321 198.36 58.0532 201.429 59.9143 204.015C54.4699 201.291 49.6412 200.668 49.6412 200.668C56.6556 211.318 69.5655 213.937 71.2173 214.232C71.2183 214.242 71.2185 214.251 71.2195 214.261L71.2192 214.262L71.2188 214.263V214.264C71.2188 214.264 71.2193 214.264 71.2196 214.264C71.2196 214.263 71.2196 214.264 71.2196 214.264L71.2208 214.263C71.2213 214.263 71.2346 214.261 71.241 214.26C71.2412 214.26 71.2428 214.264 71.2428 214.264C71.2438 214.262 71.2445 214.261 71.2454 214.259C71.2585 214.257 71.2781 214.253 71.3076 214.248C71.3591 214.257 71.3949 214.263 71.3952 214.263L71.3961 214.264C71.3977 214.253 71.3983 214.243 71.3998 214.232C73.1794 213.915 87.6783 211.004 95.5436 199.061Z" fill="#213656"/>
<path d="M142.951 199.061C142.951 199.061 139.575 199.498 135.156 201.184C136.564 198.967 137.239 197.387 137.239 197.387C135.237 198.021 133.405 198.873 131.738 199.858C134.176 194.804 134.902 190.644 134.902 190.644C132.753 191.925 130.876 193.424 129.231 195.03C130.091 191.711 130.562 188.085 130.34 184.245C130.34 184.245 126.304 188.148 122.94 194.48C122.617 184.531 119.281 176.931 119.281 176.931C116.227 183.306 115.273 189.869 115.304 195.684C112.629 190.406 109.511 187.127 109.511 187.127C108.998 192.248 109.891 197.001 111.298 201.054C107.135 196.872 102.913 194.803 102.913 194.803C103.84 198.36 105.461 201.429 107.322 204.015C101.878 201.291 97.0488 200.668 97.0488 200.668C104.063 211.318 116.973 213.937 118.625 214.232C118.626 214.242 118.626 214.251 118.627 214.261L118.627 214.262L118.626 214.263V214.264C118.626 214.264 118.627 214.264 118.627 214.264C118.627 214.263 118.627 214.264 118.627 214.264L118.628 214.263C118.629 214.263 118.642 214.261 118.649 214.26C118.649 214.26 118.65 214.264 118.65 214.264C118.651 214.262 118.652 214.261 118.653 214.259C118.666 214.257 118.686 214.253 118.715 214.248C118.767 214.257 118.803 214.263 118.803 214.263L118.804 214.264C118.805 214.253 118.806 214.243 118.807 214.232C120.587 213.915 135.086 211.004 142.951 199.061Z" fill="#213656"/>
<path d="M190.359 199.061C190.359 199.061 186.983 199.498 182.563 201.184C183.972 198.967 184.646 197.387 184.646 197.387C182.644 198.021 180.812 198.873 179.145 199.858C181.583 194.804 182.31 190.644 182.31 190.644C180.161 191.925 178.284 193.424 176.639 195.03C177.498 191.711 177.969 188.085 177.747 184.245C177.747 184.245 173.712 188.148 170.348 194.48C170.024 184.531 166.689 176.931 166.689 176.931C163.635 183.306 162.681 189.869 162.712 195.684C160.036 190.406 156.919 187.127 156.919 187.127C156.405 192.248 157.299 197.001 158.705 201.054C154.543 196.872 150.32 194.803 150.32 194.803C151.247 198.36 152.868 201.429 154.729 204.015C149.285 201.291 144.456 200.668 144.456 200.668C151.471 211.318 164.381 213.937 166.032 214.232C166.033 214.242 166.034 214.251 166.035 214.261L166.034 214.262L166.034 214.263V214.264C166.034 214.264 166.034 214.264 166.035 214.264C166.035 214.263 166.035 214.264 166.035 214.264L166.036 214.263C166.036 214.263 166.05 214.261 166.056 214.26C166.056 214.26 166.058 214.264 166.058 214.264C166.059 214.262 166.06 214.261 166.06 214.259C166.074 214.257 166.093 214.253 166.123 214.248C166.174 214.257 166.21 214.263 166.21 214.263L166.211 214.264C166.213 214.253 166.213 214.243 166.215 214.232C167.994 213.915 182.493 211.004 190.359 199.061Z" fill="#213656"/>
<path d="M167.31 110.414H158.812V92.5015H157.954V110.414H82.0453V92.5015H81.1872V110.414H72.6897V115.864H75.9822C76.593 117.633 78.2688 118.906 80.2457 118.906H159.754C161.731 118.906 163.407 117.633 164.017 115.864H167.31L167.31 110.414Z" fill="#2996CC"/>
<path d="M41.2108 209.016H198.789C203.167 209.016 206.721 212.57 206.721 216.948V235.97H33.2788V216.948C33.2788 212.57 36.833 209.016 41.2108 209.016Z" fill="#32353F"/>
<g opacity="0.1">
<path d="M16.9138 149.035V155.619L74.7051 96.72L60.294 104.823L16.9138 149.035Z" fill="white"/>
<path d="M125.661 74.4341L16.9138 185.266V235.97H28.9173L165.458 96.812L125.661 74.4341Z" fill="white"/>
<path d="M223.086 192.836V185.464L173.53 235.97H180.763L223.086 192.836Z" fill="white"/>
<path d="M129.041 235.97H162.954L223.086 174.686V140.123L129.041 235.97Z" fill="white"/>
<path d="M182.007 106.118L172.945 101.021L40.5341 235.97H54.597L182.007 106.118Z" fill="white"/>
</g>
<path d="M223.086 235.97V129.216L120 71.2505L16.9138 129.216V235.97" stroke="#356B93" stroke-width="5.97412" stroke-miterlimit="10"/>
<path d="M16.9138 129.216H223.086" stroke="#356B93" stroke-width="5.97412" stroke-miterlimit="10"/>
<path d="M62.0889 103.968V236.023" stroke="#356B93" stroke-width="5.97412" stroke-miterlimit="10"/>
<path d="M177.911 103.968V236.023" stroke="#356B93" stroke-width="5.97412" stroke-miterlimit="10"/>
<path d="M16.9138 184.852H62.3617" stroke="#356B93" stroke-width="5.97412" stroke-miterlimit="10"/>
<path d="M177.248 184.852H222.696" stroke="#356B93" stroke-width="5.97412" stroke-miterlimit="10"/>
<path d="M138.766 155.638V230.119H101.234V155.638H138.766ZM144.74 149.664H95.2598V236.094H144.74V149.664Z" fill="#356B93"/>
<path d="M237.376 217.557H201.197V169.168C201.197 166.197 203.605 163.79 206.575 163.79H231.998C234.968 163.79 237.376 166.197 237.376 169.168L237.376 217.557Z" fill="#123C51"/>
<path opacity="0.05" d="M231.998 163.789H220.906V217.557H237.376V169.167C237.376 166.197 234.968 163.789 231.998 163.789Z" fill="black"/>
<path d="M238.789 174.592H199.784C199.269 174.592 198.851 175.009 198.851 175.525V175.525C198.851 176.04 199.269 176.458 199.784 176.458H238.789C239.305 176.458 239.722 176.04 239.722 175.525V175.525C239.722 175.009 239.305 174.592 238.789 174.592Z" fill="#072E3D"/>
<path d="M238.789 189.74H199.784C199.269 189.74 198.851 190.158 198.851 190.673V190.673C198.851 191.189 199.269 191.607 199.784 191.607H238.789C239.305 191.607 239.722 191.189 239.722 190.673V190.673C239.722 190.158 239.305 189.74 238.789 189.74Z" fill="#072E3D"/>
<path d="M238.789 204.888H199.784C199.269 204.888 198.851 205.306 198.851 205.822V205.822C198.851 206.337 199.269 206.755 199.784 206.755H238.789C239.305 206.755 239.722 206.337 239.722 205.822V205.822C239.722 205.306 239.305 204.888 238.789 204.888Z" fill="#072E3D"/>
<path d="M237.573 216.437H201C199.66 216.437 198.573 217.523 198.573 218.864C198.573 220.204 199.66 221.29 201 221.29H203.162V240.667H205.058V237.305L219.287 231.39L233.515 237.305V240.667H235.411V221.29H237.573C238.913 221.29 240 220.204 240 218.864C240 217.523 238.913 216.437 237.573 216.437ZM205.058 235.251V225.474L216.817 230.363L205.058 235.251ZM233.515 235.251L221.756 230.363L233.515 225.474V235.251ZM233.515 223.421L219.287 229.336L205.058 223.421V221.29H233.515L233.515 223.421Z" fill="#072E3D"/>
<path d="M231.738 163.789H217.177V160.901C217.177 160.207 217.739 159.645 218.433 159.645H230.482C231.176 159.645 231.738 160.207 231.738 160.901V163.789Z" fill="#072E3D"/>
<g opacity="0.3">
<path d="M218.96 160.79H219.361C219.457 160.79 219.534 160.868 219.534 160.963V163.789H218.787V160.963C218.787 160.868 218.865 160.79 218.96 160.79Z" fill="black"/>
<path d="M221.079 160.79H221.48C221.575 160.79 221.653 160.868 221.653 160.963V163.789H220.906V160.963C220.906 160.868 220.983 160.79 221.079 160.79Z" fill="black"/>
<path d="M223.197 160.79H223.599C223.694 160.79 223.771 160.868 223.771 160.963V163.789H223.025V160.963C223.025 160.868 223.102 160.79 223.197 160.79Z" fill="black"/>
<path d="M225.316 160.79H225.717C225.813 160.79 225.89 160.868 225.89 160.963V163.789H225.143V160.963C225.143 160.868 225.221 160.79 225.316 160.79Z" fill="black"/>
<path d="M227.435 160.79H227.836C227.931 160.79 228.009 160.868 228.009 160.963V163.789H227.262V160.963C227.262 160.868 227.34 160.79 227.435 160.79Z" fill="black"/>
<path d="M229.554 160.79H229.955C230.05 160.79 230.128 160.868 230.128 160.963V163.789H229.381V160.963C229.381 160.868 229.458 160.79 229.554 160.79Z" fill="black"/>
</g>
<path d="M38.8026 217.557H2.62415V169.168C2.62415 166.197 5.03196 163.79 8.00211 163.79H33.4246C36.3948 163.79 38.8026 166.197 38.8026 169.168V217.557Z" fill="#123C51"/>
<path opacity="0.05" d="M33.4247 163.789H22.3328V217.557H38.8026V169.167C38.8026 166.197 36.3948 163.789 33.4247 163.789Z" fill="black"/>
<path d="M40.2158 174.592H1.2108C0.695335 174.592 0.277466 175.009 0.277466 175.525V175.525C0.277466 176.04 0.695335 176.458 1.2108 176.458H40.2158C40.7313 176.458 41.1491 176.04 41.1491 175.525V175.525C41.1491 175.009 40.7313 174.592 40.2158 174.592Z" fill="#072E3D"/>
<path d="M40.2158 189.74H1.2108C0.695335 189.74 0.277466 190.158 0.277466 190.673V190.673C0.277466 191.189 0.695335 191.607 1.2108 191.607H40.2158C40.7313 191.607 41.1491 191.189 41.1491 190.673V190.673C41.1491 190.158 40.7313 189.74 40.2158 189.74Z" fill="#072E3D"/>
<path d="M40.2158 204.888H1.2108C0.695335 204.888 0.277466 205.306 0.277466 205.822V205.822C0.277466 206.337 0.695335 206.755 1.2108 206.755H40.2158C40.7313 206.755 41.1491 206.337 41.1491 205.822V205.822C41.1491 205.306 40.7313 204.888 40.2158 204.888Z" fill="#072E3D"/>
<path d="M39 216.437H2.42669C1.08645 216.437 0 217.523 0 218.864C0 220.204 1.08651 221.29 2.42669 221.29H4.58896V240.667H6.48497V237.305L20.7133 231.39L34.9416 237.305V240.667H36.8376V221.29H38.9999C40.3401 221.29 41.4265 220.204 41.4265 218.864C41.4265 217.523 40.3402 216.437 39 216.437ZM6.48503 235.251V225.474L18.2438 230.363L6.48503 235.251ZM34.9417 235.251L23.183 230.363L34.9417 225.474V235.251ZM34.9417 223.421L20.7134 229.336L6.48509 223.421V221.29H34.9418L34.9417 223.421Z" fill="#072E3D"/>
<path d="M33.1644 163.789H18.604V160.901C18.604 160.207 19.166 159.645 19.8593 159.645H31.9091C32.6024 159.645 33.1644 160.207 33.1644 160.901V163.789Z" fill="#072E3D"/>
<g opacity="0.3">
<path d="M20.3867 160.79H20.788C20.8833 160.79 20.9607 160.868 20.9607 160.963V163.789H20.214V160.963C20.214 160.868 20.2914 160.79 20.3867 160.79Z" fill="black"/>
<path d="M22.5055 160.79H22.9068C23.0021 160.79 23.0795 160.868 23.0795 160.963V163.789H22.3328V160.963C22.3328 160.868 22.4102 160.79 22.5055 160.79Z" fill="black"/>
<path d="M24.6241 160.79H25.0255C25.1208 160.79 25.1981 160.868 25.1981 160.963V163.789H24.4514V160.963C24.4514 160.868 24.5288 160.79 24.6241 160.79Z" fill="black"/>
<path d="M26.7429 160.79H27.1442C27.2395 160.79 27.3169 160.868 27.3169 160.963V163.789H26.5702V160.963C26.5702 160.868 26.6476 160.79 26.7429 160.79Z" fill="black"/>
<path d="M28.8616 160.79H29.2629C29.3582 160.79 29.4355 160.868 29.4355 160.963V163.789H28.6888V160.963C28.6888 160.868 28.7663 160.79 28.8616 160.79Z" fill="black"/>
<path d="M30.9803 160.79H31.3817C31.477 160.79 31.5543 160.868 31.5543 160.963V163.789H30.8076V160.963C30.8076 160.868 30.885 160.79 30.9803 160.79Z" fill="black"/>
</g>
</g>
<defs>
<clipPath id="clip0_4056_13383">
<rect width="240" height="240" fill="white" transform="translate(0 0.666748)"/>
</clipPath>
</defs>
</svg>
