<svg width="241" height="241" viewBox="0 0 241 241" fill="none" xmlns="http://www.w3.org/2000/svg">
<g clip-path="url(#clip0_5910_4141)">
<path opacity="0.1" d="M150.068 193.175C146.34 188.663 141.066 192.396 136.225 191.045C130.854 189.547 128.699 183.708 122.062 183.911C119.178 184.002 116.343 185.111 113.609 185.914C110.03 186.962 107.025 185.955 103.672 184.664C98.2597 182.582 93.0584 179.404 87.1925 178.763C81.6568 178.159 77.0587 180.058 73.0765 183.609C66.2461 178.61 58.9067 177.071 50.624 180.092C41.5163 183.415 33.7785 189.608 23.7666 190.173C22.5204 190.173 21.9217 191.17 21.9605 192.137C21.9583 192.508 22.0523 192.87 22.2388 193.174L150.068 193.175Z" fill="#FFE4D2"/>
<path d="M86.1354 143.197C77.8811 144.168 50.757 140.552 58.4369 156.524C63.1567 166.335 72.685 151.308 74.7542 147.066C76.6912 143.08 78.3718 139.033 82.0157 136.355C84.6456 134.422 86.9801 138.582 84.3619 140.51C80.1883 143.576 78.301 151.004 75.6916 155.315C73.8045 158.431 70.6002 161.536 67.2801 163.021C61.0114 165.815 55.3589 163.418 53.1928 157.091C46.0198 136.187 74.8343 139.597 86.1999 138.253C89.3488 137.884 89.2671 142.828 86.1354 143.197Z" fill="#C2595D"/>
<path d="M84.3643 146.134C84.2602 137.768 77.2033 111.165 93.9313 116.777C104.212 120.224 90.6298 131.667 86.7154 134.273C83.0367 136.723 79.2624 138.92 77.0919 142.901C75.5271 145.773 79.9248 147.57 81.4861 144.707C83.9762 140.149 91.0512 137.311 94.964 134.152C97.792 131.87 100.438 128.27 101.472 124.764C103.423 118.152 100.332 112.821 93.8198 111.468C72.2963 107.003 79.3608 135.316 79.5036 146.836C79.5443 150.022 84.4023 149.301 84.3643 146.134Z" fill="#C2595D"/>
<path opacity="0.1" d="M75.0823 114.151L53.6958 138.047L67.2256 150.156L88.612 126.26L75.0823 114.151Z" fill="black"/>
<path d="M91.8872 180.121C91.8872 180.121 80.2009 173.727 92.8327 158.436C95.6663 155.007 101.708 150.047 105.628 149.651C109.785 149.226 116.158 159.13 119.306 163.603C124.245 170.626 99.3933 182.107 91.8872 180.121Z" fill="#C4C4C4"/>
<path d="M105.716 149.599C105.716 149.599 116.515 152.699 92.0028 174.395L107.102 183.14L123.408 159.138C123.408 159.138 114.709 149.089 105.716 149.599Z" fill="#D3D3D3"/>
<path d="M113.623 143.971C113.623 143.971 113.509 172.36 91.8872 180.121C91.8872 180.121 102.32 188.46 114.401 198.378H169.058C143.81 173.596 113.623 143.971 113.623 143.971Z" fill="white"/>
<path opacity="0.3" d="M146.945 141.828C133.351 129.661 114.082 127.625 98.5719 135.174L75.0822 114.151L53.696 138.047L76.9653 158.872C72.0692 171.85 73.5924 186.644 81.2641 198.378H210.131L146.945 141.828Z" fill="white"/>
<path opacity="0.2" d="M146.945 141.828C133.351 129.661 114.082 127.625 98.5719 135.174L75.0822 114.151L64.1392 126.378L85.2254 145.25L91.1986 150.595L144.588 198.378H210.131L146.945 141.828Z" fill="white"/>
<path d="M184.451 196.694L194.391 185.586L143.894 141.57L122.24 165.766L157.801 197.593L184.451 196.694Z" fill="#DEA05D"/>
<path d="M137.352 148.903L187.263 193.573L194.94 184.996L144.443 140.979L137.352 148.903Z" fill="#C98647"/>
<path d="M155.268 150.217L140.638 166.564L145.075 170.536L159.706 154.188L155.268 150.217Z" fill="#F2B273"/>
<path d="M169.903 159.478L150.314 181.366L145.877 177.395L165.552 155.176L169.903 159.478Z" fill="#F2B273"/>
<path d="M155.268 150.216L147.953 158.39L152.391 162.362L159.706 154.188L155.268 150.216Z" fill="#E8A76C"/>
<path d="M169.388 159.699L160.681 169.782L156.244 165.811L165.552 155.176L169.388 159.699Z" fill="#E8A76C"/>
<path d="M176.02 173.079C179.518 176.21 180.034 181.34 177.171 184.54C174.308 187.739 169.151 187.794 165.652 184.663C162.154 181.532 161.64 176.401 164.503 173.202C167.366 170.003 172.521 169.948 176.02 173.079Z" fill="#F2B273"/>
<path d="M164.503 173.202C164.5 173.205 164.498 173.21 164.495 173.213L177.161 184.548C177.163 184.545 177.168 184.543 177.171 184.54C180.034 181.34 179.519 176.21 176.02 173.079C172.521 169.948 167.366 170.003 164.503 173.202Z" fill="#E8A76C"/>
<path d="M165.351 197.905L128.744 165.143L147.773 143.881L147.357 143.519L128.149 164.98C128.1 165.035 128.075 165.107 128.079 165.18C128.083 165.253 128.117 165.321 128.171 165.371L164.536 197.918L165.351 197.905Z" fill="#F2B273"/>
<path d="M178.198 197.716L191.93 182.372L191.514 182.009L177.447 197.727L178.198 197.716Z" fill="#F2B273"/>
<path d="M99.0378 132.044L74.8745 110.418L49.9626 138.254L73.8809 159.66C69.5524 172.679 71.3068 186.904 78.1761 198.378H84.4912C76.6406 187.371 74.5366 172.8 79.4393 159.806L80.0781 158.111L57.4292 137.84L75.2887 117.884L98.1314 138.329L99.7289 137.552C114.867 130.184 132.709 132.635 145.182 143.798L206.166 198.378H214.095L148.709 139.859C135.072 127.652 115.757 124.667 99.0378 132.044Z" fill="white"/>
<path d="M33.5845 121.845L56.8234 95.8787C58.4072 94.109 61.1299 93.958 62.8997 95.5419L85.5295 115.795C87.2992 117.379 87.4501 120.102 85.8662 121.871L62.6263 147.838C61.0427 149.608 58.3204 149.759 56.5509 148.175L33.9213 127.922C32.1512 126.338 32.0003 123.615 33.5845 121.845Z" fill="#7D4631"/>
<path d="M56.8228 95.8792L44.9019 109.199L73.9447 135.192L85.8656 121.872C87.4501 120.101 87.3003 117.38 85.5293 115.795L62.8992 95.5412C61.1287 93.9567 58.4073 94.1087 56.8228 95.8792Z" fill="#723C29"/>
<path d="M15.3441 105.226L37.9137 80.0082C39.3374 78.4174 41.7846 78.2818 43.3753 79.7055L50.0393 85.6696C51.63 87.0932 51.7657 89.5405 50.342 91.1312L27.774 116.348C26.3495 117.939 23.9007 118.075 22.309 116.65L15.6468 110.688C14.0561 109.264 13.9205 106.817 15.3441 105.226Z" fill="#7D4631"/>
<path d="M37.9121 80.0103L26.5159 92.7439L38.9442 103.867L50.3404 91.1334C51.76 89.5472 51.6215 87.0903 50.0371 85.6724L43.3725 79.7077C41.787 78.2886 39.3316 78.4242 37.9121 80.0103Z" fill="#723C29"/>
<path d="M59.6931 92.6721L30.7141 125.052L42.4044 135.514L71.3834 103.135L59.6931 92.6721Z" fill="#6C3526"/>
<path d="M45.0537 81.2081L17.3252 112.19L30.0235 123.555L57.752 92.5728L45.0537 81.2081Z" fill="#6C3526"/>
<path d="M20.5405 113.851L47.0568 84.2227C48.73 82.3532 51.6062 82.1938 53.4757 83.8669L61.3053 90.8742C63.1738 92.5465 63.3331 95.4212 61.6608 97.2897L35.1419 126.921C33.4696 128.789 30.5949 128.948 28.7264 127.276L20.8963 120.268C19.0271 118.595 18.8676 115.72 20.5405 113.851Z" fill="#7D4631"/>
<path d="M47.0572 84.2219L33.6866 99.1616L48.2891 112.23L61.6597 97.2908C63.326 95.4289 63.166 92.5394 61.3033 90.8725L53.4737 83.8652C51.6118 82.1989 48.7236 82.36 47.0572 84.2219Z" fill="#723C29"/>
<path d="M73.6852 161.232C72.2312 161.232 70.9362 160.203 70.6532 158.722C70.3323 157.05 71.4253 155.434 73.0956 155.108C73.8144 154.962 89.7114 151.502 94.9314 130.726C95.3466 129.071 97.0323 128.064 98.681 128.482C100.337 128.897 101.342 130.576 100.925 132.231C94.7068 156.988 75.101 161.017 74.2695 161.176C74.0737 161.214 73.8779 161.232 73.6852 161.232Z" fill="#B2474F"/>
<path d="M42.3251 200.476C47.6895 193.985 55.2768 199.356 62.2414 197.412C69.9695 195.258 73.0693 186.857 82.6183 187.149C86.7675 187.28 90.8465 188.875 94.7798 190.03C99.9284 191.539 104.251 190.089 109.076 188.233C116.863 185.237 124.346 180.664 132.785 179.742C140.75 178.873 147.365 181.605 153.094 186.715C162.921 179.522 173.48 177.308 185.397 181.655C198.5 186.435 209.633 195.345 224.037 196.158C225.83 196.158 226.691 197.592 226.635 198.983C226.638 199.517 226.503 200.039 226.235 200.476H42.3251Z" fill="#FFE4D2"/>
</g>
<defs>
<clipPath id="clip0_5910_4141">
<rect width="212.276" height="121.751" fill="white" transform="translate(14.3622 78.7251)"/>
</clipPath>
</defs>
</svg>
