<svg width="240" height="240" viewBox="0 0 240 240" fill="none" xmlns="http://www.w3.org/2000/svg">
<path d="M56.2052 134.793L46.4746 156.979L56.7427 161.483L66.4733 139.296L56.2052 134.793Z" fill="#BDCBE0"/>
<path d="M52.1175 161.359L34.3718 144.866L26.7388 153.079L44.4845 169.572L52.1175 161.359Z" fill="#BDCBE0"/>
<path d="M67.386 115.988V150.261C59.9636 150.261 53.9374 144.235 53.9374 136.812V129.436C53.9374 122.014 59.9635 115.988 67.386 115.988Z" fill="#3185FF"/>
<path d="M49.5178 171.837C53.847 171.837 57.3565 168.328 57.3565 163.999C57.3565 159.669 53.847 156.16 49.5178 156.16C45.1887 156.16 41.6792 159.669 41.6792 163.999C41.6792 168.328 45.1887 171.837 49.5178 171.837Z" fill="#3185FF"/>
<path d="M12.2134 139.796C11.4904 143.42 12.6077 147.325 15.5139 150.026C19.9684 154.166 26.9356 153.911 31.0756 149.456C35.2155 145.002 34.9605 138.034 30.5061 133.894C27.5999 131.193 23.6245 130.365 20.0621 131.351" stroke="#FF485A" stroke-width="9.65497" stroke-miterlimit="10"/>
<path d="M173.527 139.297L183.257 161.483L193.526 156.98L183.795 134.793L173.527 139.297Z" fill="#BDCBE0"/>
<path d="M195.515 169.572L213.261 153.079L205.628 144.866L187.882 161.359L195.515 169.572Z" fill="#BDCBE0"/>
<path d="M172.614 150.261V115.988C180.036 115.988 186.063 122.014 186.063 129.436V136.812C186.063 144.235 180.037 150.261 172.614 150.261Z" fill="#3185FF"/>
<path d="M190.482 171.837C194.811 171.837 198.321 168.328 198.321 163.999C198.321 159.669 194.811 156.16 190.482 156.16C186.153 156.16 182.644 159.669 182.644 163.999C182.644 168.328 186.153 171.837 190.482 171.837Z" fill="#3185FF"/>
<path d="M227.787 139.796C228.51 143.421 227.392 147.325 224.486 150.026C220.032 154.166 213.064 153.911 208.924 149.456C204.784 145.002 205.039 138.034 209.494 133.895C212.4 131.194 216.376 130.365 219.938 131.351" stroke="#FF485A" stroke-width="9.65497" stroke-miterlimit="10"/>
<path d="M144.662 95.6467H95.3384V105.82H144.662V95.6467Z" fill="#3185FF"/>
<path d="M161.881 103.836H78.1187C71.138 103.836 65.479 109.495 65.479 116.476V176.287C65.479 183.268 71.138 188.927 78.1187 188.927H161.881C168.862 188.927 174.521 183.268 174.521 176.287V116.476C174.521 109.495 168.862 103.836 161.881 103.836Z" fill="#2EABFF"/>
<path d="M136.59 188.927H103.41V194.696H136.59V188.927Z" fill="#34393D"/>
<path opacity="0.3" d="M139.806 103.836H100.194V188.927H139.806V103.836Z" fill="#3185FF"/>
<path d="M159.684 194.712L159.646 194.711L159.607 194.712C158.876 194.735 158.165 194.735 157.434 194.712L157.365 194.711L157.308 194.713C156.644 194.74 145.273 194.728 133.235 194.715C112.228 194.69 82.6119 194.68 80.9079 194.745C72.2013 194.458 65.1149 198.048 60.9402 204.816C56.5055 212.004 56.2479 221.442 60.2844 228.859C64.0928 235.857 71.003 239.814 79.7783 240C80.2257 239.999 157.272 239.985 159.683 240C175.012 239.728 181.994 228.068 181.995 217.35C181.995 206.639 175.014 194.986 159.684 194.712Z" fill="#3777BF"/>
<path d="M157.384 200.143H82.0452C72.5386 200.143 64.8319 207.849 64.8319 217.356V217.356C64.8319 226.863 72.5386 234.569 82.0452 234.569H157.384C166.891 234.569 174.598 226.863 174.598 217.356V217.356C174.598 207.849 166.891 200.143 157.384 200.143Z" fill="#155883"/>
<path d="M79.7733 234.569C89.28 234.569 96.9867 226.863 96.9867 217.356C96.9867 207.849 89.28 200.143 79.7733 200.143C70.2666 200.143 62.5599 207.849 62.5599 217.356C62.5599 226.863 70.2666 234.569 79.7733 234.569Z" fill="#34393D"/>
<path d="M79.7733 226.957C85.076 226.957 89.3746 222.659 89.3746 217.356C89.3746 212.053 85.076 207.755 79.7733 207.755C74.4707 207.755 70.1721 212.053 70.1721 217.356C70.1721 222.659 74.4707 226.957 79.7733 226.957Z" fill="#B3B2B0"/>
<path d="M159.656 234.569C169.163 234.569 176.869 226.863 176.869 217.356C176.869 207.849 169.163 200.143 159.656 200.143C150.149 200.143 142.443 207.849 142.443 217.356C142.443 226.863 150.149 234.569 159.656 234.569Z" fill="#34393D"/>
<path d="M159.656 226.957C164.959 226.957 169.257 222.659 169.257 217.356C169.257 212.053 164.959 207.755 159.656 207.755C154.353 207.755 150.055 212.053 150.055 217.356C150.055 222.659 154.353 226.957 159.656 226.957Z" fill="#B3B2B0"/>
<path d="M76.3439 100.137C71.8229 100.137 68.3453 96.0874 69.0852 91.6273C73.1425 67.1715 94.3936 48.5243 120 48.5243C145.606 48.5243 166.858 67.1715 170.915 91.6273C171.655 96.0874 168.177 100.137 163.656 100.137H76.3439Z" fill="#2EABFF"/>
<path d="M101.975 85.656C107.582 85.656 112.127 81.1106 112.127 75.5036C112.127 69.8967 107.582 65.3513 101.975 65.3513C96.3676 65.3513 91.8223 69.8967 91.8223 75.5036C91.8223 81.1106 96.3676 85.656 101.975 85.656Z" fill="white"/>
<path d="M104.576 80.1335C107.133 80.1335 109.206 78.0607 109.206 75.5037C109.206 72.9466 107.133 70.8738 104.576 70.8738C102.019 70.8738 99.9462 72.9466 99.9462 75.5037C99.9462 78.0607 102.019 80.1335 104.576 80.1335Z" fill="#34393D"/>
<path d="M138.025 85.656C143.632 85.656 148.178 81.1106 148.178 75.5036C148.178 69.8967 143.632 65.3513 138.025 65.3513C132.419 65.3513 127.873 69.8967 127.873 75.5036C127.873 81.1106 132.419 85.656 138.025 85.656Z" fill="white"/>
<path d="M135.424 80.1335C137.981 80.1335 140.054 78.0607 140.054 75.5037C140.054 72.9466 137.981 70.8738 135.424 70.8738C132.867 70.8738 130.794 72.9466 130.794 75.5037C130.794 78.0607 132.867 80.1335 135.424 80.1335Z" fill="#34393D"/>
<path d="M112.831 88.358C114.477 90.5231 117.071 91.9274 120 91.9274C122.929 91.9274 125.523 90.5231 127.169 88.358" stroke="#34393D" stroke-width="3.29855" stroke-miterlimit="10" stroke-linecap="round"/>
<path d="M152.383 118.794H87.6168C84.6666 118.794 82.2749 121.186 82.2749 124.136V149.516C82.2749 152.467 84.6666 154.858 87.6168 154.858H152.383C155.334 154.858 157.725 152.467 157.725 149.516V124.136C157.725 121.186 155.334 118.794 152.383 118.794Z" fill="#FFC933" stroke="#3185FF" stroke-width="7.14823" stroke-miterlimit="10"/>
</svg>
