<svg width="240" height="241" viewBox="0 0 240 241" fill="none" xmlns="http://www.w3.org/2000/svg">
<g clip-path="url(#clip0_4073_44448)">
<g clip-path="url(#clip1_4073_44448)">
<path d="M21.4786 69.6224H37.4875L38.8216 89.6335L43.6243 69.6224L79.9112 72.2905L83.3797 79.6279L86.0478 72.2905L114.597 68.0215L131.94 77.0932L167.16 68.0215L173.563 85.3645L175.164 70.6896L179.433 69.6224L195.976 75.4923L217.588 72.2905V168.844H171.162L165.559 141.362L161.29 170.178L94.8528 172.313L91.384 160.306L86.3146 169.378L74.308 168.577L69.5053 156.571L66.8372 168.311L21.4786 165.909V69.6224Z" fill="#E89B36"/>
<path d="M30.3837 69.6216H21.4789V165.908L30.3837 166.38V69.6216Z" fill="#E29437"/>
<path d="M210.984 168.844H217.587V72.2905L210.984 73.2688V168.844Z" fill="#E29437"/>
<path d="M18.2936 59.9671H17.5099V57.0738C17.5099 56.2125 16.8118 55.5142 15.9508 55.5142H14.5248V51.3095C16.1842 50.2243 17.2847 48.3567 17.2847 46.2258C17.2847 42.8691 14.5635 40.1475 11.2064 40.1475C7.84928 40.1475 5.12783 42.8691 5.12783 46.2258C5.12783 48.3567 6.22853 50.2243 7.88774 51.3095V55.5142H6.46178C5.60074 55.5142 4.90285 56.2123 4.90285 57.0738V59.9671H4.11873C2.89397 59.9671 1.901 60.96 1.901 62.1848V65.3366H20.5113V62.1848C20.5113 60.96 19.5186 59.9671 18.2936 59.9671Z" fill="#A46834"/>
<path d="M17.5097 58.2661H4.90283V59.9671H17.5097V58.2661Z" fill="#A06030"/>
<path d="M9.03849 45.2755C10.0608 45.2755 10.8896 44.4467 10.8896 43.4244C10.8896 42.402 10.0608 41.5732 9.03849 41.5732C8.01615 41.5732 7.18738 42.402 7.18738 43.4244C7.18738 44.4467 8.01615 45.2755 9.03849 45.2755Z" fill="#B7794B"/>
<path d="M4.11918 180.367H4.90289V183.26C4.90289 184.122 5.60098 184.82 6.46202 184.82H7.88799V189.025C6.22856 190.11 5.12807 191.977 5.12807 194.108C5.12807 197.465 7.84932 200.187 11.2064 200.187C14.5635 200.187 17.285 197.465 17.285 194.108C17.285 191.977 16.1843 190.11 14.5251 189.025V184.82H15.951C16.8121 184.82 17.5099 184.122 17.5099 183.26V180.367H18.2941C19.5188 180.367 20.5118 179.374 20.5118 178.149V174.998H1.90125V178.149C1.90125 179.374 2.89421 180.367 4.11918 180.367Z" fill="#A46834"/>
<path d="M17.5097 180.367H4.90283V182.068H17.5097V180.367Z" fill="#A06030"/>
<path d="M22.4124 65.3369H0V174.998H22.4124V65.3369Z" fill="#ED9E40"/>
<path opacity="0.3" d="M10.6475 65.3369H3.72693V174.998H10.6475V65.3369Z" fill="#FFB05A"/>
<path d="M235.881 59.9671H235.097V57.0738C235.097 56.2125 234.399 55.5142 233.538 55.5142H232.112V51.3095C233.772 50.2243 234.872 48.3567 234.872 46.2258C234.872 42.8691 232.151 40.1475 228.794 40.1475C225.437 40.1475 222.715 42.8691 222.715 46.2258C222.715 48.3567 223.816 50.2243 225.475 51.3095V55.5142H224.049C223.188 55.5142 222.49 56.2123 222.49 57.0738V59.9671H221.706C220.481 59.9671 219.489 60.96 219.489 62.1848V65.3366H238.099V62.1848C238.099 60.96 237.106 59.9671 235.881 59.9671Z" fill="#A46834"/>
<path d="M235.097 58.2661H222.49V59.9671H235.097V58.2661Z" fill="#A06030"/>
<path d="M226.626 45.2755C227.648 45.2755 228.477 44.4467 228.477 43.4244C228.477 42.402 227.648 41.5732 226.626 41.5732C225.604 41.5732 224.775 42.402 224.775 43.4244C224.775 44.4467 225.604 45.2755 226.626 45.2755Z" fill="#B7794B"/>
<path d="M221.707 180.367H222.49V183.26C222.49 184.122 223.189 184.82 224.05 184.82H225.476V189.025C223.816 190.11 222.716 191.977 222.716 194.108C222.716 197.465 225.437 200.187 228.794 200.187C232.151 200.187 234.873 197.465 234.873 194.108C234.873 191.977 233.772 190.11 232.113 189.025V184.82H233.539C234.4 184.82 235.098 184.122 235.098 183.26V180.367H235.882C237.106 180.367 238.099 179.374 238.099 178.149V174.998H219.489V178.149C219.489 179.374 220.482 180.367 221.707 180.367Z" fill="#A46834"/>
<path d="M235.098 180.367H222.491V182.068H235.098V180.367Z" fill="#A06030"/>
<path d="M240 65.3369H217.588V174.998H240V65.3369Z" fill="#ED9E40"/>
<path opacity="0.3" d="M228.235 65.3364H221.315V174.997H228.235V65.3364Z" fill="#FFB05A"/>
<path opacity="0.6" d="M104.173 141.17V158.273C104.173 159.004 104.772 159.603 105.503 159.603C106.235 159.603 106.834 159.004 106.834 158.273V141.17C106.834 140.438 106.235 139.839 105.503 139.839C104.772 139.839 104.173 140.438 104.173 141.17Z" fill="#945534"/>
<path opacity="0.6" d="M113.833 79.9811V83.2935C115.382 85.277 116.825 87.3181 117.805 89.7019C116.896 87.7281 115.363 86.1568 113.833 84.7197V89.0021C114.953 89.9169 115.672 91.1731 115.983 93.0387C115.641 92.0112 114.806 91.2325 113.833 91.0482V105.535C113.611 105.595 113.407 105.711 113.227 105.88C113.084 106.014 113.003 106.201 113.001 106.398C113 106.594 113.08 106.782 113.221 106.918C113.874 107.547 114.628 108.092 115.357 108.619C116.562 109.491 117.701 110.315 118.394 111.468C118.577 111.773 118.696 112.141 118.77 112.548V117.085C118.77 117.481 119.091 117.801 119.487 117.801C119.882 117.801 120.203 117.481 120.203 117.085C120.203 116.658 120.228 116.188 120.255 115.691C120.311 114.628 120.373 113.476 120.203 112.426V86.1847C120.203 85.9558 120.074 85.7453 119.889 85.6105C119.796 85.5429 119.685 85.5005 119.57 85.4844C119.562 84.1607 118.905 82.4877 117.831 81.1647C116.837 79.9391 115.671 79.2642 114.55 79.2642C114.154 79.2642 113.833 79.5853 113.833 79.9811Z" fill="#945534"/>
<path opacity="0.6" d="M96.1916 158.273V141.17C96.1916 140.438 95.5927 139.839 94.8614 139.839C94.13 139.839 93.5311 140.438 93.5311 141.17V158.273C93.5311 159.004 94.1296 159.603 94.8614 159.603C95.5932 159.603 96.1916 159.004 96.1916 158.273Z" fill="#945534"/>
<path opacity="0.6" d="M96.4708 126.129C94.6221 126.129 93.1232 127.627 93.1232 129.476C93.1232 131.325 94.6221 132.824 96.4708 132.824C98.3194 132.824 99.8181 131.325 99.8181 129.476C99.8181 127.628 98.3196 126.129 96.4708 126.129Z" fill="#945534"/>
<path opacity="0.6" d="M93.6779 108.619C94.8835 109.491 96.0226 110.315 96.7155 111.468C96.8983 111.773 97.0166 112.141 97.0909 112.548V117.085C97.0909 117.48 97.4118 117.801 97.8076 117.801C98.2033 117.801 98.5243 117.48 98.5243 117.085C98.5243 116.658 98.5493 116.188 98.576 115.691C98.6324 114.628 98.694 113.476 98.5243 112.426V86.1847C98.5243 85.9558 98.3952 85.7453 98.2102 85.6105C98.1171 85.5429 98.0059 85.5005 97.8909 85.4844C97.8828 84.1607 97.2261 82.4877 96.1525 81.1647C95.1583 79.9391 93.9929 79.2642 92.8711 79.2642C92.4751 79.2642 92.1544 79.5851 92.1544 79.9809V83.2933C93.7027 85.2767 95.1461 87.3179 96.1264 89.7017C95.2168 87.7279 93.6843 86.1566 92.1544 84.7195V89.0019C93.2745 89.9167 93.9931 91.1729 94.3041 93.0385C93.9618 92.011 93.1273 91.2323 92.1544 91.048V105.535C91.9329 105.595 91.7282 105.711 91.5483 105.88C91.4052 106.014 91.3239 106.201 91.3229 106.398C91.3216 106.593 91.4008 106.782 91.5423 106.918C92.1957 107.547 92.949 108.092 93.6779 108.619Z" fill="#945534"/>
<path opacity="0.6" d="M103.95 91.0482V105.535C103.729 105.595 103.524 105.711 103.344 105.88C103.201 106.014 103.12 106.201 103.119 106.398C103.118 106.594 103.197 106.782 103.338 106.918C103.991 107.547 104.745 108.092 105.474 108.619C106.679 109.491 107.818 110.315 108.511 111.468C108.694 111.773 108.813 112.141 108.887 112.548V117.085C108.887 117.48 109.208 117.801 109.603 117.801C109.999 117.801 110.32 117.48 110.32 117.085C110.32 116.658 110.345 116.188 110.372 115.691C110.428 114.628 110.49 113.476 110.32 112.426V86.1847C110.32 85.9558 110.191 85.7453 110.006 85.6105C109.913 85.5429 109.802 85.5005 109.687 85.4844C109.679 84.1607 109.022 82.4877 107.948 81.1647C106.954 79.9391 105.789 79.2642 104.667 79.2642C104.271 79.2642 103.95 79.5851 103.95 79.9809V83.2933C105.499 85.2767 106.942 87.3179 107.922 89.7017C107.012 87.7279 105.48 86.1566 103.95 84.7195V89.0019C105.071 89.9167 105.789 91.1729 106.1 93.0385C105.757 92.011 104.923 91.2325 103.95 91.0482Z" fill="#945534"/>
<path opacity="0.6" d="M109.874 141.17V158.273C109.874 159.004 110.473 159.603 111.204 159.603C111.936 159.603 112.535 159.004 112.535 158.273V141.17C112.535 140.438 111.936 139.839 111.204 139.839C110.473 139.839 109.874 140.438 109.874 141.17Z" fill="#945534"/>
<path opacity="0.6" d="M142.547 141.58C142.907 141.374 143.651 141.394 144.073 141.249C147.726 139.995 149.973 135.998 148.783 132.299C147.587 128.584 143.741 126.351 139.902 127.392C138.134 127.872 136.529 128.99 135.554 130.535C134.995 131.421 134.637 132.472 134.6 133.519C134.552 134.857 135.744 137.707 133.954 138.361C132.909 138.743 133.36 140.413 134.417 140.027C135.809 139.52 136.527 138.387 136.631 136.927C136.712 135.781 136.265 134.661 136.344 133.519C136.442 132.11 137.265 130.822 138.398 129.993C142.243 127.178 147.909 130.198 147.333 135.008C147.077 137.149 145.44 139.002 143.379 139.654C141.855 140.136 140.461 139.893 140.193 141.816C139.868 144.154 140.132 146.719 140.113 149.08C140.091 151.789 140.07 154.498 140.049 157.206C140.04 158.318 141.785 158.319 141.793 157.206C141.819 154.046 141.843 150.886 141.869 147.726C141.879 146.372 141.89 145.018 141.9 143.663C141.907 142.837 141.7 142.064 142.547 141.58Z" fill="#945534"/>
<path opacity="0.6" d="M129.89 91.9918C127.795 93.8745 126.605 96.6903 127.595 99.4601C128.163 101.051 129.325 102.022 130.703 102.669V103.975H126.991C126.311 103.975 125.754 104.532 125.754 105.213C125.754 105.893 126.311 106.449 126.991 106.449H128.762C128.826 106.46 128.884 106.488 128.952 106.488H130.703V108.022C128.764 108.541 127.128 110.045 126.593 112.062C125.872 114.779 127.277 117.463 129.477 119.006C130.481 119.711 131.434 118.061 130.437 117.362C127.631 115.394 127.866 111.131 130.703 110.011V111.208C130.703 114.977 133.786 118.06 137.555 118.06H138.507C142.275 118.06 145.359 114.977 145.359 111.208V109.957C148.43 110.919 148.758 115.376 145.872 117.401C144.876 118.099 145.826 119.75 146.832 119.044C149.031 117.502 150.436 114.816 149.716 112.1C149.159 109.999 147.403 108.468 145.358 108.014V106.488H149.317C149.997 106.488 150.554 105.932 150.554 105.251C150.554 104.571 149.997 104.014 149.317 104.014H147.546C147.482 104.004 147.424 103.975 147.357 103.975H145.358V102.82C146.845 102.176 148.111 101.185 148.714 99.4986C149.703 96.7298 148.512 93.9128 146.418 92.0303C145.51 91.2133 144.159 92.5551 145.073 93.3762C146.705 94.8437 147.843 97.1256 146.745 99.2765C146.401 99.9512 145.877 100.43 145.267 100.793C144.855 97.7112 142.395 95.285 139.299 94.9194C141.491 94.4525 143.138 92.5077 143.138 90.1761C143.138 87.4953 140.965 85.3223 138.284 85.3223C135.603 85.3223 133.43 87.4953 133.43 90.1761C133.43 92.462 135.017 94.3663 137.144 94.8805C133.935 95.0764 131.319 97.4847 130.813 100.604C130.303 100.259 129.862 99.8259 129.562 99.2378C128.469 97.0948 129.604 94.804 131.235 93.3377C132.148 92.5168 130.799 91.1746 129.89 91.9918ZM134.902 90.1758C134.902 88.3105 136.419 86.7929 138.285 86.7929C140.15 86.7929 141.667 88.3105 141.667 90.1758C141.667 92.0412 140.15 93.5586 138.285 93.5586C136.419 93.5586 134.902 92.041 134.902 90.1758Z" fill="#945534"/>
<path opacity="0.6" d="M130.682 129.611C130.682 125.48 124.814 122.245 117.322 122.245C109.831 122.245 103.963 125.48 103.963 129.611C103.963 133.741 109.831 136.976 117.322 136.976C124.814 136.976 130.682 133.741 130.682 129.611ZM117.322 134.794C112.035 134.794 106.145 132.665 106.145 129.611C106.145 127.147 109.976 125.289 114.231 124.66C113.62 125.387 113.238 126.313 113.238 127.338C113.238 129.648 115.11 131.521 117.421 131.521C119.731 131.521 121.603 129.647 121.603 127.338C121.603 126.331 121.234 125.42 120.641 124.699C124.804 125.359 128.5 127.192 128.5 129.611C128.5 132.665 122.609 134.794 117.322 134.794Z" fill="#945534"/>
<path opacity="0.6" d="M121.656 141.17V158.273C121.656 159.004 122.255 159.603 122.987 159.603C123.719 159.603 124.317 159.004 124.317 158.273V141.17C124.317 140.438 123.718 139.839 122.987 139.839C122.255 139.839 121.656 140.438 121.656 141.17Z" fill="#945534"/>
<path opacity="0.6" d="M115.956 141.17V158.273C115.956 159.004 116.554 159.603 117.286 159.603C118.018 159.603 118.616 159.004 118.616 158.273V141.17C118.616 140.438 118.017 139.839 117.286 139.839C116.554 139.839 115.956 140.438 115.956 141.17Z" fill="#945534"/>
<path opacity="0.6" d="M100.182 159.603C100.914 159.603 101.513 159.004 101.513 158.273V141.17C101.513 140.438 100.914 139.839 100.182 139.839C99.4509 139.839 98.8521 140.438 98.8521 141.17V158.273C98.8521 159.004 99.4509 159.603 100.182 159.603Z" fill="#945534"/>
<path opacity="0.6" d="M74.8062 100.713C74.8062 98.7399 73.1922 97.126 71.2196 97.126H69.6524C69.0026 95.9401 68.1267 95.0228 67.104 94.497V85.2853C67.104 83.9827 66.0382 82.917 64.7357 82.917C64.3308 82.917 63.9671 83.0466 63.6329 83.2278H57.0623C56.9859 83.5491 56.9413 83.8827 56.9413 84.2274C56.9413 84.4513 56.9638 84.6697 56.9965 84.8847C57.1787 84.5222 57.4862 84.2245 57.9233 84.0588C58.9961 83.6525 59.8195 84.4178 60.3561 85.2613C60.7994 85.9581 61.5413 86.6506 62.3674 87.003V95.0288C60.635 96.3874 59.451 98.9417 59.451 101.908C59.451 104.709 60.501 107.158 62.0765 108.567V113.036C62.0765 113.75 62.6607 114.334 63.3743 114.334C63.5438 114.334 63.7039 114.297 63.8528 114.237V117.824C63.3575 117.342 62.6346 116.841 61.7177 116.759C60.495 116.649 59.2715 117.308 58.0753 118.714C57.9285 118.886 57.9496 119.145 58.1218 119.292C58.2943 119.438 58.5529 119.417 58.6998 119.245C59.7119 118.055 60.7014 117.496 61.6404 117.575C62.3699 117.639 62.9545 118.082 63.3503 118.488C63.1857 118.652 63.0207 118.795 62.8571 118.987C62.7103 119.159 62.7312 119.418 62.9036 119.565C63.0763 119.711 63.3348 119.691 63.4816 119.518C63.6108 119.366 63.739 119.253 63.8678 119.122C63.892 119.159 63.9071 119.184 63.9082 119.186C63.9828 119.314 64.1193 119.389 64.2626 119.389C64.298 119.389 64.3337 119.385 64.3691 119.375C64.548 119.327 64.6722 119.165 64.6722 118.979V118.428C65.2692 118.012 65.8556 117.798 66.4228 117.848C67.7986 117.968 68.6819 119.445 68.69 119.459C68.7646 119.587 68.9011 119.662 69.0444 119.662C69.0798 119.662 69.1155 119.658 69.1509 119.648C69.3296 119.6 69.454 119.438 69.454 119.252V111.875C69.454 111.755 69.3993 111.653 69.3176 111.578V110.147L71.1004 116.743C71.4817 118.155 72.574 119.197 73.5274 119.06C74.4811 118.922 74.9491 117.655 74.568 116.244L72.8717 109.968H74.8062V100.713ZM68.6342 118.098C68.1391 117.615 67.4162 117.114 66.5 117.033C65.8904 116.978 65.2797 117.116 64.6722 117.441V111.602L64.672 109.926C64.8135 109.943 64.9522 109.969 65.0982 109.969H66.7218V113.173C66.7218 113.887 67.306 114.471 68.0198 114.471C68.246 114.471 68.4487 114.397 68.6344 114.294L68.6342 118.098Z" fill="#945534"/>
<path opacity="0.6" d="M66.3053 132.586L63.4151 125.917C63.3166 125.689 63.1004 125.535 62.8533 125.517C62.6055 125.499 62.3692 125.618 62.2379 125.828L59.5466 130.134L57.625 126.116C57.5232 125.905 57.3183 125.762 57.084 125.74C56.8504 125.721 56.6221 125.822 56.4838 126.012L53.547 130.05L51.3841 126.085C51.2683 125.873 51.0468 125.74 50.8053 125.737H50.7985C50.5595 125.737 50.3384 125.865 50.2197 126.073L47.4321 130.951L44.7086 126.185C44.5897 125.977 44.3688 125.848 44.1296 125.848H44.1228C43.8812 125.851 43.6596 125.984 43.544 126.196L41.381 130.161L38.4441 126.123C38.306 125.933 38.0761 125.83 37.8438 125.851C37.6102 125.873 37.4046 126.016 37.3031 126.228L35.3815 130.245L32.6902 125.939C32.5587 125.729 32.3197 125.61 32.0748 125.628C31.8277 125.646 31.6114 125.801 31.5126 126.028L28.6226 132.697C28.4762 133.035 28.6315 133.428 28.9692 133.574C29.0558 133.612 29.1456 133.629 29.2343 133.629C29.4924 133.629 29.7376 133.479 29.8466 133.228L32.232 127.723L34.8937 131.982C35.0227 132.189 35.2554 132.307 35.4967 132.294C35.7394 132.281 35.9557 132.136 36.0608 131.916L38.0233 127.813L40.9222 131.798C41.057 131.983 41.2781 132.087 41.5047 132.072C41.733 132.057 41.9373 131.926 42.0469 131.725L44.1426 127.883L46.6625 132.292C46.8455 132.613 47.2526 132.724 47.5721 132.541C47.5862 132.533 47.5975 132.522 47.6108 132.513C47.8674 132.542 48.1287 132.42 48.265 132.181L50.7849 127.772L52.8804 131.614C52.99 131.815 53.1947 131.946 53.4228 131.96C53.6506 131.975 53.8709 131.872 54.0053 131.687L56.9037 127.701L58.8665 131.805C58.9715 132.024 59.1876 132.169 59.4306 132.183C59.6707 132.196 59.9043 132.077 60.0336 131.871L62.6953 127.612L65.0809 133.116C65.1897 133.368 65.4353 133.518 65.6928 133.518C65.7817 133.518 65.8714 133.5 65.9579 133.463C66.2955 133.316 66.4517 132.924 66.3053 132.586Z" fill="#945534"/>
<path opacity="0.6" d="M76.2682 156.622C76.2682 151.051 71.7518 146.535 66.1805 146.535C60.6092 146.535 56.0929 151.051 56.0929 156.622C56.0929 157.204 56.1448 157.774 56.2393 158.328H69.1059L69.5054 156.571L70.208 158.328H76.1218C76.2163 157.774 76.2682 157.204 76.2682 156.622Z" fill="#945534"/>
<path opacity="0.6" d="M24.4254 89.949C26.5461 90.7854 28.5213 91.8925 30.3587 93.2283C28.7831 94.9384 27.1824 96.6249 25.5482 98.28C24.7976 99.0403 25.9698 100.214 26.7212 99.4527C28.3763 97.7759 29.9983 96.0675 31.5943 94.3344C32.8306 95.9142 34.0672 97.4945 35.3037 99.0743C35.9607 99.9142 37.1271 98.7331 36.4764 97.9016C35.2739 96.3652 34.0715 94.8286 32.8693 93.292C34.6397 92.4238 36.4449 91.6417 38.2973 90.9577C39.2903 90.5913 38.8608 88.9873 37.8562 89.358C35.9704 90.0545 34.1259 90.8446 32.3184 91.7199V86.0853C32.3184 85.0181 30.66 85.0162 30.66 86.0853V91.4215C28.8525 90.1769 26.922 89.1603 24.8662 88.3495C23.873 87.9577 23.4421 89.5613 24.4254 89.949Z" fill="#945534"/>
<path opacity="0.6" d="M83.3536 163.712C84.0705 163.712 84.6519 163.13 84.6519 162.413V82.0772C84.6519 81.3603 84.0705 80.7788 83.3536 80.7788C82.6367 80.7788 82.0552 81.3603 82.0552 82.0772V162.413C82.0552 163.13 82.6367 163.712 83.3536 163.712Z" fill="#945534"/>
<path opacity="0.6" d="M62.7906 135.032C62.5428 135.015 62.3065 135.133 62.1752 135.343L59.4839 139.649L57.5621 135.632C57.4606 135.42 57.2554 135.277 57.0214 135.255C56.7877 135.236 56.5594 135.337 56.4211 135.527L53.4844 139.565L51.3214 135.6C51.2056 135.388 50.984 135.255 50.7426 135.252H50.7358C50.4968 135.252 50.2757 135.381 50.1568 135.589L47.3694 140.466L44.6455 135.7C44.5268 135.492 44.3057 135.363 44.0667 135.363H44.0599C43.8183 135.366 43.5967 135.499 43.4811 135.711L41.3182 139.677L38.3812 135.638C38.2429 135.448 38.0132 135.345 37.7809 135.366C37.5469 135.388 37.3417 135.531 37.2402 135.743L35.3186 139.761L32.6271 135.455C32.4958 135.244 32.2566 135.125 32.0119 135.143C31.7648 135.161 31.5483 135.316 31.4497 135.543L28.5597 142.212C28.4131 142.55 28.5686 142.943 28.9063 143.089C28.9929 143.127 29.0827 143.145 29.1714 143.145C29.429 143.145 29.6747 142.994 29.7837 142.742L32.1691 137.238L34.8308 141.497C34.9598 141.704 35.1925 141.822 35.4338 141.809C35.6765 141.796 35.8926 141.651 35.9979 141.431L37.9604 137.327L40.8593 141.313C40.9939 141.498 41.2152 141.602 41.4418 141.587C41.6701 141.572 41.8744 141.441 41.984 141.24L44.0797 137.398L46.5996 141.808C46.7826 142.128 47.1897 142.239 47.5092 142.056C47.5233 142.048 47.5346 142.037 47.5479 142.028C47.8045 142.058 48.0656 141.935 48.2019 141.697L50.7222 137.287L52.8177 141.13C52.9273 141.33 53.132 141.461 53.3601 141.476C53.5877 141.49 53.8082 141.388 53.9426 141.202L56.841 137.217L58.8038 141.32C58.9089 141.54 59.1249 141.685 59.3677 141.699C59.608 141.711 59.8416 141.593 59.9709 141.386L62.6326 137.127L65.018 142.632C65.1268 142.883 65.3726 143.033 65.6301 143.033C65.719 143.033 65.8087 143.016 65.8952 142.978C66.2328 142.832 66.3884 142.439 66.2419 142.101L63.3518 135.432C63.2533 135.204 63.0375 135.051 62.7906 135.032Z" fill="#945534"/>
<path opacity="0.6" d="M42.7398 79.9816V83.294C44.2882 85.2774 45.7315 87.3184 46.7114 89.7022C45.802 87.7288 44.2695 86.1571 42.7398 84.72V89.0024C43.8599 89.9174 44.5785 91.1736 44.8895 93.039C44.547 92.0117 43.7125 91.2328 42.7398 91.0487V105.535C42.5181 105.595 42.3134 105.711 42.1335 105.88C41.9906 106.015 41.9093 106.202 41.9081 106.398C41.9069 106.594 41.9861 106.782 42.1275 106.918C42.7809 107.548 43.5344 108.092 44.2631 108.619C45.4689 109.492 46.6078 110.315 47.3005 111.469C47.4836 111.773 47.602 112.141 47.6761 112.548V117.085C47.6761 117.481 47.997 117.801 48.393 117.801C48.7888 117.801 49.1093 117.481 49.1093 117.085C49.1093 116.659 49.1343 116.189 49.1608 115.691C49.2176 114.628 49.2792 113.476 49.1093 112.426V86.1854C49.1093 85.9563 48.9804 85.7458 48.7952 85.611C48.7023 85.5434 48.5913 85.5012 48.4761 85.4848C48.468 84.1612 47.8113 82.4884 46.7377 81.1654C45.7435 79.9396 44.5776 79.2646 43.4561 79.2646C43.0603 79.2646 42.7398 79.5856 42.7398 79.9816Z" fill="#945534"/>
<path opacity="0.6" d="M183.754 156.622C183.754 151.051 179.237 146.535 173.666 146.535C171.153 146.535 168.883 147.487 167.117 149.007L169.017 158.328H183.607C183.702 157.774 183.754 157.204 183.754 156.622Z" fill="#945534"/>
<path opacity="0.6" d="M197.107 79.9816C197.107 79.5856 196.786 79.2646 196.39 79.2646C195.268 79.2646 194.103 79.9396 193.109 81.1654C192.035 82.4884 191.378 84.161 191.37 85.4848C191.255 85.5012 191.144 85.5434 191.051 85.611C190.866 85.7458 190.737 85.9563 190.737 86.1854V112.426C190.567 113.476 190.629 114.628 190.686 115.691C190.712 116.189 190.737 116.659 190.737 117.085C190.737 117.481 191.058 117.801 191.454 117.801C191.85 117.801 192.17 117.481 192.17 117.085V112.548C192.245 112.141 192.363 111.773 192.546 111.469C193.239 110.315 194.377 109.491 195.584 108.619C196.312 108.092 197.066 107.548 197.719 106.918C197.86 106.782 197.94 106.594 197.939 106.398C197.937 106.202 197.856 106.015 197.713 105.88C197.533 105.711 197.328 105.595 197.107 105.535V91.0487C196.134 91.2328 195.3 92.0117 194.957 93.039C195.268 91.1736 195.986 89.9174 197.107 89.0024V84.72C195.577 86.1573 194.045 87.7288 193.135 89.7022C194.115 87.3184 195.558 85.2774 197.107 83.294V79.9816Z" fill="#945534"/>
<path opacity="0.6" d="M165.279 116.244C164.898 117.656 165.366 118.923 166.319 119.06C167.273 119.197 168.365 118.155 168.747 116.744L170.529 110.147V111.579C170.447 111.654 170.393 111.756 170.393 111.875V119.253C170.393 119.438 170.517 119.601 170.696 119.649C170.731 119.658 170.767 119.663 170.803 119.663C170.946 119.663 171.082 119.588 171.157 119.459C171.165 119.445 172.048 117.969 173.424 117.849C173.991 117.799 174.578 118.012 175.175 118.428V118.98C175.175 119.165 175.299 119.327 175.478 119.376C175.513 119.385 175.549 119.39 175.584 119.39C175.727 119.39 175.864 119.314 175.939 119.186C175.94 119.185 175.955 119.159 175.979 119.122C176.108 119.254 176.236 119.366 176.366 119.519C176.512 119.691 176.771 119.712 176.943 119.565C177.116 119.419 177.137 119.16 176.99 118.987C176.826 118.796 176.661 118.652 176.497 118.488C176.892 118.082 177.477 117.639 178.207 117.576C179.146 117.497 180.135 118.056 181.147 119.245C181.294 119.418 181.553 119.439 181.725 119.292C181.897 119.145 181.919 118.887 181.772 118.714C180.576 117.309 179.352 116.65 178.129 116.76C177.213 116.841 176.489 117.342 175.994 117.824V114.237C176.143 114.297 176.303 114.335 176.473 114.335C177.187 114.335 177.771 113.75 177.771 113.037V108.567C179.346 107.158 180.396 104.71 180.396 101.908C180.396 98.9424 179.212 96.3879 177.479 95.0293V87.0035C178.305 86.6511 179.047 85.9588 179.491 85.2618C180.027 84.4181 180.851 83.6528 181.923 84.0593C182.361 84.225 182.668 84.5227 182.85 84.8852C182.883 84.6702 182.906 84.4518 182.906 84.2279C182.906 83.8831 182.861 83.5496 182.785 83.2283H176.214C175.88 83.0473 175.516 82.9175 175.111 82.9175C174.607 82.9175 174.165 83.1119 173.78 83.3827L173.564 85.3647L173.101 84.1127C172.894 84.464 172.743 84.8505 172.743 85.2857V94.4975C171.72 95.0233 170.845 95.9406 170.195 97.1265H168.628C166.655 97.1265 165.041 98.7404 165.041 100.713V109.969H166.975L165.279 116.244ZM171.212 114.294C171.398 114.397 171.601 114.471 171.827 114.471C172.541 114.471 173.125 113.887 173.125 113.173V109.969H174.749C174.894 109.969 175.033 109.943 175.175 109.926V117.441C174.567 117.116 173.956 116.979 173.347 117.033C172.431 117.114 171.707 117.615 171.212 118.098V114.294Z" fill="#945534"/>
<path opacity="0.6" d="M214.98 88.3495C212.925 89.1603 210.994 90.1769 209.186 91.4215V86.0853C209.186 85.0162 207.528 85.0181 207.528 86.0853V91.7199C205.721 90.8446 203.876 90.0545 201.99 89.358C200.986 88.9873 200.556 90.591 201.549 90.9577C203.401 91.6417 205.207 92.4238 206.977 93.292C205.775 94.8288 204.573 96.3652 203.37 97.9016C202.719 98.7331 203.886 99.9144 204.543 99.0743C205.78 97.4945 207.016 95.9142 208.252 94.3344C209.848 96.0675 211.47 97.7759 213.125 99.4527C213.877 100.214 215.049 99.0401 214.298 98.28C212.664 96.6249 211.063 94.9384 209.488 93.2283C211.325 91.8925 213.3 90.7854 215.421 89.949C216.404 89.5613 215.973 87.9577 214.98 88.3495Z" fill="#945534"/>
<path opacity="0.6" d="M208.334 126.028C208.236 125.801 208.019 125.647 207.772 125.628C207.527 125.61 207.288 125.729 207.157 125.939L204.465 130.246L202.544 126.228C202.442 126.016 202.237 125.873 202.003 125.851C201.771 125.83 201.541 125.933 201.403 126.123L198.466 130.161L196.303 126.196C196.187 125.984 195.966 125.851 195.724 125.849H195.717C195.478 125.849 195.257 125.977 195.138 126.185L192.414 130.951L189.627 126.074C189.508 125.865 189.287 125.737 189.048 125.737H189.041C188.8 125.74 188.578 125.873 188.463 126.085L186.3 130.05L183.363 126.012C183.224 125.822 182.996 125.721 182.763 125.74C182.528 125.762 182.323 125.905 182.222 126.117L180.3 130.134L177.609 125.828C177.477 125.618 177.241 125.499 176.994 125.517C176.746 125.535 176.53 125.69 176.431 125.917L173.541 132.586C173.395 132.924 173.55 133.317 173.888 133.463C173.974 133.501 174.064 133.518 174.153 133.518C174.41 133.518 174.656 133.368 174.765 133.116L177.15 127.612L179.812 131.871C179.941 132.077 180.175 132.197 180.415 132.183C180.658 132.17 180.874 132.025 180.979 131.805L182.942 127.701L185.841 131.687C185.975 131.872 186.195 131.975 186.423 131.961C186.651 131.946 186.856 131.815 186.966 131.614L189.061 127.772L191.581 132.182C191.718 132.42 191.979 132.543 192.235 132.514C192.249 132.522 192.26 132.533 192.274 132.541C192.594 132.724 193.001 132.613 193.184 132.293L195.704 127.883L197.799 131.726C197.909 131.926 198.114 132.057 198.342 132.072C198.568 132.088 198.79 131.984 198.924 131.799L201.823 127.813L203.786 131.916C203.891 132.136 204.107 132.281 204.35 132.295C204.591 132.307 204.824 132.189 204.953 131.982L207.614 127.723L210 133.228C210.109 133.479 210.354 133.63 210.612 133.63C210.701 133.63 210.791 133.612 210.877 133.575C211.215 133.428 211.37 133.035 211.224 132.697L208.334 126.028Z" fill="#945534"/>
<path opacity="0.6" d="M155.404 80.7788C154.687 80.7788 154.106 81.3603 154.106 82.0772V162.413C154.106 163.13 154.687 163.711 155.404 163.711C156.121 163.711 156.702 163.13 156.702 162.413V82.0772C156.702 81.3603 156.121 80.7788 155.404 80.7788Z" fill="#945534"/>
<path opacity="0.6" d="M207.835 135.143C207.59 135.125 207.351 135.244 207.22 135.454L204.528 139.76L202.607 135.742C202.505 135.53 202.3 135.387 202.066 135.366C201.834 135.345 201.604 135.447 201.466 135.638L198.529 139.676L196.366 135.711C196.25 135.499 196.029 135.365 195.787 135.363H195.78C195.541 135.363 195.32 135.491 195.201 135.699L192.477 140.466L189.69 135.588C189.571 135.38 189.35 135.252 189.111 135.252H189.104C188.863 135.254 188.641 135.387 188.526 135.6L186.362 139.565L183.426 135.527C183.287 135.336 183.059 135.236 182.826 135.255C182.591 135.276 182.386 135.419 182.285 135.631L180.363 139.649L177.672 135.343C177.54 135.133 177.304 135.014 177.057 135.031C176.809 135.05 176.593 135.204 176.494 135.431L173.604 142.101C173.458 142.439 173.613 142.832 173.951 142.978C174.037 143.015 174.127 143.033 174.216 143.033C174.474 143.033 174.719 142.882 174.828 142.631L177.214 137.126L179.875 141.386C180.004 141.592 180.238 141.711 180.478 141.698C180.721 141.684 180.937 141.539 181.042 141.32L183.005 137.216L185.904 141.202C186.038 141.387 186.258 141.49 186.486 141.475C186.715 141.461 186.919 141.33 187.029 141.129L189.124 137.287L191.644 141.696C191.78 141.935 192.041 142.057 192.298 142.028C192.312 142.037 192.323 142.047 192.337 142.055C192.656 142.239 193.063 142.127 193.246 141.807L195.767 137.397L197.862 141.24C197.972 141.441 198.176 141.572 198.404 141.586C198.631 141.601 198.853 141.498 198.987 141.313L201.886 137.327L203.849 141.431C203.954 141.65 204.17 141.795 204.412 141.809C204.654 141.821 204.886 141.703 205.015 141.497L207.678 137.237L210.063 142.742C210.172 142.994 210.417 143.144 210.675 143.144C210.763 143.144 210.854 143.126 210.94 143.089C211.278 142.943 211.433 142.55 211.286 142.212L208.397 135.543C208.298 135.315 208.082 135.161 207.835 135.143Z" fill="#945534"/>
</g>
</g>
<defs>
<clipPath id="clip0_4073_44448">
<rect width="240" height="240" fill="white" transform="translate(0 0.166504)"/>
</clipPath>
<clipPath id="clip1_4073_44448">
<rect width="240" height="160.039" fill="white" transform="translate(0 40.147)"/>
</clipPath>
</defs>
</svg>
