<svg width="240" height="241" viewBox="0 0 240 241" fill="none" xmlns="http://www.w3.org/2000/svg">
<path d="M174.497 141.029C181.977 141.029 188.041 134.965 188.041 127.485C188.041 120.005 181.977 113.94 174.497 113.94C167.016 113.94 160.952 120.005 160.952 127.485C160.952 134.965 167.016 141.029 174.497 141.029Z" fill="#117FED"/>
<path d="M60.1958 117.71C60.1958 149.142 85.6762 174.622 117.108 174.622C148.54 174.622 174.02 149.142 174.02 117.71C174.02 86.2785 113.932 22.3616 113.932 22.3616C113.932 22.3616 60.1958 86.2785 60.1958 117.71Z" fill="#0CA5F2"/>
<path d="M145.99 157.579L142.678 151.514L123.978 155.615L125.004 169.463L145.99 157.579Z" fill="#0073D1"/>
<path d="M139.647 156.748L154.39 160.193L143.725 142.492L139.647 156.748Z" fill="#0073D1"/>
<path d="M142.578 143.536L154.39 160.193C155.053 161.127 156.348 161.348 157.283 160.685C158.218 160.022 158.438 158.727 157.775 157.792L145.963 141.135C145.3 140.2 144.005 139.98 143.07 140.643C142.135 141.306 141.915 142.601 142.578 143.536Z" fill="#117FED"/>
<path d="M113.933 141.08L103.51 166L81.1174 156.634C74.247 153.761 70.9953 145.833 73.8687 138.963C76.7421 132.093 84.6693 128.841 91.5396 131.714L113.933 141.08ZM101.283 160.57L108.503 143.307L89.9384 135.543C85.1789 133.552 79.6878 135.805 77.6972 140.564C75.7066 145.324 77.9592 150.815 82.7186 152.806L101.283 160.57Z" fill="#0073D1"/>
<path d="M80.1606 179.684C79.061 182.41 80.5488 185.5 83.3554 186.324L117.573 196.371C120.38 197.195 123.302 195.399 123.851 192.512L124.913 186.808L133.503 140.867L99.9363 131.011L82.338 174.308L80.1606 179.684Z" fill="#117FED"/>
<path d="M101.727 129.051L133.081 138.256C134.135 138.566 134.738 139.671 134.429 140.725C134.119 141.779 133.014 142.383 131.96 142.074L100.606 132.868C99.5519 132.558 98.9483 131.453 99.2578 130.399C99.5673 129.345 100.673 128.741 101.727 129.051Z" fill="#0073D1"/>
<path d="M80.1606 179.684C79.061 182.409 80.5488 185.5 83.3554 186.324L117.573 196.371C120.38 197.195 123.302 195.399 123.851 192.512L124.913 186.808L82.338 174.308L80.1606 179.684Z" fill="#0073D1"/>
<path d="M155.579 214.491C155.438 211.879 159.812 205.018 159.812 205.018C159.812 205.018 164.896 211.37 165.036 213.982C165.176 216.593 163.173 218.824 160.562 218.965C157.95 219.105 155.719 217.102 155.579 214.491Z" fill="#6BB3EA"/>
<path d="M147.073 176.416C146.932 173.805 151.306 166.944 151.306 166.944C151.306 166.944 156.389 173.296 156.53 175.907C156.67 178.519 154.667 180.75 152.056 180.89C149.444 181.031 147.213 179.028 147.073 176.416Z" fill="#6BB3EA"/>
<path d="M164.941 191.495C164.8 188.884 169.174 182.023 169.174 182.023C169.174 182.023 174.258 188.375 174.398 190.987C174.538 193.598 172.535 195.829 169.924 195.97C167.312 196.11 165.081 194.107 164.941 191.495Z" fill="#6BB3EA"/>
<path d="M67.6041 148.95C76.2446 148.95 83.2492 141.945 83.2492 133.305C83.2492 124.664 76.2446 117.66 67.6041 117.66C58.9635 117.66 51.959 124.664 51.959 133.305C51.959 141.945 58.9635 148.95 67.6041 148.95Z" fill="#117FED"/>
<path d="M113.139 126.393C120.017 126.393 125.592 120.818 125.592 113.94C125.592 107.063 120.017 101.488 113.139 101.488C106.262 101.488 100.687 107.063 100.687 113.94C100.687 120.818 106.262 126.393 113.139 126.393Z" fill="white"/>
<path d="M115.868 122.976C120.146 122.976 123.614 119.508 123.614 115.231C123.614 110.953 120.146 107.485 115.868 107.485C111.591 107.485 108.123 110.953 108.123 115.231C108.123 119.508 111.591 122.976 115.868 122.976Z" fill="#0D3342"/>
<path d="M108.123 115.231C108.123 115.575 108.153 115.912 108.197 116.245C109.531 117.936 111.594 119.025 113.915 119.025C117.938 119.025 121.2 115.764 121.2 111.741C121.2 110.85 121.032 110.001 120.739 109.212C119.409 108.134 117.715 107.485 115.868 107.485C111.591 107.485 108.123 110.953 108.123 115.231Z" fill="#113844"/>
<path d="M118.896 121.149C119.658 121.149 120.275 120.532 120.275 119.77C120.275 119.009 119.658 118.391 118.896 118.391C118.134 118.391 117.517 119.009 117.517 119.77C117.517 120.532 118.134 121.149 118.896 121.149Z" fill="#113844"/>
<path d="M153.452 126.393C160.329 126.393 165.904 120.818 165.904 113.94C165.904 107.063 160.329 101.488 153.452 101.488C146.575 101.488 141 107.063 141 113.94C141 120.818 146.575 126.393 153.452 126.393Z" fill="white"/>
<path d="M156.181 122.976C160.459 122.976 163.927 119.508 163.927 115.231C163.927 110.953 160.459 107.485 156.181 107.485C151.903 107.485 148.436 110.953 148.436 115.231C148.436 119.508 151.903 122.976 156.181 122.976Z" fill="#0D3342"/>
<path d="M148.436 115.231C148.436 115.575 148.466 115.912 148.509 116.245C149.843 117.936 151.906 119.025 154.228 119.025C158.251 119.025 161.512 115.764 161.512 111.741C161.512 110.85 161.345 110.001 161.052 109.212C159.721 108.134 158.028 107.485 156.181 107.485C151.903 107.485 148.436 110.953 148.436 115.231Z" fill="#113844"/>
<path d="M159.209 121.149C159.97 121.149 160.588 120.532 160.588 119.77C160.588 119.009 159.97 118.391 159.209 118.391C158.447 118.391 157.83 119.009 157.83 119.77C157.83 120.532 158.447 121.149 159.209 121.149Z" fill="#113844"/>
<path d="M128.924 127.528C131.69 131.657 137.762 131.658 140.529 127.53L140.53 127.528L140.54 127.541" stroke="#0D3342" stroke-width="5" stroke-linecap="round" stroke-linejoin="round"/>
</svg>
