<svg width="240" height="240" viewBox="0 0 240 240" fill="none" xmlns="http://www.w3.org/2000/svg">
<g clip-path="url(#clip0_4056_13350)">
<path d="M237.014 240H2.98572L43.0097 119.833H196.99L237.014 240Z" fill="url(#paint0_linear_4056_13350)"/>
<path d="M119.144 0C143.144 0 162.628 19.4844 162.628 43.4838V110.877H75.6604V43.4838C75.6603 19.4844 95.1448 0 119.144 0Z" fill="white"/>
<path d="M119.144 6.74792C138.817 6.74792 154.789 22.7198 154.789 42.3927V97.6365H83.4993V42.3927C83.4993 22.7198 99.4713 6.74792 119.144 6.74792Z" fill="#DCF3FF"/>
<path d="M154.789 97.6365V42.3927C154.789 22.7066 138.83 6.74792 119.144 6.74792C117.012 6.74792 114.926 6.94582 112.897 7.30482C124.804 16.9692 134.069 31.2231 134.069 52.1922V97.6365H154.789Z" fill="#CCEEFF"/>
<path opacity="0.5" d="M93.1875 47.2891C93.1375 46.082 93.1286 44.4704 93.2637 42.6145" stroke="white" stroke-width="9.4545" stroke-miterlimit="10" stroke-linecap="round"/>
<path opacity="0.5" d="M96.0125 31.374C97.0256 28.9816 97.2806 24.3832 104.871 20.3445" stroke="white" stroke-width="9.4545" stroke-miterlimit="10" stroke-linecap="round"/>
<path d="M170.374 58.5543H69.6264C68.5322 58.5543 67.6451 59.4414 67.6451 60.5356V66.702C67.6451 67.7963 68.5322 68.6833 69.6264 68.6833H170.374C171.468 68.6833 172.355 67.7963 172.355 66.702V60.5356C172.355 59.4414 171.468 58.5543 170.374 58.5543Z" fill="#318FFF"/>
<path d="M120 143.632C157.983 143.632 188.774 129.537 188.774 112.148C188.774 94.7604 157.983 80.6646 120 80.6646C82.0171 80.6646 51.2258 94.7604 51.2258 112.148C51.2258 129.537 82.0171 143.632 120 143.632Z" fill="#0083CC"/>
<path d="M228.775 112.148H11.2249C9.2714 112.148 7.68774 113.732 7.68774 115.686V122.031C7.68774 123.984 9.2714 125.568 11.2249 125.568H228.775C230.729 125.568 232.312 123.984 232.312 122.031V115.686C232.312 113.732 230.729 112.148 228.775 112.148Z" fill="#318FFF"/>
<path d="M68.0497 153.87C71.6581 153.87 74.5833 150.945 74.5833 147.336C74.5833 143.728 71.6581 140.803 68.0497 140.803C64.4413 140.803 61.5161 143.728 61.5161 147.336C61.5161 150.945 64.4413 153.87 68.0497 153.87Z" fill="#0083CC"/>
<path d="M70.5515 145.443L67.5122 144.245L71.6329 133.79C71.9634 132.952 72.9127 132.539 73.7514 132.87C74.5901 133.2 75.0027 134.149 74.6721 134.988L70.5515 145.443Z" fill="#0083CC"/>
<path d="M171.95 153.87C175.559 153.87 178.484 150.945 178.484 147.336C178.484 143.728 175.559 140.803 171.95 140.803C168.342 140.803 165.417 143.728 165.417 147.336C165.417 150.945 168.342 153.87 171.95 153.87Z" fill="#0083CC"/>
<path d="M166.249 132.87C167.087 132.539 168.037 132.952 168.367 133.79L172.488 144.245L169.449 145.443L165.328 134.988C164.997 134.149 165.41 133.2 166.249 132.87Z" fill="#0083CC"/>
<path d="M65.0076 68.6833H174.992C198.981 68.6833 218.457 88.1595 218.457 112.148H21.5425C21.5425 88.1595 41.0186 68.6833 65.0076 68.6833Z" fill="#2EABFF"/>
<path d="M154.567 122.508C145.687 122.508 138.245 117.213 136.051 109.331C133.32 99.5236 139.829 89.1139 150.56 86.1251C152.497 85.586 154.481 85.3126 156.459 85.3126C165.34 85.3126 172.781 90.6085 174.976 98.4903C177.707 108.297 171.198 118.707 160.466 121.696C158.53 122.235 156.545 122.508 154.567 122.508Z" fill="#24314F"/>
<path d="M156.46 87.3127C164.178 87.3127 171.063 91.8954 173.049 99.0272C175.488 107.786 169.614 117.072 159.929 119.769C158.131 120.27 156.327 120.508 154.567 120.508C146.849 120.508 139.963 115.926 137.977 108.794C135.538 100.036 141.412 90.749 151.097 88.052C152.896 87.5511 154.699 87.3127 156.46 87.3127ZM156.46 83.3127C154.3 83.3127 152.135 83.6107 150.024 84.1985C138.23 87.4829 131.097 98.9977 134.124 109.867C136.562 118.624 144.778 124.508 154.567 124.508C156.726 124.508 158.892 124.21 161.003 123.623C172.797 120.338 179.93 108.823 176.903 97.9541C174.464 89.1966 166.249 83.3127 156.46 83.3127Z" fill="#38496B"/>
<path d="M163.292 110.302H166.817C167.198 110.302 167.507 109.994 167.507 109.612V106.088C167.507 105.707 167.198 105.398 166.817 105.398H163.292C162.911 105.398 162.602 105.707 162.602 106.088V109.612C162.602 109.994 162.911 110.302 163.292 110.302Z" fill="#E8EB00"/>
<path d="M158.387 105.397H161.912C162.293 105.397 162.602 105.089 162.602 104.707V101.183C162.602 100.801 162.293 100.493 161.912 100.493H158.387C158.006 100.493 157.697 100.801 157.697 101.183V104.707C157.697 105.089 158.006 105.397 158.387 105.397Z" fill="#E8EB00"/>
<path d="M153.482 100.493H157.007C157.388 100.493 157.697 100.184 157.697 99.8027V96.2778C157.697 95.8967 157.388 95.5878 157.007 95.5878H153.482C153.101 95.5878 152.792 95.8967 152.792 96.2778V99.8027C152.792 100.184 153.101 100.493 153.482 100.493Z" fill="#E8EB00"/>
<path d="M148.577 105.397H152.102C152.483 105.397 152.792 105.089 152.792 104.707V101.183C152.792 100.801 152.483 100.493 152.102 100.493H148.577C148.196 100.493 147.887 100.801 147.887 101.183V104.707C147.887 105.089 148.196 105.397 148.577 105.397Z" fill="#E8EB00"/>
<path d="M143.672 110.302H147.197C147.578 110.302 147.887 109.994 147.887 109.612V106.088C147.887 105.707 147.578 105.398 147.197 105.398H143.672C143.291 105.398 142.982 105.707 142.982 106.088V109.612C142.982 109.994 143.291 110.302 143.672 110.302Z" fill="#E8EB00"/>
<path d="M85.4329 122.508C83.4549 122.508 81.47 122.235 79.534 121.696C68.8021 118.707 62.2933 108.297 65.0237 98.4903C67.2185 90.6085 74.6599 85.3126 83.5408 85.3126C85.5188 85.3126 87.5032 85.586 89.4397 86.1251C100.171 89.1139 106.68 99.524 103.949 109.331C101.755 117.213 94.3133 122.508 85.4329 122.508Z" fill="#24314F"/>
<path d="M83.5403 87.3127C85.3008 87.3127 87.104 87.551 88.9028 88.052C98.5879 90.749 104.462 100.036 102.023 108.794C100.037 115.926 93.1509 120.508 85.4331 120.508C83.6726 120.508 81.8694 120.27 80.0706 119.769C70.3855 117.072 64.5115 107.786 66.9507 99.0272C68.9368 91.8955 75.8225 87.3129 83.5403 87.3127ZM83.5408 83.3127C73.7517 83.3129 65.536 89.1968 63.0975 97.9541C61.6104 103.293 62.4935 108.924 65.5836 113.809C68.5926 118.567 73.3565 122.052 78.9977 123.622C81.1085 124.21 83.2738 124.508 85.4332 124.508C95.222 124.508 103.438 118.624 105.876 109.867C107.363 104.528 106.48 98.8969 103.39 94.0115C100.381 89.2544 95.6171 85.7694 89.9759 84.1985C87.8651 83.6107 85.7 83.3127 83.5408 83.3127Z" fill="#38496B"/>
<path d="M76.7083 105.397H73.1834C72.8023 105.397 72.4934 105.706 72.4934 106.087V109.612C72.4934 109.993 72.8023 110.302 73.1834 110.302H76.7083C77.0894 110.302 77.3983 109.993 77.3983 109.612V106.087C77.3983 105.706 77.0894 105.397 76.7083 105.397Z" fill="#E8EB00"/>
<path d="M81.6131 100.493H78.0882C77.7071 100.493 77.3982 100.802 77.3982 101.183V104.708C77.3982 105.089 77.7071 105.398 78.0882 105.398H81.6131C81.9942 105.398 82.3031 105.089 82.3031 104.708V101.183C82.3031 100.802 81.9942 100.493 81.6131 100.493Z" fill="#E8EB00"/>
<path d="M86.5181 95.5878H82.9932C82.6121 95.5878 82.3032 95.8967 82.3032 96.2778V99.8027C82.3032 100.184 82.6121 100.493 82.9932 100.493H86.5181C86.8992 100.493 87.2081 100.184 87.2081 99.8027V96.2778C87.2081 95.8967 86.8992 95.5878 86.5181 95.5878Z" fill="#E8EB00"/>
<path d="M91.4229 100.493H87.898C87.5169 100.493 87.208 100.802 87.208 101.183V104.708C87.208 105.089 87.5169 105.398 87.898 105.398H91.4229C91.804 105.398 92.1129 105.089 92.1129 104.708V101.183C92.1129 100.802 91.804 100.493 91.4229 100.493Z" fill="#E8EB00"/>
<path d="M96.3277 105.397H92.8028C92.4217 105.397 92.1128 105.706 92.1128 106.087V109.612C92.1128 109.993 92.4217 110.302 92.8028 110.302H96.3277C96.7088 110.302 97.0177 109.993 97.0177 109.612V106.087C97.0177 105.706 96.7088 105.397 96.3277 105.397Z" fill="#E8EB00"/>
<path d="M76.9312 66.1735C78.3421 66.1735 79.4859 65.0297 79.4859 63.6188C79.4859 62.2079 78.3421 61.0641 76.9312 61.0641C75.5202 61.0641 74.3765 62.2079 74.3765 63.6188C74.3765 65.0297 75.5202 66.1735 76.9312 66.1735Z" fill="#2EABFF"/>
<path d="M89.2366 66.1735C90.6475 66.1735 91.7913 65.0297 91.7913 63.6188C91.7913 62.2079 90.6475 61.0641 89.2366 61.0641C87.8257 61.0641 86.6819 62.2079 86.6819 63.6188C86.6819 65.0297 87.8257 66.1735 89.2366 66.1735Z" fill="#2EABFF"/>
<path d="M101.542 66.1735C102.953 66.1735 104.097 65.0297 104.097 63.6188C104.097 62.2079 102.953 61.0641 101.542 61.0641C100.131 61.0641 98.9873 62.2079 98.9873 63.6188C98.9873 65.0297 100.131 66.1735 101.542 66.1735Z" fill="#2EABFF"/>
<path d="M113.847 66.1735C115.258 66.1735 116.402 65.0297 116.402 63.6188C116.402 62.2079 115.258 61.0641 113.847 61.0641C112.437 61.0641 111.293 62.2079 111.293 63.6188C111.293 65.0297 112.437 66.1735 113.847 66.1735Z" fill="#2EABFF"/>
<path d="M126.153 66.1735C127.564 66.1735 128.707 65.0297 128.707 63.6188C128.707 62.2079 127.564 61.0641 126.153 61.0641C124.742 61.0641 123.598 62.2079 123.598 63.6188C123.598 65.0297 124.742 66.1735 126.153 66.1735Z" fill="#2EABFF"/>
<path d="M138.458 66.1735C139.869 66.1735 141.013 65.0297 141.013 63.6188C141.013 62.2079 139.869 61.0641 138.458 61.0641C137.047 61.0641 135.903 62.2079 135.903 63.6188C135.903 65.0297 137.047 66.1735 138.458 66.1735Z" fill="#2EABFF"/>
<path d="M150.763 66.1735C152.174 66.1735 153.318 65.0297 153.318 63.6188C153.318 62.2079 152.174 61.0641 150.763 61.0641C149.353 61.0641 148.209 62.2079 148.209 63.6188C148.209 65.0297 149.353 66.1735 150.763 66.1735Z" fill="#2EABFF"/>
<path d="M163.069 66.1735C164.48 66.1735 165.624 65.0297 165.624 63.6188C165.624 62.2079 164.48 61.0641 163.069 61.0641C161.658 61.0641 160.514 62.2079 160.514 63.6188C160.514 65.0297 161.658 66.1735 163.069 66.1735Z" fill="#2EABFF"/>
</g>
<defs>
<linearGradient id="paint0_linear_4056_13350" x1="120" y1="217.251" x2="120" y2="13.7106" gradientUnits="userSpaceOnUse">
<stop stop-color="#48B6FF" stop-opacity="0"/>
<stop offset="1" stop-color="#3FB2FF"/>
</linearGradient>
<clipPath id="clip0_4056_13350">
<rect width="240" height="240" fill="white"/>
</clipPath>
</defs>
</svg>
