<svg width="240" height="241" viewBox="0 0 240 241" fill="none" xmlns="http://www.w3.org/2000/svg">
<g clip-path="url(#clip0_4073_44639)">
<path d="M113.624 220.419L64.1435 203.661C70.9858 201.951 76.5486 198.724 80.6224 195.687L87.2679 178.297L89.5405 172.289L90.8206 168.955L93.1126 162.954L94.3995 159.6L96.6652 153.611L119.084 94.8785L136.094 100.64L118.209 160.908L116.369 167.041L115.353 170.486L113.527 176.645L112.517 180.071L110.671 186.224L105.382 204.073C106.772 208.96 109.229 214.903 113.624 220.419Z" fill="#A58025"/>
<path d="M195.555 107.504L182.916 144.821C181.806 139.746 179.636 135.633 177.55 132.609L169.241 129.405L163.275 127.125L159.931 125.841L153.953 123.534L122.905 111.59L90.9883 102.209L84.8584 100.415L81.422 99.4025L75.2791 97.5817L66.7331 95.0773C63.2392 96.2108 59.0165 98.1586 55.0508 101.515L67.6895 64.1978C68.7932 69.2921 70.9632 73.405 73.0558 76.4092L81.3648 79.613L87.3238 81.9127L90.6682 83.197L96.6464 85.5034L127.694 97.448L159.611 106.828L165.741 108.623L169.177 109.635L175.327 111.436L183.872 113.941C187.36 112.827 191.583 110.879 195.555 107.504Z" fill="#A58025"/>
<path d="M158.556 31.8304C156.764 30.682 154.829 29.7016 152.789 28.9025C152.233 28.6928 151.678 28.483 151.116 28.2928C150.555 28.1025 149.966 27.925 149.398 27.7542C147.292 27.1492 145.179 26.7581 143.058 26.5812C127.441 25.0598 112.392 34.1029 107.26 49.2551C101.247 67.01 121.339 116.213 121.339 116.213C121.339 116.213 167.195 89.3455 173.208 71.5906C178.34 56.4384 171.884 40.1119 158.556 31.8304ZM128.648 94.6315C122.515 76.2053 119.059 59.0541 120.822 53.8482C123.394 46.2527 130.409 41.3529 138.242 40.8007C140.384 40.6601 142.609 40.8506 144.799 41.3975C145.361 41.523 145.949 41.7004 146.511 41.8908C147.092 42.0876 147.647 42.2973 148.189 42.5458C150.261 43.4424 152.124 44.6364 153.74 46.0499C159.625 51.2477 162.219 59.402 159.647 66.9976C157.883 72.2035 144.717 83.7248 128.648 94.6315Z" fill="#A58025"/>
<path d="M139.501 113.304C144.735 105.565 142.725 95.0494 135.011 89.8164C127.297 84.5834 116.8 86.6149 111.566 94.3539C106.331 102.093 108.341 112.609 116.055 117.842C123.769 123.075 134.266 121.043 139.501 113.304Z" fill="#FBCC34"/>
<g style="mix-blend-mode:multiply" opacity="0.5">
<path d="M137 91.4099C137.215 93.7081 136.974 96.0859 136.185 98.4147C133.188 107.266 123.602 112.017 114.774 109.027C112.452 108.241 110.423 106.988 108.735 105.421C109.336 111.858 113.6 117.652 120.105 119.855C128.932 122.845 138.518 118.094 141.516 109.243C143.725 102.72 141.73 95.8006 137 91.4099Z" fill="#D1AB2D"/>
</g>
<path d="M127.539 92.8883C127.976 94.5288 125.952 96.4987 123.017 97.2886C120.083 98.0784 117.35 97.3888 116.913 95.7485C116.476 94.1081 118.5 92.138 121.434 91.3481C124.368 90.5584 127.101 91.2479 127.539 92.8883Z" fill="#FFFAC4"/>
<path d="M116.369 167.041L94.3994 159.6L96.665 153.611L118.209 160.908L116.369 167.041Z" fill="#FBCC34"/>
<path d="M113.526 176.645L90.8206 168.955L93.1125 162.954L115.353 170.486L113.526 176.645Z" fill="#FBCC34"/>
<path d="M110.671 186.224L87.2678 178.297L89.5404 172.289L112.517 180.071L110.671 186.224Z" fill="#FBCC34"/>
<path d="M96.6465 85.5037L90.9884 102.21L84.8584 100.415L90.6682 83.1973L96.6465 85.5037Z" fill="#FBCC34"/>
<path d="M81.422 99.4027L75.279 97.582L81.3647 79.6133L87.3237 81.9129L81.422 99.4027Z" fill="#FBCC34"/>
<path d="M175.326 111.437L169.241 129.405L163.275 127.125L169.177 109.635L175.326 111.437Z" fill="#FBCC34"/>
<path d="M159.931 125.841L153.952 123.535L159.61 106.829L165.741 108.623L159.931 125.841Z" fill="#FBCC34"/>
<path d="M158.556 31.8303L153.74 46.0498C152.124 44.6363 150.261 43.4423 148.189 42.5457L152.789 28.9023C154.829 29.7015 156.764 30.6819 158.556 31.8303Z" fill="#FBCC34"/>
<path d="M144.799 41.3976C142.609 40.8507 140.384 40.6601 138.242 40.8008L143.058 26.5813C145.179 26.7582 147.292 27.1493 149.398 27.7542L144.799 41.3976Z" fill="#FBCC34"/>
</g>
<defs>
<clipPath id="clip0_4073_44639">
<rect width="135" height="194" fill="white" transform="translate(87.1836 6.63965) rotate(18.7105)"/>
</clipPath>
</defs>
</svg>
