<svg width="241" height="240" viewBox="0 0 241 240" fill="none" xmlns="http://www.w3.org/2000/svg">
<g clip-path="url(#clip0_5910_2614)">
<path d="M125.515 13.4858H114.98V44.0185H125.515V13.4858Z" fill="#BC804A"/>
<path d="M114.074 30.8745H126.421C127.7 30.8745 128.738 31.9129 128.738 33.1919V37.9712H111.756V33.1919C111.756 31.9129 112.795 30.8745 114.074 30.8745Z" fill="#AD713E"/>
<path d="M202.494 37.0664H38.0008C37.2495 37.0664 36.6404 37.6755 36.6404 38.4268V42.658C36.6404 43.4093 37.2495 44.0184 38.0008 44.0184H202.494C203.245 44.0184 203.854 43.4093 203.854 42.658V38.4268C203.854 37.6755 203.245 37.0664 202.494 37.0664Z" fill="#B39882"/>
<path d="M36.6404 42.125H203.854V42.6576C203.854 43.4085 203.245 44.0181 202.494 44.0181H38.0008C37.2499 44.0181 36.6404 43.4085 36.6404 42.6576V42.125Z" fill="#A88871"/>
<path d="M57.8787 29.3857H53.0878C51.946 29.3857 51.0204 30.3113 51.0204 31.4531V47.8767C51.0204 49.0184 51.946 49.944 53.0878 49.944H57.8787C59.0205 49.944 59.9461 49.0184 59.9461 47.8767V31.4531C59.9461 30.3113 59.0205 29.3857 57.8787 29.3857Z" fill="#DFA365"/>
<path d="M184.887 29.3857H180.096C178.954 29.3857 178.028 30.3113 178.028 31.4531V47.8767C178.028 49.0184 178.954 49.944 180.096 49.944H184.887C186.028 49.944 186.954 49.0184 186.954 47.8767V31.4531C186.954 30.3113 186.028 29.3857 184.887 29.3857Z" fill="#DFA365"/>
<path d="M182.126 46.1137C155.801 43.0836 121.951 42.9949 119.993 42.9923C119.993 42.9923 119.974 42.9922 119.947 42.9922C119.919 42.9922 119.901 42.9922 119.901 42.9922C117.942 42.9948 84.0922 43.0836 57.7672 46.1137C57.7672 46.1137 28.8929 84.5478 41.7692 164.342L44.1104 167.269C44.1104 167.269 59.8268 157.67 101.788 150.439C113.805 148.369 126.089 148.369 138.105 150.439C180.066 157.67 195.783 167.269 195.783 167.269L198.124 164.342C211 84.5479 182.126 46.1137 182.126 46.1137Z" fill="#FFF46E"/>
<g opacity="0.1">
<path d="M163.376 155.748C167.748 141.752 170.215 127.447 170.715 113.09C171.212 98.8143 169.781 84.4588 166.461 70.4226C163.896 59.5812 160.633 50.6803 157.794 44.1219C156.362 44.0412 154.942 43.9665 153.538 43.897C156.491 50.4643 160.092 59.8709 162.818 71.4432C167.448 91.1016 170.337 120.871 159.697 154.842C160.959 155.144 162.188 155.447 163.376 155.748Z" fill="#DFA365"/>
<path d="M86.3552 43.897C84.9515 43.9666 83.5314 44.0412 82.0993 44.1219C79.2601 50.6804 75.9971 59.5812 73.4329 70.4226C70.1125 84.4588 68.6813 98.8143 69.1785 113.09C69.6787 127.447 72.1453 141.751 76.5177 155.748C77.7058 155.447 78.9345 155.144 80.1966 154.842C69.5561 120.871 72.4457 91.1016 77.0755 71.4432C79.801 59.8708 83.4028 50.4643 86.3552 43.897Z" fill="#DFA365"/>
</g>
<g opacity="0.3">
<path d="M137.492 55.5867C137.137 55.3246 136.762 55.1111 136.364 54.9596C135.864 54.7687 135.299 54.9321 134.812 55.1541C134.088 55.483 133.423 55.9403 132.858 56.4982C132.716 56.6376 132.522 56.7958 132.343 56.7096C132.174 56.6281 132.164 56.3932 132.193 56.2078C132.306 55.497 132.628 54.8353 132.772 54.1302C132.941 53.3048 132.856 52.4293 132.53 51.6522C132.415 51.3753 132.263 51.1034 132.028 50.9164C131.293 50.3302 129.736 49.9285 128.834 49.5906C127.701 49.1661 126.53 48.839 125.336 48.6379C120.237 47.7786 114.23 49.4615 109.756 51.8333C107.761 52.8914 105.9 54.2335 104.267 55.8028C102.414 57.587 99.9959 59.8621 100.582 62.6329C100.77 63.5191 100.957 64.4052 101.145 65.2915C100.536 65.6394 99.8171 65.737 99.1686 66.0052C97.2185 66.8111 97.3025 69.7345 97.149 71.4923C96.9357 73.9356 97.1196 76.3694 98.0465 78.661C99.4312 82.0767 101.902 85.0875 105.197 86.8059C105.261 86.8414 105.325 86.8769 105.389 86.9053C105.794 87.1112 106.227 87.3101 106.497 87.6722C106.88 88.1764 106.852 88.8723 106.809 89.5043C106.674 91.5707 106.163 94.0773 106.589 96.1225C106.83 97.28 107.335 97.7912 108.386 97.9759C109.33 98.1393 111.276 98.3949 111.858 97.351C112.092 96.9463 111.808 96.1012 112.078 95.5616C112.398 94.9082 113.001 94.3757 113.726 94.2195C113.839 94.1981 113.967 94.184 114.074 94.2407C114.926 94.7235 114.549 96.7119 114.833 97.4361C115.217 98.4232 116.076 98.7428 117.091 98.7712C120.003 98.8777 117.773 95.313 120.216 94.2265C120.585 94.0632 121.075 94.0348 121.359 94.3259C121.657 94.6313 121.594 95.1354 121.508 95.5615C121.253 96.8397 121.054 98.4374 122.63 98.9487C123.312 99.1688 124.668 99.0552 125.137 98.409C125.648 97.7202 124.981 96.4563 125.201 95.5331C125.414 94.6313 126.238 93.7933 127.161 93.8999C129.483 94.1697 127.842 96.7687 129 97.8835C130.015 98.8635 133.118 98.5228 133.58 97.3936C134.333 95.5616 132.913 91.9542 132.572 90.0938C132.501 89.7245 132.43 89.3269 132.55 88.9646C132.714 88.4747 133.182 88.1622 133.608 87.8711C138.7 84.4129 142.179 78.6894 142.925 72.5896C143.334 69.2427 142.905 65.8026 141.764 62.6343C140.97 60.4298 139.603 57.147 137.492 55.5867ZM116.225 76.4243C116.116 78.6935 115.286 81.0869 113.246 82.292C112.34 82.8274 111.464 82.83 110.716 83.6137C110.003 84.3604 109.792 85.6626 109.116 86.4988C108.398 85.5868 109.302 84.2295 109.012 83.1057C108.734 82.0323 107.364 81.8601 106.575 81.2662C105.571 80.5108 104.788 79.3582 104.331 78.1995C103.401 75.842 103.678 73.0939 104.878 70.857C105.24 70.1825 105.701 69.5363 106.34 69.1102C106.979 68.6771 107.824 68.5066 108.535 68.8049C108.876 68.9539 109.159 69.1883 109.444 69.4297C111.553 71.205 113.662 72.9802 115.771 74.7555C116.218 75.1319 116.253 75.835 116.225 76.4243ZM119.825 87.3742C119.712 87.8144 119.527 88.2617 119.165 88.5387C118.81 88.8085 118.227 88.8369 117.936 88.489C117.695 88.1978 117.73 87.7717 117.794 87.4024C117.908 86.6994 118.156 84.4697 119.186 84.5053C120.393 84.555 120.017 86.6284 119.825 87.3742ZM123.631 88.489C123.34 88.8369 122.765 88.8085 122.403 88.5387C122.041 88.2617 121.856 87.8144 121.75 87.3742C121.558 86.6285 121.174 84.5551 122.389 84.5053C123.418 84.4698 123.66 86.6995 123.78 87.4024C123.844 87.7717 123.873 88.1978 123.631 88.489ZM136.64 76.9924C136.179 79.0943 134.887 81.0258 133.047 82.1477C131.208 83.2626 128.829 83.5041 126.848 82.6519C124.867 81.7997 123.383 79.8328 123.234 77.6883C123.198 77.1272 123.248 76.5521 123.475 76.0408C124.068 74.7696 125.377 74.4719 126.277 73.5714C127.771 72.0749 126.655 71.6164 127.149 69.8257C127.183 69.7013 127.256 69.5659 127.383 69.5445C127.5 69.5248 127.606 69.6095 127.693 69.6887C130.479 72.1962 130.02 69.5506 133.019 69.3019C136.598 69.0037 137.173 74.5568 136.64 76.9924Z" fill="#DFA365"/>
<path d="M136.438 117.791C137.203 117.681 137.985 118.236 138.96 118.176C139.998 118.112 140.918 117.508 141.916 117.215C143.541 116.738 145.501 117.223 146.451 118.625C147.401 120.027 146.94 122.28 145.379 122.937C144.362 123.366 143.206 123.087 142.104 123.014C142.81 124.058 143.534 125.143 143.753 126.384C143.971 127.626 143.544 129.074 142.429 129.662C141.299 130.257 139.842 129.767 138.949 128.853C138.057 127.94 137.603 126.697 137.185 125.49C137.069 125.154 136.944 124.803 136.681 124.564C136.465 124.368 136.18 124.27 135.903 124.177C130.038 122.2 124.227 120.063 118.478 117.768C115.567 116.606 112.671 115.404 109.793 114.161C108.881 113.767 107.265 113.422 106.701 112.533C106.054 111.513 106.843 110.306 106.743 109.274C106.709 108.915 106.4 108.545 106.046 108.614C105.884 108.645 105.752 108.758 105.629 108.868C105.184 109.26 104.74 109.653 104.296 110.045C102.348 111.765 100.645 110.058 98.7235 109.145C96.7935 110.755 93.7782 110.893 91.7093 109.466C90.069 108.334 89.1432 105.834 90.4434 104.324C91.4038 103.208 93.1334 103.122 94.5418 103.549C93.1012 101.972 92.2186 99.4637 93.4715 97.7332C94.3245 96.555 96.0012 96.1312 97.3867 96.5739C100.374 97.5284 99.8774 100.326 101.363 102.41C102.425 103.9 104.813 104.191 106.403 104.864C112.856 107.593 119.287 110.373 125.746 113.09C127.254 113.725 128.764 114.355 130.272 114.989C130.953 115.275 133.238 115.904 133.534 116.596C133.672 116.919 133.578 117.287 133.522 117.634C133.459 118.029 133.45 118.433 133.494 118.832C133.528 119.145 133.653 119.516 133.962 119.579C134.139 119.616 134.32 119.532 134.469 119.429C134.88 119.146 135.163 118.718 135.497 118.347C135.816 117.992 136.126 117.836 136.438 117.791Z" fill="#CE8D51"/>
<path d="M103.495 117.543C102.676 117.884 101.819 118.231 100.933 118.176C99.8951 118.112 98.9755 117.508 97.9775 117.215C96.3527 116.738 94.3921 117.223 93.4421 118.625C92.492 120.027 92.9534 122.28 94.5141 122.937C95.5315 123.366 96.6874 123.087 97.7888 123.014C97.0827 124.058 96.3595 125.143 96.1407 126.384C95.9218 127.626 96.3489 129.074 97.4643 129.662C98.5941 130.257 100.051 129.767 100.944 128.853C101.836 127.94 102.29 126.697 102.708 125.49C102.824 125.154 102.949 124.803 103.212 124.564C103.428 124.368 103.713 124.27 103.99 124.177C105.607 123.632 107.849 123.527 108.086 121.612C108.128 121.268 108.21 120.93 108.329 120.606C108.381 120.463 108.502 120.293 108.645 120.346C108.73 120.379 108.767 120.477 108.797 120.564C108.974 121.064 109.308 121.524 109.776 121.773C110.758 122.295 111.969 121.377 112.895 121.037C114.256 120.537 115.612 120.026 116.966 119.508C119.674 118.471 122.368 117.4 125.048 116.294C130.483 114.051 135.859 111.667 141.17 109.145C143.1 110.755 146.115 110.893 148.184 109.466C149.824 108.334 150.75 105.834 149.45 104.324C148.489 103.208 146.76 103.122 145.351 103.549C146.792 101.972 147.675 99.4637 146.422 97.7332C145.569 96.555 143.892 96.1312 142.507 96.5739C139.52 97.5284 140.016 100.326 138.531 102.41C137.76 103.491 136.391 103.891 135.191 104.284C134.494 104.512 132.657 104.89 132.302 105.58C132.228 105.722 132.203 105.884 132.181 106.043C132.092 106.708 132.044 107.418 131.648 107.959C131.251 108.5 130.346 108.726 129.924 108.206C129.092 107.18 129.492 106.321 127.983 107.123C126.536 107.892 124.979 108.488 123.465 109.134C120.362 110.458 117.258 111.782 114.147 113.09C110.6 114.582 107.049 116.066 103.495 117.543Z" fill="#DFA365"/>
</g>
<path d="M122.121 115.33H117.773V129.072H122.121V115.33Z" fill="#663741"/>
<path d="M123.102 124.39H116.791V150.45H123.102V124.39Z" fill="#954842"/>
<path d="M125.262 122.404H114.631V126.476H125.262V122.404Z" fill="#934B3C"/>
<path d="M125.074 108.412C125.074 105.58 122.778 103.284 119.947 103.284C117.115 103.284 114.819 105.58 114.819 108.412V114.258C114.819 117.089 117.115 119.385 119.947 119.385C122.778 119.385 125.074 117.089 125.074 114.258V108.412Z" fill="#914640"/>
<path d="M120.186 107.889C120.186 106.689 119.213 105.715 118.012 105.715C116.812 105.715 115.838 106.689 115.838 107.889V110.368C115.838 111.569 116.812 112.542 118.012 112.542C119.213 112.542 120.186 111.569 120.186 110.368V107.889Z" fill="#9B5653"/>
<path d="M92.9037 125.63L89.8291 128.705L99.5467 138.423L102.621 135.348L92.9037 125.63Z" fill="#663741"/>
<path d="M100.004 131.342L95.5415 135.805L113.969 154.233L118.432 149.77L100.004 131.342Z" fill="#954842"/>
<path d="M100.128 128.412L92.6107 135.929L95.49 138.808L103.007 131.291L100.128 128.412Z" fill="#934B3C"/>
<path d="M90.1004 118.651C88.098 116.648 84.8515 116.648 82.8491 118.651C80.8468 120.653 80.8468 123.9 82.8491 125.902L86.9829 130.036C88.9852 132.038 92.2317 132.038 94.2341 130.036C96.2365 128.033 96.2365 124.787 94.2341 122.784L90.1004 118.651Z" fill="#914640"/>
<path d="M86.2754 121.737C85.4263 120.888 84.0498 120.888 83.2008 121.737C82.3517 122.586 82.3517 123.963 83.2008 124.812L84.9535 126.564C85.8025 127.414 87.1791 127.414 88.0281 126.564C88.8772 125.715 88.8772 124.339 88.0281 123.49L86.2754 121.737Z" fill="#9B5653"/>
<path d="M79.5281 153.573V157.921H93.2708V153.573H79.5281Z" fill="#663741"/>
<path d="M88.5881 152.592V158.903H114.648V152.592H88.5881Z" fill="#954842"/>
<path d="M86.603 150.433V161.063H90.6749V150.433H86.603Z" fill="#934B3C"/>
<path d="M72.6102 150.62C69.7784 150.62 67.4828 152.916 67.4828 155.748C67.4828 158.579 69.7784 160.875 72.6102 160.875H78.4562C81.288 160.875 83.5836 158.579 83.5836 155.748C83.5836 152.916 81.288 150.62 78.4562 150.62H72.6102Z" fill="#914640"/>
<path d="M72.0881 155.508C70.8874 155.508 69.9141 156.481 69.9141 157.682C69.9141 158.883 70.8874 159.856 72.0881 159.856H74.5669C75.7676 159.856 76.741 158.883 76.741 157.682C76.741 156.481 75.7676 155.508 74.5669 155.508H72.0881Z" fill="#9B5653"/>
<path d="M89.8291 182.791L92.9037 185.866L102.621 176.148L99.5467 173.074L89.8291 182.791Z" fill="#663741"/>
<path d="M95.5414 175.69L100.004 180.153L118.432 161.726L113.969 157.263L95.5414 175.69Z" fill="#954842"/>
<path d="M92.6107 175.567L100.128 183.084L103.007 180.205L95.49 172.688L92.6107 175.567Z" fill="#934B3C"/>
<path d="M82.8491 185.594C80.8467 187.597 80.8467 190.843 82.8491 192.846C84.8515 194.848 88.098 194.848 90.1003 192.846L94.2341 188.712C96.2364 186.709 96.2365 183.463 94.2341 181.461C92.2317 179.458 88.9852 179.458 86.9828 181.461L82.8491 185.594Z" fill="#914640"/>
<path d="M85.936 189.419C85.0869 190.268 85.0869 191.645 85.936 192.494C86.785 193.343 88.1615 193.343 89.0106 192.494L90.7633 190.741C91.6124 189.892 91.6124 188.516 90.7633 187.667C89.9143 186.818 88.5377 186.818 87.6887 187.667L85.936 189.419Z" fill="#9B5653"/>
<path d="M117.773 196.167H122.121V182.424H117.773V196.167Z" fill="#663741"/>
<path d="M116.791 187.107H123.102V161.047H116.791V187.107Z" fill="#954842"/>
<path d="M114.631 189.092H125.262V185.02H114.631V189.092Z" fill="#934B3C"/>
<path d="M114.819 203.085C114.819 205.917 117.115 208.212 119.947 208.212C122.778 208.212 125.074 205.917 125.074 203.085V197.239C125.074 194.407 122.778 192.112 119.947 192.112C117.115 192.112 114.819 194.407 114.819 197.239V203.085Z" fill="#914640"/>
<path d="M119.707 203.607C119.707 204.807 120.68 205.781 121.881 205.781C123.082 205.781 124.055 204.807 124.055 203.607V201.128C124.055 199.927 123.082 198.954 121.881 198.954C120.68 198.954 119.707 199.927 119.707 201.128V203.607Z" fill="#9B5653"/>
<path d="M146.99 185.865L150.064 182.791L140.347 173.073L137.272 176.148L146.99 185.865Z" fill="#663741"/>
<path d="M139.889 180.153L144.352 175.69L125.925 157.263L121.462 161.725L139.889 180.153Z" fill="#954842"/>
<path d="M139.766 183.084L147.283 175.567L144.403 172.688L136.886 180.204L139.766 183.084Z" fill="#934B3C"/>
<path d="M149.793 192.845C151.795 194.848 155.042 194.848 157.044 192.845C159.047 190.843 159.047 187.596 157.044 185.594L152.91 181.46C150.908 179.458 147.662 179.458 145.659 181.46C143.657 183.463 143.657 186.709 145.659 188.712L149.793 192.845Z" fill="#914640"/>
<path d="M153.618 189.759C154.467 190.608 155.844 190.608 156.693 189.758C157.542 188.909 157.542 187.533 156.693 186.684L154.94 184.931C154.091 184.082 152.714 184.082 151.865 184.931C151.016 185.78 151.016 187.157 151.865 188.006L153.618 189.759Z" fill="#9B5653"/>
<path d="M160.365 157.922V153.574H146.623V157.922H160.365Z" fill="#663741"/>
<path d="M151.305 158.904V152.592H125.245V158.904H151.305Z" fill="#954842"/>
<path d="M153.29 161.063V150.433H149.218V161.063H153.29Z" fill="#934B3C"/>
<path d="M167.283 160.875C170.115 160.875 172.411 158.58 172.411 155.748C172.411 152.916 170.115 150.621 167.283 150.621H161.437C158.605 150.621 156.31 152.916 156.31 155.748C156.31 158.58 158.605 160.875 161.437 160.875H167.283Z" fill="#914640"/>
<path d="M167.805 155.988C169.006 155.988 169.979 155.014 169.979 153.814C169.979 152.613 169.006 151.64 167.805 151.64H165.326C164.126 151.64 163.152 152.613 163.152 153.814C163.152 155.014 164.126 155.988 165.326 155.988H167.805Z" fill="#9B5653"/>
<path d="M150.064 128.705L146.99 125.63L137.272 135.348L140.347 138.423L150.064 128.705Z" fill="#663741"/>
<path d="M144.352 135.806L139.889 131.343L121.462 149.77L125.924 154.233L144.352 135.806Z" fill="#954842"/>
<path d="M147.282 135.929L139.766 128.412L136.886 131.291L144.403 138.808L147.282 135.929Z" fill="#934B3C"/>
<path d="M157.044 125.902C159.046 123.899 159.046 120.653 157.044 118.651C155.042 116.648 151.795 116.648 149.793 118.651L145.659 122.784C143.657 124.787 143.657 128.033 145.659 130.035C147.661 132.038 150.908 132.038 152.91 130.035L157.044 125.902Z" fill="#914640"/>
<path d="M153.957 122.076C154.806 121.227 154.806 119.851 153.957 119.002C153.108 118.153 151.732 118.153 150.883 119.002L149.13 120.754C148.281 121.603 148.281 122.98 149.13 123.829C149.979 124.678 151.356 124.678 152.205 123.829L153.957 122.076Z" fill="#9B5653"/>
<path d="M119.947 178.953C132.763 178.953 143.152 168.563 143.152 155.748C143.152 142.932 132.763 132.542 119.947 132.542C107.131 132.542 96.7416 142.932 96.7416 155.748C96.7416 168.563 107.131 178.953 119.947 178.953Z" stroke="#BB6647" stroke-width="5.78551" stroke-miterlimit="10"/>
<path d="M119.947 165.525C125.347 165.525 129.724 161.148 129.724 155.748C129.724 150.348 125.347 145.971 119.947 145.971C114.547 145.971 110.169 150.348 110.169 155.748C110.169 161.148 114.547 165.525 119.947 165.525Z" fill="#603638"/>
<path d="M39.9635 216.791C39.9676 216.952 39.9738 217.122 39.9826 217.299C40.519 228.138 49.5531 236.614 60.4046 236.711L114.162 237.191C115.425 237.202 116.477 236.228 116.563 234.968L118.205 210.829C118.294 209.532 117.332 208.403 116.038 208.29C108.45 207.632 82.5266 206.358 41.8847 214.404C40.7508 214.628 39.9343 215.635 39.9635 216.791Z" fill="#6D3A3F"/>
<path d="M36.7961 204.961L37.5941 214.47C37.7102 215.854 38.973 216.846 40.3436 216.627C48.4828 215.328 75.5631 211.569 111.705 212.478C113.013 212.511 114.108 211.49 114.156 210.182L114.757 193.805C114.808 192.427 113.684 191.294 112.306 191.333C102.465 191.611 66.0674 193.245 38.4002 202.502C37.3625 202.85 36.7045 203.87 36.7961 204.961Z" fill="#8F4A43"/>
<path d="M41.6944 186.993L42.7272 182.469C43.1119 180.784 44.3758 179.44 46.0343 178.953C56.1806 175.974 92.69 165.687 114.543 165.229C115.887 165.2 116.996 166.269 116.996 167.614V176.257C116.996 177.429 116.144 178.428 114.986 178.613L44.3961 189.88C42.7273 190.146 41.3182 188.641 41.6944 186.993Z" fill="#494949"/>
<path d="M37.5336 190.042L34.8909 200.481C34.4602 202.182 35.9519 203.751 37.6724 203.405C49.5548 201.017 87.377 193.778 113.37 192.911C114.654 192.868 115.669 191.814 115.669 190.529V176.557C115.669 175.143 114.45 174.038 113.044 174.183C103.225 175.194 67.7582 179.294 39.1224 188.35C38.3347 188.599 37.7364 189.241 37.5336 190.042Z" fill="#C7694D"/>
<path d="M200.344 216.791C200.34 216.952 200.334 217.122 200.325 217.299C199.789 228.138 190.755 236.614 179.903 236.711L126.146 237.191C124.883 237.202 123.83 236.228 123.745 234.968L122.103 210.829C122.014 209.532 122.976 208.403 124.27 208.29C131.858 207.632 157.781 206.358 198.423 214.404C199.557 214.628 200.374 215.635 200.344 216.791Z" fill="#6D3A3F"/>
<path d="M203.512 204.961L202.714 214.47C202.598 215.854 201.335 216.846 199.964 216.627C191.825 215.328 164.745 211.569 128.603 212.478C127.295 212.511 126.2 211.49 126.152 210.182L125.551 193.805C125.5 192.427 126.624 191.294 128.002 191.333C137.843 191.611 174.241 193.245 201.908 202.502C202.946 202.85 203.603 203.87 203.512 204.961Z" fill="#8F4A43"/>
<path d="M198.614 186.993L197.581 182.469C197.196 180.784 195.932 179.44 194.274 178.953C184.127 175.974 147.618 165.687 125.765 165.229C124.421 165.2 123.312 166.269 123.312 167.614V176.257C123.312 177.429 124.164 178.428 125.322 178.613L195.912 189.88C197.581 190.146 198.99 188.641 198.614 186.993Z" fill="#494949"/>
<path d="M202.774 190.042L205.417 200.481C205.848 202.182 204.356 203.751 202.636 203.405C190.753 201.017 152.931 193.778 126.938 192.911C125.654 192.868 124.639 191.814 124.639 190.529V176.557C124.639 175.143 125.857 174.038 127.264 174.183C137.083 175.194 172.55 179.294 201.186 188.35C201.973 188.599 202.572 189.241 202.774 190.042Z" fill="#C7694D"/>
<path d="M129.992 239.723H109.901L101.933 163.63C104.175 161.335 111.617 160.077 113.859 157.782H126.034C128.276 160.077 135.718 161.335 137.96 163.63L129.992 239.723Z" fill="#CE7A59"/>
<path d="M123.869 239.65H116.025L113.164 157.645C113.03 153.807 116.106 150.622 119.947 150.622C123.788 150.622 126.864 153.807 126.73 157.645L123.869 239.65Z" fill="#D58661"/>
<path d="M25.9218 240C28.8362 236.473 32.9585 239.391 36.7424 238.335C40.9412 237.165 42.6252 232.601 47.8133 232.759C50.0675 232.83 52.2837 233.697 54.4207 234.325C57.2179 235.144 59.5666 234.357 62.1876 233.348C66.4185 231.72 70.4841 229.236 75.0692 228.735C79.3963 228.263 82.9904 229.747 86.1032 232.523C91.4422 228.615 97.1791 227.413 103.653 229.774C110.773 232.371 116.821 237.212 124.647 237.654C125.621 237.654 126.089 238.433 126.058 239.189C126.06 239.479 125.987 239.762 125.841 240L25.9218 240Z" fill="white"/>
<path d="M215.078 240C212.164 236.473 208.041 239.391 204.257 238.335C200.059 237.165 198.375 232.601 193.186 232.759C190.932 232.83 188.716 233.697 186.579 234.325C183.782 235.144 181.433 234.357 178.812 233.348C174.581 231.72 170.516 229.236 165.931 228.735C161.603 228.263 158.009 229.747 154.897 232.523C149.558 228.615 143.821 227.413 137.346 229.774C130.227 232.371 124.179 237.212 116.353 237.654C115.379 237.654 114.911 238.433 114.941 239.189C114.94 239.479 115.013 239.762 115.159 240L215.078 240Z" fill="white"/>
<path d="M118.662 1.06129L112.305 12.0709C111.416 13.6121 112.528 15.5387 114.307 15.5387H126.692C128.472 15.5387 129.584 13.6121 128.695 12.0709L122.338 1.06129C121.521 -0.353763 119.479 -0.353763 118.662 1.06129Z" fill="#DFA365"/>
<path d="M59.946 39.665C59.946 39.665 93.5239 43.1645 126.448 16.0718" stroke="#8B673A" stroke-width="3.72499" stroke-miterlimit="10"/>
<path d="M114.352 16.0718C114.352 16.0718 138.263 36.0556 179.358 37.9712" stroke="#77532C" stroke-width="3.72499" stroke-miterlimit="10"/>
<path d="M113.26 19.4057C113.26 19.4057 117.836 20.3341 127.689 16.0718" stroke="#8B673A" stroke-width="3.72499" stroke-miterlimit="10"/>
<path d="M62.7184 34.423L58.8052 34.7295L59.8436 47.9866L63.7569 47.68L62.7184 34.423Z" fill="#8B673A"/>
<path d="M180.244 33.7758L176.335 33.4204L175.131 46.6635L179.041 47.0189L180.244 33.7758Z" fill="#8B673A"/>
</g>
<defs>
<clipPath id="clip0_5910_2614">
<rect width="189.156" height="240" fill="white" transform="translate(25.9218)"/>
</clipPath>
</defs>
</svg>
