<svg width="1280" height="125" viewBox="0 0 1280 125" fill="none" xmlns="http://www.w3.org/2000/svg">
<g clip-path="url(#clip0_6365_2020)">
<path d="M1280 84.7506C1198.31 64.3529 1098.6 47.8666 986.708 36.6463L980.38 27.752C977.951 24.3375 974.383 21.905 970.32 20.9591C932.509 12.156 858.975 9.25394 839.117 8.6137C835.833 8.5078 832.592 9.35009 829.766 11.0393L808.357 23.8383C779.798 22.5469 750.741 21.5778 721.257 20.9479L714.34 10.868C711.674 6.98255 707.401 4.52717 702.724 4.19335L653.177 0.657195C648.616 0.331675 644.149 2.05446 640.973 5.36906C637.007 9.50934 631.456 15.366 627.197 20.1043C579.652 20.2625 533.03 21.3006 487.618 23.1507L469.081 6.88826C465.382 3.64329 460.531 2.05559 455.645 2.49104L381.765 9.07486C377.161 9.48508 372.892 11.6568 369.834 15.1471C366.022 19.4965 360.579 25.723 356.003 31.0171C218.557 41.9565 96.6629 60.6158 0 84.7519V124.618H1280V84.7506Z" fill="#2F4673"/>
<path d="M1135.57 69.3541C1131.29 48.9929 1129.53 29.7329 1117.3 27.8611C1105.06 25.9892 1105.06 27.5491 1092.83 35.8165C1080.6 44.0839 1071.16 65.4544 1078.9 72.9418C1086.64 80.4293 1138.31 82.4075 1135.57 69.3541Z" fill="#1B325E"/>
<path d="M168.82 59.6194C179.952 42.7726 183.874 36.741 193.165 31.5414C202.455 26.3418 218.145 30.5015 226.61 40.2768C235.074 50.052 253.448 57.1235 257.165 62.7392C260.881 68.3547 264.597 82.9138 254.481 85.2016C244.365 87.4894 195.642 98.9286 181.603 87.4894C167.565 76.0503 168.82 59.6194 168.82 59.6194Z" fill="#1B325E"/>
<path d="M366.348 65.498C345.122 70.3543 333.832 77.8211 343.432 82.9687C353.032 88.1163 396.852 87.0244 399.329 76.1052C401.806 65.186 378.682 62.6761 366.348 65.498Z" fill="#293F6B"/>
<path d="M427.922 79.5117C416.161 82.269 411.587 89.8069 421.884 92.4587C432.181 95.1105 448.284 91.0549 447.51 85.9852C446.735 80.9155 440.232 76.6259 427.922 79.5117Z" fill="#293F6B"/>
<path d="M991.352 63.2179C958.796 66.4357 940.569 75.4288 953.921 84.9236C967.273 94.4184 1032.81 101.096 1038.55 85.2846C1044.28 69.4733 1010.27 61.3481 991.352 63.2179Z" fill="#293F6B"/>
<path d="M1109.09 48.7637C1106.37 56.4845 1099.25 68.5697 1098.25 78.302C1115.56 80.0292 1137.37 77.9553 1135.57 69.3542C1132.95 56.8638 1131.26 44.7953 1127.54 36.8936C1117.83 38.3539 1112.49 39.1249 1109.09 48.7637Z" fill="#152B53"/>
<path d="M194.61 91.8567C189.842 62.0751 174.171 53.7955 165.913 55.4593C157.655 57.1232 139.487 87.489 143.616 91.8567C147.745 96.2244 195.642 98.3043 194.61 91.8567Z" fill="#12264C"/>
</g>
<defs>
<clipPath id="clip0_6365_2020">
<rect width="1280" height="124" fill="white" transform="translate(0 0.618164)"/>
</clipPath>
</defs>
</svg>
