<svg width="2640" height="240" viewBox="0 0 2640 240" fill="none" xmlns="http://www.w3.org/2000/svg">
<path opacity="0.3" d="M120 232C181.856 232 232 181.856 232 120C232 58.1441 181.856 8 120 8C58.1441 8 8 58.1441 8 120C8 181.856 58.1441 232 120 232Z" fill="#FF525D"/>
<path d="M143.568 184.101C138.935 183.25 135.034 181.704 131.87 179.462C128.705 177.231 126.579 174.448 125.502 171.127C125.13 169.912 125.011 168.891 125.147 168.062C125.437 166.292 126.402 165.017 128.062 164.239C129.715 163.461 131.331 163.201 132.914 163.46C133.935 163.627 134.836 163.96 135.609 164.471C136.388 164.983 136.883 165.728 137.106 166.72C138.186 170.625 141.046 172.946 145.698 173.706C148.116 174.102 150.26 173.672 152.139 172.406C154.014 171.128 155.147 169.332 155.525 167.017C156.407 161.627 153.064 158.447 145.482 157.498C143.794 157.315 142.521 156.653 141.659 155.51C140.792 154.366 140.491 153 140.749 151.423C141.007 149.845 141.701 148.666 142.829 147.895C143.955 147.135 145.264 146.86 146.757 147.104C150.099 147.65 152.522 147.58 154.025 146.871C155.522 146.16 156.464 144.636 156.845 142.31C157.147 140.46 156.764 138.988 155.706 137.906C154.642 136.823 153.319 136.152 151.736 135.893C150.249 135.65 148.754 135.744 147.253 136.162C145.755 136.593 144.485 137.341 143.454 138.408C142.649 139.231 141.804 139.734 140.91 139.926C140.023 140.119 139.111 140.133 138.187 139.981C136.603 139.723 135.265 139.003 134.17 137.822C133.076 136.641 132.656 135.255 132.914 133.678C133.019 133.031 133.269 132.396 133.653 131.794C135.625 129.064 138.393 127.175 141.953 126.137C145.508 125.099 149.286 124.901 153.287 125.555C158.768 126.452 162.956 128.593 165.834 131.976C168.718 135.361 169.781 139.368 169.021 144.021C168.306 148.39 165.986 151.786 162.061 154.197C164.281 155.795 165.933 157.953 167.017 160.658C168.101 163.364 168.423 166.062 167.981 168.763C167.053 174.437 164.331 178.687 159.812 181.525C155.286 184.374 149.874 185.225 143.568 184.101Z" fill="#FF525D"/>
<path d="M129.121 102.235C127.485 101.811 126.202 100.849 125.274 99.3381C124.35 97.8397 124.092 96.3119 124.496 94.7534L133.881 58.508C134.21 57.2389 133.743 56.7735 132.487 57.1254L129.667 57.8561C129.256 57.9517 128.86 57.9679 128.487 57.9188C128.108 57.8682 127.735 57.7953 127.373 57.7016C125.642 57.2533 124.375 56.3195 123.576 54.889C122.779 53.4711 122.6 51.8923 123.049 50.1558C123.663 47.7846 125.39 46.3907 128.225 45.9488L139.859 44.4359C141.158 44.2851 142.267 44.3348 143.18 44.5712C145.278 45.1145 146.823 46.1915 147.816 47.8147C148.804 49.4364 149.031 51.2888 148.486 53.3927L136.73 98.2182C136.303 99.8657 135.39 101.055 133.975 101.817C132.563 102.568 130.947 102.708 129.121 102.235Z" fill="#FF525D"/>
<path d="M62.7199 154.05C60.9261 154.05 59.3967 153.441 58.1261 152.222C56.8554 150.992 56.2172 149.485 56.2172 147.691C56.2172 145.53 57.1602 143.552 59.046 141.758L70.2058 131.443C74.3512 127.58 77.226 124.406 78.8243 121.911C80.4284 119.415 81.2277 116.897 81.2277 114.344C81.2277 112.182 80.5952 110.446 79.3188 109.124C78.0482 107.801 76.3291 107.146 74.1615 107.146C72.0916 107.146 70.3956 107.755 69.0789 108.974C67.7566 110.205 66.8653 111.849 66.3939 113.919C66.1122 115.333 65.428 116.495 64.3413 117.391C63.2604 118.288 61.915 118.725 60.3167 118.725C58.6205 118.725 57.2062 118.162 56.0793 117.035C54.9466 115.908 54.4291 114.54 54.5212 112.93C54.7109 107.939 56.7117 103.869 60.5294 100.718C64.3413 97.5556 69.1249 95.9802 74.8687 95.9802C80.7102 95.9802 85.3501 97.6476 88.7883 100.994C92.2265 104.34 93.9456 108.652 93.9456 113.919C93.9456 117.219 93.1177 120.358 91.4733 123.325C89.8232 126.292 87.3509 129.419 84.0564 132.72L76.1451 140.631C74.633 142.137 74.9607 142.896 77.1341 142.896L89.99 142.609C91.8758 142.517 93.3822 143.011 94.5091 144.092C95.6418 145.173 96.2052 146.61 96.2052 148.404C96.2052 150.095 95.6878 151.463 94.6528 152.498C93.6178 153.533 92.2495 154.05 90.5534 154.05L62.7199 154.05Z" fill="#FF525D"/>
<path opacity="0.1" d="M37.9053 120C37.9053 85.4668 59.2276 55.9136 89.4253 43.7876" stroke="white" stroke-width="25.2" stroke-linecap="round" stroke-linejoin="round"/>
<path opacity="0.1" d="M47.361 158.287C46.2729 156.227 45.2698 154.114 44.3564 151.955" stroke="white" stroke-width="25.2" stroke-linecap="round" stroke-linejoin="round"/>
<path opacity="0.3" d="M194.797 99.2681C194.797 99.8329 194.455 100.342 193.927 100.546L185.769 103.676C182.899 104.777 180.649 107.074 179.594 109.972L176.492 118.518C176.47 118.582 176.421 118.627 176.389 118.685C176.363 118.732 176.337 118.779 176.305 118.822C176.255 118.888 176.205 118.947 176.143 119C176.048 119.086 175.943 119.16 175.825 119.212C175.751 119.24 175.677 119.268 175.603 119.277C175.529 119.296 175.455 119.305 175.381 119.305L175.14 119.277C175.066 119.268 174.992 119.24 174.918 119.212C174.796 119.159 174.688 119.083 174.592 118.995C174.532 118.944 174.484 118.886 174.435 118.823C174.407 118.786 174.385 118.746 174.361 118.706C174.322 118.642 174.268 118.59 174.242 118.518L171.14 109.972C170.094 107.074 167.844 104.777 164.973 103.676L156.816 100.546C156.288 100.342 155.937 99.8331 155.937 99.2682C155.937 98.6757 156.325 98.1479 156.89 97.972L164.353 95.6202C167.585 94.6017 170.131 92.1018 171.223 88.8981L174.26 79.9261C174.297 79.8243 174.344 79.7316 174.399 79.6483C174.436 79.5928 174.473 79.5373 174.529 79.4909C174.64 79.3706 174.779 79.278 174.945 79.2131C174.992 79.1947 175.047 79.1762 175.103 79.1668C175.186 79.1391 175.279 79.1299 175.371 79.1299C175.464 79.1299 175.556 79.1391 175.64 79.1668C175.695 79.1761 175.751 79.1947 175.797 79.2131C175.945 79.2687 176.075 79.3614 176.186 79.4632C176.233 79.5095 176.269 79.5558 176.307 79.6021C176.381 79.7039 176.445 79.8057 176.482 79.9261L179.519 88.8981C180.603 92.1018 183.158 94.6017 186.38 95.6202L193.843 97.972C194.417 98.1479 194.797 98.6756 194.797 99.2681Z" fill="#FF525D"/>
<path opacity="0.3" d="M104.465 183.445C104.465 183.882 104.2 184.276 103.791 184.434L97.477 186.856C95.2553 187.709 93.5137 189.487 92.6967 191.73L90.2958 198.345C90.2788 198.394 90.2411 198.43 90.2162 198.474C90.1956 198.511 90.176 198.547 90.1508 198.581C90.1121 198.632 90.0737 198.677 90.0256 198.719C89.9517 198.785 89.8705 198.842 89.7797 198.883C89.7222 198.904 89.6649 198.926 89.6076 198.933C89.5504 198.947 89.493 198.954 89.4357 198.954L89.2493 198.933C89.192 198.926 89.1346 198.904 89.0773 198.883C88.9827 198.842 88.9 198.782 88.8249 198.715C88.7786 198.675 88.7416 198.63 88.7036 198.581C88.6821 198.552 88.6645 198.522 88.6465 198.491C88.6164 198.441 88.5748 198.401 88.5541 198.345L86.1532 191.73C85.3433 189.487 83.6016 187.709 81.3798 186.856L75.0657 184.434C74.6571 184.276 74.3848 183.882 74.3848 183.445C74.3848 182.986 74.6859 182.577 75.123 182.441L80.8996 180.621C83.4009 179.832 85.3719 177.897 86.2176 175.418L88.5684 168.473C88.597 168.394 88.6328 168.322 88.6759 168.258C88.7045 168.215 88.7332 168.172 88.7762 168.136C88.8621 168.043 88.9696 167.971 89.0987 167.921C89.1345 167.906 89.1775 167.892 89.2206 167.885C89.2851 167.863 89.3567 167.856 89.4284 167.856C89.5001 167.856 89.5718 167.863 89.6363 167.885C89.6793 167.892 89.7221 167.906 89.758 167.921C89.8727 167.964 89.973 168.035 90.0591 168.114C90.0949 168.15 90.1236 168.186 90.1522 168.222C90.2095 168.301 90.2597 168.379 90.2884 168.473L92.6392 175.418C93.4777 177.897 95.4559 179.832 97.95 180.621L103.727 182.441C104.171 182.577 104.465 182.986 104.465 183.445Z" fill="#FF525D"/>
<path opacity="0.3" d="M97.1804 79.1596C97.1804 79.4909 96.9795 79.7896 96.6699 79.9092L91.8848 81.745C90.201 82.3913 88.8812 83.7383 88.2621 85.4383L86.4426 90.4514C86.4297 90.4889 86.4012 90.5155 86.3823 90.5494C86.3667 90.5772 86.3518 90.6045 86.3327 90.6299C86.3033 90.6686 86.2743 90.7033 86.2378 90.7345C86.1819 90.7846 86.1203 90.8281 86.0515 90.8586C86.008 90.875 85.9645 90.8912 85.921 90.8966C85.8776 90.9074 85.8342 90.9129 85.7907 90.9129L85.6495 90.8966C85.606 90.8912 85.5626 90.8749 85.5191 90.8586C85.4475 90.8275 85.3847 90.7827 85.3279 90.7315C85.2928 90.7011 85.2647 90.6673 85.236 90.63C85.2196 90.6083 85.2064 90.5853 85.1927 90.5617C85.1699 90.5241 85.1384 90.4936 85.1227 90.4513L83.3031 85.4382C82.6894 83.7382 81.3695 82.3912 79.6858 81.7449L74.9008 79.9091C74.5912 79.7896 74.3848 79.4909 74.3848 79.1595C74.3848 78.8119 74.6129 78.5024 74.9443 78.3992L79.3219 77.0196C81.2174 76.4222 82.7111 74.9556 83.352 73.0765L85.1335 67.8135C85.1552 67.7537 85.1824 67.6994 85.215 67.6506C85.2367 67.618 85.2585 67.5855 85.291 67.5582C85.3562 67.4877 85.4377 67.4333 85.5354 67.3953C85.5626 67.3845 85.5951 67.3736 85.6277 67.3682C85.6766 67.3518 85.7309 67.3464 85.7852 67.3464C85.8396 67.3464 85.8939 67.3518 85.9428 67.3682C85.9754 67.3736 86.0079 67.3845 86.0351 67.3953C86.122 67.4279 86.1981 67.4822 86.2632 67.542C86.2904 67.5691 86.3121 67.5962 86.3339 67.6234C86.3773 67.6831 86.4153 67.7429 86.4371 67.8135L88.2185 73.0765C88.854 74.9557 90.3531 76.4222 92.2432 77.0196L96.6209 78.3992C96.9576 78.5024 97.1804 78.812 97.1804 79.1596Z" fill="#FF525D"/>
<path opacity="0.3" d="M360 232C421.856 232 472 181.856 472 120C472 58.1441 421.856 8 360 8C298.144 8 248 58.1441 248 120C248 181.856 298.144 232 360 232Z" fill="#FF9700"/>
<path opacity="0.1" d="M277.905 120C277.905 85.4668 299.228 55.9136 329.425 43.7876" stroke="white" stroke-width="23.52" stroke-linecap="round" stroke-linejoin="round"/>
<path opacity="0.1" d="M287.361 158.287C286.273 156.227 285.27 154.115 284.356 151.955" stroke="white" stroke-width="23.52" stroke-linecap="round" stroke-linejoin="round"/>
<path d="M366.583 61.3796H353.436V72.7221H366.583V61.3796Z" fill="#FFB95C"/>
<path d="M371.351 62.7975H348.666C345.997 62.7975 343.833 60.6335 343.833 57.9641C343.833 55.2946 345.997 53.1306 348.666 53.1306H371.351C374.021 53.1306 376.185 55.2946 376.185 57.9641C376.185 60.6335 374.021 62.7975 371.351 62.7975Z" fill="#FF9700"/>
<path d="M405.434 84.8868L400.725 80.1775L396.662 84.2405L401.371 88.9498L405.434 84.8868Z" fill="#FFB95C"/>
<path d="M406.635 87.1029L398.509 78.977C397.553 78.0208 397.553 76.4706 398.509 75.5143C399.465 74.5581 401.016 74.5581 401.972 75.5143L410.098 83.6401C411.054 84.5963 411.054 86.1467 410.098 87.1029C409.142 88.0591 407.591 88.0591 406.635 87.1029Z" fill="#FF9700"/>
<path d="M318.646 88.9498L323.355 84.2405L319.293 80.1775L314.583 84.8868L318.646 88.9498Z" fill="#FFB95C"/>
<path d="M313.383 87.1029L321.509 78.977C322.465 78.0208 322.465 76.4706 321.509 75.5143C320.553 74.5581 319.002 74.5581 318.046 75.5143L309.92 83.6401C308.964 84.5963 308.964 86.1467 309.92 87.1029C310.876 88.0591 312.427 88.0591 313.383 87.1029Z" fill="#FF9700"/>
<path d="M360.009 175.836C388.198 175.836 411.05 152.984 411.05 124.795C411.05 96.6053 388.198 73.7534 360.009 73.7534C331.82 73.7534 308.968 96.6053 308.968 124.795C308.968 152.984 331.82 175.836 360.009 175.836Z" fill="white"/>
<path d="M360.009 73.7534V124.794L405.343 98.6319C405.343 98.6319 384.276 71.6886 360.009 73.7534Z" fill="#FFEACF"/>
<path d="M386.353 170.897L360.009 124.795H308.968C308.968 124.795 305.753 190.02 386.353 170.897Z" fill="#FFEACF"/>
<path d="M360.009 175.836C388.198 175.836 411.05 152.984 411.05 124.795C411.05 96.6053 388.198 73.7534 360.009 73.7534C331.82 73.7534 308.968 96.6053 308.968 124.795C308.968 152.984 331.82 175.836 360.009 175.836Z" stroke="#FF9700" stroke-width="8.84343" stroke-miterlimit="10"/>
<path d="M360.009 83.5491V92.0559" stroke="#FF9700" stroke-width="2.04083" stroke-miterlimit="10" stroke-linecap="round"/>
<path d="M339.387 89.075L343.64 96.4421" stroke="#FF9700" stroke-width="2.04083" stroke-miterlimit="10" stroke-linecap="round"/>
<path d="M324.29 104.172L331.657 108.425" stroke="#FF9700" stroke-width="2.04083" stroke-miterlimit="10" stroke-linecap="round"/>
<path d="M318.764 124.794H327.271" stroke="#FF9700" stroke-width="2.04083" stroke-miterlimit="10" stroke-linecap="round"/>
<path d="M324.29 145.417L331.657 141.164" stroke="#FF9700" stroke-width="2.04083" stroke-miterlimit="10" stroke-linecap="round"/>
<path d="M339.387 160.514L343.64 153.147" stroke="#FF9700" stroke-width="2.04083" stroke-miterlimit="10" stroke-linecap="round"/>
<path d="M360.009 166.04V157.533" stroke="#FF9700" stroke-width="2.04083" stroke-miterlimit="10" stroke-linecap="round"/>
<path d="M380.631 160.514L376.378 153.147" stroke="#FF9700" stroke-width="2.04083" stroke-miterlimit="10" stroke-linecap="round"/>
<path d="M395.729 145.417L388.361 141.164" stroke="#FF9700" stroke-width="2.04083" stroke-miterlimit="10" stroke-linecap="round"/>
<path d="M401.255 124.794H392.748" stroke="#FF9700" stroke-width="2.04083" stroke-miterlimit="10" stroke-linecap="round"/>
<path d="M395.729 104.172L388.361 108.425" stroke="#FF9700" stroke-width="2.04083" stroke-miterlimit="10" stroke-linecap="round"/>
<path d="M380.631 89.075L376.378 96.4421" stroke="#FF9700" stroke-width="2.04083" stroke-miterlimit="10" stroke-linecap="round"/>
<path d="M357.969 124.794L359.723 96.6022C359.733 96.4443 359.869 96.3242 360.027 96.3341C360.173 96.3431 360.287 96.46 360.295 96.6022L362.05 124.794C362.12 125.921 361.263 126.892 360.136 126.962C359.009 127.032 358.039 126.176 357.968 125.048C357.963 124.967 357.964 124.874 357.969 124.794Z" fill="#FFA617"/>
<path d="M363.902 124.794C363.902 126.944 362.159 128.687 360.009 128.687C357.859 128.687 356.116 126.944 356.116 124.794C356.116 122.644 357.859 120.901 360.009 120.901C362.159 120.901 363.902 122.644 363.902 124.794Z" fill="#FF9700"/>
<path opacity="0.3" d="M320.151 187.393C320.151 187.774 319.92 188.117 319.564 188.255L314.065 190.364C312.13 191.107 310.613 192.655 309.901 194.609L307.81 200.371C307.795 200.414 307.763 200.445 307.741 200.483C307.723 200.516 307.706 200.547 307.684 200.576C307.65 200.62 307.617 200.66 307.575 200.696C307.511 200.754 307.44 200.804 307.361 200.839C307.311 200.858 307.261 200.876 307.211 200.883C307.161 200.895 307.111 200.901 307.061 200.901L306.899 200.883C306.849 200.876 306.799 200.858 306.749 200.839C306.667 200.803 306.594 200.752 306.529 200.693C306.489 200.658 306.457 200.619 306.424 200.576C306.405 200.551 306.389 200.525 306.374 200.498C306.348 200.455 306.311 200.419 306.293 200.371L304.202 194.609C303.497 192.655 301.98 191.107 300.045 190.364L294.545 188.254C294.189 188.117 293.952 187.774 293.952 187.393C293.952 186.993 294.214 186.638 294.595 186.519L299.626 184.934C301.805 184.247 303.522 182.561 304.258 180.402L306.306 174.353C306.331 174.284 306.362 174.222 306.399 174.166C306.424 174.128 306.449 174.091 306.487 174.059C306.562 173.978 306.655 173.916 306.768 173.872C306.799 173.86 306.836 173.847 306.874 173.841C306.93 173.822 306.992 173.816 307.055 173.816C307.117 173.816 307.18 173.822 307.236 173.841C307.273 173.847 307.311 173.86 307.342 173.872C307.442 173.91 307.529 173.972 307.604 174.041C307.635 174.072 307.66 174.103 307.685 174.135C307.735 174.203 307.779 174.272 307.804 174.353L309.852 180.402C310.582 182.562 312.305 184.247 314.477 184.934L319.508 186.519C319.896 186.638 320.151 186.994 320.151 187.393Z" fill="#FF9700"/>
<path opacity="0.3" d="M438.871 178.118C438.871 178.715 438.508 179.253 437.951 179.469L429.328 182.777C426.294 183.942 423.915 186.369 422.799 189.433L419.521 198.467C419.497 198.534 419.446 198.582 419.412 198.643C419.384 198.693 419.357 198.743 419.323 198.788C419.27 198.858 419.217 198.92 419.152 198.977C419.051 199.067 418.94 199.146 418.816 199.201C418.737 199.23 418.659 199.259 418.581 199.269C418.503 199.289 418.424 199.298 418.346 199.298L418.091 199.269C418.013 199.259 417.935 199.23 417.856 199.201C417.727 199.145 417.614 199.064 417.512 198.971C417.449 198.917 417.398 198.856 417.346 198.789C417.317 198.749 417.293 198.708 417.268 198.666C417.227 198.598 417.17 198.543 417.142 198.467L413.863 189.433C412.757 186.369 410.379 183.942 407.345 182.777L398.722 179.469C398.164 179.253 397.792 178.715 397.792 178.118C397.792 177.492 398.203 176.934 398.8 176.748L406.689 174.262C410.105 173.185 412.796 170.543 413.951 167.156L417.161 157.672C417.201 157.564 417.25 157.466 417.308 157.378C417.347 157.32 417.387 157.261 417.445 157.212C417.563 157.085 417.71 156.987 417.886 156.918C417.935 156.899 417.993 156.879 418.052 156.869C418.14 156.84 418.238 156.83 418.336 156.83C418.434 156.83 418.532 156.84 418.62 156.869C418.678 156.879 418.737 156.899 418.786 156.918C418.943 156.977 419.08 157.075 419.197 157.183C419.246 157.232 419.285 157.28 419.324 157.329C419.403 157.437 419.471 157.545 419.51 157.672L422.721 167.156C423.866 170.543 426.567 173.185 429.973 174.262L437.862 176.748C438.469 176.934 438.871 177.492 438.871 178.118Z" fill="#FF9700"/>
<path opacity="0.3" d="M401.393 37.621C401.393 38.0582 401.128 38.4524 400.719 38.6101L394.405 41.0325C392.183 41.8854 390.441 43.6628 389.624 45.9061L387.224 52.5213C387.207 52.5708 387.169 52.6059 387.144 52.6507C387.123 52.6874 387.104 52.7235 387.079 52.757C387.04 52.8079 387.001 52.8538 386.953 52.8949C386.879 52.961 386.798 53.0185 386.707 53.0588C386.65 53.0805 386.593 53.1018 386.535 53.109C386.478 53.1234 386.421 53.1305 386.363 53.1305L386.177 53.109C386.12 53.1018 386.062 53.0805 386.005 53.0588C385.91 53.0178 385.828 52.9587 385.753 52.891C385.706 52.851 385.669 52.8062 385.631 52.7572C385.61 52.7285 385.592 52.6982 385.574 52.667C385.544 52.6173 385.503 52.577 385.482 52.5213L383.081 45.9061C382.271 43.6628 380.529 41.8854 378.308 41.0325L371.993 38.6101C371.585 38.4523 371.312 38.0581 371.312 37.621C371.312 37.1623 371.614 36.7538 372.051 36.6176L377.827 34.7971C380.329 34.0087 382.3 32.0736 383.145 29.5938L385.496 22.6488C385.525 22.57 385.561 22.4983 385.604 22.4339C385.632 22.3909 385.661 22.3478 385.704 22.3119C385.79 22.2189 385.897 22.1472 386.026 22.097C386.062 22.0826 386.105 22.0683 386.148 22.0611C386.213 22.0397 386.284 22.0325 386.356 22.0325C386.428 22.0325 386.5 22.0397 386.564 22.0611C386.607 22.0683 386.65 22.0826 386.686 22.097C386.8 22.14 386.901 22.2117 386.987 22.2905C387.023 22.3264 387.051 22.3621 387.08 22.3981C387.137 22.4768 387.187 22.5556 387.216 22.6488L389.567 29.5938C390.405 32.0736 392.384 34.0087 394.878 34.7971L400.654 36.6176C401.099 36.7538 401.393 37.1623 401.393 37.621Z" fill="#FF9700"/>
<path opacity="0.3" d="M600 232C661.856 232 712 181.856 712 120C712 58.1441 661.856 8 600 8C538.144 8 488 58.1441 488 120C488 181.856 538.144 232 600 232Z" fill="#05B64D"/>
<path d="M613.693 108.021C629.903 108.021 643.043 94.88 643.043 78.6703C643.043 62.4606 629.903 49.3201 613.693 49.3201C597.483 49.3201 584.343 62.4606 584.343 78.6703C584.343 94.88 597.483 108.021 613.693 108.021Z" fill="#05B64D"/>
<path d="M548.078 102.486L525.808 149.606C523.912 153.618 527.07 158.178 531.492 157.814L583.434 153.541C587.856 153.177 590.227 148.162 587.7 144.514L558.028 101.668C555.502 98.0197 549.974 98.4745 548.078 102.486Z" fill="#05B64D"/>
<path d="M657.335 130.933L615.19 126.028C611.336 125.58 607.849 128.34 607.401 132.193L602.496 174.338C602.048 178.191 604.808 181.678 608.661 182.127L650.806 187.032C654.659 187.48 658.146 184.72 658.595 180.867L663.499 138.722C663.948 134.869 661.188 131.382 657.335 130.933Z" fill="#05B64D"/>
<path opacity="0.1" d="M517.905 120C517.905 85.4668 539.228 55.9136 569.425 43.7876" stroke="white" stroke-width="25.2" stroke-linecap="round" stroke-linejoin="round"/>
<path opacity="0.1" d="M527.361 158.287C526.273 156.227 525.27 154.114 524.356 151.955" stroke="white" stroke-width="25.2" stroke-linecap="round" stroke-linejoin="round"/>
<path opacity="0.3" d="M691.98 92.5964C691.98 93.1919 691.619 93.7289 691.062 93.9436L682.462 97.2431C679.436 98.4049 677.064 100.826 675.951 103.881L672.681 112.892C672.657 112.959 672.606 113.007 672.572 113.068C672.544 113.118 672.517 113.167 672.483 113.213C672.43 113.282 672.378 113.344 672.313 113.4C672.212 113.491 672.101 113.569 671.978 113.624C671.9 113.653 671.821 113.682 671.743 113.692C671.665 113.712 671.587 113.721 671.509 113.721L671.255 113.692C671.177 113.682 671.099 113.653 671.021 113.624C670.892 113.568 670.779 113.487 670.677 113.395C670.614 113.341 670.564 113.28 670.512 113.213C670.483 113.174 670.459 113.132 670.434 113.09C670.393 113.022 670.337 112.967 670.308 112.891L667.038 103.881C665.935 100.826 663.563 98.4047 660.537 97.243L651.936 93.9434C651.38 93.7286 651.009 93.1917 651.009 92.5963C651.009 91.9715 651.419 91.4151 652.014 91.2296L659.883 88.75C663.289 87.6762 665.974 85.0405 667.126 81.6628L670.328 72.2034C670.367 72.0961 670.416 71.9983 670.474 71.9105C670.513 71.8519 670.552 71.7934 670.611 71.7445C670.728 71.6176 670.875 71.52 671.05 71.4516C671.099 71.4321 671.158 71.4126 671.216 71.4028C671.304 71.3736 671.402 71.3638 671.499 71.3638C671.597 71.3638 671.695 71.3736 671.783 71.4028C671.841 71.4126 671.9 71.4321 671.948 71.4516C672.105 71.5102 672.241 71.6078 672.359 71.7152C672.407 71.764 672.446 71.8128 672.485 71.8616C672.564 71.9689 672.632 72.0764 672.671 72.2032L675.873 81.6626C677.015 85.0403 679.709 87.676 683.107 88.7498L690.975 91.2294C691.58 91.4148 691.98 91.9716 691.98 92.5964Z" fill="#05B64D"/>
<path opacity="0.3" d="M595.203 200.978C595.203 201.415 594.938 201.81 594.529 201.967L588.215 204.39C585.994 205.243 584.252 207.02 583.435 209.263L581.034 215.878C581.017 215.928 580.979 215.963 580.955 216.008C580.934 216.045 580.914 216.081 580.889 216.114C580.85 216.165 580.812 216.211 580.764 216.252C580.69 216.318 580.609 216.376 580.518 216.416C580.461 216.438 580.403 216.459 580.346 216.466C580.289 216.481 580.231 216.488 580.174 216.488L579.988 216.466C579.93 216.459 579.873 216.438 579.816 216.416C579.721 216.375 579.638 216.316 579.563 216.248C579.517 216.208 579.48 216.163 579.442 216.114C579.42 216.086 579.403 216.055 579.385 216.024C579.355 215.975 579.313 215.934 579.292 215.878L576.891 209.263C576.082 207.02 574.34 205.243 572.118 204.39L565.804 201.967C565.395 201.81 565.123 201.415 565.123 200.978C565.123 200.519 565.424 200.111 565.861 199.975L571.638 198.154C574.139 197.366 576.11 195.431 576.956 192.951L579.307 186.006C579.335 185.927 579.371 185.855 579.414 185.791C579.443 185.748 579.471 185.705 579.514 185.669C579.6 185.576 579.708 185.504 579.837 185.454C579.873 185.44 579.916 185.425 579.959 185.418C580.023 185.397 580.095 185.39 580.167 185.39C580.238 185.39 580.31 185.397 580.375 185.418C580.418 185.425 580.46 185.44 580.496 185.454C580.611 185.497 580.711 185.569 580.797 185.648C580.833 185.684 580.862 185.719 580.891 185.755C580.948 185.834 580.998 185.913 581.027 186.006L583.377 192.951C584.216 195.431 586.194 197.366 588.688 198.154L594.465 199.975C594.909 200.111 595.203 200.519 595.203 200.978Z" fill="#05B64D"/>
<path opacity="0.3" d="M555.868 73.5587C555.868 73.9134 555.653 74.2334 555.321 74.3613L550.198 76.3269C548.395 77.019 546.982 78.4612 546.319 80.2813L544.371 85.6488C544.357 85.6889 544.327 85.7175 544.307 85.7538C544.29 85.7835 544.274 85.8129 544.254 85.84C544.222 85.8814 544.191 85.9185 544.152 85.952C544.092 86.0056 544.026 86.0523 543.952 86.0849C543.906 86.1025 543.859 86.1198 543.813 86.1256C543.766 86.1373 543.72 86.1431 543.673 86.1431L543.522 86.1256C543.475 86.1198 543.429 86.1025 543.382 86.0849C543.306 86.0517 543.239 86.0037 543.178 85.9487C543.14 85.9163 543.11 85.88 543.079 85.8401C543.062 85.8169 543.048 85.7922 543.033 85.7669C543.009 85.7267 542.975 85.6939 542.958 85.6487L541.01 80.2812C540.353 78.461 538.939 77.0188 537.137 76.3268L532.013 74.3612C531.682 74.2333 531.461 73.9134 531.461 73.5587C531.461 73.1864 531.705 72.855 532.06 72.7445L536.747 71.2674C538.777 70.6277 540.376 69.0576 541.062 67.0455L542.969 61.4104C542.993 61.3465 543.022 61.2882 543.057 61.236C543.08 61.2011 543.103 61.1662 543.138 61.1371C543.208 61.0616 543.295 61.0035 543.4 60.9628C543.429 60.9511 543.464 60.9395 543.499 60.9336C543.551 60.9162 543.609 60.9104 543.667 60.9104C543.725 60.9104 543.783 60.9162 543.836 60.9336C543.871 60.9394 543.906 60.9511 543.935 60.9628C544.028 60.9977 544.109 61.0558 544.179 61.1198C544.208 61.149 544.231 61.1779 544.254 61.2071C544.301 61.2709 544.342 61.335 544.365 61.4106L546.272 67.0457C546.953 69.0577 548.558 70.6279 550.581 71.2676L555.269 72.7447C555.629 72.8552 555.868 73.1865 555.868 73.5587Z" fill="#05B64D"/>
<path opacity="0.3" d="M840 232C901.856 232 952 181.856 952 120C952 58.1441 901.856 8 840 8C778.144 8 728 58.1441 728 120C728 181.856 778.144 232 840 232Z" fill="#008CFF"/>
<path opacity="0.1" d="M757.905 120C757.905 85.4668 779.228 55.9136 809.425 43.7876" stroke="white" stroke-width="25.2" stroke-linecap="round" stroke-linejoin="round"/>
<path opacity="0.1" d="M767.361 158.287C766.273 156.227 765.27 154.115 764.356 151.955" stroke="white" stroke-width="25.2" stroke-linecap="round" stroke-linejoin="round"/>
<path d="M906.358 55.7637L877.002 37.0609C875.624 36.1833 873.796 36.5885 872.919 37.9659L781.072 182.129C780.195 183.507 780.6 185.335 781.977 186.212L811.334 204.915C812.711 205.793 814.539 205.387 815.417 204.01L907.263 59.8466C908.141 58.4692 907.735 56.6412 906.358 55.7637Z" fill="#008CFF"/>
<path d="M880.845 39.5095L877.001 37.0609C875.624 36.1834 873.796 36.5886 872.918 37.966L781.072 182.129C780.194 183.507 780.6 185.335 781.977 186.212L785.82 188.661L880.845 39.5095Z" fill="#0068FF"/>
<path d="M892.568 82.9128L875.396 71.9724L873.356 75.1734L890.528 86.1137L892.568 82.9128Z" fill="#0068FF"/>
<path d="M883.967 96.4123L866.795 85.4719L864.756 88.6729L881.928 99.6132L883.967 96.4123Z" fill="#0068FF"/>
<path d="M888.267 89.6625L874.553 80.925L872.513 84.126L886.228 92.8635L888.267 89.6625Z" fill="#0068FF"/>
<path d="M875.366 109.912L858.194 98.9719L856.155 102.173L873.327 113.113L875.366 109.912Z" fill="#0068FF"/>
<path d="M879.667 103.162L865.952 94.4248L863.913 97.6258L877.627 106.363L879.667 103.162Z" fill="#0068FF"/>
<path d="M866.766 123.412L849.594 112.472L847.554 115.673L864.727 126.613L866.766 123.412Z" fill="#0068FF"/>
<path d="M871.066 116.662L857.352 107.925L855.312 111.126L869.027 119.863L871.066 116.662Z" fill="#0068FF"/>
<path d="M858.165 136.912L840.993 125.971L838.954 129.172L856.126 140.112L858.165 136.912Z" fill="#0068FF"/>
<path d="M862.465 130.162L848.751 121.424L846.712 124.625L860.426 133.363L862.465 130.162Z" fill="#0068FF"/>
<path d="M849.564 150.411L832.392 139.471L830.352 142.672L847.524 153.612L849.564 150.411Z" fill="#0068FF"/>
<path d="M853.865 143.662L840.15 134.924L838.111 138.125L851.826 146.863L853.865 143.662Z" fill="#0068FF"/>
<path d="M840.963 163.911L823.791 152.971L821.752 156.172L838.924 167.112L840.963 163.911Z" fill="#0068FF"/>
<path d="M845.264 157.161L831.55 148.424L829.51 151.625L843.225 160.362L845.264 157.161Z" fill="#0068FF"/>
<path d="M832.363 177.411L815.19 166.47L813.151 169.671L830.323 180.612L832.363 177.411Z" fill="#0068FF"/>
<path d="M836.663 170.661L822.948 161.923L820.909 165.124L834.623 173.862L836.663 170.661Z" fill="#0068FF"/>
<path d="M823.762 190.911L806.59 179.97L804.551 183.171L821.723 194.112L823.762 190.911Z" fill="#0068FF"/>
<path d="M828.062 184.161L814.348 175.423L812.308 178.624L826.023 187.362L828.062 184.161Z" fill="#0068FF"/>
<path d="M819.462 197.661L805.747 188.923L803.708 192.124L817.422 200.862L819.462 197.661Z" fill="#0068FF"/>
<path d="M888.891 65.6073C892.282 65.6073 895.031 62.8581 895.031 59.4668C895.031 56.0754 892.282 53.3262 888.891 53.3262C885.499 53.3262 882.75 56.0754 882.75 59.4668C882.75 62.8581 885.499 65.6073 888.891 65.6073Z" fill="#0068FF"/>
<path opacity="0.3" d="M809.246 85.9796C809.246 86.7232 808.795 87.3936 808.1 87.6619L797.361 91.782C793.582 93.2326 790.619 96.2556 789.23 100.071L785.146 111.322C785.117 111.406 785.053 111.466 785.011 111.542C784.976 111.605 784.943 111.666 784.9 111.723C784.834 111.81 784.769 111.888 784.687 111.958C784.561 112.07 784.423 112.168 784.269 112.236C784.171 112.273 784.074 112.31 783.976 112.322C783.879 112.346 783.781 112.358 783.683 112.358L783.367 112.322C783.269 112.31 783.172 112.273 783.074 112.236C782.913 112.167 782.772 112.066 782.645 111.951C782.566 111.883 782.503 111.807 782.439 111.723C782.402 111.675 782.372 111.623 782.341 111.57C782.29 111.486 782.219 111.417 782.184 111.322L778.101 100.071C776.723 96.2556 773.761 93.2326 769.982 91.782L759.243 87.6619C758.548 87.3936 758.085 86.7232 758.085 85.9796C758.085 85.1994 758.597 84.5047 759.341 84.2731L769.166 81.1769C773.42 79.8361 776.772 76.5447 778.21 72.3271L782.209 60.5151C782.257 60.3811 782.318 60.2591 782.392 60.1494C782.44 60.0763 782.489 60.0032 782.562 59.9421C782.709 59.7838 782.891 59.6618 783.111 59.5765C783.172 59.5522 783.245 59.5277 783.318 59.5155C783.428 59.479 783.55 59.4668 783.671 59.4668C783.793 59.4668 783.915 59.479 784.025 59.5155C784.098 59.5277 784.171 59.5521 784.232 59.5765C784.427 59.6496 784.598 59.7715 784.744 59.9056C784.805 59.9666 784.854 60.0275 784.903 60.0886C785 60.2226 785.085 60.3567 785.134 60.5152L789.132 72.3272C790.559 76.5449 793.923 79.8361 798.165 81.177L807.99 84.2732C808.746 84.5049 809.246 85.1994 809.246 85.9796Z" fill="#008CFF"/>
<path opacity="0.3" d="M903.931 173.58C903.931 174.018 903.666 174.412 903.257 174.57L896.943 176.992C894.721 177.845 892.98 179.622 892.162 181.866L889.762 188.481C889.745 188.53 889.707 188.565 889.682 188.61C889.661 188.647 889.642 188.683 889.617 188.716C889.578 188.767 889.54 188.813 889.491 188.854C889.418 188.92 889.336 188.978 889.246 189.018C889.188 189.04 889.131 189.061 889.073 189.068C889.016 189.083 888.959 189.09 888.902 189.09L888.715 189.068C888.658 189.061 888.6 189.04 888.543 189.018C888.449 188.977 888.366 188.918 888.291 188.85C888.244 188.811 888.207 188.766 888.169 188.717C888.148 188.688 888.13 188.658 888.112 188.626C888.082 188.577 888.041 188.536 888.02 188.481L885.619 181.866C884.809 179.622 883.067 177.845 880.846 176.992L874.532 174.57C874.123 174.412 873.851 174.018 873.851 173.58C873.851 173.122 874.152 172.713 874.589 172.577L880.365 170.757C882.867 169.968 884.838 168.033 885.683 165.553L888.034 158.608C888.063 158.529 888.099 158.458 888.142 158.393C888.17 158.35 888.199 158.307 888.242 158.271C888.328 158.178 888.435 158.107 888.564 158.056C888.6 158.042 888.643 158.028 888.686 158.021C888.751 157.999 888.823 157.992 888.894 157.992C888.966 157.992 889.038 157.999 889.102 158.021C889.145 158.028 889.188 158.042 889.224 158.056C889.339 158.099 889.439 158.171 889.525 158.25C889.561 158.286 889.589 158.322 889.618 158.358C889.675 158.436 889.726 158.515 889.754 158.608L892.105 165.553C892.944 168.033 894.922 169.968 897.416 170.757L903.192 172.577C903.637 172.713 903.931 173.122 903.931 173.58Z" fill="#008CFF"/>
<path opacity="0.3" d="M1080 232C1141.86 232 1192 181.856 1192 120C1192 58.1441 1141.86 8 1080 8C1018.14 8 968 58.1441 968 120C968 181.856 1018.14 232 1080 232Z" fill="#7F6CF8"/>
<path opacity="0.1" d="M997.905 120C997.905 85.4668 1019.23 55.9136 1049.43 43.7876" stroke="white" stroke-width="25.2" stroke-linecap="round" stroke-linejoin="round"/>
<path opacity="0.1" d="M1007.36 158.287C1006.27 156.227 1005.27 154.115 1004.36 151.955" stroke="white" stroke-width="25.2" stroke-linecap="round" stroke-linejoin="round"/>
<path opacity="0.72" d="M1109.89 63.0046H1013.69C1008.53 63.0046 1004.36 67.1813 1004.36 72.3335V144.575C1004.36 149.727 1008.53 153.904 1013.69 153.904H1109.89C1115.05 153.904 1119.22 149.727 1119.22 144.575V72.3335C1119.22 67.1813 1115.05 63.0046 1109.89 63.0046Z" fill="#F5F3FF"/>
<g opacity="0.5">
<path d="M1015.12 76.4592H1108.45" stroke="white" stroke-width="2.0298" stroke-miterlimit="10" stroke-linecap="round"/>
</g>
<g opacity="0.5">
<path d="M1015.12 89.2571H1108.45" stroke="white" stroke-width="2.0298" stroke-miterlimit="10" stroke-linecap="round"/>
</g>
<g opacity="0.5">
<path d="M1015.12 102.055H1108.45" stroke="white" stroke-width="2.0298" stroke-miterlimit="10" stroke-linecap="round"/>
</g>
<g opacity="0.5">
<path d="M1015.12 114.853H1108.45" stroke="white" stroke-width="2.0298" stroke-miterlimit="10" stroke-linecap="round"/>
</g>
<g opacity="0.5">
<path d="M1015.12 127.651H1108.45" stroke="white" stroke-width="2.0298" stroke-miterlimit="10" stroke-linecap="round"/>
</g>
<g opacity="0.5">
<path d="M1015.12 140.449H1108.45" stroke="white" stroke-width="2.0298" stroke-miterlimit="10" stroke-linecap="round"/>
</g>
<path d="M1026.02 127.651L1033.22 115.724L1050.3 127.651L1066.21 102.055L1083.04 114.853L1102.03 79.1819" stroke="#7F6CF8" stroke-width="5.4129" stroke-linecap="round" stroke-linejoin="round"/>
<path d="M1095 78.7177L1103.56 76.2498L1106.03 84.8177" stroke="#7F6CF8" stroke-width="5.4129" stroke-linecap="round" stroke-linejoin="round"/>
<path d="M1150.13 182.789H1106.2C1103.71 182.789 1101.7 180.774 1101.7 178.292V134.355C1101.7 131.873 1103.71 129.858 1106.2 129.858H1150.13C1152.62 129.858 1154.63 131.873 1154.63 134.355V178.292C1154.63 180.774 1152.62 182.789 1150.13 182.789Z" fill="white"/>
<path d="M1117.62 158.452C1120.81 161.643 1125.98 161.643 1129.17 158.452C1132.36 155.262 1132.36 150.089 1129.17 146.898C1125.98 143.707 1120.81 143.707 1117.62 146.898C1114.43 150.089 1114.43 155.262 1117.62 158.452Z" stroke="#4A8BFF" stroke-width="3.6" stroke-miterlimit="10"/>
<path d="M1127.17 149.937C1125.08 147.851 1121.7 147.851 1119.62 149.937" stroke="#4A8BFF" stroke-width="1.2" stroke-miterlimit="10" stroke-linecap="round"/>
<path d="M1141.1 170.382L1129.17 158.452" stroke="#4A8BFF" stroke-width="3.6" stroke-miterlimit="10" stroke-linecap="round"/>
<path d="M1154.63 122.905V136.178H1131.76L1149.69 120.648C1151.62 118.974 1154.63 120.348 1154.63 122.905Z" fill="white"/>
<path d="M1115.76 181.26C1115.76 188.593 1109.82 194.537 1102.49 194.537C1095.16 194.537 1089.21 188.592 1089.21 181.26C1089.21 173.928 1095.16 167.983 1102.49 167.983C1109.82 167.983 1115.76 173.927 1115.76 181.26Z" fill="#7F6CF8"/>
<path d="M1100.31 187.359C1099.87 187.359 1099.42 187.188 1099.08 186.846L1094.73 182.5C1094.04 181.815 1094.04 180.705 1094.73 180.021C1095.41 179.335 1096.52 179.336 1097.21 180.02L1100.31 183.126L1107.77 175.674C1108.45 174.99 1109.56 174.99 1110.25 175.674C1110.93 176.359 1110.93 177.47 1110.25 178.154L1101.55 186.846C1101.21 187.188 1100.76 187.359 1100.31 187.359Z" fill="white"/>
<path opacity="0.3" d="M1049.42 190.75C1049.42 191.187 1049.16 191.581 1048.75 191.739L1042.44 194.161C1040.22 195.014 1038.47 196.792 1037.66 199.035L1035.26 205.65C1035.24 205.7 1035.2 205.735 1035.18 205.78C1035.16 205.816 1035.14 205.852 1035.11 205.886C1035.07 205.937 1035.03 205.983 1034.99 206.024C1034.91 206.09 1034.83 206.147 1034.74 206.188C1034.68 206.209 1034.62 206.231 1034.57 206.238C1034.51 206.252 1034.45 206.259 1034.4 206.259L1034.21 206.238C1034.15 206.231 1034.09 206.209 1034.04 206.188C1033.94 206.147 1033.86 206.088 1033.78 206.02C1033.74 205.98 1033.7 205.935 1033.66 205.886C1033.64 205.857 1033.62 205.827 1033.61 205.796C1033.58 205.746 1033.53 205.706 1033.51 205.65L1031.11 199.035C1030.3 196.792 1028.56 195.014 1026.34 194.161L1020.03 191.739C1019.62 191.581 1019.34 191.187 1019.34 190.75C1019.34 190.291 1019.65 189.883 1020.08 189.746L1025.86 187.926C1028.36 187.138 1030.33 185.203 1031.18 182.723L1033.53 175.778C1033.56 175.699 1033.59 175.627 1033.64 175.563C1033.66 175.52 1033.69 175.477 1033.74 175.441C1033.82 175.348 1033.93 175.276 1034.06 175.226C1034.09 175.211 1034.14 175.197 1034.18 175.19C1034.25 175.169 1034.32 175.161 1034.39 175.161C1034.46 175.161 1034.53 175.169 1034.6 175.19C1034.64 175.197 1034.68 175.211 1034.72 175.226C1034.83 175.269 1034.93 175.341 1035.02 175.419C1035.05 175.455 1035.08 175.491 1035.11 175.527C1035.17 175.606 1035.22 175.685 1035.25 175.778L1037.6 182.723C1038.44 185.202 1040.42 187.138 1042.91 187.926L1048.69 189.746C1049.13 189.883 1049.42 190.291 1049.42 190.75Z" fill="#7F6CF8"/>
<path opacity="0.3" d="M1161.84 67.0902C1161.84 67.5274 1161.57 67.9217 1161.16 68.0793L1154.85 70.5018C1152.63 71.3546 1150.89 73.1321 1150.07 75.3753L1147.67 81.9905C1147.65 82.04 1147.61 82.0752 1147.59 82.1199C1147.57 82.1567 1147.55 82.1927 1147.52 82.2262C1147.49 82.2772 1147.45 82.323 1147.4 82.3642C1147.32 82.4302 1147.24 82.4877 1147.15 82.528C1147.1 82.5497 1147.04 82.5711 1146.98 82.5783C1146.92 82.5926 1146.87 82.5997 1146.81 82.5997L1146.62 82.5783C1146.57 82.5711 1146.51 82.5497 1146.45 82.528C1146.36 82.4871 1146.27 82.4279 1146.2 82.3602C1146.15 82.3203 1146.11 82.2755 1146.08 82.2264C1146.06 82.1977 1146.04 82.1674 1146.02 82.1362C1145.99 82.0866 1145.95 82.0463 1145.93 81.9905L1143.53 75.3753C1142.72 73.1321 1140.97 71.3546 1138.75 70.5018L1132.44 68.0793C1132.03 67.9216 1131.76 67.5273 1131.76 67.0902C1131.76 66.6315 1132.06 66.223 1132.5 66.0868L1138.27 64.2663C1140.77 63.478 1142.74 61.5429 1143.59 59.063L1145.94 52.1181C1145.97 52.0392 1146.01 51.9675 1146.05 51.9031C1146.08 51.8601 1146.11 51.8171 1146.15 51.7811C1146.24 51.6881 1146.34 51.6164 1146.47 51.5662C1146.51 51.5518 1146.55 51.5375 1146.59 51.5304C1146.66 51.5089 1146.73 51.5017 1146.8 51.5017C1146.87 51.5017 1146.94 51.5089 1147.01 51.5304C1147.05 51.5375 1147.1 51.5518 1147.13 51.5662C1147.25 51.6092 1147.35 51.6809 1147.43 51.7598C1147.47 51.7956 1147.5 51.8314 1147.53 51.8673C1147.58 51.9461 1147.63 52.0248 1147.66 52.1181L1150.01 59.063C1150.85 61.5428 1152.83 63.478 1155.32 64.2663L1161.1 66.0868C1161.54 66.223 1161.84 66.6315 1161.84 67.0902Z" fill="#7F6CF8"/>
<g opacity="0.3">
<path d="M1323.7 139.976C1322.18 143.829 1319.8 146.415 1316.56 147.735C1313.32 149.054 1309.67 148.912 1305.6 147.31C1301.75 145.792 1298.98 143.402 1297.3 140.142C1295.61 136.882 1295.53 133.324 1297.05 129.471L1299.46 123.369C1301.99 116.947 1306.06 112.56 1311.69 110.199C1317.32 107.843 1322.61 106.033 1327.56 104.767C1338.95 101.593 1346 96.5797 1348.7 89.726C1350.39 85.4461 1350.24 81.7401 1348.26 78.6068C1346.28 75.4777 1343.04 73.0257 1338.55 71.2539C1334.48 69.65 1330.8 69.2558 1327.51 70.0599C1324.23 70.8684 1321.76 73.0482 1320.11 76.6026C1318.8 79.3022 1316.34 81.302 1312.74 82.6007C1309.13 83.9037 1305.51 83.834 1301.88 82.4004C1298.23 80.9647 1295.6 78.3854 1293.98 74.6522C1292.36 70.9222 1292.19 67.4508 1293.45 64.2399C1295.9 58.0327 1300.01 53.0951 1305.78 49.4342C1311.55 45.7725 1318.18 43.6907 1325.68 43.1802C1333.17 42.673 1340.78 43.9369 1348.49 46.9746C1360.47 51.6988 1369.16 58.8334 1374.55 68.3789C1379.94 77.9225 1380.61 87.834 1376.56 98.1092C1372.6 108.175 1367.72 114.906 1361.92 118.31C1356.13 121.718 1349.79 124.288 1342.93 126.034C1337.46 127.345 1333.44 128.602 1330.86 129.812C1328.28 131.021 1326.7 132.38 1326.11 133.874L1323.7 139.976ZM1292.17 191.733C1287.04 189.708 1283.33 186.394 1281.07 181.79C1278.8 177.187 1278.55 172.638 1280.33 168.142C1282.18 163.435 1285.55 160.062 1290.43 158.028C1295.31 155.997 1300.33 155.99 1305.46 158.015C1310.17 159.87 1313.51 163.168 1315.48 167.9C1317.45 172.634 1317.5 177.358 1315.65 182.064C1313.88 186.56 1310.7 189.759 1306.12 191.662C1301.53 193.565 1296.88 193.588 1292.17 191.733Z" fill="#FF9700"/>
</g>
<path opacity="0.3" d="M1320 232C1381.86 232 1432 181.856 1432 120C1432 58.1441 1381.86 8 1320 8C1258.14 8 1208 58.1441 1208 120C1208 181.856 1258.14 232 1320 232Z" fill="#FF9700"/>
<path d="M1275.71 144.648C1270.63 144.648 1266.52 143.039 1263.38 139.818C1260.23 136.598 1258.66 132.298 1258.66 126.917C1258.66 121.535 1260.19 117.275 1263.26 114.129C1266.33 110.985 1270.37 109.412 1275.37 109.412C1278.93 109.412 1282.03 110.662 1284.69 113.163C1284.99 112.253 1285.56 111.497 1286.39 110.889C1287.23 110.284 1288.21 109.98 1289.35 109.98C1290.86 109.98 1292.09 110.417 1293.04 111.288C1293.99 112.159 1294.46 113.202 1294.46 114.413V140.215C1294.46 141.505 1293.99 142.565 1293.04 143.398C1292.09 144.231 1290.86 144.649 1289.35 144.649C1286.85 144.649 1285.29 143.549 1284.69 141.353C1282.26 143.549 1279.27 144.648 1275.71 144.648ZM1276.5 135.442C1278.93 135.442 1280.86 134.628 1282.3 132.998C1283.74 131.369 1284.46 129.343 1284.46 126.917C1284.46 124.416 1283.74 122.409 1282.3 120.892C1280.86 119.378 1278.93 118.619 1276.5 118.619C1274.15 118.619 1272.24 119.378 1270.76 120.892C1269.29 122.409 1268.55 124.416 1268.55 126.917C1268.55 129.343 1269.29 131.369 1270.76 132.998C1272.24 134.628 1274.15 135.442 1276.5 135.442Z" fill="#FF9700"/>
<path d="M1306.21 130.781C1304.99 130.781 1303.99 130.423 1303.19 129.702C1302.4 128.982 1302 128.053 1302 126.917C1302 125.706 1302.4 124.72 1303.19 123.961C1303.99 123.205 1304.99 122.825 1306.21 122.825H1315.64V113.846C1315.64 112.558 1316.02 111.515 1316.78 110.719C1317.53 109.924 1318.52 109.526 1319.73 109.526C1320.87 109.526 1321.8 109.924 1322.52 110.719C1323.24 111.515 1323.6 112.558 1323.6 113.846V122.825H1331.78C1333.07 122.825 1334.11 123.205 1334.91 123.961C1335.7 124.72 1336.1 125.706 1336.1 126.917C1336.1 128.053 1335.7 128.982 1334.91 129.702C1334.11 130.423 1333.07 130.781 1331.78 130.781H1323.6V139.42C1323.6 140.633 1323.24 141.637 1322.52 142.433C1321.8 143.228 1320.87 143.626 1319.73 143.626C1318.52 143.626 1317.53 143.228 1316.78 142.433C1316.02 141.637 1315.64 140.633 1315.64 139.42V130.781H1306.21Z" fill="#FF9700"/>
<path d="M1364.52 144.194C1361.11 144.194 1358.23 143.132 1355.88 141.011C1355.2 143.132 1353.64 144.194 1351.22 144.194C1349.78 144.194 1348.56 143.776 1347.58 142.944C1346.59 142.111 1346.1 141.05 1346.1 139.761V97.4772C1346.1 96.2658 1346.58 95.2232 1347.52 94.351C1348.47 93.4813 1349.7 93.0442 1351.22 93.0442C1352.66 93.0442 1353.83 93.4813 1354.74 94.351C1355.65 95.2232 1356.11 96.3032 1356.11 97.5909V112.481C1358.68 110.133 1361.6 108.957 1364.86 108.957C1369.86 108.957 1373.86 110.531 1376.85 113.675C1379.84 116.82 1381.34 121.082 1381.34 126.462C1381.34 131.842 1379.82 136.143 1376.79 139.363C1373.76 142.585 1369.67 144.194 1364.52 144.194ZM1363.72 134.987C1366.07 134.987 1367.94 134.173 1369.35 132.543C1370.75 130.914 1371.45 128.888 1371.45 126.462C1371.45 123.962 1370.75 121.955 1369.35 120.438C1367.94 118.923 1366.07 118.164 1363.72 118.164C1361.45 118.164 1359.61 118.923 1358.21 120.438C1356.8 121.955 1356.11 123.962 1356.11 126.462C1356.11 128.888 1356.81 130.914 1358.21 132.543C1359.61 134.173 1361.45 134.987 1363.72 134.987Z" fill="#FF9700"/>
<path d="M1244.15 156.781C1242.81 156.781 1241.51 156.094 1240.78 154.858L1239.45 152.603C1228.78 134.477 1229.33 112.296 1240.88 94.7182C1242.07 92.9169 1244.48 92.4153 1246.29 93.6004C1248.09 94.7843 1248.59 97.2041 1247.4 99.0056C1237.5 114.079 1237.03 133.099 1246.18 148.643L1247.51 150.898C1248.6 152.755 1247.98 155.148 1246.12 156.241C1245.5 156.607 1244.82 156.781 1244.15 156.781Z" fill="#FF9700"/>
<path d="M1395.85 156.781C1395.18 156.781 1394.5 156.607 1393.88 156.241C1392.02 155.148 1391.4 152.755 1392.49 150.898L1393.82 148.643C1402.97 133.099 1402.5 114.079 1392.59 99.0056C1391.41 97.2042 1391.91 94.7843 1393.71 93.6004C1395.51 92.4153 1397.93 92.9169 1399.12 94.7182C1410.67 112.296 1411.22 134.477 1400.55 152.603L1399.22 154.858C1398.49 156.094 1397.19 156.781 1395.85 156.781Z" fill="#FF9700"/>
<path opacity="0.3" d="M1237.9 120C1237.9 85.4666 1259.23 55.9133 1289.42 43.7874" stroke="white" stroke-width="23.52" stroke-linecap="round" stroke-linejoin="round"/>
<path opacity="0.3" d="M1247.36 158.287C1246.27 156.227 1245.27 154.114 1244.36 151.955" stroke="white" stroke-width="23.52" stroke-linecap="round" stroke-linejoin="round"/>
<path opacity="0.3" d="M1560 232C1621.86 232 1672 181.856 1672 120C1672 58.1441 1621.86 8 1560 8C1498.14 8 1448 58.1441 1448 120C1448 181.856 1498.14 232 1560 232Z" fill="#008CFF"/>
<path opacity="0.3" d="M1529.25 85.9796C1529.25 86.7232 1528.79 87.3936 1528.1 87.6619L1517.36 91.782C1513.58 93.2326 1510.62 96.2556 1509.23 100.071L1505.15 111.322C1505.12 111.406 1505.05 111.466 1505.01 111.542C1504.98 111.605 1504.94 111.666 1504.9 111.723C1504.83 111.81 1504.77 111.888 1504.69 111.958C1504.56 112.07 1504.42 112.168 1504.27 112.236C1504.17 112.273 1504.07 112.31 1503.98 112.322C1503.88 112.346 1503.78 112.358 1503.68 112.358L1503.37 112.322C1503.27 112.31 1503.17 112.273 1503.07 112.236C1502.91 112.167 1502.77 112.066 1502.64 111.951C1502.57 111.883 1502.5 111.807 1502.44 111.723C1502.4 111.675 1502.37 111.623 1502.34 111.57C1502.29 111.486 1502.22 111.417 1502.18 111.322L1498.1 100.071C1496.72 96.2556 1493.76 93.2326 1489.98 91.782L1479.24 87.6619C1478.55 87.3936 1478.08 86.7232 1478.08 85.9796C1478.08 85.1994 1478.6 84.5047 1479.34 84.2731L1489.17 81.1769C1493.42 79.8361 1496.77 76.5447 1498.21 72.3271L1502.21 60.5151C1502.26 60.3811 1502.32 60.2591 1502.39 60.1494C1502.44 60.0763 1502.49 60.0032 1502.56 59.9421C1502.71 59.7838 1502.89 59.6618 1503.11 59.5765C1503.17 59.5522 1503.24 59.5277 1503.32 59.5155C1503.43 59.479 1503.55 59.4668 1503.67 59.4668C1503.79 59.4668 1503.92 59.479 1504.02 59.5155C1504.1 59.5277 1504.17 59.5521 1504.23 59.5765C1504.43 59.6496 1504.6 59.7715 1504.74 59.9056C1504.81 59.9666 1504.85 60.0275 1504.9 60.0886C1505 60.2226 1505.09 60.3567 1505.13 60.5152L1509.13 72.3272C1510.56 76.5449 1513.92 79.8361 1518.17 81.177L1527.99 84.2732C1528.75 84.5049 1529.25 85.1994 1529.25 85.9796Z" fill="#008CFF"/>
<path opacity="0.3" d="M1623.93 173.58C1623.93 174.018 1623.67 174.412 1623.26 174.57L1616.94 176.992C1614.72 177.845 1612.98 179.622 1612.16 181.866L1609.76 188.481C1609.74 188.53 1609.71 188.565 1609.68 188.61C1609.66 188.647 1609.64 188.683 1609.62 188.716C1609.58 188.767 1609.54 188.813 1609.49 188.854C1609.42 188.92 1609.34 188.978 1609.25 189.018C1609.19 189.04 1609.13 189.061 1609.07 189.068C1609.02 189.083 1608.96 189.09 1608.9 189.09L1608.72 189.068C1608.66 189.061 1608.6 189.04 1608.54 189.018C1608.45 188.977 1608.37 188.918 1608.29 188.85C1608.24 188.811 1608.21 188.766 1608.17 188.717C1608.15 188.688 1608.13 188.658 1608.11 188.626C1608.08 188.577 1608.04 188.536 1608.02 188.481L1605.62 181.866C1604.81 179.622 1603.07 177.845 1600.85 176.992L1594.53 174.57C1594.12 174.412 1593.85 174.018 1593.85 173.58C1593.85 173.122 1594.15 172.713 1594.59 172.577L1600.37 170.757C1602.87 169.968 1604.84 168.033 1605.68 165.553L1608.03 158.608C1608.06 158.529 1608.1 158.458 1608.14 158.393C1608.17 158.35 1608.2 158.307 1608.24 158.271C1608.33 158.178 1608.44 158.107 1608.56 158.056C1608.6 158.042 1608.64 158.028 1608.69 158.021C1608.75 157.999 1608.82 157.992 1608.89 157.992C1608.97 157.992 1609.04 157.999 1609.1 158.021C1609.15 158.028 1609.19 158.042 1609.22 158.056C1609.34 158.099 1609.44 158.171 1609.52 158.25C1609.56 158.286 1609.59 158.322 1609.62 158.358C1609.68 158.436 1609.73 158.515 1609.75 158.608L1612.11 165.553C1612.94 168.033 1614.92 169.968 1617.42 170.757L1623.19 172.577C1623.64 172.713 1623.93 173.122 1623.93 173.58Z" fill="#008CFF"/>
<path d="M1504.27 143.866C1502.64 143.866 1501.3 143.37 1500.27 142.383C1499.24 141.395 1498.72 140.083 1498.72 138.448V116.774C1498.72 115.915 1498.29 115.484 1497.43 115.484H1495.63C1494.08 115.484 1492.92 115.013 1492.14 114.065C1491.37 113.12 1490.98 111.917 1490.98 110.453C1490.98 108.905 1491.37 107.637 1492.14 106.647C1492.92 105.659 1494.08 105.164 1495.63 105.164H1497.43C1498.29 105.164 1498.72 104.734 1498.72 103.873V101.164C1498.72 96.4356 1499.99 92.8008 1502.53 90.2634C1505.06 87.7275 1508.4 86.457 1512.53 86.457C1513.47 86.457 1514.53 86.5219 1515.69 86.651C1516.85 86.7801 1517.77 86.9733 1518.46 87.2314C1519.66 87.6626 1520.55 88.3505 1521.11 89.2958C1521.66 90.2432 1521.94 91.2303 1521.94 92.2628C1521.94 93.6393 1521.51 94.9076 1520.65 96.0685C1519.79 97.2294 1518.59 97.8098 1517.04 97.8098C1516.35 97.8098 1515.71 97.7254 1515.11 97.5517C1514.5 97.3808 1513.86 97.2942 1513.17 97.2942C1511.11 97.2942 1510.08 98.7572 1510.08 101.68V103.873C1510.08 104.734 1510.51 105.164 1511.37 105.164H1516.14C1517.6 105.164 1518.83 105.679 1519.82 106.712C1520.8 107.744 1521.3 108.991 1521.3 110.453C1521.3 111.916 1520.8 113.12 1519.82 114.065C1518.83 115.013 1517.56 115.484 1516.01 115.484H1511.37C1510.51 115.484 1510.08 115.915 1510.08 116.774V138.448C1510.08 139.996 1509.54 141.286 1508.46 142.318C1507.39 143.35 1505.99 143.866 1504.27 143.866Z" fill="#008CFF"/>
<path d="M1548.39 157.412C1547.01 157.412 1545.9 156.767 1545.04 155.477C1541.51 150.659 1538.82 145.241 1536.97 139.222C1535.12 133.203 1534.2 126.795 1534.2 120C1534.2 114.755 1534.82 109.83 1536.07 105.228C1537.32 100.629 1538.95 96.4999 1540.97 92.8435C1542.99 89.1886 1545.08 86.1998 1547.23 83.8774C1548.18 83.0186 1549.21 82.5874 1550.33 82.5874C1551.44 82.5874 1552.37 82.9544 1553.1 83.6841C1553.83 84.4159 1554.2 85.341 1554.2 86.4572C1554.2 87.1472 1554.09 87.7053 1553.87 88.1343C1553.66 88.5662 1553.46 88.9087 1553.29 89.1668C1549.85 92.436 1547.14 96.8424 1545.17 102.39C1543.19 107.937 1542.2 113.807 1542.2 120C1542.2 126.708 1543.21 132.751 1545.23 138.125C1547.25 143.499 1549.47 147.821 1551.87 151.091C1552.3 151.95 1552.52 152.723 1552.52 153.413C1552.52 154.445 1552.11 155.368 1551.29 156.187C1550.48 157.003 1549.51 157.412 1548.39 157.412Z" fill="#008CFF"/>
<path d="M1568.39 143.866C1566.92 143.866 1565.59 143.306 1564.39 142.189C1563.18 141.072 1562.58 139.782 1562.58 138.319C1562.58 136.944 1563.14 135.654 1564.26 134.448L1573.16 125.289C1573.67 124.602 1573.93 123.999 1573.93 123.483C1573.93 122.796 1573.67 122.193 1573.16 121.677L1564.13 112.646C1563.27 111.529 1562.84 110.411 1562.84 109.292C1562.84 107.83 1563.48 106.563 1564.77 105.486C1566.06 104.412 1567.48 103.873 1569.03 103.873C1570.66 103.873 1571.95 104.476 1572.9 105.679L1580.13 114.065C1580.64 114.581 1581.16 114.84 1581.67 114.84C1582.36 114.84 1582.88 114.581 1583.22 114.065L1590.32 105.679C1591.26 104.476 1592.55 103.873 1594.19 103.873C1595.74 103.873 1597.15 104.412 1598.44 105.486C1599.73 106.563 1600.38 107.873 1600.38 109.421C1600.38 110.453 1599.95 111.529 1599.09 112.646L1590.06 121.677C1589.54 122.193 1589.29 122.796 1589.29 123.483C1589.29 123.999 1589.54 124.602 1590.06 125.289L1598.96 134.448C1600.08 135.654 1600.64 136.944 1600.64 138.319C1600.64 139.782 1600.04 141.072 1598.83 142.189C1597.63 143.306 1596.29 143.866 1594.83 143.866C1593.28 143.866 1591.99 143.221 1590.96 141.931L1583.22 132.771C1582.88 132.256 1582.36 131.998 1581.67 131.998C1581.16 131.998 1580.64 132.256 1580.13 132.771L1572.26 141.931C1571.65 142.619 1571.03 143.112 1570.39 143.415C1569.74 143.715 1569.07 143.866 1568.39 143.866Z" fill="#008CFF"/>
<path d="M1614.83 157.412C1613.71 157.412 1612.74 157.003 1611.92 156.187C1611.11 155.368 1610.7 154.445 1610.7 153.413C1610.7 152.723 1610.91 151.95 1611.34 151.091C1613.84 147.821 1616.07 143.499 1618.05 138.125C1620.03 132.751 1621.02 126.708 1621.02 120C1621.02 113.807 1620.03 107.937 1618.05 102.39C1616.07 96.8424 1613.36 92.4361 1609.92 89.1668C1609.75 88.9087 1609.56 88.5662 1609.34 88.1343C1609.13 87.7052 1609.02 87.1472 1609.02 86.4572C1609.02 85.341 1609.39 84.4159 1610.12 83.6841C1610.85 82.9544 1611.77 82.5874 1612.89 82.5874C1614.01 82.5874 1615.04 83.0186 1615.99 83.8774C1618.22 86.1999 1620.33 89.1886 1622.31 92.8435C1624.29 96.4999 1625.9 100.629 1627.15 105.228C1628.39 109.83 1629.02 114.755 1629.02 120C1629.02 126.795 1628.09 133.203 1626.24 139.222C1624.39 145.241 1621.71 150.659 1618.18 155.477C1617.32 156.767 1616.2 157.412 1614.83 157.412Z" fill="#008CFF"/>
<path opacity="0.3" d="M1477.9 120C1477.9 85.4666 1499.23 55.9133 1529.42 43.7874" stroke="white" stroke-width="23.52" stroke-linecap="round" stroke-linejoin="round"/>
<path opacity="0.3" d="M1487.36 158.287C1486.27 156.227 1485.27 154.114 1484.36 151.955" stroke="white" stroke-width="23.52" stroke-linecap="round" stroke-linejoin="round"/>
<path opacity="0.3" d="M1800 232C1861.86 232 1912 181.856 1912 120C1912 58.1441 1861.86 8 1800 8C1738.14 8 1688 58.1441 1688 120C1688 181.856 1738.14 232 1800 232Z" fill="#05B64D"/>
<path d="M1845.45 62.1144V161.25C1845.45 165.934 1841.65 169.731 1836.97 169.731H1737.84C1730.28 169.731 1726.5 160.595 1731.84 155.252L1830.97 56.1173C1836.32 50.7745 1845.45 54.5585 1845.45 62.1144Z" fill="#05B64D"/>
<g opacity="0.3">
<path d="M1731.33 184.035H1736" stroke="#05B64D" stroke-width="3.73968" stroke-linecap="round" stroke-linejoin="round"/>
<path d="M1745.34 184.035H1834.12" stroke="#05B64D" stroke-width="3.73968" stroke-linecap="round" stroke-linejoin="round" stroke-dasharray="9.34 9.34"/>
<path d="M1838.79 184.035H1843.46" stroke="#05B64D" stroke-width="3.73968" stroke-linecap="round" stroke-linejoin="round"/>
<path d="M1730.67 177.171V191.261" stroke="#05B64D" stroke-width="3.73968" stroke-linecap="round" stroke-linejoin="round"/>
<path d="M1844.12 177.171V191.261" stroke="#05B64D" stroke-width="3.73968" stroke-linecap="round" stroke-linejoin="round"/>
</g>
<g opacity="0.3">
<path d="M1862.67 170.668V166.001" stroke="#05B64D" stroke-width="3.73968" stroke-linecap="round" stroke-linejoin="round"/>
<path d="M1862.67 156.657V67.8823" stroke="#05B64D" stroke-width="3.73968" stroke-linecap="round" stroke-linejoin="round" stroke-dasharray="9.34 9.34"/>
<path d="M1862.67 63.2101V58.5435" stroke="#05B64D" stroke-width="3.73968" stroke-linecap="round" stroke-linejoin="round"/>
<path d="M1855.8 171.328H1869.9" stroke="#05B64D" stroke-width="3.73968" stroke-linecap="round" stroke-linejoin="round"/>
<path d="M1855.8 57.8831H1869.9" stroke="#05B64D" stroke-width="3.73968" stroke-linecap="round" stroke-linejoin="round"/>
</g>
<g opacity="0.3">
<path d="M1720.28 144.473L1723.96 140.797" stroke="#05B64D" stroke-width="4.16584" stroke-linecap="round" stroke-linejoin="round"/>
<path d="M1730.96 133.794L1811.49 53.2664" stroke="#05B64D" stroke-width="4.16584" stroke-linecap="round" stroke-linejoin="round" stroke-dasharray="9.9 9.9"/>
<path d="M1814.99 49.7652L1818.67 46.0894" stroke="#05B64D" stroke-width="4.16584" stroke-linecap="round" stroke-linejoin="round"/>
</g>
<g opacity="0.3">
<path d="M1714.21 140.5L1724.18 150.463" stroke="#05B64D" stroke-width="3.73968" stroke-linecap="round" stroke-linejoin="round"/>
<path d="M1814.77 39.938L1824.74 49.9013" stroke="#05B64D" stroke-width="3.73968" stroke-linecap="round" stroke-linejoin="round"/>
</g>
<g opacity="0.3">
<path d="M1787.88 208.925C1785.21 208.925 1783.05 208.08 1781.4 206.387C1779.75 204.695 1778.92 202.435 1778.92 199.608C1778.92 196.78 1779.73 194.54 1781.34 192.887C1782.96 191.235 1785.08 190.408 1787.7 190.408C1789.58 190.408 1791.21 191.065 1792.6 192.38C1792.76 191.902 1793.06 191.504 1793.5 191.185C1793.94 190.867 1794.45 190.707 1795.05 190.707C1795.85 190.707 1796.49 190.937 1796.99 191.394C1797.49 191.852 1797.74 192.4 1797.74 193.037V206.596C1797.74 207.274 1797.49 207.831 1796.99 208.268C1796.49 208.707 1795.85 208.925 1795.05 208.925C1793.74 208.925 1792.92 208.348 1792.6 207.194C1791.33 208.348 1789.75 208.925 1787.88 208.925ZM1788.3 204.087C1789.57 204.087 1790.59 203.66 1791.35 202.803C1792.1 201.947 1792.48 200.883 1792.48 199.608C1792.48 198.293 1792.1 197.239 1791.35 196.441C1790.59 195.645 1789.58 195.247 1788.3 195.247C1787.07 195.247 1786.06 195.645 1785.28 196.441C1784.51 197.239 1784.12 198.293 1784.12 199.608C1784.12 200.883 1784.51 201.947 1785.28 202.803C1786.06 203.66 1787.07 204.087 1788.3 204.087Z" fill="#05B64D"/>
</g>
<g opacity="0.3">
<path d="M1749.66 89.8545C1747.99 89.8545 1746.42 89.4763 1744.97 88.7198C1743.52 87.9642 1742.35 86.8686 1741.48 85.4349C1740.6 84.0012 1740.16 82.2895 1740.16 80.298C1740.2 77.5499 1741.1 75.3697 1742.85 73.7564C1744.6 72.1441 1746.87 71.3374 1749.66 71.3374C1750.74 71.3374 1751.79 71.4568 1752.83 71.6956C1753.86 71.9353 1754.76 72.3738 1755.51 73.0099C1756.11 73.4875 1756.41 74.1055 1756.41 74.862C1756.41 75.4991 1756.18 76.0771 1755.72 76.5938C1755.26 77.1125 1754.7 77.3704 1754.02 77.3704C1753.58 77.3704 1753.18 77.251 1752.83 77.0122C1752.23 76.6941 1751.7 76.4744 1751.24 76.355C1750.78 76.2356 1750.28 76.1764 1749.72 76.1764C1748.41 76.1764 1747.33 76.5546 1746.49 77.3111C1745.66 78.0676 1745.24 79.0829 1745.24 80.3572C1745.24 81.831 1745.7 82.9759 1746.61 83.7916C1747.53 84.6083 1748.6 85.0166 1749.84 85.0166C1751.23 85.0166 1752.55 84.4998 1753.78 83.4635C1754.26 83.1052 1754.72 82.9257 1755.16 82.9257C1755.79 82.9257 1756.34 83.1854 1756.8 83.7022C1757.26 84.2199 1757.48 84.8178 1757.48 85.4941C1757.48 85.773 1757.43 86.082 1757.31 86.4202C1757.19 86.7592 1756.97 87.0873 1756.65 87.4055C1755.57 88.2823 1754.43 88.9094 1753.21 89.2876C1752 89.665 1750.81 89.8545 1749.66 89.8545Z" fill="#05B64D"/>
</g>
<g opacity="0.3">
<path d="M1884.27 127.486C1882.48 127.486 1880.97 126.928 1879.73 125.813C1879.37 126.928 1878.56 127.486 1877.28 127.486C1876.53 127.486 1875.89 127.267 1875.37 126.829C1874.85 126.391 1874.59 125.834 1874.59 125.156V102.936C1874.59 102.299 1874.84 101.752 1875.34 101.293C1875.84 100.836 1876.49 100.606 1877.28 100.606C1878.04 100.606 1878.66 100.836 1879.13 101.293C1879.61 101.752 1879.85 102.319 1879.85 102.996V110.821C1881.2 109.586 1882.74 108.969 1884.45 108.969C1887.08 108.969 1889.18 109.795 1890.75 111.448C1892.33 113.1 1893.11 115.34 1893.11 118.168C1893.11 120.995 1892.32 123.256 1890.72 124.947C1889.13 126.641 1886.98 127.486 1884.27 127.486ZM1883.85 122.648C1885.09 122.648 1886.07 122.22 1886.81 121.363C1887.55 120.508 1887.92 119.443 1887.92 118.168C1887.92 116.854 1887.55 115.799 1886.81 115.002C1886.07 114.206 1885.09 113.807 1883.85 113.807C1882.66 113.807 1881.69 114.206 1880.96 115.002C1880.22 115.799 1879.85 116.854 1879.85 118.168C1879.85 119.443 1880.22 120.508 1880.96 121.363C1881.69 122.22 1882.66 122.648 1883.85 122.648Z" fill="#05B64D"/>
</g>
<path opacity="0.3" d="M1717.9 120C1717.9 85.4666 1739.23 55.9133 1769.42 43.7874" stroke="white" stroke-width="23.52" stroke-linecap="round" stroke-linejoin="round"/>
<path opacity="0.3" d="M1727.36 158.287C1726.27 156.227 1725.27 154.114 1724.36 151.955" stroke="white" stroke-width="23.52" stroke-linecap="round" stroke-linejoin="round"/>
<path opacity="0.3" d="M2040 232C2101.86 232 2152 181.856 2152 120C2152 58.1441 2101.86 8 2040 8C1978.14 8 1928 58.1441 1928 120C1928 181.856 1978.14 232 2040 232Z" fill="#7F6CF8"/>
<path opacity="0.3" d="M1957.9 120C1957.9 85.4666 1979.23 55.9133 2009.42 43.7874" stroke="white" stroke-width="23.52" stroke-linecap="round" stroke-linejoin="round"/>
<path opacity="0.3" d="M1967.36 158.287C1966.27 156.227 1965.27 154.114 1964.36 151.955" stroke="white" stroke-width="23.52" stroke-linecap="round" stroke-linejoin="round"/>
<path d="M2039.05 75.7874C2039.05 77.7292 2040.48 79.3432 2042.4 79.6432C2063.12 82.8822 2079.02 100.837 2079.02 122.448C2079.02 122.459 2079.02 122.471 2079.02 122.482C2079.02 124.409 2080.34 126.079 2082.24 126.414L2117.56 132.642C2119.81 133.038 2121.94 131.431 2122.12 129.156C2122.3 126.943 2122.4 124.707 2122.4 122.448C2122.4 77.19 2087.54 39.9378 2043.27 36.0824C2041 35.8847 2039.05 37.6986 2039.05 39.9769L2039.05 75.7874Z" fill="#7F6CF8"/>
<path opacity="0.5" d="M2067.45 149.45C2066.08 148.453 2064.2 148.651 2063.02 149.869C2056.21 156.9 2046.68 161.277 2036.14 161.277C2028.9 161.277 2022.14 159.208 2016.41 155.636C2014.98 154.748 2013.11 155.088 2012.04 156.374L1992.22 179.988C1990.96 181.486 1991.23 183.751 1992.82 184.886C2005.06 193.598 2020.01 198.739 2036.14 198.739C2058.88 198.739 2079.27 188.543 2093.01 172.493C2094.29 171.006 2094 168.74 2092.42 167.589L2067.45 149.45Z" fill="#7F6CF8"/>
<path opacity="0.3" d="M2105.99 138.384L2075.56 133.018C2073.92 132.73 2072.29 133.667 2071.78 135.249C2071.21 137.05 2070.5 138.792 2069.67 140.464C2068.94 141.931 2069.42 143.714 2070.74 144.677L2095.76 162.853C2097.36 164.012 2099.62 163.569 2100.63 161.872C2104.16 155.901 2106.9 149.403 2108.67 142.521C2109.16 140.629 2107.91 138.724 2105.99 138.384Z" fill="#7F6CF8"/>
<path opacity="0.5" d="M2000.96 111.086C2005.55 98.4688 2016.74 89.0017 2030.34 86.8763C2032 86.6163 2033.25 85.2233 2033.25 83.5395V52.6168C2033.25 50.6493 2031.57 49.0829 2029.61 49.2532C1998.18 51.9826 1972.26 74.2022 1964.01 103.734C1963.48 105.641 1964.73 107.59 1966.68 107.934L1997.19 113.313C1998.82 113.601 2000.39 112.645 2000.96 111.086Z" fill="#7F6CF8"/>
<path opacity="0.3" d="M1987.83 176.199L2007.74 152.476C2008.8 151.211 2008.75 149.381 2007.68 148.126C2002.09 141.585 1998.71 133.103 1998.71 123.846C1998.71 123.357 1998.72 122.871 1998.74 122.387C1998.81 120.717 1997.59 119.27 1995.94 118.98L1965.55 113.62C1963.62 113.281 1961.79 114.644 1961.6 116.59C1961.37 118.978 1961.25 121.398 1961.25 123.846C1961.25 144.315 1969.51 162.887 1982.86 176.418C1984.25 177.826 1986.56 177.714 1987.83 176.199Z" fill="#7F6CF8"/>
<path d="M2057 152.927C2057 149.455 2058.24 146.517 2060.73 144.109C2063.21 141.703 2066.27 140.499 2069.9 140.499C2073.53 140.499 2076.55 141.683 2078.95 144.05C2081.36 146.418 2082.56 149.376 2082.56 152.927C2082.56 156.4 2081.36 159.3 2078.95 161.626C2076.55 163.955 2073.53 165.118 2069.9 165.118C2066.27 165.118 2063.21 163.955 2060.73 161.626C2058.24 159.3 2057 156.4 2057 152.927ZM2070.73 188.909C2069.94 190.093 2068.83 190.684 2067.41 190.684C2066.54 190.684 2065.8 190.407 2065.16 189.856C2064.22 189.223 2063.74 188.317 2063.74 187.133C2063.74 186.109 2064.06 185.201 2064.69 184.411L2097.6 142.156C2098.46 141.052 2099.57 140.499 2100.91 140.499C2101.93 140.499 2102.82 140.874 2103.57 141.623C2104.32 142.374 2104.7 143.221 2104.7 144.168C2104.7 145.037 2104.38 145.904 2103.75 146.772L2070.73 188.909ZM2065.16 152.927C2065.16 156.241 2066.74 157.898 2069.9 157.898C2071.4 157.898 2072.58 157.445 2073.45 156.537C2074.32 155.631 2074.75 154.427 2074.75 152.927C2074.75 151.349 2074.32 150.106 2073.45 149.198C2072.58 148.292 2071.4 147.838 2069.9 147.838C2066.74 147.838 2065.16 149.536 2065.16 152.927ZM2087.06 178.257C2087.06 174.785 2088.3 171.865 2090.79 169.497C2093.28 167.13 2096.29 165.946 2099.84 165.946C2103.47 165.946 2106.51 167.13 2108.96 169.497C2111.4 171.864 2112.63 174.785 2112.63 178.257C2112.63 181.807 2111.42 184.766 2109.02 187.133C2106.61 189.5 2103.55 190.684 2099.84 190.684C2096.21 190.684 2093.18 189.5 2090.73 187.133C2088.28 184.766 2087.06 181.807 2087.06 178.257ZM2095.23 178.257C2095.23 181.65 2096.77 183.346 2099.84 183.346C2103.08 183.346 2104.7 181.65 2104.7 178.257C2104.7 176.679 2104.26 175.457 2103.4 174.587C2102.53 173.719 2101.34 173.286 2099.84 173.286C2098.42 173.286 2097.3 173.719 2096.47 174.587C2095.64 175.457 2095.23 176.679 2095.23 178.257Z" fill="#8B79FF"/>
<g clip-path="url(#clip0_6007_8652)">
<path opacity="0.3" d="M2280 240C2346.27 240 2400 186.274 2400 120C2400 53.7258 2346.27 0 2280 0C2213.73 0 2160 53.7258 2160 120C2160 186.274 2213.73 240 2280 240Z" fill="#9DA3B1"/>
<path opacity="0.1" d="M2209.33 125.138H2357.64" stroke="#9DA3B1" stroke-width="8" stroke-linecap="round" stroke-linejoin="round"/>
<path opacity="0.1" d="M2209.33 46.1599H2357.64" stroke="#9DA3B1" stroke-width="8" stroke-linecap="round" stroke-linejoin="round"/>
<path opacity="0.1" d="M2209.33 85.6489H2357.64" stroke="#9DA3B1" stroke-width="8" stroke-linecap="round" stroke-linejoin="round"/>
<path d="M2297.84 89.4305C2297.84 86.1545 2295.18 83.4988 2291.9 83.4988H2268.1C2264.82 83.4988 2262.17 86.1545 2262.17 89.4305V175.966L2268.26 174.194L2294.24 196.465L2297.84 193.987V89.4305Z" fill="#9DA3B1"/>
<path d="M2334.86 47.937H2311.06C2307.78 47.937 2305.12 50.5927 2305.12 53.8687V188.969L2340.79 164.416V53.8687C2340.79 50.5927 2338.14 47.937 2334.86 47.937Z" fill="white"/>
<path d="M2254.88 178.085V127.728C2254.88 124.452 2252.22 121.797 2248.94 121.797H2225.14C2221.86 121.797 2219.21 124.452 2219.21 127.728V188.457L2254.88 178.085Z" fill="#9DA3B1"/>
<path d="M2286.4 200.356C2285.18 200.356 2283.98 199.913 2283.03 199.051L2261.85 179.749L2201.9 196.319C2199.24 197.054 2196.49 195.494 2195.75 192.832C2195.01 190.17 2196.58 187.417 2199.24 186.681L2261.84 169.375C2263.5 168.918 2265.27 169.34 2266.54 170.498L2286.97 189.111L2356.79 145.656C2359.13 144.196 2362.22 144.914 2363.68 147.259C2365.14 149.604 2364.42 152.687 2362.07 154.146L2289.04 199.601C2288.23 200.107 2287.31 200.356 2286.4 200.356Z" fill="white"/>
<path d="M2349.48 137.903L2369.06 141.577C2369.96 141.745 2370.55 142.607 2370.38 143.504L2366.71 163.088C2366.44 164.534 2364.55 164.93 2363.72 163.716L2347.81 140.458C2346.98 139.244 2348.03 137.632 2349.48 137.903Z" fill="white"/>
<g opacity="0.1">
<path opacity="0.3" d="M2192.04 120C2192.04 83 2214.89 51.3358 2247.24 38.3438" stroke="white" stroke-width="25.2" stroke-linecap="round" stroke-linejoin="round"/>
<path opacity="0.3" d="M2202.17 161.022C2201.01 158.814 2199.93 156.551 2198.95 154.238" stroke="white" stroke-width="25.2" stroke-linecap="round" stroke-linejoin="round"/>
</g>
</g>
<g clip-path="url(#clip1_6007_8652)">
<path opacity="0.3" d="M2520 240C2586.27 240 2640 186.274 2640 120C2640 53.7258 2586.27 0 2520 0C2453.73 0 2400 53.7258 2400 120C2400 186.274 2453.73 240 2520 240Z" fill="#284AC1"/>
<path d="M2426.02 73.6637C2433.57 57.6747 2481.78 64.6002 2533.68 89.1323C2585.59 113.664 2621.54 146.513 2613.99 162.502" stroke="#416DC4" stroke-width="10.2498" stroke-linecap="round" stroke-linejoin="round"/>
<path opacity="0.3" d="M2611.73 59.35C2611.73 59.8184 2611.45 60.2408 2611.01 60.4097L2604.25 63.0052C2601.87 63.919 2600 65.8234 2599.12 68.2269L2596.55 75.3146C2596.53 75.3676 2596.49 75.4053 2596.47 75.4532C2596.44 75.4925 2596.42 75.5312 2596.4 75.5671C2596.35 75.6217 2596.31 75.6707 2596.26 75.7149C2596.18 75.7857 2596.1 75.8473 2596 75.8905C2595.94 75.9136 2595.88 75.9365 2595.81 75.9442C2595.75 75.9596 2595.69 75.9673 2595.63 75.9673L2595.43 75.9442C2595.37 75.9365 2595.31 75.9136 2595.25 75.8905C2595.14 75.8465 2595.06 75.7832 2594.98 75.7107C2594.93 75.6679 2594.89 75.6199 2594.85 75.5673C2594.82 75.5366 2594.8 75.5041 2594.78 75.4707C2594.75 75.4175 2594.71 75.3743 2594.69 75.3146L2592.11 68.2269C2591.25 65.8234 2589.38 63.919 2587 63.0052L2580.23 60.4097C2579.8 60.2408 2579.5 59.8184 2579.5 59.35C2579.5 58.8585 2579.83 58.4209 2580.3 58.2749L2586.48 56.3245C2589.16 55.4798 2591.28 53.4064 2592.18 50.7495L2594.7 43.3085C2594.73 43.2241 2594.77 43.1473 2594.82 43.0783C2594.85 43.0322 2594.88 42.9861 2594.92 42.9476C2595.02 42.8479 2595.13 42.7711 2595.27 42.7173C2595.31 42.7019 2595.35 42.6866 2595.4 42.6789C2595.47 42.6559 2595.55 42.6482 2595.62 42.6482C2595.7 42.6482 2595.78 42.6559 2595.84 42.6789C2595.89 42.6866 2595.94 42.7019 2595.98 42.7173C2596.1 42.7634 2596.21 42.8402 2596.3 42.9247C2596.34 42.9631 2596.37 43.0013 2596.4 43.0399C2596.46 43.1242 2596.51 43.2087 2596.54 43.3085L2599.06 50.7495C2599.96 53.4064 2602.08 55.4798 2604.75 56.3245L2610.94 58.2749C2611.42 58.4209 2611.73 58.8585 2611.73 59.35Z" fill="#284AC1"/>
<path opacity="0.3" d="M2579.5 42.6695C2579.5 42.9037 2579.36 43.1149 2579.14 43.1993L2575.76 44.4971C2574.57 44.954 2573.64 45.9062 2573.2 47.1079L2571.91 50.6518C2571.9 50.6783 2571.88 50.6971 2571.87 50.7211C2571.86 50.7407 2571.85 50.7601 2571.83 50.778C2571.81 50.8053 2571.79 50.8298 2571.77 50.8519C2571.73 50.8873 2571.68 50.9181 2571.64 50.9397C2571.61 50.9513 2571.57 50.9627 2571.54 50.9666C2571.51 50.9743 2571.48 50.9781 2571.45 50.9781L2571.35 50.9666C2571.32 50.9627 2571.29 50.9513 2571.26 50.9397C2571.21 50.9177 2571.16 50.8861 2571.12 50.8498C2571.1 50.8284 2571.08 50.8044 2571.06 50.7781C2571.05 50.7628 2571.04 50.7465 2571.03 50.7298C2571.01 50.7032 2570.99 50.6816 2570.98 50.6518L2569.69 47.1079C2569.26 45.9062 2568.33 44.954 2567.14 44.4971L2563.75 43.1993C2563.53 43.1149 2563.39 42.9037 2563.39 42.6695C2563.39 42.4237 2563.55 42.2049 2563.78 42.1319L2566.88 41.1567C2568.22 40.7344 2569.27 39.6977 2569.73 38.3692L2570.99 34.6487C2571 34.6065 2571.02 34.5681 2571.04 34.5336C2571.06 34.5106 2571.08 34.4875 2571.1 34.4683C2571.14 34.4184 2571.2 34.38 2571.27 34.3531C2571.29 34.3454 2571.31 34.3378 2571.34 34.3339C2571.37 34.3224 2571.41 34.3186 2571.45 34.3186C2571.49 34.3186 2571.52 34.3224 2571.56 34.3339C2571.58 34.3378 2571.61 34.3454 2571.62 34.3531C2571.69 34.3762 2571.74 34.4146 2571.79 34.4568C2571.8 34.476 2571.82 34.4951 2571.84 34.5144C2571.87 34.5566 2571.89 34.5988 2571.91 34.6487L2573.17 38.3692C2573.62 39.6977 2574.68 40.7344 2576.01 41.1567L2579.11 42.1319C2579.35 42.2049 2579.5 42.4237 2579.5 42.6695Z" fill="#284AC1"/>
<path opacity="0.3" d="M2483.6 198.22C2483.66 198.546 2483.52 198.878 2483.24 199.055L2478.88 201.772C2477.34 202.728 2476.3 204.306 2476.01 206.098L2475.17 211.381C2475.16 211.42 2475.14 211.452 2475.13 211.489C2475.12 211.519 2475.11 211.549 2475.1 211.578C2475.07 211.621 2475.05 211.661 2475.02 211.699C2474.98 211.758 2474.92 211.813 2474.86 211.856C2474.82 211.881 2474.78 211.905 2474.74 211.919C2474.7 211.938 2474.66 211.951 2474.62 211.959L2474.47 211.97C2474.43 211.973 2474.38 211.965 2474.34 211.957C2474.26 211.94 2474.19 211.908 2474.13 211.869C2474.09 211.845 2474.05 211.817 2474.02 211.786C2474 211.768 2473.98 211.748 2473.96 211.727C2473.93 211.694 2473.89 211.67 2473.87 211.632L2471.13 207.04C2470.2 205.482 2468.64 204.406 2466.86 204.089L2461.8 203.19C2461.47 203.131 2461.21 202.876 2461.15 202.55C2461.08 202.208 2461.25 201.859 2461.56 201.695L2465.61 199.504C2467.36 198.556 2468.55 196.828 2468.83 194.855L2469.58 189.333C2469.59 189.27 2469.61 189.212 2469.63 189.157C2469.64 189.121 2469.66 189.085 2469.69 189.052C2469.74 188.97 2469.81 188.901 2469.9 188.845C2469.92 188.829 2469.95 188.812 2469.98 188.801C2470.03 188.775 2470.08 188.76 2470.13 188.749C2470.19 188.739 2470.24 188.734 2470.29 188.741C2470.33 188.74 2470.36 188.744 2470.39 188.75C2470.48 188.766 2470.57 188.805 2470.64 188.851C2470.67 188.873 2470.7 188.895 2470.73 188.918C2470.78 188.969 2470.83 189.02 2470.86 189.086L2473.62 193.931C2474.6 195.661 2476.36 196.821 2478.33 197.05L2482.91 197.577C2483.26 197.615 2483.53 197.877 2483.6 198.22Z" fill="#284AC1"/>
<path d="M2499.13 52.624L2453.5 84.1712C2446.7 88.8708 2443.27 97.1014 2444.71 105.238L2454.36 159.727C2455.8 167.864 2461.85 174.414 2469.85 176.493L2523.54 190.446C2529.49 191.992 2535.82 190.871 2540.87 187.376L2586.5 155.829C2593.3 151.129 2596.74 142.898 2595.29 134.761L2585.64 80.2726C2584.2 72.1355 2578.15 65.5854 2570.15 63.5068L2516.46 49.5537C2510.51 48.0077 2504.18 49.1286 2499.13 52.624Z" fill="#284AC1"/>
<path d="M2523.48 105.326C2520.69 107.259 2515.71 108.141 2512.42 107.286L2456.43 92.737C2453.15 91.8822 2452.74 89.6015 2455.54 87.6688L2503.12 54.7739C2505.91 52.8412 2510.89 51.9593 2514.18 52.8141L2570.16 67.3633C2573.45 68.2182 2573.86 70.4988 2571.06 72.4315L2523.48 105.326Z" fill="#284AC1"/>
<g opacity="0.3">
<path d="M2591.88 140.786C2592.47 144.133 2590.67 148.452 2587.88 150.385L2540.3 183.28C2537.5 185.212 2534.73 184.056 2534.14 180.709L2523.46 120.464C2522.87 117.117 2524.67 112.798 2527.47 110.865L2575.05 77.9706C2577.84 76.0379 2580.62 77.1946 2581.21 80.541L2591.88 140.786Z" fill="#0D3A9E"/>
</g>
<g opacity="0.5">
<path d="M2458.78 163.616C2459.37 166.962 2462.55 170.4 2465.84 171.255L2521.82 185.804C2525.11 186.659 2527.32 184.62 2526.72 181.274L2516.05 121.028C2515.46 117.682 2512.28 114.244 2508.99 113.39L2453.01 98.8404C2449.72 97.9856 2447.51 100.024 2448.11 103.371L2458.78 163.616Z" fill="#1B43B2"/>
</g>
<path d="M2613.98 162.502C2606.43 178.491 2558.22 171.565 2506.32 147.033C2454.41 122.501 2418.46 89.6526 2426.01 73.6636" stroke="#6C94EF" stroke-width="10.2498" stroke-linecap="round" stroke-linejoin="round"/>
<g opacity="0.1">
<path opacity="0.3" d="M2432.04 120C2432.04 83 2454.89 51.3358 2487.24 38.3438" stroke="white" stroke-width="25.2" stroke-linecap="round" stroke-linejoin="round"/>
<path opacity="0.3" d="M2442.17 161.022C2441.01 158.814 2439.93 156.551 2438.95 154.238" stroke="white" stroke-width="25.2" stroke-linecap="round" stroke-linejoin="round"/>
</g>
</g>
<defs>
<clipPath id="clip0_6007_8652">
<rect width="240" height="240" fill="white" transform="translate(2160)"/>
</clipPath>
<clipPath id="clip1_6007_8652">
<rect width="240" height="240" fill="white" transform="translate(2400)"/>
</clipPath>
</defs>
</svg>
