<svg width="108" height="25" viewBox="0 0 108 25" fill="none" xmlns="http://www.w3.org/2000/svg">
<g clip-path="url(#clip0_3478_36640)">
<path d="M23.6049 8.96056H15.5115V0.894531H8.4088V8.96056H0.31543V16.0391H8.4088V24.1051H15.5115V16.0391H23.6049V8.96056Z" fill="#E4E6EA"/>
</g>
<path d="M51.6045 16.0525V8.94727L28.315 8.94727V16.0525H51.6045Z" fill="#E4E6EA"/>
<path d="M78.7374 6.78117L73.7189 1.7627L68.0005 7.48111L62.2821 1.7627L57.2637 6.78117L62.982 12.4995L57.2637 18.2179L62.2821 23.2364L68.0005 17.518L73.7189 23.2364L78.7374 18.2179L73.0189 12.4995L78.7374 6.78117Z" fill="#E4E6EA"/>
<path d="M106.974 15.5785V9.2627L85.0263 9.2627V15.5785L106.974 15.5785Z" fill="#E4E6EA"/>
<path d="M99.1572 24.4211V18.0264H92.8414V24.4211H99.1572Z" fill="#E4E6EA"/>
<path d="M99.1572 6.81579V0.5L92.8414 0.5V6.81579H99.1572Z" fill="#E4E6EA"/>
<defs>
<clipPath id="clip0_3478_36640">
<rect width="24" height="24" fill="white" transform="translate(0 0.5)"/>
</clipPath>
</defs>
</svg>
