<svg width="128" height="96" viewBox="0 0 128 96" fill="none" xmlns="http://www.w3.org/2000/svg">
<mask id="mask0_6137_13419" style="mask-type:luminance" maskUnits="userSpaceOnUse" x="0" y="0" width="128" height="96">
<path d="M128 0H0V96H128V0Z" fill="white"/>
</mask>
<g mask="url(#mask0_6137_13419)">
<mask id="mask1_6137_13419" style="mask-type:luminance" maskUnits="userSpaceOnUse" x="0" y="0" width="128" height="113">
<path d="M128 0H0V112.525H128V0Z" fill="white"/>
</mask>
<g mask="url(#mask1_6137_13419)">
<path d="M68.6006 61.0725C63.0592 61.0725 58.5603 56.5736 58.5603 51.0322V33.0422C58.5603 32.4028 59.0793 31.8838 59.7187 31.8838H77.4825C78.1219 31.8838 78.6409 32.4028 78.6409 33.0422V51.0322C78.6409 56.5736 74.142 61.0725 68.6006 61.0725Z" fill="#FFC200"/>
<path d="M72.0876 79.0242C63.8899 79.0242 57.8598 75.7692 56.3733 73.9929C54.2239 71.4236 54.5638 67.5982 57.1331 65.4482C59.3411 63.599 62.4789 63.5905 64.6829 65.2593C65.8243 65.8773 74.5592 70.1128 85.6407 62.0226C88.3475 60.047 92.1416 60.6396 94.1165 63.345C96.092 66.0511 95.4994 69.8459 92.794 71.8207C85.3503 77.2551 78.1301 79.0242 72.0876 79.0242Z" fill="#8E67EF"/>
<path d="M57.8564 112.525C57.1635 112.525 56.4597 112.429 55.761 112.227C51.7729 111.071 49.4763 106.901 50.6314 102.913C55.0917 87.5175 50.5149 70.0132 50.468 69.838C49.3969 65.8264 51.78 61.7054 55.7916 60.6337C59.8058 59.5671 63.9248 61.9464 64.996 65.9573C65.231 66.837 70.6862 87.7258 65.0748 107.097C64.1215 110.387 61.1179 112.525 57.8564 112.525Z" fill="#A678FF"/>
<path d="M26.761 112.525C23.4995 112.525 20.4959 110.387 19.5426 107.097C13.9312 87.726 19.3863 66.8371 19.6214 65.9574C20.6925 61.9458 24.8096 59.564 28.8258 60.6338C32.8341 61.7049 35.2166 65.8187 34.152 69.8277C34.0784 70.109 29.5739 87.6823 33.986 102.913C35.1411 106.901 32.8446 111.071 28.8564 112.227C28.1577 112.429 27.4532 112.525 26.761 112.525Z" fill="#A678FF"/>
<path d="M40.1561 102.315H44.4613C57.3865 102.315 67.5529 91.2706 66.4849 78.3896L65.8116 70.2682C64.8615 58.8105 55.285 49.9951 43.7879 49.9951H40.8295C29.3326 49.9951 19.756 58.8105 18.806 70.2682L18.1327 78.3896C17.0647 91.2706 27.2309 102.315 40.1561 102.315Z" fill="#A678FF"/>
<path d="M36.9338 92.6361H55.0066C56.0988 92.6361 56.9843 91.7507 56.9843 90.6585V80.0704C56.9843 78.9782 56.0988 78.0928 55.0066 78.0928H36.9338C35.8416 78.0928 34.9561 78.9782 34.9561 80.0704V90.6585C34.9561 91.7507 35.8416 92.6361 36.9338 92.6361Z" fill="#8E67EF"/>
<path d="M13.6879 97.1298C10.6139 97.1298 7.97882 94.802 7.66042 91.6786C5.45832 70.0696 20.2011 59.8117 24.1678 59.1411C27.4684 58.5804 30.6009 60.8066 31.1603 64.1098C31.6408 66.9494 30.0638 69.6619 27.5133 70.722C26.4044 71.3959 18.3389 76.7996 19.7297 90.4479C20.0697 93.781 17.6429 96.758 14.3104 97.0979C14.1014 97.1193 13.893 97.1298 13.6879 97.1298Z" fill="#8E67EF"/>
<path d="M7.59863 42.8033C7.59863 61.6563 22.882 72.2142 41.735 72.2142C60.588 72.2142 75.8714 61.6564 75.8714 42.8033C75.8714 23.9502 60.588 8.66699 41.735 8.66699C22.882 8.66699 7.59863 23.9504 7.59863 42.8033Z" fill="#A678FF"/>
<path d="M14.2041 61.0725C8.66272 61.0725 4.16382 56.5736 4.16382 51.0322V33.0422C4.16382 32.4028 4.68282 31.8838 5.32222 31.8838H23.086C23.7254 31.8838 24.2444 32.4028 24.2444 33.0422V51.0322C24.2444 56.5736 19.7455 61.0725 14.2041 61.0725Z" fill="#FFC200"/>
<path d="M70.6823 16.6394L61.6453 7.60252L63.4299 5.81792C64.2952 4.95262 65.7003 4.95262 66.5656 5.81792L72.4669 11.7192C73.3322 12.5845 73.3322 13.9896 72.4669 14.8549L70.6823 16.6394Z" fill="#FFC200"/>
<path d="M11.0036 11.7193L16.905 5.81792C17.7703 4.95262 19.1753 4.95262 20.0406 5.81792L21.8252 7.60252L12.7882 16.6395L11.0036 14.8549C10.1384 13.9896 10.1384 12.5846 11.0036 11.7193Z" fill="#FFC200"/>
<path d="M5.08887 34.7614C6.26607 15.521 22.1985 0.268555 41.735 0.268555C61.2715 0.268555 77.2044 15.521 78.3815 34.7613L5.08887 34.7614Z" fill="#FFDC00"/>
<path d="M48.9439 27.6706C48.9439 27.3265 50.9379 3.59028 29.3145 2.42438L29.4135 2.08618C29.6672 1.21888 30.5246 0.673884 31.4177 0.812484L49.5364 3.62448L54.45 27.2835L48.9439 27.6706Z" fill="#FFB600"/>
<path d="M40.2008 0C40.2008 0 62.2541 2.1616 64.6938 26.896H50.7628C50.7628 26.896 55.8078 4.74 31.0303 0.7825L40.2008 0Z" fill="#FFC200"/>
<path d="M82.7402 36.2297H0.73C0.3271 36.2297 0 35.9026 0 35.4997C0 30.2901 4.2296 26.0605 9.4392 26.0605H74.031C79.2406 26.0605 83.4702 30.2901 83.4702 35.4997C83.4702 35.9026 83.1431 36.2297 82.7402 36.2297Z" fill="#FFAA00"/>
<path d="M33.1153 53.6595H68.2545C71.2354 53.6595 73.652 51.2429 73.652 48.262V36.09C73.652 33.109 71.2354 30.6924 68.2545 30.6924H33.1153C30.1344 30.6924 27.7178 33.109 27.7178 36.09V48.262C27.7178 51.2429 30.1344 53.6595 33.1153 53.6595Z" fill="#F1F1FF"/>
<path d="M68.255 55.1669H33.1157C29.3079 55.1669 26.2104 52.0695 26.2104 48.2623V36.0901C26.2104 32.283 29.3079 29.1855 33.1157 29.1855H68.255C72.0621 29.1855 75.1595 32.283 75.1595 36.0901V48.2623C75.1595 52.0695 72.0621 55.1669 68.255 55.1669ZM33.1156 32.2003C30.9701 32.2003 29.225 33.9454 29.225 36.0902V48.2624C29.225 50.4072 30.9701 52.1523 33.1156 52.1523H68.2549C70.3997 52.1523 72.1447 50.4072 72.1447 48.2624V36.0902C72.1447 33.9454 70.3997 32.2003 68.2549 32.2003H33.1156Z" fill="white"/>
<path d="M73.7375 49.7526L76.2395 49.1906C77.5866 48.888 78.5439 47.6918 78.5439 46.3111V38.631C78.5439 37.2503 77.5867 36.0541 76.2395 35.7515L73.7375 35.1895V49.7526Z" fill="white"/>
<path d="M27.6323 35.1895L25.1304 35.7515C23.7832 36.054 22.8259 37.2502 22.8259 38.6309V46.3111C22.8259 47.6918 23.7832 48.8879 25.1304 49.1905L27.6323 49.7525V35.1895Z" fill="white"/>
<path d="M63.3496 48.8696C67.0464 48.8696 70.0432 45.8728 70.0432 42.176C70.0432 38.4792 67.0464 35.4824 63.3496 35.4824C59.6528 35.4824 56.656 38.4792 56.656 42.176C56.656 45.8728 59.6528 48.8696 63.3496 48.8696Z" fill="white"/>
<path d="M63.3496 46.5381C65.7588 46.5381 67.7119 44.585 67.7119 42.1758C67.7119 39.7666 65.7588 37.8135 63.3496 37.8135C60.9404 37.8135 58.9873 39.7665 58.9873 42.1758C58.9873 44.5851 60.9403 46.5381 63.3496 46.5381Z" fill="black"/>
<path opacity="0.13" d="M63.3497 42.0516C64.3386 42.0516 65.1403 41.4238 65.1403 40.6494C65.1403 39.875 64.3386 39.2471 63.3497 39.2471C62.3608 39.2471 61.5591 39.8749 61.5591 40.6494C61.5591 41.4239 62.3608 42.0516 63.3497 42.0516Z" fill="white"/>
<path d="M42.8428 48.8696C46.5396 48.8696 49.5364 45.8728 49.5364 42.176C49.5364 38.4792 46.5396 35.4824 42.8428 35.4824C39.146 35.4824 36.1492 38.4792 36.1492 42.176C36.1492 45.8728 39.146 48.8696 42.8428 48.8696Z" fill="white"/>
<path d="M42.8428 46.5381C45.252 46.5381 47.2051 44.585 47.2051 42.1758C47.2051 39.7666 45.252 37.8135 42.8428 37.8135C40.4336 37.8135 38.4805 39.7665 38.4805 42.1758C38.4805 44.5851 40.4336 46.5381 42.8428 46.5381Z" fill="black"/>
<path opacity="0.13" d="M42.8428 42.0516C43.8317 42.0516 44.6334 41.4238 44.6334 40.6494C44.6334 39.875 43.8317 39.2471 42.8428 39.2471C41.8539 39.2471 41.0522 39.8749 41.0522 40.6494C41.0522 41.4239 41.8539 42.0516 42.8428 42.0516Z" fill="white"/>
<path d="M71.1564 59.3791C73.6932 59.3791 75.7497 57.3226 75.7497 54.7858C75.7497 52.249 73.6932 50.1924 71.1564 50.1924C68.6196 50.1924 66.563 52.2489 66.563 54.7858C66.563 57.3227 68.6195 59.3791 71.1564 59.3791Z" fill="#253238"/>
<path d="M111.292 51.2034C115.002 51.2034 118.01 48.1959 118.01 44.486C118.01 40.7761 115.002 37.7686 111.292 37.7686C107.582 37.7686 104.575 40.7761 104.575 44.486C104.575 48.1959 107.583 51.2034 111.292 51.2034Z" fill="#253238"/>
<path d="M94.1605 77.1873L89.404 78.4079C88.6079 78.6122 87.7734 78.2593 87.3655 77.5457L77.7708 60.7617C77.1728 59.7155 77.7346 58.3872 78.9019 58.0877L83.6583 56.867C84.4544 56.6627 85.2889 57.0157 85.6968 57.7292L95.2915 74.5132C95.8896 75.5594 95.3277 76.8878 94.1605 77.1873Z" fill="#253238"/>
<path d="M104.085 27.7266L90.3109 41.2122L72.2693 47.8436C70.7672 48.3956 69.927 49.9952 70.3247 51.5453L72.13 58.5796C72.5278 60.1298 74.0345 61.1271 75.6169 60.8877L94.6222 58.0116L113.188 63.1977L104.085 27.7266Z" fill="#3D4077"/>
<path d="M94.7108 58.0364L112.09 62.8912L113.046 62.6459L104.085 27.7266L90.3767 41.1477L94.7108 58.0364Z" fill="#565C9B"/>
<path d="M108.378 28.8353C107.873 26.8696 105.871 25.685 103.905 26.1894C101.939 26.6939 100.755 28.6964 101.259 30.6622L109.297 61.9844C109.802 63.9502 111.804 65.1348 113.77 64.6303C115.736 64.1258 116.92 62.1233 116.416 60.1575L108.378 28.8353Z" fill="#3D4077"/>
<path d="M111.609 8.35059L108.838 21.9473L114.914 21.4902L114.341 31.8847L119.777 18.3896L113.399 17.6496L111.609 8.35059Z" fill="#FFC200"/>
<path d="M127.288 22.0195L120.516 28.5593L124.09 30.6376L119.777 36.2307L128 30.7712L124.718 27.9078L127.288 22.0195Z" fill="#FFC200"/>
</g>
</g>
</svg>
