<svg width="128" height="96" viewBox="0 0 128 96" fill="none" xmlns="http://www.w3.org/2000/svg">
<g clip-path="url(#clip0_4291_30162)">
<path d="M55.6198 83.6422C48.6239 83.6422 43.3776 81.376 41.8454 79.8957C39.275 77.4149 39.2028 73.3199 41.6843 70.7502C43.8179 68.5395 47.145 68.1778 49.6702 69.697C50.9498 70.2247 60.6903 73.7324 71.5306 63.9078C74.178 61.5097 78.2682 61.7111 80.667 64.357C83.0659 67.0038 82.8645 71.0946 80.2178 73.4935C71.5862 81.3162 62.7053 83.6422 55.6198 83.6422Z" fill="#3BA8FA"/>
<path d="M52.9793 123.851C52.2413 123.851 51.49 123.748 50.745 123.532C46.4924 122.301 44.0435 117.854 45.2752 113.601C49.9937 97.311 45.1467 78.5069 45.0975 78.3188C43.9713 74.0426 46.5187 69.6545 50.7936 68.5214C55.0684 67.3876 59.4523 69.9225 60.5924 74.1953C60.843 75.1333 66.6592 97.4075 60.6764 118.063C59.6599 121.57 56.4571 123.851 52.9793 123.851Z" fill="#57CBF4"/>
<path d="M19.8213 123.851C16.3435 123.851 13.1406 121.57 12.1241 118.063C6.14129 97.4076 11.9575 75.1334 12.2082 74.1954C13.351 69.9178 17.7418 67.371 22.0223 68.518C26.2964 69.6595 28.8376 74.0468 27.7024 78.321C27.6254 78.6167 22.8207 97.3589 27.5254 113.601C28.7571 117.854 26.3083 122.301 22.0556 123.532C21.3106 123.748 20.5594 123.851 19.8213 123.851Z" fill="#57CBF4"/>
<path d="M34.1048 112.963H38.6955C52.4779 112.963 63.3185 101.187 62.1796 87.4516L61.4616 78.7915C60.4486 66.574 50.237 57.174 37.9775 57.174H34.8229C22.5634 57.174 12.3518 66.574 11.3388 78.7915L10.6208 87.4516C9.48193 101.187 20.3224 112.963 34.1048 112.963Z" fill="#57CBF4"/>
<path d="M32.9067 102.643H52.178C53.3427 102.643 54.2869 101.699 54.2869 100.534V89.2442C54.2869 88.0795 53.3427 87.1354 52.178 87.1354H32.9067C31.742 87.1354 30.7978 88.0795 30.7978 89.2442V100.534C30.7978 101.699 31.742 102.643 32.9067 102.643Z" fill="#37BEE2"/>
<path d="M44.3976 103.982C23.6072 103.982 14.1104 89.2858 13.5473 85.2463C13.0543 81.708 15.5226 78.4406 19.0608 77.947C22.1061 77.527 24.9465 79.2891 25.9963 82.0421C26.6795 83.2446 32.1979 92.0151 46.7785 90.9577C50.3444 90.7126 53.439 93.3801 53.6959 96.9433C53.9528 100.506 51.2734 103.603 47.7103 103.861C46.5771 103.943 45.471 103.982 44.3976 103.982Z" fill="#3BA8FA"/>
<path d="M16.4472 14.3281C20.0308 14.3281 22.9359 11.423 22.9359 7.83941C22.9359 4.2558 20.0308 1.35071 16.4472 1.35071C12.8636 1.35071 9.9585 4.2558 9.9585 7.83941C9.9585 11.423 12.8636 14.3281 16.4472 14.3281Z" fill="#3192D9"/>
<path d="M18.9319 9.71968L15.9136 10.9093L20.6007 22.8016L23.619 21.612L18.9319 9.71968Z" fill="#3192D9"/>
<path d="M54.6826 14.3282C58.2662 14.3282 61.1713 11.4231 61.1713 7.83954C61.1713 4.25592 58.2662 1.35083 54.6826 1.35083C51.0989 1.35083 48.1938 4.25592 48.1938 7.83954C48.1938 11.4231 51.0989 14.3282 54.6826 14.3282Z" fill="#3192D9"/>
<path d="M52.1979 9.71985L47.5107 21.6122L50.5291 22.8018L55.2162 10.9095L52.1979 9.71985Z" fill="#3192D9"/>
<path d="M0 49.5057C0 69.609 16.2969 80.867 36.4003 80.867C56.5037 80.867 72.8006 69.609 72.8006 49.5057C72.8006 29.4023 56.5037 13.1053 36.4003 13.1053C16.2969 13.1053 0 29.4023 0 49.5057Z" fill="#57CBF4"/>
<path d="M15.2815 52.6738C15.2815 67.2781 27.1207 71.1658 41.725 71.1658C56.3294 71.1658 68.1686 67.2782 68.1686 52.6738C68.1686 38.0695 56.3294 33.0184 41.725 33.0184C27.1207 33.0184 15.2815 38.0695 15.2815 52.6738Z" fill="#CCECFF"/>
<path d="M41.7247 72.773C22.8492 72.773 13.6738 66.1986 13.6738 52.6734C13.6738 38.9621 23.6358 31.4109 41.7247 31.4109C59.8136 31.4109 69.7762 38.9622 69.7762 52.6734C69.7762 66.1986 60.6003 72.773 41.7247 72.773ZM41.7247 34.6255C30.3942 34.6255 16.8885 37.7568 16.8885 52.6734C16.8885 64.1934 24.78 69.5583 41.7247 69.5583C58.6693 69.5583 66.5616 64.1934 66.5616 52.6734C66.5616 37.7568 53.0551 34.6255 41.7247 34.6255Z" fill="white"/>
<path d="M56.4544 59.2293C60.3964 59.2293 63.592 56.0337 63.592 52.0918C63.592 48.1498 60.3964 44.9542 56.4544 44.9542C52.5125 44.9542 49.3169 48.1498 49.3169 52.0918C49.3169 56.0337 52.5125 59.2293 56.4544 59.2293Z" fill="white"/>
<path d="M56.4546 56.7434C59.0236 56.7434 61.1062 54.6608 61.1062 52.0918C61.1062 49.5228 59.0236 47.4402 56.4546 47.4402C53.8856 47.4402 51.803 49.5228 51.803 52.0918C51.803 54.6608 53.8856 56.7434 56.4546 56.7434Z" fill="#003A7F"/>
<path opacity="0.13" d="M56.4542 51.9596C57.5087 51.9596 58.3636 51.2902 58.3636 50.4644C58.3636 49.6386 57.5087 48.9691 56.4542 48.9691C55.3998 48.9691 54.5449 49.6386 54.5449 50.4644C54.5449 51.2902 55.3998 51.9596 56.4542 51.9596Z" fill="white"/>
<path d="M34.5875 59.2294C38.5294 59.2294 41.725 56.0338 41.725 52.0919C41.725 48.1499 38.5294 44.9543 34.5875 44.9543C30.6455 44.9543 27.45 48.1499 27.45 52.0919C27.45 56.0338 30.6455 59.2294 34.5875 59.2294Z" fill="white"/>
<path d="M34.5877 56.7435C37.1567 56.7435 39.2393 54.6609 39.2393 52.0919C39.2393 49.5229 37.1567 47.4403 34.5877 47.4403C32.0186 47.4403 29.936 49.5229 29.936 52.0919C29.936 54.6609 32.0186 56.7435 34.5877 56.7435Z" fill="#003A7F"/>
<path opacity="0.13" d="M34.5873 51.9597C35.6418 51.9597 36.4966 51.2903 36.4966 50.4645C36.4966 49.6387 35.6418 48.9692 34.5873 48.9692C33.5328 48.9692 32.678 49.6387 32.678 50.4645C32.678 51.2903 33.5328 51.9597 34.5873 51.9597Z" fill="white"/>
<path d="M45.5272 61.2483C44.0407 61.2483 42.6542 60.6075 41.6946 59.4827C41.2066 59.0245 41.1358 58.2677 41.5565 57.7296C41.8037 57.4143 42.1876 57.2207 42.5883 57.2185C42.9882 57.2102 43.3749 57.3893 43.6256 57.7025C44.0928 58.292 44.7844 58.6259 45.5273 58.6259H45.5287C46.2723 58.6252 46.9632 58.2913 47.4242 57.708C47.8741 57.1394 48.699 57.045 49.2662 57.4935C49.8341 57.9434 49.9299 58.7675 49.4807 59.3355C48.5191 60.5498 47.0791 61.2469 45.5301 61.2483L45.5272 61.2483Z" fill="#232323"/>
<path d="M66.0049 63.1192C68.71 63.1192 70.9029 60.9263 70.9029 58.2212C70.9029 55.5161 68.71 53.3232 66.0049 53.3232C63.2998 53.3232 61.1069 55.5161 61.1069 58.2212C61.1069 60.9263 63.2998 63.1192 66.0049 63.1192Z" fill="#253238"/>
<path d="M108.803 54.4009C112.759 54.4009 115.966 51.194 115.966 47.238C115.966 43.282 112.759 40.0751 108.803 40.0751C104.847 40.0751 101.64 43.282 101.64 47.238C101.64 51.194 104.847 54.4009 108.803 54.4009Z" fill="#253238"/>
<path d="M90.5345 82.1079L85.4626 83.4095C84.6137 83.6273 83.7238 83.251 83.2889 82.4901L73.0579 64.5931C72.4201 63.4775 73.0193 62.061 74.2639 61.7416L79.3358 60.44C80.1847 60.2222 81.0745 60.5985 81.5095 61.3594L91.7405 79.2565C92.3782 80.3721 91.7791 81.7885 90.5345 82.1079Z" fill="#253238"/>
<path d="M101.117 29.3667L86.4298 43.7466L67.1917 50.8178C65.5899 51.4064 64.6939 53.1121 65.1181 54.765L67.0431 62.2659C67.4672 63.9188 69.0739 64.9823 70.7612 64.727L91.0269 61.6602L110.824 67.1902L101.117 29.3667Z" fill="#3D4077"/>
<path d="M91.1215 61.6867L109.654 66.8634L110.673 66.6019L101.117 29.3667L86.5 43.6779L91.1215 61.6867Z" fill="#565C9B"/>
<path d="M105.695 30.5496C105.157 28.4535 103.022 27.1903 100.926 27.7283C98.8294 28.2662 97.5662 30.4015 98.1041 32.4977L106.675 65.8971C107.213 67.9933 109.349 69.2565 111.445 68.7185C113.541 68.1806 114.804 66.0453 114.266 63.9491L105.695 30.5496Z" fill="#3D4077"/>
<path d="M109.14 8.70654L106.185 23.2051L112.665 22.7177L112.054 33.8015L117.85 19.4113L111.049 18.6224L109.14 8.70654Z" fill="#FFC200"/>
<path d="M125.859 23.2825L118.638 30.2558L122.449 32.4721L117.85 38.436L126.619 32.6145L123.118 29.5612L125.859 23.2825Z" fill="#FFC200"/>
</g>
<defs>
<clipPath id="clip0_4291_30162">
<rect width="128" height="96" fill="white"/>
</clipPath>
</defs>
</svg>
