<svg width="1600" height="160" viewBox="0 0 1600 160" fill="none" xmlns="http://www.w3.org/2000/svg">
<g clip-path="url(#clip0_6073_41578)">
<path d="M160 0H0V160H160V0Z" fill="#62CEF5"/>
<path d="M136.57 83.3871C136.57 65.3402 127.862 48.4857 113.467 37.9779C117.087 36.599 120.085 33.7533 121.579 29.9623C122.962 26.4516 122.896 22.6127 121.392 19.1518C119.888 15.6909 117.126 13.0229 113.616 11.6391C106.368 8.78753 98.1494 12.3569 95.2939 19.603C94.0615 22.73 94.0156 26.0854 94.9951 29.1167C90.2524 27.8355 85.3608 27.189 80.3721 27.189C76.2779 27.189 72.2359 27.6285 68.2832 28.5005C69.0669 25.6343 68.9497 22.5191 67.8003 19.603C64.9443 12.3569 56.7256 8.78563 49.478 11.6391C45.9673 13.0229 43.2055 15.6909 41.7016 19.1518C40.1972 22.6127 40.1313 26.4516 41.5146 29.9623C42.8037 33.2318 45.2099 35.7982 48.1699 37.3275C33.1972 47.7552 24.1743 64.7748 24.1743 83.3871C24.1743 95.7435 28.1753 106.567 35.8008 114.99C29.5103 122.601 23.3482 134.529 23.4312 152.003C23.4683 159.741 29.792 166.035 37.5948 166.035C37.8482 166.034 38.1011 166.026 38.3531 166.011C39.0181 171.356 40.046 176.446 41.4244 181.205C43.4288 188.123 49.8556 192.955 57.0528 192.955C58.5836 192.955 60.1094 192.738 61.5865 192.31C68.4371 190.326 72.9898 184.206 73.317 177.449C74.586 177.577 75.8629 177.641 77.1437 177.641H83.6007C84.881 177.641 86.1578 177.577 87.4274 177.45C87.7545 184.206 92.3073 190.326 99.1569 192.31C100.636 192.738 102.161 192.956 103.692 192.956C110.889 192.956 117.316 188.124 119.32 181.205C120.702 176.43 121.734 171.326 122.4 165.974C129.529 165.314 135.156 159.3 135.191 152.003C135.27 135.326 129.613 123.723 123.797 116.212C132.173 107.636 136.57 96.3891 136.57 83.3871Z" fill="white"/>
<path d="M108.437 33.9088C113.477 33.9088 117.563 29.8227 117.563 24.7823C117.563 19.7418 113.477 15.6558 108.437 15.6558C103.396 15.6558 99.31 19.7418 99.31 24.7823C99.31 29.8227 103.396 33.9088 108.437 33.9088Z" fill="#3192D9"/>
<path d="M104.942 27.4269L98.3492 44.1537L102.595 45.8269L109.187 29.1001L104.942 27.4269Z" fill="#3192D9"/>
<path d="M54.6575 33.9088C59.6979 33.9088 63.784 29.8227 63.784 24.7823C63.784 19.7418 59.6979 15.6558 54.6575 15.6558C49.6171 15.6558 45.531 19.7418 45.531 24.7823C45.531 29.8227 49.6171 33.9088 54.6575 33.9088Z" fill="#3192D9"/>
<path d="M58.1522 27.4268L53.9068 29.1L60.4993 45.8268L64.7447 44.1536L58.1522 27.4268Z" fill="#3192D9"/>
<path d="M121.094 161.035H121.05C116.026 161.01 111.972 156.918 111.995 151.894C112.093 131.317 99.2694 124.419 97.5165 123.575C93.5541 122.362 90.807 118.541 91.1132 114.232C91.4696 109.219 95.8163 105.449 100.833 105.802C106.851 106.229 130.345 119.408 130.191 151.98C130.167 156.99 126.098 161.035 121.094 161.035Z" fill="#3BA8FA"/>
<path d="M37.5277 161.035C32.5233 161.035 28.4549 156.99 28.431 151.98C28.2767 119.408 51.7708 106.229 57.7889 105.802C62.7996 105.437 67.1517 109.219 67.5086 114.232C67.8148 118.541 65.0677 122.362 61.1053 123.575C59.3524 124.419 46.5286 131.317 46.6263 151.894C46.6497 156.918 42.596 161.01 37.5716 161.035H37.5277Z" fill="#3BA8FA"/>
<path d="M57.0526 187.956C52.161 187.956 47.6561 184.748 46.2269 179.814C37.8119 150.761 45.9935 119.432 46.3456 118.113C47.953 112.097 54.1337 108.525 60.1498 110.128C66.1615 111.734 69.7357 117.905 68.1386 123.917C68.0282 124.339 61.2724 150.696 67.8891 173.539C69.6215 179.521 66.1772 185.775 60.1953 187.507C59.1479 187.811 58.0912 187.956 57.0526 187.956Z" fill="#57CBF4"/>
<path d="M103.691 187.956C102.652 187.956 101.597 187.811 100.549 187.507C94.5668 185.775 91.1224 179.521 92.8549 173.539C99.4916 150.625 92.6747 124.178 92.6049 123.914C91.0209 117.899 94.6044 111.727 100.617 110.133C106.628 108.535 112.794 112.105 114.399 118.114C114.751 119.433 122.932 150.761 114.517 179.814C113.088 184.748 108.582 187.956 103.691 187.956Z" fill="#57CBF4"/>
<path d="M83.6004 172.641H77.1435C57.7583 172.641 42.5108 156.077 44.1126 136.758L45.1225 124.578C46.5473 107.393 60.9101 94.1721 78.1534 94.1721H82.5904C99.8337 94.1721 114.196 107.393 115.621 124.578L116.631 136.758C118.233 156.077 102.986 172.641 83.6004 172.641Z" fill="#57CBF4"/>
<path d="M93.9248 136.314H66.8192C65.1811 136.314 63.8531 137.642 63.8531 139.28V155.16C63.8531 156.798 65.1811 158.126 66.8192 158.126H93.9248C95.5629 158.126 96.8909 156.798 96.8909 155.16V139.28C96.8909 137.642 95.5629 136.314 93.9248 136.314Z" fill="#3BA8FA"/>
<path d="M131.57 83.3868C131.57 111.662 108.648 127.497 80.3719 127.497C52.0961 127.497 29.1741 111.663 29.1741 83.3868C29.1741 55.111 52.0961 32.189 80.3719 32.189C108.648 32.189 131.57 55.111 131.57 83.3868Z" fill="#57CBF4"/>
<path d="M117.565 87.8421C117.565 108.383 100.913 113.851 80.372 113.851C59.8307 113.851 43.1786 108.384 43.1786 87.8421C43.1786 67.3007 59.8307 60.1964 80.372 60.1964C100.913 60.1964 117.565 67.3008 117.565 87.8421Z" fill="#CCECFF"/>
<path d="M80.3719 116.112C53.8236 116.112 40.9178 106.865 40.9178 87.8422C40.9178 68.557 54.9295 57.936 80.3719 57.936C105.814 57.936 119.826 68.5571 119.826 87.8422C119.826 106.865 106.92 116.112 80.3719 116.112ZM80.3719 62.4574C64.4359 62.4574 45.4393 66.8617 45.4393 87.8422C45.4393 104.044 56.5394 111.59 80.3719 111.59C104.204 111.59 115.304 104.044 115.304 87.8422C115.304 66.8617 96.3079 62.4574 80.3719 62.4574Z" fill="white"/>
<path d="M64.9939 97.0631C70.5383 97.0631 75.033 92.5684 75.033 87.024C75.033 81.4795 70.5383 76.9849 64.9939 76.9849C59.4495 76.9849 54.9548 81.4795 54.9548 87.024C54.9548 92.5684 59.4495 97.0631 64.9939 97.0631Z" fill="white"/>
<path d="M64.9939 93.5665C68.6073 93.5665 71.5365 90.6373 71.5365 87.0239C71.5365 83.4105 68.6073 80.4813 64.9939 80.4813C61.3805 80.4813 58.4513 83.4105 58.4513 87.0239C58.4513 90.6373 61.3805 93.5665 64.9939 93.5665Z" fill="#003A7F"/>
<path opacity="0.13" d="M64.9939 86.8379C66.477 86.8379 67.6794 85.8963 67.6794 84.7348C67.6794 83.5733 66.477 82.6317 64.9939 82.6317C63.5107 82.6317 62.3084 83.5733 62.3084 84.7348C62.3084 85.8963 63.5107 86.8379 64.9939 86.8379Z" fill="white"/>
<path d="M95.75 97.0631C101.294 97.0631 105.789 92.5684 105.789 87.024C105.789 81.4795 101.294 76.9849 95.75 76.9849C90.2056 76.9849 85.7109 81.4795 85.7109 87.024C85.7109 92.5684 90.2056 97.0631 95.75 97.0631Z" fill="white"/>
<path d="M95.75 93.5665C99.3634 93.5665 102.293 90.6373 102.293 87.0239C102.293 83.4105 99.3634 80.4813 95.75 80.4813C92.1366 80.4813 89.2074 83.4105 89.2074 87.0239C89.2074 90.6373 92.1366 93.5665 95.75 93.5665Z" fill="#003A7F"/>
<path opacity="0.13" d="M95.75 86.8379C97.2332 86.8379 98.4355 85.8963 98.4355 84.7348C98.4355 83.5733 97.2332 82.6317 95.75 82.6317C94.2669 82.6317 93.0645 83.5733 93.0645 84.7348C93.0645 85.8963 94.2669 86.8379 95.75 86.8379Z" fill="white"/>
<path d="M80.3632 99.9028H80.3588C78.1801 99.9008 76.1547 98.9204 74.8026 97.2124C74.1703 96.4136 74.3055 95.2543 75.1039 94.6215C75.9027 93.9906 77.0629 94.1245 77.6942 94.9234C78.3431 95.7437 79.3153 96.2134 80.3607 96.2144H80.3631C81.408 96.2144 82.3797 95.7447 83.0296 94.9263C83.3792 94.4859 83.9134 94.226 84.4759 94.226H84.4822C85.0471 94.228 85.5818 94.4867 85.93 94.9311C86.5213 95.687 86.4378 96.77 85.7552 97.4174C84.4056 98.9994 82.4545 99.9028 80.3632 99.9028Z" fill="#232323"/>
</g>
<g clip-path="url(#clip1_6073_41578)">
<path d="M320 0H160V160H320V0Z" fill="#63C928"/>
<path d="M287.551 103.872C288.476 102.074 289.08 100.078 289.334 97.973C294.095 93.1527 296.787 86.6605 296.787 79.8431C296.787 73.0257 294.097 66.5374 289.338 61.7181C289.087 59.6341 288.482 57.6253 287.552 55.8138C281.725 44.472 272.01 35.6507 260.163 30.9329C260.034 30.8694 259.901 30.8108 259.765 30.7581C259.611 30.6976 259.453 30.6429 259.272 30.5833C258.554 30.3128 257.829 30.0618 257.094 29.8196L256.831 29.7327C256.612 29.6585 256.392 29.5852 256.162 29.5139C255.014 29.1633 253.98 28.8772 252.932 28.6262L252.768 28.5881C252.085 28.427 251.398 28.2815 250.706 28.1467C250.679 28.1418 250.63 28.1321 250.602 28.1272C250.582 28.1223 250.468 28.0999 250.447 28.096C248.982 27.8206 247.455 27.6028 245.884 27.4466L245.327 27.3978C244.758 27.347 244.186 27.308 243.585 27.2748L242.97 27.2426C241.462 27.1781 239.922 27.1791 238.434 27.2416L237.783 27.2758C237.209 27.308 236.636 27.3471 236.096 27.3949L235.485 27.4496C233.939 27.6029 232.412 27.8207 230.933 28.099L230.699 28.1449C230.003 28.2787 229.312 28.4271 228.626 28.5873C228.616 28.5902 228.535 28.6088 228.526 28.6117L228.394 28.6429C227.398 28.8822 226.363 29.1673 225.222 29.5179C225 29.5863 224.78 29.6595 224.56 29.7337L224.305 29.8187C223.571 30.0589 222.843 30.3119 222.096 30.5912C221.939 30.6439 221.783 30.6976 221.629 30.7582C221.494 30.8109 221.362 30.8686 221.234 30.932C214.811 33.4886 209.015 37.2513 204.126 41.9691C203.532 37.6058 199.782 34.2318 195.258 34.2318C190.323 34.2318 186.308 38.2464 186.308 43.182C186.308 45.6468 187.328 47.931 189.013 49.5736L187.745 65.2601C184.775 69.5726 183.213 74.5814 183.213 79.8431C183.213 87.4183 186.579 94.6126 192.317 99.4984C192.632 101.045 193.142 102.509 193.842 103.87C195.287 106.685 196.987 109.365 198.918 111.88C192.036 118.961 183.66 131.751 183.756 152.003C183.793 159.741 190.117 166.034 197.92 166.034C198.174 166.033 198.427 166.026 198.679 166.011C199.343 171.357 200.371 176.447 201.749 181.205C203.754 188.123 210.181 192.955 217.378 192.955C218.909 192.955 220.434 192.738 221.911 192.31C228.762 190.325 233.315 184.205 233.642 177.449C234.911 177.576 236.188 177.641 237.469 177.641H243.926C245.206 177.641 246.483 177.576 247.752 177.449C248.079 184.205 252.632 190.325 259.482 192.31C260.961 192.738 262.486 192.955 264.017 192.955C271.214 192.955 277.64 188.123 279.645 181.204C281.028 176.43 282.06 171.325 282.725 165.974C289.854 165.314 295.481 159.3 295.516 152.003C295.607 132.692 287.895 120.163 281.506 113.11C283.839 110.251 285.863 107.159 287.551 103.872Z" fill="white"/>
<path d="M243.925 172.641H237.469C218.083 172.641 202.836 156.077 204.438 136.758L205.448 124.578C206.872 107.393 221.235 94.1721 238.478 94.1721H242.915C260.159 94.1721 274.522 107.393 275.946 124.578L276.956 136.758C278.558 156.077 263.311 172.641 243.925 172.641Z" fill="#63C928"/>
<path d="M260.513 114.876C261.571 114.952 281.55 124.035 281.418 151.937" stroke="#49A50E" stroke-width="18.1951" stroke-linecap="round" stroke-linejoin="round"/>
<path d="M218.759 114.876C217.701 114.952 197.722 124.035 197.854 151.937" stroke="#49A50E" stroke-width="18.1951" stroke-linecap="round" stroke-linejoin="round"/>
<path d="M217.565 121.023C217.565 121.023 209.744 150.304 217.383 176.676" stroke="#63C928" stroke-width="22.5525" stroke-miterlimit="10" stroke-linecap="round"/>
<path d="M263.829 121.023C263.829 121.023 271.65 150.304 264.011 176.676" stroke="#63C928" stroke-width="22.5525" stroke-miterlimit="10" stroke-linecap="round"/>
<path d="M196.057 83.2393H191.308L194.546 43.1818H196.057V83.2393Z" fill="#4EAF0E"/>
<path d="M209.034 100.664C220.533 100.664 229.855 91.3422 229.855 79.8431C229.855 68.344 220.533 59.0221 209.034 59.0221C197.535 59.0221 188.213 68.344 188.213 79.8431C188.213 91.3422 197.535 100.664 209.034 100.664Z" fill="#4EAF0E"/>
<path d="M270.966 100.664C282.465 100.664 291.787 91.3422 291.787 79.8431C291.787 68.344 282.465 59.0221 270.966 59.0221C259.467 59.0221 250.145 68.344 250.145 79.8431C250.145 91.3422 259.467 100.664 270.966 100.664Z" fill="#4EAF0E"/>
<path d="M284.47 63.9249C284.47 61.9039 284.028 59.8967 283.105 58.0991C275.202 42.7158 259.182 32.189 240.697 32.189C222.213 32.189 206.192 42.7158 198.289 58.0991C197.366 59.8967 196.924 61.9038 196.924 63.9248V95.7611C196.924 97.782 197.366 99.7891 198.289 101.587C206.192 116.97 222.213 127.497 240.697 127.497C259.181 127.497 275.202 116.97 283.105 101.587C284.028 99.7892 284.47 97.782 284.47 95.7611V63.9249Z" fill="#63C928"/>
<path d="M195.258 47.1314C197.439 47.1314 199.208 45.3631 199.208 43.1818C199.208 41.0005 197.439 39.2322 195.258 39.2322C193.077 39.2322 191.308 41.0005 191.308 43.1818C191.308 45.3631 193.077 47.1314 195.258 47.1314Z" fill="#4EAF0E"/>
<path d="M257.951 35.4174C252.6 33.3368 246.784 32.1891 240.697 32.1891C234.61 32.1891 228.794 33.3368 223.443 35.4174V66.8366H257.951V35.4174Z" fill="#4EAF0E"/>
<path d="M272.782 79.843C272.782 97.5631 258.417 111.928 240.697 111.928C222.977 111.928 208.612 97.563 208.612 79.843C208.612 62.123 222.977 56.822 240.697 56.822C258.417 56.822 272.782 62.1229 272.782 79.843Z" fill="#D8F4C6" stroke="white" stroke-width="4.5214" stroke-miterlimit="10"/>
<path d="M225.319 91.2796C230.863 91.2796 235.358 86.785 235.358 81.2405C235.358 75.6961 230.863 71.2014 225.319 71.2014C219.775 71.2014 215.28 75.6961 215.28 81.2405C215.28 86.785 219.775 91.2796 225.319 91.2796Z" fill="white"/>
<path d="M225.319 87.7831C228.932 87.7831 231.862 84.8539 231.862 81.2405C231.862 77.6271 228.932 74.6979 225.319 74.6979C221.706 74.6979 218.776 77.6271 218.776 81.2405C218.776 84.8539 221.706 87.7831 225.319 87.7831Z" fill="#133000"/>
<path opacity="0.13" d="M225.319 81.0545C226.802 81.0545 228.005 80.1129 228.005 78.9514C228.005 77.7899 226.802 76.8483 225.319 76.8483C223.836 76.8483 222.633 77.7899 222.633 78.9514C222.633 80.1129 223.836 81.0545 225.319 81.0545Z" fill="white"/>
<path d="M256.075 91.2796C261.62 91.2796 266.114 86.785 266.114 81.2405C266.114 75.6961 261.62 71.2014 256.075 71.2014C250.531 71.2014 246.036 75.6961 246.036 81.2405C246.036 86.785 250.531 91.2796 256.075 91.2796Z" fill="white"/>
<path d="M256.075 87.7831C259.688 87.7831 262.618 84.8539 262.618 81.2405C262.618 77.6271 259.688 74.6979 256.075 74.6979C252.462 74.6979 249.532 77.6271 249.532 81.2405C249.532 84.8539 252.462 87.7831 256.075 87.7831Z" fill="#133000"/>
<path opacity="0.13" d="M256.075 81.0545C257.558 81.0545 258.761 80.1129 258.761 78.9514C258.761 77.7899 257.558 76.8483 256.075 76.8483C254.592 76.8483 253.39 77.7899 253.39 78.9514C253.39 80.1129 254.592 81.0545 256.075 81.0545Z" fill="white"/>
<path d="M236.574 90.2842C238.673 92.9366 242.697 92.9389 244.799 90.2889L244.803 90.2842L244.82 90.3065" stroke="#232323" stroke-width="3.6881" stroke-linecap="round" stroke-linejoin="round"/>
<path d="M237.469 102.962H243.925C245.383 102.962 246.639 103.994 246.922 105.424L247.712 109.414C248.086 111.303 246.64 113.063 244.715 113.063H236.679C234.754 113.063 233.308 111.303 233.682 109.414L234.472 105.424C234.755 103.994 236.011 102.962 237.469 102.962Z" fill="white"/>
</g>
<g clip-path="url(#clip2_6073_41578)">
<path d="M480 0H320V160H480V0Z" fill="#A678FF"/>
<path d="M456.812 55.2015C455.356 50.9525 453.433 46.8919 451.067 43.0726C452.768 39.9183 452.287 35.891 449.627 33.2308L440.776 24.3792C439.204 22.8069 437.113 21.9407 434.889 21.9407C433.402 21.9407 431.975 22.3274 430.723 23.054C426.26 20.386 421.505 18.3284 416.516 16.9065V16.092C416.516 11.0315 412.4 6.91516 407.34 6.91516H392.66C387.6 6.91516 383.484 11.0314 383.484 16.092V16.9065C378.495 18.3284 373.739 20.386 369.277 23.054C368.025 22.3274 366.598 21.9407 365.111 21.9407C362.887 21.9407 360.796 22.8069 359.224 24.3792L350.373 33.2308C347.713 35.891 347.233 39.9183 348.934 43.0716C346.568 46.89 344.644 50.9515 343.188 55.2015C336.644 58.3675 332.406 64.9935 332.406 72.4329C332.406 75.7933 335.14 78.5276 338.5 78.5276H340.708V101.722C340.708 108.392 346.135 113.819 352.805 113.819C353.314 113.819 353.822 113.786 354.325 113.723C354.684 114.151 355.052 114.572 355.429 114.988C349.139 122.601 342.977 134.528 343.059 152.003C343.096 159.74 349.42 166.034 357.223 166.034C357.477 166.033 357.729 166.025 357.981 166.011C358.646 171.358 359.674 176.447 361.052 181.205C363.057 188.123 369.483 192.955 376.681 192.955C378.211 192.955 379.737 192.737 381.214 192.31C388.065 190.325 392.618 184.206 392.945 177.448C394.214 177.576 395.491 177.641 396.772 177.641H403.229C404.509 177.641 405.786 177.576 407.055 177.449C407.382 184.205 411.935 190.325 418.785 192.31C420.264 192.737 421.789 192.955 423.32 192.955C430.517 192.955 436.943 188.123 438.948 181.204C440.331 176.43 441.362 171.325 442.027 165.974C449.157 165.314 454.784 159.3 454.819 152.003C454.898 135.324 449.241 123.72 443.423 116.21C444.208 115.404 444.96 114.575 445.675 113.723C446.178 113.786 446.686 113.818 447.195 113.818C453.865 113.818 459.292 108.392 459.292 101.722V78.5275H461.5C464.86 78.5275 467.594 75.7931 467.594 72.4328C467.594 64.9933 463.357 58.3675 456.812 55.2015Z" fill="white"/>
<path d="M419.816 114.876C420.874 114.952 440.853 124.035 440.721 151.937" stroke="#8E67EF" stroke-width="18.1951" stroke-linecap="round" stroke-linejoin="round"/>
<path d="M378.062 114.876C377.004 114.952 357.025 124.035 357.157 151.937" stroke="#8E67EF" stroke-width="18.1951" stroke-linecap="round" stroke-linejoin="round"/>
<path d="M376.868 121.022C376.868 121.022 369.047 150.304 376.686 176.676" stroke="#A678FF" stroke-width="22.5525" stroke-miterlimit="10" stroke-linecap="round"/>
<path d="M423.132 121.022C423.132 121.022 430.953 150.304 423.314 176.676" stroke="#A678FF" stroke-width="22.5525" stroke-miterlimit="10" stroke-linecap="round"/>
<path d="M403.229 172.641H396.772C377.386 172.641 362.139 156.077 363.741 136.758L364.751 124.578C366.175 107.393 380.538 94.172 397.782 94.172H402.218C419.462 94.172 433.825 107.393 435.249 124.578L436.259 136.758C437.861 156.077 422.614 172.641 403.229 172.641Z" fill="#A678FF"/>
<path d="M413.553 136.313H386.447C384.809 136.313 383.481 137.641 383.481 139.28V155.16C383.481 156.798 384.809 158.126 386.447 158.126H413.553C415.191 158.126 416.519 156.798 416.519 155.16V139.28C416.519 137.641 415.191 136.313 413.553 136.313Z" fill="#8E67EF"/>
<path d="M451.198 83.3866C451.198 111.662 428.276 127.497 400 127.497C371.724 127.497 348.802 111.662 348.802 83.3866C348.802 55.1108 371.724 32.1888 400 32.1888C428.276 32.1888 451.198 55.1108 451.198 83.3866Z" fill="#A678FF"/>
<path d="M345.708 69.6198H359.902V101.722C359.902 105.639 356.722 108.819 352.805 108.819C348.888 108.819 345.708 105.639 345.708 101.722L345.708 69.6198Z" fill="#FFC200"/>
<path d="M440.098 69.6198H454.292V101.722C454.292 105.639 451.112 108.819 447.195 108.819C443.278 108.819 440.098 105.639 440.098 101.722L440.098 69.6198Z" fill="#FFC200"/>
<path d="M353.909 36.7655L362.76 27.9147C364.057 26.6169 366.165 26.6169 367.462 27.9147L370.139 30.5912L356.585 44.1449L353.909 41.4684C352.611 40.1706 352.611 38.0633 353.909 36.7655Z" fill="#FFC200"/>
<path d="M443.415 44.145L429.861 30.5913L432.538 27.9148C433.835 26.617 435.943 26.617 437.24 27.9148L446.091 36.7657C447.389 38.0634 447.389 40.1707 446.091 41.4685L443.415 44.145Z" fill="#FFC200"/>
<path d="M454.962 71.3251C453.197 42.4683 429.301 19.5929 400 19.5929C370.699 19.5929 346.803 42.4684 345.038 71.3251H454.962Z" fill="#FFDC00"/>
<path d="M409.882 67.7965L424.984 25.847C417.459 21.9809 409.05 19.5929 400 19.5929C390.951 19.5929 382.541 21.9809 375.015 25.847L390.116 67.7913L391.844 70.7843H408.157L409.882 67.7965Z" fill="#FFD400"/>
<path d="M392.66 11.9154H407.34C409.645 11.9154 411.516 13.7866 411.516 16.0915V68.2339H388.484V16.0915C388.484 13.7867 390.355 11.9154 392.66 11.9154Z" fill="#FFC200"/>
<path d="M351.562 58.2762H448.438C456.251 58.2762 462.594 64.6197 462.594 72.4331C462.594 73.0374 462.104 73.528 461.499 73.528H338.501C337.896 73.528 337.406 73.0374 337.406 72.4331C337.406 64.6197 343.749 58.2762 351.562 58.2762Z" fill="#FFAA00"/>
<path d="M426.351 65.2225H373.649C369.178 65.2225 365.554 68.8469 365.554 73.3177V91.5733C365.554 96.0442 369.178 99.6685 373.649 99.6685H426.351C430.822 99.6685 434.446 96.0442 434.446 91.5733V73.3177C434.446 68.8469 430.822 65.2225 426.351 65.2225Z" fill="#F1F1FF" stroke="white" stroke-width="4.5214" stroke-miterlimit="10"/>
<path d="M365.426 93.8073L361.673 92.9644C359.653 92.5106 358.217 90.7166 358.217 88.6458V77.1271C358.217 75.0563 359.653 73.2623 361.673 72.8085L365.426 71.9656V93.8073Z" fill="white"/>
<path d="M434.574 71.9656L438.327 72.8085C440.347 73.2623 441.783 75.0563 441.783 77.1271V88.6458C441.783 90.7166 440.347 92.5106 438.327 92.9644L434.574 93.8073V71.9656Z" fill="white"/>
<path d="M384.622 92.4847C390.166 92.4847 394.661 87.99 394.661 82.4456C394.661 76.9012 390.166 72.4065 384.622 72.4065C379.077 72.4065 374.583 76.9012 374.583 82.4456C374.583 87.99 379.077 92.4847 384.622 92.4847Z" fill="white"/>
<path d="M384.622 88.9882C388.235 88.9882 391.164 86.0589 391.164 82.4456C391.164 78.8322 388.235 75.903 384.622 75.903C381.009 75.903 378.079 78.8322 378.079 82.4456C378.079 86.0589 381.009 88.9882 384.622 88.9882Z" fill="black"/>
<path opacity="0.13" d="M384.622 82.2595C386.105 82.2595 387.307 81.318 387.307 80.1564C387.307 78.9949 386.105 78.0533 384.622 78.0533C383.139 78.0533 381.936 78.9949 381.936 80.1564C381.936 81.318 383.139 82.2595 384.622 82.2595Z" fill="white"/>
<path d="M415.378 92.4847C420.923 92.4847 425.417 87.99 425.417 82.4456C425.417 76.9012 420.923 72.4065 415.378 72.4065C409.834 72.4065 405.339 76.9012 405.339 82.4456C405.339 87.99 409.834 92.4847 415.378 92.4847Z" fill="white"/>
<path d="M415.378 88.9882C418.991 88.9882 421.921 86.0589 421.921 82.4456C421.921 78.8322 418.991 75.903 415.378 75.903C411.765 75.903 408.836 78.8322 408.836 82.4456C408.836 86.0589 411.765 88.9882 415.378 88.9882Z" fill="black"/>
<path opacity="0.13" d="M415.378 82.2595C416.861 82.2595 418.064 81.318 418.064 80.1564C418.064 78.9949 416.861 78.0533 415.378 78.0533C413.895 78.0533 412.693 78.9949 412.693 80.1564C412.693 81.318 413.895 82.2595 415.378 82.2595Z" fill="white"/>
</g>
<g clip-path="url(#clip3_6073_41578)">
<path d="M640 0H480V160H640V0Z" fill="#30AD67"/>
<path d="M617.897 59.7279C616.331 58.9164 614.663 58.3129 612.922 57.9222C613.876 56.4144 614.629 54.8079 615.162 53.1263C617.733 45.0238 615.598 36.2591 609.592 30.2523C603.585 24.2445 594.819 22.1087 586.716 24.68C585.035 25.2132 583.429 25.9661 581.921 26.9212C581.53 25.179 580.926 23.511 580.114 21.9456C576.202 14.3987 568.495 9.71021 560 9.71021C551.505 9.71021 543.798 14.3987 539.886 21.9456C539.074 23.511 538.471 25.179 538.079 26.9212C536.571 25.9661 534.964 25.2132 533.283 24.68C525.18 22.1107 516.414 24.2454 510.409 30.2523C504.402 36.2591 502.267 45.0238 504.837 53.1263C505.37 54.8079 506.123 56.4144 507.078 57.9222C505.336 58.3128 503.668 58.9163 502.102 59.7279C494.555 63.64 489.867 71.348 489.867 79.8431C489.867 88.3382 494.556 96.0462 502.101 99.9564C503.668 100.769 505.336 101.372 507.078 101.764C506.123 103.272 505.37 104.878 504.837 106.56C502.624 113.537 503.9 121.004 508.132 126.78C504.721 134.357 503.015 142.825 503.059 152.003C503.096 159.741 509.42 166.034 517.222 166.034C517.476 166.033 517.729 166.026 517.981 166.011C518.646 171.357 519.674 176.447 521.052 181.205C523.056 188.123 529.483 192.955 536.68 192.955C538.211 192.955 539.737 192.738 541.214 192.31C548.065 190.325 552.617 184.205 552.945 177.449C554.214 177.576 555.491 177.641 556.771 177.641H563.228C564.509 177.641 565.785 177.576 567.055 177.449C567.382 184.205 571.935 190.325 578.785 192.31C580.264 192.738 581.789 192.955 583.319 192.955C590.517 192.955 596.943 188.123 598.947 181.205C600.33 176.432 601.361 171.327 602.027 165.974C609.158 165.315 614.785 159.3 614.819 152.003C614.859 143.517 613.402 135.625 610.484 128.49C615.805 122.53 617.601 114.246 615.162 106.56C614.629 104.878 613.876 103.272 612.922 101.764C614.663 101.372 616.331 100.769 617.897 99.9573C625.444 96.0462 630.133 88.3391 630.133 79.843C630.133 71.3469 625.444 63.64 617.897 59.7279Z" fill="white"/>
<path d="M579.816 114.876C580.874 114.952 600.853 124.035 600.721 151.937" stroke="#DADFDC" stroke-width="18.1951" stroke-linecap="round" stroke-linejoin="round"/>
<path d="M538.062 114.876C537.004 114.952 517.024 124.035 517.157 151.937" stroke="#DADFDC" stroke-width="18.1951" stroke-linecap="round" stroke-linejoin="round"/>
<path d="M563.228 172.641H556.771C537.386 172.641 522.139 156.077 523.741 136.758L524.75 124.578C526.175 107.393 540.538 94.1721 557.781 94.1721H562.218C579.462 94.1721 593.824 107.393 595.249 124.578L596.259 136.758C597.861 156.077 582.614 172.641 563.228 172.641Z" fill="#30AD67"/>
<path d="M583.132 121.023C583.132 121.023 590.953 150.304 583.314 176.676" stroke="#30AD67" stroke-width="22.5525" stroke-miterlimit="10" stroke-linecap="round"/>
<path d="M536.868 121.023C536.868 121.023 529.047 150.304 536.686 176.676" stroke="#30AD67" stroke-width="22.5525" stroke-miterlimit="10" stroke-linecap="round"/>
<path d="M579.305 136.379C582.584 136.379 584.967 139.484 584.143 142.658C581.36 153.393 571.605 161.32 560 161.32C548.394 161.32 538.64 153.393 535.857 142.658C535.034 139.484 537.416 136.379 540.695 136.379H579.305Z" fill="#279B56"/>
<path d="M555.686 103.08H564.314C569.682 103.08 574.262 106.962 575.142 112.257L577.181 124.54C577.796 128.242 577.402 132.108 575.675 135.439C572.739 141.105 566.821 144.975 560 144.975C553.178 144.975 547.261 141.105 544.325 135.439C542.598 132.108 542.204 128.242 542.819 124.54L544.858 112.257C545.738 106.962 550.318 103.08 555.686 103.08Z" fill="#FF8022"/>
<path d="M546.62 60.3614L540.518 66.4628C536.723 70.2584 530.739 70.7518 526.373 67.6294L516.245 60.3864C513.193 58.2036 510.738 55.1914 509.603 51.6146C507.674 45.5324 509.121 38.611 513.944 33.7875C518.768 28.964 525.689 27.5169 531.771 29.4463C535.348 30.5809 538.36 33.0359 540.543 36.0881L547.786 46.2159C550.909 50.582 550.415 56.5658 546.62 60.3614Z" fill="#FF8022"/>
<path d="M536.763 75.5286V84.1572C536.763 89.5249 532.881 94.1052 527.586 94.9845L515.303 97.0243C511.601 97.639 507.735 97.245 504.403 95.5182C498.738 92.5817 494.867 86.6643 494.867 79.8429C494.867 73.0214 498.738 67.104 504.403 64.1675C507.735 62.4407 511.601 62.0467 515.303 62.6614L527.586 64.7012C532.881 65.5806 536.763 70.1609 536.763 75.5286Z" fill="#FF8022"/>
<path d="M540.518 93.2233L546.62 99.3247C550.415 103.12 550.909 109.104 547.786 113.47L540.543 123.598C538.361 126.65 535.348 129.105 531.772 130.24C525.689 132.169 518.768 130.722 513.944 125.899C509.121 121.075 507.674 114.154 509.603 108.072C510.738 104.495 513.193 101.483 516.245 99.2998L526.373 92.0568C530.739 88.9343 536.723 89.4277 540.518 93.2233Z" fill="#FF8022"/>
<path d="M573.38 99.3246L579.482 93.2232C583.277 89.4276 589.261 88.9343 593.627 92.0567L603.755 99.2996C606.807 101.482 609.262 104.495 610.397 108.071C612.326 114.154 610.879 121.075 606.056 125.899C601.232 130.722 594.311 132.169 588.229 130.24C584.652 129.105 581.64 126.65 579.457 123.598L572.214 113.47C569.091 109.104 569.585 103.12 573.38 99.3246Z" fill="#FF8022"/>
<path d="M583.237 84.1574V75.5288C583.237 70.1611 587.119 65.5808 592.414 64.7015L604.697 62.6617C608.399 62.047 612.265 62.441 615.596 64.1678C621.262 67.1043 625.132 73.0217 625.132 79.8431C625.132 86.6646 621.262 92.582 615.596 95.5185C612.265 97.2453 608.399 97.6393 604.697 97.0246L592.414 94.9848C587.119 94.1054 583.237 89.5251 583.237 84.1574Z" fill="#FF8022"/>
<path d="M579.482 66.4628L573.38 60.3614C569.585 56.5658 569.091 50.5819 572.214 46.2158L579.457 36.088C581.639 33.0358 584.652 30.5808 588.228 29.4462C594.311 27.5168 601.232 28.9638 606.055 33.7874C610.879 38.6109 612.326 45.5323 610.397 51.6145C609.262 55.1912 606.807 58.2035 603.755 60.3863L593.627 67.6293C589.261 70.7518 583.277 70.2584 579.482 66.4628Z" fill="#FF8022"/>
<path d="M564.314 56.6062H555.686C550.318 56.6062 545.738 52.7239 544.858 47.4287L542.819 35.1457C542.204 31.444 542.598 27.5781 544.325 24.2466C547.261 18.5815 553.179 14.7106 560 14.7106C566.821 14.7106 572.739 18.5815 575.675 24.2466C577.402 27.578 577.796 31.444 577.181 35.1457L575.142 47.4287C574.262 52.7239 569.682 56.6062 564.314 56.6062Z" fill="#FF8022"/>
<path d="M564.014 32.6338C564.014 30.4167 562.217 28.6194 560 28.6194C557.783 28.6194 555.986 30.4167 555.986 32.6338V46.7057C555.986 48.9228 557.783 50.7201 560 50.7201C562.217 50.7201 564.014 48.9228 564.014 46.7057V32.6338Z" fill="#FF7415"/>
<path d="M529.457 43.6239C527.89 42.0562 525.348 42.0562 523.78 43.6239C522.212 45.1916 522.212 47.7334 523.78 49.3011L533.731 59.2515C535.298 60.8192 537.84 60.8192 539.408 59.2515C540.975 57.6837 540.975 55.142 539.408 53.5742L529.457 43.6239Z" fill="#FF7415"/>
<path d="M512.793 75.8308C510.576 75.8308 508.779 77.6281 508.779 79.8452C508.779 82.0623 510.576 83.8596 512.793 83.8596H526.865C529.082 83.8596 530.879 82.0623 530.879 79.8452C530.879 77.6281 529.082 75.8308 526.865 75.8308H512.793Z" fill="#FF7415"/>
<path d="M523.783 110.388C522.216 111.956 522.216 114.497 523.783 116.065C525.351 117.633 527.893 117.633 529.461 116.065L539.411 106.115C540.979 104.547 540.979 102.005 539.411 100.438C537.843 98.8699 535.301 98.8699 533.734 100.438L523.783 110.388Z" fill="#FF7415"/>
<path d="M555.99 127.052C555.99 129.269 557.787 131.067 560.004 131.067C562.222 131.067 564.019 129.269 564.019 127.052V112.98C564.019 110.763 562.222 108.966 560.004 108.966C557.787 108.966 555.99 110.763 555.99 112.98V127.052Z" fill="#FF7415"/>
<path d="M590.547 116.062C592.115 117.63 594.657 117.63 596.224 116.062C597.792 114.494 597.792 111.952 596.224 110.385L586.274 100.434C584.706 98.8666 582.165 98.8666 580.597 100.434C579.029 102.002 579.029 104.544 580.597 106.112L590.547 116.062Z" fill="#FF7415"/>
<path d="M607.211 83.8552C609.429 83.8552 611.226 82.0579 611.226 79.8408C611.226 77.6237 609.429 75.8264 607.211 75.8264H593.14C590.922 75.8264 589.125 77.6237 589.125 79.8408C589.125 82.0579 590.922 83.8552 593.14 83.8552H607.211Z" fill="#FF7415"/>
<path d="M596.221 49.2981C597.789 47.7303 597.789 45.1886 596.221 43.6208C594.654 42.0531 592.112 42.0531 590.544 43.6208L580.594 53.5712C579.026 55.1389 579.026 57.6807 580.594 59.2484C582.161 60.8161 584.703 60.8161 586.271 59.2484L596.221 49.2981Z" fill="#FF7415"/>
<path d="M592.578 84.8849C592.219 101.021 577.342 113.777 559.351 113.376C541.36 112.975 527.067 99.5695 527.427 83.4336C527.786 67.2977 542.662 45.9057 560.653 46.3065C578.644 46.7073 592.937 68.749 592.578 84.8849Z" fill="#F8C202" stroke="#FFD345" stroke-width="4.5212" stroke-miterlimit="10"/>
<path d="M544.622 90.7819C550.166 90.7819 554.661 86.2873 554.661 80.7428C554.661 75.1984 550.166 70.7037 544.622 70.7037C539.077 70.7037 534.583 75.1984 534.583 80.7428C534.583 86.2873 539.077 90.7819 544.622 90.7819Z" fill="white"/>
<path d="M544.622 87.2854C548.235 87.2854 551.164 84.3562 551.164 80.7428C551.164 77.1294 548.235 74.2002 544.622 74.2002C541.009 74.2002 538.079 77.1294 538.079 80.7428C538.079 84.3562 541.009 87.2854 544.622 87.2854Z" fill="black"/>
<path opacity="0.13" d="M544.622 80.5568C546.105 80.5568 547.307 79.6152 547.307 78.4537C547.307 77.2922 546.105 76.3506 544.622 76.3506C543.139 76.3506 541.936 77.2922 541.936 78.4537C541.936 79.6152 543.139 80.5568 544.622 80.5568Z" fill="white"/>
<path d="M575.378 90.7819C580.923 90.7819 585.417 86.2873 585.417 80.7428C585.417 75.1984 580.923 70.7037 575.378 70.7037C569.834 70.7037 565.339 75.1984 565.339 80.7428C565.339 86.2873 569.834 90.7819 575.378 90.7819Z" fill="white"/>
<path d="M575.378 87.2854C578.991 87.2854 581.921 84.3562 581.921 80.7428C581.921 77.1294 578.991 74.2002 575.378 74.2002C571.765 74.2002 568.835 77.1294 568.835 80.7428C568.835 84.3562 571.765 87.2854 575.378 87.2854Z" fill="black"/>
<path opacity="0.13" d="M575.378 80.5568C576.861 80.5568 578.064 79.6152 578.064 78.4537C578.064 77.2922 576.861 76.3506 575.378 76.3506C573.895 76.3506 572.693 77.2922 572.693 78.4537C572.693 79.6152 573.895 80.5568 575.378 80.5568Z" fill="white"/>
<path d="M555.876 89.7866C557.976 92.439 561.999 92.4413 564.102 89.7913L564.106 89.7866L564.123 89.8089" stroke="#602B00" stroke-width="3.6881" stroke-linecap="round" stroke-linejoin="round"/>
</g>
<g clip-path="url(#clip4_6073_41578)">
<path d="M800 0H640V160H800V0Z" fill="#FDC703"/>
<path d="M783.621 80.9348C783.523 80.4416 783.396 79.9602 783.245 79.5071L768.948 36.387C767.328 31.4974 763.197 27.764 758.165 26.6448L753.037 25.5052C733.149 12.1859 706.85 12.1878 686.963 25.5052L681.833 26.6448C676.804 27.7639 672.673 31.4964 671.051 36.386L656.761 79.4895C656.606 79.9524 656.481 80.425 656.379 80.9348C655.487 85.1321 656.668 89.4914 659.546 92.6086C660.488 93.6272 661.406 94.6857 662.279 95.757C662.317 95.8068 662.355 95.8566 662.394 95.9054C663.785 97.6222 664.985 99.2941 665.953 100.868L666.068 101.056C666.188 101.253 666.301 101.445 666.409 101.629C665.449 102.463 664.664 103.514 664.137 104.73C662.76 107.903 663.397 111.584 665.76 114.111L669.024 117.601C669.024 117.626 669.023 117.653 669.023 117.678C669.007 119.525 669.325 121.354 669.957 123.086C665.327 131.544 663.008 141.258 663.059 152.003C663.095 159.74 669.419 166.034 677.222 166.034C677.476 166.033 677.729 166.025 677.981 166.011C678.119 167.12 678.271 168.233 678.447 169.349C678.45 169.383 678.455 169.416 678.46 169.443C678.636 170.569 678.846 171.756 679.101 173.066L679.262 173.859C679.454 174.806 679.662 175.754 679.885 176.701L680.106 177.632C680.44 178.992 680.74 180.128 681.051 181.202C681.245 181.874 681.496 182.554 681.818 183.278C684.421 189.156 690.255 192.955 696.68 192.955C697.007 192.955 697.334 192.943 697.674 192.922C698.878 192.847 700.069 192.641 701.214 192.31C708.056 190.328 712.605 184.223 712.932 177.438C713.157 177.46 713.384 177.482 713.611 177.5L714.049 177.535C715.029 177.607 715.92 177.641 716.772 177.641H723.229C724.079 177.641 724.97 177.607 725.94 177.535L726.414 177.498C726.625 177.481 726.836 177.461 727.047 177.441C727.16 179.896 727.836 182.313 729.057 184.529C731.154 188.337 734.609 191.101 738.783 192.309C739.955 192.649 741.177 192.857 742.414 192.926C742.717 192.943 743.02 192.955 743.32 192.955C750.523 192.955 756.949 188.121 758.966 181.143C758.971 181.125 758.977 181.1 758.984 181.074C759.288 180.016 759.59 178.873 759.906 177.582C759.992 177.228 760.075 176.874 760.157 176.521C760.378 175.57 760.585 174.617 760.776 173.67L760.946 172.841C761.173 171.656 761.377 170.471 761.562 169.294L761.689 168.426C761.809 167.606 761.921 166.786 762.022 165.975C769.154 165.316 774.783 159.301 774.819 152.003C774.866 142.199 772.931 133.231 769.063 125.294C770.334 122.979 771.001 120.366 770.977 117.68C770.977 117.653 770.976 117.627 770.976 117.602L774.24 114.111C776.603 111.585 777.24 107.903 775.864 104.73C775.336 103.514 774.552 102.463 773.59 101.629C773.699 101.444 773.811 101.256 773.928 101.062L774.041 100.877C775.014 99.2979 776.213 97.625 777.606 95.9053C777.646 95.8555 777.685 95.8057 777.723 95.7549C778.586 94.6944 779.505 93.6367 780.454 92.6074C783.331 89.4912 784.513 85.1311 783.621 80.9348Z" fill="white"/>
<path d="M698.062 114.876C697.004 114.951 677.024 124.034 677.157 151.937" stroke="#FFE4A1" stroke-width="18.1951" stroke-linecap="round" stroke-linejoin="round"/>
<path d="M682.695 104.506H672.098C668.88 104.506 667.214 108.346 669.412 110.696L677.383 119.22C679.313 121.283 682.753 120.491 683.585 117.79L686.21 109.266C686.939 106.901 685.17 104.506 682.695 104.506Z" fill="#FDC703"/>
<path d="M757.305 104.506H767.902C771.12 104.506 772.786 108.346 770.588 110.696L762.617 119.22C760.687 121.283 757.247 120.491 756.415 117.79L753.79 109.266C753.061 106.901 754.83 104.506 757.305 104.506Z" fill="#FDC703"/>
<path d="M739.816 114.876C740.874 114.951 760.853 124.034 760.721 151.937" stroke="#FFE4A1" stroke-width="18.1951" stroke-linecap="round" stroke-linejoin="round"/>
<path d="M696.868 121.022C696.868 121.022 689.047 150.304 696.686 176.676" stroke="#FFEBB3" stroke-width="22.5525" stroke-miterlimit="10" stroke-linecap="round"/>
<path d="M743.132 121.022C743.132 121.022 750.953 150.304 743.314 176.676" stroke="#FFEBB3" stroke-width="22.5525" stroke-miterlimit="10" stroke-linecap="round"/>
<path d="M723.228 172.641H716.772C697.386 172.641 682.139 156.077 683.741 136.758L684.751 124.577C686.175 107.393 700.538 94.1719 717.781 94.1719H722.218C739.462 94.1719 753.825 107.393 755.249 124.577L756.259 136.758C757.861 156.077 742.614 172.641 723.228 172.641Z" fill="#FFEBB3"/>
<path d="M771.198 83.3865C771.198 111.662 748.276 127.497 720 127.497C691.724 127.497 668.802 111.662 668.802 83.3865C668.802 55.1107 691.724 32.1887 720 32.1887C748.276 32.1887 771.198 55.1107 771.198 83.3865Z" fill="#FDC703"/>
<path d="M675.797 37.9597L661.501 81.08C660.563 83.908 661.198 87.027 663.219 89.2161C667.24 93.5715 673.535 101.404 673.833 108.036C674.011 111.982 674.045 115.24 674.023 117.722C673.991 121.328 675.792 124.663 678.798 126.655L684.996 130.763C686.705 131.895 688.986 130.67 688.986 128.621V30.1779L682.919 31.5263C679.579 32.2687 676.874 34.7118 675.797 37.9597Z" fill="#FFB806"/>
<path d="M764.203 37.9597L778.499 81.08C779.437 83.908 778.802 87.027 776.781 89.2161C772.76 93.5715 766.465 101.404 766.167 108.036C765.989 111.982 765.955 115.24 765.977 117.722C766.009 121.328 764.208 124.663 761.202 126.655L755.004 130.763C753.295 131.895 751.014 130.67 751.014 128.621V30.1779L757.081 31.5263C760.421 32.2687 763.126 34.7118 764.203 37.9597Z" fill="#FFB806"/>
<path d="M751.014 67.0655H688.986V30.1779C707.632 17.2223 732.367 17.2223 751.014 30.1779L751.014 67.0655Z" fill="#FDC703"/>
<path d="M703.431 23.0844C700.835 23.9155 698.291 24.9439 695.816 26.1756V66.9234H703.431V23.0844Z" fill="#FFB806"/>
<path d="M717.016 20.6844C714.458 20.8251 711.922 21.1359 709.4 21.6376V66.9232H717.016V20.6844Z" fill="#FFB806"/>
<path d="M730.6 21.6376C728.078 21.1359 725.542 20.8251 722.984 20.6844V66.9232H730.6V21.6376Z" fill="#FFB806"/>
<path d="M736.569 23.0844V66.9233H744.184V26.1753C741.709 24.9437 739.165 23.9154 736.569 23.0844Z" fill="#FFB806"/>
<path d="M778.499 81.0799L777.106 76.8785H751.014V84.4943H778.816C778.927 83.3583 778.871 82.2004 778.499 81.0799Z" fill="#FFB000"/>
<path d="M751.014 60.9985V68.6142H774.366L771.841 60.9985H751.014Z" fill="#FFB000"/>
<path d="M751.014 92.7584V100.374H768.569C770.001 97.6491 771.886 95.0231 773.721 92.7584H751.014Z" fill="#FFB000"/>
<path d="M751.014 116.254H765.984C765.983 114.132 766.022 111.63 766.148 108.639H751.014V116.254Z" fill="#FFB000"/>
<path d="M673.424 45.1183L670.899 52.7341H688.986V45.1183H673.424Z" fill="#FFB000"/>
<path d="M751.014 45.1183V52.7341H769.101L766.576 45.1183H751.014Z" fill="#FFB000"/>
<path d="M668.159 60.9985L665.634 68.6142H688.986V60.9985H668.159Z" fill="#FFB000"/>
<path d="M674.016 116.254H688.986V108.639H673.852C673.978 111.63 674.017 114.132 674.016 116.254Z" fill="#FFB000"/>
<path d="M662.894 76.8785L661.501 81.0799C661.129 82.2004 661.073 83.3583 661.184 84.4943H688.986V76.8785H662.894Z" fill="#FFB000"/>
<path d="M666.279 92.7584C668.114 95.0231 669.999 97.6491 671.431 100.374H688.986V92.7584H666.279Z" fill="#FFB000"/>
<path d="M688.766 84.4943C688.766 89.4712 688.7 93.5058 683.723 93.5058C678.746 93.5058 674.711 89.4712 674.711 84.4943C674.711 79.5174 678.746 75.4828 683.723 75.4828C688.7 75.4828 688.766 79.5174 688.766 84.4943Z" fill="#F78C2C"/>
<path d="M751.234 84.4943C751.234 89.4712 751.3 93.5058 756.277 93.5058C761.254 93.5058 765.289 89.4712 765.289 84.4943C765.289 79.5174 761.254 75.4828 756.277 75.4828C751.3 75.4828 751.234 79.5174 751.234 84.4943Z" fill="#F78C2C"/>
<path d="M757.193 87.8417C757.193 108.383 740.541 113.851 720 113.851C699.459 113.851 682.807 108.383 682.807 87.8417C682.807 67.3003 699.459 60.196 720 60.196C740.541 60.196 757.193 67.3004 757.193 87.8417Z" fill="#FFEBB3"/>
<path d="M715.876 96.0673C717.976 98.7197 721.999 98.722 724.102 96.072L724.106 96.0673L724.123 96.0896" stroke="#232323" stroke-width="3.6881" stroke-linecap="round" stroke-linejoin="round"/>
<path d="M682.074 150.674C682.06 159.804 682.994 169.933 685.855 179.813C687.281 184.746 691.79 187.956 696.68 187.956C697.72 187.956 698.772 187.807 699.824 187.505C705.803 185.776 709.25 179.521 707.515 173.536C707.285 172.739 707.107 171.931 706.908 171.127C710.021 172.096 713.326 172.641 716.772 172.641H723.228C726.674 172.641 729.979 172.095 733.092 171.126C732.894 171.93 732.716 172.739 732.485 173.536C730.751 179.521 734.197 185.776 740.177 187.505C741.228 187.807 742.28 187.956 743.321 187.956C748.21 187.956 752.719 184.746 754.145 179.813C757.104 169.598 758.008 159.114 757.926 149.746L716.22 157.33L682.074 150.674Z" fill="white"/>
<path d="M757.886 154.009C757.967 150.718 757.916 147.544 757.773 144.52C757.46 144.587 757.143 144.598 756.838 144.734C733.388 155.471 706.624 155.471 683.163 144.734C682.858 144.598 682.541 144.586 682.228 144.519C682.084 147.543 682.034 150.718 682.115 154.009C694.235 159.135 706.946 161.841 719.997 161.841C733.049 161.841 745.766 159.135 757.886 154.009Z" fill="#FFF8E6"/>
<path d="M724.095 59.6947H715.905L710.568 43.1135H729.432L724.095 59.6947Z" fill="#E27123"/>
<path d="M730.615 43.9194C730.615 48.7625 725.863 52.6886 720 52.6886C714.137 52.6886 709.385 48.7625 709.385 43.9194C709.385 39.0763 714.137 37.2297 720 37.2297C725.863 37.2297 730.615 39.0763 730.615 43.9194Z" fill="#F78839"/>
<path d="M720 49.9422C715.927 49.9422 712.304 48.4611 709.773 46.1469C710.972 49.9044 715.075 52.6887 720 52.6887C724.925 52.6887 729.028 49.9044 730.227 46.1469C727.696 48.4611 724.072 49.9422 720 49.9422Z" fill="#D1651C"/>
<path d="M757.193 87.8417C757.193 108.383 740.541 113.851 720 113.851C699.459 113.851 682.807 108.383 682.807 87.8417C682.807 67.3003 699.459 60.196 720 60.196C740.541 60.196 757.193 67.3004 757.193 87.8417Z" stroke="#F78C2C" stroke-width="4.5212" stroke-miterlimit="10"/>
<path d="M717.794 37.9885C717.794 37.1196 717.089 36.4152 716.221 36.4152C715.352 36.4152 714.647 37.1196 714.647 37.9885V39.814C714.647 40.6829 715.352 41.3873 716.221 41.3873C717.089 41.3873 717.794 40.6829 717.794 39.814V37.9885Z" fill="#D1651C"/>
<path d="M725.353 37.9885C725.353 37.1196 724.648 36.4152 723.779 36.4152C722.911 36.4152 722.206 37.1196 722.206 37.9885V39.814C722.206 40.6829 722.911 41.3873 723.779 41.3873C724.648 41.3873 725.353 40.6829 725.353 39.814V37.9885Z" fill="#D1651C"/>
<path d="M695.459 99.6786C698.859 99.6786 701.616 97.8797 701.616 95.6607C701.616 93.4417 698.859 91.6428 695.459 91.6428C692.059 91.6428 689.303 93.4417 689.303 95.6607C689.303 97.8797 692.059 99.6786 695.459 99.6786Z" fill="#FFCEA9"/>
<path d="M744.541 99.6786C747.941 99.6786 750.697 97.8797 750.697 95.6607C750.697 93.4417 747.941 91.6428 744.541 91.6428C741.141 91.6428 738.384 93.4417 738.384 95.6607C738.384 97.8797 741.141 99.6786 744.541 99.6786Z" fill="#FFCEA9"/>
<path d="M704.622 97.0627C710.166 97.0627 714.661 92.568 714.661 87.0236C714.661 81.4792 710.166 76.9845 704.622 76.9845C699.077 76.9845 694.583 81.4792 694.583 87.0236C694.583 92.568 699.077 97.0627 704.622 97.0627Z" fill="white"/>
<path d="M704.622 93.5662C708.235 93.5662 711.164 90.6369 711.164 87.0236C711.164 83.4102 708.235 80.481 704.622 80.481C701.009 80.481 698.079 83.4102 698.079 87.0236C698.079 90.6369 701.009 93.5662 704.622 93.5662Z" fill="black"/>
<path opacity="0.13" d="M704.622 86.8375C706.105 86.8375 707.307 85.896 707.307 84.7344C707.307 83.5729 706.105 82.6313 704.622 82.6313C703.139 82.6313 701.936 83.5729 701.936 84.7344C701.936 85.896 703.139 86.8375 704.622 86.8375Z" fill="white"/>
<path d="M735.378 97.0627C740.923 97.0627 745.417 92.568 745.417 87.0236C745.417 81.4792 740.923 76.9845 735.378 76.9845C729.834 76.9845 725.339 81.4792 725.339 87.0236C725.339 92.568 729.834 97.0627 735.378 97.0627Z" fill="white"/>
<path d="M735.378 93.5662C738.991 93.5662 741.921 90.6369 741.921 87.0236C741.921 83.4102 738.991 80.481 735.378 80.481C731.765 80.481 728.836 83.4102 728.836 87.0236C728.836 90.6369 731.765 93.5662 735.378 93.5662Z" fill="black"/>
<path opacity="0.13" d="M735.378 86.8375C736.861 86.8375 738.064 85.896 738.064 84.7344C738.064 83.5729 736.861 82.6313 735.378 82.6313C733.895 82.6313 732.693 83.5729 732.693 84.7344C732.693 85.896 733.895 86.8375 735.378 86.8375Z" fill="white"/>
<path d="M687.245 153.358C688.216 153.358 689.002 152.571 689.002 151.601C689.002 150.631 688.216 149.844 687.245 149.844C686.275 149.844 685.489 150.631 685.489 151.601C685.489 152.571 686.275 153.358 687.245 153.358Z" fill="#FFDF8F"/>
<path d="M692.941 154.992C693.911 154.992 694.698 154.206 694.698 153.236C694.698 152.265 693.911 151.479 692.941 151.479C691.971 151.479 691.184 152.265 691.184 153.236C691.184 154.206 691.971 154.992 692.941 154.992Z" fill="#FFDF8F"/>
<path d="M698.919 156.236C699.889 156.236 700.676 155.449 700.676 154.479C700.676 153.509 699.889 152.722 698.919 152.722C697.949 152.722 697.162 153.509 697.162 154.479C697.162 155.449 697.949 156.236 698.919 156.236Z" fill="#FFDF8F"/>
<path d="M752.755 153.358C753.726 153.358 754.512 152.571 754.512 151.601C754.512 150.631 753.726 149.844 752.755 149.844C751.785 149.844 750.998 150.631 750.998 151.601C750.998 152.571 751.785 153.358 752.755 153.358Z" fill="#FFDF8F"/>
<path d="M747.06 154.992C748.03 154.992 748.816 154.206 748.816 153.236C748.816 152.265 748.03 151.479 747.06 151.479C746.089 151.479 745.303 152.265 745.303 153.236C745.303 154.206 746.089 154.992 747.06 154.992Z" fill="#FFDF8F"/>
<path d="M741.082 156.236C742.052 156.236 742.839 155.449 742.839 154.479C742.839 153.509 742.052 152.722 741.082 152.722C740.112 152.722 739.325 153.509 739.325 154.479C739.325 155.449 740.112 156.236 741.082 156.236Z" fill="#FFDF8F"/>
<path d="M720 131.944C717.72 131.944 715.715 130.437 715.081 128.246L710.513 112.447H729.487L724.919 128.246C724.285 130.437 722.28 131.944 720 131.944Z" fill="#F78C2C"/>
<path d="M725.217 127.215L726.141 124.021H713.859L714.783 127.215H725.217Z" fill="#EF7F25"/>
<path d="M711.88 117.176L712.804 120.37H727.196L728.12 117.176H711.88Z" fill="#EF7F25"/>
</g>
<g clip-path="url(#clip5_6073_41578)">
<path d="M960 0H800V160H960V0Z" fill="#121B42"/>
<path d="M930.556 115.278V106.548C930.903 105.915 931.232 105.28 931.542 104.642C939.196 102.306 944.575 95.1741 944.575 87.0247C944.575 82.8363 943.165 78.8626 940.655 75.6684L941.11 75.2181C942.362 73.9799 943.166 72.3333 943.374 70.5843L945.999 48.473C946.413 44.9925 944.525 41.7318 941.3 40.3587C938.081 38.9866 934.422 39.8841 932.202 42.5911C931.508 43.4349 930.792 44.3089 930.069 45.1878C928.654 43.9817 926.906 43.1448 924.962 42.8167L918.767 41.7679C914.85 35.2005 907.904 29.8704 899.091 26.6634V25.6839C899.091 22.971 897.735 20.4651 895.464 18.9818L891.008 16.0677C890.959 15.7513 890.888 15.4339 890.796 15.1116C890.76 14.9554 890.716 14.8001 890.665 14.6477C890.537 14.2678 890.378 13.8938 890.193 13.5344C890.176 13.5032 890.16 13.4709 890.143 13.4397C889.623 12.467 888.923 11.6272 888.062 10.9417C887.985 10.8782 887.897 10.8089 887.814 10.7474C887.619 10.6029 887.414 10.471 887.117 10.2943C886.919 10.18 886.719 10.0707 886.478 9.95645C886.288 9.86755 886.094 9.78555 885.962 9.73675C885.669 9.62245 885.366 9.52875 885.07 9.45355C884.902 9.40765 884.733 9.36765 884.552 9.33345C884.046 9.23965 883.567 9.19385 883.087 9.19385H876.912C876.433 9.19385 875.954 9.23975 875.439 9.33545C875.263 9.36865 875.089 9.40965 874.945 9.44975C874.641 9.52685 874.341 9.61965 874.08 9.72025C873.884 9.79445 873.689 9.87745 873.529 9.95365C873.292 10.064 873.065 10.187 872.81 10.3384C872.608 10.4575 872.409 10.5835 872.277 10.6802C872.145 10.773 872.019 10.8716 871.896 10.9761C871.051 11.6548 870.365 12.4859 869.854 13.4458C869.837 13.4761 869.823 13.5054 869.807 13.5347C869.621 13.898 869.46 14.2759 869.332 14.6577C869.288 14.7905 869.249 14.9272 869.216 15.0659C869.118 15.4038 869.043 15.7368 868.992 16.0679L864.535 18.982C862.264 20.4664 860.909 22.9722 860.909 25.6841V26.6636C852.096 29.8706 845.149 35.2007 841.233 41.7681L835.039 42.8169C833.094 43.145 831.346 43.9819 829.93 45.189C829.208 44.3091 828.492 43.4351 827.799 42.5913C825.576 39.8833 821.919 38.9858 818.7 40.3589C815.475 41.7319 813.587 44.9927 814.001 48.4722L816.625 70.5767C816.83 72.3287 817.635 73.9761 818.891 75.2183L819.345 75.6685C816.834 78.8628 815.425 82.8365 815.425 87.0249C815.425 92.6948 818.027 97.9419 822.32 101.384L819.097 109.487C818.357 111.348 818.799 113.472 820.222 114.884L823.262 117.9V121.769C823.262 123.019 823.648 124.181 824.311 125.141V138.801C823.458 143.045 823.036 147.484 823.059 152.004C823.069 153.979 823.498 155.932 824.311 157.73V186.615C824.311 189.881 826.969 192.54 830.236 192.54H833.192C836.458 192.54 839.116 189.881 839.116 186.615V174.071L839.349 174.314C839.841 176.685 840.412 178.998 841.052 181.207C843.057 188.125 849.484 192.957 856.681 192.957C858.212 192.957 859.737 192.739 861.213 192.311C866.721 190.717 870.882 186.308 872.365 180.982L877.255 184.192C878.921 185.286 881.077 185.287 882.743 184.192L887.633 180.982C889.116 186.309 893.277 190.717 898.783 192.31C900.262 192.739 901.787 192.957 903.318 192.957C909.196 192.957 914.446 189.865 917.318 184.977C936.574 183.984 951.934 168.007 951.934 148.508C951.934 134.088 943.48 121.156 930.556 115.278Z" fill="white"/>
<path d="M886.097 17.2029C886.097 15.5412 884.75 14.1941 883.088 14.1941H876.912C875.25 14.1941 873.903 15.5412 873.903 17.2029C873.903 18.2185 873.391 19.1655 872.541 19.7213L867.271 23.1662C866.421 23.7219 865.909 24.669 865.909 25.6846V50.1855H894.091V25.6846C894.091 24.669 893.579 23.722 892.728 23.1662L887.459 19.7213C886.609 19.1656 886.097 18.2185 886.097 17.2029Z" fill="#C90D16"/>
<path d="M885.927 16.2477C885.526 15.0572 884.414 14.1941 883.088 14.1941H876.912C875.586 14.1941 874.473 15.0573 874.073 16.2478V36.5394C874.073 37.9743 875.236 39.1374 876.671 39.1374H883.329C884.764 39.1374 885.927 37.9742 885.927 36.5394L885.927 16.2477Z" fill="#F11C1E"/>
<path d="M925.18 58.9524C926.938 56.8762 931.942 50.7915 936.067 45.7625C937.85 43.5881 941.365 45.0899 941.034 47.8826L938.409 69.9944C938.334 70.627 938.046 71.2154 937.593 71.6634L928.533 80.6258C926.713 82.4254 923.631 81.0594 923.742 78.5028L924.519 60.6455C924.546 60.021 924.776 59.4294 925.18 58.9524Z" fill="#6B8187"/>
<path d="M834.82 58.9524C833.062 56.8762 828.058 50.7915 823.933 45.7625C822.15 43.5881 818.634 45.0899 818.966 47.8826L821.591 69.9944C821.666 70.627 821.954 71.2154 822.406 71.6634L831.467 80.6258C833.287 82.4254 836.369 81.0594 836.258 78.5028L835.481 60.6455C835.454 60.021 835.224 59.4294 834.82 58.9524Z" fill="#6B8187"/>
<path d="M875.109 90.1169H834.443V146.246H875.109V90.1169Z" fill="#FDC703"/>
<path d="M925.557 90.1169H884.891V146.246H925.557V90.1169Z" fill="#FDC703"/>
<path d="M899.816 114.877C900.874 114.953 920.853 124.035 920.721 151.938" stroke="#FFE6C5" stroke-width="18.1951" stroke-linecap="round" stroke-linejoin="round"/>
<path d="M858.062 114.877C857.004 114.953 837.024 124.035 837.157 151.938" stroke="#FFE6C5" stroke-width="18.1951" stroke-linecap="round" stroke-linejoin="round"/>
<path d="M856.868 121.023C856.868 121.023 849.047 150.305 856.686 176.677" stroke="#FFE6C5" stroke-width="22.5525" stroke-miterlimit="10" stroke-linecap="round"/>
<path d="M903.132 121.023C903.132 121.023 910.953 150.305 903.314 176.677" stroke="#FFE6C5" stroke-width="22.5525" stroke-miterlimit="10" stroke-linecap="round"/>
<path d="M883.228 172.642H876.771C857.386 172.642 842.139 156.078 843.741 136.759L844.75 124.578C846.175 107.394 860.538 94.1729 877.781 94.1729H882.218C899.462 94.1729 913.824 107.394 915.249 124.578L916.259 136.759C917.861 156.078 902.614 172.642 883.228 172.642Z" fill="#E1ECF2" stroke="#BCD5DD" stroke-width="3" stroke-miterlimit="10"/>
<path d="M931.198 83.3875C931.198 111.663 908.276 127.498 880 127.498C851.724 127.498 828.802 111.663 828.802 83.3875C828.802 55.1117 851.724 32.1897 880 32.1897C908.276 32.1897 931.198 55.1117 931.198 83.3875Z" fill="#AFC1C9"/>
<path d="M917.193 92.6167C917.193 113.158 900.541 118.626 880 118.626C859.459 118.626 842.807 113.158 842.807 92.6167C842.807 72.0753 859.459 55.4233 880 55.4233C900.541 55.4233 917.193 72.0754 917.193 92.6167Z" fill="#FFE6C5"/>
<path d="M864.622 97.0638C870.166 97.0638 874.661 92.5691 874.661 87.0247C874.661 81.4802 870.166 76.9856 864.622 76.9856C859.077 76.9856 854.583 81.4802 854.583 87.0247C854.583 92.5691 859.077 97.0638 864.622 97.0638Z" fill="white"/>
<path d="M864.622 93.5673C868.235 93.5673 871.164 90.638 871.164 87.0247C871.164 83.4113 868.235 80.4821 864.622 80.4821C861.009 80.4821 858.079 83.4113 858.079 87.0247C858.079 90.638 861.009 93.5673 864.622 93.5673Z" fill="#0D3442"/>
<path opacity="0.13" d="M864.622 86.8386C866.105 86.8386 867.307 85.8971 867.307 84.7355C867.307 83.574 866.105 82.6324 864.622 82.6324C863.139 82.6324 861.936 83.574 861.936 84.7355C861.936 85.8971 863.139 86.8386 864.622 86.8386Z" fill="white"/>
<path d="M895.378 97.0638C900.923 97.0638 905.417 92.5691 905.417 87.0247C905.417 81.4802 900.923 76.9856 895.378 76.9856C889.834 76.9856 885.339 81.4802 885.339 87.0247C885.339 92.5691 889.834 97.0638 895.378 97.0638Z" fill="white"/>
<path d="M895.378 93.5673C898.991 93.5673 901.921 90.638 901.921 87.0247C901.921 83.4113 898.991 80.4821 895.378 80.4821C891.765 80.4821 888.836 83.4113 888.836 87.0247C888.836 90.638 891.765 93.5673 895.378 93.5673Z" fill="#0D3442"/>
<path opacity="0.13" d="M895.378 86.8386C896.861 86.8386 898.064 85.8971 898.064 84.7355C898.064 83.574 896.861 82.6324 895.378 82.6324C893.895 82.6324 892.693 83.574 892.693 84.7355C892.693 85.8971 893.895 86.8386 895.378 86.8386Z" fill="white"/>
<path d="M875.876 96.0684C877.976 98.7208 881.999 98.7231 884.102 96.0731L884.106 96.0684L884.123 96.0907" stroke="#232323" stroke-width="3.6881" stroke-linecap="round" stroke-linejoin="round"/>
<path d="M917.272 54.119C917.272 68.3264 900.585 65.73 880 65.73C859.415 65.73 842.728 68.3265 842.728 54.119C842.728 39.9115 859.415 28.3942 880 28.3942C900.585 28.3942 917.272 39.9116 917.272 54.119Z" fill="#6B8187"/>
<path d="M924.875 71.9187H835.125C831.771 71.9187 829.179 68.974 829.604 65.647L831.281 52.5285C831.592 50.0971 833.456 48.1553 835.873 47.7462L879.071 40.4355C879.686 40.3315 880.314 40.3315 880.929 40.4355L924.127 47.7462C926.544 48.1552 928.408 50.0971 928.719 52.5285L930.396 65.647C930.821 68.9741 928.229 71.9187 924.875 71.9187Z" fill="#7A9199"/>
<path d="M870.467 175.023L859.587 179.037L851.578 170.649L856.722 148.432L875.612 152.805L870.467 175.023Z" fill="#678991"/>
<path d="M853.734 169.801L845.022 173.015L838.609 166.299L842.728 148.508L857.853 152.011L853.734 169.801Z" fill="#7C9BA5"/>
<path d="M889.533 175.023L900.413 179.037L908.422 170.649L903.278 148.432L884.388 152.805L889.533 175.023Z" fill="#678991"/>
<path d="M906.266 169.801L914.978 173.015L921.391 166.299L917.272 148.508L902.147 152.011L906.266 169.801Z" fill="#7C9BA5"/>
<path d="M889.694 173.648L880 180.012L870.306 173.648V150.843H889.694V173.648Z" fill="#7C9BA5"/>
<path d="M916.972 144.34H843.028C841.949 144.34 841.075 145.214 841.075 146.293V151.035C841.075 152.113 841.949 152.988 843.028 152.988H916.972C918.05 152.988 918.925 152.113 918.925 151.035V146.293C918.925 145.214 918.05 144.34 916.972 144.34Z" fill="#AAC6D1"/>
<path d="M889.719 116.343H870.281C869.219 116.343 868.358 117.204 868.358 118.265V127.098C868.358 128.16 869.219 129.021 870.281 129.021H889.719C890.781 129.021 891.642 128.16 891.642 127.098V118.265C891.642 117.204 890.781 116.343 889.719 116.343Z" fill="#B87D5F"/>
<path d="M926.156 76.0517C926.156 74.6748 927.402 73.5915 928.753 73.8565C934.921 75.0661 939.575 80.5019 939.575 87.0247C939.575 93.5475 934.921 98.9833 928.753 100.193C927.402 100.458 926.156 99.3745 926.156 97.9977V76.0517Z" fill="#9AACB2"/>
<path d="M833.844 76.0517C833.844 74.6748 832.598 73.5915 831.247 73.8565C825.079 75.0661 820.425 80.5019 820.425 87.0247C820.425 93.5475 825.079 98.9833 831.247 100.193C832.598 100.458 833.844 99.3745 833.844 97.9977V76.0517Z" fill="#9AACB2"/>
<path d="M903.177 51.4025H856.822C855.059 51.4025 853.629 52.8323 853.629 54.596C853.629 56.3597 855.059 57.7895 856.822 57.7895H876.527V71.9185H883.472V57.7895H903.177C904.941 57.7895 906.371 56.3597 906.371 54.596C906.371 52.8323 904.941 51.4025 903.177 51.4025Z" fill="#6B8187"/>
<path d="M915.418 180.025C932.824 180.025 946.934 165.915 946.934 148.508C946.934 131.102 932.824 116.991 915.418 116.991C898.011 116.991 883.901 131.102 883.901 148.508C883.901 165.915 898.011 180.025 915.418 180.025Z" fill="#F9B32A"/>
<path d="M915.418 171.973C928.377 171.973 938.883 161.468 938.883 148.508C938.883 135.549 928.377 125.043 915.418 125.043C902.458 125.043 891.953 135.549 891.953 148.508C891.953 161.468 902.458 171.973 915.418 171.973Z" fill="#E59A17"/>
<path d="M916.095 171.956V125.061C915.869 125.054 915.645 125.043 915.418 125.043C915.19 125.043 914.966 125.054 914.74 125.061V171.956C914.966 171.963 915.19 171.973 915.418 171.973C915.645 171.973 915.869 171.963 916.095 171.956Z" fill="#F9B32A"/>
<path d="M900.426 166.558C900.863 166.922 901.317 167.266 901.781 167.598V129.419C901.317 129.751 900.863 130.095 900.426 130.459V166.558Z" fill="#F9B32A"/>
<path d="M930.409 130.459C929.972 130.095 929.518 129.751 929.055 129.419V167.598C929.518 167.266 929.972 166.922 930.409 166.558V130.459Z" fill="#F9B32A"/>
<path d="M829.311 114.145H834.117V186.614C834.117 187.125 833.703 187.539 833.192 187.539H830.236C829.726 187.539 829.311 187.125 829.311 186.614V114.145Z" fill="#7C3200"/>
<path d="M839.685 111.335L831.714 91.2927L823.743 111.335L831.714 119.241L839.685 111.335Z" fill="#BBF1FF"/>
<path d="M831.714 91.2927V108.301L839.685 111.335L831.714 91.2927Z" fill="#DEF9FF"/>
<path d="M823.743 111.335L831.714 108.301L839.685 111.335L831.714 119.241L823.743 111.335Z" fill="#94EBFF"/>
<path d="M834.191 116.343H829.237C828.699 116.343 828.263 116.779 828.263 117.318V121.769C828.263 122.308 828.699 122.744 829.237 122.744H834.191C834.729 122.744 835.166 122.308 835.166 121.769V117.318C835.166 116.779 834.729 116.343 834.191 116.343Z" fill="#6B6B6B"/>
</g>
<g clip-path="url(#clip6_6073_41578)">
<path d="M1120 0H960V160H1120V0Z" fill="#1C4C5E"/>
<path d="M1096.2 83.3871C1096.2 69.1967 1090.89 55.6439 1081.24 45.224C1080.61 44.5453 1079.94 43.8549 1079.24 43.1722C1079.22 43.1556 1079.2 43.139 1079.19 43.1224C1068.63 32.848 1054.72 27.1888 1040 27.1888C1024.4 27.1888 1009.37 33.763 998.758 45.2249C989.114 55.6438 983.802 69.1966 983.802 83.387C983.802 95.7434 987.803 106.568 995.429 114.99C989.139 122.601 982.977 134.53 983.059 152.003C983.095 159.741 989.419 166.034 997.222 166.034C997.476 166.033 997.729 166.026 997.981 166.011C998.646 171.358 999.674 176.448 1001.05 181.205C1003.06 188.123 1009.48 192.955 1016.68 192.955C1018.21 192.955 1019.74 192.738 1021.21 192.31C1028.06 190.325 1032.62 184.206 1032.94 177.449C1034.21 177.576 1035.49 177.641 1036.77 177.641H1043.23C1044.51 177.641 1045.79 177.576 1047.05 177.45C1047.38 184.205 1051.93 190.326 1058.78 192.309C1060.26 192.738 1061.79 192.955 1063.32 192.955C1070.52 192.955 1076.94 188.123 1078.95 181.204C1080.33 176.429 1081.36 171.325 1082.03 165.974C1089.16 165.314 1094.78 159.3 1094.82 152.003C1094.9 135.326 1089.24 123.724 1083.42 116.213C1091.8 107.636 1096.2 96.3891 1096.2 83.3871Z" fill="white"/>
<path d="M1018.06 114.876C1017 114.952 997.024 124.035 997.157 151.937" stroke="#73868E" stroke-width="18.1951" stroke-linecap="round" stroke-linejoin="round"/>
<path d="M1059.82 114.876C1060.87 114.952 1080.85 124.035 1080.72 151.937" stroke="#73868E" stroke-width="18.1951" stroke-linecap="round" stroke-linejoin="round"/>
<path d="M1016.87 121.023C1016.87 121.023 1009.05 150.305 1016.69 176.676" stroke="#91A9B6" stroke-width="22.5525" stroke-miterlimit="10" stroke-linecap="round"/>
<path d="M1063.13 121.023C1063.13 121.023 1070.95 150.305 1063.31 176.676" stroke="#91A9B6" stroke-width="22.5525" stroke-miterlimit="10" stroke-linecap="round"/>
<path d="M1043.23 172.641H1036.77C1017.39 172.641 1002.14 156.077 1003.74 136.758L1004.75 124.578C1006.18 107.393 1020.54 94.1721 1037.78 94.1721H1042.22C1059.46 94.1721 1073.82 107.393 1075.25 124.578L1076.26 136.758C1077.86 156.077 1062.61 172.641 1043.23 172.641Z" fill="#91A9B6"/>
<path d="M1053.45 129.375H1026.35C1024.71 129.375 1023.38 130.703 1023.38 132.341V148.221C1023.38 149.859 1024.71 151.187 1026.35 151.187H1053.45C1055.09 151.187 1056.42 149.859 1056.42 148.221V132.341C1056.42 130.703 1055.09 129.375 1053.45 129.375Z" stroke="#6E8896" stroke-width="1.1276" stroke-miterlimit="10"/>
<path d="M1002.38 139.625H1023.38" stroke="#6E8896" stroke-width="1.1276" stroke-miterlimit="10"/>
<path d="M1056.16 139.625H1077.16" stroke="#6E8896" stroke-width="1.1276" stroke-miterlimit="10"/>
<path d="M1050.17 139.13C1051.68 139.13 1052.91 137.904 1052.91 136.392C1052.91 134.88 1051.68 133.654 1050.17 133.654C1048.66 133.654 1047.43 134.88 1047.43 136.392C1047.43 137.904 1048.66 139.13 1050.17 139.13Z" fill="#32E11F"/>
<path d="M1050.17 147.298C1051.68 147.298 1052.91 146.072 1052.91 144.56C1052.91 143.048 1051.68 141.822 1050.17 141.822C1048.66 141.822 1047.43 143.048 1047.43 144.56C1047.43 146.072 1048.66 147.298 1050.17 147.298Z" fill="#E52C15"/>
<path d="M1091.2 83.3868C1091.2 111.662 1068.28 127.497 1040 127.497C1011.72 127.497 988.802 111.663 988.802 83.3868C988.802 55.111 1011.72 32.189 1040 32.189C1068.28 32.189 1091.2 55.111 1091.2 83.3868Z" fill="#91A9B6"/>
<path d="M1077.19 92.616C1077.19 113.157 1060.54 118.625 1040 118.625C1019.46 118.625 1002.81 113.157 1002.81 92.616C1002.81 72.0746 1019.46 55.4226 1040 55.4226C1060.54 55.4226 1077.19 72.0747 1077.19 92.616Z" fill="#D9E7EF"/>
<path opacity="0.08" d="M1005.5 74.0105C1005.5 58.1981 1018.31 45.3796 1034.13 45.3796" stroke="white" stroke-width="13.1114" stroke-miterlimit="10" stroke-linecap="round"/>
<path opacity="0.08" d="M1050.69 52.1721C1054.2 52.1721 1057.04 49.3296 1057.04 45.8233C1057.04 42.3169 1054.2 39.4745 1050.69 39.4745C1047.19 39.4745 1044.34 42.3169 1044.34 45.8233C1044.34 49.3296 1047.19 52.1721 1050.69 52.1721Z" fill="white"/>
<path d="M1035.88 96.0676C1037.98 98.72 1042 98.7223 1044.1 96.0723L1044.11 96.0676L1044.12 96.0899" stroke="#232323" stroke-width="3.6881" stroke-linecap="round" stroke-linejoin="round"/>
<path d="M1024.25 58.9124V117.782" stroke="#C0D4DD" stroke-width="1.1276" stroke-miterlimit="10"/>
<path d="M1055.38 58.9124V117.782" stroke="#C0D4DD" stroke-width="1.1276" stroke-miterlimit="10"/>
<path d="M1024.62 97.0631C1030.17 97.0631 1034.66 92.5684 1034.66 87.024C1034.66 81.4795 1030.17 76.9849 1024.62 76.9849C1019.08 76.9849 1014.58 81.4795 1014.58 87.024C1014.58 92.5684 1019.08 97.0631 1024.62 97.0631Z" fill="white"/>
<path d="M1024.62 93.5665C1028.24 93.5665 1031.16 90.6373 1031.16 87.0239C1031.16 83.4105 1028.24 80.4813 1024.62 80.4813C1021.01 80.4813 1018.08 83.4105 1018.08 87.0239C1018.08 90.6373 1021.01 93.5665 1024.62 93.5665Z" fill="black"/>
<path opacity="0.13" d="M1024.62 86.8379C1026.11 86.8379 1027.31 85.8963 1027.31 84.7348C1027.31 83.5733 1026.11 82.6317 1024.62 82.6317C1023.14 82.6317 1021.94 83.5733 1021.94 84.7348C1021.94 85.8963 1023.14 86.8379 1024.62 86.8379Z" fill="white"/>
<path d="M1055.38 97.0631C1060.92 97.0631 1065.42 92.5684 1065.42 87.024C1065.42 81.4795 1060.92 76.9849 1055.38 76.9849C1049.83 76.9849 1045.34 81.4795 1045.34 87.024C1045.34 92.5684 1049.83 97.0631 1055.38 97.0631Z" fill="white"/>
<path d="M1055.38 93.5665C1058.99 93.5665 1061.92 90.6373 1061.92 87.0239C1061.92 83.4105 1058.99 80.4813 1055.38 80.4813C1051.76 80.4813 1048.84 83.4105 1048.84 87.0239C1048.84 90.6373 1051.76 93.5665 1055.38 93.5665Z" fill="black"/>
<path opacity="0.13" d="M1055.38 86.8379C1056.86 86.8379 1058.06 85.8963 1058.06 84.7348C1058.06 83.5733 1056.86 82.6317 1055.38 82.6317C1053.89 82.6317 1052.69 83.5733 1052.69 84.7348C1052.69 85.8963 1053.89 86.8379 1055.38 86.8379Z" fill="white"/>
<path d="M1077.19 92.616C1077.19 113.157 1060.54 118.625 1040 118.625C1019.46 118.625 1002.81 113.157 1002.81 92.616C1002.81 72.0746 1019.46 55.4226 1040 55.4226C1060.54 55.4226 1077.19 72.0747 1077.19 92.616Z" stroke="#BACFD8" stroke-width="4.5212" stroke-miterlimit="10"/>
<path d="M1002.43 48.6221H1077.57C1076.97 47.9732 1076.35 47.3418 1075.72 46.7246H1004.28C1003.65 47.3418 1003.03 47.9731 1002.43 48.6221Z" fill="#738D9A"/>
<path d="M1019.26 44.0487C1020.07 44.0487 1020.72 43.3965 1020.72 42.5919C1020.72 41.7874 1020.07 41.1351 1019.26 41.1351C1018.46 41.1351 1017.81 41.7874 1017.81 42.5919C1017.81 43.3965 1018.46 44.0487 1019.26 44.0487Z" fill="#738D9A"/>
<path d="M1029.63 44.0487C1030.44 44.0487 1031.09 43.3965 1031.09 42.5919C1031.09 41.7874 1030.44 41.1351 1029.63 41.1351C1028.83 41.1351 1028.18 41.7874 1028.18 42.5919C1028.18 43.3965 1028.83 44.0487 1029.63 44.0487Z" fill="#738D9A"/>
<path d="M1040 44.0487C1040.8 44.0487 1041.46 43.3965 1041.46 42.5919C1041.46 41.7874 1040.8 41.1351 1040 41.1351C1039.2 41.1351 1038.54 41.7874 1038.54 42.5919C1038.54 43.3965 1039.2 44.0487 1040 44.0487Z" fill="#738D9A"/>
<path d="M1050.37 44.0487C1051.17 44.0487 1051.82 43.3965 1051.82 42.5919C1051.82 41.7874 1051.17 41.1351 1050.37 41.1351C1049.56 41.1351 1048.91 41.7874 1048.91 42.5919C1048.91 43.3965 1049.56 44.0487 1050.37 44.0487Z" fill="#738D9A"/>
<path d="M1060.74 44.0487C1061.54 44.0487 1062.19 43.3965 1062.19 42.5919C1062.19 41.7874 1061.54 41.1351 1060.74 41.1351C1059.93 41.1351 1059.28 41.7874 1059.28 42.5919C1059.28 43.3965 1059.93 44.0487 1060.74 44.0487Z" fill="#738D9A"/>
</g>
<g clip-path="url(#clip7_6073_41578)">
<path d="M1280 0H1120V160H1280V0Z" fill="#FF6700"/>
<path d="M1256.2 83.387C1256.2 75.3245 1254.45 67.3138 1251.11 60.0159C1253.47 56.7073 1254.77 52.7132 1254.77 48.6214C1254.77 37.7796 1245.95 28.9593 1235.11 28.9593C1231.02 28.9593 1227.13 30.1966 1223.86 32.4964C1216.43 29.0159 1208.25 27.1888 1200 27.1888C1191.75 27.1888 1183.57 29.0159 1176.14 32.4964C1172.87 30.1966 1168.98 28.9593 1164.89 28.9593C1154.05 28.9593 1145.23 37.7796 1145.23 48.6214C1145.23 52.7122 1146.53 56.7073 1148.89 60.0159C1145.55 67.3147 1143.8 75.3255 1143.8 83.387C1143.8 95.7425 1147.8 106.566 1155.43 114.99C1149.14 122.6 1142.98 134.529 1143.06 152.004C1143.1 159.74 1149.42 166.034 1157.22 166.034C1157.48 166.033 1157.73 166.026 1157.98 166.011C1158.65 171.358 1159.67 176.448 1161.05 181.205C1163.06 188.123 1169.48 192.955 1176.68 192.955C1178.21 192.955 1179.74 192.738 1181.21 192.31C1188.07 190.325 1192.62 184.206 1192.94 177.449C1194.21 177.576 1195.49 177.641 1196.77 177.641H1203.23C1204.51 177.641 1205.79 177.576 1207.06 177.449C1207.38 184.205 1211.94 190.325 1218.78 192.309C1220.26 192.738 1221.79 192.955 1223.32 192.955C1230.52 192.955 1236.94 188.123 1238.95 181.204C1240.33 176.429 1241.36 171.324 1242.03 165.974C1249.16 165.314 1254.78 159.3 1254.82 152.003C1254.9 135.326 1249.24 123.724 1243.42 116.213C1251.8 107.636 1256.2 96.389 1256.2 83.387Z" fill="white"/>
<path d="M1164.89 63.2851C1172.99 63.2851 1179.56 56.7202 1179.56 48.6219C1179.56 40.5237 1172.99 33.9587 1164.89 33.9587C1156.8 33.9587 1150.23 40.5237 1150.23 48.6219C1150.23 56.7202 1156.8 63.2851 1164.89 63.2851Z" fill="#FF8022"/>
<path d="M1235.11 63.2851C1243.2 63.2851 1249.77 56.7202 1249.77 48.6219C1249.77 40.5237 1243.2 33.9587 1235.11 33.9587C1227.01 33.9587 1220.44 40.5237 1220.44 48.6219C1220.44 56.7202 1227.01 63.2851 1235.11 63.2851Z" fill="#FF8022"/>
<path d="M1178.06 114.876C1177 114.952 1157.02 124.035 1157.16 151.937" stroke="#FF7415" stroke-width="18.1951" stroke-linecap="round" stroke-linejoin="round"/>
<path d="M1219.82 114.876C1220.87 114.952 1240.85 124.035 1240.72 151.937" stroke="#FF7415" stroke-width="18.1951" stroke-linecap="round" stroke-linejoin="round"/>
<path d="M1176.87 121.023C1176.87 121.023 1169.05 150.304 1176.69 176.676" stroke="#FF8022" stroke-width="22.5525" stroke-miterlimit="10" stroke-linecap="round"/>
<path d="M1223.13 121.023C1223.13 121.023 1230.95 150.304 1223.31 176.676" stroke="#FF8022" stroke-width="22.5525" stroke-miterlimit="10" stroke-linecap="round"/>
<path d="M1203.23 172.641H1196.77C1177.39 172.641 1162.14 156.077 1163.74 136.758L1164.75 124.578C1166.18 107.393 1180.54 94.172 1197.78 94.172H1202.22C1219.46 94.172 1233.82 107.393 1235.25 124.578L1236.26 136.758C1237.86 156.077 1222.61 172.641 1203.23 172.641Z" fill="#FF8022"/>
<path d="M1251.2 83.3866C1251.2 111.662 1228.28 127.497 1200 127.497C1171.72 127.497 1148.8 111.662 1148.8 83.3866C1148.8 55.1108 1171.72 32.1888 1200 32.1888C1228.28 32.1888 1251.2 55.1108 1251.2 83.3866Z" fill="#FF8022"/>
<path d="M1237.19 92.6159C1237.19 113.157 1220.54 118.625 1200 118.625C1179.46 118.625 1162.81 113.157 1162.81 92.6159C1162.81 72.0745 1179.46 55.4225 1200 55.4225C1220.54 55.4225 1237.19 72.0746 1237.19 92.6159Z" fill="#FFEBB3"/>
<path opacity="0.12" d="M1165.5 74.0104C1165.5 58.198 1178.31 45.3795 1194.13 45.3795" stroke="white" stroke-width="13.1114" stroke-miterlimit="10" stroke-linecap="round"/>
<path opacity="0.12" d="M1210.69 52.172C1214.2 52.172 1217.04 49.3295 1217.04 45.8232C1217.04 42.3168 1214.2 39.4744 1210.69 39.4744C1207.19 39.4744 1204.34 42.3168 1204.34 45.8232C1204.34 49.3295 1207.19 52.172 1210.69 52.172Z" fill="white"/>
<path d="M1184.62 97.0629C1190.17 97.0629 1194.66 92.5683 1194.66 87.0238C1194.66 81.4794 1190.17 76.9847 1184.62 76.9847C1179.08 76.9847 1174.58 81.4794 1174.58 87.0238C1174.58 92.5683 1179.08 97.0629 1184.62 97.0629Z" fill="white"/>
<path d="M1184.62 93.5664C1188.24 93.5664 1191.16 90.6372 1191.16 87.0238C1191.16 83.4104 1188.24 80.4812 1184.62 80.4812C1181.01 80.4812 1178.08 83.4104 1178.08 87.0238C1178.08 90.6372 1181.01 93.5664 1184.62 93.5664Z" fill="black"/>
<path opacity="0.13" d="M1184.62 86.8378C1186.11 86.8378 1187.31 85.8962 1187.31 84.7347C1187.31 83.5732 1186.11 82.6316 1184.62 82.6316C1183.14 82.6316 1181.94 83.5732 1181.94 84.7347C1181.94 85.8962 1183.14 86.8378 1184.62 86.8378Z" fill="white"/>
<path d="M1215.38 97.0629C1220.92 97.0629 1225.42 92.5683 1225.42 87.0238C1225.42 81.4794 1220.92 76.9847 1215.38 76.9847C1209.83 76.9847 1205.34 81.4794 1205.34 87.0238C1205.34 92.5683 1209.83 97.0629 1215.38 97.0629Z" fill="white"/>
<path d="M1215.38 93.5664C1218.99 93.5664 1221.92 90.6372 1221.92 87.0238C1221.92 83.4104 1218.99 80.4812 1215.38 80.4812C1211.76 80.4812 1208.84 83.4104 1208.84 87.0238C1208.84 90.6372 1211.76 93.5664 1215.38 93.5664Z" fill="black"/>
<path opacity="0.13" d="M1215.38 86.8378C1216.86 86.8378 1218.06 85.8962 1218.06 84.7347C1218.06 83.5732 1216.86 82.6316 1215.38 82.6316C1213.89 82.6316 1212.69 83.5732 1212.69 84.7347C1212.69 85.8962 1213.89 86.8378 1215.38 86.8378Z" fill="white"/>
<path d="M1195.88 96.0675C1197.98 98.7199 1202 98.7222 1204.1 96.0722L1204.11 96.0675L1204.12 96.0898" stroke="#232323" stroke-width="3.6881" stroke-linecap="round" stroke-linejoin="round"/>
<path d="M1200 141.13C1202.91 141.13 1205.27 138.771 1205.27 135.86C1205.27 132.949 1202.91 130.589 1200 130.589C1197.09 130.589 1194.73 132.949 1194.73 135.86C1194.73 138.771 1197.09 141.13 1200 141.13Z" fill="#FF6700"/>
<path d="M1200 159.383C1202.91 159.383 1205.27 157.024 1205.27 154.113C1205.27 151.202 1202.91 148.842 1200 148.842C1197.09 148.842 1194.73 151.202 1194.73 154.113C1194.73 157.024 1197.09 159.383 1200 159.383Z" fill="#FF6700"/>
</g>
<g clip-path="url(#clip8_6073_41578)">
<rect x="1280" width="160" height="160" rx="80" fill="#1A78BE"/>
<path d="M1420.1 37.6482L1389.9 37.648C1384.57 31.0879 1376.44 26.8936 1367.33 26.8936H1352.67C1343.56 26.8936 1335.43 31.0879 1330.1 37.648H1299.9C1299.9 49.1947 1305.23 59.4942 1313.55 66.2396C1312.01 67.3832 1311.01 69.2096 1311.01 71.2744C1311.01 73.7419 1312.43 75.8705 1314.5 76.8958C1314.38 77.4586 1314.27 78.0262 1314.17 78.5964C1309.25 80.2277 1305.7 84.8564 1305.7 90.3245C1305.7 96.3343 1309.98 101.343 1315.67 102.457C1315.89 102.501 1316.1 102.493 1316.31 102.464C1318.47 107.752 1321.75 112.255 1325.9 115.93C1320.64 121.152 1315.56 128.996 1313.59 139.947C1313.03 143.097 1312.71 146.499 1312.73 150.173C1312.75 154.789 1316.5 158.516 1321.11 158.516H1321.15C1322.55 158.509 1323.86 158.157 1325.02 157.547C1325.31 157.672 1325.63 157.738 1325.97 157.767C1326.42 163.665 1327.38 169.793 1329.13 175.819C1330.44 180.365 1334.59 183.32 1339.1 183.32C1340.06 183.32 1341.03 183.187 1342 182.907C1347.51 181.311 1350.68 175.549 1349.09 170.037C1348.87 169.301 1348.68 168.561 1348.49 167.819C1351.37 168.717 1354.43 169.209 1357.61 169.209H1363.56C1366.75 169.209 1369.81 168.716 1372.68 167.818C1372.5 168.56 1372.3 169.301 1372.09 170.037C1370.49 175.549 1373.67 181.311 1379.18 182.907C1380.14 183.187 1381.12 183.32 1382.07 183.32C1386.58 183.32 1390.73 180.364 1392.05 175.819C1393.77 169.866 1394.73 163.815 1395.19 157.983C1396.09 158.317 1397.05 158.511 1398.07 158.516H1398.11C1398.17 158.516 1398.23 158.508 1398.29 158.506L1398.9 161.049C1399.24 162.51 1400.51 163.542 1401.98 163.557C1403.08 163.567 1404.03 164.326 1404.29 165.402C1404.59 166.688 1403.79 167.983 1402.51 168.288C1401.52 168.523 1400.91 169.516 1401.14 170.506C1401.34 171.353 1402.1 171.924 1402.93 171.924C1403.07 171.924 1403.22 171.907 1403.36 171.874C1406.62 171.099 1408.65 167.814 1407.87 164.552C1407.26 161.95 1405.04 160.081 1402.41 159.887L1401.87 157.616C1404.59 156.243 1406.47 153.433 1406.49 150.173C1406.51 146.499 1406.19 143.096 1405.63 139.947C1403.77 129.614 1399.14 122.048 1394.21 116.84C1398.86 113.007 1402.53 108.196 1404.87 102.463C1405.07 102.493 1405.29 102.5 1405.51 102.457C1411.19 101.343 1415.48 96.3341 1415.48 90.3243C1415.48 84.8563 1411.92 80.2275 1407 78.5962C1406.8 77.4829 1406.58 76.3796 1406.3 75.2949C1407.21 74.206 1407.76 72.8048 1407.76 71.2742C1407.76 69.4897 1407.01 67.8829 1405.82 66.7402C1414.5 60.0103 1420.1 49.4859 1420.1 37.6482Z" fill="white" stroke="white" stroke-width="10" stroke-linecap="round" stroke-linejoin="round"/>
<path d="M1389.72 150.094C1389.7 154.723 1393.44 158.493 1398.07 158.516H1398.11C1402.72 158.515 1406.47 154.789 1406.49 150.173C1406.51 146.499 1406.19 143.096 1405.63 139.947H1388.46C1389.25 142.84 1389.74 146.196 1389.72 150.094Z" fill="#9C9C9C"/>
<path d="M1321.11 158.516H1321.15C1325.78 158.494 1329.52 154.723 1329.49 150.094C1329.48 146.197 1329.97 142.84 1330.76 139.947H1313.59C1313.03 143.097 1312.71 146.499 1312.73 150.173C1312.75 154.789 1316.5 158.516 1321.11 158.516Z" fill="#FED8C3"/>
<path d="M1376.38 124C1377.66 124.618 1385.38 128.764 1388.46 139.947H1405.63C1401.57 117.381 1384.31 107.975 1379.45 107.625C1374.84 107.294 1370.82 110.767 1370.48 115.384C1370.2 119.356 1372.73 122.881 1376.38 124Z" fill="#D1131D"/>
<path d="M1330.76 139.947C1333.84 128.764 1341.56 124.618 1342.84 124C1346.49 122.881 1349.02 119.357 1348.73 115.384C1348.4 110.766 1344.37 107.291 1339.77 107.625C1334.91 107.976 1317.65 117.382 1313.59 139.947H1330.76Z" fill="#D1131D"/>
<path d="M1325.66 151.33C1325.8 159.111 1326.74 167.563 1329.13 175.819C1330.44 180.364 1334.59 183.32 1339.1 183.32C1340.06 183.32 1341.03 183.187 1342 182.907C1347.51 181.311 1350.68 175.549 1349.09 170.037C1348.87 169.301 1348.68 168.561 1348.49 167.819C1351.37 168.717 1354.43 169.209 1357.61 169.209H1363.56C1366.75 169.209 1369.81 168.716 1372.68 167.818C1372.5 168.56 1372.3 169.301 1372.09 170.037C1370.49 175.549 1373.67 181.311 1379.18 182.907C1380.14 183.187 1381.12 183.32 1382.07 183.32C1386.58 183.32 1390.73 180.364 1392.05 175.819C1394.44 167.563 1395.37 159.111 1395.52 151.329L1325.66 151.33Z" fill="#1A78BE"/>
<path d="M1362.63 96.9098H1358.54C1343.49 96.9098 1330.82 107.855 1328.42 122.479C1327.28 127.843 1325.42 138.756 1325.66 151.442H1395.51C1395.76 138.762 1393.89 127.854 1392.76 122.486C1390.36 107.859 1377.69 96.9098 1362.63 96.9098Z" fill="#EC2021"/>
<path d="M1348.04 122.619L1356.25 148.115L1365.51 148.417L1372.28 120.479L1348.04 122.619Z" fill="#670210"/>
<path d="M1351.97 118.005L1358.24 148.115L1345.03 137.958C1344.16 137.292 1344.49 135.916 1345.56 135.708L1348.85 135.069C1349.23 134.993 1349.38 134.518 1349.11 134.236L1340.04 124.931C1339.42 124.292 1339.63 123.226 1340.45 122.878L1351.97 118.005Z" fill="#D1131D"/>
<path d="M1369.21 118.005L1362.94 148.115L1376.15 137.958C1377.01 137.292 1376.69 135.916 1375.62 135.708L1372.33 135.069C1371.94 134.993 1371.79 134.518 1372.07 134.236L1381.13 124.931C1381.76 124.292 1381.54 123.226 1380.72 122.878L1369.21 118.005Z" fill="#D1131D"/>
<path d="M1394.93 145.09H1326.24C1324.51 145.09 1323.1 146.495 1323.1 148.229V154.656C1323.1 156.389 1324.51 157.795 1326.24 157.795H1394.93C1396.67 157.795 1398.07 156.389 1398.07 154.656V148.229C1398.07 146.495 1396.67 145.09 1394.93 145.09Z" fill="#511E04"/>
<path d="M1366.74 143.825H1354.44C1351.48 143.825 1349.09 146.222 1349.09 149.177V153.707C1349.09 156.663 1351.48 159.059 1354.44 159.059H1366.74C1369.69 159.059 1372.09 156.663 1372.09 153.707V149.177C1372.09 146.222 1369.69 143.825 1366.74 143.825Z" fill="#F0E58C"/>
<path d="M1366.74 143.825H1354.44C1351.48 143.825 1349.09 146.222 1349.09 149.177V153.707C1349.09 156.663 1351.48 159.059 1354.44 159.059H1366.74C1369.69 159.059 1372.09 156.663 1372.09 153.707V149.177C1372.09 146.222 1369.69 143.825 1366.74 143.825Z" stroke="#D3C04F" stroke-width="3.2467" stroke-miterlimit="10"/>
<path d="M1403.11 80.2139C1403.11 78.9452 1404.26 77.9471 1405.51 78.1913C1411.19 79.3058 1415.48 84.3142 1415.48 90.3242C1415.48 96.3341 1411.19 101.343 1405.51 102.457C1404.26 102.701 1403.11 101.703 1403.11 100.434V80.2139Z" fill="#FED8C3"/>
<path d="M1318.06 80.2139C1318.06 78.9452 1316.91 77.9471 1315.67 78.1913C1309.98 79.3058 1305.7 84.3142 1305.7 90.3242C1305.7 96.3341 1309.98 101.343 1315.67 102.457C1316.91 102.701 1318.06 101.703 1318.06 100.434V80.2139Z" fill="#FED8C3"/>
<path d="M1407.76 86.9726C1407.76 113.025 1386.64 127.615 1360.59 127.615C1334.53 127.615 1313.41 113.025 1313.41 86.9726C1313.41 60.9199 1334.53 39.8 1360.59 39.8C1386.64 39.8 1407.76 60.9199 1407.76 86.9726Z" fill="#5E2C11"/>
<path d="M1327.37 74.4399H1391.4C1393.35 74.4399 1394.93 76.0215 1394.93 77.9696V83.7501C1394.93 101.905 1380.19 116.645 1362.04 116.645H1356.73C1338.58 116.645 1323.84 101.905 1323.84 83.7501V77.9696C1323.84 76.0215 1325.42 74.4399 1327.37 74.4399Z" fill="#FED8C3"/>
<path d="M1374.76 99.5733C1379.86 99.5733 1384.01 95.4321 1384.01 90.3235C1384.01 85.215 1379.86 81.0737 1374.76 81.0737C1369.65 81.0737 1365.51 85.215 1365.51 90.3235C1365.51 95.4321 1369.65 99.5733 1374.76 99.5733Z" fill="white"/>
<path d="M1374.76 96.3518C1378.09 96.3518 1380.79 93.6529 1380.79 90.3236C1380.79 86.9943 1378.09 84.2954 1374.76 84.2954C1371.43 84.2954 1368.73 86.9943 1368.73 90.3236C1368.73 93.6529 1371.43 96.3518 1374.76 96.3518Z" fill="black"/>
<path opacity="0.13" d="M1374.76 90.1524C1376.12 90.1524 1377.23 89.2848 1377.23 88.2146C1377.23 87.1444 1376.12 86.2769 1374.76 86.2769C1373.39 86.2769 1372.28 87.1444 1372.28 88.2146C1372.28 89.2848 1373.39 90.1524 1374.76 90.1524Z" fill="white"/>
<path d="M1341.01 81.6304H1349.4C1352.36 81.6304 1354.76 84.033 1354.76 86.9921V90.0353C1354.76 94.992 1350.74 99.0163 1345.78 99.0163H1344.63C1339.67 99.0163 1335.65 94.992 1335.65 90.0353V86.9921C1335.65 84.0329 1338.05 81.6304 1341.01 81.6304Z" fill="black"/>
<path d="M1326.32 103.106L1382.66 66.4891" stroke="black" stroke-width="4" stroke-miterlimit="10" stroke-linecap="round"/>
<path d="M1359.93 96.3517C1359.91 96.3517 1359.9 96.3553 1359.89 96.3553C1359.87 96.3553 1359.86 96.3517 1359.85 96.3517C1352.26 96.4268 1346.16 102.642 1346.24 110.234C1346.25 111.331 1347.15 112.213 1348.25 112.202C1353.2 112.153 1357.51 109.477 1359.89 105.518C1362.27 109.477 1366.57 112.153 1371.53 112.202C1372.63 112.213 1373.53 111.331 1373.54 110.234C1373.61 102.642 1367.52 96.4268 1359.93 96.3517Z" fill="#7C3D21"/>
<path d="M1399.81 156.906L1400.69 160.624C1400.84 161.237 1401.37 161.708 1402 161.714C1403.9 161.732 1405.62 163.04 1406.08 164.976C1406.62 167.255 1405.21 169.54 1402.93 170.081" stroke="#9C9C9C" stroke-width="4" stroke-miterlimit="10" stroke-linecap="round"/>
<path d="M1366.07 151.523H1374.05" stroke="#D3C04F" stroke-width="4" stroke-linecap="round" stroke-linejoin="round"/>
<path d="M1339.93 153.812C1341.11 153.812 1342.07 152.854 1342.07 151.672C1342.07 150.49 1341.11 149.532 1339.93 149.532C1338.75 149.532 1337.79 150.49 1337.79 151.672C1337.79 152.854 1338.75 153.812 1339.93 153.812Z" fill="#421400"/>
<path d="M1329.47 153.812C1330.65 153.812 1331.61 152.854 1331.61 151.672C1331.61 150.49 1330.65 149.532 1329.47 149.532C1328.29 149.532 1327.33 150.49 1327.33 151.672C1327.33 152.854 1328.29 153.812 1329.47 153.812Z" fill="#421400"/>
<path d="M1391.71 153.812C1392.89 153.812 1393.85 152.854 1393.85 151.672C1393.85 150.49 1392.89 149.532 1391.71 149.532C1390.52 149.532 1389.57 150.49 1389.57 151.672C1389.57 152.854 1390.52 153.812 1391.71 153.812Z" fill="#421400"/>
<path d="M1381.24 153.812C1382.43 153.812 1383.38 152.854 1383.38 151.672C1383.38 150.49 1382.43 149.532 1381.24 149.532C1380.06 149.532 1379.1 150.49 1379.1 151.672C1379.1 152.854 1380.06 153.812 1381.24 153.812Z" fill="#421400"/>
<path d="M1352.67 26.8934H1367.33C1383.37 26.8934 1396.4 39.9211 1396.4 55.9676H1323.6C1323.6 39.9212 1336.63 26.8934 1352.67 26.8934Z" fill="black"/>
<path d="M1299.9 37.6478H1420.1C1420.1 57.954 1403.61 74.44 1383.31 74.44H1336.69C1316.39 74.44 1299.9 57.9539 1299.9 37.6478Z" fill="black"/>
<path d="M1401.48 64.9989H1317.28C1313.82 64.9989 1311.01 67.8085 1311.01 71.2744C1311.01 74.7403 1313.82 77.5499 1317.28 77.5499H1401.48C1404.95 77.5499 1407.76 74.7403 1407.76 71.2744C1407.76 67.8085 1404.95 64.9989 1401.48 64.9989Z" fill="#EF1E23"/>
<path d="M1371.68 45.8336C1371.68 39.3824 1366.45 34.1528 1360 34.1528C1353.55 34.1528 1348.32 39.3824 1348.32 45.8336C1348.32 50.0421 1350.55 53.7195 1353.89 55.7756V56.2587C1353.89 57.991 1355.29 59.3956 1357.03 59.3956C1358.31 59.3956 1359.42 58.6186 1359.9 57.5094C1359.93 57.5096 1359.97 57.5144 1360 57.5144C1360.03 57.5144 1360.06 57.5097 1360.1 57.5094C1360.58 58.6186 1361.68 59.3956 1362.97 59.3956C1364.7 59.3956 1366.11 57.991 1366.11 56.2587V55.7756C1369.45 53.7196 1371.68 50.0421 1371.68 45.8336Z" fill="white"/>
<path d="M1358.18 46.319C1358.18 48.144 1356.7 49.6233 1354.87 49.6233C1353.05 49.6233 1351.57 48.1439 1351.57 46.319C1351.57 44.4941 1353.05 43.679 1354.87 43.679C1356.7 43.679 1358.18 44.494 1358.18 46.319Z" fill="black"/>
<path d="M1365.13 43.679C1363.3 43.679 1361.82 44.494 1361.82 46.319C1361.82 48.144 1363.3 49.6233 1365.13 49.6233C1366.95 49.6233 1368.43 48.1439 1368.43 46.319C1368.43 44.4941 1366.95 43.679 1365.13 43.679Z" fill="black"/>
<path d="M1360 50.0913C1358.75 50.0913 1357.73 51.1059 1357.73 52.3576C1357.73 53.6093 1358.75 51.7418 1360 51.7418C1361.25 51.7418 1362.27 53.6092 1362.27 52.3576C1362.27 51.106 1361.25 50.0913 1360 50.0913Z" fill="black"/>
</g>
<g clip-path="url(#clip9_6073_41578)">
<path d="M1600 0H1440V160H1600V0Z" fill="#764491"/>
<path d="M1583.57 68.1772C1580.42 61.7407 1572.62 59.0668 1566.18 62.2094C1566.03 62.2846 1565.87 62.3578 1565.71 62.4291L1562.63 56.1732C1560.69 52.2259 1556.75 49.7738 1552.35 49.7738H1551.47L1535 16.4906C1532.16 10.7435 1526.41 7.17419 1520 7.17419C1513.59 7.17419 1507.84 10.7435 1505 16.4896L1488.53 49.7738H1487.65C1483.25 49.7738 1479.31 52.2259 1477.37 56.1732L1474.28 62.4291C1474.13 62.3578 1473.98 62.2855 1473.82 62.2103C1470.7 60.6839 1467.17 60.4632 1463.89 61.5912C1460.61 62.7191 1457.96 65.058 1456.43 68.1771C1454.91 71.2962 1454.69 74.8236 1455.81 78.1078C1456.94 81.392 1459.28 84.0414 1462.4 85.5668C1463.23 85.9721 1464.07 86.3539 1464.93 86.7113C1461.88 90.0424 1460.07 94.4584 1460.07 99.1595C1460.07 105.651 1463.52 111.599 1468.93 114.896V137.227C1467.81 139.516 1466.83 141.911 1466.03 144.387C1463.19 145.118 1461.09 147.699 1461.09 150.761V156.631C1461.09 158.489 1461.86 160.168 1463.1 161.367C1463.07 162.289 1463.06 163.214 1463.06 164.138C1463.1 171.875 1469.42 178.17 1477.22 178.17C1477.25 178.17 1477.27 178.17 1477.29 178.169C1477.1 184.423 1477.03 189.544 1477.09 192.954C1477.15 195.678 1479.37 197.858 1482.09 197.858H1488.92C1491.65 202.242 1496.48 205 1501.84 205C1507.2 205 1512.02 202.242 1514.76 197.858H1525.24C1527.98 202.242 1532.8 205 1538.16 205C1543.52 205 1548.35 202.242 1551.08 197.858H1557.91C1560.63 197.858 1562.85 195.678 1562.91 192.954C1562.97 189.544 1562.9 184.358 1562.71 178.03C1569.51 177.062 1574.78 171.201 1574.82 164.141C1574.82 163.67 1574.82 163.2 1574.81 162.728C1577.21 161.747 1578.91 159.383 1578.91 156.631V150.761C1578.91 147.132 1575.96 144.18 1572.33 144.18H1571.79C1571.3 142.694 1570.75 141.241 1570.15 139.831V114.551C1575.28 111.19 1578.45 105.458 1578.45 99.1595C1578.45 94.638 1576.82 90.4095 1574 87.14C1575.23 86.6644 1576.43 86.14 1577.6 85.5668C1580.72 84.0414 1583.06 81.392 1584.19 78.1078C1585.31 74.8236 1585.09 71.2964 1583.57 68.1772Z" fill="white"/>
<path d="M1565.15 80.4875H1473.93V145.577H1565.15V80.4875Z" fill="#B5AEB6"/>
<path d="M1551.62 164.029C1551.6 169.054 1555.65 173.146 1560.68 173.17H1560.72C1565.73 173.169 1569.79 169.125 1569.82 164.115C1569.84 160.128 1569.5 156.435 1568.88 153.016H1550.25C1551.11 156.156 1551.64 159.799 1551.62 164.029Z" fill="#FED8C3"/>
<path d="M1477.16 173.17H1477.2C1482.22 173.146 1486.28 169.054 1486.25 164.029C1486.23 159.8 1486.77 156.156 1487.63 153.016H1469C1468.38 156.435 1468.04 160.128 1468.06 164.115C1468.08 169.125 1472.15 173.17 1477.16 173.17Z" fill="#FED8C3"/>
<path d="M1537.14 135.709C1538.53 136.379 1546.91 140.879 1550.25 153.016H1568.88C1564.48 128.525 1545.75 118.316 1540.47 117.937C1535.47 117.577 1531.1 121.347 1530.74 126.357C1530.43 130.669 1533.18 134.494 1537.14 135.709Z" fill="#42373B"/>
<path d="M1487.63 153.016C1490.97 140.88 1499.34 136.379 1500.74 135.709C1504.7 134.494 1507.45 130.669 1507.14 126.357C1506.78 121.346 1502.4 117.574 1497.41 117.937C1492.13 118.317 1473.4 128.526 1468.99 153.016H1487.63Z" fill="#42373B"/>
<path d="M1572.33 149.18H1555.69C1554.81 149.18 1554.11 149.888 1554.11 150.761V156.632C1554.11 157.505 1554.81 158.212 1555.69 158.212H1572.33C1573.2 158.212 1573.91 157.505 1573.91 156.632V150.761C1573.91 149.888 1573.2 149.18 1572.33 149.18Z" fill="#846D75"/>
<path d="M1484.31 149.18H1467.67C1466.79 149.18 1466.09 149.888 1466.09 150.761V156.632C1466.09 157.505 1466.79 158.212 1467.67 158.212H1484.31C1485.19 158.212 1485.89 157.505 1485.89 156.632V150.761C1485.89 149.888 1485.19 149.18 1484.31 149.18Z" fill="#846D75"/>
<path d="M1522.22 106.307H1517.78C1501.44 106.307 1487.69 118.186 1485.09 134.058C1483.86 139.88 1481.83 179.089 1482.09 192.858H1557.91C1558.17 179.095 1556.15 139.891 1554.92 134.066C1552.31 118.191 1538.56 106.307 1522.22 106.307Z" fill="#524348"/>
<path d="M1542.7 134.338L1537.32 138.013C1531.99 141.651 1524.73 140.283 1521.09 134.958L1536.11 124.696L1542.7 134.338Z" fill="#846D75"/>
<path d="M1498.86 134.338L1504.24 138.013C1509.56 141.651 1516.83 140.283 1520.47 134.958L1505.45 124.696L1498.86 134.338Z" fill="#846D75"/>
<path d="M1560.03 88.1864C1560.03 86.8095 1561.28 85.7262 1562.63 85.9912C1568.8 87.2008 1573.45 92.6366 1573.45 99.1594C1573.45 105.682 1568.8 111.118 1562.63 112.328C1561.28 112.593 1560.03 111.509 1560.03 110.132V88.1864Z" fill="#FED8C3"/>
<path d="M1478.49 88.1864C1478.49 86.8095 1477.24 85.7262 1475.89 85.9912C1469.72 87.2008 1465.07 92.6366 1465.07 99.1594C1465.07 105.682 1469.72 111.118 1475.89 112.328C1477.24 112.593 1478.49 111.509 1478.49 110.132V88.1864Z" fill="#FED8C3"/>
<path d="M1474.43 87.8297C1474.05 90.2217 1473.84 92.6728 1473.84 95.1725C1473.84 120.664 1494.51 134.939 1520 134.939C1545.49 134.939 1566.16 120.664 1566.16 95.1725C1566.16 92.6728 1565.95 90.2217 1565.57 87.8297H1474.43Z" fill="#FED8C3"/>
<path d="M1484.72 83.4541H1473.93V123.765H1484.72V83.4541Z" fill="#B5AEB6"/>
<path d="M1565.15 83.4541H1554.36V123.765H1565.15V83.4541Z" fill="#B5AEB6"/>
<path d="M1481.18 94.487C1481.18 94.487 1508.15 96.8348 1520.79 85.9708H1481.18V94.487Z" fill="#B5AEB6"/>
<path d="M1558.82 94.487C1558.82 94.487 1531.85 96.8348 1519.21 85.9708H1558.82V94.487Z" fill="#B5AEB6"/>
<path d="M1515.88 115.167C1517.98 117.819 1522 117.821 1524.1 115.171L1524.11 115.167L1524.12 115.189" stroke="#232323" stroke-width="3.6881" stroke-linecap="round" stroke-linejoin="round"/>
<path d="M1548.59 119.729H1540.64C1538.74 119.729 1537.2 118.189 1537.2 116.289C1537.2 114.389 1538.74 112.849 1540.64 112.849H1548.59C1550.49 112.849 1552.03 114.389 1552.03 116.289C1552.03 118.189 1550.49 119.729 1548.59 119.729Z" fill="#FFC4A6"/>
<path d="M1499.36 119.729H1491.41C1489.51 119.729 1487.97 118.189 1487.97 116.289C1487.97 114.389 1489.51 112.849 1491.41 112.849H1499.36C1501.26 112.849 1502.8 114.389 1502.8 116.289C1502.8 118.189 1501.26 119.729 1499.36 119.729Z" fill="#FFC4A6"/>
<path d="M1502.69 116.346C1508.24 116.346 1512.73 111.851 1512.73 106.307C1512.73 100.762 1508.24 96.2677 1502.69 96.2677C1497.15 96.2677 1492.65 100.762 1492.65 106.307C1492.65 111.851 1497.15 116.346 1502.69 116.346Z" fill="white"/>
<path d="M1509.24 106.307C1509.24 109.92 1506.31 112.849 1502.69 112.849C1499.08 112.849 1496.15 109.92 1496.15 106.307C1496.15 102.693 1499.08 99.7642 1502.69 99.7642C1506.31 99.7642 1509.24 102.693 1509.24 106.307Z" fill="black"/>
<path opacity="0.13" d="M1505.38 104.018C1505.38 105.179 1504.18 106.121 1502.69 106.121C1501.21 106.121 1500.01 105.179 1500.01 104.018C1500.01 102.856 1501.21 101.915 1502.69 101.915C1504.18 101.915 1505.38 102.856 1505.38 104.018Z" fill="white"/>
<path d="M1537.31 116.346C1542.85 116.346 1547.35 111.851 1547.35 106.307C1547.35 100.762 1542.85 96.2677 1537.31 96.2677C1531.76 96.2677 1527.27 100.762 1527.27 106.307C1527.27 111.851 1531.76 116.346 1537.31 116.346Z" fill="white"/>
<path d="M1543.85 106.307C1543.85 109.92 1540.92 112.849 1537.31 112.849C1533.69 112.849 1530.76 109.92 1530.76 106.307C1530.76 102.693 1533.69 99.7642 1537.31 99.7642C1540.92 99.7642 1543.85 102.693 1543.85 106.307Z" fill="black"/>
<path opacity="0.13" d="M1539.99 104.018C1539.99 105.179 1538.79 106.121 1537.31 106.121C1535.82 106.121 1534.62 105.179 1534.62 104.018C1534.62 102.856 1535.82 101.915 1537.31 101.915C1538.79 101.915 1539.99 102.856 1539.99 104.018Z" fill="white"/>
<path d="M1559.31 76.8844H1480.69L1509.48 18.7078C1511.46 14.7067 1515.54 12.1747 1520 12.1747C1524.46 12.1747 1528.54 14.7067 1530.52 18.7078L1559.31 76.8844Z" fill="#50434A"/>
<path d="M1564.38 71.0283H1475.62L1481.85 58.3824C1482.94 56.1728 1485.19 54.7734 1487.65 54.7734H1552.35C1554.81 54.7734 1557.06 56.1728 1558.15 58.3824L1564.38 71.0283Z" fill="#845394"/>
<path d="M1526.26 54.6678H1513.74C1510.56 54.6678 1507.98 57.2479 1507.98 60.4304V67.2858C1507.98 70.4684 1510.56 73.0484 1513.74 73.0484H1526.26C1529.44 73.0484 1532.02 70.4684 1532.02 67.2858V60.4304C1532.02 57.2479 1529.44 54.6678 1526.26 54.6678Z" fill="#805293" stroke="#F3B11F" stroke-width="3.4284" stroke-miterlimit="10"/>
<path d="M1571.89 73.8883C1567.18 76.1922 1562 77.3899 1556.76 77.3899H1483.24C1478 77.3899 1472.82 76.1922 1468.11 73.8884" stroke="#50434A" stroke-width="16" stroke-miterlimit="10" stroke-linecap="round"/>
<path d="M1520.78 157.309C1523.49 157.309 1525.68 155.114 1525.68 152.406C1525.68 149.698 1523.49 147.503 1520.78 147.503C1518.07 147.503 1515.88 149.698 1515.88 152.406C1515.88 155.114 1518.07 157.309 1520.78 157.309Z" fill="#846D75"/>
</g>
<defs>
<clipPath id="clip0_6073_41578">
<rect width="160" height="160" rx="80" fill="white"/>
</clipPath>
<clipPath id="clip1_6073_41578">
<rect x="160" width="160" height="160" rx="80" fill="white"/>
</clipPath>
<clipPath id="clip2_6073_41578">
<rect x="320" width="160" height="160" rx="80" fill="white"/>
</clipPath>
<clipPath id="clip3_6073_41578">
<rect x="480" width="160" height="160" rx="80" fill="white"/>
</clipPath>
<clipPath id="clip4_6073_41578">
<rect x="640" width="160" height="160" rx="80" fill="white"/>
</clipPath>
<clipPath id="clip5_6073_41578">
<rect x="800" width="160" height="160" rx="80" fill="white"/>
</clipPath>
<clipPath id="clip6_6073_41578">
<rect x="960" width="160" height="160" rx="80" fill="white"/>
</clipPath>
<clipPath id="clip7_6073_41578">
<rect x="1120" width="160" height="160" rx="80" fill="white"/>
</clipPath>
<clipPath id="clip8_6073_41578">
<rect x="1280" width="160" height="160" rx="80" fill="white"/>
</clipPath>
<clipPath id="clip9_6073_41578">
<rect x="1440" width="160" height="160" rx="80" fill="white"/>
</clipPath>
</defs>
</svg>
