<svg width="344" height="344" viewBox="0 0 344 344" fill="none" xmlns="http://www.w3.org/2000/svg">
<g clip-path="url(#clip0_5705_17283)">
<path opacity="0.1" d="M177.594 216.311C175.272 226.225 170.372 233.501 162.895 238.141C155.546 242.229 146.64 243.048 136.175 240.597C126.262 238.274 118.645 233.585 113.326 226.53C108.136 218.923 106.702 210.163 109.024 200.249L112.701 184.552C116.571 168.029 124.9 156.037 137.687 148.574C150.602 140.561 162.856 134.135 174.447 129.298C201.027 117.513 216.382 102.809 220.51 85.1845C223.09 74.1692 221.381 65.3446 215.382 58.7105C209.513 51.5258 200.795 46.5787 189.229 43.8695C178.764 41.4183 169.647 41.8971 161.876 45.3058C154.235 48.1638 149.042 54.2098 146.298 63.4437C144.071 70.4747 138.667 76.1808 130.088 80.562C122.06 85.0723 113.364 86.2309 104.001 84.0377C94.6381 81.8445 87.1507 76.6047 81.5389 68.3184C76.6068 59.6103 75.1084 51.1255 77.0436 42.8641C80.7849 26.8919 88.8852 13.3932 101.344 2.36807C114.354 -8.52807 129.749 -15.9608 147.527 -19.9302C165.856 -23.7706 184.934 -23.3685 204.762 -18.7241C235.605 -11.4995 259.28 2.76099 275.788 24.0573C292.296 45.3537 297.454 69.2202 291.261 95.6569C285.198 121.543 275.725 139.659 262.844 150.004C249.963 160.349 235.477 168.866 219.386 175.555C206.564 180.685 197.095 185.148 190.977 188.944C185.41 192.869 182.174 196.759 181.271 200.614L177.594 216.311ZM119.332 353.429C106.113 350.333 95.7902 343.557 88.3623 333.103C81.4853 322.777 79.4014 311.831 82.1106 300.265C84.9489 288.148 91.8062 278.716 102.683 271.968C114.11 265.349 126.433 263.587 139.651 266.684C151.768 269.522 160.925 276.315 167.122 287.062C173.87 297.938 175.825 309.435 172.987 321.552C170.278 333.118 163.549 342 152.802 348.197C142.605 354.523 131.448 356.267 119.332 353.429Z" fill="white"/>
</g>
<defs>
<clipPath id="clip0_5705_17283">
<rect width="344" height="344" fill="white"/>
</clipPath>
</defs>
</svg>
