<svg width="120" height="121" viewBox="0 0 120 121" fill="none" xmlns="http://www.w3.org/2000/svg">
<g clip-path="url(#clip0_4453_58760)">
<path d="M59.9995 116.045C59.5246 116.045 59.0558 115.919 58.6445 115.681L12.8888 89.2654C12.0532 88.782 11.5332 87.8835 11.5332 86.918V34.0842C11.5332 33.1185 12.0532 32.2189 12.8895 31.7362L58.6438 5.31953C59.0552 5.08216 59.524 4.95703 59.9995 4.95703C60.4743 4.95703 60.9431 5.08216 61.3545 5.31953L107.11 31.7362C107.945 32.2189 108.465 33.1187 108.465 34.0842V86.918C108.465 87.8837 107.945 88.7833 107.109 89.2654L61.3545 115.681C60.9425 115.919 60.4743 116.045 59.9995 116.045Z" fill="#CFF3FF"/>
<path d="M59.9997 9.68163L104.01 35.0909V85.9091L59.9997 111.318L15.9897 85.9091V35.0909L59.9997 9.68163ZM59.9997 0.5C58.7625 0.5 57.5251 0.82 56.4165 1.46013L10.6614 27.8769C8.44412 29.157 7.07812 31.5229 7.07812 34.0833V86.9167C7.07812 89.477 8.444 91.8429 10.6614 93.1231L56.4166 119.54C57.5252 120.18 58.7625 120.5 59.9999 120.5C61.2372 120.5 62.4745 120.18 63.5831 119.54L109.338 93.1231C111.556 91.843 112.922 89.4771 112.922 86.9167V34.0833C112.922 31.523 111.556 29.1571 109.338 27.8769L63.583 1.46013C62.4744 0.82 61.237 0.5 59.9997 0.5Z" fill="#B8EDFF"/>
<path d="M63.4362 21.842L73.6008 41.3856L95.3289 45.0134C98.4213 45.5297 99.6511 49.3144 97.4527 51.5497L82.0067 67.2561L85.2708 89.0419C85.7353 92.1425 82.5159 94.4815 79.7107 93.0816L59.9999 83.2451L40.2892 93.0816C37.4839 94.4816 34.2644 92.1425 34.7291 89.0419L37.9932 67.2561L22.5472 51.5497C20.3489 49.3144 21.5786 45.5297 24.6709 45.0134L46.3991 41.3856L56.5637 21.842C58.0103 19.0605 61.9896 19.0605 63.4362 21.842Z" fill="#B8EDFF"/>
<path d="M60.2958 85.6514C56.6654 85.6514 53.2719 85.0387 50.1169 83.8167C46.9602 82.5935 44.4748 80.9578 42.6603 78.9039C41.7911 77.9567 41.3584 76.8532 41.3584 75.5897C41.3584 74.2493 41.8712 73.0653 42.8972 72.0387C43.9219 71.0145 45.1463 70.5005 46.5665 70.5005C47.9069 70.5005 49.0519 70.9742 49.9985 71.9202C51.3395 73.1835 53.035 74.1699 55.0883 74.8792C57.139 75.5897 59.1514 75.9448 61.1246 75.9448C63.1748 75.9448 64.9509 75.4919 66.45 74.5837C67.949 73.6779 68.6998 72.2363 68.6998 70.2635C68.6998 68.607 68.0076 67.3253 66.6283 66.4172C65.2464 65.5102 62.9381 64.7802 59.7044 64.2272C53.9433 63.2799 49.603 61.682 46.685 59.4334C43.7645 57.1849 42.3058 54.0098 42.3058 49.9058C42.3058 45.488 44.0013 41.9572 47.3949 39.3132C50.7866 36.6703 55.2453 35.3477 60.7695 35.3477C66.45 35.3477 70.9874 36.8088 74.381 39.7269C75.7214 40.8329 76.3928 42.1348 76.3928 43.6332C76.3928 44.896 75.8984 45.9818 74.9133 46.8875C73.9258 47.7958 72.7624 48.2487 71.422 48.2487C70.3954 48.2487 69.4481 47.9734 68.5814 47.4204C65.5809 45.5265 62.4266 44.5798 59.1124 44.5798C57.1391 44.5798 55.482 44.9753 54.141 45.7633C52.7989 46.553 52.1293 47.7365 52.1293 49.3143C52.1293 50.9708 53.1741 52.2733 55.2659 53.2199C57.3551 54.1665 60.4143 55.035 64.4383 55.8237C66.6465 56.2192 68.8365 56.9089 71.0069 57.8952C73.1761 58.8827 74.9913 60.3622 76.4513 62.3337C77.9113 64.3063 78.6413 66.9894 78.6413 70.3818C78.6413 74.8789 76.925 78.5483 73.4924 81.3895C70.061 84.2302 65.6614 85.6514 60.2958 85.6514Z" fill="#008CFF"/>
</g>
<defs>
<clipPath id="clip0_4453_58760">
<rect width="120" height="120" fill="white" transform="translate(0 0.5)"/>
</clipPath>
</defs>
</svg>
