<svg width="120" height="121" viewBox="0 0 120 121" fill="none" xmlns="http://www.w3.org/2000/svg">
<g clip-path="url(#clip0_4453_58763)">
<path d="M60.0001 116.045C59.5252 116.045 59.0552 115.919 58.6438 115.681L12.8895 89.2654C12.0533 88.782 11.5332 87.8824 11.5332 86.918V34.0842C11.5332 33.1185 12.0532 32.2195 12.8895 31.7362L58.6438 5.31953C59.0552 5.08266 59.524 4.95703 60.0001 4.95703C60.475 4.95703 60.9437 5.08216 61.3551 5.31953L107.111 31.7362C107.946 32.2189 108.466 33.1187 108.466 34.0842V86.918C108.466 87.8837 107.946 88.7833 107.109 89.2654L61.3551 115.681C60.9425 115.919 60.475 116.045 60.0001 116.045Z" fill="#D1D8E5"/>
<path d="M59.9997 9.68163L104.01 35.0909V85.9092L59.9996 111.318L15.9897 85.9092V35.0909L59.9997 9.68163ZM59.9997 0.5C58.7624 0.5 57.5251 0.82 56.4165 1.46013L10.6614 27.8769C8.444 29.157 7.07812 31.5229 7.07812 34.0833V86.9167C7.07812 89.477 8.444 91.8429 10.6614 93.1231L56.4165 119.54C57.5251 120.18 58.7625 120.5 59.9997 120.5C61.237 120.5 62.4744 120.18 63.583 119.54L109.338 93.1231C111.556 91.843 112.921 89.4771 112.921 86.9167V34.0833C112.921 31.523 111.556 29.1571 109.338 27.8769L63.583 1.46013C62.4744 0.82 61.237 0.5 59.9997 0.5Z" fill="#C1C7D3"/>
<path d="M63.4362 21.842L73.6008 41.3856L95.3289 45.0134C98.4213 45.5297 99.6511 49.3144 97.4527 51.5497L82.0067 67.2561L85.2708 89.0419C85.7353 92.1425 82.5159 94.4815 79.7107 93.0816L59.9999 83.2451L40.2892 93.0816C37.4839 94.4816 34.2644 92.1425 34.7291 89.0419L37.9932 67.2561L22.5472 51.5497C20.3489 49.3144 21.5786 45.5297 24.6709 45.0134L46.3991 41.3856L56.5637 21.842C58.0103 19.0605 61.9896 19.0605 63.4362 21.842Z" fill="#C3CCDB"/>
<path d="M78.077 81.2712C76.578 82.4553 74.2903 83.4819 71.213 84.3485C68.1356 85.2164 65.1363 85.651 62.2176 85.651C57.3243 85.651 52.9451 84.5647 49.0797 82.3954C45.2131 80.2262 42.1742 77.208 39.9666 73.3408C37.7565 69.476 36.6523 65.0962 36.6523 60.2024C36.6523 55.0743 37.7357 50.6565 39.9073 46.9468C42.0766 43.2389 45.0947 40.3782 48.9613 38.3659C52.8267 36.3542 57.3243 35.3477 62.4543 35.3477C64.5845 35.3477 66.7341 35.546 68.9046 35.9397C71.0738 36.3352 73.066 36.9663 74.8823 37.8335C75.8283 38.3065 76.5181 38.9188 76.9526 39.6677C77.386 40.4184 77.6045 41.2272 77.6045 42.0944C77.6045 43.3573 77.1491 44.5205 76.2433 45.5857C75.3351 46.6508 74.1315 47.1835 72.6325 47.1835C72.0001 47.1835 71.3312 47.0652 70.6207 46.8283C69.2011 46.2772 67.6617 45.8224 66.0052 45.4672C64.3475 45.1125 62.8863 44.9349 61.6253 44.9349C57.5226 44.9349 54.1101 46.3162 51.388 49.0774C48.6658 51.8399 47.3041 55.5478 47.3041 60.2023C47.3041 65.1742 48.7042 69.0793 51.5063 71.9198C54.306 74.7604 57.9156 76.1813 62.3358 76.1813C64.1498 76.1813 66.0822 75.8663 68.1353 75.234C70.1861 74.6042 71.8426 73.8144 73.1061 72.867C73.974 72.3165 74.9201 72.0382 75.9467 72.0382C77.2882 72.0382 78.3735 72.4935 79.2023 73.3993C80.03 74.3075 80.445 75.4318 80.445 76.7733C80.445 78.5092 79.6553 80.0103 78.077 81.2712Z" fill="#5C6373"/>
</g>
<defs>
<clipPath id="clip0_4453_58763">
<rect width="120" height="120" fill="white" transform="translate(0 0.5)"/>
</clipPath>
</defs>
</svg>
