<svg width="120" height="121" viewBox="0 0 120 121" fill="none" xmlns="http://www.w3.org/2000/svg">
<g clip-path="url(#clip0_4453_58762)">
<path d="M59.9988 116.045C59.524 116.045 59.0564 115.919 58.6451 115.681L12.8882 89.2654C12.0532 88.7833 11.5332 87.8835 11.5332 86.918V34.0842C11.5332 33.1185 12.0532 32.2189 12.8895 31.7362L58.6438 5.31953C59.0552 5.08216 59.524 4.95703 59.9988 4.95703C60.475 4.95703 60.9437 5.08278 61.3562 5.32016L107.109 31.7362C107.945 32.2195 108.466 33.1187 108.466 34.0842V86.918C108.466 87.8824 107.946 88.782 107.109 89.2654L61.3549 115.681C60.9436 115.919 60.4737 116.045 59.9988 116.045Z" fill="#FFD894"/>
<path d="M59.9997 9.68163L104.01 35.0908V85.909L59.9997 111.318L15.9899 85.909V35.0909L59.9997 9.68163ZM59.9997 0.5C58.7625 0.5 57.5251 0.82 56.4165 1.46013L10.6614 27.8769C8.444 29.157 7.07812 31.5229 7.07812 34.0833V86.9167C7.07812 89.477 8.444 91.8429 10.6614 93.1231L56.4165 119.54C57.5251 120.18 58.7625 120.5 59.9997 120.5C61.237 120.5 62.4744 120.18 63.583 119.54L109.338 93.1231C111.556 91.843 112.922 89.4771 112.922 86.9167V34.0833C112.922 31.523 111.556 29.1571 109.338 27.8769L63.583 1.46013C62.4744 0.82 61.2371 0.5 59.9997 0.5Z" fill="#FFCC71"/>
<path d="M63.4362 21.842L73.6008 41.3856L95.3289 45.0134C98.4213 45.5297 99.6511 49.3144 97.4527 51.5497L82.0067 67.2561L85.2708 89.0419C85.7353 92.1425 82.5159 94.4815 79.7107 93.0816L59.9999 83.2451L40.2892 93.0816C37.4839 94.4816 34.2644 92.1425 34.7291 89.0419L37.9932 67.2561L22.5472 51.5497C20.3489 49.3144 21.5786 45.5297 24.6709 45.0134L46.3991 41.3856L56.5637 21.842C58.0103 19.0605 61.9896 19.0605 63.4362 21.842Z" fill="#FFCC71"/>
<path d="M49.6437 84.4683C47.4336 84.4683 45.5989 83.7396 44.1402 82.2783C42.6791 80.8196 41.9502 78.9848 41.9502 76.7748V43.8708C41.9502 41.8201 42.6607 40.0836 44.0809 38.6633C45.5012 37.2431 47.2358 36.5332 49.2884 36.5332H60.6513C65.0691 36.5332 68.6201 37.7368 71.3032 40.1428C73.9851 42.5507 75.3267 45.4895 75.3267 48.9606C75.3267 52.6703 74.1036 55.6298 71.6584 57.837C75.9187 60.0477 78.0501 63.8343 78.0501 69.1992C78.0501 73.6975 76.5889 77.3657 73.6702 80.207C70.7503 83.0476 66.8441 84.4685 61.9527 84.4685L49.6437 84.4683ZM54.1414 54.8778H60.6514C62.0711 54.8778 63.1758 54.4048 63.9644 53.4582C64.7531 52.511 65.1486 51.4868 65.1486 50.3808C65.1486 49.2767 64.7531 48.2708 63.9644 47.3626C63.1758 46.4562 62.0712 46.0015 60.6514 46.0015H54.1414C52.9579 46.0015 52.3659 46.5928 52.3659 47.777V53.1028C52.3659 54.2863 52.9579 54.8778 54.1414 54.8778ZM54.1414 74.9987H62.4263C64.0034 74.9987 65.3254 74.5251 66.3912 73.5791C67.4568 72.6318 67.9891 71.2525 67.9891 69.436C67.9891 67.622 67.4752 66.2402 66.4509 65.2941C65.4243 64.3468 64.0828 63.8732 62.4263 63.8732H54.1414C52.9579 63.8732 52.3659 64.4652 52.3659 65.6493V73.2238C52.3659 74.408 52.9579 74.9987 54.1414 74.9987Z" fill="#FF8A00"/>
</g>
<defs>
<clipPath id="clip0_4453_58762">
<rect width="120" height="120" fill="white" transform="translate(0 0.5)"/>
</clipPath>
</defs>
</svg>
