<svg width="120" height="121" viewBox="0 0 120 121" fill="none" xmlns="http://www.w3.org/2000/svg">
<g clip-path="url(#clip0_4453_58761)">
<path d="M60.0001 116.045C59.5252 116.045 59.0552 115.919 58.6438 115.681L12.8895 89.2654C12.0533 88.782 11.5332 87.8824 11.5332 86.918V34.0842C11.5332 33.1185 12.0532 32.2195 12.8895 31.7362L58.644 5.31953C59.0553 5.08266 59.5241 4.95703 60.0002 4.95703C60.4751 4.95703 60.9438 5.08216 61.3552 5.31953L107.111 31.7362C107.946 32.2189 108.466 33.1187 108.466 34.0842V86.918C108.466 87.8837 107.946 88.7833 107.11 89.2654L61.3552 115.681C60.9426 115.919 60.475 116.045 60.0001 116.045Z" fill="#D4FFB4"/>
<path d="M59.9997 9.68163L104.01 35.0909V85.9092L59.9996 111.318L15.9897 85.9092V35.0909L59.9997 9.68163ZM59.9997 0.5C58.7625 0.5 57.5251 0.82 56.4165 1.46013L10.6614 27.8769C8.444 29.157 7.07812 31.5229 7.07812 34.0833V86.9167C7.07812 89.477 8.444 91.8429 10.6614 93.1231L56.4165 119.54C57.5251 120.18 58.7625 120.5 59.9997 120.5C61.237 120.5 62.4744 120.18 63.583 119.54L109.338 93.1231C111.556 91.843 112.921 89.4771 112.921 86.9167V34.0833C112.921 31.523 111.556 29.1571 109.338 27.8769L63.583 1.46013C62.4744 0.82 61.237 0.5 59.9997 0.5Z" fill="#B9FA88"/>
<g opacity="0.5">
<path d="M63.4362 21.842L73.6008 41.3856L95.3289 45.0134C98.4213 45.5297 99.6511 49.3144 97.4527 51.5497L82.0067 67.2561L85.2708 89.0419C85.7353 92.1425 82.5159 94.4815 79.7107 93.0816L59.9999 83.2451L40.2892 93.0816C37.4839 94.4816 34.2644 92.1425 34.7291 89.0419L37.9932 67.2561L22.5472 51.5497C20.3489 49.3144 21.5786 45.5297 24.6709 45.0134L46.3991 41.3856L56.5637 21.842C58.0103 19.0605 61.9896 19.0605 63.4362 21.842Z" fill="#B9FA88"/>
</g>
<path d="M42.8376 85.651C41.5747 85.651 40.3706 85.1774 39.228 84.2301C38.083 83.2829 37.5117 82.0609 37.5117 80.5608C37.5117 79.9309 37.6301 79.2595 37.867 78.5484L52.7797 39.6085C53.3308 38.1883 54.2391 37.1232 55.5018 36.4133C56.7635 35.7028 58.0653 35.3477 59.4075 35.3477C60.8277 35.3477 62.1888 35.7029 63.4913 36.4133C64.7926 37.1232 65.7191 38.1882 66.2721 39.6085L82.2511 78.3115C82.4086 78.6277 82.488 78.9439 82.488 79.2594V80.2054C82.488 81.8632 81.935 83.1644 80.8302 84.1117C79.7242 85.0589 78.5023 85.5325 77.162 85.5325C76.2147 85.5325 75.2857 85.2749 74.38 84.7623C73.4717 84.2508 72.8211 83.4427 72.4268 82.3368L68.9942 73.104C68.9148 72.6304 68.5987 72.3935 68.0482 72.3935H52.0698C51.5168 72.3935 51.1616 72.6304 51.0042 73.104L47.6906 82.4553C47.1376 83.4819 46.4272 84.2704 45.5598 84.8223C44.6907 85.3728 43.7842 85.651 42.8376 85.651ZM56.3306 63.1614H63.313C63.7866 63.1614 64.1601 62.9844 64.4372 62.6292C64.7131 62.2739 64.773 61.821 64.6155 61.268L61.5381 52.8647C61.0645 51.6037 60.4736 50.9708 59.7632 50.9708C59.0528 50.9708 58.4607 51.6422 57.9871 52.9832L55.0287 61.3865C54.8695 61.8602 54.9103 62.274 55.1465 62.6292C55.3833 62.9844 55.7776 63.1614 56.3306 63.1614Z" fill="#58CC02"/>
</g>
<defs>
<clipPath id="clip0_4453_58761">
<rect width="120" height="120" fill="white" transform="translate(0 0.5)"/>
</clipPath>
</defs>
</svg>
