<svg width="56" height="56" viewBox="0 0 56 56" fill="none" xmlns="http://www.w3.org/2000/svg">
<path d="M4.24082 29.8379H1.67358L3.42397 8.17969H4.24082V29.8379Z" fill="#4EAF0E"/>
<path d="M11.2574 39.259C17.4747 39.259 22.5148 34.2189 22.5148 28.0016C22.5148 21.7843 17.4747 16.7441 11.2574 16.7441C5.04013 16.7441 0 21.7843 0 28.0016C0 34.2189 5.04013 39.259 11.2574 39.259Z" fill="#4EAF0E"/>
<path d="M44.7425 39.259C50.9598 39.259 55.9999 34.2189 55.9999 28.0016C55.9999 21.7843 50.9598 16.7441 44.7425 16.7441C38.5252 16.7441 33.4851 21.7843 33.4851 28.0016C33.4851 34.2189 38.5252 39.259 44.7425 39.259Z" fill="#4EAF0E"/>
<path d="M52.044 19.3952C52.044 18.3025 51.805 17.2172 51.3057 16.2453C47.0329 7.92792 38.3709 2.23633 28.3768 2.23633C18.3828 2.23633 9.72064 7.92792 5.44795 16.2453C4.94869 17.2172 4.70972 18.3024 4.70972 19.3951V36.6082C4.70972 37.7009 4.94863 38.7861 5.44795 39.758C9.72064 48.0755 18.3828 53.7671 28.3768 53.7671C38.3709 53.7671 47.0329 48.0756 51.3057 39.7581C51.805 38.7861 52.044 37.7009 52.044 36.6082V19.3952Z" fill="#63C928"/>
<path d="M3.80903 10.3158C4.98841 10.3158 5.94449 9.35975 5.94449 8.18038C5.94449 7.001 4.98841 6.04492 3.80903 6.04492C2.62965 6.04492 1.67358 7.001 1.67358 8.18038C1.67358 9.35975 2.62965 10.3158 3.80903 10.3158Z" fill="#4EAF0E"/>
<path d="M37.7056 3.98179C34.8127 2.85686 31.6679 2.23633 28.3769 2.23633C25.0858 2.23633 21.941 2.85686 19.0481 3.98179V20.9694H37.7056V3.98179Z" fill="#4EAF0E"/>
<path d="M45.7245 28.0016C45.7245 37.5824 37.9577 45.3492 28.3769 45.3492C18.7961 45.3492 11.0293 37.5824 11.0293 28.0016C11.0293 18.4208 18.7961 15.5547 28.3769 15.5547C37.9577 15.5547 45.7245 18.4208 45.7245 28.0016Z" fill="#D8F4C6" stroke="white" stroke-width="2.44461" stroke-miterlimit="10"/>
<path d="M20.0622 34.1859C23.0599 34.1859 25.4901 31.7557 25.4901 28.758C25.4901 25.7602 23.0599 23.3301 20.0622 23.3301C17.0644 23.3301 14.6343 25.7602 14.6343 28.758C14.6343 31.7557 17.0644 34.1859 20.0622 34.1859Z" fill="white"/>
<path d="M20.0621 32.2956C22.0158 32.2956 23.5995 30.7118 23.5995 28.7581C23.5995 26.8045 22.0158 25.2207 20.0621 25.2207C18.1084 25.2207 16.5247 26.8045 16.5247 28.7581C16.5247 30.7118 18.1084 32.2956 20.0621 32.2956Z" fill="#133000"/>
<path opacity="0.13" d="M20.0621 28.657C20.864 28.657 21.5141 28.1479 21.5141 27.5199C21.5141 26.8919 20.864 26.3828 20.0621 26.3828C19.2602 26.3828 18.6101 26.8919 18.6101 27.5199C18.6101 28.1479 19.2602 28.657 20.0621 28.657Z" fill="white"/>
<path d="M36.6913 34.1859C39.6891 34.1859 42.1192 31.7557 42.1192 28.758C42.1192 25.7602 39.6891 23.3301 36.6913 23.3301C33.6936 23.3301 31.2634 25.7602 31.2634 28.758C31.2634 31.7557 33.6936 34.1859 36.6913 34.1859Z" fill="white"/>
<path d="M36.6912 32.2956C38.6449 32.2956 40.2287 30.7118 40.2287 28.7581C40.2287 26.8045 38.6449 25.2207 36.6912 25.2207C34.7376 25.2207 33.1538 26.8045 33.1538 28.7581C33.1538 30.7118 34.7376 32.2956 36.6912 32.2956Z" fill="#133000"/>
<path opacity="0.13" d="M36.6912 28.657C37.4931 28.657 38.1432 28.1479 38.1432 27.5199C38.1432 26.8919 37.4931 26.3828 36.6912 26.3828C35.8893 26.3828 35.2393 26.8919 35.2393 27.5199C35.2393 28.1479 35.8893 28.657 36.6912 28.657Z" fill="white"/>
<path d="M26.1475 33.6465C27.2826 35.0806 29.458 35.0818 30.5948 33.649L30.5968 33.6465L30.6064 33.6585" stroke="#232323" stroke-width="1.99407" stroke-linecap="round" stroke-linejoin="round"/>
<path d="M26.6317 40.502H30.1219C30.9106 40.502 31.5893 41.0594 31.7425 41.8331L32.1696 43.9902C32.3719 45.0116 31.5903 45.9632 30.549 45.9632H26.2046C25.1633 45.9632 24.3818 45.0116 24.584 43.9902L25.0111 41.8331C25.1643 41.0594 25.843 40.502 26.6317 40.502Z" fill="white"/>
</svg>
