<svg width="56" height="56" viewBox="0 0 56 56" fill="none" xmlns="http://www.w3.org/2000/svg">
<g clip-path="url(#clip0_2044_13811)">
<path d="M52.8056 34.6299C52.8056 48.3296 41.6998 56.0016 28 56.0016C14.3002 56.0016 3.19434 48.3297 3.19434 34.6299C3.19434 20.9301 14.3002 9.82422 28 9.82422C41.6998 9.82422 52.8056 20.9301 52.8056 34.6299Z" fill="#A678FF"/>
<path d="M1.69536 27.957H8.5722V43.5107C8.5722 45.4084 7.03147 46.9491 5.13375 46.9491C3.23604 46.9491 1.69531 45.4084 1.69531 43.5107L1.69536 27.957Z" fill="#FFC200"/>
<path d="M47.4278 27.957H54.3046V43.5107C54.3046 45.4084 52.7639 46.9491 50.8662 46.9491C48.9685 46.9491 47.4277 45.4084 47.4277 43.5107L47.4278 27.957Z" fill="#FFC200"/>
<path d="M5.66833 12.0404L9.95662 7.75212C10.5854 7.12335 11.6064 7.12335 12.2352 7.75212L13.532 9.04892L6.96513 15.6158L5.66833 14.319C5.03956 13.6902 5.03956 12.6692 5.66833 12.0404Z" fill="#FFC200"/>
<path d="M49.0344 15.6172L42.4676 9.05035L43.7644 7.75355C44.3932 7.12478 45.4142 7.12478 46.0429 7.75355L50.3312 12.0418C50.96 12.6706 50.96 13.6916 50.3312 14.3204L49.0344 15.6172Z" fill="#FFC200"/>
<path d="M54.6293 28.7853C53.774 14.804 42.1964 3.7207 28 3.7207C13.8035 3.7207 2.22576 14.804 1.37036 28.7853H54.6293Z" fill="#FFDC00"/>
<path d="M32.7877 27.0756L40.1052 6.75085C36.4591 4.8777 32.3846 3.7207 28.0001 3.7207C23.6156 3.7207 19.5409 4.8777 15.8945 6.75085L23.2112 27.0731L24.0482 28.5232H31.952L32.7877 27.0756Z" fill="#FFD400"/>
<path d="M24.4437 0H31.5564C32.673 0 33.5797 0.906608 33.5797 2.02335V27.2867H22.4204V2.02335C22.4204 0.906656 23.327 0 24.4437 0Z" fill="#FFC200"/>
<path d="M4.53171 22.4629H51.4682C55.2539 22.4629 58.3273 25.5364 58.3273 29.322C58.3273 29.6148 58.0896 29.8525 57.7969 29.8525H-1.79691C-2.08969 29.8525 -2.32739 29.6147 -2.32739 29.3219C-2.32739 25.5363 0.746072 22.4629 4.53171 22.4629Z" fill="#FFAA00"/>
<path d="M40.767 25.8262H15.2327C13.0666 25.8262 11.3105 27.5822 11.3105 29.7483V38.5933C11.3105 40.7594 13.0666 42.5155 15.2327 42.5155H40.767C42.9332 42.5155 44.6892 40.7594 44.6892 38.5933V29.7483C44.6892 27.5822 42.9332 25.8262 40.767 25.8262Z" fill="#F1F1FF" stroke="white" stroke-width="2.19065" stroke-miterlimit="10"/>
<path d="M11.2485 39.6742L9.43041 39.2658C8.45151 39.046 7.75586 38.1768 7.75586 37.1735V31.5926C7.75586 30.5893 8.45146 29.7201 9.43041 29.5002L11.2485 29.0918V39.6742Z" fill="white"/>
<path d="M44.7515 29.0918L46.5695 29.5002C47.5484 29.7201 48.2441 30.5893 48.2441 31.5926V37.1735C48.2441 38.1768 47.5485 39.046 46.5695 39.2658L44.7515 39.6742V29.0918Z" fill="white"/>
<path d="M20.5493 39.0347C23.2356 39.0347 25.4133 36.857 25.4133 34.1706C25.4133 31.4843 23.2356 29.3066 20.5493 29.3066C17.863 29.3066 15.6853 31.4843 15.6853 34.1706C15.6853 36.857 17.863 39.0347 20.5493 39.0347Z" fill="white"/>
<path d="M20.5493 37.3399C22.3 37.3399 23.7193 35.9206 23.7193 34.1699C23.7193 32.4192 22.3 31 20.5493 31C18.7986 31 17.3794 32.4192 17.3794 34.1699C17.3794 35.9206 18.7986 37.3399 20.5493 37.3399Z" fill="black"/>
<path opacity="0.13" d="M20.5494 34.0789C21.268 34.0789 21.8506 33.6227 21.8506 33.06C21.8506 32.4972 21.268 32.041 20.5494 32.041C19.8308 32.041 19.2483 32.4972 19.2483 33.06C19.2483 33.6227 19.8308 34.0789 20.5494 34.0789Z" fill="white"/>
<path d="M35.4509 39.0347C38.1372 39.0347 40.3149 36.857 40.3149 34.1706C40.3149 31.4843 38.1372 29.3066 35.4509 29.3066C32.7646 29.3066 30.5869 31.4843 30.5869 34.1706C30.5869 36.857 32.7646 39.0347 35.4509 39.0347Z" fill="white"/>
<path d="M35.4509 37.3399C37.2016 37.3399 38.6209 35.9206 38.6209 34.1699C38.6209 32.4192 37.2016 31 35.4509 31C33.7002 31 32.281 32.4192 32.281 34.1699C32.281 35.9206 33.7002 37.3399 35.4509 37.3399Z" fill="black"/>
<path opacity="0.13" d="M35.451 34.0789C36.1696 34.0789 36.7522 33.6227 36.7522 33.06C36.7522 32.4972 36.1696 32.041 35.451 32.041C34.7324 32.041 34.1499 32.4972 34.1499 33.06C34.1499 33.6227 34.7324 34.0789 35.451 34.0789Z" fill="white"/>
</g>
<defs>
<clipPath id="clip0_2044_13811">
<rect width="56" height="56" fill="white"/>
</clipPath>
</defs>
</svg>
