<svg width="50" height="56" viewBox="0 0 50 56" fill="none" xmlns="http://www.w3.org/2000/svg">
<path d="M38.5976 9.75189C41.0397 9.75189 43.0195 7.77216 43.0195 5.33005C43.0195 2.88793 41.0397 0.908203 38.5976 0.908203C36.1555 0.908203 34.1758 2.88793 34.1758 5.33005C34.1758 7.77216 36.1555 9.75189 38.5976 9.75189Z" fill="#3192D9"/>
<path d="M36.9043 6.6106L33.7102 14.7148L35.7671 15.5255L38.9612 7.42129L36.9043 6.6106Z" fill="#3192D9"/>
<path d="M12.5412 9.75189C14.9834 9.75189 16.9631 7.77216 16.9631 5.33005C16.9631 2.88793 14.9834 0.908203 12.5412 0.908203C10.0991 0.908203 8.11938 2.88793 8.11938 5.33005C8.11938 7.77216 10.0991 9.75189 12.5412 9.75189Z" fill="#3192D9"/>
<path d="M14.2344 6.61119L12.1775 7.42188L15.3716 15.5261L17.4285 14.7154L14.2344 6.61119Z" fill="#3192D9"/>
<path d="M49.8056 33.7217C49.8056 47.4214 38.6998 55.0934 25 55.0934C11.3002 55.0934 0.194336 47.4215 0.194336 33.7217C0.194336 20.0219 11.3002 8.91602 25 8.91602C38.6998 8.91602 49.8056 20.0219 49.8056 33.7217Z" fill="#57CBF4"/>
<path d="M43.0203 35.8808C43.0203 45.8332 34.9523 48.4825 24.9999 48.4825C15.0475 48.4825 6.97949 45.8333 6.97949 35.8808C6.97949 25.9284 15.0475 22.4863 24.9999 22.4863C34.9523 22.4863 43.0203 25.9285 43.0203 35.8808Z" fill="#CCECFF" stroke="white" stroke-width="2.19055" stroke-miterlimit="10"/>
<path d="M17.5491 40.3471C20.2354 40.3471 22.4131 38.1695 22.4131 35.4831C22.4131 32.7968 20.2354 30.6191 17.5491 30.6191C14.8628 30.6191 12.6851 32.7968 12.6851 35.4831C12.6851 38.1695 14.8628 40.3471 17.5491 40.3471Z" fill="white"/>
<path d="M17.5491 38.6524C19.2998 38.6524 20.719 37.2331 20.719 35.4824C20.719 33.7317 19.2998 32.3125 17.5491 32.3125C15.7984 32.3125 14.3792 33.7317 14.3792 35.4824C14.3792 37.2331 15.7984 38.6524 17.5491 38.6524Z" fill="#003A7F"/>
<path opacity="0.13" d="M17.5492 35.3934C18.2678 35.3934 18.8503 34.9372 18.8503 34.3744C18.8503 33.8117 18.2678 33.3555 17.5492 33.3555C16.8306 33.3555 16.248 33.8117 16.248 34.3744C16.248 34.9372 16.8306 35.3934 17.5492 35.3934Z" fill="white"/>
<path d="M32.4507 40.3471C35.137 40.3471 37.3147 38.1695 37.3147 35.4831C37.3147 32.7968 35.137 30.6191 32.4507 30.6191C29.7644 30.6191 27.5867 32.7968 27.5867 35.4831C27.5867 38.1695 29.7644 40.3471 32.4507 40.3471Z" fill="white"/>
<path d="M32.4507 38.6524C34.2014 38.6524 35.6206 37.2331 35.6206 35.4824C35.6206 33.7317 34.2014 32.3125 32.4507 32.3125C30.7 32.3125 29.2808 33.7317 29.2808 35.4824C29.2808 37.2331 30.7 38.6524 32.4507 38.6524Z" fill="#003A7F"/>
<path opacity="0.13" d="M32.4508 35.3934C33.1694 35.3934 33.7519 34.9372 33.7519 34.3744C33.7519 33.8117 33.1694 33.3555 32.4508 33.3555C31.7322 33.3555 31.1497 33.8117 31.1497 34.3744C31.1497 34.9372 31.7322 35.3934 32.4508 35.3934Z" fill="white"/>
<path d="M23.0022 39.8672C24.0194 41.1523 25.9688 41.1534 26.9875 39.8695L26.9893 39.8672L26.9979 39.878" stroke="#232323" stroke-width="1.78691" stroke-linecap="round" stroke-linejoin="round"/>
</svg>
