<svg width="60" height="121" viewBox="0 0 60 121" fill="none" xmlns="http://www.w3.org/2000/svg">
<g clip-path="url(#clip0_4453_58671)">
<path d="M14.0245 1.55325C14.0245 0.971556 13.5529 0.5 12.9712 0.5C12.3895 0.5 11.918 0.971556 11.918 1.55325V6.45138C11.918 7.03307 12.3895 7.50463 12.9712 7.50463C13.5529 7.50463 14.0245 7.03307 14.0245 6.45138V1.55325Z" fill="#F5DD71"/>
<path d="M1.57965 7.5207C1.07589 7.22985 0.43173 7.40246 0.140883 7.90622C-0.149964 8.40998 0.0226372 9.05414 0.526399 9.34498L4.7683 11.794C5.27206 12.0849 5.91622 11.9123 6.20707 11.4085C6.49791 10.9048 6.32531 10.2606 5.82155 9.96976L1.57965 7.5207Z" fill="#F5DD71"/>
<path d="M0.52686 21.2839C0.0230981 21.5747 -0.149503 22.2189 0.141344 22.7226C0.432191 23.2264 1.07635 23.399 1.58011 23.1081L5.82201 20.6591C6.32577 20.3682 6.49837 19.7241 6.20753 19.2203C5.91668 18.7165 5.27252 18.5439 4.76876 18.8348L0.52686 21.2839Z" fill="#F5DD71"/>
<path d="M11.9179 29.0757C11.9179 29.6574 12.3895 30.1289 12.9712 30.1289C13.5529 30.1289 14.0244 29.6574 14.0244 29.0757V24.1775C14.0244 23.5958 13.5529 23.1243 12.9712 23.1243C12.3895 23.1243 11.9179 23.5958 11.9179 24.1775V29.0757Z" fill="#F5DD71"/>
<path d="M24.3627 23.1082C24.8665 23.3991 25.5107 23.2264 25.8015 22.7227C26.0923 22.2189 25.9197 21.5748 25.416 21.2839L21.1741 18.8349C20.6703 18.544 20.0262 18.7166 19.7353 19.2204C19.4445 19.7241 19.6171 20.3683 20.1208 20.6591L24.3627 23.1082Z" fill="#F5DD71"/>
<path d="M25.4155 9.347C25.9193 9.05616 26.0919 8.412 25.801 7.90824C25.5102 7.40447 24.866 7.23187 24.3623 7.52272L20.1204 9.97177C19.6166 10.2626 19.444 10.9068 19.7348 11.4105C20.0257 11.9143 20.6699 12.0869 21.1736 11.7961L25.4155 9.347Z" fill="#F5DD71"/>
<path d="M46.2383 91.9244C46.2383 91.3427 45.7668 90.8711 45.1851 90.8711C44.6034 90.8711 44.1318 91.3427 44.1318 91.9244V96.8225C44.1318 97.4042 44.6034 97.8757 45.1851 97.8757C45.7668 97.8757 46.2383 97.4042 46.2383 96.8225V91.9244Z" fill="#ABF473"/>
<path d="M36.1981 95.2103C35.7868 94.799 35.1199 94.799 34.7086 95.2103C34.2973 95.6216 34.2973 96.2885 34.7086 96.6998L38.1721 100.163C38.5835 100.575 39.2503 100.575 39.6617 100.163C40.073 99.752 40.073 99.0851 39.6617 98.6738L36.1981 95.2103Z" fill="#ABF473"/>
<path d="M31.4234 104.632C30.8417 104.632 30.3701 105.103 30.3701 105.685C30.3701 106.267 30.8417 106.738 31.4234 106.738L36.3215 106.738C36.9032 106.738 37.3747 106.267 37.3747 105.685C37.3747 105.103 36.9032 104.632 36.3215 104.632L31.4234 104.632Z" fill="#ABF473"/>
<path d="M34.7093 114.672C34.298 115.083 34.298 115.75 34.7093 116.161C35.1207 116.573 35.7875 116.573 36.1989 116.161L39.6623 112.698C40.0737 112.287 40.0737 111.62 39.6623 111.208C39.251 110.797 38.5841 110.797 38.1728 111.208L34.7093 114.672Z" fill="#ABF473"/>
<path d="M44.1318 119.449C44.1318 120.03 44.6033 120.502 45.185 120.502C45.7667 120.502 46.2383 120.03 46.2383 119.449L46.2383 114.551C46.2383 113.969 45.7667 113.497 45.185 113.497C44.6033 113.497 44.1318 113.969 44.1318 114.551L44.1318 119.449Z" fill="#ABF473"/>
<path d="M54.171 116.161C54.5823 116.572 55.2492 116.572 55.6605 116.161C56.0718 115.749 56.0718 115.083 55.6605 114.671L52.197 111.208C51.7857 110.796 51.1188 110.796 50.7075 111.208C50.2962 111.619 50.2962 112.286 50.7075 112.697L54.171 116.161Z" fill="#ABF473"/>
<path d="M58.9468 106.739C59.5285 106.739 60 106.268 60 105.686C60 105.104 59.5284 104.633 58.9468 104.633L54.0486 104.633C53.4669 104.633 52.9954 105.104 52.9954 105.686C52.9954 106.268 53.4669 106.739 54.0486 106.739L58.9468 106.739Z" fill="#ABF473"/>
<path d="M55.6608 96.6991C56.0721 96.2878 56.0721 95.6209 55.6608 95.2096C55.2495 94.7983 54.5826 94.7983 54.1713 95.2096L50.7078 98.6731C50.2965 99.0844 50.2965 99.7513 50.7078 100.163C51.1191 100.574 51.786 100.574 52.1973 100.163L55.6608 96.6991Z" fill="#ABF473"/>
<path opacity="0.3" d="M39.8373 39.6434C42.2091 39.6434 44.1317 37.7208 44.1317 35.3491C44.1317 32.9773 42.2091 31.0547 39.8373 31.0547C37.4656 31.0547 35.543 32.9773 35.543 35.3491C35.543 37.7208 37.4656 39.6434 39.8373 39.6434Z" stroke="#F57979" stroke-width="2.5" stroke-miterlimit="10"/>
<path opacity="0.3" d="M30.8179 48.5421C32.0474 48.5421 33.044 47.5454 33.044 46.316C33.044 45.0865 32.0474 44.0898 30.8179 44.0898C29.5885 44.0898 28.5918 45.0865 28.5918 46.316C28.5918 47.5454 29.5885 48.5421 30.8179 48.5421Z" fill="#7F7BB6"/>
<path opacity="0.3" d="M16.2648 84.8969L12.561 88.6008C11.3685 89.7933 11.9141 91.8295 13.5431 92.266L18.6027 93.6218C20.2317 94.0583 21.7223 92.5677 21.2858 90.9387L19.9301 85.879C19.4936 84.25 17.4573 83.7044 16.2648 84.8969Z" stroke="#F57979" stroke-width="2.5" stroke-miterlimit="10"/>
</g>
<defs>
<clipPath id="clip0_4453_58671">
<rect width="60" height="120" fill="white" transform="translate(0 0.5)"/>
</clipPath>
</defs>
</svg>
