<svg width="224" height="318" viewBox="0 0 224 318" fill="none" xmlns="http://www.w3.org/2000/svg">
<g opacity="0.5" clip-path="url(#clip0_2182_14243)">
<path d="M205.273 544.33H18.9409L112.107 163.617L205.273 544.33ZM112.107 163.617L285.455 515.146L428.194 395.374L112.107 163.617ZM112.107 163.617L470.858 321.478L503.214 137.977L112.107 163.617ZM112.107 163.617L488.397 53.9453L395.231 -107.423L112.107 163.617ZM112.107 163.617L329.866 -162.271L154.771 -226L112.107 163.617ZM112.107 163.617L69.4429 -226L-105.652 -162.271L112.107 163.617ZM112.107 163.617L-171.017 -107.423L-264.183 53.9453L112.107 163.617ZM112.107 163.617L-279 137.977L-246.644 321.478L112.107 163.617ZM112.107 163.617L-203.98 395.374L-61.2412 515.146L112.107 163.617Z" fill="url(#paint0_radial_2182_14243)"/>
</g>
<defs>
<radialGradient id="paint0_radial_2182_14243" cx="0" cy="0" r="1" gradientUnits="userSpaceOnUse" gradientTransform="translate(112.107 159.165) scale(388.147 388.147)">
<stop stop-color="white"/>
<stop offset="0.0319" stop-color="white" stop-opacity="0.806584"/>
<stop offset="0.0974" stop-color="white" stop-opacity="0.506659"/>
<stop offset="0.1686" stop-color="white" stop-opacity="0.293656"/>
<stop offset="0.2439" stop-color="white" stop-opacity="0.15642"/>
<stop offset="0.3242" stop-color="white" stop-opacity="0.0742563"/>
<stop offset="0.4113" stop-color="white" stop-opacity="0.0297562"/>
<stop offset="0.5075" stop-color="white" stop-opacity="0.01"/>
<stop offset="0.6179" stop-color="white" stop-opacity="0.01"/>
<stop offset="0.7549" stop-color="white" stop-opacity="0.01"/>
<stop offset="1" stop-color="white" stop-opacity="0"/>
</radialGradient>
<clipPath id="clip0_2182_14243">
<rect width="224" height="318" fill="white"/>
</clipPath>
</defs>
</svg>
