<svg width="108" height="104" viewBox="0 0 108 104" fill="none" xmlns="http://www.w3.org/2000/svg">
<path opacity="0.5" d="M42.5339 15.5468C42.5339 15.9828 42.2695 16.376 41.8621 16.5333L35.5647 18.9493C33.3488 19.7999 31.6119 21.5725 30.797 23.8099L28.4024 30.4074C28.3855 30.4568 28.3479 30.4918 28.3232 30.5364C28.3027 30.5731 28.283 30.609 28.2579 30.6424C28.2193 30.6933 28.1811 30.7389 28.133 30.78C28.0594 30.846 27.9784 30.9032 27.8878 30.9435C27.8306 30.965 27.7734 30.9864 27.7162 30.9935C27.659 31.0079 27.6018 31.015 27.5446 31.015L27.3588 30.9935C27.3016 30.9864 27.2444 30.965 27.1872 30.9435C27.0931 30.9026 27.0104 30.8437 26.9356 30.7761C26.8895 30.7363 26.8525 30.6916 26.8147 30.6427C26.7932 30.6141 26.7756 30.5839 26.7577 30.5528C26.7278 30.5033 26.6861 30.4631 26.6655 30.4074L24.2709 23.8099C23.4632 21.5725 21.7262 19.7999 19.5104 18.9493L13.213 16.5333C12.8056 16.376 12.5339 15.9828 12.5339 15.5468C12.5339 15.0893 12.8342 14.6819 13.2702 14.5461L19.0315 12.7305C21.5261 11.9443 23.4918 10.0143 24.3352 7.54111L26.6798 0.614722C26.7084 0.536108 26.7441 0.464588 26.787 0.400292C26.8156 0.357406 26.8442 0.314519 26.8871 0.278726C26.9729 0.185861 27.0801 0.114341 27.2087 0.0642962C27.2444 0.0500447 27.2873 0.0357274 27.3302 0.0285688C27.3946 0.00715862 27.466 0 27.5375 0C27.609 0 27.6805 0.00715862 27.7448 0.0285688C27.7877 0.0357274 27.8306 0.0500447 27.8663 0.0642962C27.9807 0.107182 28.0807 0.178703 28.1665 0.257316C28.2023 0.293044 28.2309 0.328771 28.2595 0.364564C28.3167 0.443178 28.3667 0.521791 28.3953 0.614722L30.7398 7.54111C31.5761 10.0143 33.549 11.9443 36.0365 12.7305L41.7977 14.5461C42.2409 14.6819 42.5339 15.0893 42.5339 15.5468Z" fill="white"/>
<path opacity="0.5" d="M107.319 76.6625C107.319 76.8671 107.195 77.0515 107.003 77.1253L104.049 78.2587C103.01 78.6577 102.195 79.4893 101.812 80.5389L100.689 83.634C100.681 83.6571 100.664 83.6736 100.652 83.6945C100.642 83.7117 100.633 83.7286 100.621 83.7442C100.603 83.7681 100.585 83.7895 100.563 83.8088C100.528 83.8397 100.49 83.8666 100.448 83.8855C100.421 83.8956 100.394 83.9056 100.367 83.909C100.34 83.9157 100.314 83.919 100.287 83.919L100.2 83.909C100.173 83.9056 100.146 83.8956 100.119 83.8855C100.075 83.8663 100.036 83.8386 100.001 83.807C99.9794 83.7883 99.9621 83.7673 99.9443 83.7444C99.9343 83.7309 99.926 83.7168 99.9176 83.7022C99.9035 83.679 99.884 83.6601 99.8743 83.634L98.751 80.5389C98.372 79.4893 97.5572 78.6577 96.5177 78.2587L93.5634 77.1253C93.3723 77.0515 93.2449 76.8671 93.2449 76.6625C93.2449 76.4479 93.3857 76.2568 93.5903 76.1931L96.293 75.3413C97.4633 74.9725 98.3855 74.0671 98.7811 72.9069L99.881 69.6575C99.8945 69.6206 99.9112 69.5871 99.9313 69.5569C99.9447 69.5368 99.9582 69.5167 99.9783 69.4999C100.019 69.4563 100.069 69.4228 100.129 69.3993C100.146 69.3926 100.166 69.3859 100.186 69.3825C100.216 69.3725 100.25 69.3691 100.283 69.3691C100.317 69.3691 100.35 69.3725 100.381 69.3825C100.401 69.3859 100.421 69.3926 100.438 69.3993C100.491 69.4194 100.538 69.453 100.578 69.4899C100.595 69.5066 100.609 69.5234 100.622 69.5402C100.649 69.577 100.672 69.6139 100.686 69.6575L101.786 72.9069C102.178 74.0671 103.104 74.9725 104.27 75.3413L106.973 76.1931C107.181 76.2568 107.319 76.4479 107.319 76.6625Z" fill="white"/>
<path opacity="0.5" d="M20.7983 93.2763C20.7983 93.5786 20.615 93.8511 20.3325 93.9602L15.9667 95.6351C14.4305 96.2248 13.2263 97.4538 12.6613 99.0049L11.0012 103.579C10.9895 103.613 10.9635 103.637 10.9463 103.668C10.9321 103.694 10.9185 103.719 10.9011 103.742C10.8743 103.777 10.8478 103.809 10.8145 103.837C10.7634 103.883 10.7073 103.923 10.6445 103.95C10.6048 103.965 10.5651 103.98 10.5255 103.985C10.4859 103.995 10.4462 104 10.4066 104L10.2777 103.985C10.2381 103.98 10.1984 103.965 10.1588 103.95C10.0935 103.922 10.0362 103.881 9.98435 103.834C9.95234 103.807 9.92671 103.776 9.90048 103.742C9.88564 103.722 9.87344 103.701 9.86096 103.68C9.84024 103.645 9.81138 103.617 9.79708 103.579L8.13697 99.0049C7.57698 97.4538 6.37277 96.2248 4.83659 95.6351L0.470792 93.9602C0.188317 93.8511 0 93.5786 0 93.2763C0 92.9591 0.208169 92.6767 0.51045 92.5825L4.50458 91.3238C6.23404 90.7787 7.59683 89.4407 8.18154 87.7261L9.80696 82.9242C9.82681 82.8697 9.85158 82.8201 9.88131 82.7756C9.90112 82.7458 9.92097 82.7161 9.9507 82.6913C10.0102 82.6269 10.0845 82.5773 10.1737 82.5426C10.1984 82.5327 10.2282 82.5228 10.2579 82.5179C10.3025 82.503 10.3521 82.498 10.4016 82.498C10.4512 82.498 10.5007 82.503 10.5453 82.5179C10.5751 82.5228 10.6048 82.5327 10.6296 82.5426C10.7088 82.5724 10.7782 82.6219 10.8377 82.6764C10.8625 82.7012 10.8823 82.726 10.9021 82.7508C10.9418 82.8053 10.9765 82.8598 10.9963 82.9242L12.6217 87.7261C13.2015 89.4407 14.5692 90.7787 16.2937 91.3238L20.2879 92.5825C20.5951 92.6767 20.7983 92.9591 20.7983 93.2763Z" fill="white"/>
</svg>
