<svg width="200" height="201" viewBox="0 0 200 201" fill="none" xmlns="http://www.w3.org/2000/svg">
<g clip-path="url(#clip0_2039_7244)">
<path d="M99.9797 0.500244C108.18 0.500244 115.537 5.07664 119.154 12.3829L137.887 50.2779L179.733 56.3396C187.813 57.5037 194.446 63.0835 196.978 70.8711C199.511 78.6593 197.42 87.0088 191.551 92.7492L161.282 122.214L168.437 163.843C169.523 170.025 167.794 176.367 163.734 181.144C159.634 186.002 153.684 188.812 147.373 188.812C143.957 188.812 140.5 187.929 137.404 186.323L99.9796 166.693L62.5953 186.323C59.5001 187.929 56.0431 188.812 52.6262 188.812C46.3151 188.812 40.3658 186.002 36.2655 181.144C32.2055 176.367 30.477 170.025 31.5623 163.843L38.7177 122.214L8.44844 92.7492C2.57954 87.0088 0.489145 78.6592 3.02174 70.8711C5.55414 63.0835 12.1869 57.5037 20.2667 56.3396L62.113 50.2779L80.8454 12.3829C84.4632 5.07664 91.8196 0.500244 99.9797 0.500244Z" fill="#CD9D6F"/>
<path d="M168.795 54.7552L137.887 50.2778L119.155 12.3826C115.537 5.0766 108.18 0.5 99.9799 0.5C91.8198 0.5 84.4634 5.0766 80.8456 12.3826L62.1134 50.2778L20.2669 56.3396C12.1872 57.5037 5.55429 63.0835 3.02199 70.8709C0.489391 78.6589 2.57979 87.0084 8.44859 92.7496L38.718 122.214L35.1212 143.139L168.795 54.7552Z" fill="#D6AA85"/>
<path d="M197.665 81.2024C197.578 81.6893 197.442 82.1642 197.321 82.6434C197.127 83.4078 196.9 84.1635 196.621 84.9039C196.381 85.5424 196.089 86.1612 195.787 86.7773C195.431 87.4997 195.067 88.2189 194.627 88.9037C194.437 89.1981 194.248 89.492 194.044 89.7782C193.301 90.8201 192.493 91.8288 191.551 92.7497L161.282 122.214V133.902L191.551 104.437C192.493 103.516 193.301 102.509 194.044 101.466C194.249 101.179 194.436 100.888 194.626 100.592C194.835 100.267 195.079 99.9608 195.268 99.6277C195.48 99.2553 195.599 98.8464 195.787 98.4647C196.091 97.847 196.38 97.2325 196.621 96.5919C196.72 96.3296 196.876 96.0887 196.964 95.8237C197.125 95.3368 197.195 94.827 197.321 94.3303C197.442 93.85 197.578 93.3783 197.665 92.8904C197.701 92.693 197.775 92.5055 197.805 92.307C197.959 91.2793 198.037 90.2384 198.037 89.191V77.502C198.037 78.7506 197.883 79.9839 197.665 81.2024Z" fill="#C2905B"/>
<path d="M38.7179 122.214L8.44853 92.7497C4.22963 88.6224 1.96313 83.1478 1.96313 77.502V89.1905C1.96313 94.8357 4.22963 100.311 8.44853 104.437L38.7179 133.902V122.214Z" fill="#D39E72"/>
<path d="M168.053 172.57C167.9 173.185 167.767 173.805 167.558 174.404C167.226 175.359 166.791 176.275 166.324 177.176C166.185 177.445 166.09 177.732 165.939 177.995C165.304 179.1 164.573 180.158 163.734 181.145C159.634 186.001 153.684 188.811 147.374 188.811C143.957 188.811 140.5 187.928 137.404 186.323L99.9798 166.693L62.5955 186.323C59.5003 187.928 56.0433 188.811 52.6264 188.811C46.3154 188.811 40.366 186.001 36.2659 181.145C33.0022 177.304 31.2449 172.453 31.2449 167.486V179.174C31.2449 184.14 33.0022 188.992 36.2659 192.832C40.366 197.69 46.3155 200.5 52.6264 200.5C56.0433 200.5 59.5003 199.617 62.5955 198.011L99.9798 178.381L137.404 198.011C140.5 199.617 143.957 200.5 147.374 200.5C153.685 200.5 159.634 197.69 163.734 192.832C164.572 191.846 165.303 190.79 165.938 189.685C165.954 189.657 165.978 189.634 165.993 189.606C166.131 189.364 166.203 189.095 166.331 188.849C166.795 187.952 167.228 187.044 167.558 186.094C167.591 186 167.648 185.915 167.68 185.82C167.85 185.308 167.925 184.771 168.055 184.249C168.194 183.693 168.361 183.148 168.454 182.581C168.47 182.484 168.508 182.392 168.522 182.295C168.676 181.266 168.755 180.222 168.755 179.174V167.486C168.755 168.632 168.639 169.769 168.455 170.891C168.361 171.46 168.192 172.011 168.053 172.57Z" fill="#C2905B"/>
<path d="M99.9797 16.1331C102.226 16.1331 104.157 17.3244 105.141 19.3107L123.873 57.2054L127.514 64.5708L135.645 65.749L177.504 71.8124C179.699 72.1286 181.422 73.5838 182.112 75.7042C182.803 77.8311 182.26 79.97 180.647 81.5474L150.378 111.012L144.481 116.752L145.875 124.862L153.04 166.545C153.321 168.148 152.877 169.779 151.788 171.061C150.652 172.407 149.043 173.179 147.373 173.179C146.511 173.179 145.501 172.912 144.666 172.479L107.241 152.849L99.9756 149.038L92.7119 152.852L55.3964 172.447C54.4986 172.912 53.4889 173.179 52.626 173.179C50.9567 173.179 49.3476 172.407 48.1772 171.021C47.1219 169.779 46.678 168.148 46.9687 166.491L54.1242 124.862L55.5182 116.752L49.6216 111.012L19.3787 81.5731C17.7398 79.9701 17.1963 77.8312 17.8876 75.7054C18.5774 73.5839 20.2999 72.1287 22.5074 71.8109L64.3537 65.7491L72.4853 64.5709L76.1264 57.2055L94.8541 19.3201C95.8423 17.3246 97.7587 16.1331 99.9797 16.1331ZM99.9797 0.500488C91.8196 0.500488 84.4632 5.07649 80.8454 12.3831L62.113 50.2778L20.2667 56.3396C12.1869 57.5037 5.55414 63.0835 3.02174 70.8709C0.489145 78.6594 2.57954 87.009 8.44844 92.7491L38.7177 122.214L31.5623 163.842C30.477 170.025 32.2055 176.367 36.2655 181.145C40.3657 186.002 46.3151 188.812 52.6262 188.812C56.0431 188.812 59.5001 187.929 62.5953 186.323L99.9796 166.693L137.404 186.323C140.5 187.929 143.957 188.812 147.373 188.812C153.684 188.812 159.634 186.002 163.734 181.145C167.794 176.367 169.523 170.025 168.437 163.842L161.282 122.214L191.551 92.7491C197.42 87.009 199.511 78.6594 196.978 70.8709C194.446 63.0835 187.813 57.5037 179.733 56.3396L137.887 50.2778L119.154 12.3831C115.537 5.07649 108.18 0.500488 99.9797 0.500488Z" fill="#E4AC79"/>
<path d="M53.0171 131.307L54.1247 124.862L55.5188 116.752L49.6222 111.012L19.3792 81.5731C17.7403 79.9701 17.1969 77.8312 17.8883 75.7054C18.578 73.5839 20.3006 72.1287 22.508 71.8109L64.3545 65.7491L72.486 64.5709L76.1273 57.2055L94.8549 19.3201C95.8431 17.3246 97.759 16.1333 99.98 16.1333C102.226 16.1333 104.157 17.3246 105.141 19.3109L123.873 57.2056L127.514 64.571L135.646 65.7492L149.198 67.712L168.795 54.7553L137.887 50.2779L119.155 12.3832C115.537 5.07649 108.18 0.500488 99.9799 0.500488C91.8198 0.500488 84.4634 5.07649 80.8456 12.3831L62.1134 50.2778L20.2669 56.3396C12.1872 57.5037 5.55429 63.0835 3.02199 70.8709C0.489391 78.6594 2.57979 87.009 8.44859 92.7491L38.718 122.214L35.1212 143.139L53.0171 131.307Z" fill="#EBB88B"/>
</g>
<defs>
<clipPath id="clip0_2039_7244">
<rect width="200" height="200" fill="white" transform="translate(0 0.5)"/>
</clipPath>
</defs>
</svg>
