<svg width="127" height="22" viewBox="0 0 127 22" fill="none" xmlns="http://www.w3.org/2000/svg">
<path d="M10.3909 1.1217C10.7767 0.459433 11.7334 0.459433 12.1192 1.1217L15.0812 6.20712C15.2225 6.44973 15.4592 6.62175 15.7336 6.68117L21.4855 7.92671C22.2345 8.08892 22.5302 8.99884 22.0195 9.57035L18.0983 13.9589C17.9112 14.1682 17.8208 14.4466 17.8491 14.7259L18.4419 20.5811C18.5191 21.3436 17.7451 21.906 17.0437 21.5969L11.6583 19.2237C11.4014 19.1105 11.1087 19.1105 10.8518 19.2237L5.46636 21.5969C4.76503 21.906 3.991 21.3436 4.0682 20.5811L4.66104 14.7259C4.68932 14.4466 4.59888 14.1682 4.41182 13.9589L0.490595 9.57035C-0.0200593 8.99884 0.275594 8.08892 1.02465 7.92671L6.77648 6.68117C7.05087 6.62175 7.28765 6.44973 7.42895 6.20712L10.3909 1.1217Z" fill="#FFAE00"/>
<path d="M36.4301 1.1217C36.8159 0.459433 37.7726 0.459433 38.1583 1.1217L41.1203 6.20712C41.2616 6.44973 41.4984 6.62175 41.7728 6.68117L47.5246 7.92671C48.2737 8.08892 48.5693 8.99884 48.0587 9.57035L44.1375 13.9589C43.9504 14.1682 43.86 14.4466 43.8883 14.7259L44.4811 20.5811C44.5583 21.3436 43.7843 21.906 43.0829 21.5969L37.6975 19.2237C37.4406 19.1105 37.1479 19.1105 36.891 19.2237L31.5055 21.5969C30.8042 21.906 30.0302 21.3436 30.1074 20.5811L30.7002 14.7259C30.7285 14.4466 30.6381 14.1682 30.451 13.9589L26.5298 9.57035C26.0191 8.99884 26.3148 8.08892 27.0638 7.92671L32.8157 6.68117C33.0901 6.62175 33.3268 6.44973 33.4681 6.20712L36.4301 1.1217Z" fill="#FFAE00"/>
<path d="M62.4693 1.1217C62.855 0.459433 63.8118 0.459433 64.1975 1.1217L67.1595 6.20712C67.3008 6.44973 67.5376 6.62175 67.812 6.68117L73.5638 7.92671C74.3129 8.08892 74.6085 8.99884 74.0979 9.57035L70.1767 13.9589C69.9896 14.1682 69.8992 14.4466 69.9274 14.7259L70.5203 20.5811C70.5975 21.3436 69.8234 21.906 69.1221 21.5969L63.7367 19.2237C63.4798 19.1105 63.1871 19.1105 62.9302 19.2237L57.5447 21.5969C56.8434 21.906 56.0694 21.3436 56.1466 20.5811L56.7394 14.7259C56.7677 14.4466 56.6772 14.1682 56.4902 13.9589L52.569 9.57035C52.0583 8.99884 52.354 8.08892 53.103 7.92671L58.8548 6.68117C59.1292 6.62175 59.366 6.44973 59.5073 6.20712L62.4693 1.1217Z" fill="#FFAE00"/>
<path d="M88.5084 1.1217C88.8941 0.459433 89.8509 0.459433 90.2366 1.1217L93.1986 6.20712C93.3399 6.44973 93.5767 6.62175 93.8511 6.68117L99.6029 7.92671C100.352 8.08892 100.648 8.99884 100.137 9.57035L96.2157 13.9589C96.0287 14.1682 95.9382 14.4466 95.9665 14.7259L96.5593 20.5811C96.6365 21.3436 95.8625 21.906 95.1612 21.5969L89.7757 19.2237C89.5188 19.1105 89.2261 19.1105 88.9692 19.2237L83.5838 21.5969C82.8825 21.906 82.1084 21.3436 82.1856 20.5811L82.7785 14.7259C82.8068 14.4466 82.7163 14.1682 82.5292 13.9589L78.608 9.57035C78.0974 8.99884 78.393 8.08892 79.1421 7.92671L84.8939 6.68117C85.1683 6.62175 85.4051 6.44973 85.5464 6.20712L88.5084 1.1217Z" fill="#FFAE00"/>
<path d="M114.548 1.1217C114.933 0.459433 115.89 0.459433 116.276 1.1217L119.238 6.20712C119.379 6.44973 119.616 6.62175 119.89 6.68117L125.642 7.92671C126.391 8.08892 126.687 8.99884 126.176 9.57035L122.255 13.9589C122.068 14.1682 121.977 14.4466 122.006 14.7259L122.599 20.5811C122.676 21.3436 121.902 21.906 121.2 21.5969L115.815 19.2237C115.558 19.1105 115.265 19.1105 115.008 19.2237L109.623 21.5969C108.922 21.906 108.148 21.3436 108.225 20.5811L108.818 14.7259C108.846 14.4466 108.755 14.1682 108.568 13.9589L104.647 9.57035C104.137 8.99884 104.432 8.08892 105.181 7.92671L110.933 6.68117C111.207 6.62175 111.444 6.44973 111.586 6.20712L114.548 1.1217Z" fill="#FFAE00"/>
</svg>
