<svg width="201" height="201" viewBox="0 0 201 201" fill="none" xmlns="http://www.w3.org/2000/svg">
<g clip-path="url(#clip0_2039_7120)">
<path d="M198.165 81.2024C198.078 81.6893 197.942 82.1642 197.821 82.6434C197.627 83.4078 197.4 84.1635 197.121 84.9039C196.881 85.5424 196.589 86.1612 196.287 86.7773C195.931 87.4997 195.567 88.2189 195.127 88.9037C194.937 89.1981 194.748 89.492 194.544 89.7782C193.801 90.8201 192.993 91.8288 192.051 92.7497L161.782 122.214V133.902L192.051 104.437C192.993 103.516 193.801 102.509 194.544 101.466C194.749 101.179 194.936 100.888 195.126 100.592C195.335 100.267 195.579 99.9608 195.768 99.6277C195.98 99.2553 196.099 98.8464 196.287 98.4647C196.591 97.847 196.88 97.2325 197.121 96.5919C197.22 96.3296 197.376 96.0887 197.464 95.8237C197.625 95.3368 197.695 94.827 197.821 94.3303C197.942 93.85 198.078 93.3783 198.165 92.8904C198.201 92.693 198.275 92.5055 198.305 92.307C198.459 91.2793 198.537 90.2384 198.537 89.191V77.502C198.537 78.7506 198.383 79.9839 198.165 81.2024Z" fill="#C7B0F4"/>
<path d="M39.2181 122.214L8.94866 92.7497C4.72976 88.6224 2.46326 83.1478 2.46326 77.502V89.1905C2.46326 94.8357 4.72976 100.311 8.94866 104.437L39.2181 133.902V122.214Z" fill="#C7B0F4"/>
<path d="M100.48 0.500244C108.68 0.500244 116.037 5.07664 119.654 12.3829L138.387 50.2779L180.233 56.3396C188.313 57.5037 194.946 63.0835 197.478 70.8711C200.011 78.6593 197.92 87.0088 192.051 92.7492L161.782 122.214L168.937 163.843C170.023 170.025 168.294 176.367 164.234 181.144C160.134 186.002 154.184 188.812 147.873 188.812C144.457 188.812 141 187.929 137.904 186.323L100.48 166.693L63.0953 186.323C60.0001 187.929 56.5431 188.812 53.1262 188.812C46.8151 188.812 40.8658 186.002 36.7655 181.144C32.7055 176.367 30.977 170.025 32.0623 163.843L39.2177 122.214L8.94844 92.7492C3.07954 87.0088 0.989145 78.6592 3.52174 70.8711C6.05414 63.0835 12.6869 57.5037 20.7667 56.3396L62.613 50.2779L81.3454 12.3829C84.9632 5.07664 92.3196 0.500244 100.48 0.500244Z" fill="url(#paint0_linear_2039_7120)"/>
<path opacity="0.1" d="M169.295 54.7552L138.387 50.2778L119.655 12.3826C116.037 5.0766 108.68 0.5 100.48 0.5C92.3197 0.5 84.9633 5.0766 81.3455 12.3826L62.6133 50.2778L20.7668 56.3396C12.6871 57.5037 6.05417 63.0835 3.52187 70.8709C0.989269 78.6589 3.07967 87.0084 8.94847 92.7496L39.2179 122.214L35.6211 143.139L169.295 54.7552Z" fill="white"/>
<path opacity="0.2" d="M100.48 16.1331C102.726 16.1331 104.657 17.3244 105.641 19.3107L124.373 57.2054L128.014 64.5708L136.145 65.749L178.004 71.8124C180.199 72.1286 181.922 73.5838 182.612 75.7042C183.303 77.8311 182.76 79.97 181.147 81.5474L150.878 111.012L144.981 116.752L146.375 124.862L153.54 166.545C153.821 168.148 153.377 169.779 152.288 171.061C151.152 172.407 149.543 173.179 147.873 173.179C147.011 173.179 146.001 172.912 145.166 172.479L107.741 152.849L100.476 149.038L93.2119 152.852L55.8964 172.447C54.9986 172.912 53.9889 173.179 53.126 173.179C51.4567 173.179 49.8476 172.407 48.6772 171.021C47.6219 169.779 47.178 168.148 47.4687 166.491L54.6242 124.862L56.0182 116.752L50.1216 111.012L19.8787 81.5731C18.2398 79.9701 17.6963 77.8312 18.3876 75.7054C19.0774 73.5839 20.7999 72.1287 23.0074 71.8109L64.8537 65.7491L72.9853 64.5709L76.6264 57.2055L95.3541 19.3201C96.3423 17.3246 98.2587 16.1331 100.48 16.1331ZM100.48 0.500488C92.3196 0.500488 84.9632 5.07649 81.3454 12.3831L62.613 50.2778L20.7667 56.3396C12.6869 57.5037 6.05414 63.0835 3.52174 70.8709C0.989145 78.6594 3.07954 87.009 8.94844 92.7491L39.2177 122.214L32.0623 163.842C30.977 170.025 32.7055 176.367 36.7655 181.145C40.8657 186.002 46.8151 188.812 53.1262 188.812C56.5431 188.812 60.0001 187.929 63.0953 186.323L100.48 166.693L137.904 186.323C141 187.929 144.457 188.812 147.873 188.812C154.184 188.812 160.134 186.002 164.234 181.145C168.294 176.367 170.023 170.025 168.937 163.842L161.782 122.214L192.051 92.7491C197.92 87.009 200.011 78.6594 197.478 70.8709C194.946 63.0835 188.313 57.5037 180.233 56.3396L138.387 50.2778L119.654 12.3831C116.037 5.07649 108.68 0.500488 100.48 0.500488Z" fill="white"/>
<path opacity="0.1" d="M53.517 131.307L54.6246 124.862L56.0187 116.752L50.1221 111.012L19.8791 81.5731C18.2402 79.9701 17.6968 77.8312 18.3882 75.7054C19.0779 73.5839 20.8005 72.1287 23.0079 71.8109L64.8544 65.7491L72.9859 64.5709L76.6272 57.2055L95.3548 19.3201C96.343 17.3246 98.2589 16.1333 100.48 16.1333C102.726 16.1333 104.657 17.3246 105.641 19.3109L124.373 57.2056L128.014 64.571L136.146 65.7492L149.698 67.712L169.295 54.7553L138.387 50.2779L119.654 12.3832C116.037 5.07649 108.68 0.500488 100.48 0.500488C92.3197 0.500488 84.9633 5.07649 81.3455 12.3831L62.6133 50.2778L20.7668 56.3396C12.6871 57.5037 6.05417 63.0835 3.52187 70.8709C0.989269 78.6594 3.07967 87.009 8.94847 92.7491L39.2179 122.214L35.6211 143.139L53.517 131.307Z" fill="white"/>
<path d="M168.553 172.57C168.4 173.185 168.267 173.805 168.058 174.404C167.726 175.359 167.291 176.275 166.824 177.176C166.685 177.445 166.59 177.732 166.439 177.995C165.804 179.1 165.073 180.158 164.234 181.145C160.134 186.001 154.184 188.811 147.874 188.811C144.457 188.811 141 187.928 137.904 186.323L100.48 166.693L63.0955 186.323C60.0003 187.928 56.5433 188.811 53.1264 188.811C46.8154 188.811 40.866 186.001 36.7659 181.145C33.5022 177.304 31.7449 172.453 31.7449 167.486V179.174C31.7449 184.14 33.5022 188.992 36.7659 192.832C40.866 197.69 46.8155 200.5 53.1264 200.5C56.5433 200.5 60.0003 199.617 63.0955 198.011L100.48 178.381L137.904 198.011C141 199.617 144.457 200.5 147.874 200.5C154.185 200.5 160.134 197.69 164.234 192.832C165.072 191.846 165.803 190.79 166.438 189.685C166.454 189.657 166.478 189.634 166.493 189.606C166.631 189.364 166.703 189.095 166.831 188.849C167.295 187.952 167.728 187.044 168.058 186.094C168.091 186 168.148 185.915 168.18 185.82C168.35 185.308 168.425 184.771 168.555 184.249C168.694 183.693 168.861 183.148 168.954 182.581C168.97 182.484 169.008 182.392 169.022 182.295C169.176 181.266 169.255 180.222 169.255 179.174V167.486C169.255 168.632 169.139 169.769 168.955 170.891C168.861 171.46 168.692 172.011 168.553 172.57Z" fill="#59D3D3"/>
</g>
<defs>
<linearGradient id="paint0_linear_2039_7120" x1="100.5" y1="166.693" x2="100.5" y2="29.5541" gradientUnits="userSpaceOnUse">
<stop stop-color="#5EE0ED"/>
<stop offset="0.3" stop-color="#C0B2FD"/>
<stop offset="0.7" stop-color="#F6B2FF"/>
<stop offset="1" stop-color="#FADCA0"/>
</linearGradient>
<clipPath id="clip0_2039_7120">
<rect width="200" height="200" fill="white" transform="translate(0.5 0.5)"/>
</clipPath>
</defs>
</svg>
