<svg width="201" height="201" viewBox="0 0 201 201" fill="none" xmlns="http://www.w3.org/2000/svg">
<g opacity="0.3" clip-path="url(#clip0_2039_7245)">
<path d="M198.165 81.2022C198.078 81.6891 197.942 82.164 197.821 82.6432C197.627 83.4076 197.4 84.1633 197.121 84.9037C196.881 85.5422 196.589 86.161 196.287 86.7771C195.931 87.4995 195.567 88.2187 195.127 88.9035C194.937 89.1979 194.748 89.4918 194.544 89.778C193.801 90.8199 192.993 91.8286 192.051 92.7495L161.782 122.214V133.902L192.051 104.437C192.993 103.515 193.801 102.508 194.544 101.465C194.749 101.179 194.936 100.888 195.126 100.592C195.335 100.267 195.579 99.9606 195.768 99.6275C195.98 99.2551 196.099 98.8462 196.287 98.4645C196.591 97.8468 196.88 97.2323 197.121 96.5917C197.22 96.3294 197.376 96.0885 197.464 95.8235C197.625 95.3366 197.695 94.8268 197.821 94.3301C197.942 93.8498 198.078 93.3781 198.165 92.8902C198.201 92.6928 198.275 92.5053 198.305 92.3068C198.459 91.2791 198.537 90.2382 198.537 89.1908V77.5018C198.537 78.7504 198.383 79.9837 198.165 81.2022Z" fill="#AAAAAA"/>
<path d="M39.218 122.214L8.9486 92.7495C4.7297 88.6222 2.4632 83.1476 2.4632 77.5018V89.1903C2.4632 94.8355 4.7297 100.311 8.9486 104.437L39.218 133.902V122.214Z" fill="#AAAAAA"/>
<path d="M168.553 172.57C168.4 173.185 168.267 173.805 168.058 174.404C167.726 175.359 167.291 176.275 166.824 177.176C166.685 177.444 166.59 177.732 166.439 177.995C165.804 179.1 165.073 180.158 164.234 181.145C160.134 186.001 154.184 188.811 147.874 188.811C144.457 188.811 141 187.928 137.904 186.323L100.48 166.693L63.0955 186.323C60.0003 187.928 56.5433 188.811 53.1264 188.811C46.8154 188.811 40.866 186.001 36.7659 181.145C33.5022 177.304 31.7449 172.452 31.7449 167.486V179.174C31.7449 184.14 33.5022 188.992 36.7659 192.832C40.866 197.69 46.8155 200.5 53.1264 200.5C56.5433 200.5 60.0003 199.617 63.0955 198.01L100.48 178.381L137.904 198.01C141 199.617 144.457 200.5 147.874 200.5C154.185 200.5 160.134 197.69 164.234 192.832C165.072 191.846 165.803 190.79 166.438 189.685C166.454 189.657 166.478 189.634 166.493 189.606C166.631 189.364 166.703 189.095 166.831 188.849C167.295 187.952 167.728 187.044 168.058 186.094C168.091 186 168.148 185.915 168.18 185.82C168.35 185.308 168.425 184.771 168.555 184.249C168.694 183.693 168.861 183.148 168.954 182.581C168.97 182.484 169.008 182.392 169.022 182.295C169.176 181.266 169.255 180.222 169.255 179.174V167.486C169.255 168.632 169.139 169.769 168.955 170.891C168.861 171.46 168.692 172.011 168.553 172.57Z" fill="#AAAAAA"/>
<path d="M100.48 0.500198C108.68 0.500198 116.037 5.0765 119.655 12.3828L138.387 50.2778L180.233 56.3395C188.313 57.5036 194.946 63.0834 197.478 70.871C200.011 78.6592 197.921 87.0087 192.051 92.7491L161.782 122.214L168.937 163.842C170.023 170.025 168.294 176.367 164.234 181.144C160.134 186.002 154.184 188.812 147.874 188.812C144.457 188.812 141 187.928 137.904 186.323L100.48 166.693L63.0954 186.323C60.0002 187.928 56.5432 188.812 53.1263 188.812C46.8152 188.812 40.8659 186.002 36.7656 181.144C32.7056 176.367 30.9771 170.025 32.0624 163.842L39.2178 122.214L8.94851 92.7491C3.07961 87.0087 0.989206 78.6591 3.52181 70.871C6.05421 63.0834 12.687 57.5036 20.7668 56.3395L62.6131 50.2778L81.3455 12.3828C84.9633 5.0765 92.3197 0.500198 100.48 0.500198Z" fill="#BABABA"/>
</g>
<defs>
<clipPath id="clip0_2039_7245">
<rect width="200" height="200" fill="white" transform="translate(0.5 0.5)"/>
</clipPath>
</defs>
</svg>
