<svg width="1280" height="281" viewBox="0 0 1280 281" fill="none" xmlns="http://www.w3.org/2000/svg">
<g clip-path="url(#clip0_6497_2201)">
<rect width="1280" height="280" transform="translate(0 0.625)" fill="#F5F6F8"/>
<path d="M607.016 96.3223H554.087V160.656H607.016V96.3223Z" fill="#D1D8E4"/>
<path d="M375.896 13.9316H506.45C510.376 13.9316 513.559 17.1146 513.559 21.041V129.943C513.559 133.87 510.376 137.053 506.45 137.053H375.896C371.97 137.053 368.787 133.87 368.787 129.943V21.041C368.787 17.1146 371.97 13.9316 375.896 13.9316Z" fill="#E2E7F0"/>
<path d="M381.228 22.4951H501.118C503.527 22.4951 505.48 24.4483 505.48 26.8577V67.5748C505.48 69.9842 503.527 71.9374 501.118 71.9374H381.228C378.819 71.9374 376.866 69.9842 376.866 67.5748V26.8577C376.866 24.4483 378.819 22.4951 381.228 22.4951Z" fill="white"/>
<path d="M381.228 79.0469H501.118C503.527 79.0469 505.48 81.0001 505.48 83.4094V124.127C505.48 126.536 503.527 128.489 501.118 128.489H381.228C378.819 128.489 376.866 126.536 376.866 124.127V83.4094C376.866 81.0001 378.819 79.0469 381.228 79.0469Z" fill="white"/>
<path d="M488.313 35.9463H494.614C495.551 35.9463 496.311 36.7058 496.311 37.6428V69.2714C496.311 70.2084 495.551 70.9679 494.614 70.9679H488.313C487.376 70.9679 486.616 70.2084 486.616 69.2714V37.6428C486.616 36.7058 487.376 35.9463 488.313 35.9463Z" fill="#E2E7F0"/>
<path d="M478.012 35.9463H484.314C485.251 35.9463 486.01 36.7058 486.01 37.6428V69.2714C486.01 70.2084 485.251 70.9679 484.314 70.9679H478.012C477.075 70.9679 476.316 70.2084 476.316 69.2714V37.6428C476.316 36.7058 477.075 35.9463 478.012 35.9463Z" fill="#ECF0F8"/>
<path d="M490.615 92.8213H496.917C497.854 92.8213 498.613 93.5808 498.613 94.5178V126.146C498.613 127.083 497.854 127.843 496.917 127.843H490.615C489.678 127.843 488.919 127.083 488.919 126.146V94.5178C488.919 93.5808 489.678 92.8213 490.615 92.8213Z" fill="#E2E7F0"/>
<path d="M462.864 92.8213H469.166C470.103 92.8213 470.862 93.5808 470.862 94.5178V126.146C470.862 127.083 470.103 127.843 469.166 127.843H462.864C461.927 127.843 461.168 127.083 461.168 126.146V94.5178C461.168 93.5808 461.927 92.8213 462.864 92.8213Z" fill="#ECF0F8"/>
<path d="M434.508 35.9463H440.809C441.746 35.9463 442.506 36.7058 442.506 37.6428V69.2714C442.506 70.2084 441.746 70.9679 440.809 70.9679H434.508C433.571 70.9679 432.811 70.2084 432.811 69.2714V37.6428C432.811 36.7058 433.571 35.9463 434.508 35.9463Z" fill="#E2E7F0"/>
<path d="M387.853 35.9463H394.154C395.091 35.9463 395.851 36.7058 395.851 37.6428V69.2714C395.851 70.2084 395.091 70.9679 394.154 70.9679H387.853C386.916 70.9679 386.156 70.2084 386.156 69.2714V37.6428C386.156 36.7058 386.916 35.9463 387.853 35.9463Z" fill="#ECF0F8"/>
<path d="M413.382 94.1943H421.541C422.567 94.1943 423.399 95.0263 423.399 96.0525V126.631C423.399 127.657 422.567 128.489 421.541 128.489H413.382C412.355 128.489 411.524 127.657 411.524 126.631V96.0525C411.524 95.0263 412.355 94.1943 413.382 94.1943Z" fill="#E2E7F0"/>
<path d="M425.781 94.1943H431.884C432.798 94.1943 433.538 94.9349 433.538 95.8485V126.835C433.538 127.748 432.798 128.489 431.884 128.489H425.781C424.867 128.489 424.127 127.748 424.127 126.835V95.8485C424.127 94.9349 424.867 94.1943 425.781 94.1943Z" fill="#E2E7F0"/>
<path d="M434.767 99.1573L439.735 95.6118C440.479 95.0811 441.512 95.2537 442.042 95.9973L460.042 121.219C460.573 121.963 460.4 122.996 459.657 123.527L454.689 127.072C453.945 127.603 452.912 127.43 452.381 126.687L434.381 101.465C433.851 100.721 434.023 99.688 434.767 99.1573Z" fill="#ECF0F8"/>
<path d="M424.207 35.9463H430.509C431.446 35.9463 432.205 36.7058 432.205 37.6428V69.2714C432.205 70.2084 431.446 70.9679 430.509 70.9679H424.207C423.27 70.9679 422.511 70.2084 422.511 69.2714V37.6428C422.511 36.7058 423.27 35.9463 424.207 35.9463Z" fill="#ECF0F8"/>
<path d="M470.244 38.672L475.467 41.4299C476.244 41.8399 476.541 42.8021 476.131 43.5788L462.289 69.7991C461.879 70.5758 460.917 70.8731 460.14 70.463L454.916 67.7052C454.14 67.2951 453.842 66.333 454.252 65.5562L468.095 39.336C468.505 38.5592 469.467 38.262 470.244 38.672Z" fill="#E2E7F0"/>
<path d="M455.626 38.1005L461.2 40.0564C462.028 40.3472 462.465 41.2549 462.174 42.0837L452.356 70.061C452.066 70.8898 451.158 71.3259 450.329 71.0351L444.755 69.0792C443.926 68.7883 443.49 67.8807 443.781 67.0519L453.598 39.0746C453.889 38.2458 454.797 37.8097 455.626 38.1005Z" fill="#E2E7F0"/>
<path d="M398.699 90.2764H408.352C409.524 90.2764 410.473 91.2263 410.473 92.398V126.367C410.473 127.539 409.524 128.489 408.352 128.489H398.699C397.528 128.489 396.578 127.539 396.578 126.367V92.398C396.578 91.2263 397.528 90.2764 398.699 90.2764Z" fill="#E2E7F0"/>
<path d="M396.578 93.5889H410.473V101.466H396.578V93.5889Z" fill="#ECF0F8"/>
<path d="M390.13 40.6323H391.877C392.248 40.6323 392.549 40.933 392.549 41.3039V62.6824C392.549 63.0533 392.248 63.354 391.877 63.354H390.13C389.759 63.354 389.458 63.0533 389.458 62.6824V41.3039C389.458 40.933 389.759 40.6323 390.13 40.6323Z" fill="#E2E7F0"/>
<path d="M887.321 46.041H789.962V154.675H887.321V46.041Z" fill="#E2E7F0"/>
<path d="M849.937 86.9917C850.685 86.9917 851.422 87.0346 852.148 87.113C852.856 84.6852 853.242 82.1206 853.242 79.4644C853.242 64.3863 841.019 52.1631 825.941 52.1631C810.863 52.1631 798.639 64.3863 798.639 79.4644C798.639 94.5426 810.863 106.766 825.941 106.766C827.166 106.766 828.371 106.677 829.554 106.52C830.013 95.6579 838.962 86.9917 849.937 86.9917Z" fill="#ECF0F8"/>
<path d="M852.148 87.1128C849.166 97.3463 840.359 105.091 829.554 106.52C829.541 106.811 829.531 107.103 829.531 107.397C829.531 118.667 838.667 127.803 849.937 127.803C861.207 127.803 870.343 118.667 870.343 107.397C870.343 96.8749 862.378 88.2154 852.148 87.1128Z" fill="#ECF0F8"/>
<path d="M881.594 135.372H831.508V141.417H881.594V135.372Z" fill="#ECF0F8"/>
<path d="M881.594 143.915H847.477V149.96H881.594V143.915Z" fill="#ECF0F8"/>
<path d="M913.785 15.0498H860.856V79.3835H913.785V15.0498Z" fill="#D1D8E4"/>
<path d="M1280 188.625H0V280.625H1280V188.625Z" fill="white"/>
<path d="M495.155 44.8638C495.155 44.8638 475.04 43.6736 456.711 62.2406C438.382 80.8076 443.97 109.015 439.867 120.917C435.764 132.819 431.598 138.651 431.598 138.651C431.598 138.651 456.235 165.192 504.2 159.956C552.165 154.719 564.662 138.651 564.662 138.651C564.662 138.651 554.188 129.844 552.284 91.7575C550.38 53.6712 516.102 43.9116 495.155 44.8638Z" fill="#662400"/>
<path d="M454.946 185.684L454.763 188.917H540.326L539.926 185.684L545.202 193.142L569.403 179.019C569.403 179.019 549.646 152.2 543.536 148.391C537.426 144.582 529.174 141.726 522.192 141.726C515.209 141.726 468.514 142.281 468.514 142.281C468.514 142.281 455.819 142.361 442.25 158.627C428.682 174.893 425.905 178.543 425.905 178.543L451.851 190.762L454.946 185.684Z" fill="#0084C3"/>
<path d="M497.523 158.153C506.704 158.153 514.146 154.887 514.146 150.858C514.146 146.829 506.704 143.563 497.523 143.563C488.343 143.563 480.9 146.829 480.9 150.858C480.9 154.887 488.343 158.153 497.523 158.153Z" fill="#F79D5D"/>
<path d="M545.48 100.759C543.206 100.759 541.119 101.572 539.465 102.923C538.93 98.7236 538.18 96.042 538.18 96.042C509.377 97.1132 496.523 75.4517 496.523 75.4517C480.813 96.2801 456.057 95.2089 456.057 95.2089C455.459 97.6356 455.006 99.9914 454.685 102.276C453.198 101.32 451.448 100.759 449.567 100.759C444.21 100.759 439.867 105.236 439.867 110.757C439.867 116.279 444.21 120.755 449.567 120.755C451.497 120.755 453.29 120.167 454.802 119.165C458.822 142.627 479.144 154.654 496.384 153.37C528.124 151.444 537.454 133.824 539.503 118.621C541.151 119.953 543.223 120.755 545.48 120.755C550.837 120.755 555.18 116.279 555.18 110.757C555.18 105.236 550.837 100.759 545.48 100.759Z" fill="#FFCFA3"/>
<path d="M482.032 104.668C484.877 104.912 486.764 105.806 486.912 105.879C487.676 106.25 487.993 107.17 487.622 107.933C487.251 108.695 486.336 109.014 485.573 108.646C485.335 108.533 479.836 105.996 473.604 109.618C472.87 110.044 471.929 109.795 471.503 109.061C471.076 108.327 471.326 107.387 472.06 106.96C475.798 104.787 479.343 104.437 482.032 104.668Z" fill="#662400"/>
<path d="M513.275 104.668C510.431 104.912 508.543 105.806 508.395 105.879C507.632 106.25 507.314 107.17 507.686 107.933C508.056 108.695 508.972 109.014 509.735 108.646C509.973 108.533 515.471 105.996 521.703 109.618C522.437 110.044 523.379 109.795 523.805 109.061C524.232 108.327 523.982 107.387 523.248 106.96C519.51 104.787 515.965 104.437 513.275 104.668Z" fill="#662400"/>
<path d="M479.621 126.655C482.744 126.655 485.276 123.575 485.276 119.775C485.276 115.975 482.744 112.895 479.621 112.895C476.498 112.895 473.966 115.975 473.966 119.775C473.966 123.575 476.498 126.655 479.621 126.655Z" fill="black"/>
<path d="M514.934 126.655C518.057 126.655 520.588 123.575 520.588 119.775C520.588 115.975 518.057 112.895 514.934 112.895C511.81 112.895 509.279 115.975 509.279 119.775C509.279 123.575 511.81 126.655 514.934 126.655Z" fill="black"/>
<path d="M497.099 131.376C499.333 131.376 501.145 129.565 501.145 127.33C501.145 125.095 499.333 123.283 497.099 123.283C494.864 123.283 493.052 125.095 493.052 127.33C493.052 129.565 494.864 131.376 497.099 131.376Z" fill="#FBA662"/>
<path d="M497.524 143.563C501.665 143.563 505.022 141.743 505.022 139.497C505.022 137.251 501.665 135.43 497.524 135.43C493.382 135.43 490.025 137.251 490.025 139.497C490.025 141.743 493.382 143.563 497.524 143.563Z" fill="#FAA15F"/>
<path d="M462.321 243.991H549.214C550.943 243.991 552.189 242.333 551.707 240.673L541.639 205.987C541.312 204.861 540.272 204.095 539.101 204.115L471.008 205.315C469.844 205.336 468.836 206.129 468.542 207.255L459.81 240.741C459.381 242.385 460.622 243.991 462.321 243.991Z" fill="#FFE7B8"/>
<path d="M453.652 232.399H540.545C542.274 232.399 543.519 230.741 543.037 229.08L532.97 194.394C532.643 193.269 531.603 192.502 530.431 192.523L462.339 193.723C461.175 193.743 460.167 194.536 459.873 195.663L451.14 229.149C450.712 230.793 451.952 232.399 453.652 232.399Z" fill="#FFF3D7"/>
<path d="M529.014 224.065C520.841 224.113 512.668 224.16 504.496 224.208C502.518 224.219 502.513 227.294 504.496 227.283C512.668 227.235 520.841 227.187 529.014 227.14C530.992 227.128 530.996 224.053 529.014 224.065Z" fill="#FFE7B8"/>
<path d="M526.713 219.104H515.763C514.932 219.104 514.226 219.811 514.226 220.641C514.226 221.475 514.929 222.179 515.763 222.179H526.713C527.544 222.179 528.25 221.472 528.25 220.641C528.25 219.808 527.547 219.104 526.713 219.104Z" fill="#FFE7B8"/>
<path d="M503.782 214.541C497.011 214.523 490.24 214.505 483.469 214.487C481.491 214.482 481.488 217.557 483.469 217.562C490.24 217.58 497.011 217.598 503.782 217.616C505.761 217.621 505.763 214.547 503.782 214.541Z" fill="#FFE7B8"/>
<path d="M507.59 209.424H498.624C497.82 209.424 497.05 210.131 497.087 210.961C497.124 211.794 497.762 212.499 498.624 212.499H507.59C508.395 212.499 509.165 211.791 509.128 210.961C509.091 210.128 508.452 209.424 507.59 209.424Z" fill="#FFE7B8"/>
<path d="M522.904 202.838C510.199 202.838 497.494 202.838 484.788 202.838H473.948C471.969 202.838 471.966 205.913 473.948 205.913C486.653 205.913 499.359 205.913 512.064 205.913H522.904C524.883 205.913 524.886 202.838 522.904 202.838Z" fill="#FFE7B8"/>
<path d="M499.021 198.141C493.707 197.984 488.389 197.94 483.073 198.01C481.096 198.035 481.09 201.11 483.073 201.084C488.389 201.015 493.707 201.058 499.021 201.215C501.001 201.274 500.999 198.199 499.021 198.141Z" fill="#FFE7B8"/>
<path d="M471.837 195.23C471.837 195.23 476.627 194.546 479.097 198.176C481.567 201.806 480.674 206.715 478.546 206.671C476.419 206.626 471.837 195.23 471.837 195.23Z" fill="#F8A25E"/>
<path d="M458.895 169.553C457.26 170.229 456.471 172.092 457.123 173.736L474.277 217.003L480.505 224.052L480.783 214.57L463.127 171.32C462.449 169.661 460.552 168.868 458.895 169.553Z" fill="#FFB33D"/>
<path d="M480.505 224.052L480.783 214.571L480.644 214.23L474.296 217.025L480.505 224.052Z" fill="#EAB06C"/>
<path d="M478.015 221.234L480.505 224.052L480.615 220.312L478.015 221.234Z" fill="#2D2522"/>
<path d="M465.452 177.015L463.127 171.32C462.449 169.661 460.551 168.868 458.895 169.553C457.26 170.229 456.471 172.092 457.123 173.736L459.247 179.095L465.452 177.015Z" fill="#D87C37"/>
<path d="M464.517 191.685C456.096 190.316 452.437 194.868 452.437 194.868L449.491 193.41L451.254 190.481L427.172 179.14C425.641 181.204 421.738 186.836 419.895 192.885C417.574 200.502 421.858 208.893 429.357 210.5C436.855 212.106 447.21 212.463 447.21 212.463C447.21 212.463 449.322 216.113 456.463 215.548C456.463 215.548 461.313 218.137 464.765 216.411C468.217 214.685 471.787 215.37 471.936 212.394C471.936 212.394 478.036 213.197 478.779 207.812C479.523 202.426 472.938 193.053 464.517 191.685Z" fill="#FFCFA3"/>
<path d="M451.043 194.178L449.491 193.41L450.67 191.451C447.877 190.498 440.452 188.124 435.285 187.926C434.599 187.893 434.035 188.43 434.009 189.109C433.983 189.787 434.513 190.358 435.191 190.385C441.143 190.612 450.838 194.114 450.935 194.15C450.971 194.162 451.007 194.169 451.043 194.178Z" fill="#FEAD6D"/>
<path d="M467.166 200.678C466.787 200.338 466.204 200.37 465.864 200.748C465.524 201.127 465.555 201.711 465.934 202.051C466.003 202.113 472.82 208.306 471.759 213.19C471.752 213.221 471.752 213.252 471.748 213.284C471.851 213.028 471.919 212.738 471.936 212.394C471.936 212.394 472.694 212.492 473.706 212.386C473.896 206.787 467.46 200.941 467.166 200.678Z" fill="#FAAC6A"/>
<path d="M460.619 207.833C460.203 207.539 459.627 207.635 459.332 208.051C459.037 208.466 459.134 209.042 459.549 209.337C461.062 210.413 464.761 213.632 464.936 216.332C465.531 216.049 466.127 215.828 466.707 215.651C466.034 211.798 461.229 208.268 460.619 207.833Z" fill="#FAAC6A"/>
<path d="M568.293 179.666L546.397 192.445L548.773 196.857C548.773 196.857 539.965 198.476 536.335 199.016C532.705 199.555 524.195 198.236 513.543 203.573C502.891 208.91 505.727 213.957 507.433 215.336C509.139 216.716 510.587 216.596 510.587 216.596C510.587 216.596 512.055 220.453 517.629 219.314C517.629 219.314 523.531 220.693 527.994 218.085C532.457 215.476 531.535 218.025 538.676 218.145C545.817 218.265 546.293 217.395 550.132 217.635C553.97 217.875 574.749 220.743 578.676 212.708C582.567 204.749 581.895 196.373 568.293 179.666Z" fill="#FFCFA3"/>
<path d="M561.461 194.251C556.708 193.189 549.814 195.11 548.167 195.606L548.773 196.723C548.773 196.723 548.194 196.828 547.275 196.994C547.431 197.312 547.747 197.516 548.093 197.516C548.187 197.516 548.282 197.502 548.376 197.472C548.454 197.447 556.233 194.975 561.059 196.051C561.556 196.162 562.049 195.849 562.16 195.352C562.271 194.855 561.958 194.362 561.461 194.251Z" fill="#FCAF70"/>
<path d="M527.969 207.274C522.287 209.393 518.642 212.152 517.135 215.475C516.381 217.135 516.351 218.566 516.459 219.482C516.829 219.448 517.214 219.399 517.629 219.314C517.629 219.314 517.882 219.371 518.306 219.44C518.046 217.917 518.103 212.922 528.614 209.002C529.091 208.825 529.334 208.293 529.155 207.816C528.977 207.338 528.445 207.098 527.969 207.274Z" fill="#FBAF6C"/>
<path d="M522.687 205.068C522.539 204.581 522.024 204.304 521.536 204.455C513.115 207.02 510.141 213.964 509.34 216.394C510.091 216.634 510.587 216.596 510.587 216.596C510.587 216.596 510.706 216.896 510.988 217.3C511.483 215.627 513.989 208.682 522.074 206.219C522.561 206.071 522.836 205.555 522.687 205.068Z" fill="#FBAF6C"/>
<path d="M734.651 232.399H821.544C823.273 232.399 824.518 230.74 824.036 229.08L813.969 194.394C813.642 193.269 812.602 192.502 811.43 192.522L743.337 193.722C742.174 193.743 741.166 194.536 740.872 195.662L732.139 229.148C731.71 230.793 732.951 232.399 734.651 232.399Z" fill="#FFF3D7"/>
<path d="M737.768 133.414C737.768 133.414 723.407 141.319 713.726 154.386C704.046 167.454 698.254 177.451 698.254 186.259C698.254 195.066 712.219 199.748 718.725 200.224C728.247 206.254 735.209 207.762 741.22 205.084C745.326 204.012 747.885 202.406 747.944 199.549C750.622 200.442 753.776 198.061 753.925 197.139C756.811 197.139 759.718 195.225 758.051 188.917H822.718L820.179 168.763C820.179 168.763 842.158 178.205 849.696 169.874L831.407 126.826L737.768 133.414Z" fill="#FD5F27"/>
<path d="M775.855 159.122C783.332 159.122 789.393 156.778 789.393 153.885C789.393 150.993 783.332 148.648 775.855 148.648C768.377 148.648 762.316 150.993 762.316 153.885C762.316 156.778 768.377 159.122 775.855 159.122Z" fill="#F89C64"/>
<path d="M812.264 136.627C812.264 136.627 822.5 140.912 826.368 133.057C830.236 125.201 823.393 115.858 823.393 115.858C823.393 115.858 811.431 126.392 812.264 136.627Z" fill="#F6975D"/>
<path d="M724.235 106.069C724.235 106.069 720.823 81.9479 738.2 63.6189C755.576 45.2899 781.84 45.766 795.646 50.4474C809.453 55.1289 812.309 58.7788 812.309 58.7788C812.309 58.7788 831.749 55.9223 837.859 82.662C843.968 109.402 812.785 129.318 812.785 129.318L724.473 114.242L724.235 106.069Z" fill="#4D1E00"/>
<path d="M817.824 114.143C798.146 105.891 798.066 89.7837 798.066 89.7837C790.073 103.15 769.811 104.093 762.25 103.957C760.794 103.93 759.785 102.496 760.242 101.114L764.979 86.7686C752.125 104.621 736.176 102.638 736.176 102.638C736.176 102.638 734.837 106.297 734.06 111.67C732.996 109.7 730.252 104.764 729.253 104.383C728.004 103.907 718.125 101.706 717.113 114.56C716.179 126.429 727.369 130.58 734.525 128.149C737.237 139.782 746.23 151.521 770.692 153.975C822.108 159.132 817.824 114.143 817.824 114.143Z" fill="#FFCFA3"/>
<path d="M840.695 105.851C836.113 97.222 835.637 95.2581 834.625 88.9501C833.614 82.642 830.341 74.2512 823.08 70.0855C815.82 65.9198 810.286 65.0867 808.739 69.6689C808.739 69.6689 799.098 68.7763 801.359 75.0843C801.359 75.0843 797.719 77.0184 798.672 80.4253C799.624 83.8322 807.623 82.1958 810.162 89.6147C812.701 97.0335 811.987 107.745 820.358 112.149C820.358 112.149 831.744 173.484 845.392 172.214C859.039 170.945 864.355 161.185 860.547 144.443C856.738 127.701 840.695 105.851 840.695 105.851Z" fill="#FFCFA3"/>
<path d="M823.835 79.8411C824.013 80.1078 824.306 80.2519 824.603 80.2519C824.779 80.2519 824.957 80.202 825.114 80.097C825.538 79.8141 825.653 79.2419 825.37 78.8179C820.736 71.8665 813.201 69.6071 809.074 68.876C808.947 69.1199 808.835 69.384 808.739 69.6693C808.739 69.6693 807.061 69.5156 805.27 69.7924C805.401 70.1216 805.717 70.3598 806.094 70.3727C806.211 70.3769 817.859 70.8771 823.835 79.8411Z" fill="#FBAF6C"/>
<path d="M801.26 74.7657C801.292 74.8715 801.32 74.9744 801.359 75.0846C801.359 75.0846 800.357 75.6229 799.542 76.6231C802.179 76.4708 810.196 76.6616 817.578 83.5168C817.756 83.6814 817.981 83.763 818.205 83.763C818.453 83.763 818.7 83.6639 818.882 83.4682C819.228 83.0953 819.206 82.5115 818.833 82.1644C812.235 76.0371 805.115 74.8832 801.26 74.7657Z" fill="#FBAF6C"/>
<path d="M818.196 167.83C817.448 168.578 819.221 182.833 820.016 188.917H822.718L820.179 168.763C820.179 168.763 820.29 168.81 820.483 168.889C819.393 167.727 818.887 167.139 818.196 167.83Z" fill="#EA4002"/>
<path d="M756.127 204.131C756.127 204.131 757.337 207.008 758.626 206.869C759.916 206.73 759.38 203.179 758.964 202.247C758.547 201.315 756.127 204.131 756.127 204.131Z" fill="#341D14"/>
<path d="M759.499 202.822L757.515 191.079L744.985 162.567C744.169 160.71 741.943 159.942 740.155 160.9C738.605 161.731 737.919 163.587 738.555 165.226L751.882 199.569L756.167 204.707L759.499 202.822Z" fill="#4E2101"/>
<path d="M756.633 113.489C753.778 113.489 751.821 112.76 751.668 112.701C750.875 112.396 750.48 111.507 750.785 110.714C751.089 109.924 751.973 109.528 752.765 109.829C753.012 109.921 758.707 111.978 764.606 107.836C765.301 107.349 766.261 107.516 766.748 108.211C767.236 108.906 767.068 109.864 766.373 110.352C762.835 112.837 759.333 113.489 756.633 113.489Z" fill="#4F1F00"/>
<path d="M793.14 116.573C786.523 116.573 781.475 111.261 781.237 111.007C780.658 110.387 780.691 109.414 781.311 108.834C781.931 108.255 782.903 108.287 783.482 108.906C783.536 108.963 788.914 114.592 795.017 113.303C795.846 113.131 796.663 113.66 796.838 114.491C797.014 115.321 796.482 116.137 795.651 116.312C794.795 116.493 793.955 116.573 793.14 116.573Z" fill="#4F1F00"/>
<path d="M780.249 145.922C779.657 145.922 779.093 145.578 778.841 145.002C778.79 144.893 777.357 141.956 772.568 141.633C767.719 141.308 765.8 143.921 765.72 144.032C765.23 144.716 764.276 144.888 763.585 144.407C762.894 143.926 762.714 142.987 763.186 142.291C763.301 142.12 766.091 138.111 772.775 138.565C779.498 139.019 781.571 143.572 781.656 143.766C781.997 144.543 781.643 145.45 780.866 145.791C780.665 145.879 780.455 145.922 780.249 145.922Z" fill="#CF4F31"/>
<path d="M758.855 127.959C761.265 127.959 763.219 125.419 763.219 122.286C763.219 119.152 761.265 116.612 758.855 116.612C756.444 116.612 754.49 119.152 754.49 122.286C754.49 125.419 756.444 127.959 758.855 127.959Z" fill="#342117"/>
<path d="M788.094 130.895C790.504 130.895 792.458 128.355 792.458 125.222C792.458 122.088 790.504 119.548 788.094 119.548C785.683 119.548 783.729 122.088 783.729 125.222C783.729 128.355 785.683 130.895 788.094 130.895Z" fill="#342117"/>
<path d="M772.274 134.307C775.21 134.307 777.59 132.273 777.59 129.764C777.59 127.255 775.21 125.222 772.274 125.222C769.338 125.222 766.958 127.255 766.958 129.764C766.958 132.273 769.338 134.307 772.274 134.307Z" fill="#F89F67"/>
<path d="M837.288 201.82C831.229 203.84 826.606 205.451 826.13 209.825C825.654 214.199 827.172 215.746 830.326 216.996C833.48 218.245 835.682 218.424 837.645 217.799C839.609 217.174 851.6 212.406 851.928 209.985C852.255 207.563 852.047 204.707 851.6 203.963C851.154 203.219 844.549 199.41 842.168 200.065C839.788 200.72 838.627 201.374 837.288 201.82Z" fill="#E95B2D"/>
<path d="M851.928 209.985C852.255 207.563 852.047 204.707 851.6 203.963C851.154 203.219 844.549 199.41 842.168 200.065C839.788 200.72 838.627 201.374 837.288 201.821C835.543 202.402 833.924 202.951 832.482 203.541C837.237 205.158 841.461 207.89 841.514 209.289C841.551 210.292 841.12 213.907 841.192 216.436C845.424 214.681 851.692 211.726 851.928 209.985Z" fill="#BC3912"/>
<path d="M837.645 217.799C839.609 217.174 851.6 212.406 851.928 209.985C852.253 207.578 852.049 204.743 851.608 203.979C846.963 205.962 840.373 209.036 837.318 210.688C834.015 212.473 833.599 214.496 834.015 217.055C834.076 217.431 834.141 217.765 834.214 218.068C835.494 218.227 836.606 218.13 837.645 217.799Z" fill="#E44E1D"/>
<path d="M851.928 209.985C852.253 207.578 852.049 204.743 851.608 203.979C848.49 205.31 844.499 207.131 841.286 208.686C841.423 208.905 841.507 209.109 841.514 209.289C841.551 210.292 841.121 213.907 841.192 216.436C845.424 214.681 851.692 211.726 851.928 209.985Z" fill="#B63410"/>
<path d="M731.807 176.658C731.807 176.658 722.281 168.162 705.02 167.161C700.689 174.362 698.254 180.562 698.254 186.259C698.254 195.066 712.219 199.748 718.725 200.224C728.247 206.254 735.209 207.762 741.22 205.084C745.326 204.013 747.885 202.406 747.944 199.549C750.622 200.442 753.776 198.062 753.925 197.139C756.811 197.139 759.717 195.225 758.051 188.917C756.405 184.077 747.24 173.405 731.807 176.658Z" fill="#FFCFA3"/>
<path d="M755.201 196.997C753.585 189.462 742.824 181.917 742.347 181.586C741.788 181.198 741.023 181.337 740.636 181.896C740.249 182.454 740.387 183.22 740.945 183.608C741.057 183.686 752.232 191.518 752.92 198.246C752.924 198.279 752.933 198.309 752.939 198.341C753.505 197.895 753.877 197.44 753.925 197.139C754.356 197.139 754.785 197.09 755.201 196.997Z" fill="#FBAF6C"/>
<path d="M747.944 199.549C748.064 199.589 748.185 199.615 748.306 199.642C745.46 194.572 738.215 189.928 737.862 189.703C737.287 189.339 736.528 189.51 736.164 190.082C735.8 190.656 735.97 191.416 736.543 191.78C739.039 193.364 745.635 198.291 746.804 202.343C747.52 201.571 747.921 200.655 747.944 199.549Z" fill="#FBAF6C"/>
<path d="M741.717 204.946C740.891 201.06 734.509 196.794 733.749 196.298C733.18 195.925 732.418 196.087 732.047 196.656C731.675 197.224 731.836 197.986 732.405 198.357C735.219 200.196 739.235 203.686 739.347 205.688C739.348 205.712 739.355 205.734 739.358 205.757C739.988 205.572 740.61 205.355 741.22 205.083C741.389 205.039 741.552 204.993 741.717 204.946Z" fill="#FBAF6C"/>
<path d="M775.364 196.084C775.513 206.531 775.663 216.977 775.813 227.424C775.83 228.61 777.675 228.614 777.658 227.424C777.508 216.977 777.358 206.531 777.208 196.084C777.191 194.898 775.347 194.895 775.364 196.084Z" fill="#FFE7B8"/>
<path d="M786.058 226.375C794.747 226.418 803.435 226.424 812.124 226.394C813.311 226.39 813.313 224.545 812.124 224.549C803.435 224.58 794.747 224.573 786.058 224.53C784.871 224.524 784.87 226.369 786.058 226.375Z" fill="#FFE7B8"/>
<path d="M791.534 223.202C796.215 223.146 800.898 223.175 805.578 223.291C806.766 223.32 806.765 221.475 805.578 221.446C800.898 221.33 796.215 221.301 791.534 221.357C790.347 221.372 790.344 223.216 791.534 223.202Z" fill="#FFE7B8"/>
<path d="M784.333 218.05C792.168 217.92 800.004 217.79 807.839 217.66C809.025 217.641 809.029 215.796 807.839 215.816C800.004 215.945 792.168 216.075 784.333 216.205C783.147 216.225 783.143 218.069 784.333 218.05Z" fill="#FFE7B8"/>
<path d="M745.687 218.05C753.523 217.92 761.358 217.79 769.194 217.66C770.38 217.641 770.383 215.796 769.194 215.816C761.358 215.945 753.523 216.075 745.687 216.205C744.501 216.225 744.498 218.069 745.687 218.05Z" fill="#FFE7B8"/>
<path d="M796.534 213.097C799.767 212.928 802.999 212.758 806.232 212.589C807.413 212.527 807.421 210.681 806.232 210.744L796.534 211.252C795.353 211.314 795.345 213.16 796.534 213.097Z" fill="#FFE7B8"/>
<path d="M806.292 207.768C799.785 207.751 793.279 207.771 786.772 207.828C785.586 207.838 785.583 209.683 786.772 209.673C793.279 209.616 799.785 209.596 806.292 209.613C807.479 209.616 807.481 207.771 806.292 207.768Z" fill="#FFE7B8"/>
<path d="M772.968 210.111C766.462 210.094 759.955 210.114 753.449 210.171C752.262 210.182 752.259 212.026 753.449 212.016C759.955 211.959 766.462 211.939 772.968 211.956C774.156 211.959 774.157 210.115 772.968 210.111Z" fill="#FFE7B8"/>
<path d="M809.387 201.469H792.783C791.596 201.469 791.594 203.314 792.783 203.314H809.387C810.574 203.314 810.576 201.469 809.387 201.469Z" fill="#FFE7B8"/>
<path d="M790.646 228.65C797.349 225.243 804.438 222.67 811.761 220.962C812.916 220.693 812.427 218.914 811.27 219.184C803.795 220.927 796.557 223.579 789.715 227.057C788.656 227.595 789.589 229.187 790.646 228.65Z" fill="#FF335F"/>
<path d="M790.596 212.258C795.193 209.727 799.997 207.614 804.972 205.945C806.092 205.569 805.612 203.787 804.482 204.166C799.36 205.885 794.398 208.059 789.665 210.665C788.625 211.238 789.554 212.832 790.596 212.258Z" fill="#FF335F"/>
<path d="M788.245 200.548C790.74 198.853 794.087 198.362 796.976 197.695C800.142 196.966 803.331 196.335 806.518 195.705C807.681 195.475 807.189 193.697 806.027 193.926C802.728 194.578 799.428 195.231 796.152 195.994C793.203 196.681 789.863 197.224 787.313 198.955C786.337 199.618 787.259 201.217 788.245 200.548Z" fill="#FF335F"/>
</g>
<defs>
<clipPath id="clip0_6497_2201">
<rect width="1280" height="280" fill="white" transform="translate(0 0.625)"/>
</clipPath>
</defs>
</svg>
