<svg width="65" height="64" viewBox="0 0 65 64" fill="none" xmlns="http://www.w3.org/2000/svg">
<path d="M58.3524 56.2395C61.0961 56.2395 63.3202 54.0154 63.3202 51.2717C63.3202 48.5281 61.0961 46.3039 58.3524 46.3039C55.6088 46.3039 53.3846 48.5281 53.3846 51.2717C53.3846 54.0154 55.6088 56.2395 58.3524 56.2395Z" fill="#FFD400"/>
<path d="M4.45984 27.1724C12.1066 20.6186 24.475 20.5098 33.0358 29.0938C42.3854 38.4686 36.4048 45.592 30.3664 44.4342C23.674 43.151 21.859 28.34 39.6316 26.4714C57.4042 24.6028 61.9198 35.3606 61.9198 35.3606" stroke="#0ED55D" stroke-width="4" stroke-miterlimit="10" stroke-linecap="round"/>
<path d="M42.7797 7.76047C42.7797 7.76047 55.9075 10.3321 61.9199 23.7917" stroke="#0ED55D" stroke-width="4" stroke-miterlimit="10" stroke-linecap="round"/>
</svg>
