<svg width="144" height="48" viewBox="0 0 144 48" fill="none" xmlns="http://www.w3.org/2000/svg">
<path d="M121.636 0H22.0759C11.5406 0 3 8.54049 3 19.0758C3 28.3207 9.57748 36.0259 18.3073 37.7758L16.3343 48L30.0886 38.1517H121.636C132.172 38.1517 140.712 29.6112 140.712 19.0759C140.712 8.54049 132.172 0 121.636 0Z" fill="#2D75FF"/>
<path d="M40.2993 25.9844H25.2332V23.6457H40.2993V25.9844ZM32.8734 16.8309C32.3674 17.9107 31.5881 18.8415 30.5384 19.6206C29.4887 20.3998 28.1871 20.936 26.6338 21.2266L25.4286 18.8528C26.7566 18.621 27.8438 18.2139 28.6907 17.6302C29.5387 17.0477 30.1551 16.3824 30.5384 15.6359C30.923 14.8893 31.1146 14.1313 31.1146 13.3647V12.2397H33.6325V13.3647C33.6325 14.5962 33.3795 15.7512 32.8734 16.8309ZM34.755 15.6709C35.1358 16.4174 35.7546 17.0801 36.6089 17.6565C37.4608 18.234 38.5607 18.6323 39.906 18.8528L38.6734 21.2266C37.1201 20.936 35.8222 20.4062 34.7775 19.6382C33.7353 18.8703 32.9636 17.9496 32.4675 16.876C31.9689 15.8025 31.721 14.6312 31.721 13.3647V12.2397H34.1837V13.3647C34.1837 14.1552 34.3741 14.9242 34.755 15.6709Z" fill="white"/>
<path d="M49.1033 18.0097C48.7426 19.4641 48.0284 20.8221 46.9612 22.0835C45.8926 23.345 44.3468 24.49 42.3249 25.5197L40.7803 23.3687C42.4577 22.5294 43.7341 21.6349 44.6086 20.6829C45.4842 19.7308 46.0767 18.6773 46.39 17.5236C46.7019 16.3686 46.8584 14.9405 46.8584 13.2394V12.8548H49.6432C49.6432 14.8366 49.4628 16.5553 49.1033 18.0097ZM41.3252 19.6206L41.0209 17.1929L47.0901 16.8709V19.0844L41.3252 19.6206ZM48.5722 15.131H41.9142V12.8548H48.5722V15.131ZM54.1854 27.8221H51.3118V11.3466H54.1854V27.8221ZM56.3001 19.781H53.4352V17.4422H56.3001V19.781Z" fill="white"/>
<path d="M63.9439 13.1718C64.6191 13.6578 65.1465 14.3505 65.5235 15.2513C65.9018 16.1532 66.091 17.2017 66.091 18.398C66.091 19.6056 65.9018 20.6604 65.5235 21.5611C65.1465 22.463 64.619 23.1595 63.9439 23.6493C63.2687 24.1403 62.5084 24.3858 61.6641 24.3858C60.8135 24.3858 60.0506 24.1403 59.3754 23.6493C58.699 23.1595 58.1702 22.463 57.7856 21.5611C57.4023 20.6604 57.2107 19.6056 57.2107 18.398C57.2107 17.2017 57.4023 16.1532 57.7856 15.2513C58.1702 14.3507 58.6988 13.6578 59.3754 13.1718C60.0506 12.687 60.8135 12.4452 61.6641 12.4452C62.5084 12.4452 63.2688 12.687 63.9439 13.1718ZM60.7707 15.3903C60.5152 15.6346 60.321 16.0104 60.187 16.519C60.0529 17.0276 59.9866 17.654 59.9866 18.398C59.9866 19.1534 60.053 19.7822 60.187 20.2859C60.321 20.7882 60.5152 21.1615 60.7707 21.4057C61.0275 21.6488 61.3244 21.7716 61.6639 21.7716C62.0085 21.7716 62.3053 21.6488 62.5521 21.4057C62.7989 21.1615 62.9906 20.7882 63.127 20.2859C63.2648 19.7822 63.3325 19.1534 63.3325 18.398C63.3325 17.6539 63.2649 17.0275 63.127 16.519C62.9906 16.0104 62.7988 15.6346 62.5521 15.3903C62.3054 15.1461 62.0085 15.0296 61.6639 15.0421C61.3245 15.0295 61.0275 15.1461 60.7707 15.3903ZM70.7497 27.911H67.8396V11.3466H70.7497V27.911Z" fill="white"/>
<path d="M76.7515 19.1296C78.1821 19.082 79.4624 18.9742 80.5935 18.8076L80.7977 20.9058C79.6202 21.1313 78.3237 21.2841 76.9069 21.3656C75.4914 21.4457 74.072 21.4859 72.6502 21.4859L72.3558 19.1835C73.8552 19.1947 75.3196 19.1772 76.7515 19.1296ZM78.5981 12.6056C79.1606 12.8787 79.6027 13.2583 79.9234 13.743C80.2454 14.2278 80.4057 14.7803 80.4057 15.3991C80.4057 16.0004 80.2454 16.5402 79.9234 17.0188C79.6027 17.4973 79.1606 17.8744 78.5981 18.1475C78.0356 18.4219 77.4042 18.5584 76.7015 18.5584C75.9937 18.5584 75.3586 18.4219 74.7961 18.1475C74.2336 17.8744 73.7889 17.4974 73.462 17.0188C73.1352 16.5402 72.971 16.0004 72.971 15.3991C72.971 14.7803 73.1339 14.2278 73.4583 13.743C73.7816 13.2583 74.23 12.8787 74.8012 12.6056C75.3724 12.3325 76.0064 12.201 76.7015 12.2123C77.4043 12.201 78.0356 12.3326 78.5981 12.6056ZM78.0319 26.5906H75.3549V20.227H78.0319V26.5906ZM76.0639 14.417C75.8822 14.5009 75.7406 14.6262 75.6404 14.7915C75.5389 14.9582 75.4876 15.1611 75.4876 15.3991C75.4876 15.6308 75.5389 15.8249 75.6404 15.979C75.7406 16.1343 75.8822 16.2534 76.0639 16.336C76.2455 16.4199 76.4584 16.4613 76.7015 16.4613C76.952 16.4613 77.165 16.42 77.3403 16.336C77.5157 16.2532 77.651 16.1343 77.7462 15.979C77.8414 15.8249 77.889 15.6307 77.889 15.3991C77.889 15.1611 77.8414 14.958 77.7462 14.7915C77.651 14.6262 77.512 14.5009 77.3316 14.417C77.15 14.3342 76.9395 14.2916 76.7015 14.2916C76.4584 14.2916 76.2455 14.3342 76.0639 14.417ZM82.1107 23.9938H78.9426V21.8254H82.1107V23.9938ZM83.9396 27.1707H81.2713V11.5709H83.9396V27.1707ZM87.412 27.8584H84.725V11.3466H87.412V27.8584Z" fill="white"/>
<path d="M95.5381 13.1718C96.2134 13.6578 96.7407 14.3505 97.1177 15.2513C97.496 16.1532 97.6852 17.2017 97.6852 18.398C97.6852 19.6056 97.496 20.6604 97.1177 21.5611C96.7407 22.463 96.2133 23.1595 95.5381 23.6493C94.8629 24.1403 94.1026 24.3858 93.2583 24.3858C92.4077 24.3858 91.6448 24.1403 90.9696 23.6493C90.2932 23.1595 89.7644 22.463 89.3799 21.5611C88.9966 20.6604 88.8049 19.6056 88.8049 18.398C88.8049 17.2017 88.9966 16.1532 89.3799 15.2513C89.7644 14.3507 90.2931 13.6578 90.9696 13.1718C91.6448 12.687 92.4077 12.4452 93.2583 12.4452C94.1026 12.4452 94.863 12.687 95.5381 13.1718ZM92.3651 15.3903C92.1096 15.6346 91.9154 16.0104 91.7813 16.519C91.6473 17.0276 91.581 17.654 91.581 18.398C91.581 19.1534 91.6474 19.7822 91.7813 20.2859C91.9154 20.7882 92.1096 21.1615 92.3651 21.4057C92.6219 21.6488 92.9187 21.7716 93.2583 21.7716C93.6028 21.7716 93.8997 21.6488 94.1465 21.4057C94.3933 21.1615 94.5849 20.7882 94.7214 20.2859C94.8592 19.7822 94.9269 19.1534 94.9269 18.398C94.9269 17.6539 94.8593 17.0275 94.7214 16.519C94.5849 16.0104 94.3932 15.6346 94.1465 15.3903C93.8998 15.1461 93.6028 15.0296 93.2583 15.0421C92.9189 15.0295 92.6219 15.1461 92.3651 15.3903ZM102.344 27.911H99.434V11.3466H102.344V27.911Z" fill="white"/>
<path d="M111.125 17.1215H107.582V19.9325H104.816V15.0596H108.358V14.3456H104.788V12.1233H111.125V17.1215ZM109.278 17.7905C110.022 17.7554 110.786 17.669 111.571 17.5324L111.812 19.8072C110.961 19.9262 110.11 20.0114 109.255 20.0615C108.402 20.1128 107.317 20.1379 106.002 20.1379H104.816V17.8442H106.002C107.443 17.8442 108.534 17.8268 109.278 17.7905ZM109.786 22.2438H115.624V21.164H118.479V27.7068H106.949V21.164H109.786V22.2438ZM115.624 25.4219V24.4135H109.786V25.4219H115.624ZM114.891 20.495H112.249V11.6146H114.891V20.495ZM116.632 17.1128H114.285V14.8992H116.632V17.1128ZM118.479 20.5489H115.767V11.3829H118.479V20.5489Z" fill="white"/>
</svg>
