<svg width="240" height="240" viewBox="0 0 240 240" fill="none" xmlns="http://www.w3.org/2000/svg">
<path d="M122.964 234.032C139.283 234.032 152.512 227.578 152.512 219.617C152.512 211.655 139.283 205.201 122.964 205.201C106.644 205.201 93.415 211.655 93.415 219.617C93.415 227.578 106.644 234.032 122.964 234.032Z" fill="#1A73D0"/>
<path d="M192.97 220.285C208.762 216.17 219.937 206.588 217.929 198.884C215.922 191.18 201.492 188.27 185.701 192.385C169.909 196.5 158.734 206.081 160.742 213.785C162.749 221.49 177.178 224.399 192.97 220.285Z" fill="#1A73D0"/>
<path d="M81.0481 216.972C83.0556 209.268 71.881 199.687 56.0891 195.572C40.2971 191.457 25.8679 194.367 23.8604 202.071C21.853 209.775 33.0275 219.357 48.8194 223.472C64.6114 227.586 79.0407 224.677 81.0481 216.972Z" fill="#1A73D0"/>
<path d="M72.0589 139.547C53.9394 144.252 17.1999 161.871 10.1924 181.693C3.1849 201.514 50.5358 225.34 107.664 225.34C164.792 225.34 224.723 212.392 226.058 178.222C227.392 144.052 155.048 128.702 120.478 132.84C85.907 136.978 72.0589 139.547 72.0589 139.547Z" fill="#1583E2"/>
<path d="M120.478 132.84C85.9072 136.978 72.0591 139.547 72.0591 139.547C56.2055 143.664 26.0988 157.666 14.1226 174.38C13.8491 185.292 23.0331 198.117 60.4799 206.252C115.985 218.31 231.12 207.311 220.344 161.718C202.74 139.193 148.872 129.442 120.478 132.84Z" fill="#26B6FF"/>
<path d="M61.8084 158.125L59.8645 143.627C43.8303 149.96 23.4629 161.345 14.1226 174.38C14.0367 177.806 14.8853 181.421 17.2464 185.02C23.845 177.595 42.3494 158.873 61.8084 158.125Z" fill="#2FD1FF"/>
<path d="M220.344 161.718C202.739 139.193 148.872 129.442 120.478 132.84C85.907 136.978 72.0589 139.547 72.0589 139.547C67.7272 140.672 62.3281 142.54 56.5288 144.994C54.296 147.317 52.9161 150.649 54.5733 155.298C58.6777 166.81 88.3358 172.769 102.024 174.318C141.266 178.76 152.479 171.215 158.385 175.82C161.245 178.05 169.06 190.635 176.359 203.021C205.034 195.413 225.135 181.986 220.344 161.718Z" fill="#1BA2FF"/>
<path d="M149.292 147.005C149.292 147.005 175.12 152.711 176.822 147.005C177.686 144.106 174.739 140.111 171.631 136.88C166.099 135.589 160.494 134.565 154.983 133.806L149.292 147.005Z" fill="#1384E7"/>
<path d="M81.3857 138.529C71.7754 142.033 68.7721 143.435 67.9713 149.041C67.1705 154.647 84.2048 165.158 119.385 166.159C154.564 167.16 180.492 155.948 177.789 147.439C175.087 138.93 147.957 136.427 139.749 136.227C131.54 136.027 81.3857 138.529 81.3857 138.529Z" fill="#0061C4"/>
<path d="M91.6969 121.611C91.6969 121.611 90.2787 124.097 89.945 126.1C89.945 126.1 81.7362 116.823 72.0591 124.298C62.382 131.772 69.8567 149.208 90.2286 149.858C110.6 150.509 105.845 122.829 105.845 122.829L91.6969 121.611Z" fill="#00A9FF"/>
<path d="M171.399 150.292C161.869 120.522 155.082 114.454 155.082 114.454L99.0215 119.86V144.136L101.924 164.744C107.142 165.474 112.957 165.977 119.385 166.159C143.254 166.839 162.85 161.894 172.148 155.988C172.292 154.277 172.071 152.39 171.399 150.292Z" fill="#37D2FF"/>
<path d="M99.5357 30.6143L94.7461 20.166C96.4405 18.1433 97.4635 15.5393 97.4635 12.6941C97.4635 6.26244 92.2496 1.04834 85.8177 1.04834C79.3858 1.04834 74.1719 6.26244 74.1719 12.6941C74.1719 18.9402 79.0928 24.023 85.2674 24.3123L90.1328 34.9258C91.0026 36.824 92.8775 37.9433 94.8373 37.9433C95.5586 37.9433 96.291 37.7918 96.99 37.4715C99.5862 36.2815 100.727 33.2115 99.5357 30.6143Z" fill="#3192D9"/>
<path d="M123.806 20.8363C149.171 21.1285 167.612 32.5823 179.758 56.7416C191.904 80.9009 183.762 121.077 145.988 124.948C108.215 128.819 71.6418 126.016 61.7645 93.9817C51.8872 61.9473 77.4643 20.3024 123.806 20.8363Z" fill="#36D2FF"/>
<path d="M174.557 17.4661C174.557 10.3893 168.82 4.65234 161.744 4.65234C154.667 4.65234 148.93 10.3892 148.93 17.4661C148.93 20.2998 149.861 22.9098 151.418 25.0316L147.132 33.4784C145.581 36.5353 146.802 40.27 149.858 41.8216C150.758 42.2782 151.717 42.4944 152.662 42.4944C154.926 42.4944 157.108 41.2519 158.202 39.0951L162.699 30.2316C169.328 29.7409 174.557 24.2201 174.557 17.4661Z" fill="#3192D9"/>
<path d="M118.26 116.602C87.5481 116.602 69.8088 106.29 68.3108 87.5639C66.6624 66.9545 75.2151 56.4506 96.9094 52.4418C100.718 51.7387 104.608 51.3813 108.471 51.3813C127.249 51.3813 143.01 59.3999 149.601 72.3071C154.269 81.4507 153.826 93.1079 148.474 102.006C142.938 111.211 132.976 116.388 120.423 116.585C119.698 116.596 118.975 116.602 118.26 116.602Z" fill="#C8ECFF"/>
<path d="M108.471 54.2262C125.241 54.2262 140.754 61.2389 147.067 73.6012C154.753 88.6536 147.601 113.314 120.379 113.741C119.669 113.752 118.96 113.758 118.259 113.758C92.097 113.758 72.6373 105.965 71.1469 87.337C69.4997 66.7458 78.7331 58.6938 97.4262 55.2395C101.113 54.5582 104.822 54.2262 108.471 54.2262ZM108.471 48.5367C104.435 48.5367 100.371 48.9095 96.3922 49.6447C80.8075 52.5246 63.2093 59.4631 65.4755 87.7907C66.342 98.6203 72.3503 107.197 82.8505 112.593C91.6999 117.141 103.613 119.447 118.259 119.447C118.989 119.447 119.728 119.441 120.468 119.43C134.039 119.217 144.851 113.55 150.912 103.472C156.759 93.7511 157.239 81.0104 152.134 71.0137C145.055 57.1493 128.324 48.5367 108.471 48.5367Z" fill="white"/>
<path d="M97.0516 137.742C97.0516 131.863 92.2857 127.097 86.4066 127.097C80.5275 127.097 75.7619 131.863 75.7619 137.742C75.7619 140.785 77.0456 143.523 79.0933 145.463L74.4363 156.551C76.6118 157.821 79.3421 159.075 82.6164 160.241L87.6065 148.315C92.9199 147.718 97.0516 143.215 97.0516 137.742Z" fill="#0D4677"/>
<path d="M132.157 158C156.917 144.386 147.173 141.516 144.704 141.116L99.2588 145.821L101.924 164.744C107.142 165.473 112.957 165.976 119.385 166.159C124.264 166.298 128.957 166.195 133.429 165.904L132.157 158Z" fill="#21B3FF"/>
<path d="M46.4008 177.973C47.7958 175.168 46.868 171.87 44.3284 170.607C41.7889 169.345 38.5993 170.595 37.2043 173.4C35.8093 176.206 36.7372 179.503 39.2767 180.766C41.8163 182.029 45.0059 180.779 46.4008 177.973Z" fill="#1494EE"/>
<path d="M72.4199 185.986C73.0094 182.909 71.2291 179.982 68.4436 179.449C65.6581 178.915 62.922 180.977 62.3325 184.054C61.743 187.131 63.5233 190.058 66.3088 190.592C69.0943 191.125 71.8304 189.063 72.4199 185.986Z" fill="#1494EE"/>
<path d="M212.179 125.265C209.311 123.425 205.499 123.514 202.719 125.485C198.985 128.133 198.115 132.866 200.016 136.506L190.098 146.886C189.047 147.985 189.087 149.728 190.186 150.778C191.286 151.828 193.028 151.789 194.079 150.69L203.997 140.31C207.238 141.819 211.211 141.193 213.818 138.464C217.481 134.631 216.891 128.287 212.179 125.265Z" fill="#167EDE"/>
<path d="M99.9888 97.1787C99.9888 97.1787 100.574 100.837 106.599 101.295C112.623 101.752 113.995 98.0362 113.995 98.0362" stroke="#232323" stroke-width="4.7258" stroke-miterlimit="10" stroke-linecap="round"/>
<path d="M127.619 98.2059C134.586 98.2059 140.234 92.558 140.234 85.591C140.234 78.624 134.586 72.9761 127.619 72.9761C120.652 72.9761 115.004 78.624 115.004 85.591C115.004 92.558 120.652 98.2059 127.619 98.2059Z" fill="white"/>
<path d="M125.578 94.6501C129.903 94.6501 133.409 90.8023 133.409 86.0559C133.409 81.3094 129.903 77.4617 125.578 77.4617C121.252 77.4617 117.746 81.3094 117.746 86.0559C117.746 90.8023 121.252 94.6501 125.578 94.6501Z" fill="#00264C"/>
<path opacity="0.13" d="M122.799 84.6632C123.925 84.6632 124.838 83.7503 124.838 82.6242C124.838 81.4981 123.925 80.5852 122.799 80.5852C121.672 80.5852 120.76 81.4981 120.76 82.6242C120.76 83.7503 121.672 84.6632 122.799 84.6632Z" fill="white"/>
<path d="M88.3715 95.2391C95.3385 95.2391 100.986 89.5912 100.986 82.6242C100.986 75.6572 95.3385 70.0093 88.3715 70.0093C81.4045 70.0093 75.7566 75.6572 75.7566 82.6242C75.7566 89.5912 81.4045 95.2391 88.3715 95.2391Z" fill="white"/>
<path d="M86.3299 91.683C90.6554 91.683 94.1618 87.8353 94.1618 83.0888C94.1618 78.3424 90.6554 74.4946 86.3299 74.4946C82.0045 74.4946 78.498 78.3424 78.498 83.0888C78.498 87.8353 82.0045 91.683 86.3299 91.683Z" fill="#00264C"/>
<path opacity="0.13" d="M83.5512 81.6962C84.6773 81.6962 85.5902 80.7833 85.5902 79.6572C85.5902 78.531 84.6773 77.6182 83.5512 77.6182C82.4251 77.6182 81.5122 78.531 81.5122 79.6572C81.5122 80.7833 82.4251 81.6962 83.5512 81.6962Z" fill="white"/>
<path d="M133.208 124.848C124.99 128.694 120.795 130.588 113.32 130.454C105.845 130.321 97.4365 125.849 91.8304 132.99C86.2243 140.131 89.3611 152.545 106.379 153.946C123.398 155.348 138.547 152.211 146.689 141.266C154.831 130.321 143.619 119.976 133.208 124.848Z" fill="#36D2FF"/>
</svg>
