<svg width="240" height="240" viewBox="0 0 240 240" fill="none" xmlns="http://www.w3.org/2000/svg">
<path d="M123.304 226.692C143.756 226.692 160.336 219.76 160.336 211.208C160.336 202.657 143.756 195.724 123.304 195.724C102.851 195.724 86.2715 202.657 86.2715 211.208C86.2715 219.76 102.851 226.692 123.304 226.692Z" fill="#1A613C"/>
<path d="M80.6962 206.919C82.2979 199.223 72.834 190.744 59.558 187.981C46.282 185.218 34.2213 189.217 32.6196 196.913C31.0179 204.609 40.4818 213.088 53.7578 215.851C67.0338 218.614 79.0946 214.615 80.6962 206.919Z" fill="#1A613C"/>
<path d="M190.969 215.044C204.245 212.281 213.709 203.803 212.107 196.107C210.505 188.411 198.444 184.412 185.168 187.175C171.892 189.938 162.429 198.417 164.03 206.112C165.632 213.808 177.693 217.807 190.969 215.044Z" fill="#1A613C"/>
<path d="M56.1346 136.909C56.1346 136.909 15.1023 143.748 6.97326 169.167C-1.15574 194.586 58.0956 220.522 134.534 216.264C210.973 212.006 238.07 183.554 233.231 170.393C228.393 157.232 203.813 139.771 170.715 135.748C137.617 131.725 56.1346 136.909 56.1346 136.909Z" fill="#15B746"/>
<path d="M69.3925 127.264C69.3925 127.264 57.9731 128.362 50.7151 140.974C43.4571 153.586 74.2599 166.965 90.6828 169.651C123.618 175.038 176.082 169.361 184.866 154.361C193.65 139.361 183.102 130.554 168.489 128.232C153.876 125.909 69.3925 127.264 69.3925 127.264Z" fill="#09962E"/>
<path d="M64.7087 133.577C64.7087 133.577 59.5055 134.728 57.9087 142.811C56.3119 150.893 78.9441 157.264 94.7651 160.457C110.586 163.651 152.586 160.651 168.844 154.748C185.102 148.844 185.586 136.651 171.457 133.167C157.328 129.683 64.7087 133.577 64.7087 133.577Z" fill="#195F3A"/>
<path d="M128.299 212.183C128.194 212.183 128.087 212.176 127.98 212.162C126.611 211.989 125.642 210.737 125.817 209.366C128.16 190.987 120.51 169.588 120.432 169.374C119.962 168.076 120.632 166.643 121.93 166.172C123.226 165.7 124.661 166.371 125.132 167.668C125.466 168.587 133.275 190.399 130.776 209.999C130.616 211.261 129.54 212.183 128.299 212.183Z" fill="#09962E"/>
<path d="M199.004 199.443C197.92 199.443 196.921 198.732 196.604 197.638C190.381 176.19 170.402 163.524 170.2 163.398C169.03 162.667 168.671 161.126 169.401 159.955C170.13 158.783 171.671 158.422 172.841 159.153C173.728 159.703 194.637 172.914 201.406 196.245C201.791 197.571 201.028 198.958 199.701 199.343C199.469 199.41 199.235 199.443 199.004 199.443Z" fill="#09962E"/>
<path d="M159.57 119.635C153.689 116.002 73.7635 115.393 73.7635 115.393C73.7635 115.393 61.2113 133.777 61.9698 149.432C68.9931 154.35 83.5771 158.199 94.7652 160.457C110.586 163.651 152.586 160.651 168.844 154.748C169.439 154.532 170.002 154.304 170.554 154.072C170.789 152.492 173.691 132.74 172.731 130.635C171.731 128.441 165.451 123.267 159.57 119.635Z" fill="#45AA25"/>
<path d="M178.086 54.1025C188.151 57.4896 192.505 67.9412 191.731 79.7477C190.957 91.5542 181.086 104.522 178.086 97.9412C175.086 91.3606 178.086 54.1025 178.086 54.1025Z" fill="#4EAF0E"/>
<path d="M55.1185 55.9091C58.436 40.5695 77.6215 15.0381 119.967 13.3607C162.312 11.6833 179.731 50.651 183.086 60.5865C186.441 70.522 191.602 125.361 129.796 128.715C67.9895 132.07 44.8281 103.49 55.1185 55.9091Z" fill="#63C928"/>
<path d="M140.685 16.0723C134.56 14.1023 127.679 13.0551 119.967 13.3605C109.169 13.7882 99.8849 15.7729 91.978 18.7384C96.5377 22.3541 102.563 31.4049 104.075 54.1024L151.231 55.5231C151.231 55.5231 151.207 29.506 140.685 16.0723Z" fill="#4EAF0E"/>
<path d="M126.288 38.8629C145.641 38.2726 170.948 45.3419 174.211 70.7867C177.473 96.2315 165.549 118.731 134.5 120.852C103.452 122.972 77.8036 111.781 76.0037 82.2133C74.2038 52.6455 91.5278 39.9231 126.288 38.8629Z" fill="#F9FFF4"/>
<path d="M126.151 46.1992C142.799 45.7143 164.57 51.5218 167.376 72.425C170.183 93.3282 159.925 111.812 133.215 113.554C106.505 115.296 84.4408 106.102 82.8924 81.8121C81.344 57.5218 96.2472 47.0702 126.151 46.1992Z" fill="#D6F3C2"/>
<path d="M48.2474 60.8121L49.9893 22.7798H53.2796C53.2796 22.7798 54.3441 58.8766 53.8602 59.1669C53.3763 59.4572 48.2474 60.8121 48.2474 60.8121Z" fill="#4EAF0E"/>
<path d="M51.8279 28.2759C55.9611 28.2759 59.3118 24.9253 59.3118 20.792C59.3118 16.6588 55.9611 13.3081 51.8279 13.3081C47.6946 13.3081 44.344 16.6588 44.344 20.792C44.344 24.9253 47.6946 28.2759 51.8279 28.2759Z" fill="#4EAF0E"/>
<path d="M104.075 92.3001C112.052 92.3001 118.518 85.8335 118.518 77.8566C118.518 69.8797 112.052 63.4131 104.075 63.4131C96.0977 63.4131 89.6311 69.8797 89.6311 77.8566C89.6311 85.8335 96.0977 92.3001 104.075 92.3001Z" fill="#F9FEF2"/>
<path d="M105.099 87.9461C110.806 87.9461 115.433 83.3195 115.433 77.6122C115.433 71.905 110.806 67.2783 105.099 67.2783C99.3915 67.2783 94.7649 71.905 94.7649 77.6122C94.7649 83.3195 99.3915 87.9461 105.099 87.9461Z" fill="#133000"/>
<path opacity="0.13" d="M108.294 76.6637C109.87 76.6637 111.148 75.3856 111.148 73.8089C111.148 72.2322 109.87 70.9541 108.294 70.9541C106.717 70.9541 105.439 72.2322 105.439 73.8089C105.439 75.3856 106.717 76.6637 108.294 76.6637Z" fill="white"/>
<path d="M148.978 92.3001C156.955 92.3001 163.421 85.8335 163.421 77.8566C163.421 69.8797 156.955 63.4131 148.978 63.4131C141.001 63.4131 134.534 69.8797 134.534 77.8566C134.534 85.8335 141.001 92.3001 148.978 92.3001Z" fill="#F9FEF2"/>
<path d="M150.002 87.9461C155.71 87.9461 160.336 83.3195 160.336 77.6122C160.336 71.905 155.71 67.2783 150.002 67.2783C144.295 67.2783 139.668 71.905 139.668 77.6122C139.668 83.3195 144.295 87.9461 150.002 87.9461Z" fill="#133000"/>
<path opacity="0.13" d="M153.197 76.6637C154.774 76.6637 156.052 75.3856 156.052 73.8089C156.052 72.2322 154.774 70.9541 153.197 70.9541C151.62 70.9541 150.342 72.2322 150.342 73.8089C150.342 75.3856 151.62 76.6637 153.197 76.6637Z" fill="white"/>
<path d="M119.967 90.7683C119.967 90.7683 121.806 94.4457 127.37 94.4457C132.935 94.4457 133.902 90.7683 133.902 90.7683" stroke="#232323" stroke-width="5" stroke-miterlimit="10" stroke-linecap="round"/>
<path d="M136.409 115.393C136.409 109.296 135.973 107.07 127.264 107.07C118.554 107.07 119.086 109.151 118.118 114.845L136.409 115.393Z" fill="#F9FFF4"/>
<path d="M57.6666 56.9088C55.6056 53.8071 44.7863 54.3286 43.2795 75.4894C41.7956 96.3281 55.7311 104.328 58.3118 96.6507C60.8925 88.9733 64.1828 66.7152 57.6666 56.9088Z" fill="#4EAF0E"/>
<path d="M233.231 170.393C232.793 169.2 232.188 167.972 231.434 166.723C221.895 200.398 129.724 216.412 61.9265 200.199C17.7829 189.643 8.47464 175.501 8.43634 165.488C7.87334 166.67 7.38044 167.894 6.97324 169.167C-1.15566 194.586 58.0955 220.522 134.535 216.264C210.973 212.006 238.07 183.554 233.231 170.393Z" fill="#09962E"/>
<path d="M46.0032 199.442C45.4837 199.442 44.9593 199.281 44.511 198.946C43.4036 198.12 43.176 196.554 44.0012 195.448C44.8537 194.304 65.0158 167.376 76.7121 162.053C77.9689 161.479 79.4514 162.038 80.0226 163.293C80.5949 164.549 80.0392 166.032 78.7824 166.604C70.0373 170.584 53.6037 190.932 48.009 198.436C47.5188 199.094 46.7659 199.442 46.0032 199.442Z" fill="#09962E"/>
<path d="M59.197 189.102C64.4826 189.102 68.7675 184.817 68.7675 179.531C68.7675 174.246 64.4826 169.961 59.197 169.961C53.9113 169.961 49.6265 174.246 49.6265 179.531C49.6265 184.817 53.9113 189.102 59.197 189.102Z" fill="#CEC411" stroke="#09962E" stroke-width="4" stroke-miterlimit="10"/>
<path d="M128.418 198.25C133.704 198.25 137.988 193.965 137.988 188.679C137.988 183.393 133.704 179.109 128.418 179.109C123.132 179.109 118.847 183.393 118.847 188.679C118.847 193.965 123.132 198.25 128.418 198.25Z" fill="#CEC411" stroke="#09962E" stroke-width="4" stroke-miterlimit="10"/>
<path d="M189.244 188.032C194.529 188.032 198.814 183.747 198.814 178.461C198.814 173.176 194.529 168.891 189.244 168.891C183.958 168.891 179.673 173.176 179.673 178.461C179.673 183.747 183.958 188.032 189.244 188.032Z" fill="#CEC411" stroke="#09962E" stroke-width="4" stroke-miterlimit="10"/>
<path d="M173.865 152.449C170.033 139.268 157.855 129.604 143.454 129.604C125.99 129.604 111.782 143.812 111.782 161.276C111.782 161.434 111.792 161.59 111.794 161.748C115.281 161.769 118.986 161.695 122.796 161.533C122.794 161.446 122.782 161.363 122.782 161.276C122.782 151.85 129.13 143.895 137.77 141.417L140.441 150.99C140.441 150.99 133.349 153.7 131.176 161.046C140.396 160.37 149.665 159.235 157.319 157.742C156.153 155.685 152.867 150.917 147.312 150.603L145.425 140.704C154.246 141.542 161.449 147.951 163.512 156.359C165.494 155.85 167.289 155.313 168.844 154.748C170.737 154.061 172.399 153.283 173.865 152.449Z" fill="#1E4F0A"/>
<path d="M103.326 137.678C106.615 138.119 109.354 138.945 118.906 136.952C125.036 135.673 133.955 141.065 131.971 148.323C129.987 155.581 120.261 162.791 100.567 158.92C80.874 155.049 74.874 147.984 74.1481 136.033C73.4222 124.081 87.4062 123.113 91.0352 129.597C93.3382 133.712 98.2168 136.992 103.326 137.678Z" fill="#62C735"/>
<path d="M156.624 132.474C156.624 132.474 160.086 128.36 166.764 129.28C173.441 130.199 176.973 136.683 176.586 141.473C176.199 146.264 172.812 154.78 160.812 152.893C148.812 151.006 159.083 133.735 159.083 133.735L156.624 132.474Z" fill="#62C735"/>
</svg>
