<svg width="560" height="56" viewBox="0 0 560 56" fill="none" xmlns="http://www.w3.org/2000/svg">
<path d="M43.5379 13.2015C44.9354 12.4746 46.0717 11.2597 46.681 9.71371C48.0368 6.27353 46.3412 2.37145 42.9006 1.01547C39.4624 -0.339227 35.5589 1.35577 34.203 4.7955C33.7179 6.02637 33.62 7.33168 33.8655 8.56211C30.4093 7.7395 26.7239 7.65771 23.2184 8.33135C23.4084 7.16933 23.2939 5.94972 22.8389 4.7955C21.4831 1.35577 17.5817 -0.34007 14.1406 1.01547C10.7009 2.37189 9.00528 6.27358 10.361 9.71371C10.8814 11.0346 11.7867 12.114 12.9109 12.8534C6.48989 17.5872 2.64233 25.0719 2.64233 33.2359C2.64233 40.021 5.28265 45.7427 10.2777 49.7825C14.7976 53.4383 21.0916 55.4515 28 55.4515C34.9085 55.4515 41.2026 53.4383 45.7225 49.7825C50.7174 45.7427 53.3577 40.021 53.3577 33.2359C53.3577 25.349 49.6712 17.9656 43.5379 13.2015Z" fill="white"/>
<path d="M40.4433 11.3007C42.6779 11.3007 44.4894 9.48923 44.4894 7.25464C44.4894 5.02005 42.6779 3.20856 40.4433 3.20856C38.2087 3.20856 36.3972 5.02005 36.3972 7.25464C36.3972 9.48923 38.2087 11.3007 40.4433 11.3007Z" fill="#3192D9"/>
<path d="M38.8939 8.42706L35.9712 15.8426L37.8533 16.5844L40.776 9.16886L38.8939 8.42706Z" fill="#3192D9"/>
<path d="M16.6005 11.3007C18.8351 11.3007 20.6466 9.4892 20.6466 7.25461C20.6466 5.02002 18.8351 3.20853 16.6005 3.20853C14.3659 3.20853 12.5544 5.02002 12.5544 7.25461C12.5544 9.4892 14.3659 11.3007 16.6005 11.3007Z" fill="#3192D9"/>
<path d="M18.1498 8.42709L16.2677 9.16888L19.1904 16.5844L21.0725 15.8426L18.1498 8.42709Z" fill="#3192D9"/>
<path d="M50.6978 33.2361C50.6978 45.7716 40.5357 52.7917 28.0001 52.7917C15.4645 52.7917 5.30249 45.7716 5.30249 33.2361C5.30249 20.7005 15.4646 10.5384 28.0001 10.5384C40.5357 10.5384 50.6978 20.7004 50.6978 33.2361Z" fill="#57CBF4"/>
<path d="M44.489 35.2112C44.489 44.3179 37.1066 46.742 27.9999 46.742C18.8933 46.742 11.5109 44.3179 11.5109 35.2112C11.5109 26.1045 18.8933 22.955 27.9999 22.955C37.1066 22.955 44.489 26.1046 44.489 35.2112Z" fill="#CCECFF" stroke="white" stroke-width="2.0044" stroke-miterlimit="10"/>
<path d="M21.1827 39.2991C23.6408 39.2991 25.6334 37.3065 25.6334 34.8484C25.6334 32.3904 23.6408 30.3978 21.1827 30.3978C18.7247 30.3978 16.7321 32.3904 16.7321 34.8484C16.7321 37.3065 18.7247 39.2991 21.1827 39.2991Z" fill="white"/>
<path d="M21.1834 37.7489C22.7853 37.7489 24.0839 36.4503 24.0839 34.8484C24.0839 33.2464 22.7853 31.9478 21.1834 31.9478C19.5815 31.9478 18.2828 33.2464 18.2828 34.8484C18.2828 36.4503 19.5815 37.7489 21.1834 37.7489Z" fill="#003A7F"/>
<path opacity="0.13" d="M21.1832 34.7659C21.8408 34.7659 22.3738 34.3485 22.3738 33.8335C22.3738 33.3186 21.8408 32.9012 21.1832 32.9012C20.5257 32.9012 19.9927 33.3186 19.9927 33.8335C19.9927 34.3485 20.5257 34.7659 21.1832 34.7659Z" fill="white"/>
<path d="M34.8177 39.2991C37.2758 39.2991 39.2684 37.3065 39.2684 34.8485C39.2684 32.3904 37.2758 30.3978 34.8177 30.3978C32.3597 30.3978 30.3671 32.3904 30.3671 34.8485C30.3671 37.3065 32.3597 39.2991 34.8177 39.2991Z" fill="white"/>
<path d="M34.8171 37.7489C36.419 37.7489 37.7176 36.4503 37.7176 34.8484C37.7176 33.2464 36.419 31.9478 34.8171 31.9478C33.2151 31.9478 31.9165 33.2464 31.9165 34.8484C31.9165 36.4503 33.2151 37.7489 34.8171 37.7489Z" fill="#003A7F"/>
<path opacity="0.13" d="M34.8169 34.7659C35.4744 34.7659 36.0075 34.3485 36.0075 33.8335C36.0075 33.3186 35.4744 32.9012 34.8169 32.9012C34.1594 32.9012 33.6263 33.3186 33.6263 33.8335C33.6263 34.3485 34.1594 34.7659 34.8169 34.7659Z" fill="white"/>
<path d="M26.1721 38.8578C27.1029 40.0337 28.8866 40.0348 29.8188 38.8599L29.8204 38.8578L29.8282 38.8677" stroke="#232323" stroke-width="1.63506" stroke-linecap="round" stroke-linejoin="round"/>
<path d="M105.691 17.0347C103.035 11.8635 98.6059 7.84059 93.2056 5.68656C93.142 5.65593 93.0768 5.62754 93.0101 5.60171C92.9373 5.57327 92.8632 5.54748 92.786 5.52214C92.4592 5.39927 92.1283 5.28429 91.8002 5.17669L91.6891 5.13952C91.5853 5.10455 91.4814 5.06998 91.3684 5.03501C90.8434 4.87409 90.3712 4.74379 89.9247 4.63708L89.8202 4.61259C89.5091 4.53956 89.1954 4.47266 88.8364 4.40268L88.7611 4.38826C88.0867 4.26145 87.3896 4.16218 86.6915 4.09309C86.5986 4.08391 86.5053 4.07603 86.4259 4.06949C86.1644 4.0463 85.9013 4.02794 85.6423 4.01397L85.35 3.99866C84.6613 3.96893 83.9575 3.96937 83.281 3.99821L82.9878 4.01352C82.7241 4.02794 82.4611 4.0463 82.2126 4.0686C82.1194 4.07603 82.0263 4.08391 81.9366 4.09309C81.2363 4.16173 80.5391 4.26145 79.8533 4.39045L79.747 4.41101C79.4296 4.47266 79.1145 4.54001 78.8171 4.60995L78.7022 4.63664C78.2516 4.74464 77.778 4.87494 77.2531 5.03631C77.1492 5.06824 77.0464 5.10276 76.9437 5.13733L76.8342 5.17405C76.499 5.28335 76.1664 5.39923 75.8418 5.5208C75.7635 5.54703 75.6859 5.57413 75.6098 5.60386C75.5453 5.6288 75.4825 5.65633 75.4211 5.68607C72.7413 6.75475 70.3007 8.28347 68.1971 10.1847C67.6095 8.41073 65.9351 7.12779 63.9666 7.12779C61.51 7.12779 59.5114 9.12612 59.5114 11.5827C59.5114 12.7349 59.9587 13.808 60.7076 14.6121L60.166 21.3146C58.8282 23.2981 58.1255 25.5916 58.1255 27.9988C58.1255 31.4716 59.6459 34.7712 62.2433 37.0403C62.3939 37.7171 62.625 38.36 62.9342 38.9621C67.0728 47.0188 75.2646 52.0234 84.3129 52.0234C93.3611 52.0234 101.553 47.0188 105.692 38.9621C106.107 38.1531 106.385 37.2615 106.515 36.3223C108.664 34.0922 109.876 31.1187 109.876 27.9988C109.876 24.8788 108.665 21.9067 106.518 19.6775C106.389 18.7461 106.109 17.8484 105.691 17.0347Z" fill="white"/>
<path d="M64.3235 29.5194H62.1974L63.647 11.5829H64.3235V29.5194Z" fill="#4EAF0E"/>
<path d="M70.1346 37.3217C75.2835 37.3217 79.4575 33.1477 79.4575 27.9987C79.4575 22.8498 75.2835 18.6758 70.1346 18.6758C64.9857 18.6758 60.8116 22.8498 60.8116 27.9987C60.8116 33.1477 64.9857 37.3217 70.1346 37.3217Z" fill="#4EAF0E"/>
<path d="M97.8657 37.3217C103.015 37.3217 107.189 33.1477 107.189 27.9988C107.189 22.8498 103.015 18.6758 97.8657 18.6758C92.7167 18.6758 88.5427 22.8498 88.5427 27.9988C88.5427 33.1477 92.7167 37.3217 97.8657 37.3217Z" fill="#4EAF0E"/>
<path d="M103.912 20.8711C103.912 19.9662 103.714 19.0674 103.301 18.2625C99.7624 11.3744 92.5889 6.66083 84.3122 6.66083C76.0355 6.66083 68.8619 11.3744 65.3234 18.2625C64.91 19.0674 64.712 19.9661 64.712 20.8711V35.1263C64.712 36.0312 64.9099 36.9299 65.3234 37.7348C68.8619 44.623 76.0356 49.3366 84.3122 49.3366C92.5889 49.3366 99.7624 44.6231 103.301 37.7348C103.715 36.9299 103.912 36.0312 103.912 35.1263V20.8711Z" fill="#63C928"/>
<path d="M63.9659 13.3515C64.9426 13.3515 65.7344 12.5597 65.7344 11.583C65.7344 10.6062 64.9426 9.81445 63.9659 9.81445C62.9892 9.81445 62.1974 10.6062 62.1974 11.583C62.1974 12.5597 62.9892 13.3515 63.9659 13.3515Z" fill="#4EAF0E"/>
<path d="M92.038 8.10635C89.6422 7.17473 87.0378 6.66083 84.3123 6.66083C81.5868 6.66083 78.9824 7.17473 76.5865 8.10635V22.1748H92.038V8.10635Z" fill="#4EAF0E"/>
<path d="M98.6789 27.9987C98.6789 35.9332 92.2467 42.3653 84.3123 42.3653C76.3778 42.3653 69.9457 35.9331 69.9457 27.9987C69.9457 20.0643 76.3778 17.6907 84.3123 17.6907C92.2467 17.6907 98.6789 20.0642 98.6789 27.9987Z" fill="#D8F4C6" stroke="white" stroke-width="2.02453" stroke-miterlimit="10"/>
<path d="M77.4264 33.1195C79.9091 33.1195 81.9216 31.107 81.9216 28.6244C81.9216 26.1417 79.9091 24.1292 77.4264 24.1292C74.9438 24.1292 72.9313 26.1417 72.9313 28.6244C72.9313 31.107 74.9438 33.1195 77.4264 33.1195Z" fill="white"/>
<path d="M77.4263 31.5538C79.0442 31.5538 80.3558 30.2422 80.3558 28.6243C80.3558 27.0063 79.0442 25.6947 77.4263 25.6947C75.8083 25.6947 74.4967 27.0063 74.4967 28.6243C74.4967 30.2422 75.8083 31.5538 77.4263 31.5538Z" fill="#133000"/>
<path opacity="0.13" d="M77.4263 28.541C78.0905 28.541 78.6288 28.1193 78.6288 27.5993C78.6288 27.0792 78.0905 26.6576 77.4263 26.6576C76.7622 26.6576 76.2239 27.0792 76.2239 27.5993C76.2239 28.1193 76.7622 28.541 77.4263 28.541Z" fill="white"/>
<path d="M91.1981 33.1196C93.6807 33.1196 95.6932 31.107 95.6932 28.6244C95.6932 26.1418 93.6807 24.1292 91.1981 24.1292C88.7154 24.1292 86.7029 26.1418 86.7029 28.6244C86.7029 31.107 88.7154 33.1196 91.1981 33.1196Z" fill="white"/>
<path d="M91.1979 31.5539C92.8158 31.5539 94.1274 30.2423 94.1274 28.6244C94.1274 27.0064 92.8158 25.6948 91.1979 25.6948C89.5799 25.6948 88.2683 27.0064 88.2683 28.6244C88.2683 30.2423 89.5799 31.5539 91.1979 31.5539Z" fill="#133000"/>
<path opacity="0.13" d="M91.1983 28.5411C91.8624 28.5411 92.4008 28.1195 92.4008 27.5994C92.4008 27.0793 91.8624 26.6577 91.1983 26.6577C90.5342 26.6577 89.9958 27.0793 89.9958 27.5994C89.9958 28.1195 90.5342 28.5411 91.1983 28.5411Z" fill="white"/>
<path d="M82.4656 32.674C83.4056 33.8616 85.2072 33.8626 86.1487 32.6761L86.1503 32.674L86.1583 32.6839" stroke="#232323" stroke-width="1.65141" stroke-linecap="round" stroke-linejoin="round"/>
<path d="M82.8671 38.3508H85.7576C86.4107 38.3508 86.9728 38.8125 87.0996 39.4532L87.4534 41.2397C87.6209 42.0856 86.9736 42.8736 86.1113 42.8736H82.5134C81.6511 42.8736 81.0038 42.0856 81.1713 41.2397L81.525 39.4532C81.6519 38.8125 82.214 38.3508 82.8671 38.3508Z" fill="white"/>
<path d="M163.355 21.7091C162.805 20.1583 162.103 18.6703 161.257 17.2598C161.867 15.8068 161.581 14.0647 160.4 12.8836L156.843 9.32655C155.635 8.11865 153.84 7.84719 152.368 8.51303C150.758 7.58221 149.058 6.841 147.284 6.29725C147.199 3.97884 145.287 2.11893 142.948 2.11893H137.05C134.711 2.11893 132.799 3.97884 132.714 6.29725C130.94 6.84105 129.241 7.58181 127.631 8.51303C126.158 7.84715 124.363 8.11904 123.154 9.32695L119.598 12.8836C118.417 14.0647 118.131 15.8068 118.741 17.2598C117.895 18.6703 117.193 20.1583 116.643 21.7091C113.93 23.1326 112.188 25.9468 112.188 29.0955C112.188 30.8048 113.578 32.1954 115.288 32.1954H115.524V40.8642C115.524 43.9035 117.997 46.376 121.036 46.376C121.147 46.376 121.258 46.3726 121.369 46.366C125.542 51.1643 132.218 53.8811 139.999 53.8811C147.78 53.8811 154.456 51.1644 158.629 46.366C158.74 46.3725 158.851 46.376 158.962 46.376C162.002 46.376 164.474 43.9035 164.474 40.8642V32.1954H164.71C166.42 32.1954 167.81 30.8048 167.81 29.0955C167.81 25.9468 166.068 23.1326 163.355 21.7091Z" fill="white"/>
<path d="M160.571 33.497C160.571 44.8585 151.36 51.2211 139.999 51.2211C128.637 51.2211 119.427 44.8585 119.427 33.497C119.427 22.1354 128.637 12.925 139.999 12.925C151.36 12.925 160.571 22.1354 160.571 33.497Z" fill="#A678FF"/>
<path d="M118.185 27.9652H123.888V40.8642C123.888 42.4381 122.61 43.7158 121.036 43.7158C119.463 43.7158 118.185 42.4381 118.185 40.8642V27.9652Z" fill="#FFC200"/>
<path d="M156.112 27.9652H161.815V40.8642C161.815 42.4381 160.537 43.7158 158.964 43.7158C157.39 43.7158 156.112 42.4381 156.112 40.8642V27.9652Z" fill="#FFC200"/>
<path d="M121.477 14.764L125.034 11.2077C125.555 10.6862 126.402 10.6862 126.923 11.2077L127.999 12.2831L122.553 17.7292L121.477 16.6537C120.956 16.1322 120.956 15.2855 121.477 14.764Z" fill="#FFC200"/>
<path d="M157.442 17.7292L151.996 12.2832L153.071 11.2077C153.593 10.6862 154.439 10.6862 154.961 11.2077L158.517 14.7641C159.039 15.2856 159.039 16.1323 158.517 16.6537L157.442 17.7292Z" fill="#FFC200"/>
<path d="M162.083 28.6505C161.374 17.0555 151.772 7.8638 139.999 7.8638C128.225 7.8638 118.623 17.0554 117.914 28.6505H162.083Z" fill="#FFDC00"/>
<path d="M143.969 27.2325L150.038 10.3767C147.014 8.82324 143.635 7.86374 139.999 7.86374C136.363 7.86374 132.983 8.82324 129.959 10.3767L136.027 27.2304L136.721 28.433H143.276L143.969 27.2325Z" fill="#FFD400"/>
<path d="M137.049 4.7789H142.948C143.874 4.7789 144.626 5.53079 144.626 6.45687V27.4084H135.371V6.45687C135.371 5.53075 136.123 4.7789 137.049 4.7789Z" fill="#FFC200"/>
<path d="M120.536 23.4072H159.461C162.601 23.4072 165.15 25.9561 165.15 29.0956C165.15 29.3385 164.953 29.5356 164.71 29.5356H115.287C115.044 29.5356 114.847 29.3385 114.847 29.0956C114.847 25.9561 117.396 23.4072 120.536 23.4072Z" fill="#FFAA00"/>
<path d="M150.587 26.1984H129.411C127.614 26.1984 126.158 27.6547 126.158 29.4511V36.7865C126.158 38.5829 127.614 40.0392 129.411 40.0392H150.587C152.383 40.0392 153.84 38.5829 153.84 36.7865V29.4511C153.84 27.6547 152.383 26.1984 150.587 26.1984Z" fill="#F1F1FF" stroke="white" stroke-width="1.81674" stroke-miterlimit="10"/>
<path d="M126.106 37.6841L124.599 37.3454C123.787 37.1631 123.21 36.4422 123.21 35.6102V30.9818C123.21 30.1497 123.787 29.4289 124.599 29.2465L126.106 28.9078V37.6841Z" fill="white"/>
<path d="M153.891 28.9078L155.399 29.2464C156.211 29.4288 156.788 30.1496 156.788 30.9817V35.6101C156.788 36.4421 156.211 37.163 155.399 37.3454L153.891 37.684V28.9078Z" fill="white"/>
<path d="M133.819 37.1525C136.046 37.1525 137.852 35.3465 137.852 33.1187C137.852 30.8908 136.046 29.0848 133.819 29.0848C131.591 29.0848 129.785 30.8908 129.785 33.1187C129.785 35.3465 131.591 37.1525 133.819 37.1525Z" fill="white"/>
<path d="M133.82 35.7477C135.272 35.7477 136.449 34.5707 136.449 33.1188C136.449 31.6669 135.272 30.49 133.82 30.49C132.368 30.49 131.191 31.6669 131.191 33.1188C131.191 34.5707 132.368 35.7477 133.82 35.7477Z" fill="black"/>
<path opacity="0.13" d="M133.82 33.044C134.416 33.044 134.899 32.6657 134.899 32.199C134.899 31.7322 134.416 31.3539 133.82 31.3539C133.224 31.3539 132.741 31.7322 132.741 32.199C132.741 32.6657 133.224 33.044 133.82 33.044Z" fill="white"/>
<path d="M146.177 37.1525C148.405 37.1525 150.211 35.3465 150.211 33.1187C150.211 30.8908 148.405 29.0848 146.177 29.0848C143.949 29.0848 142.143 30.8908 142.143 33.1187C142.143 35.3465 143.949 37.1525 146.177 37.1525Z" fill="white"/>
<path d="M146.177 35.7475C147.629 35.7475 148.806 34.5705 148.806 33.1187C148.806 31.6668 147.629 30.4898 146.177 30.4898C144.725 30.4898 143.548 31.6668 143.548 33.1187C143.548 34.5705 144.725 35.7475 146.177 35.7475Z" fill="black"/>
<path opacity="0.13" d="M146.177 33.0439C146.773 33.0439 147.256 32.6656 147.256 32.1988C147.256 31.7321 146.773 31.3538 146.177 31.3538C145.581 31.3538 145.098 31.7321 145.098 32.1988C145.098 32.6656 145.581 33.0439 146.177 33.0439Z" fill="white"/>
<g clip-path="url(#clip0_6104_13287)">
<path d="M218.317 19.6909H218.317C217.96 19.5061 217.59 19.3467 217.21 19.2143C217.385 18.8514 217.534 18.4774 217.656 18.0938C218.717 14.7468 217.835 11.1265 215.354 8.64529C212.873 6.16325 209.252 5.28088 205.905 6.34377C205.522 6.46498 205.148 6.61394 204.785 6.78883C204.652 6.40872 204.493 6.03942 204.308 5.68223C202.693 2.56462 199.509 0.628052 195.999 0.628052C192.49 0.628052 189.306 2.56462 187.69 5.68179C187.505 6.03898 187.346 6.40867 187.213 6.78883C186.85 6.61394 186.477 6.46498 186.093 6.34377C182.745 5.28132 179.125 6.16369 176.644 8.64529C174.163 11.1265 173.281 14.7472 174.342 18.0943C174.464 18.4774 174.613 18.8515 174.788 19.2143C174.408 19.3468 174.038 19.5061 173.681 19.6914C170.564 21.3076 168.627 24.491 168.627 28C168.627 31.509 170.564 34.6933 173.681 36.3086C174.038 36.4939 174.408 36.6532 174.788 36.7861C174.613 37.149 174.464 37.5226 174.342 37.9062C173.281 41.2528 174.163 44.8735 176.644 47.3547C179.126 49.8368 182.746 50.7191 186.094 49.6567C186.477 49.535 186.851 49.3861 187.213 49.2116C187.346 49.5917 187.505 49.961 187.69 50.3182C189.306 53.4354 192.49 55.372 195.999 55.372C199.509 55.372 202.692 53.4354 204.308 50.3182C204.493 49.961 204.652 49.5913 204.785 49.2112C205.148 49.3861 205.521 49.535 205.905 49.6567C209.252 50.7187 212.873 49.8368 215.354 47.3547C217.835 44.874 218.717 41.2533 217.656 37.9057C217.534 37.5226 217.385 37.1485 217.21 36.7861C217.59 36.6532 217.96 36.4943 218.317 36.309C221.435 34.6933 223.371 31.5094 223.371 28C223.371 24.4906 221.435 21.3071 218.317 19.6909Z" fill="white"/>
<path d="M194.363 36.8164H197.637C199.673 36.8164 201.411 38.2895 201.745 40.2985L202.519 44.9588C202.752 46.3633 202.602 47.8301 201.947 49.0941C200.833 51.2435 198.588 52.7122 196 52.7122C193.412 52.7122 191.166 51.2435 190.052 49.0941C189.397 47.8301 189.248 46.3633 189.481 44.9588L190.255 40.2985C190.588 38.2895 192.326 36.8164 194.363 36.8164Z" fill="#FF8022"/>
<path d="M190.923 20.6085L188.608 22.9234C187.168 24.3635 184.898 24.5507 183.241 23.366L179.399 20.618C178.241 19.7898 177.309 18.6469 176.879 17.2898C176.147 14.9822 176.696 12.3561 178.526 10.526C180.356 8.69587 182.982 8.14685 185.29 8.87888C186.647 9.30936 187.79 10.2408 188.618 11.3989L191.366 15.2415C192.551 16.898 192.363 19.1684 190.923 20.6085Z" fill="#FF8022"/>
<path d="M187.184 26.3632V29.637C187.184 31.6736 185.711 33.4114 183.702 33.745L179.041 34.5189C177.637 34.7522 176.17 34.6027 174.906 33.9475C172.757 32.8333 171.288 30.5882 171.288 28.0001C171.288 25.4119 172.757 23.1668 174.906 22.0526C176.17 21.3974 177.637 21.2479 179.041 21.4812L183.702 22.2551C185.711 22.5887 187.184 24.3266 187.184 26.3632Z" fill="#FF8022"/>
<path d="M188.608 33.0768L190.923 35.3917C192.363 36.8317 192.551 39.1021 191.366 40.7587L188.618 44.6012C187.79 45.7593 186.647 46.6908 185.29 47.1212C182.982 47.8533 180.356 47.3042 178.526 45.4742C176.696 43.644 176.147 41.018 176.879 38.7103C177.309 37.3533 178.241 36.2104 179.399 35.3822L183.241 32.6341C184.898 31.4494 187.168 31.6367 188.608 33.0768Z" fill="#FF8022"/>
<path d="M201.076 35.3916L203.391 33.0767C204.831 31.6366 207.102 31.4494 208.758 32.6341L212.601 35.3822C213.759 36.2104 214.69 37.3532 215.121 38.7103C215.853 41.018 215.304 43.644 213.474 45.4741C211.644 47.3042 209.018 47.8533 206.71 47.1212C205.353 46.6908 204.21 45.7593 203.382 44.6012L200.634 40.7586C199.449 39.1021 199.636 36.8317 201.076 35.3916Z" fill="#FF8022"/>
<path d="M204.816 29.637V26.3632C204.816 24.3266 206.289 22.5888 208.298 22.2552L212.959 21.4813C214.363 21.248 215.83 21.3975 217.094 22.0527C219.243 23.1669 220.712 25.412 220.712 28.0001C220.712 30.5883 219.243 32.8334 217.094 33.9476C215.83 34.6028 214.363 34.7523 212.959 34.519L208.298 33.7451C206.289 33.4114 204.816 31.6736 204.816 29.637Z" fill="#FF8022"/>
<path d="M203.392 22.9234L201.077 20.6085C199.637 19.1684 199.449 16.898 200.634 15.2415L203.382 11.3989C204.21 10.2409 205.353 9.30942 206.71 8.87894C209.018 8.14691 211.644 8.69594 213.474 10.526C215.304 12.3561 215.853 14.9822 215.121 17.2899C214.691 18.6469 213.759 19.7898 212.601 20.618L208.759 23.3661C207.102 24.5508 204.832 24.3635 203.392 22.9234Z" fill="#FF8022"/>
<path d="M197.637 19.1837H194.363C192.326 19.1837 190.588 17.7107 190.255 15.7016L189.481 11.0413C189.248 9.63684 189.397 8.17007 190.052 6.90608C191.166 4.75667 193.412 3.28799 196 3.28799C198.588 3.28799 200.833 4.75667 201.947 6.90608C202.602 8.17007 202.752 9.63684 202.519 11.0413L201.745 15.7016C201.411 17.7107 199.673 19.1837 197.637 19.1837Z" fill="#FF8022"/>
<path d="M197.523 10.0883C197.523 9.24711 196.841 8.56519 196 8.56519C195.159 8.56519 194.477 9.24711 194.477 10.0883V15.4274C194.477 16.2686 195.159 16.9505 196 16.9505C196.841 16.9505 197.523 16.2686 197.523 15.4274V10.0883Z" fill="#FF7415"/>
<path d="M184.412 14.2581C183.817 13.6633 182.853 13.6633 182.258 14.2581C181.663 14.8529 181.663 15.8173 182.258 16.4121L186.033 20.1874C186.628 20.7823 187.592 20.7822 188.187 20.1874C188.782 19.5926 188.782 18.6282 188.187 18.0334L184.412 14.2581Z" fill="#FF7415"/>
<path d="M178.09 26.4779C177.249 26.4779 176.567 27.1598 176.567 28.001C176.567 28.8422 177.249 29.5241 178.09 29.5241H183.429C184.27 29.5241 184.952 28.8422 184.952 28.001C184.952 27.1598 184.27 26.4779 183.429 26.4779H178.09Z" fill="#FF7415"/>
<path d="M182.259 39.5892C181.664 40.184 181.664 41.1484 182.259 41.7432C182.854 42.3381 183.818 42.3381 184.413 41.7432L188.188 37.968C188.783 37.3731 188.783 36.4088 188.188 35.8139C187.593 35.2191 186.629 35.2191 186.034 35.8139L182.259 39.5892Z" fill="#FF7415"/>
<path d="M194.478 45.9118C194.478 46.753 195.16 47.4349 196.002 47.4349C196.843 47.4349 197.525 46.753 197.525 45.9118V40.5728C197.525 39.7316 196.843 39.0496 196.002 39.0496C195.16 39.0496 194.478 39.7316 194.478 40.5728V45.9118Z" fill="#FF7415"/>
<path d="M207.591 41.742C208.185 42.3368 209.15 42.3368 209.745 41.742C210.339 41.1472 210.339 40.1828 209.745 39.588L205.969 35.8127C205.374 35.2179 204.41 35.2179 203.815 35.8127C203.22 36.4075 203.22 37.3719 203.815 37.9667L207.591 41.742Z" fill="#FF7415"/>
<path d="M213.913 29.5223C214.754 29.5223 215.436 28.8404 215.436 27.9993C215.436 27.1581 214.754 26.4761 213.913 26.4761H208.574C207.732 26.4761 207.05 27.1581 207.05 27.9993C207.05 28.8404 207.732 29.5223 208.574 29.5223H213.913Z" fill="#FF7415"/>
<path d="M209.743 16.411C210.338 15.8162 210.338 14.8518 209.743 14.257C209.148 13.6621 208.184 13.6622 207.589 14.257L203.814 18.0323C203.219 18.6271 203.219 19.5914 203.814 20.1863C204.408 20.7811 205.373 20.7811 205.968 20.1863L209.743 16.411Z" fill="#FF7415"/>
<path d="M208.361 29.9129C208.225 36.0351 202.581 40.8748 195.755 40.7228C188.929 40.5707 183.506 35.4845 183.642 29.3623C183.778 23.2402 189.423 15.1238 196.249 15.2758C203.075 15.4279 208.498 23.7908 208.361 29.9129Z" fill="#F8C202" stroke="#FFD345" stroke-width="1.71539" stroke-miterlimit="10"/>
<path d="M190.163 32.1503C192.267 32.1503 193.972 30.445 193.972 28.3414C193.972 26.2378 192.267 24.5324 190.163 24.5324C188.06 24.5324 186.354 26.2378 186.354 28.3414C186.354 30.445 188.06 32.1503 190.163 32.1503Z" fill="white"/>
<path d="M190.162 30.8236C191.533 30.8236 192.644 29.7122 192.644 28.3413C192.644 26.9703 191.533 25.859 190.162 25.859C188.791 25.859 187.68 26.9703 187.68 28.3413C187.68 29.7122 188.791 30.8236 190.162 30.8236Z" fill="black"/>
<path opacity="0.13" d="M190.162 28.2707C190.725 28.2707 191.181 27.9135 191.181 27.4728C191.181 27.0321 190.725 26.6748 190.162 26.6748C189.599 26.6748 189.143 27.0321 189.143 27.4728C189.143 27.9135 189.599 28.2707 190.162 28.2707Z" fill="white"/>
<path d="M201.833 32.1503C203.936 32.1503 205.642 30.445 205.642 28.3414C205.642 26.2378 203.936 24.5324 201.833 24.5324C199.729 24.5324 198.024 26.2378 198.024 28.3414C198.024 30.445 199.729 32.1503 201.833 32.1503Z" fill="white"/>
<path d="M201.833 30.8238C203.204 30.8238 204.315 29.7124 204.315 28.3415C204.315 26.9706 203.204 25.8592 201.833 25.8592C200.462 25.8592 199.351 26.9706 199.351 28.3415C199.351 29.7124 200.462 30.8238 201.833 30.8238Z" fill="black"/>
<path opacity="0.13" d="M201.833 28.2709C202.396 28.2709 202.852 27.9137 202.852 27.473C202.852 27.0323 202.396 26.675 201.833 26.675C201.27 26.675 200.814 27.0323 200.814 27.473C200.814 27.9137 201.27 28.2709 201.833 28.2709Z" fill="white"/>
<path d="M194.436 31.7727C195.232 32.7791 196.759 32.7799 197.556 31.7745L197.558 31.7727L197.565 31.7812" stroke="#602B00" stroke-width="1.39934" stroke-linecap="round" stroke-linejoin="round"/>
</g>
<path d="M278.335 29.7407C278.298 29.5736 278.256 29.3918 278.19 29.1848C278.184 29.164 278.177 29.1437 278.17 29.1238L277.608 27.4275C277.605 27.4154 277.601 27.4032 277.596 27.3911L272.392 11.6939C271.666 9.50543 269.816 7.83468 267.566 7.33465L265.609 6.89996C257.402 1.46132 246.601 1.46132 238.392 6.89996L236.436 7.33465C234.185 7.83513 232.336 9.50587 231.61 11.6944L225.833 29.119C225.763 29.3294 225.705 29.5498 225.66 29.7754C225.258 31.6717 225.794 33.6428 227.096 35.0525C227.466 35.4543 227.826 35.8682 228.166 36.2842C228.184 36.308 228.202 36.3318 228.221 36.3552C228.765 37.0272 229.234 37.6805 229.629 38.3217L229.654 38.3636C229.783 38.5745 229.906 38.7875 230.016 38.9962C230.539 39.9902 230.668 40.6214 230.684 40.9804L230.689 41.0938C230.689 41.1328 230.69 41.1718 230.691 41.2107C230.735 42.2489 230.755 43.2192 230.755 44.1764C230.755 44.2292 230.757 44.282 230.76 44.3344C230.759 44.4773 230.759 44.6158 230.758 44.747C230.737 47.1022 231.904 49.2894 233.878 50.5982L236.383 52.259C237.52 53.0123 238.973 53.0807 240.176 52.4348C241.218 51.8754 241.918 50.8628 242.086 49.7146C243.973 50.4004 246.002 50.8831 248.119 51.1459C248.988 52.3893 250.431 53.179 252.001 53.179C253.572 53.179 255.015 52.3889 255.883 51.1459C258 50.8831 260.029 50.4004 261.916 49.7146C262.084 50.8628 262.784 51.8754 263.826 52.4348C265.028 53.0807 266.481 53.0123 267.619 52.259L270.124 50.5982C272.099 49.2894 273.265 47.1018 273.244 44.7461C273.243 44.6158 273.243 44.4777 273.242 44.3352C273.245 44.2828 273.247 44.2305 273.247 44.1776C273.247 43.2061 273.268 42.2359 273.311 41.2116C273.313 41.1709 273.314 41.1297 273.314 41.0886L273.318 40.9756C273.334 40.621 273.463 39.9902 273.987 38.9949C274.099 38.7823 274.221 38.5719 274.342 38.3728L274.388 38.2974C274.768 37.6805 275.237 37.0268 275.781 36.3552C275.798 36.334 275.815 36.3124 275.831 36.2912C276.172 35.8734 276.533 35.4573 276.905 35.0534C278.214 33.6364 278.748 31.6531 278.336 29.7472L278.335 29.7407Z" fill="white"/>
<path d="M272.696 30.8927C272.696 42.3214 263.432 48.7216 252.003 48.7216C240.574 48.7216 231.309 42.3214 231.309 30.8927C231.309 19.464 240.574 10.1992 252.003 10.1992C263.432 10.1992 272.696 19.464 272.696 30.8927Z" fill="#FDC703"/>
<path d="M234.135 12.5319L228.357 29.9605C227.978 31.1036 228.235 32.3643 229.051 33.2491C230.677 35.0094 233.221 38.1755 233.342 40.8557C233.413 42.4508 233.427 43.7675 233.418 44.7708C233.405 46.2284 234.133 47.5761 235.348 48.3814L237.854 50.0418C238.544 50.4994 239.466 50.0044 239.466 49.176V9.3866L237.014 9.93159C235.664 10.2316 234.571 11.2191 234.135 12.5319Z" fill="#FFB806"/>
<path d="M269.868 12.5319L275.647 29.9605C276.026 31.1036 275.769 32.3643 274.952 33.2491C273.327 35.0094 270.783 38.1755 270.662 40.8557C270.59 42.4508 270.576 43.7675 270.585 44.7708C270.599 46.2284 269.87 47.5761 268.655 48.3814L266.15 50.0418C265.46 50.4994 264.538 50.0044 264.538 49.176V9.3866L266.99 9.93159C268.34 10.2316 269.433 11.2191 269.868 12.5319Z" fill="#FFB806"/>
<path d="M264.538 24.296H239.467V9.38653C247.004 4.15001 257.001 4.15001 264.538 9.38653V24.296Z" fill="#FDC703"/>
<path d="M245.306 6.51947C244.257 6.85538 243.228 7.2711 242.228 7.76892V24.2386H245.306V6.51947Z" fill="#FFB806"/>
<path d="M250.797 5.54941C249.763 5.60629 248.738 5.73188 247.718 5.93471V24.2386H250.797V5.54941Z" fill="#FFB806"/>
<path d="M256.287 5.93471C255.268 5.73193 254.243 5.60633 253.209 5.54941V24.2386H256.287V5.93471Z" fill="#FFB806"/>
<path d="M258.7 6.51948V24.2386H261.778V7.76875C260.778 7.27093 259.749 6.8554 258.7 6.51948Z" fill="#FFB806"/>
<path d="M275.648 29.9605L275.085 28.2624H264.539V31.3406H275.776C275.821 30.8814 275.798 30.4134 275.648 29.9605Z" fill="#FFB000"/>
<path d="M264.539 21.8439V24.9221H273.977L272.957 21.8439H264.539Z" fill="#FFB000"/>
<path d="M264.539 34.6808V37.759H271.634C272.213 36.6575 272.975 35.5961 273.717 34.6808H264.539Z" fill="#FFB000"/>
<path d="M264.539 44.1776H270.589C270.589 43.3199 270.605 42.3085 270.656 41.0994H264.539L264.539 44.1776Z" fill="#FFB000"/>
<path d="M233.177 15.4253L232.157 18.5035H239.467V15.4253H233.177Z" fill="#FFB000"/>
<path d="M264.539 15.4253V18.5035H271.849L270.829 15.4253H264.539Z" fill="#FFB000"/>
<path d="M231.05 21.8439L230.029 24.9221H239.468V21.8439H231.05Z" fill="#FFB000"/>
<path d="M233.417 44.1776H239.467V41.0994H233.35C233.401 42.3085 233.417 43.3199 233.417 44.1776Z" fill="#FFB000"/>
<path d="M228.921 28.2623L228.358 29.9605C228.208 30.4133 228.185 30.8814 228.23 31.3405H239.467V28.2623H228.921Z" fill="#FFB000"/>
<path d="M230.29 34.6808C231.031 35.5961 231.793 36.6575 232.372 37.759H239.467V34.6808H230.29Z" fill="#FFB000"/>
<path d="M239.378 31.3406C239.378 33.3522 239.351 34.9829 237.34 34.9829C235.328 34.9829 233.697 33.3522 233.697 31.3406C233.697 29.3289 235.328 27.6982 237.34 27.6982C239.351 27.6982 239.378 29.3289 239.378 31.3406Z" fill="#F78C2C"/>
<path d="M264.627 31.3406C264.627 33.3522 264.654 34.9829 266.665 34.9829C268.677 34.9829 270.308 33.3522 270.308 31.3406C270.308 29.3289 268.677 27.6982 266.665 27.6982C264.654 27.6982 264.627 29.3289 264.627 31.3406Z" fill="#F78C2C"/>
<path d="M267.036 32.6936C267.036 40.9961 260.305 43.2062 252.003 43.2062C243.7 43.2062 236.97 40.9961 236.97 32.6936C236.97 24.391 243.7 21.5195 252.003 21.5195C260.305 21.5195 267.036 24.391 267.036 32.6936Z" fill="#FFEBB3"/>
<path d="M250.336 36.0182C251.184 37.0903 252.811 37.0912 253.66 36.0201L253.662 36.0182L253.669 36.0272" stroke="#232323" stroke-width="1.49071" stroke-linecap="round" stroke-linejoin="round"/>
<path d="M253.658 21.3169H250.347L248.19 14.615H255.815L253.658 21.3169Z" fill="#E27123"/>
<path d="M256.293 14.9407C256.293 16.8983 254.372 18.4851 252.002 18.4851C249.633 18.4851 247.712 16.8983 247.712 14.9407C247.712 12.9832 249.633 12.2368 252.002 12.2368C254.372 12.2368 256.293 12.9832 256.293 14.9407Z" fill="#F78839"/>
<path d="M252.002 17.375C250.356 17.375 248.892 16.7764 247.869 15.841C248.354 17.3597 250.012 18.4851 252.002 18.4851C253.993 18.4851 255.651 17.3597 256.136 15.841C255.113 16.7764 253.648 17.375 252.002 17.375Z" fill="#D1651C"/>
<path d="M267.036 32.6936C267.036 40.9961 260.305 43.2062 252.003 43.2062C243.7 43.2062 236.97 40.9961 236.97 32.6936C236.97 24.391 243.7 21.5195 252.003 21.5195C260.305 21.5195 267.036 24.391 267.036 32.6936Z" stroke="#F78C2C" stroke-width="1.82742" stroke-miterlimit="10"/>
<path d="M251.111 12.5434C251.111 12.1923 250.826 11.9076 250.475 11.9076C250.124 11.9076 249.839 12.1923 249.839 12.5434V13.2813C249.839 13.6325 250.124 13.9172 250.475 13.9172C250.826 13.9172 251.111 13.6325 251.111 13.2813V12.5434Z" fill="#D1651C"/>
<path d="M253.531 11.9076H253.531C253.179 11.9076 252.895 12.1923 252.895 12.5434V13.2813C252.895 13.6325 253.179 13.9172 253.531 13.9172H253.531C253.882 13.9172 254.166 13.6325 254.166 13.2813V12.5434C254.166 12.1923 253.882 11.9076 253.531 11.9076Z" fill="#D1651C"/>
<path d="M242.083 37.4779C243.457 37.4779 244.571 36.7509 244.571 35.854C244.571 34.9571 243.457 34.23 242.083 34.23C240.709 34.23 239.595 34.9571 239.595 35.854C239.595 36.7509 240.709 37.4779 242.083 37.4779Z" fill="#FFCEA9"/>
<path d="M261.921 37.4779C263.295 37.4779 264.409 36.7509 264.409 35.854C264.409 34.9571 263.295 34.23 261.921 34.23C260.547 34.23 259.432 34.9571 259.432 35.854C259.432 36.7509 260.547 37.4779 261.921 37.4779Z" fill="#FFCEA9"/>
<path d="M245.787 36.4206C248.028 36.4206 249.845 34.6039 249.845 32.3629C249.845 30.1219 248.028 28.3052 245.787 28.3052C243.546 28.3052 241.729 30.1219 241.729 32.3629C241.729 34.6039 243.546 36.4206 245.787 36.4206Z" fill="white"/>
<path d="M245.787 35.0072C247.247 35.0072 248.431 33.8233 248.431 32.3628C248.431 30.9023 247.247 29.7184 245.787 29.7184C244.327 29.7184 243.143 30.9023 243.143 32.3628C243.143 33.8233 244.327 35.0072 245.787 35.0072Z" fill="black"/>
<path opacity="0.13" d="M245.787 32.2876C246.386 32.2876 246.872 31.907 246.872 31.4375C246.872 30.9681 246.386 30.5875 245.787 30.5875C245.187 30.5875 244.702 30.9681 244.702 31.4375C244.702 31.907 245.187 32.2876 245.787 32.2876Z" fill="white"/>
<path d="M258.218 36.4206C260.459 36.4206 262.275 34.6039 262.275 32.3629C262.275 30.1219 260.459 28.3052 258.218 28.3052C255.977 28.3052 254.16 30.1219 254.16 32.3629C254.16 34.6039 255.977 36.4206 258.218 36.4206Z" fill="white"/>
<path d="M258.218 35.0073C259.679 35.0073 260.863 33.8233 260.863 32.3628C260.863 30.9023 259.679 29.7184 258.218 29.7184C256.758 29.7184 255.574 30.9023 255.574 32.3628C255.574 33.8233 256.758 35.0073 258.218 35.0073Z" fill="black"/>
<path opacity="0.13" d="M258.218 32.2876C258.818 32.2876 259.304 31.9071 259.304 31.4376C259.304 30.9681 258.818 30.5876 258.218 30.5876C257.619 30.5876 257.133 30.9681 257.133 31.4376C257.133 31.9071 257.619 32.2876 258.218 32.2876Z" fill="white"/>
<path d="M252.003 50.5192C251.081 50.5192 250.271 49.9098 250.015 49.0245L248.168 42.6385H255.838L253.991 49.0245C253.735 49.9098 252.924 50.5192 252.003 50.5192Z" fill="#F78C2C"/>
<path d="M254.111 48.6076L254.485 47.3166H249.521L249.894 48.6076H254.111Z" fill="#EF7F25"/>
<path d="M248.721 44.55L249.094 45.841H254.911L255.285 44.55H248.721Z" fill="#EF7F25"/>
<path d="M332.677 15.0385C331.172 14.3969 329.463 14.816 328.425 16.0815C328.253 16.2917 328.077 16.5064 327.899 16.7236C327.352 16.3567 326.721 16.1 326.035 15.984L323.801 15.606C322.209 13.0642 319.526 10.9909 316.152 9.69201V9.66982C316.152 8.40674 315.521 7.2399 314.464 6.54973L312.873 5.50958C312.859 5.44459 312.842 5.3796 312.824 5.3142C312.806 5.2418 312.786 5.16982 312.762 5.09869C312.701 4.91771 312.625 4.73922 312.537 4.56894C312.529 4.55374 312.521 4.53891 312.513 4.52413C312.27 4.07129 311.944 3.6818 311.566 3.38319C311.524 3.34739 311.476 3.30999 311.438 3.2816C311.426 3.27297 311.415 3.26476 311.404 3.2565C311.315 3.19316 311.222 3.13474 311.128 3.07966C311.027 3.0196 310.923 2.96287 310.819 2.91431C310.743 2.87851 310.663 2.84439 310.584 2.81272C310.566 2.80615 310.549 2.79958 310.531 2.79297C310.411 2.74853 310.287 2.70987 310.15 2.67453C310.081 2.65642 310.012 2.64 309.91 2.61983C309.676 2.57703 309.454 2.55606 309.233 2.55606H306.768C306.546 2.55606 306.324 2.57703 306.052 2.6272C305.985 2.64076 305.92 2.65638 305.84 2.67736C305.714 2.70983 305.59 2.74849 305.469 2.79292C305.452 2.7995 305.434 2.80607 305.417 2.81268C305.342 2.84229 305.266 2.87438 305.194 2.90811C305.179 2.91511 305.165 2.92168 305.15 2.92909C305.055 2.97558 304.963 3.02575 304.872 3.07961C304.773 3.13761 304.676 3.19931 304.552 3.28935C304.511 3.32018 304.471 3.35228 304.432 3.38517C304.033 3.70681 303.709 4.10039 303.471 4.55488C303.466 4.56309 303.462 4.57172 303.458 4.57998C303.372 4.74655 303.298 4.92095 303.238 5.0986C303.217 5.16439 303.197 5.23228 303.18 5.30097C303.161 5.37089 303.143 5.44 303.127 5.50949L301.538 6.54843C300.48 7.23897 299.848 8.40586 299.848 9.66973V9.69193C296.474 10.9908 293.791 13.0641 292.199 15.606L289.965 15.9839C289.279 16.0999 288.648 16.3566 288.101 16.7235C287.923 16.5063 287.747 16.2916 287.575 16.0814C286.537 14.8163 284.83 14.3964 283.324 15.038C281.818 15.6792 280.935 17.2023 281.129 18.8277L282.176 27.6545C282.265 28.4026 282.588 29.1105 283.092 29.6702C282.193 30.9675 281.693 32.5226 281.693 34.1542C281.693 37.5605 283.889 40.5511 287.046 41.6212C289.693 46.9113 294.848 50.6656 301.498 52.1406C302.1 52.9323 303.052 53.4439 304.121 53.4439H311.88C312.949 53.4439 313.9 52.9323 314.502 52.1406C321.151 50.6661 326.307 46.9114 328.954 41.6221C332.109 40.5535 334.307 37.5618 334.307 34.1542C334.307 32.5226 333.808 30.9675 332.908 29.6707C333.412 29.1118 333.735 28.4031 333.824 27.6545L334.872 18.8281C335.065 17.2026 334.183 15.6797 332.677 15.0385Z" fill="white"/>
<path d="M310.433 6.28421C310.433 5.62091 309.896 5.08325 309.232 5.08325H306.767C306.104 5.08325 305.566 5.62096 305.566 6.28421C305.566 6.68958 305.362 7.06762 305.023 7.28945L302.919 8.66452C302.58 8.88635 302.375 9.26434 302.375 9.66976V19.4495H313.624V9.66976C313.624 9.26438 313.42 8.88635 313.081 8.66452L310.977 7.28945C310.638 7.06762 310.433 6.68962 310.433 6.28421Z" fill="#C90D16"/>
<path d="M310.366 5.90291C310.206 5.42771 309.762 5.08319 309.233 5.08319H306.767C306.238 5.08319 305.794 5.42775 305.634 5.90295V14.0025C305.634 14.5752 306.098 15.0395 306.671 15.0395H309.329C309.902 15.0395 310.366 14.5752 310.366 14.0025L310.366 5.90291Z" fill="#F11C1E"/>
<path d="M326.033 22.9489C326.735 22.1202 328.733 19.6914 330.379 17.684C331.091 16.8161 332.494 17.4155 332.362 18.5303L331.314 27.3564C331.284 27.6089 331.169 27.8437 330.988 28.0226L327.372 31.6C326.646 32.3183 325.415 31.773 325.46 30.7526L325.77 23.6247C325.78 23.3754 325.872 23.1393 326.033 22.9489Z" fill="#6B8187"/>
<path d="M289.966 22.9489C289.264 22.1201 287.267 19.6914 285.62 17.684C284.908 16.816 283.505 17.4155 283.638 18.5302L284.685 27.3563C284.715 27.6088 284.83 27.8437 285.011 28.0225L288.628 31.5999C289.354 32.3182 290.584 31.773 290.54 30.7525L290.23 23.6247C290.219 23.3754 290.127 23.1393 289.966 22.9489Z" fill="#6B8187"/>
<path d="M328.436 32.7023C328.436 43.9888 319.287 50.3093 308 50.3093C296.714 50.3093 287.564 43.9888 287.564 32.7023C287.564 21.4158 296.714 12.2663 308 12.2663C319.287 12.2663 328.436 21.4158 328.436 32.7023Z" fill="#AFC1C9"/>
<path d="M322.846 36.3862C322.846 44.5854 316.199 46.768 308 46.768C299.801 46.768 293.154 44.5854 293.154 36.3862C293.154 28.187 299.801 21.5402 308 21.5402C316.199 21.5402 322.846 28.187 322.846 36.3862Z" fill="#FFE6C5"/>
<path d="M301.862 38.1613C304.075 38.1613 305.869 36.3672 305.869 34.1541C305.869 31.941 304.075 30.1469 301.862 30.1469C299.649 30.1469 297.854 31.941 297.854 34.1541C297.854 36.3672 299.649 38.1613 301.862 38.1613Z" fill="white"/>
<path d="M301.862 36.7656C303.304 36.7656 304.473 35.5964 304.473 34.1541C304.473 32.7118 303.304 31.5426 301.862 31.5426C300.419 31.5426 299.25 32.7118 299.25 34.1541C299.25 35.5964 300.419 36.7656 301.862 36.7656Z" fill="#0D3442"/>
<path opacity="0.13" d="M301.861 34.0799C302.453 34.0799 302.933 33.7041 302.933 33.2404C302.933 32.7768 302.453 32.401 301.861 32.401C301.269 32.401 300.789 32.7768 300.789 33.2404C300.789 33.7041 301.269 34.0799 301.861 34.0799Z" fill="white"/>
<path d="M314.137 38.1612C316.35 38.1612 318.144 36.3671 318.144 34.154C318.144 31.9409 316.35 30.1468 314.137 30.1468C311.924 30.1468 310.13 31.9409 310.13 34.154C310.13 36.3671 311.924 38.1612 314.137 38.1612Z" fill="white"/>
<path d="M314.136 36.7655C315.579 36.7655 316.748 35.5963 316.748 34.154C316.748 32.7117 315.579 31.5425 314.136 31.5425C312.694 31.5425 311.525 32.7117 311.525 34.154C311.525 35.5963 312.694 36.7655 314.136 36.7655Z" fill="#0D3442"/>
<path opacity="0.13" d="M314.136 34.0798C314.728 34.0798 315.207 33.704 315.207 33.2404C315.207 32.7768 314.728 32.4009 314.136 32.4009C313.544 32.4009 313.064 32.7768 313.064 33.2404C313.064 33.704 313.544 34.0798 314.136 34.0798Z" fill="white"/>
<path d="M306.354 37.7639C307.192 38.8227 308.798 38.8236 309.638 37.7658L309.639 37.7639L309.646 37.7728" stroke="#232323" stroke-width="1.47215" stroke-linecap="round" stroke-linejoin="round"/>
<path d="M322.877 21.0195C322.877 26.6905 316.216 25.6541 308 25.6541C299.783 25.6541 293.123 26.6905 293.123 21.0195C293.123 15.3485 299.783 10.7513 308 10.7513C316.216 10.7513 322.877 15.3485 322.877 21.0195Z" fill="#6B8187"/>
<path d="M325.912 28.1244H290.088C288.749 28.1244 287.714 26.949 287.884 25.621L288.553 20.3846C288.677 19.4141 289.422 18.639 290.386 18.4758L307.629 15.5577C307.875 15.5161 308.125 15.5161 308.371 15.5577L325.614 18.4758C326.578 18.639 327.323 19.4141 327.447 20.3846L328.116 25.621C328.286 26.949 327.251 28.1244 325.912 28.1244Z" fill="#7A9199"/>
<path d="M311.88 45.8566H304.121C303.697 45.8566 303.353 46.2002 303.353 46.6241V50.1497C303.353 50.5736 303.697 50.9172 304.121 50.9172H311.88C312.304 50.9172 312.647 50.5736 312.647 50.1497V46.6241C312.647 46.2002 312.304 45.8566 311.88 45.8566Z" fill="#B87D5F"/>
<path d="M326.422 29.7741C326.422 29.2245 326.919 28.7921 327.459 28.8978C329.921 29.3806 331.778 31.5504 331.778 34.154C331.778 36.7576 329.921 38.9274 327.459 39.4102C326.919 39.516 326.422 39.0836 326.422 38.534V29.7741Z" fill="#9AACB2"/>
<path d="M289.576 29.7741C289.576 29.2245 289.078 28.7921 288.539 28.8978C286.077 29.3806 284.219 31.5504 284.219 34.154C284.219 36.7576 286.077 38.9274 288.539 39.4102C289.078 39.516 289.576 39.0836 289.576 38.534V29.7741Z" fill="#9AACB2"/>
<path d="M317.251 19.9352H298.748C298.044 19.9352 297.474 20.506 297.474 21.21C297.474 21.914 298.044 22.4847 298.748 22.4847H306.614V28.1244H309.386V22.4847H317.251C317.955 22.4847 318.526 21.914 318.526 21.21C318.526 20.506 317.955 19.9352 317.251 19.9352Z" fill="#6B8187"/>
<path d="M381.722 11.4423C381.712 11.4323 381.702 11.4224 381.692 11.4124C376.927 6.76993 370.644 4.21341 363.999 4.21341C356.961 4.21341 350.178 7.17949 345.39 12.3514C341.038 17.0527 338.641 23.168 338.641 29.5708C338.641 36.3559 341.282 42.0777 346.277 46.1175C350.797 49.7732 357.091 51.7864 363.999 51.7864C370.907 51.7864 377.202 49.7732 381.721 46.1175C386.717 42.0777 389.357 36.3559 389.357 29.5708C389.357 23.1685 386.961 17.0536 382.609 12.3527C382.33 12.0505 382.04 11.7527 381.722 11.4423Z" fill="white"/>
<path d="M386.697 29.571C386.697 42.1065 376.535 49.1266 363.999 49.1266C351.464 49.1266 341.302 42.1066 341.302 29.571C341.302 17.0353 351.464 6.87326 363.999 6.87326C376.535 6.87326 386.697 17.0353 386.697 29.571Z" fill="#91A9B6"/>
<path d="M380.489 33.6626C380.489 42.7692 373.106 45.1934 364 45.1934C354.893 45.1934 347.51 42.7693 347.51 33.6626C347.51 24.5559 354.893 17.1735 364 17.1735C373.106 17.1735 380.489 24.556 380.489 33.6626Z" fill="#D9E7EF"/>
<path opacity="0.08" d="M348.703 25.4142C348.703 18.404 354.385 12.7211 361.396 12.7211" stroke="white" stroke-width="5.81272" stroke-miterlimit="10" stroke-linecap="round"/>
<path opacity="0.08" d="M368.74 15.7324C370.294 15.7324 371.554 14.4722 371.554 12.9178C371.554 11.3633 370.294 10.1031 368.74 10.1031C367.185 10.1031 365.925 11.3633 365.925 12.9178C365.925 14.4722 367.185 15.7324 368.74 15.7324Z" fill="white"/>
<path d="M362.171 35.1928C363.102 36.3687 364.886 36.3697 365.818 35.1949L365.82 35.1928L365.827 35.2027" stroke="#232323" stroke-width="1.63506" stroke-linecap="round" stroke-linejoin="round"/>
<path d="M357.018 18.7206V44.8195" stroke="#C0D4DD" stroke-width="0.499903" stroke-miterlimit="10"/>
<path d="M370.817 18.7206V44.8195" stroke="#C0D4DD" stroke-width="0.499903" stroke-miterlimit="10"/>
<path d="M357.182 35.634C359.64 35.634 361.633 33.6414 361.633 31.1834C361.633 28.7253 359.64 26.7327 357.182 26.7327C354.724 26.7327 352.731 28.7253 352.731 31.1834C352.731 33.6414 354.724 35.634 357.182 35.634Z" fill="white"/>
<path d="M357.182 34.0838C358.784 34.0838 360.082 32.7852 360.082 31.1833C360.082 29.5814 358.784 28.2827 357.182 28.2827C355.58 28.2827 354.281 29.5814 354.281 31.1833C354.281 32.7852 355.58 34.0838 357.182 34.0838Z" fill="black"/>
<path opacity="0.13" d="M357.182 31.1009C357.84 31.1009 358.373 30.6835 358.373 30.1685C358.373 29.6536 357.84 29.2362 357.182 29.2362C356.525 29.2362 355.992 29.6536 355.992 30.1685C355.992 30.6835 356.525 31.1009 357.182 31.1009Z" fill="white"/>
<path d="M370.817 35.634C373.275 35.634 375.268 33.6414 375.268 31.1833C375.268 28.7253 373.275 26.7327 370.817 26.7327C368.359 26.7327 366.366 28.7253 366.366 31.1833C366.366 33.6414 368.359 35.634 370.817 35.634Z" fill="white"/>
<path d="M370.817 34.0838C372.419 34.0838 373.717 32.7852 373.717 31.1833C373.717 29.5814 372.419 28.2827 370.817 28.2827C369.215 28.2827 367.916 29.5814 367.916 31.1833C367.916 32.7852 369.215 34.0838 370.817 34.0838Z" fill="black"/>
<path opacity="0.13" d="M370.817 31.1008C371.475 31.1008 372.008 30.6834 372.008 30.1685C372.008 29.6535 371.475 29.2361 370.817 29.2361C370.16 29.2361 369.626 29.6535 369.626 30.1685C369.626 30.6834 370.16 31.1008 370.817 31.1008Z" fill="white"/>
<path d="M380.489 33.6626C380.489 42.7692 373.106 45.1934 364 45.1934C354.893 45.1934 347.51 42.7693 347.51 33.6626C347.51 24.5559 354.893 17.1735 364 17.1735C373.106 17.1735 380.489 24.556 380.489 33.6626Z" stroke="#BACFD8" stroke-width="2.0044" stroke-miterlimit="10"/>
<path d="M347.342 14.1586H380.656C380.39 13.8709 380.116 13.591 379.835 13.3174H348.163C347.883 13.591 347.608 13.8709 347.342 14.1586Z" fill="#738D9A"/>
<path d="M354.808 12.1312C355.164 12.1312 355.454 11.842 355.454 11.4853C355.454 11.1286 355.164 10.8395 354.808 10.8395C354.451 10.8395 354.162 11.1286 354.162 11.4853C354.162 11.842 354.451 12.1312 354.808 12.1312Z" fill="#738D9A"/>
<path d="M359.404 12.1311C359.76 12.1311 360.049 11.842 360.049 11.4853C360.049 11.1286 359.76 10.8394 359.404 10.8394C359.047 10.8394 358.758 11.1286 358.758 11.4853C358.758 11.842 359.047 12.1311 359.404 12.1311Z" fill="#738D9A"/>
<path d="M364 12.1311C364.357 12.1311 364.646 11.842 364.646 11.4853C364.646 11.1286 364.357 10.8394 364 10.8394C363.644 10.8394 363.354 11.1286 363.354 11.4853C363.354 11.842 363.644 12.1311 364 12.1311Z" fill="#738D9A"/>
<path d="M368.597 12.1312C368.953 12.1312 369.242 11.842 369.242 11.4853C369.242 11.1286 368.953 10.8395 368.597 10.8395C368.24 10.8395 367.951 11.1286 367.951 11.4853C367.951 11.842 368.24 12.1312 368.597 12.1312Z" fill="#738D9A"/>
<path d="M373.193 12.1312C373.549 12.1312 373.838 11.842 373.838 11.4853C373.838 11.1286 373.549 10.8395 373.193 10.8395C372.836 10.8395 372.547 11.1286 372.547 11.4853C372.547 11.842 372.836 12.1312 373.193 12.1312Z" fill="#738D9A"/>
<path d="M443.165 19.256C444.169 17.7571 444.723 15.9781 444.723 14.1585C444.723 9.10737 440.613 4.99789 435.562 4.99789C433.744 4.99789 432.013 5.52262 430.533 6.5015C427.242 5.0005 423.636 4.21341 419.998 4.21341C416.361 4.21341 412.755 5.0005 409.465 6.5015C407.985 5.52262 406.253 4.99789 404.435 4.99789C399.383 4.99789 395.274 9.10737 395.274 14.1585C395.274 15.9782 395.828 17.7567 396.832 19.2556C395.395 22.4871 394.641 26.0181 394.641 29.5709C394.641 36.356 397.281 42.0777 402.276 46.1175C406.796 49.7733 413.09 51.7864 419.998 51.7864C426.907 51.7864 433.201 49.7733 437.721 46.1175C442.716 42.0777 445.356 36.3559 445.356 29.5709C445.356 26.0177 444.603 22.4866 443.165 19.256Z" fill="white"/>
<path d="M404.434 20.6591C408.024 20.6591 410.935 17.7487 410.935 14.1584C410.935 10.5682 408.024 7.65775 404.434 7.65775C400.844 7.65775 397.933 10.5682 397.933 14.1584C397.933 17.7487 400.844 20.6591 404.434 20.6591Z" fill="#FF8022"/>
<path d="M435.562 20.6591C439.152 20.6591 442.062 17.7487 442.062 14.1584C442.062 10.5682 439.152 7.65775 435.562 7.65775C431.971 7.65775 429.061 10.5682 429.061 14.1584C429.061 17.7487 431.971 20.6591 435.562 20.6591Z" fill="#FF8022"/>
<path d="M442.696 29.5708C442.696 42.1064 432.534 49.1264 419.999 49.1264C407.463 49.1264 397.301 42.1064 397.301 29.5708C397.301 17.0352 407.463 6.87311 419.999 6.87311C432.534 6.87311 442.696 17.0352 442.696 29.5708Z" fill="#FF8022"/>
<path d="M436.488 33.6624C436.488 42.7691 429.106 45.1932 419.999 45.1932C410.892 45.1932 403.51 42.7691 403.51 33.6624C403.51 24.5557 410.892 17.1733 419.999 17.1733C429.106 17.1733 436.488 24.5558 436.488 33.6624Z" fill="#FFEBB3"/>
<path opacity="0.12" d="M404.702 25.414C404.702 18.4038 410.385 12.721 417.395 12.721" stroke="white" stroke-width="5.81272" stroke-miterlimit="10" stroke-linecap="round"/>
<path opacity="0.12" d="M424.739 15.7323C426.294 15.7323 427.554 14.4721 427.554 12.9177C427.554 11.3632 426.294 10.103 424.739 10.103C423.185 10.103 421.925 11.3632 421.925 12.9177C421.925 14.4721 423.185 15.7323 424.739 15.7323Z" fill="white"/>
<path d="M413.181 35.6339C415.639 35.6339 417.632 33.6413 417.632 31.1833C417.632 28.7252 415.639 26.7326 413.181 26.7326C410.723 26.7326 408.731 28.7252 408.731 31.1833C408.731 33.6413 410.723 35.6339 413.181 35.6339Z" fill="white"/>
<path d="M413.181 34.0838C414.783 34.0838 416.082 32.7852 416.082 31.1832C416.082 29.5813 414.783 28.2827 413.181 28.2827C411.579 28.2827 410.281 29.5813 410.281 31.1832C410.281 32.7852 411.579 34.0838 413.181 34.0838Z" fill="black"/>
<path opacity="0.13" d="M413.181 31.1007C413.839 31.1007 414.372 30.6833 414.372 30.1683C414.372 29.6534 413.839 29.236 413.181 29.236C412.523 29.236 411.99 29.6534 411.99 30.1683C411.99 30.6833 412.523 31.1007 413.181 31.1007Z" fill="white"/>
<path d="M426.815 35.6339C429.273 35.6339 431.266 33.6413 431.266 31.1833C431.266 28.7252 429.273 26.7326 426.815 26.7326C424.357 26.7326 422.365 28.7252 422.365 31.1833C422.365 33.6413 424.357 35.6339 426.815 35.6339Z" fill="white"/>
<path d="M426.815 34.0838C428.417 34.0838 429.716 32.7852 429.716 31.1832C429.716 29.5813 428.417 28.2827 426.815 28.2827C425.213 28.2827 423.915 29.5813 423.915 31.1832C423.915 32.7852 425.213 34.0838 426.815 34.0838Z" fill="black"/>
<path opacity="0.13" d="M426.816 31.1007C427.473 31.1007 428.006 30.6833 428.006 30.1683C428.006 29.6534 427.473 29.236 426.816 29.236C426.158 29.236 425.625 29.6534 425.625 30.1683C425.625 30.6833 426.158 31.1007 426.816 31.1007Z" fill="white"/>
<path d="M418.171 35.1927C419.102 36.3686 420.885 36.3696 421.817 35.1947L421.819 35.1927L421.827 35.2025" stroke="#232323" stroke-width="1.63506" stroke-linecap="round" stroke-linejoin="round"/>
<g clip-path="url(#clip1_6104_13287)">
<path d="M498.319 27.2346C498.554 26.6626 498.677 26.046 498.677 25.4202C498.677 24.9033 498.592 24.3924 498.429 23.9079C501.99 20.5286 504 15.8862 504 10.9141C504 9.7685 503.072 8.84001 501.926 8.84001H489.841C487.079 5.87958 483.241 4.20044 479.161 4.20044H472.839C468.76 4.20044 464.921 5.87958 462.159 8.84001H450.074C448.928 8.84001 448 9.7685 448 10.9141C448 15.6833 449.868 20.1823 453.184 23.5292C452.928 24.1206 452.79 24.7639 452.79 25.4202C452.79 26.2611 453.006 27.0624 453.399 27.762C451.605 29.1349 450.5 31.2855 450.5 33.6383C450.5 36.9022 452.644 39.7597 455.7 40.7117C459.077 47.6785 466.664 51.7996 476.253 51.7996C485.843 51.7996 493.431 47.6785 496.806 40.7117C499.863 39.7593 502.007 36.9018 502.007 33.6383C502.007 30.9578 500.572 28.5394 498.319 27.2346Z" fill="white"/>
<path d="M494.6 29.2769C494.6 28.7297 495.095 28.2991 495.632 28.4044C498.084 28.8852 499.934 31.0458 499.934 33.6385C499.934 36.2311 498.084 38.3917 495.632 38.8725C495.095 38.9779 494.6 38.5473 494.6 38V29.2769Z" fill="#FED8C3"/>
<path d="M457.908 29.2769C457.908 28.7297 457.413 28.2991 456.875 28.4044C454.424 28.8852 452.574 31.0458 452.574 33.6385C452.574 36.2311 454.424 38.3917 456.875 38.8725C457.413 38.9779 457.908 38.5473 457.908 38V29.2769Z" fill="#FED8C3"/>
<path d="M496.604 32.1925C496.604 43.4314 487.493 49.7254 476.254 49.7254C465.015 49.7254 455.904 43.4314 455.904 32.1925C455.904 20.9535 465.015 11.8424 476.254 11.8424C487.493 11.8424 496.604 20.9535 496.604 32.1925Z" fill="#5E2C11"/>
<path d="M461.922 26.7861H489.546C490.387 26.7861 491.069 27.4684 491.069 28.3087V30.8025C491.069 38.6345 484.71 44.9932 476.878 44.9932H474.59C466.758 44.9932 460.399 38.6345 460.399 30.8025V28.3087C460.399 27.4684 461.081 26.7861 461.922 26.7861Z" fill="#FED8C3"/>
<path d="M482.366 37.6284C484.57 37.6284 486.357 35.8419 486.357 33.6381C486.357 31.4343 484.57 29.6478 482.366 29.6478C480.163 29.6478 478.376 31.4343 478.376 33.6381C478.376 35.8419 480.163 37.6284 482.366 37.6284Z" fill="white"/>
<path d="M482.367 36.2386C483.803 36.2386 484.967 35.0743 484.967 33.6381C484.967 32.2019 483.803 31.0376 482.367 31.0376C480.931 31.0376 479.766 32.2019 479.766 33.6381C479.766 35.0743 480.931 36.2386 482.367 36.2386Z" fill="black"/>
<path opacity="0.13" d="M482.367 33.5642C482.957 33.5642 483.434 33.1899 483.434 32.7282C483.434 32.2666 482.957 31.8923 482.367 31.8923C481.777 31.8923 481.3 32.2666 481.3 32.7282C481.3 33.1899 481.777 33.5642 482.367 33.5642Z" fill="white"/>
<path d="M467.809 29.888H471.427C472.704 29.888 473.74 30.9245 473.74 32.2011V33.5139C473.74 35.6522 472.004 37.3882 469.866 37.3882H469.37C467.232 37.3882 465.496 35.6522 465.496 33.5139V32.2011C465.496 30.9245 466.532 29.888 467.809 29.888Z" fill="black"/>
<path d="M461.47 39.1526L485.774 23.356" stroke="black" stroke-width="1.58991" stroke-miterlimit="10" stroke-linecap="round"/>
<path d="M470.064 42.2272C470.032 38.9544 472.662 36.271 475.935 36.2387C476.409 36.2341 476.797 36.6145 476.801 37.0878C476.834 40.3607 474.203 43.044 470.93 43.0763C470.457 43.081 470.068 42.7005 470.064 42.2272Z" fill="#7C3D21"/>
<path d="M475.103 37.0878C475.107 36.6146 475.496 36.2341 475.969 36.2388C479.242 36.271 481.873 38.9544 481.84 42.2272C481.836 42.7005 481.448 43.081 480.974 43.0763C477.701 43.044 475.071 40.3607 475.103 37.0878Z" fill="#7C3D21"/>
<path d="M472.839 6.27466H479.161C486.084 6.27466 491.704 11.8947 491.704 18.8171H460.297C460.297 11.8948 465.917 6.27466 472.839 6.27466Z" fill="black"/>
<path d="M450.074 10.9141H501.926C501.926 19.6741 494.814 26.7861 486.054 26.7861H465.946C457.186 26.7861 450.074 19.674 450.074 10.9141Z" fill="black"/>
<path d="M493.897 22.7131H457.572C456.077 22.7131 454.865 23.9252 454.865 25.4204C454.865 26.9155 456.077 28.1276 457.572 28.1276H493.897C495.392 28.1276 496.604 26.9155 496.604 25.4204C496.604 23.9252 495.392 22.7131 493.897 22.7131Z" fill="#EF1E23"/>
<path d="M481.04 14.4455C481.04 11.6625 478.784 9.40643 476 9.40643C473.217 9.40643 470.962 11.6624 470.962 14.4455C470.962 16.261 471.925 17.8474 473.365 18.7344V18.9428C473.365 19.6901 473.971 20.2961 474.718 20.2961C475.274 20.2961 475.75 19.9609 475.958 19.4824C475.973 19.4824 475.986 19.4845 476 19.4845C476.015 19.4845 476.029 19.4824 476.043 19.4824C476.251 19.9609 476.727 20.2961 477.283 20.2961C478.03 20.2961 478.636 19.6901 478.636 18.9428V18.7344C480.076 17.8474 481.04 16.261 481.04 14.4455Z" fill="white"/>
<path d="M475.214 14.6548C475.214 15.4421 474.576 16.0803 473.789 16.0803C473.001 16.0803 472.363 15.4421 472.363 14.6548C472.363 13.8675 473.001 13.5159 473.789 13.5159C474.576 13.5159 475.214 13.8675 475.214 14.6548Z" fill="black"/>
<path d="M478.212 13.5159C477.425 13.5159 476.787 13.8675 476.787 14.6548C476.787 15.4421 477.425 16.0803 478.212 16.0803C478.999 16.0803 479.638 15.4421 479.638 14.6548C479.638 13.8675 478.999 13.5159 478.212 13.5159Z" fill="black"/>
<path d="M476 16.282C475.46 16.282 475.022 16.7198 475.022 17.2597C475.022 17.7997 475.46 16.994 476 16.994C476.54 16.994 476.978 17.7997 476.978 17.2597C476.978 16.7198 476.54 16.282 476 16.282Z" fill="black"/>
</g>
<path d="M557.174 23.8015C555.931 21.2599 552.851 20.2022 550.307 21.4448C550.268 21.4637 550.229 21.4827 550.19 21.5011L549.02 19.1251C548.25 17.5637 546.691 16.5935 544.95 16.5935H544.652L538.256 3.66747C537.137 1.40534 534.874 0 532.349 0C529.825 0 527.561 1.40534 526.442 3.66747L520.046 16.5935H519.749C518.008 16.5935 516.448 17.5637 515.679 19.1255L514.509 21.5011C514.47 21.483 514.432 21.4645 514.393 21.4456C513.162 20.8418 511.768 20.7559 510.47 21.2005C509.173 21.6458 508.127 22.5692 507.525 23.8015C506.922 25.0334 506.836 26.4262 507.28 27.7236C507.726 29.0206 508.649 30.0668 509.881 30.6694C510.176 30.8137 510.476 30.95 510.78 31.0789C509.62 32.3798 508.935 34.0866 508.935 35.901C508.935 38.4406 510.276 40.7689 512.386 42.0698V53.9822C512.386 55.0967 513.29 56 514.404 56H549.936C551.05 56 551.954 55.0967 551.954 53.9822V41.9343C553.954 40.6097 555.189 38.3657 555.189 35.901C555.189 34.1572 554.571 32.5237 553.501 31.2483C553.949 31.0722 554.389 30.8791 554.818 30.669C556.049 30.0668 556.973 29.0205 557.418 27.7236C557.863 26.4262 557.776 25.0335 557.174 23.8015Z" fill="white"/>
<path d="M549.936 28.6276H514.404V53.9821H549.936V28.6276Z" fill="#B5AEB6"/>
<path d="M547.944 31.6266C547.944 31.0902 548.429 30.6683 548.956 30.7715C551.358 31.2427 553.171 33.3601 553.171 35.9009C553.171 38.4417 551.358 40.5592 548.956 41.0304C548.429 41.1336 547.944 40.7116 547.944 40.1753V31.6266Z" fill="#FED8C3"/>
<path d="M516.18 31.6266C516.18 31.0902 515.694 30.6683 515.168 30.7715C512.765 31.2427 510.952 33.3601 510.952 35.9009C510.952 38.4417 512.765 40.5592 515.168 41.0304C515.694 41.1336 516.18 40.7116 516.18 40.1753V31.6266Z" fill="#FED8C3"/>
<path d="M514.599 31.4877C514.45 32.4194 514.37 33.3742 514.37 34.3479C514.37 44.2775 522.42 49.8381 532.35 49.8381C542.279 49.8381 550.329 44.2775 550.329 34.3479C550.329 33.3742 550.249 32.4194 550.1 31.4877H514.599Z" fill="#FED8C3"/>
<path d="M518.605 29.7832H514.404V45.4857H518.605V29.7832Z" fill="#B5AEB6"/>
<path d="M549.936 29.7832H545.735V45.4857H549.936V29.7832Z" fill="#B5AEB6"/>
<path d="M517.227 34.0809C517.227 34.0809 527.731 34.9954 532.657 30.7635H517.227V34.0809Z" fill="#B5AEB6"/>
<path d="M547.472 34.0809C547.472 34.0809 536.967 34.9954 532.042 30.7635H547.472V34.0809Z" fill="#B5AEB6"/>
<path d="M532.346 43.6301H532.344C531.496 43.6294 530.707 43.2475 530.18 42.5822C529.934 42.271 529.986 41.8194 530.297 41.5729C530.608 41.3272 531.06 41.379 531.307 41.6905C531.559 42.01 531.938 42.193 532.345 42.1934H532.346C532.752 42.1934 533.13 42.0116 533.382 41.6943C533.506 41.5369 533.692 41.4361 533.894 41.4208C534.125 41.4053 534.354 41.4988 534.502 41.6788C534.744 41.9717 534.718 42.4034 534.447 42.6613C533.921 43.2783 533.161 43.6301 532.346 43.6301Z" fill="#232323"/>
<path d="M543.486 43.9133H540.389C539.649 43.9133 539.049 43.3134 539.049 42.5734C539.049 41.8335 539.649 41.2336 540.389 41.2336H543.486C544.226 41.2336 544.825 41.8335 544.825 42.5734C544.825 43.3134 544.226 43.9133 543.486 43.9133Z" fill="#FFC4A6"/>
<path d="M524.309 43.9133H521.213C520.473 43.9133 519.873 43.3134 519.873 42.5734C519.873 41.8335 520.473 41.2336 521.213 41.2336H524.309C525.049 41.2336 525.649 41.8335 525.649 42.5734C525.649 43.3134 525.049 43.9133 524.309 43.9133Z" fill="#FFC4A6"/>
<path d="M525.608 42.5956C527.768 42.5956 529.518 40.8448 529.518 38.6851C529.518 36.5253 527.768 34.7745 525.608 34.7745C523.448 34.7745 521.697 36.5253 521.697 38.6851C521.697 40.8448 523.448 42.5956 525.608 42.5956Z" fill="white"/>
<path d="M528.156 38.6851C528.156 40.0926 527.015 41.2336 525.607 41.2336C524.2 41.2336 523.059 40.0926 523.059 38.6851C523.059 37.2776 524.2 36.1366 525.607 36.1366C527.015 36.1366 528.156 37.2776 528.156 38.6851Z" fill="black"/>
<path opacity="0.13" d="M526.654 37.7934C526.654 38.2458 526.185 38.6126 525.607 38.6126C525.03 38.6126 524.561 38.2458 524.561 37.7934C524.561 37.341 525.03 36.9742 525.607 36.9742C526.185 36.9742 526.654 37.341 526.654 37.7934Z" fill="white"/>
<path d="M539.091 42.5957C541.251 42.5957 543.002 40.8449 543.002 38.6852C543.002 36.5255 541.251 34.7747 539.091 34.7747C536.931 34.7747 535.181 36.5255 535.181 38.6852C535.181 40.8449 536.931 42.5957 539.091 42.5957Z" fill="white"/>
<path d="M541.64 38.6852C541.64 40.0927 540.499 41.2337 539.091 41.2337C537.683 41.2337 536.542 40.0927 536.542 38.6852C536.542 37.2777 537.683 36.1367 539.091 36.1367C540.499 36.1367 541.64 37.2777 541.64 38.6852Z" fill="black"/>
<path opacity="0.13" d="M540.137 37.7935C540.137 38.2459 539.669 38.6127 539.091 38.6127C538.513 38.6127 538.045 38.2459 538.045 37.7935C538.045 37.3411 538.513 36.9743 539.091 36.9743C539.669 36.9743 540.137 37.3411 540.137 37.7935Z" fill="white"/>
<path d="M547.661 27.2241H517.038L528.251 4.56244C529.022 3.00387 530.611 2.01758 532.349 2.01758C534.088 2.01758 535.677 3.00387 536.448 4.56244L547.661 27.2241Z" fill="#50434A"/>
<path d="M549.635 24.943H515.064L517.489 20.017C517.913 19.1563 518.789 18.6111 519.749 18.6111H544.95C545.91 18.6111 546.786 19.1563 547.21 20.017L549.635 24.943Z" fill="#845394"/>
<path d="M534.789 18.5702H529.91C528.671 18.5702 527.666 19.5752 527.666 20.8149V23.4853C527.666 24.725 528.671 25.73 529.91 25.73H534.789C536.029 25.73 537.034 24.725 537.034 23.4853V20.8149C537.034 19.5752 536.029 18.5702 534.789 18.5702Z" fill="#805293"/>
<path d="M534.789 26.3977H529.91C528.304 26.3977 526.998 25.0914 526.998 23.4853V20.8149C526.998 19.2089 528.304 17.9026 529.91 17.9026H534.789C536.395 17.9026 537.701 19.2089 537.701 20.8149V23.4853C537.701 25.0914 536.395 26.3977 534.789 26.3977ZM529.91 19.2378C529.041 19.2378 528.333 19.9453 528.333 20.8149V23.4853C528.333 24.3549 529.041 25.0624 529.91 25.0624H534.789C535.658 25.0624 536.366 24.3549 536.366 23.4853V20.8149C536.366 19.9453 535.658 19.2378 534.789 19.2378H529.91Z" fill="#F3B11F"/>
<path d="M546.669 30.5371H518.03C515.527 30.5371 513.016 29.9558 510.768 28.8565C509.222 28.1006 508.581 26.2344 509.337 24.688C510.093 23.1417 511.96 22.5007 513.506 23.2577C514.906 23.9424 516.471 24.3046 518.03 24.3046H546.669C548.228 24.3046 549.792 23.9424 551.193 23.2577C552.739 22.5022 554.606 23.1421 555.361 24.688C556.118 26.2344 555.477 28.1006 553.931 28.8565C551.683 29.9558 549.171 30.5371 546.669 30.5371Z" fill="#50434A"/>
<defs>
<clipPath id="clip0_6104_13287">
<rect width="56" height="56" fill="white" transform="translate(168)"/>
</clipPath>
<clipPath id="clip1_6104_13287">
<rect width="56" height="56" fill="white" transform="translate(448)"/>
</clipPath>
</defs>
</svg>
