<svg width="100" height="101" viewBox="0 0 100 101" fill="none" xmlns="http://www.w3.org/2000/svg">
<g clip-path="url(#clip0_6365_2548)">
<rect y="0.625" width="100" height="100" rx="50" fill="#A5C5FF"/>
<path d="M84.574 76.8153C77.503 64.4798 62.5353 62.1572 62.5353 62.1572H35.6449C35.6449 62.1572 23.7223 63.3959 15.3094 76.6604C9.55258 85.7372 8.82284 95.417 8.93574 100.625H91.3656C91.0132 95.7246 89.671 85.7071 84.574 76.8153Z" fill="#545555"/>
<path d="M49.213 100.625H52.2067L66.0005 63.0048C63.901 62.3697 62.5353 62.1572 62.5353 62.1572H35.645C35.645 62.1572 34.8837 62.2366 33.6112 62.5685L49.213 100.625Z" fill="#DBD8D0"/>
<path d="M23.8256 38.9571C23.5676 38.4926 18.9224 19.2926 33.7353 16.5055C33.7353 16.5055 39.516 6.75068 57.6321 11.912C75.7482 17.0733 76.6772 30.9055 74.1482 40.5571C71.6192 50.2088 23.8256 38.9571 23.8256 38.9571Z" fill="#342D27"/>
<path d="M49.832 56.054C42.857 56.054 37.3933 59.942 37.3933 64.9056C37.3933 69.8691 42.857 73.7572 49.832 73.7572C56.807 73.7572 62.2708 69.8691 62.2708 64.9056C62.2708 59.942 56.807 56.054 49.832 56.054Z" fill="#CECBC4"/>
<path d="M49.832 71.3571C55.3763 71.3571 59.8707 68.4686 59.8707 64.9055C59.8707 61.3423 55.3763 58.4539 49.832 58.4539C44.2878 58.4539 39.7933 61.3423 39.7933 64.9055C39.7933 68.4686 44.2878 71.3571 49.832 71.3571Z" fill="#FEB993"/>
<path d="M27.2321 39.1248C27.2321 39.1248 23.6192 35.899 19.7998 40.3893C15.9805 44.8797 21.1418 51.6218 26.1998 50.6249C26.1998 50.6249 29.7744 67.0861 50 67.6539C70.2256 68.2216 73.374 50.6249 73.374 50.6249C73.374 50.6249 80.8579 51.8603 80.8063 44.2732C80.7547 36.6861 72.9095 37.3055 72.1353 39.4732C72.1353 39.4732 67.9547 33.899 67.5418 29.3055C67.5418 29.3055 47.516 33.2797 34.716 22.5442C34.716 22.5442 37.2966 30.5184 27.2321 39.1248Z" fill="#FFCFAE"/>
<path d="M42.6127 41.8734C42.6127 40.4553 41.463 39.3057 40.0449 39.3057C38.6268 39.3057 37.4772 40.4553 37.4772 41.8734V43.7573C37.4772 45.1754 38.6268 46.325 40.0449 46.325C41.463 46.325 42.6127 45.1754 42.6127 43.7573V41.8734Z" fill="#27241E"/>
<path d="M62.0708 41.8734C62.0708 40.4553 60.9212 39.3057 59.503 39.3057C58.0849 39.3057 56.9353 40.4553 56.9353 41.8734V43.7573C56.9353 45.1754 58.0849 46.325 59.503 46.325C60.9212 46.325 62.0708 45.1754 62.0708 43.7573V41.8734Z" fill="#27241E"/>
<path d="M49.5224 44.5701C48.5301 44.6472 48.4385 46.0604 48.3417 47.2701C48.245 48.4798 48.332 49.6121 49.8804 49.7185C51.4288 49.8249 51.4288 48.412 51.3417 47.3379C51.2546 46.2637 51.3901 44.425 49.5224 44.5701Z" fill="#E99154"/>
<path d="M45.0256 53.5776C45.0256 53.5776 46.2643 55.2551 50.1095 55.126C53.9547 54.997 54.6515 53.397 54.6515 53.397" stroke="#E17D3E" stroke-width="1.6" stroke-linecap="round" stroke-linejoin="round"/>
<path d="M42.1351 37.7119C41.9421 37.7119 41.7487 37.6426 41.595 37.5021C39.8405 35.8961 37.8392 37.3367 37.755 37.3988C37.4003 37.6601 36.8999 37.5867 36.637 37.2335C36.3743 36.8803 36.4446 36.3823 36.7964 36.1177C37.8706 35.3102 40.4814 34.3139 42.6755 36.3218C43.0013 36.6201 43.0237 37.1262 42.7253 37.4521C42.5677 37.6244 42.3517 37.7119 42.1351 37.7119Z" fill="#38312B"/>
<path d="M57.0741 37.7121C56.8575 37.7121 56.6415 37.6246 56.4837 37.4523C56.1855 37.1263 56.2079 36.6202 56.5339 36.322C58.7278 34.3136 61.3388 35.3104 62.413 36.1179C62.7661 36.3834 62.837 36.885 62.5716 37.2381C62.3066 37.5904 61.8066 37.6616 61.454 37.3987C61.3622 37.3313 59.3655 35.9 57.614 37.5023C57.4605 37.6428 57.2671 37.7121 57.0741 37.7121Z" fill="#38312B"/>
<path d="M81.2493 100.625C81.8528 96.2447 80.9516 90.8815 80.82 90.1401C80.6753 89.3246 79.8948 88.7804 79.0813 88.9255C78.2657 89.0701 77.7218 89.8485 77.8661 90.664C78.1988 92.5443 78.7651 97.3127 78.2174 100.625H81.2493Z" fill="#4C4C4C"/>
<path d="M25.1928 90.6644C25.3375 89.8487 24.7938 89.0701 23.978 88.9252C23.1633 88.7803 22.3836 89.3243 22.2389 90.14C22.1073 90.8814 21.2062 96.2446 21.8098 100.625H24.8415C24.2938 97.3128 24.8602 92.545 25.1928 90.6644Z" fill="#4C4C4C"/>
<path d="M33.6111 46.5378C30.2565 46.5378 27.4313 48.7964 26.568 51.8752C27.2275 53.8118 28.8989 57.671 32.5355 61.0907C32.8866 61.1425 33.2456 61.1701 33.6111 61.1701C37.6517 61.1701 40.9272 57.8945 40.9272 53.854C40.9272 49.8134 37.6517 46.5378 33.6111 46.5378Z" fill="#FFC9A4"/>
<path d="M73.0524 51.9068C72.1996 48.812 69.3664 46.5381 66.0004 46.5381C61.9599 46.5381 58.6843 49.8136 58.6843 53.8542C58.6843 57.8948 61.9599 61.1704 66.0004 61.1704C66.6805 61.1704 67.338 61.0756 67.9627 60.902C71.0809 57.5481 72.4915 53.8172 73.0524 51.9068Z" fill="#FFC9A4"/>
</g>
<defs>
<clipPath id="clip0_6365_2548">
<rect y="0.625" width="100" height="100" rx="50" fill="white"/>
</clipPath>
</defs>
</svg>
