<svg width="101" height="101" viewBox="0 0 101 101" fill="none" xmlns="http://www.w3.org/2000/svg">
<g clip-path="url(#clip0_6365_2575)">
<rect x="0.666748" y="0.625" width="100" height="100" rx="50" fill="#FFED86"/>
<path d="M35.0407 63.3799C35.0407 63.3799 34.8859 63.5863 32.6924 64.2831C30.4988 64.9798 29.2085 66.2185 29.2085 66.2185C29.2085 66.2185 31.7246 73.7153 29.5569 79.2508C27.3891 84.7863 25.6859 95.3671 27.4278 100.625H73.8794C73.8794 100.625 75.5052 93.5347 73.8794 86.954C72.2536 80.3734 70.3956 78.6702 70.8601 73.3669C71.3246 68.0637 72.2536 66.0895 72.2536 66.0895C72.2536 66.0895 66.5633 62.8379 65.0149 62.8379C63.4665 62.8379 35.0407 63.3799 35.0407 63.3799Z" fill="#123450"/>
<path d="M87.9246 85.2346C82.144 65.8798 72.2537 66.0894 72.2537 66.0894L68.3118 73.0023L69.2788 100.625H90.6763C90.6236 96.9502 89.9293 91.9465 87.9246 85.2346Z" fill="#123450"/>
<path d="M17.2923 76.1249C12.0871 85.2395 11.0691 97.2491 10.8812 100.625H32.2446C31.9152 90.789 31.0213 66.8862 31.0213 66.8862L29.2084 66.2185C29.2084 66.2185 23.4084 65.4152 17.2923 76.1249Z" fill="#123450"/>
<path d="M61.1061 100.625L60.0213 92.9282H40.7826L38.3462 100.625H61.1061Z" fill="#3A2A26"/>
<path d="M60.6978 97.7282L60.0213 92.9282H40.7826L39.2632 97.7282H60.6978Z" fill="#31231B"/>
<path d="M50.5907 97.3639C51.6061 97.3639 52.4294 96.5407 52.4294 95.5252C52.4294 94.5097 51.6061 93.6865 50.5907 93.6865C49.5752 93.6865 48.752 94.5097 48.752 95.5252C48.752 96.5407 49.5752 97.3639 50.5907 97.3639Z" fill="#D8A547"/>
<path d="M45.0278 74.541C35.9122 73.3716 33.6028 66.9925 33.0247 64.176C32.9191 64.2104 32.8092 64.2458 32.6924 64.283C30.4988 64.9797 29.2085 66.2185 29.2085 66.2185C29.2085 66.2185 31.7246 73.7152 29.5569 79.2507C27.3891 84.7862 25.6859 95.367 27.4278 100.625H44.1846C47.1982 91.285 45.0278 74.541 45.0278 74.541Z" fill="#B0352B"/>
<path d="M70.86 73.3669C71.3245 68.0637 72.2536 66.0895 72.2536 66.0895C72.2536 66.0895 70.2593 64.9499 68.3107 64.02C67.7866 66.7491 65.5647 73.3495 56.2765 74.5411C56.2765 74.5411 54.1061 91.285 57.1198 100.625H73.8794C73.8794 100.625 75.5052 93.5346 73.8794 86.954C72.2536 80.3733 70.3955 78.6701 70.86 73.3669Z" fill="#B0352B"/>
<path d="M42.6288 74.0791C42.9129 75.3006 43.4531 78.463 43.4149 84.7605C43.3731 91.6592 42.2306 98.3371 41.7981 100.625H44.1845C47.1982 91.2851 45.0278 74.5412 45.0278 74.5412C44.169 74.431 43.3709 74.2744 42.6288 74.0791Z" fill="#7D1B16"/>
<path d="M57.8923 86.3991C57.7013 79.6206 58.2885 76.5071 58.8985 74.0154C58.0929 74.2394 57.2232 74.4196 56.2765 74.541C56.2765 74.541 54.1061 91.285 57.1198 100.625H59.5093C59.0129 97.8396 58.0447 91.8103 57.8923 86.3991Z" fill="#7D1B16"/>
<path d="M40.5633 60.0186C40.5633 60.0186 34.5246 62.554 34.7182 63.5024C34.9117 64.4508 37.7569 72.8508 45.9633 72.6379C48.5182 71.9024 50.7569 67.7605 50.7569 67.7605C50.7569 67.7605 53.3762 72.1233 56.0859 72.6419C58.7956 73.1605 65.944 68.8831 66.6408 63.5024C66.6408 63.1347 60.7375 60.2895 60.1569 60.4057C59.5762 60.5218 40.5633 60.0186 40.5633 60.0186Z" fill="#F0EAD8"/>
<path d="M40.7827 60.0829C40.7827 60.0829 41.2214 66.5345 50.4859 66.3797C59.7505 66.2248 60.7311 59.8765 60.7311 59.8765L40.7827 60.0829Z" fill="#FEB993"/>
<path d="M40.0084 59.6572C40.0084 59.6572 36.6536 60.5346 32.7052 57.2314C32.7052 57.2314 27.0536 57.9539 22.2794 53.1023C17.5052 48.2507 21.7116 40.0701 21.7116 40.0701C21.7116 40.0701 18.8471 36.8701 19.6729 30.9862C20.4988 25.1023 26.5116 23.4249 26.5116 23.4249C26.5116 23.4249 26.3568 17.2571 31.002 14.2378C35.6471 11.2184 39.1826 12.9475 39.1826 12.9475C39.1826 12.9475 41.6342 6.75393 50.9761 6.72811C60.3181 6.70229 62.2019 12.9733 62.2019 12.9733C62.2019 12.9733 67.0019 11.1926 71.5697 15.2958C76.1374 19.3991 74.7439 23.5797 74.7439 23.5797C74.7439 23.5797 80.2923 24.9475 81.8148 30.5217C83.3374 36.0959 79.8019 39.9152 79.8019 39.9152C79.8019 39.9152 83.8794 47.3217 79.6729 52.6636C75.4664 58.0055 68.7568 57.3087 68.7568 57.3087C68.7568 57.3087 64.6277 60.2765 62.2019 59.6313L69.4923 46.4571L66.1632 33.9152L55.5568 32.3668L44.331 26.6378L40.3052 31.2829L34.5761 33.2454L32.4084 39.8765L24.589 40.6507L27.8406 46.7668L31.9439 46.2248L34.9632 54.3539L40.0084 59.6572Z" fill="#392716"/>
<path d="M31.131 37.838V39.0509C31.131 39.0509 33.6858 37.5283 33.3762 32.6767C33.3762 32.6767 42.331 31.6702 44.1375 24.2896C44.1375 24.2896 51.4407 33.6573 67.931 32.5992C67.931 32.5992 67.5439 36.8573 70.331 39.0509L70.4858 37.7605C70.4858 37.7605 73.0665 36.0057 76.1375 38.5863C79.2084 41.167 77.7633 49.5025 70.2794 47.9283C70.2794 47.9283 69.6991 62.367 50.6667 62.2896C31.6342 62.2122 31.131 47.8896 31.131 47.8896C31.131 47.8896 26.9181 49.3412 24.5181 45.4509C22.1181 41.5606 24.9246 37.8057 27.0923 37.2831C29.1741 36.7812 30.331 36.9605 31.131 37.838Z" fill="#FFCFAE"/>
<path d="M59.0083 45.5056C60.3712 45.5056 61.476 44.1451 61.476 42.4669C61.476 40.7887 60.3712 39.4282 59.0083 39.4282C57.6454 39.4282 56.5405 40.7887 56.5405 42.4669C56.5405 44.1451 57.6454 45.5056 59.0083 45.5056Z" fill="#1F272E"/>
<path d="M42.4964 45.5056C43.8593 45.5056 44.9642 44.1451 44.9642 42.4669C44.9642 40.7887 43.8593 39.4282 42.4964 39.4282C41.1335 39.4282 40.0287 40.7887 40.0287 42.4669C40.0287 44.1451 41.1335 45.5056 42.4964 45.5056Z" fill="#1F272E"/>
<path d="M50.7568 44.7378H50.7568C50.1475 44.7378 49.6536 45.2317 49.6536 45.841V47.5249C49.6536 48.1342 50.1475 48.6281 50.7568 48.6281H50.7568C51.3661 48.6281 51.86 48.1342 51.86 47.5249V45.841C51.86 45.2317 51.3661 44.7378 50.7568 44.7378Z" fill="#F79368"/>
<path d="M46.7181 51.9314C46.7181 51.9314 47.9375 53.112 50.8988 53.112C53.8601 53.112 54.7117 51.9314 54.7117 51.9314" stroke="#E36838" stroke-width="2" stroke-linecap="round" stroke-linejoin="round"/>
<path d="M39.3899 38.4033C39.2129 38.4033 39.036 38.3369 38.9001 38.2034C38.6255 37.9336 38.6186 37.4943 38.8868 37.218C38.9774 37.1245 41.1448 34.9432 44.3485 36.2025C44.7083 36.3439 44.8854 36.7502 44.744 37.11C44.6026 37.4698 44.1956 37.6468 43.8364 37.5054C41.5172 36.5941 39.954 38.1301 39.8885 38.1959C39.7514 38.3339 39.5706 38.4033 39.3899 38.4033Z" fill="#3A2719"/>
<path d="M62.1891 38.7344C62.0049 38.7344 61.8209 38.6621 61.6834 38.5185C59.8613 36.6154 57.4227 37.3872 57.3201 37.4212C56.9531 37.5415 56.5578 37.3434 56.4361 36.9778C56.3143 36.612 56.5096 36.2172 56.8748 36.0939C57.0113 36.0477 60.2469 34.9935 62.6947 37.5503C62.9621 37.8296 62.9524 38.2727 62.6731 38.5401C62.5375 38.6699 62.3631 38.7344 62.1891 38.7344Z" fill="#3A2719"/>
<path d="M38.3757 51.5702C40.0004 51.5702 41.3176 50.253 41.3176 48.6282C41.3176 47.0034 40.0004 45.6863 38.3757 45.6863C36.7509 45.6863 35.4337 47.0034 35.4337 48.6282C35.4337 50.253 36.7509 51.5702 38.3757 51.5702Z" fill="#FFAF86"/>
<path d="M62.5859 51.5702C64.2106 51.5702 65.5278 50.253 65.5278 48.6282C65.5278 47.0034 64.2106 45.6863 62.5859 45.6863C60.9611 45.6863 59.6439 47.0034 59.6439 48.6282C59.6439 50.253 60.9611 51.5702 62.5859 51.5702Z" fill="#FFAF86"/>
</g>
<defs>
<clipPath id="clip0_6365_2575">
<rect x="0.666748" y="0.625" width="100" height="100" rx="50" fill="white"/>
</clipPath>
</defs>
</svg>
