<svg width="101" height="101" viewBox="0 0 101 101" fill="none" xmlns="http://www.w3.org/2000/svg">
<g clip-path="url(#clip0_6365_2520)">
<rect x="0.333374" y="0.625" width="100" height="100" rx="50" fill="#86D9BA"/>
<path d="M83.43 38.349C81.1461 34.1278 78.2816 33.8605 76.0751 24.2605C73.8687 14.6605 63.3784 14.6991 63.3784 14.6991C53.1179 5.32493 35.4154 11.2904 29.2721 18.8225C23.3544 20.6994 21.4071 27.5027 20.9273 33.2453C20.8239 34.4832 20.3793 35.6654 19.6483 36.6699C19.6443 36.6753 19.6404 36.6808 19.6364 36.6862C17.159 40.0927 15.1074 43.1507 17.3525 47.9507C19.5929 52.7406 16.1912 55.654 20.2171 59.6411C24.2429 63.6282 29.0042 62.1185 29.0042 62.1185C31.6364 66.8798 37.8687 66.8024 37.8687 66.8024L51.2235 61.0734C51.2235 61.0734 55.9848 66.5701 62.9525 66.8025C69.9203 67.0348 72.0106 62.2734 72.0106 62.2734C72.0106 62.2734 75.8042 62.7766 78.7327 61.0734C81.6614 59.3702 81.7655 56.7766 81.5332 53.7959C81.301 50.8153 80.9138 50.9314 82.23 48.5314C83.5461 46.1314 85.7139 42.5702 83.43 38.349Z" fill="#85481C"/>
<path d="M37.6881 65.6798C37.6881 65.6798 32.5913 66.183 23.9591 72.0282C15.6734 77.6387 11.9193 89.4186 11.631 100.625H89.0892C88.9537 96.8737 88 86.2488 81.7526 76.8153C74.0107 65.125 52.101 63.5959 52.101 63.5959L37.6881 65.6798Z" fill="#5E956D"/>
<path d="M57.1176 74.9502C56.6771 75.9765 54.6243 75.1205 52.7849 75.0507C50.7009 74.9717 47.491 75.1289 45.4683 73.7129L42.1139 75.8088V100.625H58.7332V75.8088L57.1176 74.9502Z" fill="#FAF8F1"/>
<path d="M50.3334 76.1702C50.3334 76.1702 52.2752 79.6165 58.7332 79.4464V77.5517L50.3334 75.125L42.1139 77.1404V79.0214C44.1682 79.0567 47.9641 78.74 50.3334 76.1702Z" fill="#EEEDE6"/>
<path d="M38.8742 64.4581L39.7784 63.5959C39.7784 63.5959 50.7203 68.3959 60.8881 63.5959L62.6429 65.2476C62.6429 65.2476 58.8239 73.9443 50.3334 75.0508C50.3334 75.0508 39.0477 73.4697 38.677 64.9385C38.6691 64.758 38.7435 64.5827 38.8742 64.4581Z" fill="#FEB993"/>
<path d="M39.064 65.2175C39.4897 66.9953 41.4792 70.7929 50.3333 74.8218C50.3333 74.8218 60.3402 70.764 61.6632 65.1981C61.7738 64.7328 62.3268 64.5334 62.7173 64.8096L64.2545 65.8968C64.5295 66.0912 64.7448 66.3596 64.8683 66.6729C65.31 67.7931 66.1017 70.6504 64.359 73.8154C62.1138 77.8928 58.398 79.6735 50.3333 75.2348C50.3333 75.2348 44.1009 79.7251 39.5848 77.067C35.151 74.4575 34.6722 69.9722 35.9992 66.3713C36.0474 66.2406 36.1364 66.1288 36.2508 66.0493L38.014 64.8246C38.4055 64.5527 38.9531 64.7539 39.064 65.2175Z" fill="#FDFBF6"/>
<path d="M77.3515 100.625C77.8325 95.1123 75.9381 88.9178 75.8466 88.6231C75.7153 88.2012 75.2665 87.9649 74.8452 88.0965C74.4231 88.2275 74.1874 88.6759 74.3185 89.0977C74.3401 89.1673 76.2416 95.382 75.7441 100.625L77.3515 100.625Z" fill="#3E7452"/>
<path d="M26.5615 89.0975C26.6923 88.6756 26.4564 88.2273 26.0345 88.0964C25.6134 87.9657 25.1646 88.2011 25.0333 88.623C24.9418 88.9177 23.0474 95.1122 23.5284 100.625H25.1361C24.6402 95.3867 26.5398 89.1671 26.5615 89.0975Z" fill="#3E7452"/>
<path d="M32.2558 34.3635C32.2558 34.3635 52.1784 35.241 57.1332 21.4087C57.1332 21.4087 59.2623 30.5958 68.4365 33.4603C68.4365 33.4603 68.3977 38.3764 70.4881 41.0474C70.4881 41.0474 73.4687 37.0216 77.1848 40.7377C80.901 44.4539 77.6106 53.4282 70.6816 50.6249C70.6816 50.6249 69.4042 66.3248 50.0494 66.17C30.6945 66.0152 30.0752 50.6249 30.0752 50.6249C30.0752 50.6249 23.8816 53.3184 21.9849 46.2732C20.0881 39.2281 28.2171 37.4087 30.1139 40.9313C30.1139 40.9313 33.159 38.7506 32.2558 34.3635Z" fill="#FFCFAE"/>
<path d="M43.9203 53.3197C43.9203 53.3197 45.8816 56.468 50.8106 56.4164C55.7396 56.3648 56.8235 53.0874 56.8235 53.0874" stroke="#C65315" stroke-width="1.4" stroke-miterlimit="10" stroke-linecap="round"/>
<path d="M39.5581 45.8235C39.1956 45.8235 38.8892 45.5452 38.861 45.178C38.847 44.9915 38.7516 43.3261 39.7743 42.297C40.1507 41.9184 40.8331 41.4837 41.9561 41.562C44.4724 41.7381 45.304 43.8482 45.3921 44.9394C45.4233 45.3248 45.1362 45.6623 44.7509 45.6935C44.3663 45.7243 44.0276 45.4374 43.9968 45.0521C43.9784 44.8556 43.7593 43.0917 41.8585 42.9585C41.3753 42.9253 41.0212 43.0304 40.7702 43.2811C40.2815 43.7692 40.2343 44.7408 40.2573 45.074C40.2837 45.4586 39.9942 45.7937 39.6096 45.8216C39.5925 45.8229 39.5751 45.8235 39.5581 45.8235Z" fill="#141C1D"/>
<path d="M61.1599 46.1863C61.1314 46.1863 61.1027 46.1846 61.0736 46.181C60.69 46.1338 60.4171 45.7845 60.4644 45.4007C60.5091 45.0185 60.5105 43.8971 59.984 43.331C59.7261 43.0535 59.3531 42.9285 58.8414 42.9521C56.9039 43.0372 56.8445 44.564 56.8523 44.8692C56.8621 45.2536 56.5601 45.5767 56.176 45.5895C55.8004 45.6066 55.4691 45.3057 55.4533 44.9214C55.4076 43.809 56.0443 41.6735 58.7801 41.5534C59.9387 41.5018 60.6383 41.9763 61.0144 42.3832C62.0711 43.5263 61.8793 45.3657 61.8539 45.5718C61.8103 45.9264 61.5084 46.1863 61.1599 46.1863Z" fill="#141C1D"/>
<path d="M38.3841 37.8084C38.2552 37.8084 38.1249 37.7729 38.0087 37.6983C37.6854 37.4909 37.5878 37.0646 37.7923 36.7396C37.8126 36.7071 39.8751 33.5312 44.3708 35.626C44.7212 35.7893 44.8729 36.2058 44.7097 36.5562C44.5462 36.9066 44.13 37.0583 43.7794 36.8949C40.4347 35.3362 39.0319 37.4011 38.9741 37.4898C38.8393 37.6956 38.6138 37.8084 38.3841 37.8084Z" fill="#86491D"/>
<path d="M62.4626 38.1217C62.2594 38.1217 62.0581 38.0338 61.9198 37.8642C59.9004 35.3886 56.9895 36.6501 56.8662 36.705C56.5145 36.862 56.1 36.7058 55.9415 36.3542C55.7829 36.0028 55.9374 35.5898 56.2881 35.4299C57.6635 34.8036 60.8364 34.3215 63.0045 36.9792C63.2489 37.2788 63.2041 37.7198 62.9047 37.9641C62.7747 38.0702 62.6182 38.1217 62.4626 38.1217Z" fill="#86491D"/>
<path d="M50.3784 50.4282C51.6362 50.4282 52.6558 49.5733 52.6558 48.5186C52.6558 47.4639 51.6362 46.6089 50.3784 46.6089C49.1206 46.6089 48.101 47.4639 48.101 48.5186C48.101 49.5733 49.1206 50.4282 50.3784 50.4282Z" fill="#FFA766"/>
<path d="M34.0303 50.2834C32.604 50.2834 31.2757 50.6999 30.1571 51.4154C30.4609 53.5848 31.8651 59.718 38.1896 63.3587C40.0288 62.0543 41.2303 59.9099 41.2303 57.4834C41.2303 53.507 38.0067 50.2834 34.0303 50.2834Z" fill="#FFC9A4"/>
<path d="M65.9332 50.2832C61.9567 50.2832 58.7332 53.5067 58.7332 57.4832C58.7332 60.0055 60.0312 62.2234 61.9946 63.5094C68.087 60.1264 69.938 54.424 70.4742 51.8968C69.2352 50.8884 67.6551 50.2832 65.9332 50.2832Z" fill="#FFC9A4"/>
</g>
<defs>
<clipPath id="clip0_6365_2520">
<rect x="0.333374" y="0.625" width="100" height="100" rx="50" fill="white"/>
</clipPath>
</defs>
</svg>
